<svg width="877" height="877" viewBox="0 0 877 877" fill="none" xmlns="http://www.w3.org/2000/svg">
<path d="M172.874 311.262H139.134C137.979 311.262 137.042 312.198 137.042 313.354V318.528C137.042 319.683 137.979 320.62 139.134 320.62H172.874C174.03 320.62 174.966 319.683 174.966 318.528V313.354C174.966 312.198 174.03 311.262 172.874 311.262Z" fill="#41D3BD"/>
<path d="M172.906 329.074H139.102C137.964 329.074 137.042 329.997 137.042 331.135V336.089C137.042 337.227 137.964 338.149 139.102 338.149H172.906C174.044 338.149 174.966 337.227 174.966 336.089V331.135C174.966 329.997 174.044 329.074 172.906 329.074Z" fill="#ADC6FF"/>
<path d="M172.906 346.887H139.102C137.964 346.887 137.042 347.809 137.042 348.947V353.901C137.042 355.039 137.964 355.962 139.102 355.962H172.906C174.044 355.962 174.966 355.039 174.966 353.901V348.947C174.966 347.809 174.044 346.887 172.906 346.887Z" fill="#FF7946"/>
<path d="M172.906 364.699H139.102C137.964 364.699 137.042 365.622 137.042 366.76V371.714C137.042 372.852 137.964 373.774 139.102 373.774H172.906C174.044 373.774 174.966 372.852 174.966 371.714V366.76C174.966 365.622 174.044 364.699 172.906 364.699Z" fill="#ADC6FF"/>
<path d="M403.223 192.055H106.534C101.438 192.055 97.3066 196.186 97.3066 201.282V414.342C97.3066 419.438 101.438 423.57 106.534 423.57H403.223C408.319 423.57 412.45 419.438 412.45 414.342V201.282C412.45 196.186 408.319 192.055 403.223 192.055Z" fill="#E4EBF7"/>
<path d="M382.909 233.161H203.578C201.641 233.161 200.071 234.732 200.071 236.669V399.557C200.071 401.494 201.641 403.064 203.578 403.064H382.909C384.846 403.064 386.416 401.494 386.416 399.557V236.669C386.416 234.732 384.846 233.161 382.909 233.161Z" fill="#41D3BD"/>
<path d="M354.902 285.228H223.364V293.449H354.902V285.228Z" fill="white"/>
<path d="M289.133 314.002H223.364V322.223H289.133V314.002Z" fill="#FAAD14"/>
<path d="M345.311 256.454H279.542V264.675H345.311V256.454Z" fill="#FAAD14"/>
<path d="M343.94 370.18H223.364V378.401H343.94V370.18Z" fill="white"/>
<path d="M263.099 256.454H223.364V264.675H263.099V256.454Z" fill="white"/>
<path d="M322.018 314.002H302.835V322.223H322.018V314.002Z" fill="#E4EBF7"/>
<path d="M320.647 341.406H223.364V349.627H320.647V341.406Z" fill="#E4EBF7"/>
<path d="M105.748 181.094H403.85C408.512 181.094 412.292 184.795 412.292 189.36V213.992H97.3066V189.36C97.3066 184.795 101.086 181.094 105.748 181.094Z" fill="#253368"/>
<path d="M115.663 203.855C118.991 203.855 121.688 201.213 121.688 197.955C121.688 194.697 118.991 192.055 115.663 192.055C112.336 192.055 109.638 194.697 109.638 197.955C109.638 201.213 112.336 203.855 115.663 203.855Z" fill="#FF7946"/>
<path d="M138.956 203.855C142.284 203.855 144.981 201.213 144.981 197.955C144.981 194.697 142.284 192.055 138.956 192.055C135.629 192.055 132.931 194.697 132.931 197.955C132.931 201.213 135.629 203.855 138.956 203.855Z" fill="#FAAD14"/>
<path d="M160.88 203.855C164.207 203.855 166.905 201.213 166.905 197.955C166.905 194.697 164.207 192.055 160.88 192.055C157.552 192.055 154.854 194.697 154.854 197.955C154.854 201.213 157.552 203.855 160.88 203.855Z" fill="#7CB305"/>
<path d="M186.796 230.42H125.653C123.619 230.42 121.97 232.069 121.97 234.103V399.381C121.97 401.415 123.619 403.064 125.653 403.064H186.796C188.83 403.064 190.479 401.415 190.479 399.381V234.103C190.479 232.069 188.83 230.42 186.796 230.42Z" fill="white"/>
<path d="M172.874 311.262H139.134C137.979 311.262 137.042 312.198 137.042 313.354V318.528C137.042 319.683 137.979 320.62 139.134 320.62H172.874C174.03 320.62 174.966 319.683 174.966 318.528V313.354C174.966 312.198 174.03 311.262 172.874 311.262Z" fill="#41D3BD"/>
<path d="M172.906 329.074H139.102C137.964 329.074 137.042 329.997 137.042 331.135V336.089C137.042 337.227 137.964 338.149 139.102 338.149H172.906C174.044 338.149 174.966 337.227 174.966 336.089V331.135C174.966 329.997 174.044 329.074 172.906 329.074Z" fill="#ADC6FF"/>
<path d="M172.906 346.887H139.102C137.964 346.887 137.042 347.809 137.042 348.947V353.901C137.042 355.039 137.964 355.962 139.102 355.962H172.906C174.044 355.962 174.966 355.039 174.966 353.901V348.947C174.966 347.809 174.044 346.887 172.906 346.887Z" fill="#FF7946"/>
<path d="M172.906 364.699H139.102C137.964 364.699 137.042 365.622 137.042 366.76V371.714C137.042 372.852 137.964 373.774 139.102 373.774H172.906C174.044 373.774 174.966 372.852 174.966 371.714V366.76C174.966 365.622 174.044 364.699 172.906 364.699Z" fill="#ADC6FF"/>
<path d="M155.532 286.672C164.888 286.672 172.473 279.001 172.473 269.538C172.473 260.076 164.888 252.405 155.532 252.405C146.176 252.405 138.591 260.076 138.591 269.538C138.591 279.001 146.176 286.672 155.532 286.672Z" fill="#FAAD14"/>
<path d="M155.532 286.672C160.415 286.675 165.049 284.493 168.19 280.713C165.715 275.96 160.841 272.985 155.53 272.985C150.219 272.985 145.344 275.96 142.869 280.713C146.012 284.494 150.648 286.675 155.532 286.672Z" fill="#253368"/>
<path d="M155.622 273.667C159.141 273.667 161.994 270.782 161.994 267.223C161.994 263.664 159.141 260.779 155.622 260.779C152.104 260.779 149.251 263.664 149.251 267.223C149.251 270.782 152.104 273.667 155.622 273.667Z" fill="#253368"/>
<path d="M482.337 253.03C482.337 229.871 463.557 210.899 440.391 210.899C417.225 210.899 398.443 229.871 398.443 253.03C398.443 262.196 403.311 274.036 411.126 282.765C418.876 291.415 421.083 305.976 421.083 317.588V322.141H459.699V317.626C459.699 306.014 461.906 291.48 469.616 282.803C477.458 273.984 482.337 261.093 482.337 253.03Z" fill="#FFE58F"/>
<path d="M475.433 252.916C475.433 233.572 459.749 217.722 440.391 217.722C421.033 217.722 405.352 233.57 405.352 252.916C405.352 260.58 409.416 270.466 415.946 277.758C422.42 284.984 427.227 297.149 427.227 306.849V310.648H453.557V306.881C453.557 297.18 458.364 285.038 464.806 277.789C471.357 270.423 475.433 259.654 475.433 252.918V252.916Z" fill="#FAAD14"/>
<path d="M451.037 343.385H429.745C429 343.385 428.322 342.901 427.917 342.107L425.021 334.613H455.765L452.868 342.107C452.462 342.901 451.785 343.385 451.041 343.385H451.037Z" fill="#253368"/>
<path d="M456.208 304.821H424.574C422.223 304.821 420.318 306.726 420.318 309.077V333.583C420.318 335.934 422.223 337.839 424.574 337.839H456.208C458.559 337.839 460.464 335.934 460.464 333.583V309.077C460.464 306.726 458.559 304.821 456.208 304.821Z" fill="#41D3BD"/>
<path d="M442.987 313.668C443.378 313.668 443.696 313.986 443.696 314.377C443.696 314.759 443.395 315.07 443.018 315.086L442.987 315.086H420.37C419.978 315.086 419.661 314.769 419.661 314.377C419.661 313.996 419.962 313.685 420.339 313.669L420.37 313.668H442.987Z" fill="white"/>
<path d="M442.987 328.348C443.378 328.348 443.696 328.665 443.696 329.057C443.696 329.438 443.395 329.749 443.018 329.765L442.987 329.766H420.37C419.978 329.766 419.661 329.448 419.661 329.057C419.661 328.675 419.962 328.364 420.339 328.348L420.37 328.348H442.987Z" fill="white"/>
<path d="M460.335 321.007C460.726 321.007 461.044 321.324 461.044 321.716C461.044 322.097 460.743 322.408 460.365 322.424L460.335 322.425H437.717C437.326 322.425 437.008 322.107 437.008 321.716C437.008 321.335 437.309 321.024 437.687 321.007L437.717 321.007H460.335Z" fill="white"/>
<path d="M443.252 236.098L427.44 260.183C426.589 261.489 427.504 263.094 429.037 263.094H436.12L427.411 279.545C426.762 280.875 428.437 282.109 429.463 281.057L453.148 257.263C454.356 256.024 453.498 253.909 451.788 253.909H441.077L445.558 237.148C445.909 235.717 444.048 234.878 443.252 236.098Z" fill="white"/>
<path fill-rule="evenodd" clip-rule="evenodd" d="M324.412 544.485L295.935 633.942H313.152L341.628 544.485H324.412Z" fill="#41D3BD"/>
<path fill-rule="evenodd" clip-rule="evenodd" d="M283.805 554.655H265.529H254.008C253.109 554.655 252.38 555.384 252.38 556.283V567.804V610.623V622.144C252.38 623.043 253.109 623.772 254.008 623.772H265.529H283.805C284.704 623.772 285.432 623.043 285.432 622.144V612.251C285.432 611.352 284.704 610.623 283.805 610.623H265.529V567.804H283.805C284.704 567.804 285.432 567.075 285.432 566.177V556.283C285.432 555.384 284.704 554.655 283.805 554.655Z" fill="#CCD7EE"/>
<path fill-rule="evenodd" clip-rule="evenodd" d="M383.556 554.655H372.034H353.758C352.859 554.655 352.131 555.384 352.131 556.283V566.177C352.131 567.075 352.859 567.804 353.758 567.804H372.034V610.623H353.758C352.859 610.623 352.131 611.352 352.131 612.251V622.144C352.131 623.043 352.859 623.772 353.758 623.772H372.034H383.556C384.454 623.772 385.183 623.043 385.183 622.144V612.251V566.177V556.283C385.183 555.384 384.454 554.655 383.556 554.655Z" fill="#CCD7EE"/>
<g clip-path="url(#clip0)">
<path fill-rule="evenodd" clip-rule="evenodd" d="M364.308 514.251C373.032 526.328 389.667 529.493 402.214 521.463L515.885 448.735C532.606 438.038 536.894 415.488 525.274 399.399C513.787 383.501 491.386 380.341 475.949 392.44L369.748 475.698C357.878 485.003 355.477 502.025 364.308 514.251Z" fill="#FFC999"/>
<path fill-rule="evenodd" clip-rule="evenodd" d="M448.508 497.066L520.712 451.268C535.958 439.417 535.967 409.019 523.846 393.986C511.725 378.955 489.633 376.784 474.819 389.171L407.137 445.76C407.137 445.76 427.391 486.666 448.508 497.066Z" fill="#41D3BD"/>
<path fill-rule="evenodd" clip-rule="evenodd" d="M316.389 352.357C309.089 356.132 305.76 364.763 308.633 372.464L359.14 507.81C364.943 523.352 382.886 530.498 397.784 523.199C412.343 516.064 417.845 498.11 409.782 484.042L337.942 358.708C333.617 351.161 324.116 348.36 316.389 352.357Z" fill="#FFC999"/>
<path fill-rule="evenodd" clip-rule="evenodd" d="M563.803 383.267L545.519 363.314L551.282 297.646L602.411 302.408L602.154 367.391L563.803 383.267Z" fill="#FFC999"/>
<path fill-rule="evenodd" clip-rule="evenodd" d="M538.214 291.161C538.214 291.161 530.625 282.812 527.159 288.169C523.696 293.529 528.878 313.219 537.353 313.983C548.676 315.003 538.214 291.161 538.214 291.161Z" fill="#FFC999"/>
<path fill-rule="evenodd" clip-rule="evenodd" d="M586.108 342.657C586.108 342.657 569.027 355.794 547.37 341.59C531.779 331.365 530.904 296.06 534.762 270.286C536.946 255.7 543.938 248.035 558.343 244.143C572.751 240.252 611.454 241.304 610.367 284.387C609.156 332.375 586.108 342.657 586.108 342.657Z" fill="#FFC999"/>
<path d="M559.456 277.84L559.316 277.858C558.939 277.941 558.686 278.281 558.7 278.654L558.718 278.794L560.703 287.801L555.105 312.031C555.004 312.467 555.287 312.889 555.709 312.977L555.839 312.993L566.156 313.401C566.59 313.418 566.955 313.08 566.973 312.647C566.988 312.257 566.716 311.922 566.345 311.846L566.219 311.831L556.851 311.459L562.274 287.98C562.292 287.904 562.298 287.826 562.292 287.749L562.276 287.634L560.252 278.456C560.169 278.079 559.829 277.826 559.456 277.84Z" fill="#DD936F"/>
<path d="M569.378 275.785C569.217 276.931 570.015 277.99 571.16 278.151L578.046 279.156L578.931 279.281C585.647 280.226 589.726 280.564 592.169 280.158C593.31 279.968 594.081 278.889 593.891 277.747C593.712 276.673 592.746 275.927 591.682 276.001L591.086 276.078C589.322 276.263 586.102 276.013 581.308 275.378L578.18 274.942L571.743 274.002C570.598 273.841 569.539 274.639 569.378 275.785Z" fill="#253368"/>
<path d="M574.492 319.692C574.359 319.1 573.772 318.729 573.18 318.862L572.789 318.939L572.634 318.967C572.162 319.05 571.606 319.133 570.968 319.211C566.677 319.737 561.46 319.751 555.571 318.912C554.971 318.826 554.415 319.244 554.33 319.844C554.244 320.444 554.661 320.999 555.261 321.085C561.352 321.953 566.76 321.938 571.235 321.39L572.007 321.288C572.251 321.253 572.482 321.217 572.699 321.182L573.472 321.043C573.551 321.027 573.614 321.014 573.662 321.003C574.253 320.87 574.625 320.283 574.492 319.692Z" fill="#FF7946"/>
<path fill-rule="evenodd" clip-rule="evenodd" d="M604.905 302.702L613.797 286.358C613.797 286.358 619.833 262.593 614.603 252.135C606.485 235.908 586.799 235.75 575.249 231.141C563.698 226.53 563.926 222.604 559.171 223.118C554.413 223.629 535.692 235.873 533.234 249.186C531.073 260.89 533.173 290.936 533.173 290.936C533.173 290.936 537.27 264.506 540.036 257.576C549.404 253.987 583.035 254.799 596.94 259.544C596.94 259.544 597.888 268.612 598.4 274.994C605.754 280.593 604.905 302.702 604.905 302.702Z" fill="#253368"/>
<path d="M547.1 340.084C546.818 339.755 546.322 339.717 545.993 340C545.663 340.283 545.626 340.779 545.909 341.108C546.124 341.358 546.535 341.773 547.148 342.296C548.155 343.156 549.371 344.013 550.803 344.811C558.503 349.105 568.795 350.014 581.773 345.468C582.183 345.324 582.398 344.876 582.255 344.466C582.111 344.057 581.663 343.841 581.254 343.985C568.701 348.382 558.877 347.515 551.568 343.439C550.23 342.693 549.098 341.896 548.168 341.101L547.793 340.771C547.454 340.464 547.223 340.227 547.1 340.084Z" fill="#DD936F"/>
<path d="M559.798 286.245C558.932 286.183 558.181 286.835 558.119 287.701C558.062 288.509 558.626 289.217 559.406 289.358L559.576 289.38L567.158 289.917C568.024 289.979 568.775 289.327 568.837 288.461C568.894 287.653 568.33 286.945 567.551 286.804L567.381 286.782L559.798 286.245Z" fill="#253368"/>
<path d="M566.379 291.513C564.79 290.774 563.162 290.379 561.56 290.538C560.207 290.671 558.971 291.204 557.933 292.172C557.298 292.764 557.264 293.759 557.856 294.393C558.448 295.028 559.442 295.062 560.077 294.47C560.596 293.986 561.184 293.733 561.869 293.665C562.821 293.571 563.93 293.84 565.053 294.362C565.652 294.641 566.106 294.916 566.336 295.079C567.043 295.583 568.024 295.418 568.528 294.712C569.031 294.005 568.867 293.024 568.16 292.52C567.785 292.252 567.171 291.881 566.379 291.513Z" fill="#253368"/>
<path d="M554.641 273.184C551.019 271.723 547.349 270.921 543.836 271.144C541.361 271.302 539.07 271.973 537.031 273.23C536.046 273.837 535.74 275.127 536.347 276.112C536.953 277.097 538.244 277.403 539.229 276.796C540.653 275.919 542.282 275.441 544.102 275.325C546.895 275.148 549.983 275.823 553.073 277.069C553.854 277.384 554.587 277.717 555.26 278.053L555.753 278.305C556.226 278.552 556.552 278.738 556.708 278.834C557.693 279.44 558.983 279.133 559.589 278.147C560.195 277.162 559.888 275.871 558.902 275.265L558.456 275.001C557.562 274.489 556.255 273.835 554.641 273.184Z" fill="#253368"/>
<path d="M559.748 326.846C559.315 326.821 558.943 327.152 558.918 327.585C558.895 327.975 559.161 328.315 559.53 328.397L559.657 328.415L565.839 328.775C566.272 328.8 566.644 328.469 566.669 328.036C566.692 327.646 566.426 327.306 566.057 327.224L565.93 327.206L559.748 326.846Z" fill="#DD936F"/>
<path d="M595.467 288.352C594.601 288.307 593.861 288.972 593.816 289.839C593.773 290.648 594.35 291.346 595.132 291.473L595.302 291.491L607.746 292.145C608.613 292.19 609.352 291.525 609.398 290.658C609.44 289.849 608.863 289.151 608.081 289.024L607.911 289.006L595.467 288.352Z" fill="#253368"/>
<path fill-rule="evenodd" clip-rule="evenodd" d="M594.595 287.41L570.84 286.032C569.183 285.935 567.761 287.197 567.675 288.854C567.52 291.951 567.405 296.922 567.963 301.217C568.621 306.28 572.947 309.609 578.028 310.14C584.372 310.805 590.081 311.141 593.16 308.007C597.85 303.231 597.255 294.887 597.415 290.496C597.474 288.885 596.206 287.502 594.595 287.41Z" fill="white"/>
<path d="M570.871 285.51L594.625 286.888C596.521 286.996 598.008 288.621 597.938 290.515L597.913 291.55L597.885 293.426C597.836 296.212 597.735 297.769 597.428 299.686C596.845 303.329 595.632 306.236 593.533 308.374C590.738 311.218 586.653 311.571 577.973 310.661C572.428 310.081 568.11 306.405 567.444 301.284C566.97 297.636 566.927 293.311 567.153 288.827C567.253 286.882 568.922 285.396 570.871 285.51ZM570.81 286.555C569.512 286.479 568.392 287.411 568.218 288.669L568.198 288.881C567.975 293.307 568.018 297.576 568.482 301.149C569.081 305.757 572.993 309.088 578.082 309.62L579.218 309.734C586.784 310.458 590.427 310.042 592.786 307.64C594.711 305.68 595.843 302.968 596.394 299.52L596.497 298.836C596.715 297.263 596.796 295.798 596.839 293.396L596.887 290.633C596.888 290.581 596.89 290.529 596.892 290.477C596.941 289.153 595.894 288.009 594.565 287.933L570.81 286.555Z" fill="#253368"/>
<path d="M578 292.32C577.422 292.287 576.926 292.728 576.893 293.306C576.703 296.589 578.915 299.44 581.915 299.616C584.914 299.79 587.44 297.213 587.63 293.929C587.663 293.352 587.222 292.856 586.644 292.823C586.067 292.789 585.571 293.231 585.538 293.808C585.411 295.995 583.812 297.626 582.037 297.524C580.26 297.419 578.859 295.613 578.985 293.427C579.019 292.849 578.577 292.354 578 292.32Z" fill="#253368"/>
<path fill-rule="evenodd" clip-rule="evenodd" d="M557.562 284.996L530.669 283.436C529.444 287.307 529.523 302.56 533.95 306.084C539.945 309.681 552.514 309.005 554.645 305.819C557.88 300.984 559.526 291.499 559.712 287.386C559.769 286.133 558.815 285.068 557.562 284.996Z" fill="white"/>
<path d="M530.699 282.913L557.592 284.473C559.13 284.562 560.305 285.869 560.235 287.41C559.971 293.236 557.883 301.921 555.08 306.11C552.655 309.735 539.633 310.104 533.68 306.533C529.67 303.346 528.39 288.904 530.169 283.278C530.242 283.049 530.46 282.899 530.699 282.913ZM531.057 283.982L530.988 284.238C529.603 289.914 530.882 302.972 534.276 305.675C539.748 308.953 552.154 308.601 554.21 305.528C556.886 301.528 558.933 293.015 559.19 287.362C559.234 286.394 558.497 285.574 557.531 285.518L531.057 283.982Z" fill="#253368"/>
<path d="M544.435 290.371C543.857 290.338 543.361 290.779 543.327 291.356C543.135 294.64 545.347 297.494 548.346 297.667C551.346 297.841 553.874 295.264 554.064 291.981C554.098 291.403 553.656 290.907 553.078 290.874C552.501 290.841 552.005 291.282 551.972 291.86C551.845 294.045 550.244 295.678 548.468 295.575C546.692 295.472 545.291 293.665 545.419 291.479C545.453 290.901 545.012 290.405 544.435 290.371Z" fill="#253368"/>
<path d="M567.724 285.216C566.857 285.188 566.131 285.869 566.104 286.736C566.078 287.546 566.669 288.232 567.453 288.342L567.624 288.357L597.114 289.294C597.981 289.321 598.706 288.641 598.734 287.773C598.76 286.964 598.168 286.278 597.384 286.167L597.213 286.153L567.724 285.216Z" fill="#253368"/>
<path d="M530.527 282.448C529.661 282.385 528.909 283.036 528.847 283.902C528.788 284.71 529.352 285.419 530.131 285.561L530.301 285.582L559.132 287.663C559.997 287.725 560.75 287.074 560.812 286.208C560.871 285.4 560.307 284.691 559.528 284.55L559.358 284.528L530.527 282.448Z" fill="#253368"/>
<path fill-rule="evenodd" clip-rule="evenodd" d="M609.08 289.405C612.179 286.328 616.912 285.549 620.182 289.223C625.452 295.142 620.073 316.694 605.555 317.334C600.062 316.472 604.243 294.205 609.08 289.405Z" fill="#FFC999"/>
<path fill-rule="evenodd" clip-rule="evenodd" d="M624 559.193C624 559.193 637.021 494.01 642.784 469.931C648.545 445.849 657.297 388.196 647.349 383.879C637.398 379.562 613.578 370.395 613.578 370.395C613.578 370.395 589.946 373.43 568.598 377.975C551.702 381.574 556.499 365.709 536.012 369.093C527.337 370.529 500.108 374.819 486.514 382.235C481.063 385.209 481.943 403.266 481.168 420.819C478.697 476.844 492.368 562.683 492.368 562.683C492.368 562.683 484.261 571.014 494.088 581.818C498.958 586.877 520.042 585.162 547.032 585.228C577.754 585.303 613.894 589.161 620.598 583.319C633.193 572.346 624 559.193 624 559.193Z" fill="#41D3BD"/>
<path fill-rule="evenodd" clip-rule="evenodd" d="M544.706 360.675L565.303 380.449L540.587 397.751L529.877 371.385L544.706 360.675Z" fill="#41D3BD"/>
<path fill-rule="evenodd" clip-rule="evenodd" d="M601.018 1104.82L557.722 694.966L555.997 694.117L510.551 1105.76C510.551 1105.76 476.665 1113.61 458.759 1102.86C458.061 1023.05 476.854 763.783 484.807 645.382C486.087 626.32 491.947 600.41 493.116 593.207C547.519 584.014 621.222 597.272 621.222 597.272L624.406 606.829C625.025 608.688 625.401 610.622 625.519 612.577L659.679 1100.77C659.679 1100.77 626.195 1112.89 601.018 1104.82Z" fill="#ADC6FF"/>
<path d="M528.261 678.249C527.872 678.059 527.401 678.22 527.211 678.61C527.041 678.957 527.15 679.367 527.45 679.588L527.572 679.661L560.359 695.684C560.749 695.875 561.22 695.713 561.41 695.323C561.58 694.977 561.471 694.567 561.171 694.346L561.049 694.272L528.261 678.249Z" fill="#41D3BD"/>
<path fill-rule="evenodd" clip-rule="evenodd" d="M620.926 583.149C620.926 583.149 551.653 572.911 494.067 582.997C493.593 588.102 493.099 594.387 493.099 594.387C493.099 594.387 542.374 597.78 622.043 599.745C621.822 585.89 620.926 583.149 620.926 583.149Z" fill="#ADC6FF"/>
<path d="M598.485 597.782C573.251 595.729 547.349 594.939 523.16 596.147C512.994 596.654 503.403 597.511 494.482 598.747C494.052 598.806 493.751 599.203 493.811 599.633C493.871 600.063 494.267 600.363 494.697 600.303C503.57 599.074 513.116 598.221 523.238 597.716C547.349 596.513 573.187 597.301 598.358 599.348L602.353 599.685C606.265 600.027 609.921 600.381 613.284 600.736L617.056 601.149L619.742 601.465C619.998 601.496 620.193 601.521 620.325 601.538C620.756 601.593 621.15 601.289 621.205 600.859C621.26 600.428 620.956 600.035 620.526 599.979L618.976 599.79C617.891 599.661 616.652 599.52 615.267 599.368L612.314 599.054C608.114 598.62 603.481 598.189 598.485 597.782Z" fill="#41D3BD"/>
<path d="M598.763 580.482C573.529 578.429 547.627 577.639 523.437 578.847C513.271 579.354 503.681 580.211 494.759 581.446C494.33 581.506 494.029 581.903 494.089 582.333C494.148 582.762 494.545 583.063 494.975 583.003C503.848 581.774 513.394 580.921 523.516 580.416C547.627 579.212 573.465 580 598.636 582.048L601.318 582.272C605.286 582.61 609.002 582.962 612.43 583.317L616.706 583.777L620.603 584.237C621.034 584.293 621.427 583.989 621.483 583.558C621.538 583.128 621.234 582.734 620.804 582.679L619.254 582.489C618.35 582.382 617.339 582.266 616.225 582.143L612.592 581.754C608.391 581.319 603.759 580.888 598.763 580.482Z" fill="#41D3BD"/>
<path d="M551.52 581.56C551.086 581.55 550.726 581.893 550.715 582.327L550.628 586.426C550.595 588.186 550.561 590.125 550.53 592.224C550.269 609.622 550.253 628.079 550.644 645.373L550.74 649.307C551.166 665.275 551.937 678.662 553.112 688.702C553.163 689.133 553.553 689.442 553.984 689.391C554.415 689.341 554.723 688.951 554.673 688.52L554.487 686.871C553.331 676.245 552.593 662.118 552.215 645.337C551.855 629.395 551.84 612.457 552.045 596.276L552.115 591.359L552.286 582.366C552.297 581.932 551.954 581.572 551.52 581.56Z" fill="#41D3BD"/>
<path fill-rule="evenodd" clip-rule="evenodd" d="M538.05 587.243C538.019 589.197 539.226 590.801 540.747 590.827C542.266 590.851 543.523 589.287 543.554 587.331C543.585 585.378 542.38 583.774 540.859 583.747C539.338 583.723 538.081 585.288 538.05 587.243Z" fill="white"/>
<path fill-rule="evenodd" clip-rule="evenodd" d="M565.193 378.837L584.257 403.921L612.742 370.449L602.311 357.408L565.193 378.837Z" fill="#41D3BD"/>
<path d="M564.336 380.194C563.793 379.994 563.19 380.272 562.99 380.815L562.793 381.401L562.597 382.027C562.528 382.254 562.456 382.499 562.379 382.762L562.263 383.171C561.785 384.866 561.262 386.95 560.703 389.453L560.395 390.86C558.525 399.555 556.657 411.052 554.909 425.711L554.443 429.711C552.565 446.285 550.951 465.755 549.678 488.351L549.573 490.241C547.676 524.683 548.115 554.231 549.767 576.317C549.811 576.894 550.314 577.327 550.891 577.284C551.468 577.241 551.901 576.738 551.857 576.161L551.694 573.898C550.211 552.54 549.85 524.542 551.572 492.099L551.666 490.357C552.953 466.994 554.6 446.941 556.526 429.949L556.841 427.22C558.625 412.018 560.535 400.176 562.444 391.301L562.748 389.913C563.248 387.67 563.719 385.774 564.151 384.202L564.28 383.74C564.434 383.195 564.573 382.726 564.697 382.328L564.91 381.672C564.931 381.613 564.946 381.568 564.957 381.539C565.157 380.996 564.879 380.394 564.336 380.194Z" fill="#253368"/>
<path d="M481.017 416.72C480.506 416.292 479.786 416.369 479.369 416.875C479.192 417.09 479.097 417.332 479.021 417.646C478.935 418.005 478.872 418.508 478.827 419.167L478.806 419.51C478.729 420.895 478.716 422.909 478.768 425.489L478.797 426.719C478.969 433.26 479.498 442.63 480.35 453.883L480.668 457.985C482.796 484.794 486.346 518.074 491.114 554.231L491.623 558.058L491.429 558.558L491.26 559.012C490.912 559.964 490.565 561.016 490.241 562.142C489.453 564.875 488.927 567.59 488.787 570.146C488.551 574.414 489.407 577.889 491.679 580.235C492.082 580.65 492.745 580.661 493.161 580.258C493.577 579.856 493.588 579.192 493.185 578.777C491.394 576.927 490.673 574.003 490.879 570.261C491.01 567.882 491.507 565.316 492.255 562.722C492.503 561.861 492.765 561.045 493.03 560.288L493.387 559.306C493.508 558.985 493.603 558.748 493.663 558.605C493.736 558.433 493.761 558.244 493.736 558.059L492.924 551.916C488.206 515.904 484.71 482.838 482.639 456.312L482.359 452.646C481.61 442.621 481.125 434.157 480.93 427.958L480.865 425.528C480.816 423.142 480.822 421.253 480.883 419.923L480.898 419.626C480.922 419.198 480.952 418.843 480.986 418.57L481.023 418.318L481.039 418.308L481.148 418.196C481.519 417.753 481.461 417.092 481.017 416.72Z" fill="#253368"/>
<path d="M534.426 412.183L535.866 412.307C536.332 412.349 536.783 412.391 537.218 412.434L539.342 412.661L539.992 412.739C540.566 412.813 540.985 413.32 540.947 413.898L538.41 452.994C538.386 453.365 538.176 453.699 537.851 453.88L516.673 465.729C516.309 465.933 515.862 465.913 515.518 465.678L499.159 454.509C498.861 454.305 498.682 453.967 498.681 453.605L498.696 446.49L498.721 441.952C498.772 434.091 498.869 425.341 499.021 415.857C499.028 415.435 499.277 415.054 499.661 414.877C503.792 412.984 509.759 411.989 517.111 411.709C522.665 411.497 528.605 411.706 534.426 412.183ZM516.413 413.935C510.202 414.22 505.09 415.049 501.454 416.497L501.205 416.599L501.067 426.236C501.004 431.245 500.958 436.003 500.926 440.484L500.881 448.962L500.876 453.022L516.195 463.481L536.26 452.256L538.691 414.795L538.239 414.746C537.05 414.618 535.71 414.49 534.247 414.37C528.506 413.9 522.649 413.694 517.195 413.902L516.413 413.935Z" fill="#253368"/>
<path fill-rule="evenodd" clip-rule="evenodd" d="M563.709 397.692C563.678 399.647 564.973 401.251 566.602 401.278C568.23 401.304 569.575 399.742 569.608 397.786C569.639 395.833 568.344 394.226 566.716 394.2C565.085 394.174 563.74 395.736 563.709 397.692Z" fill="white"/>
<path fill-rule="evenodd" clip-rule="evenodd" d="M559.003 433.603C558.972 435.557 560.267 437.163 561.895 437.189C563.524 437.216 564.869 435.653 564.902 433.698C564.933 431.745 563.638 430.138 562.009 430.112C560.379 430.085 559.033 431.648 559.003 433.603Z" fill="white"/>
<path fill-rule="evenodd" clip-rule="evenodd" d="M556.018 472.492C555.988 474.447 557.282 476.051 558.911 476.078C560.539 476.104 561.885 474.541 561.917 472.586C561.948 470.633 560.653 469.026 559.025 469C557.394 468.974 556.049 470.538 556.018 472.492Z" fill="white"/>
<path fill-rule="evenodd" clip-rule="evenodd" d="M554.841 509.05C554.81 511.003 556.105 512.609 557.733 512.636C559.361 512.662 560.707 511.099 560.74 509.144C560.77 507.191 559.476 505.584 557.847 505.558C556.219 505.532 554.873 507.094 554.841 509.05Z" fill="white"/>
<path fill-rule="evenodd" clip-rule="evenodd" d="M554.654 557.423C554.623 559.378 555.918 560.982 557.547 561.009C559.175 561.035 560.52 559.472 560.553 557.517C560.584 555.564 559.289 553.957 557.661 553.931C556.03 553.905 554.685 555.467 554.654 557.423Z" fill="white"/>
<path d="M613.051 370.673C612.649 370.333 612.066 370.347 611.683 370.684L611.574 370.795L584.843 402.316L565.759 380.116C565.416 379.717 564.838 379.64 564.406 379.912L564.281 380.005C563.882 380.348 563.805 380.926 564.077 381.358L564.17 381.483L584.053 404.614C584.438 405.062 585.106 405.097 585.536 404.721L585.647 404.609L613.172 372.15C613.547 371.709 613.492 371.047 613.051 370.673Z" fill="#253368"/>
<path d="M533.257 372.092C533.081 371.54 532.492 371.235 531.941 371.411C531.435 371.572 531.137 372.081 531.226 372.589L531.26 372.727L539.589 398.892C539.794 399.538 540.541 399.811 541.108 399.484L541.227 399.404L564.824 381.224C565.282 380.871 565.367 380.213 565.014 379.754C564.693 379.337 564.12 379.229 563.674 379.478L563.544 379.564L541.133 396.831L533.257 372.092Z" fill="#253368"/>
<path d="M534.283 596.703C533.854 596.639 533.454 596.935 533.39 597.364L533.187 598.864L533.139 599.248C532.951 600.753 532.764 602.456 532.589 604.324C531.791 612.853 531.519 621.65 532.087 629.877C533.411 649.07 538.996 661.248 550.33 662.792C550.76 662.851 551.156 662.55 551.214 662.12C551.273 661.69 550.972 661.294 550.542 661.235C540.226 659.83 534.932 648.285 533.655 629.769C533.094 621.639 533.363 612.921 534.154 604.47L534.305 602.924C534.407 601.922 534.513 600.975 534.619 600.092L534.792 598.708L534.944 597.596C535.008 597.167 534.712 596.767 534.283 596.703Z" fill="#41D3BD"/>
<path d="M615.621 292.382C615.458 291.98 615 291.786 614.598 291.949L614.322 292.07C614.159 292.147 613.958 292.249 613.729 292.375C613.098 292.723 612.468 293.144 611.877 293.643C609.701 295.481 608.61 297.861 609.281 300.743C609.535 301.834 610.037 302.417 610.97 302.973L611.373 303.199C612.174 303.637 612.374 303.854 612.448 304.534C612.589 305.839 611.995 306.815 610.855 307.563C610.476 307.812 610.064 308.014 609.653 308.171L609.285 308.299C609.22 308.319 609.169 308.334 609.131 308.343C608.71 308.446 608.452 308.871 608.555 309.293C608.658 309.714 609.083 309.972 609.504 309.869C610.076 309.73 610.892 309.418 611.717 308.877C613.308 307.833 614.223 306.33 614.01 304.364C613.878 303.148 613.402 302.56 612.359 301.951L611.971 301.735C611.233 301.328 610.967 301.053 610.812 300.386C610.292 298.154 611.126 296.334 612.89 294.844C613.397 294.417 613.942 294.052 614.488 293.751C614.811 293.573 615.058 293.458 615.187 293.405C615.589 293.243 615.783 292.785 615.621 292.382Z" fill="#DD936F"/>
<path fill-rule="evenodd" clip-rule="evenodd" d="M339.582 362.441C339.582 362.441 317.007 295.149 291.449 278.816C283.84 279.097 290.975 289.12 296.27 297.322C298.978 301.516 300.765 306.813 300.765 306.813C300.765 306.813 290.329 305.723 292.331 314.58C283.969 314.176 286.996 323.534 286.996 323.534C286.996 323.534 280.568 323.548 282.635 332.241C284.055 338.217 292.107 345.27 293.953 351.558C301.07 375.804 312.761 377.145 317.455 377.889C329.337 379.768 336.632 375.244 339.582 362.441Z" fill="#FFC999"/>
<path d="M324.916 332.053L315.767 312.24L315.538 311.382C313.514 304.112 310.306 301.136 307.558 303.76C305.195 306.018 304.777 311.779 306.894 317.016C311.107 327.439 311.532 332.263 310.017 337.951L309.517 339.771C309.235 340.848 309.073 341.713 309.005 342.63C308.714 346.567 308.906 350.232 310.001 353.768C311.602 358.934 314.912 362.574 320.291 364.043C320.71 364.157 321.142 363.911 321.256 363.492C321.371 363.073 321.124 362.641 320.705 362.527C312.193 360.203 309.842 352.616 310.572 342.746C310.623 342.053 310.738 341.383 310.933 340.581L311.148 339.753C311.217 339.501 311.303 339.194 311.432 338.738L311.633 337.984C313.12 332.114 312.6 326.938 308.351 316.427C306.452 311.727 306.82 306.638 308.644 304.897C310.114 303.492 312.286 305.516 314.053 311.869L314.292 312.762L323.489 332.711C323.671 333.105 324.138 333.277 324.532 333.096C324.882 332.934 325.057 332.548 324.964 332.187L324.916 332.053Z" fill="#DD936F"/>
<path d="M291.985 313.875C291.595 314.066 291.434 314.537 291.625 314.926L291.923 315.519C292.161 315.986 292.433 316.506 292.734 317.066C293.596 318.666 294.519 320.266 295.469 321.762C296.486 323.364 297.476 324.753 298.42 325.868C300.345 328.143 302.027 329.257 303.569 328.785C307.031 327.725 308.094 325.176 307.227 321.863C306.898 320.608 306.309 319.291 305.534 317.953C305.111 317.223 304.659 316.532 304.206 315.901L303.845 315.409C303.741 315.272 303.656 315.164 303.593 315.086C303.319 314.749 302.824 314.698 302.487 314.972C302.151 315.246 302.1 315.741 302.374 316.077L302.696 316.497C302.767 316.592 302.845 316.699 302.929 316.816C303.354 317.409 303.779 318.058 304.175 318.741C304.884 319.966 305.419 321.161 305.706 322.261C306.377 324.824 305.68 326.495 303.109 327.283C302.408 327.497 301.155 326.668 299.619 324.853C298.727 323.799 297.777 322.466 296.795 320.92C295.868 319.459 294.963 317.89 294.118 316.321L293.697 315.528L293.036 314.235C292.845 313.846 292.374 313.684 291.985 313.875Z" fill="#DD936F"/>
<path d="M288.13 323.736C287.991 323.325 287.545 323.104 287.134 323.243C286.723 323.383 286.503 323.829 286.642 324.24L286.819 324.731L287.053 325.335C287.137 325.547 287.227 325.767 287.323 325.996C287.873 327.303 288.51 328.611 289.227 329.836C291.456 333.64 293.971 335.887 296.841 335.661C299.664 335.437 300.982 333.591 301.058 330.871C301.086 329.88 300.949 328.837 300.706 327.802C300.573 327.237 300.439 326.797 300.346 326.537C300.2 326.128 299.75 325.915 299.342 326.061C298.933 326.207 298.72 326.657 298.866 327.065L298.953 327.331C299.019 327.544 299.097 327.826 299.176 328.162C299.391 329.075 299.511 329.99 299.487 330.827C299.432 332.821 298.631 333.943 296.717 334.094C294.646 334.258 292.533 332.37 290.583 329.042C289.904 327.882 289.297 326.634 288.771 325.386L288.513 324.756L288.19 323.906C288.164 323.832 288.144 323.774 288.13 323.736Z" fill="#DD936F"/>
<path d="M282.225 330.185C281.803 330.289 281.545 330.714 281.648 331.135L281.769 331.585L281.99 332.329C282.031 332.461 282.074 332.597 282.12 332.735C282.51 333.925 282.98 335.114 283.533 336.23C285.582 340.368 288.242 342.523 291.544 341.257C293.883 340.36 294.8 338.682 294.446 336.61C294.273 335.596 293.81 334.548 293.15 333.498C292.86 333.038 292.551 332.608 292.242 332.217L291.951 331.863C291.898 331.8 291.853 331.749 291.817 331.71C291.525 331.389 291.028 331.366 290.707 331.658C290.386 331.95 290.363 332.447 290.655 332.768L290.834 332.976C290.886 333.038 290.945 333.111 291.011 333.194C291.287 333.542 291.563 333.926 291.82 334.335C292.38 335.226 292.764 336.096 292.897 336.874C293.127 338.219 292.609 339.166 290.981 339.79C288.693 340.667 286.673 339.031 284.941 335.533C284.425 334.491 283.982 333.368 283.613 332.245C283.527 331.983 283.449 331.733 283.379 331.499L283.175 330.762C283.083 330.387 282.737 330.141 282.365 330.164L282.225 330.185Z" fill="#DD936F"/>
<path d="M406.594 444.864C406.099 445.164 405.941 445.808 406.241 446.303L407.428 448.225L408.545 450.004C409.457 451.446 410.453 452.998 411.521 454.637C415.593 460.882 419.895 467.128 424.235 472.96C427.378 477.185 430.427 481.037 433.343 484.43C438.901 490.897 443.822 495.529 447.978 497.97C448.268 498.14 448.619 498.16 448.922 498.029L449.069 497.952L483.367 476.22C483.856 475.91 484.001 475.263 483.692 474.774C483.41 474.33 482.849 474.169 482.382 474.376L482.246 474.45L448.499 495.833L448.218 495.656C444.605 493.327 440.31 489.251 435.491 483.71L434.933 483.064C432.051 479.711 429.032 475.897 425.916 471.709C421.605 465.915 417.327 459.704 413.277 453.492L412.239 451.892C411.394 450.583 410.603 449.341 409.871 448.177L408.777 446.426L408.034 445.217C407.734 444.722 407.089 444.564 406.594 444.864Z" fill="#253368"/>
<path d="M392.049 448.604C391.847 448.22 391.372 448.073 390.988 448.274C390.647 448.454 390.492 448.849 390.604 449.204L390.658 449.335L409.087 484.408C409.288 484.792 409.763 484.94 410.147 484.738C410.489 484.559 410.644 484.163 410.532 483.808L410.478 483.677L392.049 448.604Z" fill="#DD936F"/>
<path fill-rule="evenodd" clip-rule="evenodd" d="M694.749 566.66C708.501 560.93 715.388 545.462 710.443 531.41L665.65 404.112C659.062 385.392 638.092 376.056 619.772 383.689C601.666 391.232 593.464 412.316 601.712 430.11L658.463 552.544C664.806 566.23 680.826 572.461 694.749 566.66Z" fill="#FFC999"/>
<path fill-rule="evenodd" clip-rule="evenodd" d="M692.894 480.762L664.831 399.995C656.783 382.442 627.193 375.479 609.785 383.838C592.379 392.197 585.212 413.209 593.881 430.463L633.485 509.295C633.485 509.295 677.94 498.938 692.894 480.762Z" fill="#41D3BD"/>
<path d="M612.297 449.796C612.07 449.264 611.454 449.016 610.922 449.242C610.438 449.448 610.189 449.976 610.318 450.47L610.368 450.617L635.086 508.7C635.298 509.198 635.855 509.453 636.371 509.288L638.552 508.566L640.57 507.879C642.206 507.315 643.966 506.695 645.825 506.022C652.91 503.458 659.996 500.661 666.614 497.722L668.524 496.864C678.577 492.292 686.46 487.821 691.433 483.572C692.255 482.869 692.996 482.174 693.652 481.486C694.052 481.067 694.036 480.404 693.617 480.004C693.199 479.605 692.535 479.62 692.136 480.039C691.531 480.673 690.842 481.32 690.072 481.978C684.979 486.33 676.559 491.012 665.763 495.807C659.195 498.723 652.154 501.503 645.112 504.051L643.297 504.703C641.814 505.231 640.405 505.721 639.086 506.172L636.639 506.995L612.297 449.796Z" fill="#253368"/>
<path fill-rule="evenodd" clip-rule="evenodd" d="M522.217 551.422C523.025 559.599 529.815 565.884 538.032 566.062L682.461 569.178C699.046 569.536 712.321 555.506 711.046 538.965C709.802 522.799 695.152 511.049 679.101 513.34L536.087 533.744C527.475 534.973 521.361 542.766 522.217 551.422Z" fill="#FFC999"/>
<path fill-rule="evenodd" clip-rule="evenodd" d="M534.038 588.562L502.283 489.23C501.759 487.59 500.249 486.471 498.528 486.449L409.485 485.244C406.72 485.207 404.754 487.922 405.651 490.538L438.799 587.232C439.332 588.788 440.763 589.856 442.405 589.929L530.054 593.774C532.835 593.894 534.885 591.213 534.038 588.562Z" fill="#4E5C93"/>
<path fill-rule="evenodd" clip-rule="evenodd" d="M529.344 587.35L498.143 489.748C497.508 487.766 495.678 486.41 493.595 486.381L403.453 485.161C401.519 485.137 400.143 487.035 400.771 488.863L434.38 586.896C434.97 588.619 436.552 589.804 438.372 589.883L524.52 593.662C527.887 593.809 530.371 590.559 529.344 587.35Z" fill="#253368"/>
<path fill-rule="evenodd" clip-rule="evenodd" d="M485.936 495.787C484.929 496.909 485.291 498.877 486.746 500.187C488.201 501.495 490.198 501.647 491.208 500.528C492.215 499.406 491.853 497.435 490.398 496.127C488.943 494.817 486.944 494.666 485.936 495.787Z" fill="#ADC6FF"/>
<path fill-rule="evenodd" clip-rule="evenodd" d="M487.133 496.96C486.609 497.541 486.798 498.564 487.553 499.244C488.31 499.922 489.346 500.001 489.87 499.42C490.392 498.838 490.204 497.816 489.449 497.135C488.694 496.457 487.656 496.378 487.133 496.96Z" fill="#E4EBF7"/>
<path fill-rule="evenodd" clip-rule="evenodd" d="M494.4 569.884C489.284 569.388 486.594 567.248 487.079 562.986C480.925 561.051 481.612 555.838 481.612 555.838C481.612 555.838 469.767 555.656 467.775 550.595C467 548.629 468.503 546.527 470.61 546.384C495.987 544.663 514.081 531.217 514.081 531.217C514.081 531.217 504.105 516.567 505.16 509.806C505.472 507.806 508.086 507.161 509.308 508.774C519.77 522.581 540.749 533.407 540.749 533.407C540.749 533.407 565.932 557.002 538.615 567.7C538.615 567.7 517.79 575.998 503.293 574.947C496.428 574.451 494.4 569.884 494.4 569.884Z" fill="#FFC999"/>
<path d="M500.275 551.34C500.064 550.961 499.585 550.826 499.206 551.038C497.389 552.053 495.266 552.881 492.897 553.535C490.074 554.315 487.043 554.813 483.993 555.084L483.065 555.16C481.87 555.248 480.846 555.289 480.048 555.299L479.458 555.301C479.024 555.295 478.667 555.642 478.662 556.076C478.656 556.466 478.937 556.794 479.309 556.86L479.437 556.872L479.76 556.873C480.822 556.87 482.327 556.81 484.132 556.649C487.27 556.371 490.392 555.857 493.315 555.05C495.798 554.364 498.037 553.492 499.973 552.409C500.352 552.197 500.487 551.719 500.275 551.34Z" fill="#DD936F"/>
<path d="M502.664 559.139C502.475 558.748 502.005 558.584 501.614 558.773C501.38 558.886 501.144 558.997 500.906 559.104C497.893 560.463 494.657 561.335 491.408 561.814C489.401 562.109 487.793 562.205 486.792 562.198C486.346 562.192 485.99 562.539 485.984 562.973C485.978 563.363 486.259 563.691 486.631 563.757L486.759 563.769H487.04L487.621 563.756C488.658 563.719 490.027 563.605 491.637 563.368C495.021 562.87 498.395 561.961 501.552 560.536C501.803 560.423 502.052 560.307 502.298 560.188C502.689 559.999 502.853 559.529 502.664 559.139Z" fill="#DD936F"/>
<path d="M507.18 567.852C506.991 567.461 506.521 567.298 506.131 567.487C505.295 567.891 503.322 568.268 500.638 568.578C499.266 568.736 497.794 568.868 496.321 568.974L494.36 569.099C493.927 569.121 493.594 569.49 493.616 569.924C493.638 570.357 494.007 570.691 494.44 570.669L496.05 570.569L496.434 570.542C497.928 570.434 499.422 570.3 500.818 570.139L501.798 570.019C504.162 569.713 505.884 569.352 506.815 568.901C507.206 568.712 507.369 568.243 507.18 567.852Z" fill="#DD936F"/>
<path d="M678.995 512.561L539.548 531.61C539.118 531.669 538.817 532.065 538.875 532.495C538.928 532.882 539.255 533.164 539.633 533.174L539.76 533.167L679.208 514.118C679.638 514.059 679.939 513.663 679.88 513.233C679.827 512.846 679.501 512.564 679.123 512.554L678.995 512.561Z" fill="#DD936F"/>
</g>
<path d="M663.878 287.156C663.878 295.04 670.269 301.431 678.153 301.431C686.036 301.431 692.427 295.04 692.427 287.156C692.427 279.273 686.036 272.882 678.153 272.882C670.269 272.882 663.878 279.273 663.878 287.156Z" fill="#41D3BD"/>
<path d="M637.804 343.492C637.804 348.117 641.553 351.866 646.178 351.866C650.803 351.866 654.552 348.117 654.552 343.492C654.552 338.867 650.803 335.118 646.178 335.118C641.553 335.118 637.804 338.867 637.804 343.492Z" fill="#41D3BD"/>
<path d="M647.854 617.211L647.854 616.069C647.854 607.24 655.011 600.083 663.841 600.083C672.67 600.083 679.827 607.24 679.827 616.069V617.211C679.827 626.041 672.67 633.198 663.841 633.198C655.011 633.198 647.854 626.041 647.854 617.211Z" fill="#41D3BD"/>
<defs>
<clipPath id="clip0">
<rect x="232.04" y="125.46" width="644.96" height="552.997" rx="276.499" fill="white"/>
</clipPath>
</defs>
</svg>
