<svg width="607" height="608" viewBox="0 0 607 608" fill="none" xmlns="http://www.w3.org/2000/svg">
<g clip-path="url(#clip0)">
<path fill-rule="evenodd" clip-rule="evenodd" d="M298.947 281.133L296.07 242.479C296.07 242.479 285.19 209.371 278.701 209.945C272.514 211.271 283.62 222.381 284.456 231.277C279.127 229.788 279.941 238.33 279.941 238.33C279.941 238.33 275.67 237.296 275.488 244.083C271.01 245.635 272.677 253.808 272.677 253.808C272.677 253.808 276.662 275.258 282.859 290.286C282.859 290.286 295.291 304.697 298.947 281.133Z" fill="#C99382"/>
<path fill-rule="evenodd" clip-rule="evenodd" d="M299.171 268.316C299.171 268.316 300.187 255.469 300.338 248.849C300.488 242.229 305.539 231.251 300.259 233.356C296.708 234.77 295.852 241.739 294.931 246.819C294.013 251.901 283.394 262.222 287.788 271.764C290.756 278.211 297.092 280.273 299.171 268.316Z" fill="#C99382"/>
<path d="M284.091 230.695C284.413 230.493 284.837 230.591 285.039 230.913L285.254 231.267C285.423 231.548 285.61 231.868 285.812 232.222C286.389 233.234 286.965 234.317 287.504 235.43C288.067 236.594 288.557 237.725 288.951 238.799C290.679 243.508 290.459 246.748 287.214 247.385C286.842 247.458 286.48 247.215 286.407 246.843C286.334 246.47 286.577 246.108 286.949 246.035C288.966 245.639 289.126 243.27 287.66 239.273C287.282 238.245 286.81 237.155 286.266 236.029C285.742 234.946 285.179 233.89 284.617 232.903L284.201 232.186L283.873 231.643C283.671 231.321 283.769 230.896 284.091 230.695Z" fill="#9B6160"/>
<path d="M279.951 238.159C280.238 237.909 280.673 237.94 280.922 238.227L281.177 238.528C281.377 238.767 281.599 239.038 281.838 239.339C282.521 240.197 283.203 241.112 283.842 242.049C284.451 242.943 284.989 243.812 285.435 244.641C287.318 248.134 287.496 250.732 284.964 251.653C283.004 252.365 281.133 251.206 279.404 248.954C278.942 248.352 278.523 247.712 278.153 247.071L277.952 246.715C277.832 246.497 277.743 246.323 277.685 246.204C277.52 245.862 277.664 245.451 278.006 245.286C278.348 245.121 278.759 245.264 278.924 245.606L279.019 245.795C279.098 245.947 279.207 246.147 279.344 246.383C279.686 246.975 280.073 247.567 280.494 248.116C281.895 249.939 283.284 250.8 284.493 250.361C285.871 249.86 285.753 248.128 284.225 245.293C283.802 244.51 283.289 243.681 282.705 242.824C282.088 241.917 281.425 241.028 280.762 240.195L280.322 239.651L279.883 239.129C279.634 238.842 279.665 238.408 279.951 238.159Z" fill="#9B6160"/>
<path d="M276.187 244.617C276.319 244.261 276.715 244.08 277.071 244.212C278.27 244.658 279.425 245.888 280.574 247.976C283.046 252.469 283.25 255.573 281.16 256.284C280.395 256.544 279.499 256.355 278.634 255.838L278.442 255.717L278.602 256.041C279.621 258.048 280.93 259.664 282.634 261.217L282.98 261.526L283.425 261.911L284.48 262.785C284.781 263.03 285.234 263.4 285.405 263.541C289.203 266.682 290.665 269.198 290.648 274.258C290.647 274.638 290.338 274.945 289.958 274.943C289.578 274.942 289.271 274.633 289.273 274.253C289.288 269.796 288.11 267.634 284.841 264.863L282.778 263.165C282.525 262.953 282.296 262.757 282.071 262.559C278.952 259.815 276.99 256.898 275.73 252.301C275.504 251.477 276.685 251.062 277.024 251.845C277.944 253.969 279.775 255.302 280.718 254.981C281.621 254.675 281.475 252.468 279.369 248.639C278.364 246.813 277.422 245.81 276.592 245.501C276.236 245.369 276.054 244.973 276.187 244.617Z" fill="#9B6160"/>
<path d="M295.424 240.276C295.53 239.912 295.912 239.702 296.277 239.809C296.605 239.905 296.807 240.223 296.767 240.552L296.744 240.662L293.979 250.132C293.948 250.236 293.894 250.331 293.82 250.41L293.593 250.662C293.44 250.837 293.244 251.071 293.015 251.356C292.401 252.122 291.787 252.978 291.215 253.902C289.486 256.692 288.506 259.476 288.642 262.025C288.68 262.724 288.803 263.398 289.015 264.046C289.133 264.407 288.937 264.795 288.576 264.913C288.215 265.032 287.826 264.835 287.708 264.474C287.457 263.71 287.313 262.917 287.269 262.099C287.114 259.218 288.182 256.184 290.046 253.177C290.649 252.204 291.295 251.303 291.942 250.496L292.269 250.096L292.701 249.594L295.424 240.276Z" fill="#9B6160"/>
<path fill-rule="evenodd" clip-rule="evenodd" d="M450.596 217.526C450.596 217.526 463.857 210.746 459.856 196.568C465.943 184.644 459.274 177 459.274 177C459.274 177 459.451 161.139 448.972 159.963C442.799 143.523 424.135 149.4 424.135 149.4C424.135 149.4 412.573 139.42 395.294 152.193C382.908 152.305 383.025 146.16 378.933 150.324C374.842 154.491 372.794 164.445 377.991 168.526C368.733 172.221 376.68 186.988 376.68 186.988C376.68 186.988 373.457 195.326 383.841 201.941C394.221 208.558 397.696 228.679 415.068 235.446C431.779 241.96 449.817 237.042 450.596 217.526Z" fill="#7D4556"/>
<path fill-rule="evenodd" clip-rule="evenodd" d="M442.262 249.237L440.057 219.682L403.712 223.26L402.015 249.982C402.015 249.982 443.221 248.262 442.262 249.237Z" fill="#C99382"/>
<path fill-rule="evenodd" clip-rule="evenodd" d="M433.586 177.706C433.586 177.706 430.896 187.246 438.217 190.037C436.187 202.425 441.65 201.663 441.65 201.663C441.65 201.663 450.963 191.13 456.319 201.136C461.407 210.643 450.829 223.563 441.903 220.933C425.374 244.157 395.155 243.556 386.125 227.141C380.64 217.166 383.692 203.324 383.318 196.711C382.399 180.463 385.669 175.755 385.669 175.755C385.669 175.755 391.761 177.439 398.807 172.781C405.73 178.583 416.423 173.894 416.423 173.894C416.423 173.894 422.851 183.195 433.586 177.706Z" fill="#C99382"/>
<path fill-rule="evenodd" clip-rule="evenodd" d="M447.022 255.106L444.724 248.414L399.638 249.503L397.806 255.83C397.806 255.83 366.408 266.98 360.959 280.487C355.338 294.419 369.309 359.069 369.575 376.081C361.841 396.371 372.969 402.6 372.969 402.6L464.405 401.784C464.405 401.784 474.895 394.883 465.979 380.894C469.726 355.933 495.468 286.737 484.866 278.004C468.741 264.723 447.022 255.106 447.022 255.106Z" fill="#ADC6FF"/>
<path fill-rule="evenodd" clip-rule="evenodd" d="M477.836 374.468C477.836 374.468 462.644 334.145 459.842 315.705C457.04 297.265 463.22 262.92 486.228 279.419C507.468 295.057 529.169 376.047 516.275 403.031C501.406 434.147 461.641 453.089 461.641 453.089C461.641 453.089 441.604 448.858 445.813 427.719C465.83 404.68 481.06 391.641 477.836 374.468Z" fill="#ADC6FF"/>
<path fill-rule="evenodd" clip-rule="evenodd" d="M312.89 294.454C309.446 284.672 303.324 283.522 303.324 283.522L299.642 275.811L278.818 285.806C279.363 288.901 279.456 289.759 279.995 292.338C280.639 295.415 277.863 294.594 278.974 303.361C282.475 330.991 305.266 387.889 332.555 376.468C357.762 365.916 382.616 315.865 382.616 315.865C382.616 315.865 388.316 265.635 366.399 272.866C344.855 295.597 328.326 326.907 328.326 326.907L312.89 294.454Z" fill="#ADC6FF"/>
<path fill-rule="evenodd" clip-rule="evenodd" d="M465.775 415.84L464.407 401.785L372.97 402.599L372.501 416.671C372.501 416.671 420.885 418.685 465.775 415.84Z" fill="#597EF7"/>
<path fill-rule="evenodd" clip-rule="evenodd" d="M506.144 787.415C506.144 787.415 480.812 441.215 465.774 415.841C391.1 417.744 372.5 416.705 372.5 416.705C372.5 416.705 363.182 452.59 362.893 505.122C362.687 542.425 374.188 787.345 374.188 787.345L405.967 788.244L418.034 504.427L421.484 505.085L476.191 788.587L506.144 787.415Z" fill="#597EF7"/>
<path fill-rule="evenodd" clip-rule="evenodd" d="M408.064 198.449C408.123 205.075 413.544 210.4 420.172 210.34C426.797 210.281 432.119 204.862 432.061 198.236C432.002 191.61 426.583 186.285 419.955 186.343C413.329 186.404 408.006 191.823 408.064 198.449Z" fill="white"/>
<path d="M419.947 185.498C412.855 185.563 407.156 191.364 407.219 198.456C407.282 205.55 413.085 211.25 420.179 211.185C427.271 211.122 432.969 205.322 432.906 198.228C432.844 191.251 427.23 185.622 420.295 185.499L419.947 185.498ZM419.963 187.189C426.123 187.134 431.161 192.084 431.215 198.243C431.27 204.403 426.323 209.44 420.164 209.494C414.004 209.551 408.964 204.601 408.91 198.441C408.856 192.391 413.631 187.422 419.64 187.196L419.963 187.189Z" fill="#7D4556"/>
<path fill-rule="evenodd" clip-rule="evenodd" d="M378.955 197.586C379.014 204.212 384.433 209.535 391.06 209.475C397.686 209.416 403.01 203.997 402.951 197.371C402.893 190.745 397.473 185.42 390.846 185.478C384.22 185.539 378.896 190.96 378.955 197.586Z" fill="white"/>
<path d="M390.838 184.633C383.745 184.698 378.047 190.5 378.109 197.593C378.172 204.686 383.974 210.385 391.068 210.32C398.161 210.257 403.86 204.456 403.797 197.364C403.735 190.386 398.121 184.757 391.186 184.634L390.838 184.633ZM390.853 186.324C397.013 186.269 402.051 191.219 402.106 197.379C402.16 203.538 397.212 208.575 391.053 208.629C384.892 208.686 379.855 203.737 379.8 197.578C379.747 191.527 384.522 186.557 390.53 186.331L390.853 186.324Z" fill="#7D4556"/>
<path d="M405.222 196.235C405.554 196.419 405.675 196.838 405.491 197.17L405.326 197.475C405.193 197.725 405.044 198.01 404.884 198.326C404.426 199.228 403.968 200.19 403.542 201.171C403.145 202.083 402.795 202.966 402.505 203.802C401.545 206.568 401.349 208.563 401.997 209.282C402.655 210.015 403.855 210.363 405.46 210.353C406.448 210.347 407.519 210.207 408.594 209.978C408.851 209.923 409.097 209.865 409.327 209.806L409.94 209.639C409.988 209.624 410.026 209.613 410.053 209.604C410.414 209.489 410.802 209.688 410.917 210.05C411.033 210.411 410.834 210.799 410.472 210.914L410.025 211.045C409.679 211.14 409.295 211.234 408.881 211.323C407.722 211.571 406.562 211.722 405.468 211.729C403.509 211.74 401.951 211.289 400.974 210.202C399.847 208.951 400.079 206.599 401.205 203.351C401.507 202.48 401.87 201.564 402.28 200.622C402.719 199.614 403.188 198.628 403.658 197.703L403.97 197.098L404.287 196.504C404.471 196.172 404.89 196.051 405.222 196.235Z" fill="#9B6160"/>
<path fill-rule="evenodd" clip-rule="evenodd" d="M416.478 215.767C416.478 215.767 405.388 217.135 397.446 215.937C397.446 215.937 399.738 223.847 407.659 222.825C414.694 221.917 416.478 215.767 416.478 215.767Z" fill="white"/>
<path d="M416.365 214.857L415.452 214.958L414.523 215.05C414.038 215.096 413.522 215.141 412.98 215.184C409.627 215.45 406.219 215.575 403.047 215.481C401.037 215.422 399.201 215.275 397.582 215.031C396.921 214.931 396.379 215.55 396.565 216.193C396.64 216.451 396.791 216.873 397.033 217.406C397.431 218.286 397.943 219.165 398.584 219.99C400.736 222.757 403.786 224.249 407.776 223.735C410.87 223.336 413.278 221.973 415.059 219.959C416.35 218.5 417.064 217.038 417.358 216.022C417.542 215.39 417.019 214.776 416.365 214.857ZM415.009 216.844L414.778 217.253C414.472 217.763 414.109 218.265 413.686 218.744C412.188 220.438 410.176 221.576 407.541 221.916C404.244 222.341 401.81 221.149 400.032 218.864L399.768 218.509C399.512 218.149 399.283 217.779 399.079 217.404L398.892 217.045L399.306 217.089C400.461 217.202 401.694 217.276 402.993 217.314C406.24 217.41 409.711 217.283 413.125 217.012L414.192 216.922L415.009 216.844Z" fill="#9B6160"/>
<path d="M399.494 182.02C399.95 181.8 400.498 181.992 400.718 182.448C400.938 182.904 400.747 183.453 400.29 183.672C396.388 185.553 391.552 186.061 386.627 184.754C386.138 184.624 385.846 184.122 385.976 183.633C386.106 183.143 386.608 182.852 387.098 182.982C391.593 184.174 395.98 183.714 399.494 182.02Z" fill="#7D4556"/>
<path d="M402.553 193.99C404.249 193.407 405.997 193.437 407.62 193.834C408.063 193.943 408.393 194.053 408.586 194.132C408.937 194.275 409.106 194.677 408.962 195.029C408.818 195.38 408.417 195.549 408.065 195.405L407.889 195.34C407.743 195.291 407.542 195.231 407.293 195.17C405.905 194.831 404.413 194.805 403 195.29C402.641 195.414 402.249 195.223 402.126 194.863C402.002 194.504 402.194 194.113 402.553 193.99Z" fill="#7D4556"/>
<path d="M423.079 196.991C423.075 196.524 423.45 196.142 423.917 196.138C424.345 196.135 424.702 196.449 424.761 196.862L424.77 196.976C424.773 197.66 424.643 198.597 424.242 199.549C423.536 201.226 422.191 202.286 420.166 202.304C418.16 202.322 416.746 201.369 415.901 199.821C415.417 198.934 415.209 198.062 415.156 197.444C415.116 196.979 415.461 196.57 415.927 196.53C416.353 196.494 416.733 196.78 416.823 197.187L416.86 197.449C416.875 197.544 416.899 197.668 416.934 197.814C417.032 198.225 417.18 198.635 417.385 199.01C417.949 200.042 418.813 200.625 420.15 200.613C421.444 200.602 422.222 199.988 422.684 198.893C422.855 198.486 422.968 198.04 423.03 197.592L423.064 197.295C423.068 197.251 423.071 197.21 423.073 197.173L423.079 196.991Z" fill="#7D4556"/>
<path d="M394.213 197.249C394.209 196.782 394.584 196.401 395.051 196.396C395.479 196.392 395.836 196.707 395.895 197.119L395.904 197.234C395.907 197.919 395.778 198.855 395.377 199.807C394.671 201.484 393.325 202.544 391.3 202.562C389.294 202.58 387.881 201.627 387.036 200.079C386.552 199.192 386.343 198.32 386.29 197.703C386.25 197.238 386.595 196.828 387.06 196.788C387.525 196.748 387.935 197.093 387.975 197.558C387.982 197.646 388.01 197.829 388.068 198.072C388.167 198.483 388.315 198.893 388.52 199.268C389.084 200.3 389.948 200.883 391.285 200.871C392.579 200.86 393.357 200.246 393.819 199.151C393.99 198.745 394.102 198.299 394.164 197.851L394.198 197.554C394.206 197.466 394.21 197.39 394.212 197.329L394.213 197.249Z" fill="#7D4556"/>
<path d="M443.912 197.212C444.419 197.208 444.833 197.615 444.837 198.121C444.841 198.585 444.5 198.972 444.053 199.037L443.929 199.046L432.069 199.153C431.562 199.157 431.148 198.75 431.144 198.244C431.139 197.78 431.481 197.393 431.928 197.328L432.052 197.319L443.912 197.212Z" fill="#7D4556"/>
<path d="M412.363 181.933C412.588 181.479 413.139 181.294 413.592 181.519C414.924 182.181 416.54 182.69 418.379 183.059C421.182 183.621 424.118 183.806 426.648 183.771L427.653 183.743C428.158 183.716 428.59 184.104 428.617 184.61C428.644 185.116 428.256 185.547 427.75 185.574L427.325 185.59C424.535 185.671 421.215 185.498 418.019 184.857C416.033 184.459 414.267 183.902 412.776 183.162C412.323 182.936 412.138 182.386 412.363 181.933Z" fill="#7D4556"/>
<path d="M449.411 200.912C451.447 200.639 452.816 201.215 453.535 202.374C453.893 202.95 454.014 203.518 454.017 203.933C454.021 204.313 453.716 204.624 453.336 204.627C452.994 204.63 452.708 204.384 452.652 204.057L452.642 203.946C452.64 203.76 452.569 203.426 452.366 203.099C451.946 202.422 451.114 202.072 449.594 202.276C448.114 202.474 446.822 203.505 446.009 204.951C445.669 205.556 445.453 206.177 445.395 206.678C445.353 207.043 445.402 207.236 445.415 207.245C446.767 208.13 447.784 209.334 448.055 210.6C448.403 212.223 447.522 213.713 445.422 214.847C445.088 215.028 444.671 214.904 444.491 214.569C444.31 214.235 444.434 213.818 444.768 213.637C446.372 212.77 446.917 211.851 446.71 210.888C446.527 210.035 445.738 209.1 444.662 208.396C442.483 206.97 445.601 201.423 449.411 200.912Z" fill="#9B6160"/>
<path d="M448.007 206.002C449.739 206.29 450.86 207.167 450.727 208.782C450.696 209.161 450.364 209.442 449.986 209.411C449.645 209.383 449.383 209.112 449.356 208.782L449.356 208.67C449.415 207.95 448.898 207.544 447.782 207.359C447.326 207.283 446.839 207.26 446.374 207.273L446.03 207.29C445.925 207.297 445.852 207.304 445.818 207.307C445.44 207.351 445.099 207.08 445.056 206.702C445.013 206.325 445.284 205.984 445.662 205.941L445.938 205.917C446.598 205.873 447.317 205.887 448.007 206.002Z" fill="#9B6160"/>
<path d="M407.674 230.306C408.016 230.317 408.291 230.575 408.334 230.903L408.338 231.065L408.337 231.115C408.331 231.469 408.336 231.918 408.357 232.426C408.389 233.165 408.454 233.891 408.558 234.566C408.782 236.012 409.169 237.046 409.653 237.461L409.758 237.541C410.076 237.748 410.165 238.175 409.957 238.492C409.749 238.81 409.323 238.899 409.005 238.692C408.038 238.059 407.495 236.69 407.199 234.776C407.026 233.655 406.96 232.503 406.959 231.508L406.965 230.971C406.977 230.592 407.294 230.294 407.674 230.306Z" fill="#9B6160"/>
<path d="M405.102 232.472C405.481 232.498 405.767 232.826 405.742 233.205L405.72 233.628C405.684 234.505 405.687 235.449 405.755 236.327C405.804 236.971 405.886 237.532 406.002 237.98C406.097 238.347 405.876 238.722 405.508 238.818C405.141 238.913 404.765 238.692 404.67 238.324C404.531 237.787 404.438 237.151 404.383 236.432C404.326 235.68 404.312 234.894 404.328 234.135L404.346 233.572C404.354 233.358 404.363 233.2 404.369 233.111C404.395 232.732 404.723 232.446 405.102 232.472Z" fill="#9B6160"/>
<path d="M410.622 233.388C410.992 233.305 411.36 233.538 411.443 233.909L411.558 234.362C411.572 234.412 411.586 234.465 411.602 234.521C411.733 234.987 411.886 235.452 412.058 235.882C412.365 236.651 412.698 237.208 412.978 237.434L413.061 237.491C413.388 237.684 413.498 238.105 413.305 238.433C413.113 238.76 412.692 238.87 412.364 238.677C411.722 238.3 411.225 237.506 410.78 236.391C410.589 235.912 410.422 235.403 410.278 234.895L410.152 234.424C410.131 234.338 410.114 234.266 410.101 234.209C410.018 233.839 410.251 233.471 410.622 233.388Z" fill="#9B6160"/>
<path d="M403.06 231.793C403.393 231.868 403.615 232.174 403.595 232.504L403.579 232.615L402.662 236.668C402.578 237.038 402.21 237.271 401.839 237.187C401.506 237.111 401.284 236.806 401.304 236.475L401.32 236.364L402.237 232.312C402.313 231.978 402.619 231.757 402.949 231.777L403.06 231.793Z" fill="#9B6160"/>
<path d="M426.617 233.312C426.95 233.129 427.368 233.25 427.551 233.583C427.734 233.916 427.613 234.334 427.28 234.517C426.756 234.805 426.226 235.079 425.69 235.339C418.311 238.912 410.529 239.626 403.617 238.715C403.202 238.66 402.821 238.603 402.477 238.544L401.874 238.433C401.756 238.41 401.668 238.391 401.609 238.377C401.239 238.292 401.008 237.922 401.094 237.552C401.179 237.182 401.549 236.952 401.919 237.037L402.263 237.108L402.396 237.133C402.798 237.207 403.267 237.282 403.797 237.351C410.465 238.23 417.988 237.54 425.09 234.101C425.605 233.852 426.114 233.589 426.617 233.312Z" fill="#9B6160"/>
<path d="M414.207 210.778C414.343 210.423 414.74 210.245 415.095 210.38L415.393 210.5L415.884 210.713C415.971 210.752 416.06 210.792 416.152 210.835C416.936 211.198 417.72 211.614 418.456 212.076C421.026 213.691 422.442 215.483 421.915 217.486C421.819 217.854 421.443 218.073 421.075 217.976C420.708 217.88 420.489 217.504 420.585 217.136C420.904 215.924 419.829 214.563 417.724 213.24C417.043 212.812 416.308 212.423 415.573 212.083L415.222 211.923C414.952 211.804 414.74 211.717 414.605 211.666C414.25 211.53 414.072 211.133 414.207 210.778Z" fill="#9B6160"/>
<path d="M327.347 328.113C327.662 327.961 328.034 328.064 328.229 328.341L328.287 328.44L336.002 344.378C336.171 344.728 336.025 345.149 335.676 345.318C335.361 345.47 334.989 345.367 334.794 345.09L334.736 344.991L327.021 329.053C326.852 328.703 326.998 328.283 327.347 328.113Z" fill="#597EF7"/>
<path d="M482.393 281.609C482.694 281.364 483.137 281.408 483.383 281.709C483.629 282.01 483.584 282.453 483.283 282.699L483.162 282.804C483.06 282.896 482.918 283.03 482.739 283.21C482.282 283.671 481.769 284.247 481.215 284.946C479.618 286.959 478.016 289.547 476.517 292.768C471.176 304.244 468.522 320.417 470.041 342.062C470.068 342.45 469.776 342.786 469.388 342.813C469.001 342.84 468.665 342.548 468.637 342.161C467.102 320.287 469.796 303.876 475.242 292.174C476.788 288.853 478.448 286.171 480.113 284.072C480.7 283.332 481.247 282.717 481.741 282.219L482.017 281.949C482.182 281.791 482.308 281.679 482.393 281.609Z" fill="#597EF7"/>
<path d="M361.439 286.874C361.826 286.908 362.112 287.249 362.079 287.636C361.531 294.002 361.914 303.294 363.041 314.731C363.547 319.863 364.19 325.289 364.938 330.882C365.617 335.963 366.346 340.901 367.074 345.501L367.59 348.702L368.044 351.406C368.111 351.789 367.855 352.153 367.472 352.22C367.09 352.286 366.725 352.03 366.659 351.648L366.202 348.93C366.073 348.143 365.936 347.3 365.793 346.403L365.685 345.721C364.955 341.11 364.225 336.161 363.544 331.069C362.793 325.461 362.149 320.018 361.641 314.869L361.464 313.02C360.467 302.349 360.15 293.638 360.678 287.515C360.708 287.167 360.987 286.9 361.324 286.874H361.439Z" fill="#597EF7"/>
<path d="M411.777 415.883C412.166 415.89 412.475 416.21 412.469 416.598L412.413 421.361C412.294 434.264 412.343 448.477 412.684 461.867L412.784 465.469C413.289 482.282 414.237 494.861 415.712 501.571C415.795 501.95 415.555 502.325 415.176 502.409C414.796 502.492 414.421 502.252 414.338 501.873L414.182 501.133C412.67 493.652 411.739 480.002 411.278 461.903C410.96 449.388 410.895 436.159 410.985 423.948L411.04 418.277L411.063 416.576C411.069 416.187 411.389 415.878 411.777 415.883Z" fill="#253368"/>
<path d="M424.834 416.224C425.223 416.227 425.535 416.544 425.532 416.932L425.526 418.076C425.492 426.547 425.572 436.701 425.86 446.552L425.996 450.734C426.263 458.113 426.641 464.329 427.145 469.053L427.268 470.159L427.27 470.298C426.85 475.426 423.972 478.552 419.512 480.016C417.236 480.764 414.873 480.992 412.794 480.918L412.319 480.895C412.118 480.883 411.973 480.871 411.892 480.863C411.506 480.822 411.226 480.476 411.267 480.089C411.308 479.703 411.654 479.423 412.04 479.464L412.402 479.491C414.431 479.61 416.818 479.421 419.073 478.68C422.914 477.418 425.352 474.857 425.83 470.577L425.862 470.245L425.808 469.772C425.249 464.756 424.839 457.997 424.559 449.894L424.499 448.071C424.205 438.728 424.103 429.026 424.113 420.664L424.126 416.922C424.129 416.533 424.446 416.221 424.834 416.224Z" fill="#253368"/>
<path d="M381.011 367.146L377.918 342.833C377.645 340.627 377.393 338.547 377.158 336.538L376.927 334.552C376.487 330.706 376.109 327.14 375.792 323.79C375.509 320.799 375.249 317.657 375.011 314.383C374.38 305.708 373.926 296.463 373.621 287.175L373.548 284.852C373.473 282.386 373.413 280.043 373.365 277.852L373.302 274.617L373.256 271.428C373.253 271.039 373.565 270.721 373.953 270.718C374.342 270.714 374.659 271.027 374.663 271.415L374.717 275.096L374.772 277.822C374.812 279.696 374.863 281.683 374.923 283.762L374.954 284.81C375.257 294.858 375.732 304.905 376.414 314.281L376.622 317.046C376.765 318.867 376.915 320.643 377.073 322.371L377.192 323.658C377.474 326.626 377.802 329.766 378.181 333.123L378.534 336.193C378.782 338.315 379.048 340.516 379.339 342.861L382.248 365.69C382.385 366.788 382.5 367.727 382.584 368.428L382.867 370.903C383.503 376.698 383.622 379.545 383.13 380.445L383.091 380.51C382.32 381.688 381.29 385.273 380.953 388.65C380.502 393.178 381.187 397.074 383.231 399.654C383.472 399.959 383.421 400.401 383.117 400.642C382.812 400.883 382.37 400.832 382.129 400.528C379.815 397.607 379.069 393.367 379.554 388.51C379.911 384.928 381.001 381.136 381.913 379.74C382.201 379.301 382.008 375.771 381.311 369.651L381.011 367.146Z" fill="#597EF7"/>
<path d="M393.013 260.566C393.401 260.587 393.699 260.918 393.678 261.306L393.535 264.303L393.414 267.153C393.325 269.333 393.237 271.703 393.153 274.239C392.6 291.043 392.433 308.45 392.885 324.708L392.948 326.836C393.668 349.735 395.597 367.37 398.986 377.7C399.021 377.805 399.03 377.918 399.013 378.028L398.722 379.815L398.374 381.908C396.748 391.847 396.746 395.646 399.077 398.848C399.306 399.162 399.237 399.602 398.923 399.83C398.609 400.059 398.169 399.99 397.94 399.676C395.385 396.166 395.29 392.352 396.807 382.789L397.596 377.973L397.492 377.649C394.095 366.933 392.196 349.007 391.51 325.821L391.479 324.747C391.052 309.415 391.176 293.07 391.654 277.168L391.748 274.192C391.842 271.335 391.941 268.689 392.042 266.286L392.273 261.231C392.294 260.844 392.625 260.546 393.013 260.566Z" fill="#597EF7"/>
<path d="M410.031 258.349C410.419 258.368 410.718 258.698 410.699 259.086L410.549 262.549L410.395 266.622C410.334 268.349 410.275 270.191 410.217 272.139C409.484 296.958 409.494 323.464 410.742 348.311C411.199 357.392 411.813 365.968 412.598 373.956L412.769 375.659L412.77 375.788L412.655 377.117C412.447 379.357 411.557 388.827 411.479 390.79C411.342 394.214 411.655 396.36 412.648 398.47C412.903 399.014 413.208 399.562 413.572 400.132C413.78 400.46 413.684 400.894 413.357 401.103C413.029 401.312 412.594 401.216 412.386 400.888C411.991 400.269 411.657 399.668 411.375 399.069C410.325 396.837 409.963 394.59 410.056 391.244L410.073 390.734C410.116 389.665 410.39 386.458 410.668 383.361L411.296 376.54L411.363 375.735L411.198 374.094C410.467 366.654 409.884 358.709 409.438 350.324L409.338 348.382C408.141 324.573 408.08 299.256 408.72 275.349L408.869 270.182C408.938 267.99 409.01 265.946 409.081 264.065L409.218 260.689L409.294 259.016C409.313 258.628 409.643 258.329 410.031 258.349Z" fill="#597EF7"/>
<path d="M428.108 257.927C428.457 257.95 428.731 258.222 428.765 258.559L428.763 258.749L428.468 263.931L428.202 268.916C427.984 273.109 427.767 277.552 427.559 282.175L427.422 285.282C426.938 296.444 426.56 307.39 426.329 317.727L426.243 321.886C425.786 346.145 426.236 364.253 427.83 373.723L427.894 374.097C428 374.699 428.12 375.34 428.267 376.092L429.242 380.973C429.512 382.349 429.72 383.469 429.907 384.578L430.09 385.705C431.208 392.904 430.955 397.716 428.689 400.791C428.458 401.104 428.018 401.171 427.705 400.94C427.392 400.71 427.326 400.269 427.556 399.957C429.577 397.214 429.771 392.52 428.614 385.381L428.377 383.984C428.204 383.006 428.007 381.972 427.758 380.717L426.886 376.359C426.738 375.6 426.616 374.951 426.509 374.341L426.378 373.564C424.775 363.615 424.362 344.902 424.875 319.903C425.086 309.645 425.445 298.75 425.914 287.612L426.016 285.221C426.266 279.474 426.53 273.972 426.797 268.843L427.177 261.816L427.364 258.588C427.387 258.2 427.72 257.905 428.108 257.927Z" fill="#597EF7"/>
<path d="M447.835 260.603C448.218 260.672 448.472 261.037 448.404 261.419L448.248 262.361C448.159 262.924 448.062 263.565 447.959 264.283L447.833 265.181C447.434 268.08 447.035 271.477 446.658 275.361L446.572 276.266C444.193 301.522 443.866 332.946 446.88 369.825L447.172 373.298C447.825 380.827 447.907 388.167 447.639 394.676L447.588 395.816C447.564 396.328 447.538 396.806 447.512 397.248L447.4 398.891C447.367 399.278 447.027 399.565 446.64 399.533C446.253 399.5 445.966 399.16 445.998 398.773L446.056 397.988L446.133 396.716C446.15 396.409 446.167 396.086 446.183 395.748C446.507 389.021 446.456 381.322 445.771 373.42C442.489 335.534 442.703 303.254 445.061 277.326L445.172 276.134C445.546 272.157 445.946 268.665 446.347 265.671L446.629 263.657L446.859 262.141C446.935 261.66 446.99 261.337 447.019 261.171C447.081 260.827 447.383 260.587 447.722 260.592L447.835 260.603Z" fill="#597EF7"/>
<path d="M466.266 271.273L466.379 271.289C466.758 271.374 466.996 271.751 466.91 272.13L466.647 273.329L466.348 274.74C466.148 275.692 465.934 276.736 465.708 277.865C464.806 282.379 463.903 287.311 463.061 292.496C461.628 301.313 460.521 309.937 459.865 318.024C459.399 323.776 459.174 329.128 459.218 334.002L459.616 378.62L459.829 379.181L459.976 379.59C460.281 380.451 460.585 381.406 460.869 382.43C461.607 385.092 462.08 387.743 462.16 390.233C462.279 393.952 461.509 397.019 459.62 399.183C459.364 399.476 458.92 399.506 458.628 399.25C458.335 398.995 458.305 398.551 458.56 398.258C460.177 396.406 460.863 393.674 460.754 390.278C460.678 387.914 460.224 385.368 459.514 382.806C459.294 382.013 459.061 381.263 458.827 380.569L458.65 380.059C458.525 379.705 458.42 379.423 458.342 379.224L458.263 379.026L458.211 378.765L457.811 334.014C457.767 329.095 457.994 323.702 458.463 317.911C459.122 309.782 460.234 301.122 461.672 292.27C462.441 287.54 463.259 283.021 464.082 278.835L464.329 277.589C464.555 276.456 464.77 275.407 464.971 274.451L465.395 272.466L465.538 271.82C465.615 271.479 465.928 271.252 466.266 271.273Z" fill="#597EF7"/>
<path d="M485.386 291.82C485.738 291.656 486.156 291.808 486.321 292.159L486.597 292.758C486.82 293.248 487.08 293.823 487.371 294.479L487.941 295.768C488.621 297.318 489.355 299.031 490.133 300.891C492.988 307.723 495.843 315.134 498.508 322.865C502.348 334.005 505.464 344.86 507.597 355.078C509.95 366.353 511.028 376.491 510.621 385.219C510.426 389.425 508.759 394.139 505.819 399.279C502.828 404.509 498.597 410.049 493.444 415.735C489.705 419.86 485.702 423.822 481.699 427.481L480.667 428.417C479.993 429.025 479.345 429.599 478.729 430.137L477.359 431.32L476.353 432.165C476.053 432.411 475.61 432.367 475.363 432.066C475.117 431.766 475.161 431.323 475.462 431.076L476.233 430.431C476.442 430.254 476.668 430.06 476.911 429.852L477.804 429.078C478.721 428.277 479.707 427.396 480.75 426.443C484.723 422.812 488.695 418.88 492.401 414.791C497.492 409.173 501.664 403.711 504.598 398.581C507.437 393.618 509.032 389.105 509.216 385.154C509.617 376.559 508.551 366.533 506.22 355.366C504.1 345.211 501 334.411 497.178 323.323C494.523 315.623 491.679 308.239 488.835 301.434L488.182 299.882C487.54 298.368 486.933 296.964 486.366 295.682L485.455 293.644L485.047 292.755C484.882 292.403 485.034 291.985 485.386 291.82Z" fill="#597EF7"/>
<path d="M476.572 304.972C476.928 304.817 477.343 304.981 477.497 305.338L478.427 307.535L479.193 309.38C479.721 310.662 480.284 312.047 480.875 313.522C483.407 319.845 485.938 326.545 488.302 333.328C490.165 338.676 491.847 343.861 493.303 348.806L493.773 350.418C498.604 367.209 500.401 379.855 498.211 386.884C497.484 389.217 496.386 391.692 494.95 394.292C492.62 398.515 489.452 402.982 485.654 407.573C482.703 411.142 479.541 414.581 476.38 417.767L475.452 418.695C474.847 419.295 474.269 419.857 473.725 420.378L472.866 421.194L472.158 421.851C471.87 422.112 471.425 422.09 471.164 421.803C470.903 421.515 470.925 421.07 471.213 420.809L471.903 420.169L472.355 419.742C473.268 418.875 474.286 417.881 475.382 416.776C478.515 413.619 481.648 410.21 484.571 406.676C488.316 402.148 491.436 397.749 493.719 393.613C495.111 391.09 496.172 388.7 496.868 386.466C499.014 379.578 497.056 366.525 491.954 349.204C490.505 344.282 488.83 339.119 486.973 333.791C484.618 327.029 482.093 320.349 479.569 314.045L478.708 311.908C478.335 310.99 477.976 310.115 477.632 309.286L476.206 305.896C476.052 305.54 476.216 305.126 476.572 304.972Z" fill="#597EF7"/>
<path d="M471.262 331.888C471.608 331.711 472.032 331.849 472.209 332.194L472.742 333.26L473.347 334.491C473.749 335.319 474.181 336.219 474.635 337.184C476.452 341.042 478.269 345.143 479.966 349.312C481.416 352.877 482.713 356.334 483.816 359.625C487.296 370.009 488.637 378.019 487.159 382.848C486.565 384.79 485.746 386.851 484.724 389.018C483.162 392.331 481.154 395.829 478.806 399.429C476.745 402.589 474.538 405.653 472.331 408.504L471.577 409.469C471.332 409.779 471.095 410.078 470.864 410.366L469.876 411.579L469.381 412.171C469.129 412.467 468.685 412.502 468.39 412.25C468.094 411.997 468.059 411.553 468.312 411.258L468.969 410.468L469.768 409.485C470.223 408.917 470.709 408.302 471.218 407.643C473.404 404.82 475.589 401.786 477.627 398.661C479.943 395.11 481.92 391.667 483.452 388.418C484.447 386.309 485.241 384.309 485.814 382.436C487.177 377.983 485.872 370.184 482.482 360.072C481.389 356.811 480.103 353.382 478.663 349.842C476.977 345.699 475.169 341.62 473.362 337.783L472.575 336.128C472.407 335.776 472.242 335.436 472.082 335.107L470.956 332.835C470.78 332.489 470.917 332.065 471.262 331.888Z" fill="#597EF7"/>
<path d="M299.977 288.767C300.265 288.506 300.71 288.528 300.971 288.816C302.146 290.114 303.676 293.349 306.045 299.288L306.871 301.391C308.342 305.19 312.444 315.901 313.983 319.788L314.759 321.731C317.906 329.554 320.612 335.59 323.202 340.353L323.687 341.232C327.71 348.407 331.167 351.784 333.849 350.969C335.779 350.383 337.9 349.273 340.175 347.691C343.204 345.586 346.428 342.705 349.749 339.243C352.341 336.542 354.842 333.646 357.158 330.75L357.941 329.761C358.193 329.44 358.435 329.128 358.667 328.826L359.598 327.6C359.839 327.276 360.014 327.038 360.116 326.896C360.343 326.581 360.783 326.509 361.098 326.736C361.413 326.963 361.485 327.402 361.258 327.717L360.775 328.374L360.457 328.798C359.813 329.652 359.076 330.604 358.256 331.628C355.916 334.556 353.388 337.483 350.764 340.217C347.384 343.741 344.093 346.681 340.978 348.846C338.591 350.505 336.345 351.681 334.258 352.315C330.577 353.433 326.669 349.551 322.214 341.478L321.966 341.025C319.252 336.034 316.426 329.692 313.115 321.41L311.833 318.158C309.69 312.656 305.835 302.582 305.139 300.819L304.354 298.852C302.278 293.715 300.884 290.817 299.928 289.76C299.667 289.472 299.689 289.027 299.977 288.767Z" fill="#597EF7"/>
<path d="M290.698 292.818C291.078 292.735 291.453 292.975 291.536 293.354L291.716 294.148L292.13 295.905L292.251 296.404C292.841 298.836 293.538 301.546 294.339 304.465C296.625 312.804 299.277 321.143 302.262 328.922L302.796 330.298C310.738 350.543 319.536 363.038 328.74 364.071C337.542 365.059 345.619 360.604 352.762 352.523C355.039 349.948 357.049 347.185 358.772 344.423C359.274 343.618 359.721 342.861 360.112 342.166L360.34 341.756C360.603 341.277 360.78 340.936 360.867 340.759C361.039 340.411 361.461 340.268 361.809 340.44C362.157 340.612 362.3 341.033 362.129 341.382L361.876 341.872C361.791 342.032 361.69 342.22 361.572 342.433C361.119 343.259 360.582 344.178 359.966 345.167C358.204 347.992 356.148 350.816 353.816 353.455C346.4 361.844 337.927 366.518 328.584 365.469C318.42 364.329 309.222 350.983 300.949 329.426C297.945 321.599 295.28 313.218 292.982 304.837L292.461 302.914C291.872 300.708 291.345 298.637 290.884 296.736L290.439 294.87L290.162 293.655C290.079 293.276 290.319 292.901 290.698 292.818Z" fill="#597EF7"/>
<path d="M283.206 297.696C283.59 297.634 283.951 297.895 284.013 298.278L284.158 299.122C284.282 299.815 284.433 300.62 284.611 301.527L284.971 303.298C285.411 305.415 285.926 307.701 286.52 310.122C288.699 319.015 291.472 327.906 294.889 336.2L295.468 337.584C304.494 358.864 316.222 372.13 330.887 373.689C331.273 373.73 331.553 374.077 331.512 374.463C331.471 374.849 331.124 375.129 330.738 375.088C315.095 373.425 302.868 359.255 293.589 336.736C290.141 328.37 287.348 319.413 285.154 310.457C284.471 307.671 283.891 305.061 283.408 302.681L283.231 301.799C283.141 301.341 283.058 300.909 282.982 300.504L282.68 298.835C282.655 298.69 282.636 298.579 282.624 298.503C282.562 298.119 282.823 297.758 283.206 297.696Z" fill="#597EF7"/>
<path d="M358.066 311.536C358.425 311.683 358.597 312.094 358.45 312.453L358.341 312.714C356.397 317.343 353.193 322.252 349.081 327.267C346.624 330.263 343.992 333.114 341.361 335.726C340.747 336.335 340.162 336.903 339.613 337.425L338.62 338.354L337.843 339.058C337.551 339.315 337.107 339.286 336.85 338.995C336.594 338.703 336.622 338.258 336.914 338.002L337.695 337.293L337.859 337.142C338.616 336.439 339.461 335.63 340.37 334.728C342.969 332.147 345.569 329.331 347.993 326.375C351.844 321.68 354.874 317.091 356.78 312.783L357.148 311.919C357.296 311.56 357.707 311.388 358.066 311.536Z" fill="#597EF7"/>
<path d="M360.394 286.356C360.575 286.012 361 285.88 361.344 286.061C361.687 286.242 361.819 286.668 361.638 287.011C359.576 290.923 357.003 295.374 354.001 300.263C352.87 302.106 351.684 304 350.45 305.938C347.253 310.96 343.856 316.085 340.435 321.102L338.968 323.244C338.283 324.24 337.622 325.195 336.99 326.104L333.747 330.716C333.521 331.032 333.082 331.104 332.766 330.878C332.45 330.652 332.378 330.213 332.604 329.897L334.034 327.877L335.836 325.301C336.309 324.621 336.798 323.915 337.301 323.185L337.809 322.447C341.714 316.767 345.619 310.906 349.263 305.183C350.493 303.251 351.675 301.363 352.802 299.527C355.789 294.662 358.348 290.237 360.394 286.356Z" fill="#597EF7"/>
<path d="M299.993 285.286C300.302 285.05 300.743 285.109 300.979 285.418C301.215 285.727 301.156 286.168 300.847 286.404C300.227 286.878 299.591 287.333 298.942 287.77C295.544 290.057 291.907 291.763 288.27 292.974C287.179 293.337 286.153 293.633 285.212 293.868L284.749 293.981C284.469 294.047 284.211 294.104 283.979 294.152L283.754 294.198C283.579 294.232 283.455 294.254 283.388 294.265C283.005 294.328 282.643 294.068 282.581 293.684C282.519 293.301 282.779 292.939 283.162 292.877L283.649 292.785C283.861 292.741 284.121 292.684 284.426 292.612C285.451 292.37 286.594 292.05 287.826 291.639C291.349 290.466 294.872 288.814 298.156 286.604C298.783 286.182 299.395 285.743 299.993 285.286Z" fill="#597EF7"/>
<path d="M443.866 255.659C444.241 255.556 444.628 255.776 444.731 256.151C444.834 256.525 444.614 256.913 444.24 257.016C440.15 258.141 435.439 258.875 430.224 259.263C422.475 259.841 414.19 259.634 406.196 258.94L404.821 258.815C403.929 258.731 403.088 258.644 402.304 258.556L401.074 258.413L400.075 258.285C399.69 258.231 399.421 257.876 399.475 257.491C399.529 257.106 399.884 256.838 400.269 256.892L401.244 257.017L401.889 257.093C403.198 257.245 404.684 257.397 406.317 257.539C414.242 258.227 422.456 258.432 430.12 257.861C435.25 257.479 439.874 256.758 443.866 255.659Z" fill="#597EF7"/>
<path d="M456.329 416.616C456.718 416.611 457.036 416.922 457.041 417.311L457.056 417.805C457.062 417.969 457.071 418.163 457.083 418.384C457.129 419.248 457.204 420.212 457.315 421.25C457.633 424.215 458.174 427.179 458.991 429.937C460.858 436.244 463.858 440.492 468.169 441.814C468.541 441.927 468.749 442.321 468.636 442.692C468.522 443.063 468.128 443.272 467.757 443.158C462.89 441.667 459.63 437.05 457.642 430.337C456.799 427.488 456.243 424.443 455.917 421.4C455.825 420.548 455.758 419.745 455.71 419.003L455.678 418.458C455.65 417.923 455.638 417.538 455.635 417.328C455.63 416.94 455.941 416.621 456.329 416.616Z" fill="#253368"/>
<path d="M379.401 418.006C379.751 418.004 380.042 418.258 380.098 418.592L380.107 418.706L380.101 419.408C380.086 420.27 380.039 421.431 379.942 422.808C379.735 425.733 379.36 428.653 378.774 431.384C377.253 438.476 374.589 443.162 370.37 444.241C369.994 444.338 369.611 444.111 369.515 443.734C369.419 443.358 369.646 442.975 370.022 442.879C373.55 441.976 375.98 437.701 377.399 431.089C377.97 428.429 378.336 425.573 378.538 422.709L378.59 421.926C378.666 420.666 378.697 419.637 378.701 418.922L378.701 418.713L378.71 418.598C378.763 418.264 379.052 418.007 379.401 418.006Z" fill="#253368"/>
<path d="M372.502 416.002L465.772 416.29C466.161 416.291 466.475 416.607 466.473 416.995C466.472 417.345 466.216 417.634 465.882 417.688L465.768 417.696L372.498 417.409C372.11 417.407 371.796 417.092 371.797 416.703C371.798 416.354 372.054 416.064 372.388 416.011L372.502 416.002Z" fill="#253368"/>
<path d="M464.367 401.401C464.755 401.399 465.072 401.712 465.074 402.101C465.076 402.45 464.822 402.742 464.489 402.798L464.374 402.808L372.973 403.303C372.585 403.305 372.268 402.992 372.266 402.604C372.264 402.254 372.518 401.963 372.852 401.906L372.966 401.897L464.367 401.401Z" fill="#253368"/>
</g>
<circle cx="354.942" cy="268.901" r="10.1591" fill="#597EF7"/>
<path fill-rule="evenodd" clip-rule="evenodd" d="M105.177 173.006C78.7138 173.05 57.7675 193.368 56.4321 219.239H152.968C159.959 219.244 166.917 218.251 173.622 216.292C173.989 213.869 174.173 211.424 174.173 208.973V173.006H105.177Z" fill="#42CBEA"/>
<path fill-rule="evenodd" clip-rule="evenodd" d="M127.514 125.115C108.61 125.152 90.4928 132.644 77.1527 145.942C63.8126 159.243 56.3371 177.263 56.3732 196.036V219.236C57.7504 193.366 79.2309 173.048 105.316 173.001H173.321V208.97C173.321 211.418 173.14 213.867 172.778 216.29C202.961 207.248 223.602 179.622 223.568 148.315V125.115H127.514Z" fill="#329EE0"/>
<path fill-rule="evenodd" clip-rule="evenodd" d="M152.379 219.242H56.3942C56.3497 220.087 56.333 220.939 56.333 221.796V257.76H124.338C148.576 257.721 169.144 240.099 172.735 216.295C166.131 218.257 159.273 219.247 152.379 219.242Z" fill="#4CD885"/>
<path fill-rule="evenodd" clip-rule="evenodd" d="M234.519 197.051L219.789 243.325H228.694L243.425 197.051H234.519Z" fill="#597EF7"/>
<path fill-rule="evenodd" clip-rule="evenodd" d="M213.514 202.312H204.06H198.101C197.636 202.312 197.259 202.689 197.259 203.154V209.113V231.263V237.223C197.259 237.688 197.636 238.064 198.101 238.064H204.06H213.514C213.979 238.064 214.356 237.688 214.356 237.223V232.105C214.356 231.64 213.979 231.263 213.514 231.263H204.06V209.113H213.514C213.979 209.113 214.356 208.737 214.356 208.272V203.154C214.356 202.689 213.979 202.312 213.514 202.312Z" fill="#CCD7EE"/>
<path fill-rule="evenodd" clip-rule="evenodd" d="M265.113 202.312H259.153H249.699C249.234 202.312 248.857 202.689 248.857 203.154V208.272C248.857 208.737 249.234 209.113 249.699 209.113H259.153V231.263H249.699C249.234 231.263 248.857 231.64 248.857 232.105V237.223C248.857 237.688 249.234 238.064 249.699 238.064H259.153H265.113C265.577 238.064 265.954 237.688 265.954 237.223V232.105V208.272V203.154C265.954 202.689 265.577 202.312 265.113 202.312Z" fill="#CCD7EE"/>
<path d="M242.269 258.795H236.165C232.394 258.795 229.337 261.852 229.337 265.623L229.337 271.727C229.337 275.498 232.394 278.555 236.165 278.555H242.269C246.04 278.555 249.097 275.498 249.097 271.727V265.623C249.097 261.852 246.04 258.795 242.269 258.795Z" fill="#597EF7"/>
<path d="M198.641 313.805H68.1857C64.4152 313.805 61.3585 316.861 61.3585 320.632L61.3584 451.087C61.3584 454.858 64.415 457.914 68.1855 457.914H198.641C202.412 457.914 205.468 454.858 205.468 451.087V320.632C205.468 316.861 202.412 313.805 198.641 313.805Z" fill="#597EF7"/>
<path d="M124.821 278.028H72.8755C69.105 278.028 66.0484 281.084 66.0484 284.855L66.0483 336.801C66.0483 340.571 69.105 343.628 72.8755 343.628H124.821C128.592 343.628 131.649 340.571 131.649 336.801V284.855C131.649 281.084 128.592 278.028 124.821 278.028Z" fill="#597EF7"/>
<path fill-rule="evenodd" clip-rule="evenodd" d="M276.409 348.416L239.048 460.5C238.071 463.431 234.902 465.015 231.971 464.038C231.147 463.764 230.399 463.301 229.784 462.687L155.062 387.964C152.877 385.78 152.877 382.237 155.062 380.053C155.676 379.438 156.425 378.976 157.249 378.701L269.332 341.34C272.264 340.363 275.432 341.947 276.409 344.878C276.792 346.027 276.792 347.268 276.409 348.416Z" fill="#FF7946"/>
<defs>
<clipPath id="clip0">
<rect x="243.221" y="97.3237" width="348.182" height="383.59" rx="174.091" fill="white"/>
</clipPath>
</defs>
</svg>
