<svg width="672" height="816" viewBox="0 0 672 816" fill="none" xmlns="http://www.w3.org/2000/svg">
<ellipse cx="320.374" cy="320.507" rx="208.478" ry="208.564" fill="#41D3BD"/>
<path fill-rule="evenodd" clip-rule="evenodd" d="M488.76 624.389H542.771V614.831H488.76V624.389Z" fill="#253368"/>
<path fill-rule="evenodd" clip-rule="evenodd" d="M529.332 517.229L543.796 671.538H556.215L541.752 517.229H529.332Z" fill="#597EF7"/>
<path fill-rule="evenodd" clip-rule="evenodd" d="M489.78 517.229L475.316 671.538H487.735L502.199 517.229H489.78Z" fill="#597EF7"/>
<path fill-rule="evenodd" clip-rule="evenodd" d="M484.506 527.272C478.099 527.272 472.905 522.775 472.905 517.229C472.905 511.682 478.099 507.184 484.506 507.184H548.159C554.565 507.184 559.76 511.682 559.76 517.229C559.76 522.775 554.565 527.272 548.159 527.272H484.506Z" fill="#A3B5D6"/>
<path d="M547.645 444.049C547.886 444.046 548.084 444.238 548.087 444.478C548.09 444.694 547.935 444.875 547.728 444.912L547.658 444.918L509.329 445.465C509.089 445.469 508.891 445.277 508.888 445.037C508.885 444.821 509.04 444.64 509.246 444.603L509.317 444.596L547.645 444.049Z" fill="#A3B5D6"/>
<path fill-rule="evenodd" clip-rule="evenodd" d="M428.368 566.092C428.452 565.837 410.085 629.777 409.158 634.459C406.63 647.239 407.755 649.282 400.251 651.332C398.329 651.858 395.88 650.358 392.492 652.926C383.221 659.958 371.175 662.604 370.738 657.433C370.737 652.671 391.516 641.568 395.17 632.442C398.967 622.96 401.406 544.199 409.273 539.949C417.141 535.699 436.606 511.892 428.368 566.092Z" fill="#FFC999"/>
<path fill-rule="evenodd" clip-rule="evenodd" d="M404.336 653.841C404.336 653.841 407.927 647.335 408.171 638.554C408.171 638.554 401.371 642.681 395.209 647.453C388.094 652.964 386.616 653.026 386.616 653.026C378.857 653.866 378.027 649.367 378.027 649.367C378.027 649.367 373.037 653.709 364.438 657.756C356.738 661.381 382.699 667.491 387.57 661.595C392.44 655.701 397.913 652.769 397.913 652.769L398.007 663.16L400.513 663.576L404.336 653.841Z" fill="#253368"/>
<path fill-rule="evenodd" clip-rule="evenodd" d="M403.49 500.185L381.497 612.154L421.153 620.018C421.153 620.018 435.153 559.895 443.503 508.441C443.503 508.441 449.687 481.913 428.502 477.984C407.317 474.053 403.49 500.185 403.49 500.185Z" fill="#A3B5D6"/>
<path fill-rule="evenodd" clip-rule="evenodd" d="M428.259 476.027C470.041 470.857 500.895 470.416 510.557 472.834C510.557 472.834 530.615 476.847 526.852 492.255C522.26 511.059 500.693 511.373 500.693 511.373L430.837 516.842C425.283 517.335 407.004 519.446 405.95 498.021C404.955 477.813 427.348 476.14 428.259 476.027Z" fill="#A3B5D6"/>
<path fill-rule="evenodd" clip-rule="evenodd" d="M427.671 449.162C427.671 449.162 481.11 430.424 488.668 428.279C507.777 422.855 510.17 446.089 498.049 449.187C490.744 451.055 475.949 453.195 463.064 455.221C444.904 458.075 431.549 459.603 431.549 459.603L427.671 449.162Z" fill="#FFC999"/>
<path fill-rule="evenodd" clip-rule="evenodd" d="M522.885 302.832C522.885 302.832 493.478 308.506 493.744 325.401C493.881 334.091 502.624 343.297 498.586 346.06C482.805 356.856 500.405 360.651 490.447 369.252C475.636 382.046 485.486 402.942 501.47 401.116C518.026 399.224 510.739 422.936 539.139 415.456C555.143 411.241 559.744 407.57 571.021 401.578C582.299 395.585 588.509 365.591 574.044 351.32C565.049 342.283 556.715 343.415 551.436 328.117C546.157 312.819 541.223 303.49 533.6 304.963C530.701 301.05 522.885 302.832 522.885 302.832Z" fill="#253368"/>
<path fill-rule="evenodd" clip-rule="evenodd" d="M506.613 339.871C506.524 339.548 506.07 339.542 505.97 339.862C505.092 342.693 503.013 350.323 506 350.61C509.367 350.934 507.427 342.821 506.613 339.871Z" fill="white"/>
<path fill-rule="evenodd" clip-rule="evenodd" d="M536.002 362.184C534.661 350.572 533.388 341.086 533.388 341.086L515.463 351.182L516.521 365.331C517.338 370.54 522.312 374.039 527.503 373.056C532.992 372.016 536.642 367.722 536.002 362.184Z" fill="#F4B784"/>
<path fill-rule="evenodd" clip-rule="evenodd" d="M524.312 320.697C524.312 320.697 522.324 315.449 518.719 317.994C516.141 319.812 516.828 318.318 516.247 316.904C514.091 311.65 513.37 324.589 505.018 327.299C504.878 333.889 504.516 354.954 518.783 355.774C524.334 356.094 531.443 352.149 533.889 344.641C535.485 339.746 534.157 334.82 532.211 333.837C525.799 330.603 525.919 327.267 524.312 320.697Z" fill="#FFC999"/>
<path d="M511.693 326.324C511.9 326.247 512.129 326.333 512.235 326.519L512.266 326.584L513.573 330.063L513.599 330.172L513.631 330.564C513.636 330.636 513.641 330.716 513.646 330.804C513.77 333.004 513.677 335.849 513.214 339.198L513.145 339.684L513.445 339.706C514.09 339.758 514.692 339.837 515.25 339.937L515.58 340C515.901 340.064 516.19 340.133 516.445 340.202L516.631 340.254C516.814 340.308 516.941 340.35 517.011 340.377C517.241 340.463 517.357 340.72 517.27 340.949C517.183 341.179 516.926 341.295 516.696 341.208L516.547 341.158C516.501 341.143 516.445 341.126 516.381 341.107C516.106 341.027 515.78 340.947 515.404 340.871C514.584 340.707 513.651 340.59 512.612 340.544C512.347 340.533 512.151 340.294 512.192 340.032C512.742 336.487 512.878 333.477 512.773 331.165L512.743 330.627L512.719 330.321L511.432 326.896C511.355 326.69 511.441 326.461 511.627 326.355L511.693 326.324Z" fill="#DD936F"/>
<path d="M521.356 342.352C521.663 342.258 521.987 342.43 522.082 342.735C522.176 343.041 522.004 343.365 521.697 343.459C521.478 343.527 521.254 343.591 521.027 343.651C519.654 344.015 518.193 344.24 516.712 344.354C515.827 344.422 515.04 344.444 514.402 344.437L514.007 344.428C513.686 344.414 513.438 344.143 513.452 343.824C513.466 343.504 513.737 343.256 514.058 343.27L514.197 343.274C514.835 343.289 515.668 343.272 516.623 343.199C518.038 343.09 519.431 342.875 520.729 342.531C520.942 342.475 521.151 342.415 521.356 342.352Z" fill="#C44343"/>
<path d="M505.342 326.971C506.89 325.923 509.056 325.622 511.873 326.476C512.18 326.569 512.353 326.893 512.26 327.199C512.167 327.505 511.842 327.678 511.536 327.585C509.049 326.831 507.247 327.081 505.994 327.93C505.575 328.213 505.324 328.487 505.224 328.646C505.052 328.916 504.693 328.996 504.423 328.825C504.152 328.653 504.071 328.296 504.243 328.025C504.424 327.741 504.781 327.351 505.342 326.971Z" fill="#253368"/>
<path d="M523.657 324.945C524.539 324.92 525.344 324.974 526.057 325.117C526.372 325.18 526.575 325.486 526.512 325.799C526.448 326.113 526.142 326.316 525.828 326.253C525.209 326.128 524.489 326.081 523.689 326.103C522.661 326.131 521.551 326.272 520.433 326.488C520.101 326.553 519.786 326.621 519.492 326.689L519.005 326.808C518.887 326.839 518.799 326.863 518.745 326.878C518.437 326.966 518.115 326.788 518.027 326.481C517.939 326.173 518.117 325.852 518.425 325.764L518.712 325.687L518.926 325.633C519.317 325.537 519.749 325.441 520.212 325.351C521.388 325.123 522.557 324.975 523.657 324.945Z" fill="#253368"/>
<path d="M518.493 346.795C518.739 346.787 518.944 346.98 518.952 347.225C518.959 347.446 518.803 347.634 518.592 347.675L518.52 347.683L516.969 347.73C516.723 347.738 516.518 347.545 516.51 347.3C516.504 347.079 516.659 346.891 516.87 346.85L516.942 346.842L518.493 346.795Z" fill="#DD936F"/>
<path fill-rule="evenodd" clip-rule="evenodd" d="M542.061 337.018C543.152 331.434 537.803 331.865 537.803 331.865C537.803 331.865 537.795 337.41 536.425 342.393C541.789 342.138 542.061 337.018 542.061 337.018Z" fill="#FFC999"/>
<path fill-rule="evenodd" clip-rule="evenodd" d="M539.104 340.969C539.015 340.646 538.561 340.639 538.461 340.959C537.585 343.789 535.505 351.421 538.491 351.707C541.858 352.031 539.918 343.919 539.104 340.969Z" fill="white"/>
<path d="M508.941 331.289C510.184 331.151 511.244 332.325 511.411 333.825C511.446 334.143 511.216 334.43 510.898 334.465C510.579 334.5 510.292 334.271 510.257 333.953C510.154 333.023 509.577 332.384 509.069 332.441C508.56 332.496 508.137 333.245 508.241 334.176C508.277 334.494 508.047 334.78 507.728 334.816C507.41 334.851 507.123 334.622 507.087 334.304C506.919 332.804 507.697 331.425 508.941 331.289Z" fill="#253368"/>
<path d="M521.86 330.075C523.253 329.87 524.524 331.048 524.76 332.642C524.807 332.959 524.587 333.253 524.27 333.3C523.953 333.347 523.658 333.128 523.611 332.812C523.462 331.801 522.726 331.119 522.029 331.221C521.333 331.324 520.826 332.19 520.975 333.2C521.021 333.517 520.802 333.811 520.485 333.858C520.167 333.904 519.873 333.685 519.826 333.368C519.591 331.774 520.466 330.281 521.86 330.075Z" fill="#253368"/>
<path fill-rule="evenodd" clip-rule="evenodd" d="M486.058 440.525C486.058 440.525 487.267 401.489 488.112 393.969C490.153 375.805 500.366 371.756 508.088 379.156C517.396 388.075 506.31 442.646 506.31 442.646C506.31 442.646 504.901 449.92 496.152 450.055C485.812 450.215 486.058 440.525 486.058 440.525Z" fill="#FFC999"/>
<path fill-rule="evenodd" clip-rule="evenodd" d="M486.387 412.497C486.637 408.58 483.629 373.561 500.068 373.427C512.854 373.322 509.83 390.004 506.164 418.006L486.387 412.497Z" fill="#597EF7"/>
<path fill-rule="evenodd" clip-rule="evenodd" d="M546.494 445.366C537.352 447.592 512.056 446.529 509.34 445.366C506.624 444.205 508.106 435.916 508.106 435.916C491.542 393.721 493.106 379.7 494.558 376.563C496.519 372.323 514.089 372.564 514.753 369.253C515.079 367.62 514.964 361.986 514.964 361.986L537.61 360.729C537.61 360.729 538.874 366.934 540.071 368.925C542.399 372.798 556.705 369.795 562.59 377.626C573.107 391.621 558.743 415.673 550.839 433.168C550.839 433.168 551.329 441.392 546.494 445.366Z" fill="#597EF7"/>
<path fill-rule="evenodd" clip-rule="evenodd" d="M513.205 504.283L493.889 484.126C493.889 484.126 498.055 461.65 508.758 451.858L546.934 450.522C546.934 450.522 563.315 461.908 561.534 489.492L532.249 504.441L513.205 504.283Z" fill="#E4EBF7"/>
<path fill-rule="evenodd" clip-rule="evenodd" d="M547.827 450.968L508.759 451.859L509.729 445.891L546.535 444.782L547.827 450.968Z" fill="#E4EBF7"/>
<path d="M522.372 451.872C522.611 451.899 522.782 452.115 522.755 452.353C522.313 456.161 521.978 460.301 521.743 464.721C521.215 474.639 521.206 485.192 521.523 495.239L521.582 497.006C521.634 498.466 521.689 499.798 521.744 500.985L521.848 503.023C521.862 503.263 521.679 503.468 521.439 503.482C521.199 503.496 520.993 503.314 520.979 503.074L520.933 502.222L520.853 500.572C520.812 499.653 520.771 498.652 520.731 497.579L520.712 497.037C520.336 486.443 520.313 475.205 520.874 464.675C521.11 460.238 521.446 456.081 521.89 452.253C521.915 452.039 522.092 451.879 522.302 451.869L522.372 451.872Z" fill="#A3B5D6"/>
<path d="M547.714 450.842C547.954 450.838 548.152 451.029 548.157 451.269C548.16 451.485 548.006 451.667 547.799 451.704L547.729 451.711L509.441 452.378C509.201 452.382 509.002 452.191 508.998 451.951C508.994 451.735 509.149 451.554 509.355 451.516L509.426 451.509L547.714 450.842Z" fill="#A3B5D6"/>
<path fill-rule="evenodd" clip-rule="evenodd" d="M509.626 562.126C509.563 561.846 527.621 630.729 529.328 635.546C533.988 648.691 536.142 649.96 530.354 655.936C528.871 657.465 525.795 657.419 524.081 661.631C519.389 673.155 509.744 682.154 506.514 677.63C503.908 673.245 516.971 651.703 515.344 641.308C513.655 630.51 472.824 556.654 477.744 548.453C482.663 540.253 487.567 507.728 509.626 562.126Z" fill="#FFC999"/>
<path fill-rule="evenodd" clip-rule="evenodd" d="M535.486 656.793C535.486 656.793 535.234 648.845 530.658 640.626C530.658 640.626 526.652 648.132 523.588 655.883C520.05 664.832 518.723 665.696 518.723 665.696C512.039 670.697 508.811 667.005 508.811 667.005C508.811 667.005 506.591 673.721 500.887 682.133C495.779 689.665 523.027 681.151 524.288 673.067C525.55 664.985 528.986 659.304 528.986 659.304L534.756 668.823L537.291 667.84L535.486 656.793Z" fill="#253368"/>
<path fill-rule="evenodd" clip-rule="evenodd" d="M449.327 507.489L482.968 624.925L524.613 613.157C524.613 613.157 508.637 549.036 491.503 495.923C491.503 495.923 484.46 467.628 462.346 474.173C440.231 480.717 449.327 507.489 449.327 507.489Z" fill="#E4EBF7"/>
<path fill-rule="evenodd" clip-rule="evenodd" d="M471.254 472.185C517.597 465.383 532.126 465.469 542.933 467.914C542.933 467.914 565.345 471.873 561.55 489.107C556.916 510.138 532.936 511.029 532.936 511.029L475.153 517.516C468.987 518.206 446.996 519.654 446.996 497.21C446.996 474.7 470.245 472.333 471.254 472.185Z" fill="#E4EBF7"/>
<path fill-rule="evenodd" clip-rule="evenodd" d="M548.615 433.132C548.615 433.132 541.165 399.601 541.451 391.764C542.141 372.836 555.391 370.928 562.155 379.366C567.386 385.891 570.654 435.155 570.654 435.155C570.654 435.155 568.662 443.582 559.945 444.453C549.64 445.479 548.615 433.132 548.615 433.132Z" fill="#FFC999"/>
<path fill-rule="evenodd" clip-rule="evenodd" d="M554.526 372.841C563.692 374.73 567.207 383.758 568.039 409.381L543.847 413.295C543.792 409.371 527.938 370.014 556.454 373.21" fill="#597EF7"/>
<path fill-rule="evenodd" clip-rule="evenodd" d="M489.175 450.395C489.175 450.395 547 427.031 554.665 425.308C570.217 421.811 575.657 440.129 562.632 445.557C545.866 452.545 492.075 462.95 492.075 462.95L489.175 450.395Z" fill="#FFC999"/>
<path d="M547.923 377.663C548.143 377.567 548.4 377.667 548.496 377.887C548.592 378.107 548.492 378.363 548.272 378.459C546.343 379.301 544.779 381.582 543.582 384.864C543.028 386.384 542.59 388.016 542.257 389.648C542.164 390.106 542.084 390.537 542.017 390.934L541.935 391.449L541.89 391.768L544.28 413.248C544.304 413.462 544.167 413.658 543.965 413.714L543.896 413.728C543.681 413.751 543.485 413.615 543.428 413.413L543.415 413.344L541.019 391.812L541.019 391.711L541.074 391.322L541.11 391.091C541.187 390.603 541.284 390.059 541.404 389.475C541.745 387.803 542.194 386.131 542.764 384.567C544.035 381.081 545.719 378.625 547.923 377.663Z" fill="#253368"/>
<path d="M534.915 370.094C535.155 370.086 535.357 370.274 535.365 370.513C535.372 370.729 535.221 370.914 535.015 370.954L534.945 370.963L518.146 371.535C517.905 371.543 517.704 371.355 517.696 371.116C517.688 370.9 517.84 370.715 518.045 370.675L518.116 370.666L534.915 370.094Z" fill="#253368"/>
<path d="M499.578 384.174C499.784 384.106 500.004 384.199 500.101 384.384L500.129 384.449L501.436 388.363C501.46 388.433 501.465 388.507 501.452 388.578L501.433 388.648L498.051 397.968L497.988 398.102C497.961 398.163 497.929 398.24 497.892 398.333C497.766 398.648 497.639 399.019 497.521 399.444C496.106 404.51 497.079 410.743 502.26 417.572C502.405 417.763 502.367 418.035 502.176 418.18C501.984 418.325 501.711 418.287 501.566 418.096C496.214 411.042 495.197 404.529 496.682 399.211C496.809 398.755 496.946 398.354 497.083 398.01L497.18 397.779C497.207 397.717 497.229 397.67 497.243 397.643L497.254 397.623L500.562 388.494L499.303 384.724C499.235 384.519 499.328 384.299 499.513 384.202L499.578 384.174Z" fill="#253368"/>
<path d="M534.25 464.054C534.489 464.025 534.706 464.194 534.735 464.432C534.762 464.647 534.627 464.844 534.426 464.902L534.356 464.917L468.176 473.028C467.938 473.057 467.721 472.888 467.691 472.649C467.665 472.435 467.8 472.238 468.001 472.179L468.07 472.165L534.25 464.054Z" fill="#A3B5D6"/>
<path fill-rule="evenodd" clip-rule="evenodd" d="M466.499 486.405L534.191 475.711L467.106 455.45L411.353 469.865L466.499 486.405Z" fill="#CCD7EE"/>
<path fill-rule="evenodd" clip-rule="evenodd" d="M463.947 481.697L513.109 473.93L465.547 459.123L423.895 469.683L463.947 481.697Z" fill="#4E5C93"/>
<path fill-rule="evenodd" clip-rule="evenodd" d="M534.149 479.198L534.204 475.734L465.119 486.093L466.289 489.792L534.149 479.198Z" fill="#253368"/>
<path d="M456.163 462.206C456.212 462.075 456.345 461.999 456.479 462.019L456.536 462.034L495.225 476.19C495.376 476.245 495.453 476.412 495.398 476.562C495.35 476.693 495.216 476.769 495.082 476.749L495.025 476.734L456.336 462.578C456.185 462.523 456.108 462.356 456.163 462.206Z" fill="#CCD7EE"/>
<path d="M461.295 460.154C461.341 460.021 461.473 459.944 461.607 459.962L461.664 459.975L504.925 474.989C505.076 475.041 505.157 475.206 505.104 475.357C505.058 475.49 504.925 475.567 504.792 475.55L504.734 475.536L461.474 460.522C461.322 460.47 461.242 460.305 461.295 460.154Z" fill="#CCD7EE"/>
<path d="M455.579 465.716C455.629 465.585 455.764 465.512 455.897 465.534L455.954 465.549L488.445 477.951C488.595 478.008 488.669 478.175 488.612 478.325C488.562 478.456 488.427 478.529 488.294 478.507L488.237 478.492L455.747 466.09C455.597 466.033 455.522 465.866 455.579 465.716Z" fill="#CCD7EE"/>
<path d="M446.678 466.603C446.728 466.473 446.863 466.399 446.996 466.421L447.053 466.436L479.543 478.837C479.693 478.894 479.768 479.062 479.711 479.211C479.661 479.342 479.526 479.415 479.393 479.393L479.336 479.378L446.845 466.977C446.696 466.92 446.621 466.753 446.678 466.603Z" fill="#CCD7EE"/>
<path d="M438.456 468C438.506 467.869 438.641 467.795 438.774 467.817L438.831 467.833L471.322 480.233C471.471 480.291 471.546 480.458 471.489 480.607C471.439 480.738 471.304 480.812 471.171 480.79L471.114 480.774L438.624 468.374C438.474 468.317 438.399 468.149 438.456 468Z" fill="#CCD7EE"/>
<path d="M505.069 471.803C505.228 471.783 505.373 471.896 505.393 472.055C505.41 472.194 505.325 472.322 505.197 472.365L505.14 472.378L463.069 477.559C462.91 477.578 462.765 477.465 462.746 477.307C462.729 477.168 462.813 477.04 462.941 476.997L462.998 476.984L505.069 471.803Z" fill="#CCD7EE"/>
<path d="M495.737 468.519C495.896 468.5 496.041 468.613 496.061 468.771C496.078 468.91 495.993 469.038 495.865 469.081L495.808 469.094L453.737 474.275C453.578 474.295 453.433 474.182 453.414 474.023C453.397 473.884 453.481 473.756 453.609 473.713L453.666 473.7L495.737 468.519Z" fill="#CCD7EE"/>
<path d="M484.17 466.329C484.329 466.309 484.474 466.422 484.493 466.581C484.51 466.72 484.426 466.848 484.298 466.891L484.241 466.904L442.17 472.085C442.011 472.104 441.866 471.991 441.846 471.833C441.829 471.694 441.914 471.566 442.042 471.523L442.099 471.51L484.17 466.329Z" fill="#CCD7EE"/>
<path d="M476.345 460.518C476.504 460.498 476.649 460.611 476.669 460.77C476.686 460.909 476.602 461.037 476.474 461.08L476.416 461.093L434.346 466.273C434.187 466.293 434.042 466.18 434.022 466.021C434.005 465.883 434.089 465.754 434.217 465.711L434.275 465.699L476.345 460.518Z" fill="#CCD7EE"/>
<path fill-rule="evenodd" clip-rule="evenodd" d="M466.235 489.794L463.193 490.059L411.001 473.694L389.909 385.641L446.123 396.841L466.235 489.794Z" fill="#253368"/>
<path fill-rule="evenodd" clip-rule="evenodd" d="M463.085 490.063L408.046 472.832C407.544 472.674 407.161 472.265 407.037 471.753L386.67 387.133C386.415 386.069 387.351 385.099 388.425 385.316L441.748 396.014C442.332 396.131 442.792 396.583 442.918 397.165L463.085 490.063Z" fill="#4E5C93"/>
<path fill-rule="evenodd" clip-rule="evenodd" d="M495.525 460.742C493.867 466.923 480.072 464.825 480.072 464.825L473.31 470.319C472.24 471.056 471.78 470.337 471.197 470.47C469.626 470.826 469.25 469.179 469.25 469.179C468.651 469.046 467.872 469.658 467.297 468.222C467.297 468.222 466.179 468.394 465.797 467.078C465.654 466.589 467.813 459.971 469.102 456.097C469.668 454.396 471.142 453.161 472.918 452.894L489.426 450.414C489.426 450.414 497.756 452.426 495.525 460.742Z" fill="#FFC999"/>
<path d="M481.056 460.442C481.282 460.346 481.544 460.451 481.641 460.676C481.728 460.879 481.651 461.111 481.47 461.226L481.406 461.259L476.55 463.328L471.692 470.003C471.564 470.179 471.33 470.234 471.139 470.142L471.07 470.101C470.893 469.973 470.839 469.739 470.931 469.549L470.972 469.48L475.902 462.708C475.933 462.664 475.972 462.627 476.016 462.598L476.087 462.56L481.056 460.442Z" fill="#DD936F"/>
<path d="M477.734 458.405C477.948 458.284 478.22 458.36 478.34 458.574C478.449 458.766 478.398 459.005 478.231 459.139L478.171 459.179L473.711 461.685L469.754 468.594C469.644 468.786 469.413 468.865 469.212 468.79L469.147 468.759C468.955 468.65 468.875 468.419 468.95 468.219L468.981 468.153L473 461.138C473.026 461.092 473.061 461.051 473.102 461.017L473.168 460.972L477.734 458.405Z" fill="#DD936F"/>
<path d="M474.512 456.524C474.704 456.371 474.985 456.404 475.137 456.596C475.273 456.768 475.262 457.007 475.122 457.165L475.064 457.221L472.063 459.59L468.451 467.007C468.354 467.206 468.129 467.3 467.923 467.239L467.856 467.213C467.657 467.116 467.562 466.891 467.624 466.686L467.65 466.619L471.307 459.11C471.327 459.07 471.352 459.033 471.382 459.001L471.431 458.956L474.512 456.524Z" fill="#DD936F"/>
<path fill-rule="evenodd" clip-rule="evenodd" d="M468.675 273.32L461.374 286.643L448.024 293.93L448.023 293.931L461.374 301.218L468.676 314.542L475.978 301.218L489.329 293.931L489.328 293.93L475.978 286.643L468.676 273.32L468.676 273.319L468.675 273.32Z" fill="#125E8A" fill-opacity="0.62"/>
<path fill-rule="evenodd" clip-rule="evenodd" d="M222.92 184.427L213.82 201.033L197.181 210.115L197.18 210.116L213.82 219.199L222.921 235.806L232.022 219.199L248.662 210.116L248.661 210.115L232.022 201.033L222.922 184.427L222.921 184.426L222.92 184.427Z" fill="#125E8A" fill-opacity="0.62"/>
<path d="M217.926 435.33C219.573 436.974 222.244 436.974 223.891 435.33C225.539 433.686 225.539 431.02 223.891 429.376C222.244 427.733 219.574 427.733 217.926 429.377C216.279 431.021 216.279 433.686 217.926 435.33Z" fill="#597EF7"/>
<path d="M253.411 471.313C255.058 472.957 257.729 472.957 259.376 471.313C261.023 469.669 261.023 467.004 259.376 465.36C257.729 463.716 255.058 463.716 253.411 465.36C251.764 467.004 251.764 469.669 253.411 471.313Z" fill="#597EF7"/>
<path d="M229.821 444.374C234.072 440.131 240.964 440.131 245.214 444.374C249.465 448.616 249.465 455.494 245.214 459.736C240.963 463.978 234.072 463.978 229.821 459.736C225.57 455.494 225.57 448.616 229.821 444.374Z" fill="#597EF7"/>
<path d="M269.756 446.896C269.756 449.221 267.868 451.105 265.538 451.105C263.209 451.105 261.32 449.221 261.32 446.896C261.32 444.571 263.209 442.687 265.538 442.687C267.868 442.687 269.756 444.571 269.756 446.896Z" fill="#597EF7"/>
<path d="M357.483 178.435C355.482 176.716 352.464 176.941 350.741 178.938C349.018 180.935 349.244 183.947 351.244 185.666C353.245 187.385 356.263 187.16 357.986 185.164C359.708 183.167 359.483 180.155 357.483 178.435Z" fill="#597EF7"/>
<path d="M314.335 140.756C312.335 139.037 309.317 139.262 307.594 141.258C305.871 143.255 306.097 146.267 308.097 147.987C310.098 149.706 313.116 149.481 314.839 147.484C316.561 145.488 316.336 142.475 314.335 140.756Z" fill="#597EF7"/>
<path d="M343.275 169.216C338.829 174.368 331.04 174.949 325.877 170.512C320.714 166.076 320.133 158.302 324.578 153.15C329.024 147.997 336.813 147.417 341.976 151.853C347.139 156.29 347.72 164.063 343.275 169.216Z" fill="#597EF7"/>
<path d="M297.927 169.728C297.731 167.101 299.706 164.812 302.338 164.616C304.971 164.419 307.265 166.39 307.461 169.018C307.658 171.645 305.683 173.934 303.05 174.131C300.417 174.327 298.124 172.356 297.927 169.728Z" fill="#597EF7"/>
<path fill-rule="evenodd" clip-rule="evenodd" d="M330.549 425.277C326.868 425.277 323.883 422.298 323.883 418.624C323.883 414.95 326.868 411.972 330.549 411.972C334.231 411.972 337.215 414.95 337.215 418.624C337.215 422.298 334.231 425.277 330.549 425.277ZM350.554 421.634V415.615L345.801 414.41C345.453 413.15 344.952 411.954 344.32 410.842L346.827 406.635L342.563 402.379L338.347 404.881C337.233 404.25 336.034 403.751 334.772 403.403L333.564 398.659H327.534L326.326 403.403C325.064 403.751 323.866 404.25 322.751 404.881L318.535 402.379L314.271 406.635L316.779 410.842C316.146 411.954 315.645 413.151 315.297 414.41L310.544 415.615V421.634L315.297 422.839C315.645 424.098 316.146 425.295 316.779 426.407L314.271 430.614L318.535 434.87L322.751 432.367C323.866 432.998 325.064 433.498 326.326 433.846L327.534 438.59H333.564L334.772 433.846C336.034 433.498 337.233 432.998 338.347 432.367L342.563 434.87L346.827 430.614L344.32 426.407C344.952 425.295 345.453 424.098 345.801 422.839L350.554 421.634Z" fill="#597EF7"/>
<path fill-rule="evenodd" clip-rule="evenodd" d="M360.507 450.08C357.086 450.08 354.314 447.313 354.314 443.899C354.314 440.486 357.086 437.719 360.507 437.719C363.927 437.719 366.699 440.486 366.699 443.899C366.699 447.313 363.927 450.08 360.507 450.08ZM379.092 446.695V441.103L374.677 439.984C374.353 438.814 373.888 437.702 373.3 436.669L375.63 432.76L371.668 428.806L367.751 431.131C366.716 430.545 365.602 430.081 364.43 429.757L363.308 425.351H357.705L356.583 429.757C355.411 430.081 354.297 430.545 353.262 431.131L349.345 428.806L345.384 432.76L347.713 436.669C347.126 437.702 346.66 438.814 346.337 439.984L341.921 441.103V446.695L346.337 447.815C346.66 448.985 347.126 450.096 347.713 451.129L345.384 455.038L349.345 458.992L353.262 456.667C354.297 457.253 355.411 457.718 356.583 458.041L357.705 462.448H363.308L364.43 458.041C365.602 457.718 366.716 457.253 367.751 456.667L371.668 458.992L375.63 455.038L373.3 451.129C373.888 450.096 374.353 448.985 374.677 447.815L379.092 446.695Z" fill="#253368"/>
<path fill-rule="evenodd" clip-rule="evenodd" d="M362.512 416.825L355.166 415.41L362.937 406.616C362.244 406.505 361.534 406.447 360.81 406.447C353.436 406.447 347.458 412.412 347.458 419.771C347.458 427.131 353.436 433.096 360.81 433.096C368.184 433.096 374.161 427.131 374.161 419.771C374.161 419.253 374.131 418.743 374.073 418.24L362.512 416.825Z" fill="#A3B5D6"/>
<path fill-rule="evenodd" clip-rule="evenodd" d="M362.511 416.825L348.696 414.164C347.902 415.868 347.458 417.768 347.458 419.771C347.458 421.575 347.818 423.295 348.469 424.864L318.839 452.296C317.033 457.974 322.483 463.281 328.127 461.339L328.521 461.204L355.805 432.127C357.35 432.751 359.039 433.096 360.809 433.096C368.183 433.096 374.161 427.13 374.161 419.771C374.161 415.774 372.397 412.189 369.604 409.747L362.511 416.825Z" fill="#CCD7EE"/>
<path fill-rule="evenodd" clip-rule="evenodd" d="M348.443 434.905L345.538 432.006L348.443 429.106L351.348 432.006L348.443 434.905Z" fill="#A3B5D6"/>
<g clip-path="url(#clip0)">
<path d="M149.876 310.286L157.843 306.057L184.208 355.526C184.812 356.659 184.381 358.066 183.245 358.669L179.39 360.715C178.255 361.318 176.845 360.888 176.241 359.755L149.876 310.286Z" fill="#FAAD14"/>
<path d="M151.27 299.352L148.201 300.982L149.879 310.291L157.845 306.063L151.27 299.352Z" fill="#FFF1B8"/>
<path d="M147.792 296.955L148.3 300.936L151.212 299.39L148.11 296.782C148.048 296.73 147.962 296.722 147.891 296.76C147.821 296.798 147.781 296.876 147.792 296.955Z" fill="#253368"/>
<path d="M210.766 336.289L215.122 333.977L217.192 337.861C217.832 339.062 217.375 340.553 216.172 341.191C214.969 341.83 213.475 341.374 212.835 340.174L210.765 336.29L210.766 336.289Z" fill="#253368"/>
<path d="M183.526 278.74C183.363 278.434 182.983 278.318 182.676 278.48C182.37 278.643 182.254 279.023 182.417 279.328L183.159 280.722C183.322 281.028 183.703 281.144 184.009 280.981C184.315 280.819 184.432 280.439 184.269 280.133L183.526 278.74Z" fill="#4E5C93"/>
<path d="M184.036 288.597L190.435 285.2L215.96 333.093C216.564 334.226 216.133 335.633 214.997 336.236L212.71 337.45C211.575 338.053 210.164 337.623 209.56 336.49L184.036 288.597Z" fill="#597EF7"/>
<path d="M184.618 279.998L190.439 285.198L184.035 288.597L182.867 280.934C182.842 280.771 182.923 280.61 183.069 280.533L184.173 279.947C184.317 279.868 184.495 279.889 184.618 279.998Z" fill="#E4EBF7"/>
<path d="M214.736 330.797L208.34 334.192L208.955 335.347L215.351 331.952L214.736 330.797Z" fill="white"/>
<path d="M212.435 321.955L210.555 322.953L214.635 330.608L216.515 329.61L212.435 321.955Z" fill="#253368"/>
<path d="M209.192 314.014C208.965 313.589 208.437 313.428 208.011 313.654C207.585 313.88 207.423 314.408 207.65 314.833L217.765 333.813C217.992 334.238 218.52 334.399 218.946 334.173C219.372 333.947 219.534 333.419 219.307 332.994L209.192 314.014Z" fill="#A3B5D6"/>
<path d="M168.874 292.08L166.283 293.456C165.932 293.641 165.498 293.509 165.311 293.159L163.564 289.882C163.404 289.58 163.479 289.207 163.744 288.991L166.061 287.103C166.227 286.967 166.446 286.912 166.657 286.954C166.868 286.996 167.049 287.13 167.15 287.32L169.171 291.111C169.357 291.46 169.224 291.894 168.874 292.08Z" fill="#FF7946"/>
<path d="M176.562 297.573L166.858 302.724L188.719 343.743L198.423 338.591L176.562 297.573Z" fill="#FF7946"/>
<path d="M185.717 338.109L195.421 332.958L202.369 345.995C202.973 347.128 202.542 348.536 201.407 349.138L195.814 352.107C194.679 352.71 193.269 352.28 192.665 351.146L185.717 338.109Z" fill="black"/>
<path d="M176.562 297.573L166.858 302.724L168.772 306.316L178.476 301.165L176.562 297.573Z" fill="#253368"/>
<path d="M175.393 295.38L176.562 297.573L166.858 302.724L165.681 300.515L164.816 292.588L168.982 290.376L175.393 295.38Z" fill="#E4EBF7"/>
<path d="M175.385 295.403L165.681 300.554L166.858 302.763L176.562 297.612L175.385 295.403Z" fill="#F5F5F5"/>
<path d="M197.301 336.526L187.597 341.677L188.775 343.886L198.479 338.735L197.301 336.526Z" fill="#F5F5F5"/>
<path d="M181.173 311.586C181.816 312.792 181.518 313.508 180.271 313.719C179.025 313.93 178.052 313.417 177.388 312.172L176.85 311.162C176.768 311.008 176.598 310.923 176.426 310.949L174.641 311.22C174.468 311.246 174.298 311.16 174.216 311.006L174.175 310.929C174.112 310.812 174.111 310.671 174.171 310.551C174.231 310.432 174.346 310.35 174.478 310.33L179.778 309.552C179.95 309.527 180.12 309.613 180.201 309.766L181.173 311.586ZM178.149 310.688C178.017 310.708 177.903 310.79 177.843 310.909C177.783 311.028 177.785 311.169 177.848 311.286L178.221 311.986C178.419 312.357 178.648 312.613 178.894 312.759C179.14 312.905 179.458 312.945 179.826 312.884C180.195 312.823 180.401 312.688 180.466 312.495C180.531 312.301 180.472 312.018 180.281 311.659L179.78 310.718C179.698 310.564 179.528 310.479 179.355 310.505L178.149 310.688Z" fill="white"/>
<path d="M183.895 317.821C183.718 317.856 183.539 317.771 183.454 317.612L182.245 315.343C182.16 315.188 181.985 315.104 181.811 315.135L180.978 315.284C180.849 315.307 180.739 315.39 180.681 315.507C180.623 315.625 180.625 315.762 180.686 315.878L181.577 317.55C181.638 317.664 181.641 317.801 181.585 317.919C181.529 318.036 181.421 318.12 181.293 318.146C181.115 318.18 180.936 318.094 180.851 317.935L179.712 315.797C179.628 315.642 179.453 315.558 179.279 315.589L178.288 315.756C178.16 315.779 178.049 315.862 177.992 315.979C177.934 316.096 177.936 316.234 177.996 316.35L179.065 318.356C179.127 318.471 179.13 318.608 179.074 318.725C179.018 318.843 178.909 318.926 178.781 318.951C178.604 318.986 178.425 318.9 178.34 318.741L176.696 315.657C176.635 315.541 176.633 315.403 176.691 315.285C176.749 315.167 176.86 315.085 176.989 315.062L182.218 314.151C182.393 314.121 182.567 314.205 182.651 314.36L184.175 317.221C184.238 317.336 184.243 317.473 184.188 317.592C184.133 317.711 184.024 317.796 183.895 317.821Z" fill="white"/>
<path d="M185.22 319.178C185.299 319.328 185.278 319.511 185.167 319.639L182.381 322.849L182.396 322.877L186.381 321.997C186.561 321.957 186.746 322.042 186.833 322.205L186.875 322.283C186.935 322.396 186.939 322.531 186.885 322.647C186.832 322.763 186.727 322.848 186.603 322.876L181.501 324.028C181.321 324.069 181.135 323.984 181.048 323.821L180.889 323.522C180.807 323.372 180.826 323.187 180.938 323.057L183.756 319.783L183.741 319.755L179.659 320.596C179.482 320.631 179.302 320.546 179.217 320.386L179.17 320.296C179.109 320.182 179.106 320.045 179.161 319.928C179.217 319.811 179.324 319.727 179.451 319.701L184.615 318.666C184.792 318.632 184.972 318.717 185.057 318.877L185.22 319.178Z" fill="white"/>
<path d="M178.8 317.387L170.591 321.745L171.093 322.687L174.623 320.813L175.945 323.294C176.221 323.811 176.337 324.251 176.277 324.636C176.229 325.045 175.965 325.406 175.506 325.709L174.469 326.392C174.027 326.67 173.732 326.974 173.554 327.305L174.099 328.327C174.269 327.927 174.592 327.564 175.074 327.25L176.271 326.452C177.05 325.921 177.312 325.222 177.068 324.349L177.091 324.337C177.457 324.747 177.883 324.992 178.398 325.073C178.889 325.136 179.359 325.049 179.818 324.805C180.577 324.402 181.018 323.844 181.151 323.154C181.28 322.482 181.121 321.741 180.686 320.925L178.8 317.387ZM178.486 318.762L179.809 321.243C180.145 321.875 180.27 322.413 180.176 322.846C180.082 323.25 179.782 323.601 179.276 323.87C178.793 324.126 178.345 324.172 177.928 324.025C177.48 323.85 177.08 323.458 176.762 322.861L175.439 320.38L178.486 318.762ZM182.938 325.15L174.728 329.508L177.93 335.516L178.747 335.083L176.047 330.017L179.059 328.417L181.508 333.013L182.325 332.579L179.876 327.984L182.624 326.525L185.22 331.396L186.036 330.963L182.938 325.15ZM186.836 332.465L178.627 336.822L180.145 339.671C180.831 340.958 181.737 341.745 182.851 342.037C183.913 342.314 185.091 342.116 186.356 341.444C187.644 340.761 188.479 339.92 188.844 338.944C189.248 337.875 189.095 336.704 188.404 335.405L186.836 332.465ZM186.522 333.84L187.508 335.689C188.083 336.769 188.223 337.697 187.929 338.501C187.652 339.253 186.964 339.928 185.86 340.514C184.791 341.081 183.834 341.251 183.012 341.038C182.161 340.797 181.445 340.146 180.876 339.077L179.945 337.331L186.522 333.84Z" fill="#F5222D"/>
<path d="M184.459 327.041C184.334 326.807 184.043 326.718 183.808 326.842C183.574 326.967 183.484 327.258 183.609 327.492L185.413 330.876C185.538 331.11 185.829 331.199 186.064 331.074C186.298 330.95 186.387 330.659 186.263 330.425L184.459 327.041Z" fill="#F5222D"/>
<path d="M155.544 307.313L152.29 309.041L179.733 360.534L182.988 358.806L155.544 307.313Z" fill="#FAAD14"/>
</g>
<path fill-rule="evenodd" clip-rule="evenodd" d="M417.058 257.155H239.439V244.93C239.439 242.279 241.602 240.128 244.27 240.128H412.227C414.896 240.128 417.058 242.279 417.058 244.93V257.155Z" fill="#253368"/>
<path fill-rule="evenodd" clip-rule="evenodd" d="M251.894 248.123C251.894 249.787 250.545 251.136 248.881 251.136C247.217 251.136 245.868 249.787 245.868 248.123C245.868 246.458 247.217 245.109 248.881 245.109C250.545 245.109 251.894 246.458 251.894 248.123Z" fill="#FF7946"/>
<path fill-rule="evenodd" clip-rule="evenodd" d="M263.144 248.123C263.144 249.787 261.795 251.136 260.131 251.136C258.467 251.136 257.118 249.787 257.118 248.123C257.118 246.458 258.467 245.109 260.131 245.109C261.795 245.109 263.144 246.458 263.144 248.123Z" fill="#FAAD14"/>
<path fill-rule="evenodd" clip-rule="evenodd" d="M274.394 248.123C274.394 249.787 273.045 251.136 271.381 251.136C269.717 251.136 268.368 249.787 268.368 248.123C268.368 246.458 269.717 245.109 271.381 245.109C273.045 245.109 274.394 246.458 274.394 248.123Z" fill="#7CB305"/>
<path fill-rule="evenodd" clip-rule="evenodd" d="M244.819 374.627C241.848 374.627 239.439 372.48 239.439 369.831V255.649H417.068V369.831C417.068 372.48 414.659 374.627 411.688 374.627H244.819Z" fill="#E4EBF7"/>
<path d="M403.01 265.475H300.155C298.971 265.475 298.011 266.433 298.011 267.614V363.376C298.011 364.558 298.971 365.516 300.155 365.516H403.01C404.194 365.516 405.154 364.558 405.154 363.376V267.614C405.154 266.433 404.194 265.475 403.01 265.475Z" fill="white"/>
<path d="M288.01 265.296H253.012C251.828 265.296 250.868 266.254 250.868 267.435V363.198C250.868 364.379 251.828 365.337 253.012 365.337H288.01C289.194 365.337 290.154 364.379 290.154 363.198V267.435C290.154 266.254 289.194 265.296 288.01 265.296Z" fill="white"/>
<path d="M280.297 304.598H260.657C259.984 304.598 259.439 305.142 259.439 305.813V308.819C259.439 309.49 259.984 310.034 260.657 310.034H280.297C280.969 310.034 281.514 309.49 281.514 308.819V305.813C281.514 305.142 280.969 304.598 280.297 304.598Z" fill="#ADC6FF"/>
<path d="M280.315 315.138H260.638C259.976 315.138 259.439 315.674 259.439 316.335V319.213C259.439 319.874 259.976 320.41 260.638 320.41H280.315C280.977 320.41 281.514 319.874 281.514 319.213V316.335C281.514 315.674 280.977 315.138 280.315 315.138Z" fill="#FF7946"/>
<path d="M280.315 325.5H260.638C259.976 325.5 259.439 326.035 259.439 326.696V329.574C259.439 330.236 259.976 330.771 260.638 330.771H280.315C280.977 330.771 281.514 330.236 281.514 329.574V326.696C281.514 326.035 280.977 325.5 280.315 325.5Z" fill="#FAAD14"/>
<path d="M280.315 335.86H260.638C259.976 335.86 259.439 336.396 259.439 337.057V339.935C259.439 340.596 259.976 341.132 260.638 341.132H280.315C280.977 341.132 281.514 340.596 281.514 339.935V337.057C281.514 336.396 280.977 335.86 280.315 335.86Z" fill="#597EF7"/>
<path d="M371.582 311.565H310.154C309.365 311.565 308.725 312.204 308.725 312.991V312.997C308.725 313.785 309.365 314.423 310.154 314.423H371.582C372.371 314.423 373.011 313.785 373.011 312.997V312.991C373.011 312.204 372.371 311.565 371.582 311.565Z" fill="#ADC6FF"/>
<path d="M371.582 326.214H310.154C309.365 326.214 308.725 326.852 308.725 327.64V327.646C308.725 328.434 309.365 329.072 310.154 329.072H371.582C372.371 329.072 373.011 328.434 373.011 327.646V327.64C373.011 326.852 372.371 326.214 371.582 326.214Z" fill="#ADC6FF"/>
<path d="M393.01 318.71H310.154C309.365 318.71 308.725 319.349 308.725 320.137V320.142C308.725 320.93 309.365 321.569 310.154 321.569H393.01C393.8 321.569 394.44 320.93 394.44 320.142V320.137C394.44 319.349 393.8 318.71 393.01 318.71Z" fill="#ADC6FF"/>
<path d="M343.723 335.503H313.013C310.645 335.503 308.725 337.419 308.725 339.783V351.59C308.725 353.953 310.645 355.869 313.013 355.869H343.723C346.091 355.869 348.011 353.953 348.011 351.59V339.783C348.011 337.419 346.091 335.503 343.723 335.503Z" fill="#FAAD14"/>
<path d="M391.581 275.121H311.584C310.005 275.121 308.725 276.398 308.725 277.974V304.424C308.725 306 310.005 307.277 311.584 307.277H391.581C393.16 307.277 394.44 306 394.44 304.424V277.974C394.44 276.398 393.16 275.121 391.581 275.121Z" fill="#597EF7"/>
<path d="M390.152 335.503H359.442C357.073 335.503 355.154 337.419 355.154 339.783V351.59C355.154 353.953 357.073 355.869 359.442 355.869H390.152C392.52 355.869 394.44 353.953 394.44 351.59V339.783C394.44 337.419 392.52 335.503 390.152 335.503Z" fill="#FF7946"/>
<path d="M270.476 293.634C275.922 293.634 280.337 289.178 280.337 283.681C280.337 278.184 275.922 273.728 270.476 273.728C265.03 273.728 260.615 278.184 260.615 283.681C260.615 289.178 265.03 293.634 270.476 293.634Z" fill="#FAAD14"/>
<path d="M270.476 293.634C273.318 293.636 276.015 292.368 277.844 290.172C276.403 287.411 273.566 285.683 270.474 285.683C267.383 285.683 264.545 287.411 263.104 290.172C264.934 292.369 267.632 293.636 270.476 293.634Z" fill="#253368"/>
<path d="M270.528 286.079C272.577 286.079 274.237 284.403 274.237 282.336C274.237 280.269 272.577 278.593 270.528 278.593C268.48 278.593 266.82 280.269 266.82 282.336C266.82 284.403 268.48 286.079 270.528 286.079Z" fill="#253368"/>
<path fill-rule="evenodd" clip-rule="evenodd" d="M408.301 180.822C385.036 180.822 366.177 199.644 366.177 222.862C366.177 246.08 385.036 264.902 408.301 264.902C431.566 264.902 450.425 246.08 450.425 222.862C450.425 199.644 431.566 180.822 408.301 180.822Z" fill="#FF9D00"/>
<path fill-rule="evenodd" clip-rule="evenodd" d="M401.513 237.142L398.854 234.488L424.625 208.675C425.506 207.795 426.935 207.795 427.816 208.675L428.88 209.736C429.762 210.616 429.762 212.042 428.88 212.922L404.705 237.142C403.824 238.022 402.395 238.022 401.513 237.142Z" fill="white"/>
<path fill-rule="evenodd" clip-rule="evenodd" d="M407.36 234.488L404.7 237.143C403.819 238.022 402.39 238.022 401.509 237.143L390.919 226.574C390.037 225.694 390.037 224.268 390.919 223.389L391.983 222.327C392.864 221.448 394.293 221.448 395.174 222.327L407.36 234.488Z" fill="white"/>
<defs>
<clipPath id="clip0">
<rect width="82.762" height="82.6695" fill="white" transform="matrix(0.883271 -0.468863 0.470327 0.882492 126.941 301.449)"/>
</clipPath>
</defs>
</svg>
