<svg width="642" height="1073" viewBox="0 0 642 1073" fill="none" xmlns="http://www.w3.org/2000/svg">
<path d="M431.825 336.487C432.778 336.714 433.733 336.125 433.96 335.172C434.186 334.219 433.597 333.264 432.645 333.037C431.692 332.811 430.736 333.4 430.51 334.352C430.283 335.305 430.872 336.261 431.825 336.487Z" fill="#023047" fill-opacity="0.78"/>
<path fill-rule="evenodd" clip-rule="evenodd" d="M439.228 330.529L436.577 341.689L429.443 346.115L425.062 338.953L427.714 327.793L434.848 323.367L439.228 330.529ZM438.441 330.654L434.606 324.384L428.36 328.259L425.849 338.828L429.684 345.098L435.93 341.223L438.441 330.654Z" fill="#023047" fill-opacity="0.78"/>
<path fill-rule="evenodd" clip-rule="evenodd" d="M419.107 325.966L416.809 335.638C415.129 335.427 413.524 336.512 413.124 338.197C412.695 340.004 413.811 341.816 415.618 342.245C416.521 342.46 417.427 342.288 418.159 341.836L425.57 348.843C425.437 349.092 425.334 349.362 425.266 349.65C424.836 351.456 425.953 353.268 427.759 353.697C429.566 354.127 431.378 353.01 431.807 351.204C431.875 350.916 431.905 350.629 431.898 350.346L441.669 347.422C442.12 348.155 442.851 348.716 443.755 348.931C445.561 349.36 447.373 348.243 447.803 346.437C448.203 344.752 447.258 343.061 445.663 342.494L447.961 332.822C449.641 333.033 451.245 331.948 451.646 330.263C452.075 328.456 450.959 326.644 449.152 326.215C447.925 325.923 446.695 326.345 445.898 327.212L438.822 320.522C439.083 320.169 439.279 319.758 439.387 319.303C439.816 317.497 438.7 315.684 436.893 315.255C435.087 314.826 433.275 315.942 432.846 317.749C432.737 318.204 432.727 318.659 432.802 319.092L423.473 321.884C423.151 320.751 422.242 319.821 421.015 319.529C419.209 319.1 417.396 320.216 416.967 322.023C416.567 323.708 417.512 325.398 419.107 325.966ZM438.322 321.063C437.532 321.749 436.434 322.057 435.339 321.797C434.244 321.536 433.402 320.768 433.005 319.8L423.596 322.616C423.613 322.932 423.585 323.254 423.509 323.577C423.108 325.262 421.504 326.347 419.824 326.136L417.526 335.808C419.121 336.376 420.066 338.066 419.665 339.751C419.513 340.393 419.186 340.948 418.747 341.377L425.992 348.228C426.787 347.311 428.052 346.856 429.314 347.156C430.576 347.456 431.501 348.431 431.797 349.607L441.351 346.748C441.151 346.167 441.109 345.525 441.261 344.883C441.662 343.198 443.266 342.113 444.946 342.323L447.244 332.652C445.649 332.084 444.704 330.394 445.104 328.708C445.181 328.386 445.302 328.085 445.459 327.811L438.322 321.063Z" fill="#023047" fill-opacity="0.78"/>
<path d="M169.708 575.644L382.856 278.794L596.004 575.644H169.708Z" fill="#FF9D00"/>
<path fill-rule="evenodd" clip-rule="evenodd" d="M252.022 588.176C252.884 588.433 253.538 588.788 253.982 589.24C254.425 589.693 254.749 590.41 254.953 591.392L256.314 597.941C256.44 598.547 256.653 598.944 256.955 599.132C257.256 599.32 257.721 599.349 258.35 599.218L259.199 599.042C259.492 598.981 259.75 599.009 259.971 599.127C260.192 599.244 260.348 599.522 260.439 599.961C260.509 600.295 260.464 600.582 260.307 600.822C260.149 601.062 259.933 601.21 259.661 601.267L257.775 601.658C256.748 601.872 255.943 601.815 255.362 601.49C254.78 601.163 254.377 600.457 254.151 599.371L252.771 592.728C252.35 590.702 251.378 589.759 249.856 589.901C249.511 589.929 249.205 589.873 248.935 589.733C248.665 589.593 248.494 589.345 248.42 588.99C248.346 588.635 248.415 588.332 248.625 588.081C248.835 587.83 249.114 587.647 249.462 587.531C250.236 587.261 250.717 586.786 250.903 586.104C251.09 585.423 251.053 584.455 250.792 583.201L249.575 577.341C249.366 576.338 249.499 575.505 249.973 574.839C250.447 574.175 251.124 573.75 252.005 573.567L253.828 573.189C254.1 573.132 254.363 573.159 254.616 573.27C254.868 573.381 255.04 573.656 255.131 574.095C255.256 574.483 255.23 574.783 255.056 574.993C254.881 575.204 254.625 575.344 254.29 575.414L253.379 575.603C252.771 575.729 252.372 575.943 252.184 576.244C251.994 576.544 251.976 577.06 252.128 577.792L253.443 584.122C253.769 585.688 253.295 587.04 252.022 588.176Z" fill="#023047" fill-opacity="0.78"/>
<path fill-rule="evenodd" clip-rule="evenodd" d="M265.37 581.644L264.055 575.314C263.903 574.583 263.681 574.116 263.388 573.916C263.095 573.715 262.644 573.678 262.036 573.804L261.125 573.994C260.79 574.063 260.5 574.037 260.255 573.913C260.011 573.789 259.869 573.525 259.828 573.119C259.737 572.68 259.785 572.36 259.972 572.157C260.16 571.955 260.39 571.825 260.662 571.769L262.486 571.39C263.366 571.207 264.156 571.327 264.856 571.748C265.556 572.169 266.009 572.881 266.218 573.884L267.435 579.744C267.696 580.997 268.047 581.9 268.489 582.45C268.932 583.002 269.562 583.247 270.38 583.185C270.746 583.153 271.074 583.21 271.367 583.356C271.66 583.503 271.843 583.753 271.917 584.108C271.99 584.464 271.932 584.759 271.74 584.995C271.549 585.231 271.29 585.405 270.963 585.516C269.51 585.993 268.993 587.244 269.414 589.27L270.794 595.914C271.02 597 270.931 597.808 270.528 598.339C270.124 598.869 269.409 599.241 268.382 599.455L266.496 599.847C266.223 599.903 265.967 599.853 265.726 599.696C265.486 599.539 265.331 599.293 265.262 598.959C265.17 598.52 265.203 598.203 265.359 598.007C265.515 597.811 265.74 597.683 266.033 597.622L266.882 597.446C267.511 597.315 267.926 597.103 268.128 596.811C268.329 596.518 268.367 596.069 268.241 595.463L266.881 588.914C266.677 587.932 266.688 587.145 266.915 586.553C267.142 585.961 267.6 585.376 268.288 584.797C266.668 584.262 265.696 583.211 265.37 581.644Z" fill="#023047" fill-opacity="0.78"/>
<path fill-rule="evenodd" clip-rule="evenodd" d="M89.8523 489.501L102.855 468.368C102.422 468.03 102.138 467.508 102.125 466.916C102.102 465.871 102.931 465.006 103.975 464.983C105.02 464.96 105.885 465.789 105.908 466.833C105.923 467.536 105.554 468.157 104.992 468.496L115.615 491.43C115.829 491.34 116.064 491.287 116.31 491.282C117.355 491.259 118.22 492.088 118.243 493.132C118.266 494.177 117.437 495.042 116.393 495.065C115.386 495.087 114.546 494.318 114.466 493.328L90.9021 491.524C90.7544 492.402 90.0003 493.079 89.0776 493.099C88.0329 493.122 87.1676 492.294 87.1449 491.249C87.1221 490.205 87.9505 489.339 88.9952 489.316C89.302 489.31 89.5933 489.377 89.8523 489.501ZM104.058 468.766C104.133 468.764 104.206 468.758 104.279 468.748L107.538 482.555C106.795 482.824 106.272 483.543 106.29 484.376C106.294 484.557 106.323 484.732 106.375 484.897L90.7448 490.394C90.612 490.116 90.4134 489.876 90.1696 489.693L103.169 468.566C103.436 468.7 103.738 468.773 104.058 468.766ZM106.52 485.24L90.8707 490.743C90.904 490.875 90.9235 491.012 90.9275 491.154L114.472 492.956C114.512 492.605 114.649 492.282 114.856 492.015L109.246 485.899C108.954 486.098 108.603 486.218 108.223 486.226C107.491 486.242 106.847 485.841 106.52 485.24ZM109.531 485.661L115.111 491.745C115.168 491.696 115.227 491.65 115.289 491.608L104.657 468.655C104.651 468.657 104.645 468.659 104.639 468.662L107.898 482.464C107.977 482.452 108.058 482.445 108.14 482.443C109.185 482.42 110.05 483.249 110.073 484.294C110.085 484.825 109.876 485.309 109.531 485.661Z" fill="#023047" fill-opacity="0.78"/>
<path fill-rule="evenodd" clip-rule="evenodd" d="M283.155 322.634C268.836 322.634 257.228 334.241 257.228 348.56V348.626C257.228 362.945 268.836 374.552 283.155 374.552H321.388C322.816 374.552 324.217 374.437 325.583 374.214L332.99 381.369C333.192 381.564 333.461 381.673 333.741 381.673C334.337 381.673 334.821 381.189 334.821 380.592L334.821 370.805C342.31 366.259 347.314 358.027 347.314 348.626V348.56C347.314 334.241 335.706 322.634 321.388 322.634H283.155Z" fill="#253368"/>
<path d="M289.443 260.519H234.852C214.397 260.519 197.814 277.101 197.814 297.556C197.814 318.011 214.397 334.594 234.852 334.594H289.443C309.898 334.594 326.48 318.011 326.48 297.556C326.48 277.101 309.898 260.519 289.443 260.519Z" fill="#597EF7"/>
<path fill-rule="evenodd" clip-rule="evenodd" d="M215.658 323.82V343.209C215.658 344.061 216.349 344.752 217.201 344.752C217.601 344.752 217.985 344.597 218.273 344.32L232.521 330.572L215.658 323.82Z" fill="#597EF7"/>
<path d="M237.359 302.186C240.662 302.186 243.339 299.509 243.339 296.206C243.339 292.903 240.662 290.226 237.359 290.226C234.057 290.226 231.38 292.903 231.38 296.206C231.38 299.509 234.057 302.186 237.359 302.186Z" fill="white"/>
<path d="M261.858 302.186C265.161 302.186 267.838 299.509 267.838 296.206C267.838 292.903 265.161 290.226 261.858 290.226C258.556 290.226 255.878 292.903 255.878 296.206C255.878 299.509 258.556 302.186 261.858 302.186Z" fill="white"/>
<path d="M286.936 302.186C290.238 302.186 292.916 299.509 292.916 296.206C292.916 292.903 290.238 290.226 286.936 290.226C283.633 290.226 280.956 292.903 280.956 296.206C280.956 299.509 283.633 302.186 286.936 302.186Z" fill="white"/>
<path fill-rule="evenodd" clip-rule="evenodd" d="M209.539 507.915C209.539 507.915 192.488 507.572 191.734 521.813C190.959 536.499 207.301 537.585 207.301 537.585C207.301 537.585 218.82 538.066 233.014 538.721C241.681 539.12 251.257 539.37 258.237 538.555C265.794 537.672 266.758 533.537 267.134 526.417C267.582 517.961 266.905 514.421 259.478 512.96C252.397 511.565 242.692 510.94 235.195 510.114C220.9 508.54 209.539 507.915 209.539 507.915Z" fill="#125E8A"/>
<path fill-rule="evenodd" clip-rule="evenodd" d="M193.05 662.645C200.31 633.515 207.518 603.328 212.704 579.184C212.704 579.184 213.516 560.993 196.912 560.195C180.637 559.414 176 579.103 176 579.103L164.517 658.125C164.517 658.125 162.79 671.017 177.094 673.026C190.141 674.859 193.05 662.645 193.05 662.645Z" fill="#253368"/>
<path fill-rule="evenodd" clip-rule="evenodd" d="M146.449 721.493C142.049 717.804 135.361 719.177 132.784 724.308C129.819 730.21 125.772 738.164 121.299 746.67C116.695 755.425 112.898 762.69 113.019 763.942C113.557 769.461 118.205 773.947 121.646 781.005C124.366 786.59 124.314 788.509 129.402 792.668C136.611 798.56 134.73 793.108 131.701 777.458C129.003 763.514 131.998 759.303 131.998 759.303L148.295 732.995C150.624 729.235 149.837 724.336 146.449 721.493Z" fill="#C99382"/>
<path fill-rule="evenodd" clip-rule="evenodd" d="M132.288 774.467C134.566 784.087 138.43 792.821 136.594 795.794C134.759 798.769 130.832 800.216 122.779 791.21C117.268 785.048 120.026 784.65 115.821 776.837C113.72 772.935 112.407 772.513 110.751 768.405C110.24 765.248 116.893 754.915 116.893 754.915L121.481 773.698C121.481 773.698 121.699 766.236 124.833 766.306C127.968 766.376 130.689 766.744 131.562 768.57C132.436 770.394 132.288 774.467 132.288 774.467Z" fill="#7D4556"/>
<path fill-rule="evenodd" clip-rule="evenodd" d="M192.316 665.162C164.886 709.309 135.937 755.302 135.937 755.302L120.523 744.624L166.453 651.523C166.453 651.523 175.1 638.5 187.667 645.621C199.007 652.045 192.316 665.162 192.316 665.162Z" fill="#253368"/>
<path fill-rule="evenodd" clip-rule="evenodd" d="M237.083 508.627C237.083 508.627 241.19 524.729 226.376 528.243C211.271 531.827 207.751 515.372 207.751 515.372C207.751 515.372 204.713 504.184 201.473 490.525C198.943 479.852 196.958 471.672 195.988 464.688C194.941 457.153 199.22 449.838 206.159 448.191C216.704 445.69 222.574 451.053 224.654 458.331C226.677 465.409 229.111 475.042 231.167 482.892C235.12 497.988 237.083 508.627 237.083 508.627Z" fill="#125E8A"/>
<path fill-rule="evenodd" clip-rule="evenodd" d="M158.721 415.426C158.721 415.426 150.149 411.011 152.769 401.842C148.852 394.11 153.183 389.178 153.183 389.178C153.183 389.178 153.101 378.908 159.886 378.169C163.915 367.54 175.985 371.38 175.985 371.38C175.985 371.38 183.491 364.943 194.649 373.247C202.667 373.343 202.602 369.365 205.242 372.07C207.882 374.774 209.189 381.222 205.816 383.854C211.8 386.264 206.627 395.807 206.627 395.807C206.627 395.807 208.696 401.209 201.963 405.472C195.231 409.734 192.94 422.751 181.683 427.098C170.852 431.281 159.185 428.06 158.721 415.426Z" fill="#7D4556"/>
<path fill-rule="evenodd" clip-rule="evenodd" d="M164.692 434.574L165.537 416.842L189.057 419.232L189.633 434.699C189.889 441.604 184.401 447.362 177.491 447.437C177.36 447.44 177.228 447.441 177.096 447.442C170.029 447.523 164.355 441.632 164.692 434.574Z" fill="#C99382"/>
<path fill-rule="evenodd" clip-rule="evenodd" d="M169.81 389.685C169.81 389.685 171.533 395.866 166.789 397.657C168.078 405.681 164.542 405.176 164.542 405.176C164.542 405.176 158.537 398.34 155.049 404.806C151.736 410.949 158.558 419.334 164.341 417.649C174.992 432.717 194.556 432.386 200.433 421.779C204.005 415.333 202.057 406.366 202.312 402.087C202.94 391.571 200.831 388.517 200.831 388.517C200.831 388.517 196.884 389.594 192.333 386.567C187.84 390.308 180.929 387.251 180.929 387.251C180.929 387.251 176.749 393.259 169.81 389.685Z" fill="#C99382"/>
<path d="M157.431 406.665C157.898 405.914 158.786 405.543 160.105 405.725C162.571 406.062 164.58 409.659 163.166 410.577C162.467 411.032 161.954 411.635 161.834 412.187C161.698 412.809 162.049 413.405 163.087 413.97C163.303 414.088 163.382 414.358 163.265 414.574C163.147 414.79 162.877 414.87 162.661 414.752C161.303 414.013 160.735 413.047 160.964 411.997C161.142 411.179 161.803 410.401 162.681 409.831L162.69 409.805C162.702 409.756 162.715 409.642 162.695 409.464C162.658 409.14 162.52 408.737 162.301 408.345C161.777 407.408 160.942 406.738 159.984 406.607C158.999 406.471 158.46 406.697 158.187 407.135C158.074 407.316 158.024 407.5 158.011 407.624L158.008 407.681C158.005 407.927 157.803 408.124 157.557 408.121C157.311 408.118 157.114 407.916 157.117 407.67C157.121 407.402 157.2 407.036 157.431 406.665Z" fill="#9B6160"/>
<path d="M160.467 408.95C160.912 408.877 161.375 408.869 161.802 408.899L161.987 408.915C162.232 408.944 162.406 409.165 162.378 409.409C162.349 409.653 162.128 409.828 161.884 409.799L161.741 409.787C161.377 409.762 160.977 409.769 160.611 409.829C159.937 409.939 159.6 410.174 159.588 410.584L159.591 410.674C159.61 410.919 159.427 411.134 159.182 411.153C158.937 411.172 158.723 410.989 158.703 410.744C158.62 409.699 159.346 409.133 160.467 408.95Z" fill="#9B6160"/>
<path fill-rule="evenodd" clip-rule="evenodd" d="M186.289 403.162C186.238 407.451 182.719 410.886 178.43 410.835C174.141 410.783 170.705 407.265 170.757 402.976C170.808 398.687 174.327 395.251 178.616 395.302C182.905 395.353 186.34 398.873 186.289 403.162Z" fill="white"/>
<path d="M178.622 394.755C174.031 394.701 170.265 398.378 170.21 402.97C170.154 407.56 173.831 411.327 178.423 411.383C183.014 411.438 186.782 407.76 186.836 403.169C186.891 398.578 183.213 394.81 178.622 394.755ZM178.609 395.85C182.596 395.897 185.789 399.169 185.742 403.156C185.695 407.142 182.423 410.336 178.436 410.289C174.449 410.24 171.256 406.969 171.305 402.983C171.352 398.996 174.623 395.802 178.609 395.85Z" fill="#7D4556"/>
<path fill-rule="evenodd" clip-rule="evenodd" d="M205.134 402.661C205.083 406.95 201.563 410.386 197.274 410.334C192.985 410.282 189.55 406.765 189.602 402.475C189.653 398.186 193.171 394.75 197.46 394.801C201.749 394.854 205.185 398.372 205.134 402.661Z" fill="white"/>
<path d="M197.467 394.254C192.876 394.199 189.109 397.877 189.055 402.468C188.999 407.06 192.676 410.826 197.267 410.882C201.859 410.936 205.626 407.258 205.681 402.667C205.735 398.152 202.178 394.434 197.692 394.26L197.467 394.254ZM197.454 395.348C201.441 395.397 204.634 398.668 204.587 402.654C204.539 406.641 201.268 409.835 197.281 409.787C193.293 409.739 190.101 406.468 190.149 402.481C190.196 398.564 193.353 395.413 197.245 395.349L197.454 395.348Z" fill="#7D4556"/>
<path d="M188.1 401.755C188.304 401.619 188.581 401.673 188.717 401.878L188.861 402.096L189.233 402.686C189.617 403.308 190.001 403.97 190.36 404.643C190.665 405.215 190.939 405.771 191.173 406.301C192.056 408.304 192.326 409.784 191.686 410.642C191.095 411.435 190.27 411.912 189.286 412.122C188.421 412.307 187.512 412.274 186.644 412.111C186.373 412.06 186.169 412.008 186.051 411.972C185.815 411.9 185.683 411.651 185.756 411.416C185.828 411.181 186.077 411.048 186.312 411.121L186.427 411.153C186.522 411.177 186.651 411.206 186.808 411.236C187.57 411.379 188.368 411.408 189.1 411.251C189.885 411.084 190.52 410.716 190.973 410.11C191.338 409.619 191.11 408.365 190.358 406.66C190.134 406.151 189.87 405.616 189.575 405.062C189.225 404.407 188.85 403.761 188.475 403.154L188.197 402.711L187.978 402.373C187.841 402.169 187.896 401.892 188.1 401.755Z" fill="#9B6160"/>
<path fill-rule="evenodd" clip-rule="evenodd" d="M180.808 414.355C180.808 414.355 187.984 415.264 193.128 414.504C193.128 414.504 191.629 419.619 186.503 418.941C181.951 418.339 180.808 414.355 180.808 414.355Z" fill="white"/>
<path d="M180.359 414.485C180.407 414.655 180.512 414.935 180.683 415.288C180.966 415.87 181.34 416.452 181.819 416.996C182.948 418.276 184.475 419.145 186.441 419.405C188.979 419.741 190.915 418.799 192.288 417.041C192.697 416.518 193.024 415.96 193.279 415.401C193.433 415.063 193.53 414.796 193.577 414.635C193.673 414.308 193.397 413.991 193.06 414.041C192.007 414.197 190.816 414.289 189.512 414.323C187.471 414.378 185.279 414.292 183.118 414.115C182.758 414.086 182.416 414.055 182.094 414.024L180.867 413.892C180.534 413.849 180.266 414.162 180.359 414.485ZM181.655 415.135L181.539 414.908L182.003 414.955C182.33 414.987 182.677 415.018 183.042 415.047C185.234 415.227 187.458 415.314 189.537 415.258L190.034 415.242C190.689 415.217 191.316 415.177 191.911 415.121L192.401 415.07L192.428 415.013C192.202 415.509 191.911 416.005 191.551 416.466C190.37 417.977 188.748 418.766 186.564 418.478C184.831 418.248 183.506 417.495 182.521 416.377C182.171 415.98 181.884 415.559 181.655 415.135Z" fill="#7D4556"/>
<path d="M191.19 392.876C191.302 392.643 191.582 392.546 191.814 392.659C194.115 393.774 196.983 394.084 199.924 393.313C200.174 393.248 200.429 393.397 200.495 393.647C200.56 393.897 200.411 394.153 200.161 394.218C197.001 395.046 193.904 394.711 191.406 393.501C191.174 393.388 191.077 393.108 191.19 392.876Z" fill="#7D4556"/>
<path d="M186.058 400.158C186.885 400.047 187.731 400 188.529 400.053C189.055 400.087 189.539 400.165 189.973 400.293L190.185 400.361L189.826 401.395C189.442 401.262 188.98 401.179 188.457 401.145C187.741 401.098 186.964 401.141 186.203 401.243L185.83 401.298L185.498 401.358L185.273 400.287L185.492 400.245L185.857 400.186C185.922 400.177 185.989 400.167 186.058 400.158Z" fill="#7D4556"/>
<path d="M197.387 400.705C198.696 400.721 199.564 401.408 200.018 402.492C200.247 403.039 200.338 403.579 200.354 404.004L200.356 404.157C200.352 404.464 200.104 404.707 199.802 404.703C199.525 404.7 199.299 404.491 199.266 404.223L199.261 404.096C199.258 404.014 199.249 403.896 199.23 403.754C199.19 403.465 199.118 403.177 199.009 402.915C198.712 402.207 198.21 401.809 197.373 401.799C196.507 401.789 195.945 402.166 195.579 402.834C195.445 403.076 195.349 403.341 195.285 403.606L195.248 403.774C195.239 403.823 195.232 403.864 195.228 403.896L195.223 403.937C195.196 404.238 194.931 404.461 194.63 404.434C194.329 404.407 194.106 404.141 194.133 403.84C194.169 403.442 194.305 402.879 194.619 402.307C195.169 401.305 196.087 400.689 197.387 400.705Z" fill="#7D4556"/>
<path d="M178.702 400.48C180.012 400.496 180.88 401.183 181.334 402.268C181.563 402.815 181.654 403.355 181.67 403.78L181.672 403.934C181.668 404.241 181.42 404.483 181.118 404.479C180.841 404.476 180.615 404.267 180.582 404L180.577 403.872C180.574 403.79 180.565 403.672 180.546 403.53C180.506 403.24 180.434 402.953 180.325 402.691C180.028 401.982 179.526 401.584 178.689 401.574C177.823 401.564 177.261 401.941 176.894 402.609C176.761 402.852 176.665 403.116 176.601 403.381C176.578 403.476 176.562 403.556 176.552 403.617L176.539 403.713C176.512 404.014 176.247 404.237 175.946 404.21C175.644 404.183 175.422 403.917 175.449 403.616C175.484 403.218 175.621 402.655 175.935 402.082C176.485 401.08 177.403 400.464 178.702 400.48Z" fill="#7D4556"/>
<path d="M170.757 402.975L163.081 402.883" stroke="#7D4556" stroke-width="1.383"/>
<path d="M182.8 392.306C183.032 392.192 183.312 392.287 183.426 392.519C183.541 392.751 183.445 393.031 183.214 393.145C182.26 393.615 181.128 393.968 179.855 394.219C177.967 394.593 176.005 394.713 174.298 394.685L173.726 394.67C173.662 394.668 173.613 394.665 173.58 394.663C173.322 394.649 173.125 394.428 173.139 394.17C173.154 393.912 173.375 393.715 173.632 393.729L173.905 393.74C175.642 393.794 177.709 393.69 179.674 393.302C180.872 393.065 181.928 392.736 182.8 392.306Z" fill="#7D4556"/>
<path d="M186.478 423.784C186.7 423.778 186.888 423.934 186.928 424.144L186.937 424.251L186.937 424.282C186.941 424.522 186.938 424.829 186.922 425.177C186.899 425.691 186.852 426.199 186.777 426.676C186.582 427.916 186.228 428.802 185.6 429.209C185.394 429.343 185.118 429.285 184.984 429.078C184.865 428.895 184.898 428.657 185.052 428.512L185.115 428.463C185.461 428.238 185.74 427.541 185.898 426.538C185.967 426.096 186.011 425.62 186.033 425.137C186.044 424.874 186.049 424.636 186.048 424.437L186.046 424.241C186.039 423.996 186.233 423.791 186.478 423.784Z" fill="#9B6160"/>
<path d="M188.14 425.191C188.385 425.175 188.597 425.361 188.613 425.606L188.626 425.885C188.649 426.488 188.645 427.138 188.596 427.754C188.559 428.22 188.497 428.633 188.405 428.981C188.343 429.219 188.1 429.361 187.862 429.298C187.624 429.236 187.482 428.992 187.544 428.754C187.621 428.464 187.675 428.101 187.708 427.683C187.743 427.251 187.754 426.796 187.748 426.354L187.736 425.919C187.732 425.797 187.727 425.71 187.724 425.664C187.708 425.418 187.894 425.207 188.14 425.191Z" fill="#9B6160"/>
<path d="M184.564 425.773C184.804 425.828 184.954 426.066 184.899 426.306L184.866 426.445C184.845 426.528 184.817 426.631 184.783 426.749C184.69 427.078 184.581 427.406 184.456 427.716C184.166 428.438 183.843 428.951 183.427 429.194C183.214 429.318 182.942 429.246 182.818 429.034C182.708 428.845 182.752 428.609 182.912 428.472L182.978 428.425C183.17 428.313 183.41 427.932 183.63 427.384C183.742 427.106 183.841 426.806 183.927 426.505L183.981 426.31C184.004 426.223 184.021 426.155 184.031 426.109C184.08 425.893 184.278 425.75 184.492 425.763L184.564 425.773Z" fill="#9B6160"/>
<path d="M189.463 424.755C189.679 424.707 189.893 424.825 189.973 425.024L189.994 425.093L190.579 427.718C190.633 427.958 190.482 428.196 190.242 428.249C190.026 428.297 189.811 428.18 189.732 427.981L189.71 427.911L189.125 425.287C189.072 425.047 189.223 424.809 189.463 424.755Z" fill="#9B6160"/>
<path d="M173.605 425.866C173.724 425.651 173.995 425.573 174.21 425.692C174.549 425.88 174.892 426.058 175.239 426.226C179.831 428.455 184.695 428.908 188.999 428.35C189.251 428.317 189.481 428.283 189.688 428.248L190.045 428.184C190.112 428.17 190.161 428.16 190.19 428.153C190.43 428.099 190.669 428.249 190.723 428.488C190.778 428.728 190.628 428.967 190.388 429.021L190.22 429.057L190.047 429.089C189.777 429.138 189.465 429.187 189.113 429.233C184.652 429.812 179.622 429.343 174.85 427.027C174.489 426.852 174.131 426.666 173.778 426.471C173.563 426.352 173.486 426.081 173.605 425.866Z" fill="#9B6160"/>
<path d="M182.288 411.131C182.375 411.361 182.259 411.618 182.029 411.705L181.82 411.788C181.706 411.836 181.564 411.898 181.401 411.973C180.924 412.192 180.447 412.443 180.005 412.719C178.641 413.571 177.944 414.449 178.148 415.233C178.21 415.471 178.067 415.714 177.829 415.776C177.591 415.838 177.348 415.696 177.286 415.458C176.949 414.161 177.868 413.004 179.533 411.964C180.011 411.666 180.52 411.398 181.029 411.164C181.207 411.082 181.372 411.01 181.521 410.949L181.715 410.872C181.945 410.785 182.201 410.901 182.288 411.131Z" fill="#9B6160"/>
<path fill-rule="evenodd" clip-rule="evenodd" d="M160.853 439.819L162.354 435.491L191.536 436.288L192.709 440.386C192.709 440.386 213.438 445.422 217.449 451.215C222.984 459.212 210.077 508.391 209.873 519.4C214.837 532.55 208.492 535.44 208.492 535.44L149.308 534.73C149.308 534.73 142.53 530.241 148.332 521.205C145.955 505.041 130.352 453.726 137.232 448.096C147.697 439.531 160.853 439.819 160.853 439.819Z" fill="#125E8A"/>
<path d="M138.164 454.127C138.278 453.904 138.553 453.815 138.776 453.93C139.101 454.097 139.639 454.471 140.317 455.107C141.43 456.15 142.537 457.563 143.566 459.402C147.192 465.88 148.975 475.838 147.935 490.02C147.932 490.067 147.921 490.112 147.904 490.155L147.874 490.218L135.841 510.718C135.714 510.934 135.435 511.007 135.218 510.88C135.023 510.765 134.945 510.528 135.024 510.323L135.056 510.257L147.034 489.849L147.071 489.338C147.988 475.856 146.303 466.35 142.926 460.127L142.771 459.846C141.788 458.09 140.739 456.75 139.695 455.771C139.394 455.489 139.112 455.255 138.855 455.066L138.704 454.958C138.532 454.838 138.415 454.768 138.361 454.74C138.137 454.625 138.049 454.351 138.164 454.127Z" fill="#597EF7"/>
<path d="M215.158 464.134C215.407 464.1 215.637 464.273 215.671 464.522C216.441 470.039 216.382 477.128 215.636 485.425C215.124 491.121 214.307 497.186 213.268 503.394C212.677 506.93 212.046 510.316 211.412 513.457L211.24 514.307C211.118 514.898 211.002 515.459 210.89 515.987L210.49 517.839L210.348 518.472L210.487 518.841C210.524 518.943 210.563 519.051 210.603 519.165C210.831 519.817 211.06 520.541 211.273 521.321C211.873 523.518 212.238 525.714 212.25 527.775C212.264 530.204 211.781 532.288 210.697 533.914C210.557 534.123 210.274 534.179 210.065 534.04C209.856 533.9 209.8 533.618 209.939 533.408C210.91 531.953 211.352 530.042 211.34 527.78C211.328 525.809 210.976 523.687 210.395 521.562C210.187 520.803 209.965 520.099 209.744 519.467L209.569 518.985C209.52 518.853 209.48 518.751 209.451 518.681C209.416 518.594 209.408 518.498 209.429 518.407L209.681 517.276C209.882 516.358 210.106 515.302 210.348 514.124C211.037 510.758 211.727 507.09 212.37 503.243C213.406 497.057 214.22 491.015 214.729 485.343C215.469 477.109 215.528 470.084 214.77 464.648C214.735 464.399 214.909 464.169 215.158 464.134Z" fill="#597EF7"/>
<path d="M162.634 440.708C162.701 440.466 162.952 440.324 163.195 440.391C165.782 441.112 168.78 441.588 172.108 441.845C177.098 442.231 182.445 442.11 187.593 441.675L188.455 441.599C189.013 441.547 189.539 441.494 190.029 441.44L190.98 441.331L191.412 441.276C191.661 441.242 191.891 441.417 191.925 441.666C191.959 441.915 191.784 442.144 191.535 442.178L191.091 442.235L190.493 442.305C189.658 442.4 188.712 442.494 187.67 442.582C182.477 443.022 177.084 443.143 172.038 442.753C168.655 442.492 165.6 442.007 162.95 441.268C162.708 441.201 162.566 440.95 162.634 440.708Z" fill="#597EF7"/>
<path fill-rule="evenodd" clip-rule="evenodd" d="M213.343 663.567C202.01 634.64 186.695 595.699 176.599 572.222C176.599 572.222 166.382 556.387 151.896 565.665C137.698 574.761 145.585 594.15 145.585 594.15L186.564 676.854C186.564 676.854 192.833 688.766 206.103 681.888C218.209 675.614 213.343 663.567 213.343 663.567Z" fill="#597EF7"/>
<path fill-rule="evenodd" clip-rule="evenodd" d="M219.79 741.857C213.857 742.196 209.792 747.975 211.489 753.67C213.441 760.221 216.034 769.085 218.697 778.668C221.438 788.53 223.729 796.697 224.709 797.555C229.028 801.334 235.715 801.416 243.311 804.295C249.324 806.573 250.646 808.055 257.428 807.58C267.042 806.907 261.756 804.133 248.371 794.488C236.448 785.896 235.719 780.598 235.719 780.598L229.339 749.215C228.427 744.73 224.359 741.596 219.79 741.857Z" fill="#C99382"/>
<path fill-rule="evenodd" clip-rule="evenodd" d="M246.694 791.819C255.234 797.453 264.34 801.292 265.068 804.836C265.794 808.379 263.86 812.254 251.404 811.181C242.881 810.445 244.677 808.189 235.966 805.284C231.616 803.835 230.328 804.449 226.165 802.527C223.541 800.511 221.225 788.005 221.225 788.005L238.005 798.904C238.005 798.904 232.875 793.127 235.287 790.956C237.699 788.786 240.01 787.135 241.964 787.889C243.917 788.644 246.694 791.819 246.694 791.819Z" fill="#7D4556"/>
<path fill-rule="evenodd" clip-rule="evenodd" d="M213.193 663.049C223.838 715.771 234.645 770.963 234.645 770.963L215.458 773.85L184.03 671.115C184.03 671.115 181.308 655.169 195.828 651.621C208.93 648.418 213.193 663.049 213.193 663.049Z" fill="#597EF7"/>
<path fill-rule="evenodd" clip-rule="evenodd" d="M143.471 582.682C144.361 563.074 148.195 546.308 150.443 542.541C198.777 543.922 209.63 544.473 209.63 544.473C209.63 544.473 214.329 559.954 212.547 581.345C212.547 581.345 197.468 600.521 178.266 600.521C160.952 600.521 143.471 582.682 143.471 582.682Z" fill="#597EF7"/>
<path fill-rule="evenodd" clip-rule="evenodd" d="M149.256 543.728L150.17 534.632L209.355 535.342L209.63 544.452C209.63 544.452 178.308 545.658 149.256 543.728Z" fill="#597EF7"/>
<path d="M188.382 545.192C188.632 545.172 188.852 545.358 188.873 545.609L189.097 548.55L189.279 551.143C189.416 553.152 189.55 555.287 189.679 557.515C190.037 563.737 190.296 569.859 190.414 575.591L190.448 577.474C190.588 586.56 190.335 593.862 189.6 598.793C189.563 599.042 189.332 599.213 189.083 599.176C188.834 599.139 188.663 598.907 188.7 598.659C189.475 593.455 189.709 585.524 189.504 575.609C189.395 570.33 189.166 564.716 188.85 558.999L188.672 555.917C188.541 553.741 188.405 551.665 188.268 549.724L188.058 546.867L187.965 545.683C187.945 545.433 188.131 545.213 188.382 545.192Z" fill="#253368"/>
<path d="M178.576 545.193C178.826 545.171 179.047 545.356 179.068 545.607L179.2 547.244L179.312 548.752C179.399 549.971 179.485 551.276 179.566 552.646C179.822 556.933 179.995 561.178 180.048 565.146L180.063 566.849C180.081 571.123 179.942 574.787 179.618 577.683L179.58 578.006L179.6 578.222C179.885 580.902 181.245 582.469 183.384 583.201L183.587 583.268C184.839 583.657 186.177 583.728 187.372 583.614L187.561 583.594C187.642 583.585 187.702 583.576 187.739 583.57C187.987 583.529 188.222 583.696 188.263 583.944C188.304 584.193 188.136 584.427 187.888 584.468L187.759 584.487C187.68 584.497 187.579 584.509 187.459 584.52C186.154 584.645 184.701 584.568 183.317 584.137C180.724 583.331 179.024 581.456 178.694 578.304L178.669 578.039L178.671 577.949C179.064 574.674 179.206 570.322 179.137 565.159C179.085 561.206 178.912 556.974 178.658 552.7L178.533 550.702C178.462 549.622 178.389 548.594 178.316 547.631L178.161 545.686C178.14 545.435 178.325 545.214 178.576 545.193Z" fill="#253368"/>
<path d="M154.545 545.47C154.796 545.474 154.997 545.681 154.993 545.933L154.982 546.273C154.977 546.384 154.971 546.514 154.962 546.663C154.93 547.237 154.878 547.876 154.803 548.563C154.586 550.529 154.221 552.496 153.67 554.337C152.371 558.684 150.25 561.67 147.093 562.627C146.853 562.7 146.599 562.564 146.526 562.323C146.453 562.082 146.589 561.828 146.829 561.755C149.626 560.908 151.577 558.161 152.798 554.076C153.331 552.294 153.686 550.379 153.897 548.463C153.957 547.927 154.001 547.421 154.032 546.954L154.067 546.35C154.076 546.152 154.081 546.007 154.082 545.918C154.086 545.667 154.293 545.466 154.545 545.47Z" fill="#253368"/>
<path d="M204.338 546.523C204.564 546.525 204.751 546.691 204.784 546.908L204.79 546.982L204.793 547.479C204.803 548.038 204.832 548.773 204.891 549.634C205.018 551.471 205.249 553.3 205.609 555.004C206.514 559.281 208.078 562.05 210.358 562.642C210.602 562.705 210.748 562.953 210.685 563.197C210.621 563.44 210.373 563.586 210.13 563.523C207.404 562.816 205.689 559.781 204.718 555.192C204.348 553.443 204.112 551.573 203.983 549.697L203.936 548.928C203.901 548.279 203.885 547.725 203.88 547.291L203.879 546.975C203.881 546.723 204.086 546.521 204.338 546.523Z" fill="#253368"/>
<path fill-rule="evenodd" clip-rule="evenodd" d="M271.016 536.537L197.707 533.2C194.919 533.073 193.052 530.283 193.998 527.658L212.283 476.865C212.897 475.156 214.555 474.047 216.369 474.13L289.679 477.467C292.466 477.594 294.333 480.383 293.388 483.009L275.102 533.801C274.487 535.51 272.83 536.618 271.016 536.537Z" fill="#597EF7"/>
<path fill-rule="evenodd" clip-rule="evenodd" d="M274.054 536.537L200.745 533.2C197.957 533.073 196.09 530.283 197.035 527.658L215.32 476.865C215.936 475.156 217.592 474.047 219.406 474.13L292.716 477.467C295.503 477.594 297.371 480.383 296.426 483.009L278.14 533.801C277.525 535.51 275.869 536.618 274.054 536.537Z" fill="black"/>
<path fill-rule="evenodd" clip-rule="evenodd" d="M146.644 513.821C146.644 513.821 143.126 530.062 128.302 526.588C113.187 523.046 117.389 506.751 117.389 506.751C117.389 506.751 119.67 495.384 122.874 481.717C125.376 471.037 127.255 462.833 129.508 456.152C131.938 448.942 139.035 444.31 145.977 445.936C156.529 448.41 159.385 455.829 157.995 463.271C156.642 470.506 154.517 480.212 152.849 488.155C149.642 503.426 146.644 513.821 146.644 513.821Z" fill="#125E8A"/>
<path d="M154.778 474.169L154.851 474.179C155.097 474.23 155.255 474.472 155.203 474.718C153.941 480.727 152.704 487.018 151.532 493.274L151.145 495.357C150.875 496.814 150.621 498.205 150.383 499.517L149.652 503.619L149.491 504.549C149.448 504.796 149.212 504.963 148.965 504.92C148.717 504.877 148.551 504.642 148.593 504.394L149.036 501.876C149.392 499.868 149.799 497.622 150.249 495.191C151.535 488.247 152.908 481.216 154.312 474.531C154.359 474.309 154.559 474.159 154.778 474.169Z" fill="#597EF7"/>
<path fill-rule="evenodd" clip-rule="evenodd" d="M208.686 538.207C208.686 538.207 194.236 538.157 191.339 532.016C188.716 526.455 195.359 522.146 195.359 522.146C195.359 522.146 200.936 519.369 207.753 518.012C212.22 517.123 220.46 514.167 221.53 516.331C222.924 519.153 214.006 520.801 213.536 523.042C212.581 527.584 226.886 526.468 229.303 527.533C234.025 529.612 226.019 538.399 208.686 538.207Z" fill="#C99382"/>
<path d="M214.984 529.633C215.047 529.395 215.291 529.253 215.528 529.316L215.792 529.381C215.881 529.401 215.986 529.425 216.107 529.452C216.581 529.555 217.122 529.658 217.719 529.755C221.072 530.297 224.588 530.396 227.865 529.776C228.237 529.706 228.603 529.626 228.962 529.538C229.201 529.479 229.442 529.624 229.501 529.863C229.56 530.102 229.414 530.343 229.176 530.402C228.8 530.495 228.418 530.578 228.03 530.651C224.638 531.293 221.024 531.191 217.577 530.634C217.086 530.554 216.632 530.47 216.219 530.385L215.686 530.27C215.511 530.23 215.381 530.198 215.301 530.177C215.064 530.114 214.922 529.871 214.984 529.633Z" fill="#9B6160"/>
<path d="M227.219 532.69C227.455 532.621 227.702 532.756 227.771 532.991C227.841 533.227 227.706 533.475 227.47 533.544L227.272 533.598C227.187 533.619 227.081 533.645 226.957 533.674C226.546 533.768 226.065 533.862 225.518 533.95C222.169 534.485 218.123 534.541 213.544 533.81C213.301 533.771 213.136 533.543 213.175 533.3C213.214 533.057 213.442 532.892 213.685 532.93C218.166 533.646 222.118 533.591 225.377 533.07C225.799 533.003 226.179 532.932 226.514 532.86L226.757 532.806C226.989 532.753 227.144 532.712 227.219 532.69Z" fill="#9B6160"/>
<path d="M211.073 535.693L211.298 535.737L211.388 535.753C211.66 535.8 211.987 535.848 212.368 535.892C214.648 536.158 217.591 536.194 221.172 535.851C221.417 535.828 221.634 536.007 221.658 536.252C221.681 536.497 221.502 536.714 221.257 536.737C217.613 537.087 214.607 537.05 212.265 536.777C211.868 536.73 211.524 536.68 211.236 536.63L210.874 536.561C210.635 536.506 210.485 536.267 210.54 536.028C210.589 535.812 210.787 535.669 211.001 535.683L211.073 535.693Z" fill="#9B6160"/>
<path fill-rule="evenodd" clip-rule="evenodd" d="M135.312 502.155C135.312 502.155 118.391 500.019 116.144 514.101C113.826 528.624 129.964 531.426 129.964 531.426C129.964 531.426 141.369 533.116 155.414 535.261C163.99 536.572 173.488 537.828 180.514 537.752C188.122 537.668 189.516 533.66 190.64 526.618C191.975 518.256 191.674 514.665 184.442 512.428C177.548 510.296 167.963 508.654 160.594 507.044C146.543 503.974 135.312 502.155 135.312 502.155Z" fill="#125E8A"/>
<path fill-rule="evenodd" clip-rule="evenodd" d="M194.872 535.449L197.47 519.166L186.656 516.237L183.682 534.865L194.872 535.449Z" fill="#125E8A"/>
<path d="M135.893 502.41L137.872 502.743L139.886 503.094C140.768 503.25 141.701 503.417 142.681 503.596L143.275 503.705C148.107 504.592 153.191 505.591 158.368 506.692L163.06 507.696C166.342 508.38 171.905 509.511 172.092 509.548L174.214 509.994C178.804 510.973 182.182 511.801 185.086 512.699C188.656 513.802 190.655 515.269 191.58 517.511L191.648 517.684L198.098 519.431C198.298 519.485 198.433 519.666 198.434 519.866L198.429 519.942L195.83 536.226C195.798 536.43 195.633 536.583 195.433 536.606L195.357 536.609L188.467 536.249C186.92 537.96 184.667 538.817 181.362 538.905L181.028 538.911C175.162 538.974 167.631 538.186 157.129 536.608L144.263 534.656L130.406 532.58C130.157 532.543 129.986 532.312 130.022 532.063C130.059 531.814 130.291 531.643 130.54 531.679L137.998 532.793L149.323 534.5L157.261 535.707C167.719 537.278 175.214 538.063 181.018 538.001C184.375 537.964 186.515 537.148 187.924 535.489C187.998 535.402 188.1 535.347 188.211 535.332L188.295 535.329L194.996 535.678L197.465 520.203L191.183 518.502C191.061 518.469 190.96 518.388 190.901 518.279L190.871 518.21C190.131 516.054 188.345 514.659 184.818 513.569L184.171 513.372C181.112 512.46 177.476 511.6 172.446 510.551L161.675 508.335C161.414 508.28 161.188 508.231 161.006 508.192C155.337 506.953 149.743 505.833 144.433 504.845L143.111 504.6C141.914 504.38 140.784 504.177 139.728 503.991L137.185 503.549L135.748 503.309C135.5 503.269 135.331 503.035 135.371 502.787C135.407 502.563 135.6 502.404 135.82 502.404L135.893 502.41Z" fill="#597EF7"/>
<path fill-rule="evenodd" clip-rule="evenodd" d="M279.123 518.369C279.123 518.369 287.288 515.297 289.127 516.339C291.976 517.953 287.42 522.856 287.42 522.856C287.42 522.856 289.235 525.652 286.266 527.858C286.088 531.181 283.911 531.861 283.911 531.861C283.911 531.861 284.625 534.757 281.49 535.483C278.355 536.208 273.203 533.345 275.637 529.964C274.388 526.95 277.067 525.671 277.067 525.671C277.067 525.671 276.365 523.015 278.998 521.833C277.818 520.256 278.274 518.698 279.123 518.369Z" fill="#C99382"/>
<path d="M286.114 520.571C286.359 520.543 286.579 520.719 286.607 520.963C286.632 521.183 286.493 521.384 286.287 521.442L286.215 521.456L279.049 522.275C278.805 522.303 278.584 522.127 278.556 521.883C278.531 521.663 278.671 521.463 278.877 521.404L278.948 521.39L286.114 520.571Z" fill="#9B6160"/>
<path d="M288.789 516.049C288.95 515.862 289.231 515.841 289.417 516.002C290.311 516.772 290.606 517.776 290.388 518.906C290.218 519.787 289.748 520.703 289.075 521.624C288.78 522.026 288.466 522.402 288.152 522.742L287.94 522.965L287.998 523.137L288.064 523.355C288.301 524.192 288.38 525.06 288.2 525.887C288.017 526.726 287.578 527.447 286.853 527.997L286.706 528.102L286.707 528.117C286.663 529.561 286.232 530.636 285.522 531.378L285.394 531.506C285.024 531.857 284.65 532.076 284.331 532.198L284.236 532.231L283.178 534.702C283.091 534.905 282.87 535.01 282.662 534.959L282.593 534.936C282.39 534.849 282.285 534.628 282.336 534.42L282.359 534.351L283.501 531.685C283.549 531.573 283.641 531.487 283.753 531.444L283.898 531.403C283.948 531.387 284.015 531.361 284.096 531.325C284.328 531.22 284.562 531.068 284.782 530.86C285.429 530.246 285.822 529.283 285.821 527.859C285.82 527.704 285.901 527.56 286.034 527.479C286.76 527.036 287.169 526.435 287.33 525.698C287.474 525.034 287.408 524.306 287.207 523.597C287.133 523.334 287.059 523.14 287.014 523.04C286.936 522.867 286.976 522.663 287.114 522.532L287.337 522.309C287.385 522.259 287.439 522.202 287.497 522.139C287.79 521.821 288.083 521.471 288.356 521.098C288.959 520.274 289.373 519.467 289.514 518.737C289.674 517.905 289.475 517.226 288.836 516.676C288.65 516.516 288.629 516.235 288.789 516.049Z" fill="#9B6160"/>
<path d="M277.128 525.229L283.317 526.089C283.56 526.123 283.73 526.348 283.696 526.592C283.666 526.811 283.481 526.97 283.266 526.975L283.194 526.971L277.006 526.111C276.762 526.077 276.592 525.852 276.626 525.608C276.657 525.389 276.842 525.23 277.056 525.225L277.128 525.229Z" fill="#9B6160"/>
<path d="M275.739 529.532L281.472 530.893C281.711 530.95 281.859 531.19 281.802 531.429C281.751 531.645 281.551 531.786 281.337 531.771L281.266 531.759L275.533 530.398C275.294 530.341 275.146 530.101 275.203 529.862C275.254 529.647 275.454 529.505 275.667 529.521L275.739 529.532Z" fill="#9B6160"/>
<path d="M149.72 543.605L209.638 544.46C209.889 544.464 210.09 544.67 210.086 544.922C210.083 545.148 209.915 545.333 209.698 545.366L209.625 545.371L149.707 544.516C149.456 544.512 149.255 544.306 149.258 544.054C149.262 543.828 149.43 543.643 149.646 543.61L149.72 543.605Z" fill="#253368"/>
<path d="M404.254 703.373C404.159 703.396 404.083 703.504 404.066 703.639L403.144 710.489L407.101 709.504L404.499 703.526C404.455 703.427 404.379 703.366 404.298 703.366C404.282 703.366 404.268 703.368 404.254 703.373Z" fill="#253368"/>
<path d="M426.622 704.278L426.021 706.875C425.889 707.442 426.176 708.019 426.658 708.157C427.142 708.297 427.64 707.949 427.772 707.379L428.373 704.782C428.506 704.212 428.22 703.638 427.737 703.497C427.685 703.485 427.633 703.474 427.581 703.47C427.151 703.435 426.74 703.766 426.622 704.278Z" fill="#50548B"/>
<path d="M403.14 741.126L388.66 752.14H460.943L446.384 741.126H403.14Z" fill="#E4EBF7"/>
<path d="M446.487 752.13L460.943 752.14L446.487 741.126V752.13Z" fill="#A3B5D6"/>
<path d="M401.293 722.23L413.601 793.329C413.882 794.956 415.42 796.047 417.033 795.761L422.512 794.796C424.125 794.51 425.206 792.959 424.923 791.332L412.617 720.233L401.293 722.23Z" fill="#FFA940"/>
<path d="M402.954 710.168L401.295 722.236L412.617 720.239L407.318 709.399L402.954 710.168Z" fill="#FFE7BA"/>
<path d="M404.71 721.668L417.521 795.675L422.143 794.86L409.334 720.851L404.71 721.668Z" fill="#FE9921"/>
<path d="M420.516 790.003L420.329 795.669C420.271 797.421 421.569 798.89 423.228 798.95C424.888 799.012 426.279 797.641 426.338 795.891L426.523 790.224L420.518 790.003H420.516Z" fill="#253368"/>
<path d="M408.703 784.865C408.42 786.494 409.503 788.044 411.117 788.328L414.367 788.9C415.981 789.182 417.517 788.093 417.797 786.464L429.677 717.624L420.582 716.025L408.703 784.865Z" fill="#597EF7"/>
<path d="M425.413 707.313L420.582 716.025L429.683 717.625L427.908 707.744C427.87 707.537 427.707 707.373 427.501 707.34L425.931 707.064C425.903 707.059 425.875 707.057 425.847 707.057C425.669 707.057 425.502 707.152 425.413 707.313Z" fill="#E4EBF7"/>
<path d="M387.493 714.657L384.364 716.852C384.006 717.103 383.874 717.574 384.048 717.977L385.945 722.361C386.145 722.829 386.685 723.041 387.149 722.837L390.574 721.328C391.038 721.123 391.249 720.58 391.047 720.112L388.856 715.043C388.746 714.79 388.529 714.6 388.265 714.525C388.185 714.503 388.101 714.491 388.02 714.491C387.832 714.491 387.65 714.546 387.493 714.657Z" fill="#FF7946"/>
<path d="M386.965 734.799L410.686 789.646L423.518 783.994L399.797 729.146L386.965 734.799Z" fill="#FF7946"/>
<path d="M386.965 734.799L389.043 739.599L401.875 733.948L399.797 729.146L386.965 734.799Z" fill="#253368"/>
<path d="M385.37 721.578L385.688 731.843L386.964 734.799L399.796 729.147L398.528 726.214L390.88 719.15L385.37 721.578Z" fill="#E4EBF7"/>
<path d="M385.685 731.895L386.963 734.849L399.794 729.195L398.516 726.243L385.685 731.895Z" fill="#F5F5F5"/>
<path d="M402.701 744.848L395.893 745.322C395.724 745.334 395.57 745.429 395.483 745.576C395.393 745.722 395.382 745.904 395.449 746.062L395.494 746.164C395.584 746.37 395.791 746.497 396.012 746.48L398.305 746.31C398.527 746.293 398.736 746.422 398.825 746.627L399.408 747.976C400.128 749.641 401.313 750.398 402.918 750.25C404.522 750.103 404.969 749.212 404.272 747.6L403.217 745.165C403.133 744.971 402.942 744.848 402.734 744.848C402.724 744.848 402.712 744.848 402.701 744.848ZM401.262 748.879C400.964 748.669 400.698 748.316 400.484 747.822L400.078 746.884C400.011 746.727 400.022 746.547 400.11 746.4C400.198 746.253 400.352 746.158 400.52 746.146L402.07 746.031C402.292 746.016 402.499 746.141 402.588 746.346L403.131 747.605C403.34 748.084 403.386 748.455 403.285 748.697C403.183 748.94 402.908 749.092 402.433 749.133C402.355 749.14 402.275 749.143 402.201 749.143C401.828 749.143 401.509 749.057 401.262 748.879Z" fill="white"/>
<path d="M405.348 750.998L398.617 751.648C398.451 751.665 398.301 751.76 398.216 751.905C398.13 752.051 398.12 752.229 398.185 752.383L399.969 756.509C400.062 756.721 400.281 756.848 400.509 756.821C400.673 756.803 400.82 756.704 400.903 756.56C400.986 756.415 400.996 756.239 400.928 756.086L399.769 753.402C399.705 753.247 399.714 753.07 399.799 752.924C399.883 752.781 400.032 752.684 400.198 752.669L401.473 752.552C401.698 752.53 401.91 752.655 402.001 752.864L403.237 755.722C403.33 755.934 403.55 756.062 403.779 756.037C403.943 756.017 404.088 755.919 404.173 755.773C404.254 755.63 404.264 755.453 404.198 755.299L403.231 753.063C403.165 752.908 403.176 752.731 403.261 752.587C403.345 752.443 403.494 752.346 403.66 752.33L404.732 752.221C404.958 752.199 405.171 752.323 405.262 752.532L406.575 755.564C406.668 755.778 406.886 755.904 407.115 755.877C407.28 755.857 407.428 755.76 407.509 755.613C407.592 755.464 407.6 755.287 407.529 755.133L405.875 751.31C405.79 751.117 405.603 750.995 405.398 750.995C405.381 750.995 405.365 750.996 405.348 750.998Z" fill="white"/>
<path d="M389.349 765.221V800.339C389.349 801.854 390.551 803.083 392.034 803.083H458.258C459.741 803.083 460.943 801.854 460.943 800.339V765.221H389.349Z" fill="#597EF7"/>
<path d="M389.349 757.648V777.612L460.943 771.919V757.648H389.349Z" fill="#3D60E0"/>
<path d="M430.298 756.694C434.65 759.23 440.293 757.599 442.894 753.053L447.605 744.817L439.72 740.223C435.367 737.686 429.724 739.317 427.124 743.863C424.523 748.41 425.945 754.157 430.298 756.694Z" fill="#0ACF83"/>
<path d="M446.016 710.838C448.625 706.277 454.275 704.634 458.628 707.17L466.513 711.765L457.059 728.291L449.174 723.696C444.821 721.16 443.406 715.4 446.016 710.838Z" fill="#F24E1E"/>
<path d="M466.513 711.765L474.399 716.359C478.751 718.896 480.166 724.656 477.557 729.217C474.948 733.779 469.297 735.422 464.945 732.886L457.059 728.291L466.513 711.765Z" fill="#FF7262"/>
<path d="M468.135 745.689C465.525 750.25 459.875 751.893 455.522 749.357C451.17 746.821 449.755 741.06 452.364 736.499C454.974 731.938 460.624 730.294 464.977 732.831C469.329 735.367 470.744 741.127 468.135 745.689Z" fill="#1ABCFE"/>
<path d="M436.594 727.31C439.203 722.748 444.854 721.105 449.206 723.641L457.092 728.236L447.637 744.762L439.752 740.168C435.4 737.631 433.985 731.871 436.594 727.31Z" fill="#A259FF"/>
<path d="M388.94 752.14L381.953 768.067C381.687 768.643 381.724 769.319 382.05 769.859C382.379 770.397 382.951 770.725 383.565 770.727H466.035C466.664 770.727 467.248 770.385 467.572 769.826C467.895 769.267 467.913 768.573 467.619 768.001L460.774 752.14H388.94Z" fill="#E4EBF7"/>
<g clip-path="url(#clip0)">
<path d="M518.008 475.55C518.732 476.675 520.231 477.001 521.356 476.277C522.124 475.784 522.52 474.929 522.464 474.078C522.445 473.671 522.324 473.281 522.12 472.942C521.555 471.574 520.218 467.368 523.835 464.845L523.869 464.823C524.964 464.094 525.274 462.616 524.558 461.504C523.835 460.379 522.339 460.053 521.217 460.774C520.156 461.455 519.809 462.828 520.383 463.925L520.369 463.922C520.369 463.922 520.393 463.953 520.432 464.014C520.452 464.048 520.472 464.082 520.494 464.115C520.495 464.117 520.496 464.119 520.498 464.121C520.499 464.123 520.499 464.124 520.5 464.125C520.985 464.95 522.456 468.197 518.565 472.272L518.564 472.273C518.132 472.608 517.811 473.091 517.686 473.668C517.669 473.748 517.656 473.827 517.646 473.906C517.569 474.46 517.682 475.043 518.008 475.55Z" fill="#023047" fill-opacity="0.78"/>
<path d="M538.202 450.439C536.19 452.071 533.245 451.782 531.587 449.804L531.537 449.743C525.832 443.23 517.924 446.741 515.388 448.132C513.358 449.707 510.431 449.377 508.804 447.372C507.156 445.339 507.467 442.355 509.5 440.707C511.148 439.37 513.423 439.322 515.104 440.436L515.105 440.409C524.335 447.995 530.67 444.246 532.216 443.092L532.232 443.078C532.293 443.029 532.354 442.982 532.416 442.937C532.526 442.847 532.583 442.794 532.583 442.794L532.578 442.822C534.591 441.469 537.34 441.854 538.897 443.774C540.546 445.806 540.234 448.79 538.202 450.439Z" fill="#023047" fill-opacity="0.78"/>
</g>
<path fill-rule="evenodd" clip-rule="evenodd" d="M625.533 584.297H280.324C277.966 584.297 276.054 580.365 276.054 575.516C276.054 570.667 277.966 566.736 280.324 566.736H625.533C627.892 566.736 629.803 570.667 629.803 575.516C629.803 580.365 627.892 584.297 625.533 584.297Z" fill="#CCD7EE"/>
<path fill-rule="evenodd" clip-rule="evenodd" d="M314.485 792.204H330.146V584.298H314.485V792.204Z" fill="#597EF7"/>
<path fill-rule="evenodd" clip-rule="evenodd" d="M336.769 802.291H307.862C307.862 796.72 310.058 792.205 312.766 792.205H331.865C334.573 792.205 336.769 796.72 336.769 802.291Z" fill="#253368"/>
<path fill-rule="evenodd" clip-rule="evenodd" d="M596.813 802.291H567.906C567.906 796.72 570.103 792.205 572.811 792.205H591.909C594.617 792.205 596.813 796.72 596.813 802.291Z" fill="#253368"/>
<path fill-rule="evenodd" clip-rule="evenodd" d="M574.529 792.204H590.19V584.298H574.529V792.204Z" fill="#597EF7"/>
<path fill-rule="evenodd" clip-rule="evenodd" d="M549.238 541.275H540.197V510.297C540.197 507.831 542.21 505.832 544.694 505.832H544.741C547.225 505.832 549.238 507.831 549.238 510.297V541.275Z" fill="#7CB305"/>
<path fill-rule="evenodd" clip-rule="evenodd" d="M553.735 548.858H544.667V532.682C544.667 530.281 546.636 528.335 549.065 528.335H549.337C551.766 528.335 553.735 530.281 553.735 532.682V548.858Z" fill="#5B8C00"/>
<path fill-rule="evenodd" clip-rule="evenodd" d="M541.523 541.259H532.394V523.671C532.394 521.257 534.369 519.3 536.804 519.3H537.113C539.549 519.3 541.523 521.257 541.523 523.671V541.259Z" fill="#7CB305"/>
<path fill-rule="evenodd" clip-rule="evenodd" d="M554.274 566.952H530.527C529.589 566.952 528.828 566.199 528.828 565.27V541.91C528.828 540.981 529.589 540.228 530.527 540.228H554.274C555.213 540.228 555.974 540.981 555.974 541.91V565.27C555.974 566.199 555.213 566.952 554.274 566.952Z" fill="#253368"/>
<path fill-rule="evenodd" clip-rule="evenodd" d="M550.772 526.876C550.772 526.876 549.775 516.86 560.542 512.352C571.309 507.845 573.702 510.224 573.702 510.224L572.705 514.23C572.705 514.23 571.01 524.247 563.234 525.624C555.457 527.001 552.466 524.998 550.772 526.876Z" fill="#7CB305"/>
<path d="M572.548 510.696L572.862 511.003L572.836 511.045C572.825 511.062 572.811 511.084 572.794 511.109L572.744 511.183C572.709 511.234 572.671 511.29 572.629 511.349L572.596 511.394C572.377 511.699 572.113 512.038 571.803 512.402C570.92 513.441 569.845 514.479 568.572 515.447C566.017 517.391 562.999 518.804 559.504 519.462L559.374 519.486C557.021 519.915 555.146 520.897 553.694 522.262C552.997 522.918 552.444 523.618 552.021 524.318C551.873 524.561 551.752 524.787 551.657 524.988L551.625 525.055C551.611 525.087 551.597 525.117 551.585 525.145L551.552 525.225L551.55 525.23L551.19 525.016L551.201 524.987C551.223 524.93 551.261 524.844 551.314 524.731C551.417 524.514 551.546 524.273 551.703 524.015C552.149 523.279 552.728 522.545 553.455 521.862C554.939 520.466 556.843 519.461 559.214 519.01L559.317 518.991C562.813 518.353 565.823 516.953 568.366 515.019C569.614 514.069 570.667 513.052 571.531 512.037C571.812 511.706 572.054 511.397 572.257 511.118L572.3 511.059C572.363 510.971 572.418 510.892 572.465 510.822L572.518 510.743L572.548 510.696Z" fill="#7CB305"/>
<path fill-rule="evenodd" clip-rule="evenodd" d="M572.406 533.637H573.702V510.224H572.406L572.755 517.418C572.855 519.465 572.865 521.517 572.788 523.566L572.406 533.637Z" fill="#7CB305"/>
<path fill-rule="evenodd" clip-rule="evenodd" d="M552.444 492.596C552.444 492.596 556.413 485.017 565.867 489.819C575.322 494.621 575.796 498.455 575.796 498.455L573.312 500.008C573.312 500.008 567.503 505.616 561.546 500.864C555.59 496.112 554.475 492.552 552.444 492.596Z" fill="#7CB305"/>
<path fill-rule="evenodd" clip-rule="evenodd" d="M574.5 540.147H575.497L575.887 498.818C575.892 498.308 575.625 497.857 575.234 497.717L574.5 497.454C574.5 497.454 574.75 501.294 574.699 506.092C574.65 510.683 574.3 516.145 574.3 520.191C574.3 531.634 574.5 540.147 574.5 540.147Z" fill="#7CB305"/>
<path fill-rule="evenodd" clip-rule="evenodd" d="M565.925 492.32C570.228 496.514 574.599 499.207 574.599 499.207L573.312 500.009C573.312 500.009 567.503 505.616 561.546 500.864C555.59 496.112 554.475 492.553 552.444 492.596C552.444 492.596 559.246 485.81 565.925 492.32Z" fill="#5B8C00"/>
<path fill-rule="evenodd" clip-rule="evenodd" d="M599.1 510.521C599.1 510.521 596.423 505.434 590.046 508.657C583.668 511.88 583.348 514.454 583.348 514.454L585.024 515.496C585.024 515.496 588.942 519.26 592.96 516.07C596.978 512.881 597.73 510.492 599.1 510.521Z" fill="#7CB305"/>
<path fill-rule="evenodd" clip-rule="evenodd" d="M584.207 542.644H583.519L583.249 514.768C583.245 514.424 583.43 514.12 583.7 514.025L584.207 513.848C584.207 513.848 584.034 516.438 584.07 519.674C584.103 522.771 584.345 526.455 584.345 529.184C584.345 536.902 584.207 542.644 584.207 542.644Z" fill="#7CB305"/>
<path fill-rule="evenodd" clip-rule="evenodd" d="M599.845 482.955C599.845 482.955 595.876 475.377 586.422 480.179C576.967 484.981 576.494 488.815 576.494 488.815L578.977 490.368C578.977 490.368 584.786 495.976 590.743 491.224C596.699 486.472 597.814 482.912 599.845 482.955Z" fill="#7CB305"/>
<path fill-rule="evenodd" clip-rule="evenodd" d="M577.789 532.134H576.793L576.402 489.177C576.397 488.667 576.665 488.217 577.055 488.077L577.789 487.813C577.789 487.813 577.539 491.653 577.59 496.452C577.639 501.042 577.989 506.505 577.989 510.55C577.989 521.993 577.789 532.134 577.789 532.134Z" fill="#7CB305"/>
<path fill-rule="evenodd" clip-rule="evenodd" d="M599.845 482.955C599.845 482.955 593.043 476.169 586.363 482.68C582.061 486.873 577.69 489.566 577.69 489.566L578.977 490.368C578.977 490.368 584.786 495.976 590.743 491.224C596.699 486.472 597.814 482.912 599.845 482.955Z" fill="#5B8C00"/>
<path fill-rule="evenodd" clip-rule="evenodd" d="M579.584 531.759H581.279L581.949 505.151L580.673 480.038C580.677 479.528 580.41 479.077 580.02 478.937L579.285 478.673C579.285 478.673 580.88 498.617 580.88 502.663C580.88 514.105 579.584 531.759 579.584 531.759Z" fill="#7CB305"/>
<path fill-rule="evenodd" clip-rule="evenodd" d="M560.511 464.622C560.511 464.622 564.131 457.89 572.705 464.651C581.342 471.461 580.742 480.396 580.742 480.396L577.982 480.756C577.982 480.756 570.976 483.449 566.726 476.375C562.475 469.301 562.425 465.476 560.511 464.622Z" fill="#7CB305"/>
<path fill-rule="evenodd" clip-rule="evenodd" d="M560.511 464.622C560.511 464.622 564.408 461.015 567.72 466.153C569.415 468.782 572.414 470.765 573.702 472.288C577.049 476.246 579.412 480.572 579.412 480.572L577.982 480.756C577.982 480.756 570.976 483.448 566.726 476.374C562.475 469.301 562.425 465.476 560.511 464.622Z" fill="#5B8C00"/>
<path fill-rule="evenodd" clip-rule="evenodd" d="M589.031 566.815H565.901C564.58 566.815 563.509 565.47 563.509 563.81V534.764C563.509 533.104 564.58 531.759 565.901 531.759H589.031C590.353 531.759 591.424 533.104 591.424 534.764V563.81C591.424 565.47 590.353 566.815 589.031 566.815Z" fill="#253368"/>
<path fill-rule="evenodd" clip-rule="evenodd" d="M521.356 477.561C533.382 471.828 540.55 486.862 534.502 495.233C527.121 505.448 523.34 517.201 521.234 520.742C519.458 523.73 514.593 531.012 508.734 527.656C503.342 524.566 506.281 512.441 506.281 512.441C506.281 512.441 506.519 484.632 521.356 477.561Z" fill="#5B8C00"/>
<path fill-rule="evenodd" clip-rule="evenodd" d="M485.182 525.321C481.093 519.763 479.6 511.786 484.164 509.74C488.539 507.779 495.787 512.608 499.144 521.901C502.501 531.194 504.438 537.876 501.154 539.037C495.766 540.943 490.582 532.663 485.182 525.321Z" fill="#5B8C00"/>
<path fill-rule="evenodd" clip-rule="evenodd" d="M528.166 525.743C523.541 531.204 516.868 542.189 512.687 538.342C510.154 536.01 513.541 524.968 522.813 518.96C530.7 513.849 532.79 520.282 528.166 525.743Z" fill="#7CB305"/>
<path fill-rule="evenodd" clip-rule="evenodd" d="M483.914 487.846C485.673 486.654 487.885 486.382 489.904 487.033C492.721 487.943 496.996 490.65 501.227 498.421C506.751 508.566 509.627 519.689 509.058 526.734C508.687 531.341 503.054 533.328 499.903 529.968C498.455 528.425 496.924 526.047 495.426 522.439C489.397 507.92 483.76 498.822 483.087 497.908C481.294 495.47 480.011 490.493 483.914 487.846Z" fill="#7CB305"/>
<path fill-rule="evenodd" clip-rule="evenodd" d="M487.958 493.638C488.018 494.355 487.489 494.985 486.778 495.045C486.066 495.105 485.441 494.573 485.382 493.856C485.322 493.139 485.85 492.509 486.562 492.449C487.273 492.389 487.898 492.921 487.958 493.638Z" fill="white"/>
<path fill-rule="evenodd" clip-rule="evenodd" d="M498.937 499.199C498.997 499.916 498.469 500.546 497.757 500.606C497.046 500.666 496.421 500.134 496.361 499.417C496.301 498.7 496.83 498.07 497.541 498.01C498.252 497.95 498.878 498.482 498.937 499.199Z" fill="white"/>
<path fill-rule="evenodd" clip-rule="evenodd" d="M497.097 514.006C497.165 514.827 496.56 515.549 495.746 515.618C494.931 515.687 494.215 515.077 494.147 514.256C494.078 513.435 494.684 512.714 495.498 512.645C496.313 512.576 497.029 513.186 497.097 514.006Z" fill="white"/>
<path fill-rule="evenodd" clip-rule="evenodd" d="M530.82 491.878C530.82 493.043 529.883 493.987 528.727 493.987C527.57 493.987 526.633 493.043 526.633 491.878C526.633 490.713 527.57 489.768 528.727 489.768C529.883 489.768 530.82 490.713 530.82 491.878Z" fill="white"/>
<path fill-rule="evenodd" clip-rule="evenodd" d="M513.967 498.32C513.967 499.485 513.03 500.429 511.874 500.429C510.718 500.429 509.78 499.485 509.78 498.32C509.78 497.155 510.718 496.21 511.874 496.21C513.03 496.21 513.967 497.155 513.967 498.32Z" fill="white"/>
<path fill-rule="evenodd" clip-rule="evenodd" d="M519.425 512.639C519.425 513.126 519.034 513.521 518.55 513.521C518.067 513.521 517.675 513.126 517.675 512.639C517.675 512.152 518.067 511.758 518.55 511.758C519.034 511.758 519.425 512.152 519.425 512.639Z" fill="white"/>
<path fill-rule="evenodd" clip-rule="evenodd" d="M525.729 523.916C525.729 524.635 525.15 525.218 524.437 525.218C523.723 525.218 523.144 524.635 523.144 523.916C523.144 523.196 523.723 522.613 524.437 522.613C525.15 522.613 525.729 523.196 525.729 523.916Z" fill="white"/>
<path d="M495.537 526.805C495.658 526.689 495.849 526.693 495.963 526.815L496.019 526.875L496.06 526.921C496.136 527.007 496.224 527.109 496.323 527.227C496.603 527.564 496.914 527.966 497.249 528.434C498.204 529.766 499.158 531.355 500.048 533.199C502.586 538.461 504.109 544.711 504.109 551.927C504.109 552.094 503.974 552.23 503.808 552.23C503.641 552.23 503.506 552.094 503.506 551.927C503.506 544.806 502.005 538.646 499.505 533.465C498.631 531.653 497.696 530.094 496.761 528.789C496.454 528.361 496.167 527.99 495.909 527.676L495.861 527.618C495.787 527.53 495.721 527.451 495.661 527.383L495.585 527.298C495.557 527.266 495.538 527.245 495.527 527.234C495.412 527.113 495.417 526.92 495.537 526.805Z" fill="#253368"/>
<path d="M518.309 528.931C518.408 528.796 518.597 528.769 518.731 528.869C518.864 528.969 518.891 529.16 518.792 529.294C517.694 530.776 516.681 532.369 515.749 534.057C513.78 537.627 512.257 541.454 511.127 545.282C510.731 546.621 510.413 547.865 510.165 548.98L510.115 549.209C510.056 549.482 510.005 549.731 509.962 549.954L509.934 550.1L509.884 550.375C509.856 550.541 509.7 550.652 509.536 550.624C509.372 550.596 509.261 550.44 509.289 550.274L509.306 550.176C509.32 550.098 509.338 550.005 509.358 549.898L509.408 549.645C509.457 549.404 509.513 549.138 509.577 548.848L509.632 548.604C509.874 547.539 510.178 546.365 510.549 545.108C511.691 541.241 513.23 537.374 515.222 533.762C516.167 532.05 517.194 530.435 518.309 528.931Z" fill="#253368"/>
<path d="M523.576 491.037C523.691 491.148 523.7 491.33 523.598 491.451L523.585 491.466C523.579 491.472 523.566 491.486 523.547 491.507L523.473 491.588L523.43 491.637C523.3 491.782 523.149 491.958 522.979 492.163C522.491 492.751 521.946 493.459 521.36 494.287C519.68 496.657 517.999 499.511 516.43 502.853C513.817 508.416 511.782 514.761 510.548 521.895C509.051 530.556 508.803 540.019 510.029 550.288C510.049 550.455 509.931 550.606 509.765 550.626C509.6 550.646 509.45 550.528 509.43 550.361C508.197 540.032 508.447 530.51 509.955 521.79C511.197 514.602 513.249 508.205 515.885 502.593C517.47 499.218 519.169 496.333 520.869 493.934L521.001 493.749C521.525 493.018 522.015 492.382 522.461 491.841L522.517 491.773C522.677 491.58 522.821 491.412 522.947 491.269L522.981 491.231C523.021 491.187 523.056 491.148 523.087 491.114L523.15 491.046C523.265 490.925 523.456 490.921 523.576 491.037Z" fill="#253368"/>
<path d="M497.486 509.048C497.629 508.961 497.814 509.007 497.9 509.15L497.931 509.202C497.955 509.243 497.983 509.292 498.016 509.349L498.063 509.432C498.144 509.575 498.234 509.74 498.335 509.925L498.417 510.08C498.724 510.655 499.06 511.321 499.419 512.074L499.468 512.178C500.638 514.648 501.807 517.536 502.898 520.819C505.954 530.009 507.812 540.441 507.882 551.925C507.883 552.092 507.749 552.229 507.582 552.23C507.416 552.231 507.28 552.096 507.279 551.928C507.21 540.512 505.363 530.144 502.327 521.012C501.263 517.813 500.126 514.992 498.987 512.573L498.924 512.439C498.535 511.618 498.172 510.901 497.845 510.291L497.747 510.109C497.653 509.935 497.568 509.783 497.493 509.651L497.457 509.589L497.385 509.465C497.299 509.322 497.344 509.135 497.486 509.048Z" fill="#253368"/>
<path fill-rule="evenodd" clip-rule="evenodd" d="M520.684 566.992H494.63C493.222 566.992 492.07 565.831 492.07 564.412V545.259C492.07 543.839 493.222 542.678 494.63 542.678H520.684C522.092 542.678 523.245 543.839 523.245 545.259V564.412C523.245 565.831 522.092 566.992 520.684 566.992Z" fill="#253368"/>
<path fill-rule="evenodd" clip-rule="evenodd" d="M385.004 559.371H413.348V537.1H385.004V559.371Z" fill="#253368"/>
<path fill-rule="evenodd" clip-rule="evenodd" d="M430.524 566.998H368.773C366.257 566.998 364.217 564.958 364.217 562.442C364.217 559.926 366.257 557.887 368.773 557.887H430.524C433.039 557.887 435.079 559.926 435.079 562.442C435.079 564.958 433.039 566.998 430.524 566.998Z" fill="#04395E"/>
<path fill-rule="evenodd" clip-rule="evenodd" d="M494.409 538.546H302.588C297.879 538.546 294.062 534.729 294.062 530.02V413.11C294.062 408.401 297.879 404.584 302.588 404.584H494.409C499.117 404.584 502.935 408.401 502.935 413.11V530.02C502.935 534.729 499.117 538.546 494.409 538.546Z" fill="#04395E"/>
<path fill-rule="evenodd" clip-rule="evenodd" d="M490.479 531.622H305.549C303.51 531.622 301.857 529.936 301.857 527.857V417.606C301.857 415.526 303.51 413.84 305.549 413.84H490.479C492.519 413.84 494.172 415.526 494.172 417.606V527.857C494.172 529.936 492.519 531.622 490.479 531.622Z" fill="#FBF3E6"/>
<path fill-rule="evenodd" clip-rule="evenodd" d="M454.04 439.934H342.826V432.264C342.826 430.6 344.18 429.251 345.85 429.251H451.016C452.686 429.251 454.04 430.6 454.04 432.264V439.934Z" fill="#41D3BD"/>
<path fill-rule="evenodd" clip-rule="evenodd" d="M350.624 434.267C350.624 435.311 349.779 436.157 348.737 436.157C347.696 436.157 346.851 435.311 346.851 434.267C346.851 433.223 347.696 432.376 348.737 432.376C349.779 432.376 350.624 433.223 350.624 434.267Z" fill="#FF7946"/>
<path fill-rule="evenodd" clip-rule="evenodd" d="M357.668 434.267C357.668 435.311 356.823 436.157 355.781 436.157C354.74 436.157 353.895 435.311 353.895 434.267C353.895 433.223 354.74 432.376 355.781 432.376C356.823 432.376 357.668 433.223 357.668 434.267Z" fill="#FAAD14"/>
<path fill-rule="evenodd" clip-rule="evenodd" d="M364.712 434.267C364.712 435.311 363.868 436.157 362.826 436.157C361.784 436.157 360.939 435.311 360.939 434.267C360.939 433.223 361.784 432.376 362.826 432.376C363.868 432.376 364.712 433.223 364.712 434.267Z" fill="#7CB305"/>
<path fill-rule="evenodd" clip-rule="evenodd" d="M346.194 513.635C344.334 513.635 342.826 512.288 342.826 510.626V438.989H454.046V510.626C454.046 512.288 452.538 513.635 450.678 513.635H346.194Z" fill="#E4EBF7"/>
<path d="M445.244 445.153H380.842C380.101 445.153 379.5 445.754 379.5 446.495V506.576C379.5 507.317 380.101 507.918 380.842 507.918H445.244C445.986 507.918 446.587 507.317 446.587 506.576V446.495C446.587 445.754 445.986 445.153 445.244 445.153Z" fill="white"/>
<path d="M373.238 445.041H351.324C350.583 445.041 349.982 445.642 349.982 446.383V506.464C349.982 507.205 350.583 507.806 351.324 507.806H373.238C373.979 507.806 374.58 507.205 374.58 506.464V446.383C374.58 445.642 373.979 445.041 373.238 445.041Z" fill="white"/>
<path d="M368.408 469.699H356.111C355.69 469.699 355.349 470.04 355.349 470.461V472.347C355.349 472.768 355.69 473.11 356.111 473.11H368.408C368.829 473.11 369.171 472.768 369.171 472.347V470.461C369.171 470.04 368.829 469.699 368.408 469.699Z" fill="#ADC6FF"/>
<path d="M368.42 476.312H356.099C355.685 476.312 355.349 476.648 355.349 477.062V478.868C355.349 479.283 355.685 479.619 356.099 479.619H368.42C368.835 479.619 369.171 479.283 369.171 478.868V477.062C369.171 476.648 368.835 476.312 368.42 476.312Z" fill="#FF7946"/>
<path d="M368.42 482.812H356.099C355.685 482.812 355.349 483.149 355.349 483.563V485.369C355.349 485.784 355.685 486.12 356.099 486.12H368.42C368.835 486.12 369.171 485.784 369.171 485.369V483.563C369.171 483.149 368.835 482.812 368.42 482.812Z" fill="#FAAD14"/>
<path d="M368.42 489.313H356.099C355.685 489.313 355.349 489.649 355.349 490.064V491.87C355.349 492.284 355.685 492.621 356.099 492.621H368.42C368.835 492.621 369.171 492.284 369.171 491.87V490.064C369.171 489.649 368.835 489.313 368.42 489.313Z" fill="#597EF7"/>
<path d="M425.566 474.07H387.103C386.609 474.07 386.208 474.47 386.208 474.965V474.968C386.208 475.462 386.609 475.863 387.103 475.863H425.566C426.06 475.863 426.461 475.462 426.461 474.968V474.965C426.461 474.47 426.06 474.07 425.566 474.07Z" fill="#ADC6FF"/>
<path d="M425.566 483.261H387.103C386.609 483.261 386.208 483.661 386.208 484.156V484.159C386.208 484.653 386.609 485.054 387.103 485.054H425.566C426.06 485.054 426.461 484.653 426.461 484.159V484.156C426.461 483.661 426.06 483.261 425.566 483.261Z" fill="#ADC6FF"/>
<path d="M438.983 478.553H387.103C386.609 478.553 386.208 478.954 386.208 479.448V479.452C386.208 479.946 386.609 480.347 387.103 480.347H438.983C439.477 480.347 439.878 479.946 439.878 479.452V479.448C439.878 478.954 439.477 478.553 438.983 478.553Z" fill="#ADC6FF"/>
<path d="M438.088 451.206H387.998C387.01 451.206 386.208 452.007 386.208 452.995V469.59C386.208 470.579 387.01 471.38 387.998 471.38H438.088C439.077 471.38 439.878 470.579 439.878 469.59V452.995C439.878 452.007 439.077 451.206 438.088 451.206Z" fill="#597EF7"/>
<path d="M437.193 489.089H417.964C416.481 489.089 415.279 490.291 415.279 491.774V499.181C415.279 500.664 416.481 501.866 417.964 501.866H437.193C438.676 501.866 439.878 500.664 439.878 499.181V491.774C439.878 490.291 438.676 489.089 437.193 489.089Z" fill="#FF7946"/>
<path d="M362.259 462.82C365.669 462.82 368.434 460.024 368.434 456.576C368.434 453.127 365.669 450.331 362.259 450.331C358.849 450.331 356.085 453.127 356.085 456.576C356.085 460.024 358.849 462.82 362.259 462.82Z" fill="#FAAD14"/>
<path d="M362.259 462.82C364.039 462.821 365.728 462.026 366.873 460.648C365.97 458.916 364.194 457.832 362.258 457.832C360.322 457.832 358.546 458.916 357.644 460.648C358.789 462.027 360.479 462.822 362.259 462.82Z" fill="#253368"/>
<path d="M362.292 458.08C363.574 458.08 364.614 457.029 364.614 455.732C364.614 454.435 363.574 453.383 362.292 453.383C361.01 453.383 359.97 454.435 359.97 455.732C359.97 457.029 361.01 458.08 362.292 458.08Z" fill="#253368"/>
<defs>
<clipPath id="clip0">
<rect width="45.1095" height="45.1095" fill="white" transform="translate(554.44 455.873) rotate(140.955)"/>
</clipPath>
</defs>
</svg>
