<svg width="640" height="940" viewBox="0 0 640 940" fill="none" xmlns="http://www.w3.org/2000/svg">
<path fill-rule="evenodd" clip-rule="evenodd" d="M135.307 596.74C160.776 584.694 175.955 616.288 163.146 633.879C147.516 655.345 139.509 680.045 135.05 687.487C131.289 693.765 120.986 709.07 108.579 702.016C97.161 695.523 103.384 670.043 103.384 670.043C103.384 670.043 103.888 611.602 135.307 596.74Z" fill="#5B8C00"/>
<path fill-rule="evenodd" clip-rule="evenodd" d="M58.7029 697.11C50.0445 685.428 46.8831 668.665 56.5474 664.366C65.8131 660.245 81.1616 670.392 88.2709 689.922C95.3799 709.452 99.4815 723.493 92.5274 725.934C81.118 729.94 70.139 712.538 58.7029 697.11Z" fill="#5B8C00"/>
<path fill-rule="evenodd" clip-rule="evenodd" d="M149.729 697.997C139.936 709.473 125.804 732.559 116.951 724.474C111.585 719.574 118.758 696.368 138.394 683.742C155.095 673.002 159.522 686.521 149.729 697.997Z" fill="#7CB305"/>
<path fill-rule="evenodd" clip-rule="evenodd" d="M56.0186 618.357C59.7426 615.851 64.4277 615.279 68.7023 616.648C74.6681 618.559 83.7214 624.249 92.6816 640.579C104.38 661.9 110.47 685.274 109.266 700.08C108.479 709.762 96.5502 713.937 89.877 706.877C86.8123 703.634 83.5696 698.636 80.3969 691.054C67.6286 660.542 55.6912 641.422 54.2675 639.502C50.4692 634.379 47.7534 623.918 56.0186 618.357Z" fill="#7CB305"/>
<path fill-rule="evenodd" clip-rule="evenodd" d="M64.582 630.527C64.7083 632.034 63.5895 633.357 62.0831 633.483C60.5765 633.61 59.253 632.491 59.1264 630.985C59.0001 629.478 60.119 628.155 61.6256 628.028C63.1319 627.902 64.4555 629.021 64.582 630.527Z" fill="white"/>
<path fill-rule="evenodd" clip-rule="evenodd" d="M87.8326 642.214C87.9591 643.72 86.8403 645.044 85.3337 645.171C83.8271 645.297 82.5035 644.178 82.377 642.672C82.2507 641.165 83.3696 639.842 84.8762 639.715C86.3825 639.589 87.7063 640.708 87.8326 642.214Z" fill="white"/>
<path fill-rule="evenodd" clip-rule="evenodd" d="M83.9358 673.332C84.0806 675.057 82.7993 676.573 81.074 676.718C79.3487 676.862 77.8328 675.581 77.6882 673.856C77.5434 672.131 78.8247 670.615 80.55 670.47C82.2751 670.325 83.7909 671.606 83.9358 673.332Z" fill="white"/>
<path fill-rule="evenodd" clip-rule="evenodd" d="M155.35 626.828C155.35 629.276 153.365 631.261 150.917 631.261C148.468 631.261 146.484 629.276 146.484 626.828C146.484 624.379 148.468 622.395 150.917 622.395C153.365 622.395 155.35 624.379 155.35 626.828Z" fill="white"/>
<path fill-rule="evenodd" clip-rule="evenodd" d="M119.661 640.366C119.661 642.814 117.676 644.799 115.228 644.799C112.78 644.799 110.795 642.814 110.795 640.366C110.795 637.917 112.78 635.932 115.228 635.932C117.676 635.932 119.661 637.917 119.661 640.366Z" fill="white"/>
<path fill-rule="evenodd" clip-rule="evenodd" d="M131.22 670.459C131.22 671.482 130.39 672.312 129.367 672.312C128.344 672.312 127.514 671.482 127.514 670.459C127.514 669.435 128.344 668.606 129.367 668.606C130.39 668.606 131.22 669.435 131.22 670.459Z" fill="white"/>
<path fill-rule="evenodd" clip-rule="evenodd" d="M144.569 694.156C144.569 695.668 143.344 696.893 141.832 696.893C140.32 696.893 139.095 695.668 139.095 694.156C139.095 692.644 140.32 691.419 141.832 691.419C143.344 691.419 144.569 692.644 144.569 694.156Z" fill="white"/>
<path d="M80.6328 700.228C80.8879 699.984 81.292 699.994 81.5352 700.249L81.652 700.375L81.7404 700.473C81.9014 700.653 82.0873 700.867 82.2961 701.116C82.8893 701.823 83.5491 702.669 84.2585 703.651C86.2802 706.45 88.3 709.79 90.184 713.665C95.5603 724.724 98.7848 737.858 98.7848 753.021C98.7848 753.374 98.499 753.66 98.1465 753.66C97.794 753.66 97.5082 753.374 97.5082 753.021C97.5082 738.058 94.3302 725.113 89.0359 714.223C87.1851 710.417 85.2033 707.14 83.2236 704.398C82.5731 703.498 81.9672 702.718 81.4198 702.058L81.3179 701.936C81.1625 701.751 81.0211 701.586 80.8946 701.443L80.7345 701.264C80.6752 701.198 80.6339 701.154 80.6114 701.13C80.3681 700.875 80.3777 700.471 80.6328 700.228Z" fill="#253368"/>
<path d="M128.855 704.695C129.066 704.413 129.466 704.355 129.749 704.566C130.031 704.777 130.089 705.176 129.878 705.459C127.554 708.573 125.408 711.92 123.435 715.469C119.264 722.971 116.04 731.014 113.646 739.057C112.809 741.872 112.135 744.486 111.611 746.83L111.504 747.31C111.379 747.884 111.271 748.407 111.179 748.875L111.119 749.182L111.014 749.761C110.955 750.109 110.626 750.343 110.278 750.285C109.931 750.226 109.696 749.897 109.755 749.549L109.791 749.344C109.821 749.178 109.858 748.982 109.901 748.759L110.007 748.227C110.109 747.721 110.228 747.161 110.365 746.551L110.481 746.039C110.994 743.801 111.637 741.334 112.423 738.693C114.841 730.566 118.1 722.439 122.319 714.849C124.319 711.252 126.495 707.856 128.855 704.695Z" fill="#253368"/>
<path d="M140.01 625.061C140.254 625.295 140.272 625.677 140.057 625.932L140.029 625.963C140.016 625.976 139.989 626.005 139.948 626.049L139.791 626.22L139.7 626.322C139.425 626.628 139.106 626.997 138.745 627.428C137.712 628.664 136.559 630.152 135.316 631.892C131.759 636.872 128.2 642.87 124.876 649.892C119.343 661.584 115.033 674.918 112.421 689.909C109.25 708.112 108.725 727.997 111.321 749.579C111.363 749.929 111.113 750.247 110.763 750.289C110.413 750.331 110.095 750.081 110.053 749.731C107.442 728.026 107.971 708.015 111.164 689.69C113.796 674.584 118.141 661.14 123.722 649.346C127.079 642.254 130.677 636.191 134.277 631.15L134.556 630.762C135.666 629.225 136.704 627.888 137.648 626.75L137.766 626.609C138.105 626.203 138.41 625.85 138.678 625.55L138.75 625.469C138.833 625.376 138.908 625.294 138.974 625.222L139.107 625.08C139.351 624.825 139.755 624.817 140.01 625.061Z" fill="#253368"/>
<path d="M84.7603 662.912C85.0618 662.729 85.4543 662.826 85.637 663.127L85.7011 663.235C85.7521 663.321 85.8122 663.424 85.8808 663.544L85.981 663.719C86.1522 664.02 86.3445 664.366 86.5565 664.756L86.732 665.081C87.3811 666.289 88.0926 667.688 88.8523 669.272L88.9561 669.489C91.4338 674.68 93.9104 680.75 96.2211 687.648C102.691 706.962 106.628 728.884 106.775 753.018C106.777 753.37 106.493 753.658 106.14 753.66C105.788 753.662 105.5 753.378 105.498 753.025C105.352 729.033 101.44 707.244 95.0107 688.054C92.7586 681.331 90.3492 675.403 87.938 670.32L87.8041 670.039C86.9799 668.312 86.2128 666.805 85.5208 665.524L85.3124 665.141C85.1125 664.776 84.9326 664.456 84.7742 664.18L84.6989 664.05L84.5452 663.789C84.3625 663.487 84.4588 663.095 84.7603 662.912Z" fill="#253368"/>
<path fill-rule="evenodd" clip-rule="evenodd" d="M133.885 784.682H78.7122C75.7297 784.682 73.2896 782.242 73.2896 779.26V739.009C73.2896 736.026 75.7297 733.586 78.7122 733.586H133.885C136.867 733.586 139.308 736.026 139.308 739.009V779.26C139.308 782.242 136.867 784.682 133.885 784.682Z" fill="#253368"/>
<path d="M98.7382 265.283C98.7382 254.237 107.692 245.283 118.738 245.283H400.626C411.671 245.283 420.626 254.237 420.626 265.283V536.165C420.626 547.211 411.671 556.165 400.626 556.165H118.738C107.692 556.165 98.7382 547.211 98.7382 536.165V265.283Z" fill="#FF9D00"/>
<path d="M213.144 618.423C216.934 616.856 218.695 612.4 217.073 608.477L214.135 601.37L207.268 604.209C203.477 605.776 201.717 610.232 203.338 614.155C204.96 618.078 209.353 619.99 213.144 618.423Z" fill="#0ACF83"/>
<path d="M191.558 585.656C189.93 581.72 191.686 577.254 195.477 575.687L202.345 572.848L208.24 587.109L201.373 589.948C197.582 591.515 193.185 589.593 191.558 585.656Z" fill="#F24E1E"/>
<path d="M202.344 572.848L209.212 570.009C213.002 568.442 217.4 570.364 219.027 574.3C220.654 578.236 218.898 582.703 215.107 584.27L208.24 587.109L202.344 572.848Z" fill="#FF7262"/>
<path d="M224.903 588.514C226.53 592.45 224.774 596.917 220.983 598.484C217.193 600.051 212.795 598.128 211.168 594.192C209.541 590.256 211.297 585.79 215.088 584.223C218.879 582.655 223.276 584.578 224.903 588.514Z" fill="#1ABCFE"/>
<path d="M197.434 599.87C195.807 595.934 197.563 591.468 201.353 589.901L208.221 587.062L214.116 601.323L207.249 604.162C203.458 605.729 199.061 603.806 197.434 599.87Z" fill="#A259FF"/>
<path fill-rule="evenodd" clip-rule="evenodd" d="M330.169 332.008H184.888V318.399C184.888 315.447 187.177 313.053 190.001 313.053H325.056C327.88 313.053 330.169 315.447 330.169 318.399V332.008Z" fill="#253368"/>
<path fill-rule="evenodd" clip-rule="evenodd" d="M325.056 463.047H190.001C187.177 463.047 184.888 460.653 184.888 457.701V330.415H330.169V457.701C330.169 460.653 327.88 463.047 325.056 463.047Z" fill="#E4EBF7"/>
<path fill-rule="evenodd" clip-rule="evenodd" d="M196.694 321.874C196.694 323.727 195.257 325.229 193.485 325.229C191.713 325.229 190.276 323.727 190.276 321.874C190.276 320.022 191.713 318.52 193.485 318.52C195.257 318.52 196.694 320.022 196.694 321.874Z" fill="#FF7946"/>
<path fill-rule="evenodd" clip-rule="evenodd" d="M208.678 321.874C208.678 323.727 207.242 325.229 205.469 325.229C203.697 325.229 202.26 323.727 202.26 321.874C202.26 320.022 203.697 318.52 205.469 318.52C207.242 318.52 208.678 320.022 208.678 321.874Z" fill="#FAAD14"/>
<path fill-rule="evenodd" clip-rule="evenodd" d="M220.663 321.874C220.663 323.727 219.226 325.229 217.454 325.229C215.682 325.229 214.245 323.727 214.245 321.874C214.245 320.022 215.682 318.52 217.454 318.52C219.226 318.52 220.663 320.022 220.663 321.874Z" fill="#7CB305"/>
<path fill-rule="evenodd" clip-rule="evenodd" d="M200.59 445.006C199.709 445.006 198.994 444.259 198.994 443.339V346.713C198.994 345.792 199.709 345.046 200.59 345.046H316.054C316.935 345.046 317.65 345.792 317.65 346.713V443.339C317.65 444.259 316.935 445.006 316.054 445.006H200.59Z" fill="white"/>
<path fill-rule="evenodd" clip-rule="evenodd" d="M278.183 401.141C271.253 401.141 265.623 395.23 265.623 387.92C265.599 380.657 271.212 374.749 278.159 374.724C278.167 374.724 278.175 374.724 278.183 374.724C285.108 374.724 290.738 380.635 290.738 387.941C290.726 395.23 285.108 401.136 278.183 401.141ZM309.431 383.322C309.187 381.882 307.868 380.408 306.49 380.092L305.462 379.844C302.968 379.054 300.855 377.297 299.557 374.934C298.245 372.547 297.856 369.725 298.47 367.048L298.793 366.035C299.206 364.632 298.671 362.693 297.596 361.734C297.596 361.734 296.631 360.878 293.923 359.231C291.202 357.593 290.037 357.136 290.037 357.136C288.714 356.626 286.864 357.116 285.895 358.194L285.182 358.997C283.3 360.88 280.792 361.926 278.187 361.915C275.567 361.923 273.046 360.868 271.155 358.972L270.47 358.19C269.517 357.112 267.655 356.634 266.328 357.136C266.328 357.136 265.147 357.593 262.43 359.231C259.71 360.89 258.753 361.746 258.753 361.746C257.682 362.697 257.147 364.615 257.56 366.035L257.855 367.06C258.463 369.734 258.074 372.549 256.769 374.934C255.472 377.317 253.343 379.081 250.828 379.857L249.84 380.092C248.485 380.421 247.151 381.874 246.899 383.322C246.899 383.322 246.674 384.623 246.674 387.924C246.674 391.225 246.899 392.522 246.899 392.522C247.143 393.979 248.462 395.436 249.84 395.753L250.804 395.987C253.324 396.765 255.458 398.535 256.753 400.927C258.107 403.409 258.434 406.232 257.84 408.813L257.56 409.813C257.147 411.217 257.682 413.155 258.757 414.114C258.757 414.114 259.722 414.97 262.43 416.617C265.151 418.263 266.32 418.712 266.32 418.712C267.639 419.222 269.493 418.733 270.462 417.654L271.139 416.889C275.076 412.95 281.281 412.954 285.214 416.897L285.891 417.666C286.844 418.741 288.706 419.222 290.033 418.72C290.033 418.72 291.214 418.263 293.935 416.625C296.651 414.979 297.604 414.123 297.604 414.123C298.679 413.176 299.214 411.241 298.801 409.821L298.506 408.784C297.896 406.12 298.285 403.313 299.592 400.939C300.895 398.555 303.025 396.787 305.541 396L306.51 395.765C307.864 395.436 309.199 393.983 309.451 392.534C309.451 392.534 309.675 391.233 309.675 387.936C309.651 384.631 309.431 383.322 309.431 383.322Z" fill="#597EF7"/>
<path fill-rule="evenodd" clip-rule="evenodd" d="M234.754 417.845C231.669 419.679 227.731 418.538 225.961 415.283C224.192 412.056 225.26 407.941 228.347 406.091L228.357 406.085C231.44 404.252 235.378 405.394 237.147 408.646C238.907 411.895 237.836 416.011 234.754 417.845ZM244.351 401.644C243.893 401.067 242.949 400.76 242.259 400.983L241.742 401.145C240.44 401.454 239.074 401.231 237.924 400.522C236.762 399.807 235.905 398.653 235.53 397.299L235.429 396.763C235.273 396.028 234.565 395.307 233.855 395.164C233.855 395.164 233.218 395.039 231.614 395.023C230.006 395.013 229.377 395.118 229.377 395.118C228.664 395.241 227.959 395.949 227.789 396.685L227.666 397.231C227.283 398.568 226.42 399.697 225.258 400.382C224.093 401.078 222.716 401.276 221.415 400.932L220.921 400.765C220.235 400.538 219.291 400.818 218.822 401.392C218.822 401.392 218.406 401.909 217.594 403.357C216.784 404.815 216.565 405.449 216.565 405.449C216.319 406.156 216.545 407.152 217.073 407.674L217.452 408.053C218.37 409.082 218.879 410.438 218.875 411.845C218.875 413.249 218.354 414.598 217.422 415.609L217.039 415.975C216.516 416.48 216.274 417.48 216.512 418.192C216.512 418.192 216.727 418.83 217.527 420.3C218.326 421.769 218.74 422.287 218.74 422.287C219.201 422.871 220.141 423.171 220.831 422.948L221.317 422.797C222.628 422.476 224.006 422.699 225.162 423.421C226.366 424.168 227.195 425.338 227.555 426.645L227.673 427.164C227.828 427.898 228.536 428.619 229.247 428.762C229.247 428.762 229.884 428.888 231.488 428.904C233.098 428.917 233.727 428.807 233.727 428.807C234.438 428.686 235.145 427.977 235.315 427.24L235.431 426.72C236.23 423.925 238.993 422.284 241.699 422.999L242.187 423.162C242.871 423.389 243.817 423.11 244.286 422.535C244.286 422.535 244.701 422.02 245.516 420.57C246.326 419.118 246.543 418.485 246.543 418.485C246.792 417.779 246.562 416.776 246.035 416.254L245.652 415.87C244.736 414.845 244.229 413.493 244.236 412.09C244.239 410.684 244.759 409.333 245.689 408.317L246.063 407.956C246.586 407.451 246.829 406.451 246.59 405.739C246.59 405.739 246.375 405.101 245.577 403.633C244.766 402.168 244.351 401.644 244.351 401.644Z" fill="#9254DC"/>
<path fill-rule="evenodd" clip-rule="evenodd" d="M229.572 362.171H211.913C210.759 362.171 209.815 361.184 209.815 359.978V359.794C209.815 358.588 210.759 357.602 211.913 357.602H229.572C230.725 357.602 231.669 358.588 231.669 359.794V359.978C231.669 361.184 230.725 362.171 229.572 362.171Z" fill="#ADC6FF"/>
<path fill-rule="evenodd" clip-rule="evenodd" d="M224.632 372.862H213.705C212.498 372.862 211.52 371.84 211.52 370.578C211.52 369.316 212.498 368.293 213.705 368.293H224.632C225.839 368.293 226.818 369.316 226.818 370.578C226.818 371.84 225.839 372.862 224.632 372.862Z" fill="#ADC6FF"/>
<path fill-rule="evenodd" clip-rule="evenodd" d="M113.197 222.752C84.6648 222.752 61.5352 245.882 61.5352 274.414C61.5352 302.946 84.6648 326.076 113.197 326.076C141.729 326.076 164.859 302.946 164.859 274.414C164.859 245.882 141.729 222.752 113.197 222.752Z" fill="#8BBC06"/>
<path fill-rule="evenodd" clip-rule="evenodd" d="M104.872 291.964L101.611 288.702L133.217 256.981C134.298 255.9 136.05 255.9 137.131 256.981L138.435 258.285C139.516 259.366 139.516 261.118 138.435 262.199L108.786 291.964C107.706 293.044 105.953 293.044 104.872 291.964Z" fill="white"/>
<path fill-rule="evenodd" clip-rule="evenodd" d="M112.042 288.701L108.781 291.963C107.7 293.044 105.947 293.044 104.867 291.963L91.879 278.975C90.7981 277.895 90.7981 276.142 91.879 275.062L93.1836 273.757C94.2644 272.676 96.0168 272.676 97.0976 273.757L112.042 288.701Z" fill="white"/>
<path fill-rule="evenodd" clip-rule="evenodd" d="M231.133 632.462L215.479 681.636H224.943L240.596 632.462H231.133Z" fill="#597EF7"/>
<path fill-rule="evenodd" clip-rule="evenodd" d="M208.811 638.053H198.765H192.432C191.938 638.053 191.537 638.454 191.537 638.948V645.281V668.818V675.151C191.537 675.646 191.938 676.046 192.432 676.046H198.765H208.811C209.305 676.046 209.706 675.646 209.706 675.151V669.713C209.706 669.219 209.305 668.818 208.811 668.818H198.765V645.281H208.811C209.305 645.281 209.706 644.88 209.706 644.386V638.948C209.706 638.454 209.305 638.053 208.811 638.053Z" fill="#CCD7EE"/>
<path fill-rule="evenodd" clip-rule="evenodd" d="M263.643 638.053H257.31H247.264C246.77 638.053 246.369 638.454 246.369 638.948V644.386C246.369 644.88 246.77 645.281 247.264 645.281H257.31V668.818H247.264C246.77 668.818 246.369 669.219 246.369 669.713V675.151C246.369 675.646 246.77 676.046 247.264 676.046H257.31H263.643C264.137 676.046 264.538 675.646 264.538 675.151V669.713V644.386V638.948C264.538 638.454 264.137 638.053 263.643 638.053Z" fill="#CCD7EE"/>
<g clip-path="url(#clip0)">
<path d="M181.489 745.752L195.09 753.708" stroke="#FF9D00" stroke-width="1.88133" stroke-linecap="round"/>
<path d="M181.192 747.877C182.857 746.799 183.328 744.563 182.244 742.883C181.16 741.203 178.932 740.714 177.267 741.792C175.602 742.87 175.131 745.105 176.215 746.786C177.299 748.466 179.527 748.954 181.192 747.877Z" fill="#023047"/>
<path d="M217.687 732.883C219.352 731.806 219.823 729.57 218.739 727.89C217.655 726.209 215.427 725.721 213.762 726.798C212.097 727.876 211.626 730.112 212.71 731.792C213.794 733.472 216.022 733.961 217.687 732.883Z" fill="#023047"/>
<path d="M200.421 755.221L199.199 725.524" stroke="#FF9D00" stroke-width="1.88133" stroke-linecap="round"/>
<path d="M198.437 752.188C200.102 751.11 202.33 751.599 203.414 753.279C204.498 754.96 204.027 757.195 202.362 758.273C200.697 759.351 198.469 758.862 197.385 757.182C196.301 755.501 196.772 753.266 198.437 752.188Z" fill="#023047"/>
<path d="M199.063 719.683L211.285 727.267" stroke="#FF9D00" stroke-width="1.88133" stroke-linecap="round"/>
<path d="M202.576 720.444C202.158 722.388 200.246 723.625 198.306 723.208C196.365 722.791 195.131 720.877 195.549 718.934C195.966 716.99 197.878 715.753 199.819 716.17C201.759 716.587 202.993 718.501 202.576 720.444Z" fill="#023047"/>
</g>
<path fill-rule="evenodd" clip-rule="evenodd" d="M427.024 740.395H491.863V727.143H427.024V740.395Z" fill="#253368"/>
<path fill-rule="evenodd" clip-rule="evenodd" d="M475.729 591.815L493.093 805.769H508.002L490.639 591.815H475.729Z" fill="#597EF7"/>
<path fill-rule="evenodd" clip-rule="evenodd" d="M428.248 591.815L410.884 805.769H425.794L443.157 591.815H428.248Z" fill="#597EF7"/>
<path fill-rule="evenodd" clip-rule="evenodd" d="M421.918 605.74C414.226 605.74 407.991 599.506 407.991 591.815C407.991 584.125 414.226 577.888 421.918 577.888H498.331C506.022 577.888 512.258 584.125 512.258 591.815C512.258 599.506 506.022 605.74 498.331 605.74H421.918Z" fill="#A3B5D6"/>
<path fill-rule="evenodd" clip-rule="evenodd" d="M305.213 757.359C287.631 764.905 278.515 754.264 278.515 754.264C278.515 754.264 277.991 750.522 281.049 746.316C284.875 741.053 293.461 739.132 303.588 729.042C311.367 721.291 312.535 704.331 312.535 704.331C318.138 695.947 336.528 701.077 336.528 701.077C336.528 701.077 340.575 727.958 340.275 737.83C340.275 737.83 339.659 743.267 326.144 745.299C316.032 746.818 315.743 752.839 305.213 757.359Z" fill="#4E5C93"/>
<path fill-rule="evenodd" clip-rule="evenodd" d="M284.948 568.255C284.175 556.389 292.906 546.028 304.729 544.775L424.152 532.124C439.431 530.505 452.986 541.925 453.985 557.257C454.982 572.589 443.02 585.67 427.661 586.044L307.606 588.973C295.719 589.263 285.72 580.121 284.948 568.255Z" fill="#ADC6FF"/>
<path fill-rule="evenodd" clip-rule="evenodd" d="M339.643 714.019L327.657 565.058C326.658 552.634 315.524 543.537 303.152 545.033H303.15C290.915 546.51 282.295 557.773 284.067 569.971L306.955 718.125C306.955 718.125 321.737 723.47 339.643 714.019Z" fill="#ADC6FF"/>
<path fill-rule="evenodd" clip-rule="evenodd" d="M341.752 779.829C324.17 787.376 315.054 776.734 315.054 776.734C315.054 776.734 314.53 772.993 317.587 768.787C321.412 763.523 329.999 761.603 340.126 751.513C347.906 743.761 352.993 731.746 352.993 731.746C358.596 723.361 376.385 728.358 376.385 728.358C376.385 728.358 377.114 750.429 376.814 760.3C376.814 760.3 376.198 765.738 362.683 767.77C352.571 769.288 352.28 775.309 341.752 779.829Z" fill="#4E5C93"/>
<path fill-rule="evenodd" clip-rule="evenodd" d="M332.918 413.764C328.211 415.845 326.128 420.808 328.16 425.113L366.807 507.051C370.433 514.739 380.627 518.113 389.047 514.412C397.451 510.717 400.602 501.502 395.929 494.288L346.037 417.279C343.402 413.212 337.65 411.672 332.918 413.764Z" fill="#FFC999"/>
<path fill-rule="evenodd" clip-rule="evenodd" d="M377.423 514.098C386.516 516.22 395.685 510.873 398.315 501.914L422.154 420.758C425.659 408.822 418.411 396.394 406.298 393.566C394.325 390.772 382.431 398.493 380.109 410.565L364.135 493.627C362.349 502.911 368.216 511.949 377.423 514.098Z" fill="#FFC999"/>
<path fill-rule="evenodd" clip-rule="evenodd" d="M368.604 464.032L408.833 473.42L422.356 419.803C425.317 408.067 418.077 396.185 406.289 393.434C394.503 390.683 382.752 398.133 380.211 409.967L368.604 464.032Z" fill="#597EF7"/>
<path fill-rule="evenodd" clip-rule="evenodd" d="M428.791 378.052L426.982 342.331L459.112 340.437L464.722 374.169C466.415 384.357 459.254 393.895 448.996 395.11C438.594 396.344 429.321 388.514 428.791 378.052Z" fill="#FFC999"/>
<path fill-rule="evenodd" clip-rule="evenodd" d="M418.271 339.552C418.271 339.552 412.777 335.099 411.138 338.747C409.5 342.395 414.576 354.104 419.902 353.774C427.013 353.334 418.271 339.552 418.271 339.552Z" fill="#FFC999"/>
<path fill-rule="evenodd" clip-rule="evenodd" d="M452.826 366.918C452.826 366.918 443.488 376.677 428.723 369.93C418.095 365.072 414.205 343.28 414.154 326.945C414.125 317.701 417.729 312.288 426.286 308.512C434.844 304.736 458.924 301.72 462.334 328.516C466.133 358.364 452.826 366.918 452.826 366.918Z" fill="#FFC999"/>
<path d="M430.085 329.31C430.31 329.223 430.56 329.313 430.682 329.512L430.721 329.592L432.845 335.087C432.863 335.133 432.874 335.181 432.877 335.229L432.877 335.302L431.741 350.362L437.58 349.705C437.823 349.677 438.045 349.832 438.109 350.06L438.125 350.139C438.152 350.382 437.997 350.604 437.769 350.668L437.69 350.683L431.261 351.408C430.982 351.44 430.74 351.234 430.715 350.964L430.715 350.882L431.886 335.337L429.803 329.947C429.716 329.721 429.806 329.471 430.005 329.349L430.085 329.31Z" fill="#DD936F"/>
<path d="M449.84 325.126C450.529 324.9 451.271 325.276 451.496 325.965C451.722 326.654 451.346 327.396 450.657 327.621C449.273 328.074 446.937 328.258 443.139 328.322L439.894 328.351L437.451 328.369C436.726 328.377 436.131 327.797 436.122 327.072C436.113 326.347 436.694 325.752 437.419 325.743L442.271 325.708L443.419 325.69C446.726 325.625 448.834 325.455 449.84 325.126Z" fill="#253368"/>
<path d="M442.56 353.401C442.914 353.263 443.313 353.438 443.452 353.791C443.59 354.145 443.415 354.544 443.062 354.682L442.896 354.744C442.732 354.803 442.5 354.881 442.205 354.972C441.523 355.183 440.73 355.393 439.832 355.589C437.404 356.118 434.666 356.446 431.67 356.477C431.29 356.481 430.979 356.176 430.975 355.796C430.972 355.416 431.276 355.105 431.656 355.101C434.555 355.072 437.199 354.754 439.54 354.245C440.398 354.058 441.154 353.858 441.798 353.658L442.328 353.486C442.43 353.451 442.507 353.422 442.56 353.401Z" fill="#FF7946"/>
<path fill-rule="evenodd" clip-rule="evenodd" d="M460.686 340.382L464.646 329.413C464.646 329.413 466.133 314.115 461.902 308.132C455.333 298.847 443.121 300.615 435.527 298.854C427.934 297.093 427.703 294.639 424.806 295.407C421.906 296.174 411.468 305.535 411.207 314.016C410.977 321.473 415.126 339.891 415.126 339.891C415.126 339.891 415.159 323.126 416.216 318.57C421.681 315.46 442.595 312.774 451.66 314.397C451.66 314.397 453.106 319.925 454.029 323.831C459.116 326.604 460.686 340.382 460.686 340.382Z" fill="#253368"/>
<path d="M449.943 368.201C450.183 368.074 450.481 368.165 450.609 368.405C450.737 368.645 450.646 368.943 450.406 369.071C442.281 373.392 435.517 373.567 430.288 371.246C429.572 370.929 428.952 370.588 428.429 370.245L428.18 370.077C427.993 369.947 427.857 369.841 427.773 369.769C427.566 369.592 427.542 369.281 427.72 369.075C427.897 368.868 428.208 368.845 428.414 369.022L428.512 369.101C428.614 369.18 428.766 369.289 428.968 369.421C429.448 369.735 430.022 370.051 430.687 370.346C435.643 372.545 442.089 372.379 449.943 368.201Z" fill="#DD936F"/>
<path d="M435.927 334.075C436.469 334.031 436.944 334.435 436.988 334.977C437.029 335.483 436.68 335.931 436.192 336.024L436.086 336.038L431.337 336.424C430.795 336.468 430.32 336.064 430.276 335.522C430.235 335.015 430.584 334.568 431.072 334.475L431.178 334.46L435.927 334.075Z" fill="#253368"/>
<path d="M433.332 336.838C434.215 336.747 435.122 336.89 436.009 337.18C436.428 337.316 436.754 337.455 436.954 337.556C437.439 337.801 437.634 338.394 437.389 338.879C437.161 339.332 436.63 339.533 436.165 339.358L435.938 339.255C435.808 339.198 435.624 339.126 435.398 339.052C434.751 338.841 434.103 338.739 433.534 338.798C432.941 338.859 432.479 339.088 432.129 339.532C431.791 339.959 431.172 340.031 430.745 339.694C430.318 339.357 430.246 338.738 430.583 338.311C431.283 337.424 432.236 336.951 433.332 336.838Z" fill="#253368"/>
<path d="M421.107 326.416C423.166 326.194 425.329 326.46 427.448 327.035C428.408 327.296 429.146 327.559 429.582 327.743C430.25 328.025 430.563 328.796 430.281 329.464C429.999 330.132 429.228 330.444 428.56 330.162L428.303 330.062C428.243 330.039 428.173 330.014 428.096 329.986C427.699 329.845 427.25 329.703 426.76 329.57C424.93 329.073 423.076 328.845 421.388 329.026C419.857 329.191 418.562 329.686 417.538 330.556C416.986 331.025 416.157 330.958 415.687 330.405C415.218 329.852 415.285 329.024 415.838 328.554C417.295 327.317 419.084 326.633 421.107 326.416Z" fill="#253368"/>
<path d="M438.86 359.258C439.131 359.233 439.371 359.432 439.396 359.702C439.419 359.946 439.26 360.165 439.031 360.225L438.952 360.239L435.087 360.602C434.816 360.627 434.576 360.428 434.55 360.158C434.527 359.914 434.686 359.695 434.915 359.635L434.994 359.621L438.86 359.258Z" fill="#DD936F"/>
<path d="M461.25 331.611C461.791 331.557 462.274 331.953 462.327 332.494C462.378 332.999 462.037 333.453 461.551 333.555L461.445 333.572L453.673 334.346C453.132 334.4 452.649 334.005 452.595 333.464C452.545 332.958 452.886 332.504 453.371 332.402L453.478 332.386L461.25 331.611Z" fill="#253368"/>
<path fill-rule="evenodd" clip-rule="evenodd" d="M452.849 331.885L438 333.282C436.963 333.379 436.201 334.296 436.307 335.332C436.502 337.265 436.904 340.356 437.657 342.962C438.544 346.038 441.54 347.69 444.738 347.538C448.731 347.348 452.301 347.016 453.91 344.782C456.366 341.379 455.205 336.266 454.887 333.53C454.772 332.526 453.854 331.79 452.849 331.885Z" fill="white"/>
<path d="M452.818 331.558L437.97 332.956C436.75 333.069 435.856 334.149 435.981 335.365C436.262 338.144 436.701 340.835 437.341 343.053C438.238 346.163 441.262 348.032 444.754 347.865L445.481 347.827C450.447 347.547 452.783 346.909 454.177 344.974C455.159 343.612 455.646 341.927 455.748 339.929C455.809 338.731 455.741 337.566 455.555 336.052L455.23 333.632C455.224 333.584 455.218 333.538 455.213 333.492C455.077 332.312 454.002 331.446 452.818 331.558ZM452.879 332.211C453.709 332.133 454.466 332.743 454.561 333.567L454.619 334.029L454.803 335.354L454.903 336.125C455.085 337.607 455.151 338.741 455.092 339.895C454.996 341.777 454.544 343.343 453.644 344.59C452.351 346.385 449.979 346.96 444.722 347.21C441.518 347.363 438.779 345.67 437.972 342.871C437.345 340.699 436.911 338.042 436.633 335.299C436.546 334.446 437.173 333.689 438.031 333.609L452.879 332.211Z" fill="#253368"/>
<path fill-rule="evenodd" clip-rule="evenodd" d="M429.674 333.899L412.863 335.481C412.472 337.997 413.966 347.439 417.042 349.204C421.098 350.864 428.821 349.253 429.84 347.077C431.386 343.774 431.507 337.742 431.232 335.175C431.15 334.394 430.458 333.826 429.674 333.899Z" fill="white"/>
<path d="M429.643 333.572L412.832 335.154C412.682 335.168 412.562 335.282 412.538 335.43C411.971 339.088 414.131 347.912 416.878 349.488C420.944 351.155 428.977 349.692 430.137 347.216C431.477 344.354 431.948 338.774 431.558 335.14C431.457 334.181 430.606 333.483 429.643 333.572ZM429.704 334.225C430.309 334.169 430.842 334.607 430.906 335.21C431.284 338.736 430.822 344.205 429.543 346.938C428.56 349.037 420.907 350.431 417.166 348.9L417.032 348.816C414.765 347.258 412.818 339.505 413.139 335.932L413.153 335.782L429.704 334.225Z" fill="#253368"/>
<path d="M454.351 330.857C454.891 330.792 455.382 331.177 455.447 331.717C455.508 332.221 455.177 332.682 454.693 332.794L454.587 332.813L436.227 335.028C435.687 335.093 435.197 334.708 435.131 334.168C435.071 333.664 435.402 333.203 435.885 333.091L435.991 333.072L454.351 330.857Z" fill="#253368"/>
<path d="M430.743 333.439C431.285 333.395 431.76 333.8 431.804 334.342C431.844 334.848 431.494 335.295 431.007 335.388L430.9 335.402L412.839 336.847C412.297 336.89 411.822 336.486 411.778 335.943C411.738 335.437 412.088 334.99 412.575 334.897L412.682 334.883L430.743 333.439Z" fill="#253368"/>
<path fill-rule="evenodd" clip-rule="evenodd" d="M462.012 331.748C463.642 329.548 466.5 328.616 468.873 330.583C472.7 333.751 471.41 347.613 462.475 349.387C458.991 349.373 459.469 335.18 462.012 331.748Z" fill="#FFC999"/>
<path d="M465.972 332.469C466.212 332.34 466.51 332.429 466.639 332.669C466.768 332.908 466.678 333.207 466.439 333.336L466.327 333.401C466.257 333.444 466.167 333.501 466.063 333.574C465.768 333.778 465.474 334.018 465.2 334.292C464.135 335.359 463.697 336.584 464.19 337.984C464.316 338.344 464.479 338.507 464.851 338.679L465.101 338.785C465.905 339.117 466.277 339.439 466.455 340.245C466.731 341.496 466.225 342.517 465.251 343.282C464.795 343.639 464.343 343.867 464.026 343.983C463.77 344.076 463.488 343.945 463.395 343.689C463.301 343.434 463.433 343.151 463.689 343.058L463.831 342.998C463.873 342.978 463.922 342.955 463.976 342.928C464.204 342.813 464.432 342.672 464.642 342.507C465.346 341.955 465.677 341.288 465.493 340.457C465.408 340.072 465.285 339.939 464.852 339.75L464.603 339.645C463.903 339.352 463.509 339.019 463.261 338.311C462.624 336.503 463.195 334.907 464.503 333.597C464.822 333.277 465.162 333 465.502 332.764C465.708 332.621 465.872 332.522 465.972 332.469Z" fill="#DD936F"/>
<path d="M424.749 338.19C426.642 338.012 428.297 339.582 428.491 341.65C428.527 342.029 428.249 342.364 427.871 342.4C427.493 342.435 427.157 342.158 427.122 341.779C426.995 340.429 425.97 339.456 424.878 339.559C423.786 339.662 422.961 340.809 423.087 342.16C423.122 342.538 422.844 342.873 422.466 342.909C422.088 342.944 421.752 342.666 421.717 342.288C421.524 340.219 422.856 338.367 424.749 338.19Z" fill="#253368"/>
<path d="M445.731 336.215C447.624 336.037 449.278 337.607 449.473 339.676C449.509 340.054 449.231 340.389 448.853 340.425C448.475 340.461 448.139 340.183 448.103 339.805C447.976 338.454 446.952 337.482 445.859 337.584C444.768 337.687 443.942 338.834 444.068 340.185C444.104 340.564 443.826 340.899 443.447 340.934C443.069 340.969 442.734 340.691 442.699 340.313C442.506 338.244 443.838 336.393 445.731 336.215Z" fill="#253368"/>
<path fill-rule="evenodd" clip-rule="evenodd" d="M496.824 497.862C496.824 497.862 496.941 463.701 498.893 448.304C501.102 430.86 510.606 397.096 504.353 394.432C498.099 391.766 471.194 381.236 471.194 381.236C471.194 381.236 459.308 382.676 445.947 385.613C435.37 387.938 436.794 381.273 423.966 383.479C418.534 384.413 392.681 392.428 391.275 397.491C381.822 431.527 410.915 499.228 410.915 499.228C410.915 499.228 406.723 509.713 412.186 515.874C415.26 519.024 414.828 517.595 431.745 517.526C451.002 517.449 491.198 516.2 494.099 515.148C503.435 511.761 496.824 497.862 496.824 497.862Z" fill="#597EF7"/>
<path fill-rule="evenodd" clip-rule="evenodd" d="M428.683 378.275L442.395 385.881L428.665 400.238L423.205 383.856L428.683 378.275Z" fill="#597EF7"/>
<path fill-rule="evenodd" clip-rule="evenodd" d="M442.078 386.219L454.335 403.155L472.052 382.059L464.076 372.561L442.078 386.219Z" fill="#597EF7"/>
<path d="M441.258 387.575C441.636 387.619 441.906 387.96 441.862 388.337L441.819 388.744L441.727 389.694L441.702 389.972C441.581 391.334 441.46 392.953 441.346 394.824L441.264 396.249C440.646 407.528 440.617 421.628 441.531 438.311C442.854 462.435 446.012 488.834 451.409 517.238C451.48 517.611 451.235 517.971 450.862 518.042C450.489 518.113 450.129 517.868 450.058 517.495C444.649 489.029 441.484 462.571 440.158 438.386L440.046 436.264C439.208 419.75 439.303 405.83 439.973 394.741L440.078 393.114C440.149 392.074 440.222 391.126 440.295 390.27L440.405 389.054L440.496 388.179C440.536 387.833 440.826 387.577 441.165 387.57L441.258 387.575Z" fill="#253368"/>
<path d="M482.031 420.227L467.021 420.819C463.186 420.966 459.176 421.118 455.037 421.271C454.654 421.285 454.356 421.61 454.375 421.993C454.639 427.171 455.062 431.564 455.601 435.229C455.912 437.346 456.244 439.104 456.579 440.528L456.656 440.851C456.762 441.286 456.862 441.662 456.955 441.982L457.109 442.483C457.126 442.537 457.141 442.579 457.152 442.61C457.199 442.738 457.283 442.85 457.394 442.931L470.236 452.272C470.481 452.45 470.814 452.447 471.055 452.265L483.133 443.149C483.311 443.015 483.413 442.802 483.406 442.579L482.747 420.893C482.735 420.51 482.414 420.211 482.031 420.227ZM481.393 421.629L482.02 442.264L470.633 450.86L458.381 441.948L458.327 441.77L458.222 441.41C458.15 441.152 458.074 440.857 457.992 440.525C457.642 439.089 457.291 437.267 456.962 435.029L456.883 434.481C456.442 431.351 456.084 427.697 455.835 423.484L455.786 422.619L467.074 422.193L481.393 421.629Z" fill="#253368"/>
<path fill-rule="evenodd" clip-rule="evenodd" d="M442.339 402.319C442.474 403.537 443.405 404.434 444.42 404.321C445.435 404.209 446.149 403.131 446.014 401.913C445.88 400.695 444.947 399.799 443.933 399.912C442.918 400.023 442.204 401.102 442.339 402.319Z" fill="white"/>
<path fill-rule="evenodd" clip-rule="evenodd" d="M442.886 427.17C443.02 428.387 443.952 429.284 444.967 429.171C445.982 429.06 446.696 427.982 446.56 426.763C446.426 425.545 445.494 424.65 444.48 424.761C443.465 424.874 442.751 425.953 442.886 427.17Z" fill="white"/>
<path fill-rule="evenodd" clip-rule="evenodd" d="M443.811 450.21C443.945 451.427 444.877 452.324 445.892 452.211C446.906 452.1 447.62 451.021 447.485 449.802C447.35 448.585 446.419 447.689 445.403 447.801C444.388 447.914 443.676 448.992 443.811 450.21Z" fill="white"/>
<path fill-rule="evenodd" clip-rule="evenodd" d="M445.909 475.178C446.044 476.395 446.976 477.292 447.991 477.179C449.005 477.068 449.718 475.989 449.584 474.772C449.449 473.553 448.518 472.658 447.502 472.77C446.487 472.882 445.775 473.96 445.909 475.178Z" fill="white"/>
<path fill-rule="evenodd" clip-rule="evenodd" d="M449.856 502.933C449.99 504.15 450.922 505.047 451.937 504.934C452.952 504.823 453.666 503.745 453.53 502.527C453.396 501.308 452.464 500.413 451.45 500.526C450.435 500.637 449.721 501.716 449.856 502.933Z" fill="white"/>
<path d="M471.273 380.903C471.506 380.604 471.938 380.55 472.238 380.784C472.51 380.996 472.579 381.372 472.414 381.664L472.358 381.749L457.679 400.583C457.452 400.875 457.041 400.931 456.746 400.727L456.669 400.665L441.805 386.916C441.526 386.659 441.509 386.223 441.767 385.945C442.001 385.691 442.382 385.654 442.659 385.843L442.739 385.907L457.054 399.147L471.273 380.903Z" fill="#253368"/>
<path d="M422.454 383.731C422.78 383.61 423.14 383.754 423.299 384.053L423.337 384.138L429.729 401.489L441.259 385.908C441.465 385.63 441.839 385.552 442.135 385.71L442.221 385.764C442.499 385.969 442.577 386.344 442.42 386.64L442.365 386.726L430.078 403.332C429.773 403.744 429.153 403.684 428.921 403.252L428.88 403.161L422.046 384.614C421.915 384.257 422.097 383.862 422.454 383.731Z" fill="#253368"/>
<path d="M398.928 420.597C399.305 420.556 399.645 420.828 399.686 421.206L400.159 425.474C403.903 458.925 406.858 476.037 413.95 500.571C413.995 500.726 413.984 500.892 413.919 501.039C410.961 507.76 411.37 512.218 413.753 514.952C414.161 515.42 414.596 515.793 415.029 516.079L415.228 516.205C415.289 516.242 415.343 516.273 415.391 516.299L415.464 516.338L416.322 516.391C420.617 516.651 425.262 516.811 430.207 516.879L431.354 516.893C441.441 517.002 452.213 516.74 462.936 516.229L464.945 516.13C467.781 515.987 470.434 515.835 472.86 515.682L475.101 515.535L477.794 515.344C478.173 515.315 478.503 515.598 478.533 515.977C478.562 516.355 478.279 516.686 477.9 516.715L475.58 516.882L474.379 516.962C471.571 517.147 468.425 517.332 465.015 517.504C453.605 518.081 442.088 518.384 431.339 518.268C425.556 518.206 420.168 518.022 415.248 517.702C415.171 517.697 415.096 517.68 415.026 517.65C414.422 517.397 413.564 516.829 412.716 515.856C410.058 512.806 409.535 508.025 412.335 501.246L412.559 500.715L411.982 498.696C405.112 474.499 402.245 457.021 398.438 422.441L398.319 421.356C398.277 420.978 398.55 420.638 398.928 420.597Z" fill="#253368"/>
<path fill-rule="evenodd" clip-rule="evenodd" d="M502 568.74L462.528 583.296C462.528 583.296 453.731 585.32 446.838 582.818C435.768 578.798 417.642 568.884 410.169 557.475C409.382 541.002 416.307 522.603 416.307 522.603L417.43 512.693C417.43 512.693 453.088 516.722 496.25 512.956C496.541 517.86 497.668 523.849 497.668 523.849C497.668 523.849 505.571 552.062 502 568.74Z" fill="#ADC6FF"/>
<path d="M417.599 522.674L417.679 522.681C423.48 523.676 429.795 524.368 436.546 524.782C451.142 525.677 466.777 525.251 481.932 523.996L483.565 523.858C485.708 523.671 487.716 523.477 489.572 523.281L490.935 523.134C491.869 523.032 492.691 522.936 493.395 522.851L494.252 522.743C494.522 522.708 494.769 522.897 494.805 523.167C494.84 523.437 494.65 523.684 494.381 523.72L493.514 523.828C492.806 523.914 491.98 524.01 491.043 524.113L489.676 524.261C487.349 524.506 484.783 524.749 482.014 524.978C466.815 526.236 451.135 526.663 436.486 525.765C429.701 525.349 423.351 524.654 417.512 523.652C417.244 523.606 417.064 523.352 417.11 523.084C417.152 522.842 417.362 522.672 417.599 522.674Z" fill="#597EF7"/>
<path d="M417.484 512.397C422.472 512.934 427.765 513.346 433.324 513.643C449.229 514.493 466.197 514.37 482.516 513.634L484.553 513.539C487.143 513.414 489.531 513.281 491.688 513.147L494.008 512.997L496.021 512.853C496.292 512.831 496.53 513.034 496.551 513.305C496.572 513.576 496.37 513.813 496.099 513.834L494.402 513.957L493.017 514.05C490.537 514.211 487.715 514.372 484.6 514.523C467.63 515.343 449.877 515.513 433.271 514.627C427.695 514.329 422.385 513.915 417.379 513.376C417.108 513.347 416.913 513.105 416.942 512.834C416.968 512.591 417.167 512.408 417.404 512.395L417.484 512.397Z" fill="#597EF7"/>
<path d="M453.954 514.886C454.226 514.887 454.446 515.108 454.445 515.38L454.443 518.912C454.448 521.612 454.468 524.812 454.507 528.384L454.522 529.659C454.618 537.593 454.795 545.448 455.07 552.854L455.136 554.555C455.561 565.286 456.173 574.276 456.998 580.951C457.031 581.221 456.84 581.467 456.57 581.5C456.3 581.534 456.054 581.342 456.021 581.072L455.891 579.994C455.149 573.594 454.587 565.261 454.186 555.439L454.152 554.594C453.861 547.25 453.67 539.429 453.561 531.502L453.509 527.148C453.478 524.073 453.463 521.298 453.458 518.913L453.46 515.376C453.461 515.104 453.682 514.885 453.954 514.886Z" fill="#597EF7"/>
<path fill-rule="evenodd" clip-rule="evenodd" d="M445.837 520.457C445.824 521.683 446.588 522.683 447.541 522.693C448.494 522.701 449.276 521.716 449.287 520.49C449.299 519.265 448.536 518.265 447.584 518.255C446.631 518.247 445.848 519.232 445.837 520.457Z" fill="white"/>
<path d="M443.582 525.605C443.854 525.615 444.067 525.843 444.057 526.115L444 528.046C443.99 528.434 443.98 528.846 443.97 529.279C443.835 535.508 443.841 542.179 444.085 548.435C444.21 551.641 444.395 554.59 444.645 557.226C445.222 563.32 448.779 566.593 454.744 567.366C455.014 567.401 455.204 567.648 455.169 567.918C455.134 568.187 454.887 568.378 454.617 568.343C448.218 567.513 444.287 563.896 443.664 557.318C443.413 554.663 443.227 551.697 443.101 548.473C442.88 542.823 442.853 536.839 442.949 531.144L442.995 528.83L443.045 526.923C443.057 526.514 443.067 526.228 443.072 526.079C443.082 525.807 443.311 525.595 443.582 525.605Z" fill="#597EF7"/>
<path d="M435.144 577.42C435.278 577.183 435.579 577.1 435.815 577.234L436.258 577.479L436.958 577.856C437.124 577.945 437.298 578.036 437.479 578.131C438.771 578.805 440.143 579.479 441.535 580.109C442.708 580.638 443.843 581.112 444.923 581.515C446.389 582.064 447.719 582.47 448.877 582.71C450.156 582.976 451.674 583.134 453.378 583.197C455.583 583.279 457.951 583.2 460.271 583.018L460.952 582.962C461.171 582.942 461.381 582.923 461.581 582.903L462.467 582.808C462.737 582.775 462.983 582.967 463.016 583.237C463.049 583.507 462.857 583.752 462.587 583.786L461.976 583.853L461.365 583.913C461.046 583.943 460.706 583.972 460.348 584C457.993 584.185 455.589 584.265 453.341 584.182C451.586 584.116 450.016 583.952 448.677 583.674C447.464 583.423 446.088 583.003 444.578 582.438C443.476 582.026 442.321 581.544 441.13 581.006C439.719 580.369 438.33 579.686 437.023 579.004L436.495 578.725L435.463 578.165C435.407 578.134 435.363 578.11 435.33 578.091C435.093 577.957 435.01 577.656 435.144 577.42Z" fill="#597EF7"/>
<path fill-rule="evenodd" clip-rule="evenodd" d="M516.195 515.167C525.337 513.27 531.409 504.564 530.031 495.328L517.538 411.672C515.701 399.368 503.9 391.138 491.718 393.667C479.682 396.165 472.135 408.171 475.105 420.101L495.533 502.181C497.817 511.355 506.939 517.088 516.195 515.167Z" fill="#FFC999"/>
<path fill-rule="evenodd" clip-rule="evenodd" d="M487.144 473.449L527.592 465.053L517.32 410.719C515.073 398.827 503.508 391.089 491.656 393.549C479.805 396.008 472.275 407.709 474.945 419.514L487.144 473.449Z" fill="#597EF7"/>
<path fill-rule="evenodd" clip-rule="evenodd" d="M429.365 509.565L372.479 509.935C370.884 509.946 369.465 508.923 368.97 507.406L349.192 446.695C348.424 444.338 350.173 441.913 352.653 441.896L409.539 441.526C411.136 441.516 412.554 442.538 413.048 444.056L432.826 504.766C433.594 507.125 431.846 509.549 429.365 509.565Z" fill="#4E5C93"/>
<path fill-rule="evenodd" clip-rule="evenodd" d="M425.234 509.592L368.348 509.962C366.752 509.973 365.334 508.95 364.84 507.433L345.062 446.722C344.293 444.365 346.041 441.939 348.522 441.923L405.409 441.553C407.005 441.543 408.423 442.565 408.917 444.083L428.695 504.793C429.463 507.152 427.716 509.576 425.234 509.592Z" fill="#253368"/>
<path fill-rule="evenodd" clip-rule="evenodd" d="M387.801 518.357C387.801 518.357 406.187 519.956 414.756 514.29C427.015 506.187 415.783 496.453 415.783 496.453C415.783 496.453 411.486 492.666 399.95 488.101C393.543 485.565 376.761 479.542 377.164 483.542C377.64 488.281 388.625 492.091 387.593 495.4C386.534 498.793 383.53 498.05 376.146 498.609C371.532 498.957 366.845 497.485 362.99 498.526C355.451 500.562 361.834 514.699 387.801 518.357Z" fill="#FFC999"/>
<path d="M363.176 502.174C363.277 501.925 363.56 501.805 363.809 501.905C370.419 504.574 376.505 504.952 381.542 504.001C381.957 503.923 382.331 503.84 382.662 503.757L382.903 503.694C383.131 503.633 383.285 503.586 383.358 503.56C383.612 503.473 383.889 503.609 383.976 503.863C384.063 504.117 383.927 504.394 383.673 504.481L383.522 504.529C383.428 504.557 383.306 504.593 383.156 504.633C382.745 504.744 382.266 504.854 381.723 504.957C376.513 505.94 370.241 505.551 363.445 502.807C363.196 502.706 363.076 502.423 363.176 502.174Z" fill="#DD936F"/>
<path d="M364.832 507.833C364.949 507.591 365.24 507.491 365.482 507.608L365.731 507.723L366.074 507.871C366.197 507.924 366.33 507.978 366.471 508.035C367.281 508.36 368.206 508.686 369.229 508.99C373.278 510.194 377.594 510.714 381.879 510.166C382.146 510.132 382.389 510.32 382.423 510.586C382.458 510.853 382.269 511.096 382.003 511.13C377.568 511.698 373.121 511.161 368.951 509.922C367.899 509.609 366.946 509.273 366.109 508.937L365.694 508.767L365.334 508.611C365.2 508.551 365.106 508.507 365.056 508.483C364.815 508.365 364.714 508.074 364.832 507.833Z" fill="#DD936F"/>
<path d="M372.316 513.325L372.402 513.34C377.89 514.776 382.675 514.927 386.499 514.326C386.851 514.27 387.168 514.212 387.446 514.153L387.847 514.062C387.93 514.041 387.99 514.025 388.026 514.015C388.284 513.939 388.554 514.087 388.63 514.345C388.705 514.603 388.557 514.873 388.299 514.948L388.085 515.005C388.022 515.02 387.948 515.038 387.864 515.057C387.518 515.136 387.113 515.214 386.65 515.287C382.699 515.908 377.78 515.753 372.156 514.281C371.896 514.213 371.741 513.947 371.809 513.687C371.869 513.456 372.086 513.308 372.316 513.325Z" fill="#DD936F"/>
<path fill-rule="evenodd" clip-rule="evenodd" d="M390.488 506.776C390.954 512.554 395.819 516.98 401.616 516.898L511.941 515.328C522.294 515.181 530.371 506.321 529.564 495.998C528.756 485.694 519.427 478.204 509.193 479.643L399.928 494.991C394.158 495.802 390.02 500.968 390.488 506.776Z" fill="#FFC999"/>
<path d="M477.281 418.718C477.623 418.656 477.952 418.86 478.057 419.182L478.08 419.273L487.696 472.63L527.453 464.38C527.793 464.309 528.128 464.504 528.241 464.824L528.266 464.914C528.337 465.255 528.142 465.589 527.822 465.702L527.732 465.727L487.284 474.122C486.937 474.194 486.598 473.991 486.491 473.663L486.468 473.571L476.726 419.517C476.658 419.143 476.907 418.785 477.281 418.718Z" fill="#253368"/>
<path d="M482.846 402.983C487.225 397.146 492.845 393.868 499.777 394.552C500.155 394.589 500.432 394.926 500.394 395.304C500.357 395.682 500.02 395.958 499.642 395.921C493.258 395.291 488.063 398.321 483.947 403.808C482.624 405.572 481.514 407.466 480.61 409.359C480.358 409.889 480.136 410.388 479.945 410.848L479.808 411.185C479.677 411.512 479.593 411.743 479.552 411.861C479.43 412.22 479.039 412.412 478.68 412.29C478.32 412.168 478.128 411.777 478.25 411.417L478.376 411.07C478.419 410.957 478.47 410.825 478.53 410.676C478.76 410.099 479.039 409.457 479.369 408.767C480.309 406.796 481.464 404.825 482.846 402.983Z" fill="#253368"/>
<path fill-rule="evenodd" clip-rule="evenodd" d="M345.652 415.862C345.652 415.862 345.597 408.38 342.758 404.655C338.703 399.335 334.76 394.316 334.705 386.871C334.65 379.426 327.467 385.672 331.534 399.712C320.79 397.293 309.506 392.756 306.13 385.484C304.896 382.828 302.005 383.26 301.936 385.819C301.866 388.379 303.021 390.776 303.021 390.776C303.021 390.776 300.937 392.856 302.358 395.744C299.592 400.103 304.159 402.869 304.159 402.869C304.159 402.869 301.372 404.436 307.016 410.919C312.865 417.636 327.432 423.865 327.432 423.865L338.872 446.411L357.99 436.577L345.652 415.862Z" fill="#FFC999"/>
<path d="M331.132 399.526C331.235 399.304 331.499 399.208 331.72 399.311C331.942 399.414 332.039 399.677 331.936 399.899L331.815 400.18C331.788 400.244 331.759 400.316 331.727 400.397C331.567 400.802 331.407 401.256 331.258 401.748C330.78 403.317 330.519 404.894 330.587 406.352C330.671 408.189 331.273 409.684 332.492 410.751C332.676 410.913 332.694 411.192 332.533 411.376C332.372 411.56 332.092 411.579 331.908 411.418C330.49 410.176 329.797 408.453 329.702 406.393C329.629 404.82 329.906 403.148 330.41 401.49C330.567 400.975 330.735 400.498 330.903 400.072L330.997 399.838C331.055 399.699 331.101 399.594 331.132 399.526Z" fill="#DD936F"/>
<path d="M306.365 399.554C307.185 398.885 307.937 398.645 308.574 399.063C309.32 399.552 309.511 400.648 309.367 402.187C309.317 402.728 309.225 403.302 309.103 403.886C309.059 404.099 309.012 404.304 308.965 404.499L308.869 404.879L308.854 404.934L308.907 405.007C309.013 405.152 309.132 405.31 309.265 405.479L309.403 405.65C309.944 406.318 310.566 406.986 311.257 407.609C313.221 409.379 315.335 410.428 317.506 410.416C324.669 410.374 331.667 412.091 332.991 415.253C333.086 415.479 332.979 415.738 332.754 415.833C332.528 415.927 332.269 415.821 332.174 415.595C331.053 412.919 324.301 411.262 317.511 411.302C315.082 411.316 312.777 410.171 310.664 408.267C309.937 407.611 309.284 406.91 308.715 406.208C308.515 405.963 308.34 405.734 308.19 405.528L308.003 405.261C307.931 405.152 307.91 405.017 307.947 404.892L308.036 404.563C308.104 404.299 308.172 404.01 308.236 403.705C308.351 403.151 308.438 402.609 308.485 402.105C308.599 400.88 308.454 400.043 308.088 399.803C307.874 399.663 307.477 399.79 306.925 400.24C306.577 400.523 306.202 400.91 305.813 401.372C305.494 401.751 305.185 402.159 304.898 402.567L304.741 402.792C304.648 402.928 304.578 403.036 304.533 403.107C304.402 403.313 304.128 403.374 303.921 403.243C303.715 403.112 303.654 402.838 303.785 402.632L303.939 402.397C304.004 402.3 304.083 402.186 304.173 402.057C304.474 401.63 304.798 401.202 305.135 400.802C305.557 400.3 305.969 399.877 306.365 399.554Z" fill="#DD936F"/>
<path d="M304.828 392.417C305.925 391.612 306.918 391.471 307.584 392.345C308.154 393.093 308.203 394.147 307.875 395.42C307.715 396.044 307.468 396.7 307.158 397.371C306.961 397.798 306.749 398.205 306.538 398.579L306.341 398.918C306.306 398.977 306.276 399.026 306.252 399.063C306.121 399.27 305.847 399.331 305.641 399.2C305.434 399.069 305.373 398.795 305.504 398.588L305.637 398.368C305.676 398.304 305.719 398.228 305.767 398.144C305.967 397.789 306.167 397.403 306.354 396.999C306.643 396.374 306.872 395.765 307.017 395.2C307.284 394.163 307.247 393.364 306.879 392.882C306.593 392.506 306.111 392.574 305.352 393.131C304.966 393.415 304.548 393.805 304.116 394.273C303.768 394.65 303.431 395.055 303.119 395.461L302.816 395.865C302.778 395.918 302.746 395.962 302.722 395.997C302.582 396.198 302.306 396.248 302.105 396.108C301.904 395.969 301.855 395.693 301.994 395.492L302.238 395.156C302.292 395.084 302.351 395.005 302.417 394.92C302.744 394.495 303.098 394.07 303.465 393.672C303.933 393.166 304.389 392.739 304.828 392.417Z" fill="#DD936F"/>
<path d="M308.953 402.079C309.131 401.91 309.411 401.917 309.58 402.094C311.639 404.256 313.542 405.53 316.579 406.767C316.805 406.859 316.914 407.117 316.822 407.344C316.73 407.57 316.471 407.679 316.245 407.587C313.094 406.305 311.085 404.96 308.938 402.705C308.769 402.528 308.776 402.247 308.953 402.079Z" fill="#DD936F"/>
<path d="M307.189 397.821C307.337 397.627 307.615 397.589 307.81 397.737L308.037 397.904L308.125 397.967C308.385 398.153 308.687 398.361 309.027 398.585C309.997 399.227 311.069 399.868 312.213 400.467C313.968 401.386 315.727 402.117 317.436 402.591C317.672 402.657 317.81 402.901 317.744 403.137C317.679 403.372 317.435 403.51 317.199 403.445C315.424 402.952 313.609 402.198 311.802 401.252C310.63 400.638 309.532 399.982 308.538 399.325L308.044 398.992L307.371 398.515C307.33 398.485 307.297 398.46 307.273 398.442C307.078 398.294 307.041 398.016 307.189 397.821Z" fill="#DD936F"/>
<path d="M307.533 393.33C307.683 393.137 307.961 393.102 308.154 393.251L308.542 393.541L308.947 393.833C309.161 393.985 309.392 394.146 309.638 394.314C310.812 395.116 312.096 395.918 313.45 396.666C315.118 397.588 316.775 398.362 318.379 398.94C318.609 399.023 318.729 399.277 318.646 399.507C318.563 399.737 318.309 399.857 318.079 399.774C316.426 399.178 314.729 398.385 313.021 397.441C311.642 396.679 310.334 395.862 309.138 395.046L308.657 394.713C308.504 394.606 308.358 394.502 308.22 394.402L307.73 394.042C307.681 394.004 307.641 393.974 307.612 393.952C307.419 393.802 307.383 393.524 307.533 393.33Z" fill="#DD936F"/>
<path d="M319.843 397.327C320.07 397.418 320.18 397.676 320.089 397.903L319.834 398.567C319.784 398.7 319.732 398.842 319.678 398.991C319.368 399.842 319.058 400.758 318.769 401.702C318.437 402.785 318.155 403.836 317.936 404.827C317.331 407.578 317.277 409.635 317.886 410.627C318.014 410.835 317.949 411.108 317.74 411.236C317.532 411.364 317.259 411.299 317.131 411.09C316.359 409.833 316.417 407.607 317.071 404.636C317.295 403.62 317.584 402.547 317.922 401.443C318.157 400.675 318.405 399.926 318.656 399.215L318.926 398.466L319.267 397.573C319.358 397.346 319.616 397.236 319.843 397.327Z" fill="#DD936F"/>
<path d="M304.535 387.957C305.102 387.422 305.635 387.182 306.15 387.406C306.998 387.777 307.415 388.576 307.506 389.625C307.553 390.161 307.511 390.725 307.415 391.277C307.374 391.513 307.332 391.695 307.302 391.801C307.238 392.037 306.994 392.176 306.758 392.112C306.522 392.047 306.383 391.803 306.448 391.567L306.481 391.436C306.499 391.354 306.521 391.248 306.542 391.124C306.627 390.642 306.662 390.151 306.624 389.702C306.558 388.942 306.293 388.435 305.796 388.218C305.711 388.181 305.476 388.288 305.143 388.601C304.896 388.835 304.626 389.154 304.346 389.535C304.113 389.853 303.886 390.196 303.676 390.538L303.443 390.93C303.43 390.953 303.418 390.974 303.408 390.991C303.29 391.205 303.02 391.282 302.806 391.164C302.592 391.045 302.515 390.776 302.634 390.562L302.778 390.311C302.82 390.241 302.867 390.162 302.921 390.075C303.143 389.713 303.383 389.351 303.632 389.011C303.941 388.59 304.243 388.232 304.535 387.957Z" fill="#DD936F"/>
<path fill-rule="evenodd" clip-rule="evenodd" d="M351.564 579.719C352.034 569.726 359.135 561.285 368.9 559.11L467.57 537.141C482.071 532.068 497.881 540.083 502.362 554.779C506.841 569.475 498.192 584.947 483.327 588.827L376.591 602.758C362.896 604.545 350.914 593.517 351.564 579.719Z" fill="#ADC6FF"/>
<path fill-rule="evenodd" clip-rule="evenodd" d="M378.048 732.127L394.419 583.583C395.784 571.195 386.57 560.158 374.137 559.288C361.842 558.429 351.25 567.861 350.685 580.172L343.822 729.733C343.822 729.733 358.679 738.025 378.048 732.127Z" fill="#ADC6FF"/>
<path d="M450.829 542.013C450.88 542.28 450.705 542.538 450.438 542.589L441.872 544.242C440.202 544.567 438.456 544.908 436.646 545.263L430.444 546.485C423.566 547.846 416.75 549.218 410.199 550.564L406.302 551.369C404.544 551.734 402.822 552.093 401.139 552.447L396.573 553.413C381.21 556.689 370.306 559.265 365.29 560.892C357.522 563.41 352.514 570.452 351.297 580.458C351.132 581.812 350.985 583.258 350.855 584.782C350.59 587.897 350.404 591.212 350.284 594.548L350.243 595.8C350.202 597.115 350.174 598.336 350.158 599.432L350.142 600.807C350.141 601.079 349.92 601.299 349.648 601.298C349.376 601.297 349.157 601.075 349.157 600.803L349.173 599.417L349.201 597.935C349.216 597.248 349.235 596.524 349.258 595.77C349.375 591.996 349.573 588.223 349.874 584.699C350.005 583.163 350.153 581.706 350.319 580.339C351.58 569.977 356.825 562.601 364.986 559.955L365.427 559.814C371.044 558.049 382.984 555.271 399.682 551.747L403.491 550.948L406.102 550.405C413.829 548.802 421.997 547.153 430.253 545.518L436.456 544.296C439.474 543.704 442.312 543.152 444.921 542.647L450.254 541.621C450.521 541.57 450.779 541.746 450.829 542.013Z" fill="#597EF7"/>
<defs>
<clipPath id="clip0">
<rect width="60.3292" height="60.234" fill="white" transform="translate(162.015 760.96) rotate(-77.8678)"/>
</clipPath>
</defs>
</svg>
