<svg width="188" height="185" viewBox="0 0 188 185" fill="none" xmlns="http://www.w3.org/2000/svg">
<ellipse cx="94.228" cy="92.5" rx="93.5" ry="92.5" fill="#41D3BD"/>
<path d="M80.8548 76.25H110.646V92H115.23V76.25C115.23 73.7683 113.174 71.75 110.646 71.75H80.8548C78.3271 71.75 76.2715 73.7683 76.2715 76.25V103.25C76.2715 105.732 78.3271 107.75 80.8548 107.75H99.1881V103.25H80.8548V76.25Z" fill="#FFD5A6"/>
<path d="M90.0215 89.75L83.1465 98.75H108.355L99.1882 85.25L92.3132 94.25L90.0215 89.75Z" fill="#FFD5A6"/>
<path d="M115.23 96.5H110.646V103.25H103.771V107.75H110.646V114.5H115.23V107.75H122.105V103.25H115.23V96.5Z" fill="#FFD5A6"/>
</svg>
