<svg width="190" height="132" viewBox="0 0 190 132" fill="none" xmlns="http://www.w3.org/2000/svg">
<ellipse cx="90.8665" cy="66.7971" rx="63.6848" ry="64.9412" fill="#41D3BD"/>
<path fill-rule="evenodd" clip-rule="evenodd" d="M154.698 128.051L159.116 176.099H162.91L158.492 128.051H154.698Z" fill="#597EF7"/>
<path fill-rule="evenodd" clip-rule="evenodd" d="M142.616 128.051L138.197 176.099H141.991L146.409 128.051H142.616Z" fill="#597EF7"/>
<path fill-rule="evenodd" clip-rule="evenodd" d="M141.005 131.178C139.048 131.178 137.461 129.778 137.461 128.051C137.461 126.324 139.048 124.923 141.005 124.923H160.45C162.406 124.923 163.993 126.324 163.993 128.051C163.993 129.778 162.406 131.178 160.45 131.178H141.005Z" fill="#A3B5D6"/>
<path d="M160.293 105.265C160.366 105.264 160.426 105.324 160.428 105.398C160.428 105.465 160.381 105.522 160.318 105.533L160.296 105.535L148.588 105.706C148.515 105.707 148.454 105.647 148.453 105.572C148.452 105.505 148.5 105.449 148.563 105.437L148.584 105.435L160.293 105.265Z" fill="#A3B5D6"/>
<path fill-rule="evenodd" clip-rule="evenodd" d="M123.856 143.266C123.882 143.186 118.271 163.095 117.988 164.553C117.216 168.533 117.56 169.169 115.267 169.807C114.68 169.971 113.932 169.504 112.897 170.303C110.065 172.493 106.385 173.317 106.252 171.707C106.252 170.224 112.599 166.767 113.715 163.925C114.875 160.973 115.62 136.449 118.023 135.126C120.427 133.802 126.373 126.389 123.856 143.266Z" fill="#FFC999"/>
<path fill-rule="evenodd" clip-rule="evenodd" d="M116.256 122.744L109.538 157.608L121.652 160.057C121.652 160.057 125.928 141.336 128.479 125.315C128.479 125.315 130.368 117.055 123.896 115.831C117.425 114.607 116.256 122.744 116.256 122.744Z" fill="#A3B5D6"/>
<path fill-rule="evenodd" clip-rule="evenodd" d="M123.823 115.222C136.586 113.612 146.011 113.475 148.963 114.228C148.963 114.228 155.09 115.477 153.94 120.275C152.538 126.13 145.949 126.228 145.949 126.228L124.61 127.931C122.914 128.084 117.33 128.741 117.008 122.07C116.704 115.778 123.544 115.257 123.823 115.222Z" fill="#A3B5D6"/>
<path fill-rule="evenodd" clip-rule="evenodd" d="M123.643 106.857C123.643 106.857 139.967 101.022 142.276 100.354C148.113 98.6655 148.844 105.9 145.142 106.865C142.91 107.446 138.391 108.113 134.455 108.743C128.907 109.632 124.828 110.108 124.828 110.108L123.643 106.857Z" fill="#FFC999"/>
<path fill-rule="evenodd" clip-rule="evenodd" d="M152.729 61.2936C152.729 61.2936 143.746 63.0604 143.827 68.3211C143.869 71.0267 146.54 73.8933 145.306 74.7538C140.485 78.1153 145.862 79.2969 142.82 81.9751C138.296 85.9586 141.304 92.4652 146.187 91.8966C151.245 91.3074 149.019 98.6907 157.694 96.3618C162.583 95.0492 163.988 93.9062 167.433 92.0406C170.879 90.1745 172.775 80.835 168.357 76.3914C165.609 73.5776 163.063 73.9301 161.451 69.1668C159.838 64.4033 158.331 61.4985 156.002 61.9571C155.117 60.7387 152.729 61.2936 152.729 61.2936Z" fill="#253368"/>
<path fill-rule="evenodd" clip-rule="evenodd" d="M147.758 72.8268C147.731 72.7261 147.592 72.7243 147.562 72.8239C147.293 73.7053 146.658 76.0812 147.571 76.1706C148.599 76.2713 148.007 73.7454 147.758 72.8268Z" fill="white"/>
<path fill-rule="evenodd" clip-rule="evenodd" d="M156.736 79.7742C156.326 76.1587 155.937 73.2048 155.937 73.2048L150.461 76.3485L150.785 80.7541C151.034 82.3759 152.554 83.4655 154.139 83.1595C155.816 82.8356 156.931 81.4984 156.736 79.7742Z" fill="#F4B784"/>
<path fill-rule="evenodd" clip-rule="evenodd" d="M153.165 66.8564C153.165 66.8564 152.557 65.2224 151.456 66.0147C150.668 66.5808 150.878 66.1157 150.701 65.6756C150.043 64.0393 149.822 68.0684 147.271 68.9123C147.228 70.9641 147.118 77.523 151.476 77.7785C153.171 77.878 155.343 76.6499 156.09 74.3119C156.578 72.7879 156.172 71.2538 155.578 70.9479C153.619 69.9409 153.656 68.9022 153.165 66.8564Z" fill="#FFC999"/>
<path d="M149.31 68.6087C149.373 68.5846 149.443 68.6115 149.476 68.6693L149.485 68.6897L149.884 69.7728L149.892 69.8066L149.902 69.9288C149.904 69.9513 149.905 69.9763 149.907 70.0036C149.945 70.6886 149.916 71.5744 149.775 72.6172L149.753 72.7686L149.845 72.7754C150.042 72.7916 150.226 72.8162 150.397 72.8474L150.497 72.8669C150.595 72.887 150.684 72.9082 150.762 72.9298L150.818 72.9461C150.874 72.9627 150.913 72.976 150.934 72.9842C151.005 73.0112 151.04 73.091 151.014 73.1625C150.987 73.234 150.909 73.27 150.838 73.2431L150.793 73.2274C150.779 73.2228 150.762 73.2176 150.742 73.2117C150.658 73.1868 150.559 73.1617 150.444 73.1382C150.193 73.0869 149.908 73.0507 149.591 73.0364C149.51 73.0328 149.45 72.9585 149.462 72.877C149.63 71.7729 149.672 70.8357 149.64 70.116L149.631 69.9484L149.623 69.8531L149.23 68.7868C149.207 68.7225 149.233 68.6514 149.29 68.6183L149.31 68.6087Z" fill="#DD936F"/>
<path d="M152.262 73.5991C152.355 73.5698 152.455 73.6233 152.483 73.7185C152.512 73.8137 152.46 73.9147 152.366 73.9439C152.299 73.9649 152.231 73.9848 152.161 74.0036C151.742 74.1169 151.296 74.187 150.843 74.2225C150.573 74.2437 150.332 74.2504 150.138 74.2482L150.017 74.2454C149.919 74.2411 149.843 74.1568 149.847 74.0573C149.852 73.9578 149.934 73.8806 150.032 73.885L150.075 73.8863C150.27 73.8909 150.524 73.8857 150.816 73.8628C151.248 73.8289 151.674 73.762 152.07 73.6549C152.135 73.6373 152.199 73.6187 152.262 73.5991Z" fill="#C44343"/>
<path d="M147.37 68.8096C147.842 68.4834 148.504 68.3896 149.365 68.6557C149.458 68.6847 149.511 68.7854 149.483 68.8807C149.454 68.9761 149.355 69.0299 149.262 69.0009C148.502 68.7661 147.952 68.8441 147.569 69.1082C147.441 69.1965 147.364 69.2818 147.333 69.3311C147.281 69.4153 147.171 69.4403 147.089 69.3869C147.006 69.3336 146.981 69.2221 147.034 69.138C147.089 69.0494 147.198 68.928 147.37 68.8096Z" fill="#253368"/>
<path d="M152.965 68.1788C153.234 68.1712 153.48 68.1878 153.698 68.2324C153.794 68.2521 153.856 68.3473 153.837 68.4449C153.817 68.5426 153.724 68.6058 153.628 68.5861C153.439 68.5474 153.219 68.5326 152.974 68.5394C152.66 68.5483 152.321 68.592 151.98 68.6595C151.878 68.6795 151.782 68.7006 151.692 68.722L151.544 68.7591C151.507 68.7685 151.481 68.776 151.464 68.7808C151.37 68.8082 151.272 68.7528 151.245 68.657C151.218 68.5612 151.272 68.4614 151.366 68.4339L151.454 68.4099L151.519 68.3932C151.639 68.3632 151.771 68.3332 151.912 68.3053C152.271 68.2343 152.629 68.1882 152.965 68.1788Z" fill="#253368"/>
<path d="M151.387 74.9825C151.462 74.9801 151.525 75.0402 151.527 75.1165C151.529 75.1853 151.482 75.2439 151.417 75.2566L151.395 75.2591L150.921 75.2739C150.846 75.2762 150.784 75.2162 150.781 75.1398C150.779 75.0711 150.827 75.0125 150.891 74.9998L150.913 74.9973L151.387 74.9825Z" fill="#DD936F"/>
<path fill-rule="evenodd" clip-rule="evenodd" d="M158.586 71.9382C158.92 70.1995 157.286 70.3337 157.286 70.3337C157.286 70.3337 157.283 72.0605 156.865 73.6119C158.503 73.5325 158.586 71.9382 158.586 71.9382Z" fill="#FFC999"/>
<path fill-rule="evenodd" clip-rule="evenodd" d="M157.683 73.1685C157.656 73.0679 157.517 73.0657 157.487 73.1653C157.219 74.0467 156.584 76.4229 157.496 76.512C158.524 76.613 157.932 74.0871 157.683 73.1685Z" fill="white"/>
<path d="M148.469 70.1543C148.849 70.1113 149.173 70.4771 149.224 70.9441C149.234 71.0431 149.164 71.1323 149.067 71.1432C148.97 71.1542 148.882 71.0828 148.871 70.9838C148.84 70.6942 148.663 70.4953 148.508 70.5129C148.353 70.5303 148.224 70.7635 148.255 71.0532C148.266 71.1523 148.196 71.2415 148.099 71.2525C148.001 71.2636 147.914 71.1923 147.903 71.0932C147.852 70.6259 148.089 70.1968 148.469 70.1543Z" fill="#253368"/>
<path d="M152.416 69.7763C152.841 69.7123 153.229 70.0792 153.301 70.5757C153.316 70.6742 153.249 70.7659 153.152 70.7805C153.055 70.795 152.965 70.7269 152.951 70.6284C152.905 70.3138 152.68 70.1012 152.467 70.1332C152.255 70.1652 152.1 70.4347 152.145 70.7494C152.159 70.8479 152.092 70.9396 151.996 70.954C151.899 70.9685 151.809 70.9003 151.794 70.8018C151.723 70.3053 151.99 69.8403 152.416 69.7763Z" fill="#253368"/>
<path fill-rule="evenodd" clip-rule="evenodd" d="M141.479 104.167C141.479 104.167 141.848 92.0128 142.106 89.6713C142.73 84.0154 145.849 82.7548 148.208 85.0589C151.052 87.8359 147.665 104.828 147.665 104.828C147.665 104.828 147.235 107.093 144.562 107.135C141.403 107.185 141.479 104.167 141.479 104.167Z" fill="#FFC999"/>
<path fill-rule="evenodd" clip-rule="evenodd" d="M141.58 95.4403C141.656 94.2209 140.737 83.3169 145.759 83.2751C149.665 83.2426 148.741 88.4366 147.621 97.1559L141.58 95.4403Z" fill="#597EF7"/>
<path fill-rule="evenodd" clip-rule="evenodd" d="M159.941 105.675C157.148 106.368 149.421 106.037 148.592 105.675C147.762 105.313 148.215 102.732 148.215 102.732C143.155 89.5939 143.633 85.2282 144.076 84.2516C144.675 82.931 150.042 83.0061 150.245 81.9753C150.345 81.4669 150.31 79.7124 150.31 79.7124L157.227 79.3213C157.227 79.3213 157.613 81.2533 157.979 81.8732C158.69 83.079 163.06 82.1442 164.858 84.5824C168.071 88.9401 163.683 96.4291 161.269 101.877C161.269 101.877 161.418 104.437 159.941 105.675Z" fill="#597EF7"/>
<path fill-rule="evenodd" clip-rule="evenodd" d="M149.772 124.02L143.871 117.743C143.871 117.743 145.144 110.745 148.413 107.696L160.075 107.28C160.075 107.28 165.079 110.825 164.535 119.414L155.589 124.069L149.772 124.02Z" fill="#E4EBF7"/>
<path fill-rule="evenodd" clip-rule="evenodd" d="M160.348 107.419L148.414 107.697L148.71 105.838L159.953 105.493L160.348 107.419Z" fill="#E4EBF7"/>
<path d="M152.572 107.7C152.645 107.709 152.698 107.776 152.689 107.85C152.554 109.036 152.452 110.325 152.38 111.701C152.219 114.79 152.216 118.076 152.313 121.204L152.331 121.754C152.347 122.209 152.364 122.623 152.38 122.993L152.412 123.628C152.416 123.702 152.36 123.766 152.287 123.771C152.214 123.775 152.151 123.718 152.147 123.643L152.133 123.378L152.108 122.865C152.096 122.578 152.083 122.267 152.071 121.933L152.065 121.764C151.95 118.465 151.943 114.966 152.115 111.687C152.187 110.305 152.289 109.011 152.425 107.819C152.433 107.753 152.487 107.703 152.551 107.7L152.572 107.7Z" fill="#A3B5D6"/>
<path d="M160.313 107.38C160.386 107.379 160.447 107.438 160.448 107.513C160.449 107.58 160.402 107.637 160.339 107.648L160.318 107.65L148.622 107.858C148.548 107.86 148.488 107.8 148.486 107.725C148.485 107.658 148.532 107.601 148.595 107.59L148.617 107.588L160.313 107.38Z" fill="#A3B5D6"/>
<path fill-rule="evenodd" clip-rule="evenodd" d="M148.678 142.031C148.659 141.944 154.175 163.392 154.697 164.892C156.12 168.985 156.778 169.38 155.01 171.24C154.557 171.717 153.617 171.702 153.094 173.014C151.661 176.602 148.714 179.404 147.728 177.996C146.932 176.63 150.922 169.922 150.425 166.686C149.909 163.324 137.436 140.327 138.939 137.773C140.442 135.22 141.94 125.093 148.678 142.031Z" fill="#FFC999"/>
<path fill-rule="evenodd" clip-rule="evenodd" d="M130.258 125.018L140.535 161.585L153.256 157.92C153.256 157.92 148.376 137.955 143.142 121.417C143.142 121.417 140.991 112.607 134.235 114.645C127.48 116.682 130.258 125.018 130.258 125.018Z" fill="#E4EBF7"/>
<path fill-rule="evenodd" clip-rule="evenodd" d="M136.957 114.025C151.113 111.907 155.552 111.934 158.853 112.695C158.853 112.695 165.699 113.928 164.54 119.294C163.124 125.843 155.799 126.12 155.799 126.12L138.148 128.14C136.264 128.355 129.546 128.806 129.546 121.817C129.546 114.809 136.648 114.071 136.957 114.025Z" fill="#E4EBF7"/>
<path fill-rule="evenodd" clip-rule="evenodd" d="M160.589 101.866C160.589 101.866 158.313 91.4249 158.4 88.9848C158.611 83.0912 162.659 82.497 164.725 85.1243C166.323 87.1559 167.321 102.496 167.321 102.496C167.321 102.496 166.712 105.12 164.05 105.391C160.902 105.71 160.589 101.866 160.589 101.866Z" fill="#FFC999"/>
<path fill-rule="evenodd" clip-rule="evenodd" d="M162.395 83.0925C165.194 83.6806 166.268 86.4919 166.522 94.4702L159.132 95.689C159.116 94.467 154.273 82.2122 162.983 83.2076" fill="#597EF7"/>
<path fill-rule="evenodd" clip-rule="evenodd" d="M142.431 107.241C142.431 107.241 160.095 99.9661 162.436 99.4296C167.187 98.3407 168.849 104.044 164.87 105.734C159.749 107.91 143.317 111.15 143.317 111.15L142.431 107.241Z" fill="#FFC999"/>
<path d="M160.377 84.5939C160.444 84.5639 160.523 84.5952 160.552 84.6636C160.582 84.7321 160.551 84.8119 160.484 84.8418C159.894 85.1041 159.417 85.8142 159.051 86.836C158.882 87.3092 158.748 87.8174 158.646 88.3257C158.618 88.4682 158.594 88.6024 158.573 88.7262L158.548 88.8866L158.534 88.9859L159.264 95.674C159.272 95.7408 159.23 95.8017 159.168 95.8192L159.147 95.8234C159.081 95.8308 159.021 95.7882 159.004 95.7255L159 95.7039L158.268 88.9996L158.268 88.968L158.285 88.847L158.296 88.7749C158.319 88.6229 158.349 88.4538 158.386 88.2717C158.49 87.7512 158.627 87.2306 158.801 86.7435C159.19 85.6583 159.704 84.8935 160.377 84.5939Z" fill="#253368"/>
<path d="M156.404 82.2371C156.477 82.2346 156.539 82.2931 156.541 82.3677C156.543 82.435 156.497 82.4924 156.434 82.5051L156.413 82.5076L151.281 82.6858C151.208 82.6884 151.146 82.6299 151.144 82.5552C151.141 82.488 151.188 82.4306 151.251 82.4179L151.272 82.4154L156.404 82.2371Z" fill="#253368"/>
<path d="M145.609 86.6215C145.672 86.6002 145.739 86.6291 145.769 86.6868L145.777 86.707L146.177 87.9258C146.184 87.9475 146.185 87.9705 146.181 87.9927L146.176 88.0146L145.143 90.9164L145.123 90.9583C145.115 90.9773 145.105 91.0012 145.094 91.03C145.056 91.1281 145.017 91.2438 144.981 91.3761C144.549 92.9535 144.846 94.8943 146.428 97.0205C146.473 97.0801 146.461 97.1649 146.403 97.21C146.344 97.2551 146.261 97.2434 146.216 97.1838C144.581 94.9874 144.271 92.9593 144.724 91.3035C144.763 91.1616 144.805 91.0367 144.847 90.9297L144.876 90.8577C144.885 90.8382 144.891 90.8236 144.896 90.8152L144.899 90.8089L145.91 87.9667L145.525 86.7926C145.504 86.7288 145.533 86.6604 145.589 86.6301L145.609 86.6215Z" fill="#253368"/>
<path d="M156.2 111.494C156.273 111.485 156.34 111.538 156.348 111.612C156.357 111.678 156.315 111.74 156.254 111.758L156.233 111.763L136.016 114.288C135.944 114.297 135.877 114.244 135.868 114.17C135.86 114.104 135.901 114.042 135.963 114.024L135.984 114.02L156.2 111.494Z" fill="#A3B5D6"/>
<path fill-rule="evenodd" clip-rule="evenodd" d="M135.504 118.453L156.182 115.124L135.69 108.815L118.658 113.303L135.504 118.453Z" fill="#CCD7EE"/>
<path fill-rule="evenodd" clip-rule="evenodd" d="M134.724 116.987L149.742 114.569L135.213 109.958L122.489 113.247L134.724 116.987Z" fill="#4E5C93"/>
<path fill-rule="evenodd" clip-rule="evenodd" d="M156.169 116.209L156.186 115.131L135.083 118.356L135.44 119.508L156.169 116.209Z" fill="#253368"/>
<path d="M132.347 110.918C132.362 110.877 132.402 110.854 132.443 110.86L132.461 110.865L144.279 115.273C144.325 115.29 144.349 115.341 144.332 115.388C144.317 115.429 144.276 115.453 144.236 115.446L144.218 115.442L132.399 111.034C132.354 111.017 132.33 110.965 132.347 110.918Z" fill="#CCD7EE"/>
<path d="M133.914 110.279C133.928 110.238 133.969 110.214 134.01 110.22L134.027 110.224L147.242 114.899C147.288 114.915 147.313 114.966 147.297 115.013C147.283 115.055 147.242 115.079 147.201 115.073L147.184 115.069L133.969 110.394C133.922 110.378 133.898 110.326 133.914 110.279Z" fill="#CCD7EE"/>
<path d="M132.168 112.011C132.184 111.971 132.225 111.948 132.266 111.955L132.283 111.959L142.208 115.821C142.254 115.839 142.277 115.891 142.259 115.937C142.244 115.978 142.203 116.001 142.162 115.994L142.145 115.989L132.22 112.128C132.174 112.11 132.151 112.058 132.168 112.011Z" fill="#CCD7EE"/>
<path d="M129.449 112.287C129.465 112.247 129.506 112.224 129.546 112.231L129.564 112.235L139.489 116.097C139.535 116.114 139.557 116.167 139.54 116.213C139.525 116.254 139.484 116.277 139.443 116.27L139.425 116.265L129.5 112.404C129.455 112.386 129.432 112.334 129.449 112.287Z" fill="#CCD7EE"/>
<path d="M126.938 112.722C126.953 112.682 126.994 112.659 127.035 112.666L127.052 112.67L136.978 116.531C137.023 116.549 137.046 116.601 137.029 116.648C137.013 116.689 136.972 116.712 136.932 116.705L136.914 116.7L126.989 112.839C126.943 112.821 126.921 112.769 126.938 112.722Z" fill="#CCD7EE"/>
<path d="M147.286 113.907C147.335 113.901 147.379 113.936 147.385 113.985C147.39 114.028 147.365 114.068 147.325 114.082L147.308 114.086L134.456 115.699C134.408 115.705 134.364 115.67 134.358 115.62C134.352 115.577 134.378 115.537 134.417 115.524L134.435 115.52L147.286 113.907Z" fill="#CCD7EE"/>
<path d="M144.436 112.884C144.484 112.878 144.529 112.913 144.535 112.963C144.54 113.006 144.514 113.046 144.475 113.059L144.457 113.063L131.606 114.676C131.557 114.682 131.513 114.647 131.507 114.598C131.502 114.555 131.528 114.515 131.567 114.501L131.584 114.497L144.436 112.884Z" fill="#CCD7EE"/>
<path d="M140.902 112.202C140.951 112.196 140.995 112.231 141.001 112.281C141.006 112.324 140.98 112.364 140.941 112.377L140.924 112.381L128.072 113.994C128.024 114 127.979 113.965 127.973 113.916C127.968 113.873 127.994 113.833 128.033 113.819L128.05 113.815L140.902 112.202Z" fill="#CCD7EE"/>
<path d="M138.512 110.393C138.56 110.387 138.605 110.422 138.611 110.471C138.616 110.515 138.59 110.554 138.551 110.568L138.534 110.572L125.682 112.185C125.633 112.191 125.589 112.156 125.583 112.106C125.578 112.063 125.604 112.023 125.643 112.01L125.66 112.006L138.512 110.393Z" fill="#CCD7EE"/>
<path fill-rule="evenodd" clip-rule="evenodd" d="M135.423 119.509L134.494 119.591L118.551 114.495L112.107 87.0781L129.28 90.5656L135.423 119.509Z" fill="#253368"/>
<path fill-rule="evenodd" clip-rule="evenodd" d="M134.461 119.592L117.648 114.227C117.495 114.178 117.378 114.051 117.34 113.891L111.118 87.5425C111.04 87.2113 111.326 86.9093 111.654 86.9768L127.943 90.308C128.122 90.3445 128.262 90.4852 128.301 90.6663L134.461 119.592Z" fill="#4E5C93"/>
<path fill-rule="evenodd" clip-rule="evenodd" d="M144.371 110.462C143.864 112.387 139.65 111.734 139.65 111.734L137.585 113.444C137.258 113.674 137.117 113.45 136.939 113.491C136.459 113.602 136.344 113.089 136.344 113.089C136.161 113.048 135.923 113.238 135.748 112.791C135.748 112.791 135.406 112.845 135.29 112.435C135.246 112.283 135.905 110.222 136.299 109.016C136.472 108.486 136.922 108.102 137.465 108.019L142.508 107.246C142.508 107.246 145.052 107.873 144.371 110.462Z" fill="#FFC999"/>
<path d="M139.951 110.369C140.02 110.339 140.1 110.372 140.129 110.442C140.156 110.505 140.133 110.577 140.077 110.613L140.058 110.624L138.574 111.268L137.09 113.346C137.051 113.401 136.979 113.418 136.921 113.389L136.9 113.377C136.846 113.337 136.83 113.264 136.858 113.205L136.87 113.183L138.376 111.075C138.386 111.061 138.398 111.049 138.411 111.04L138.433 111.029L139.951 110.369Z" fill="#DD936F"/>
<path d="M138.936 109.735C139.001 109.697 139.084 109.721 139.121 109.787C139.154 109.847 139.139 109.922 139.088 109.963L139.069 109.976L137.707 110.756L136.498 112.907C136.465 112.967 136.394 112.992 136.333 112.968L136.313 112.959C136.254 112.925 136.23 112.853 136.253 112.79L136.262 112.77L137.49 110.586C137.498 110.571 137.508 110.558 137.521 110.548L137.541 110.534L138.936 109.735Z" fill="#DD936F"/>
<path d="M137.952 109.149C138.011 109.102 138.097 109.112 138.143 109.172C138.185 109.225 138.181 109.3 138.139 109.349L138.121 109.366L137.204 110.104L136.101 112.413C136.071 112.475 136.002 112.505 135.939 112.485L135.919 112.477C135.858 112.447 135.829 112.377 135.848 112.313L135.856 112.292L136.973 109.954C136.979 109.942 136.987 109.93 136.996 109.92L137.011 109.906L137.952 109.149Z" fill="#DD936F"/>
<path fill-rule="evenodd" clip-rule="evenodd" d="M136.169 52.1043L133.939 56.2529L129.861 58.5217L129.86 58.522L133.939 60.7911L136.169 64.9399L138.4 60.7911L142.478 58.522L142.478 58.5217L138.4 56.2529L136.169 52.1043L136.169 52.1041L136.169 52.1043Z" fill="#125E8A" fill-opacity="0.62"/>
<path fill-rule="evenodd" clip-rule="evenodd" d="M61.0965 24.4257L58.3166 29.5964L53.2337 32.4242L53.2334 32.4246L58.3166 35.2527L61.0967 40.4237L63.8768 35.2527L68.96 32.4246L68.9597 32.4242L63.8768 29.5964L61.0969 24.4257L61.0967 24.4255L61.0965 24.4257Z" fill="#125E8A" fill-opacity="0.62"/>
<path d="M59.5717 102.55C60.0749 103.062 60.8907 103.062 61.3939 102.55C61.8971 102.038 61.8971 101.208 61.3939 100.696C60.8908 100.184 60.0749 100.184 59.5717 100.696C59.0685 101.208 59.0685 102.038 59.5717 102.55Z" fill="#597EF7"/>
<path d="M70.4115 113.754C70.9146 114.266 71.7304 114.266 72.2336 113.754C72.7368 113.242 72.7368 112.412 72.2336 111.9C71.7304 111.389 70.9146 111.389 70.4115 111.9C69.9083 112.412 69.9083 113.242 70.4115 113.754Z" fill="#597EF7"/>
<path d="M63.2053 105.366C64.5038 104.045 66.609 104.045 67.9075 105.366C69.206 106.687 69.206 108.828 67.9075 110.149C66.609 111.47 64.5037 111.47 63.2052 110.149C61.9067 108.828 61.9067 106.687 63.2053 105.366Z" fill="#597EF7"/>
<path d="M75.4044 106.151C75.4044 106.875 74.8275 107.462 74.116 107.462C73.4044 107.462 72.8275 106.875 72.8275 106.151C72.8275 105.427 73.4044 104.841 74.116 104.841C74.8275 104.841 75.4044 105.427 75.4044 106.151Z" fill="#597EF7"/>
<path d="M102.202 22.5599C101.591 22.0246 100.669 22.0947 100.143 22.7164C99.6167 23.3381 99.6855 24.276 100.297 24.8114C100.908 25.3467 101.83 25.2766 102.356 24.6549C102.882 24.0332 102.813 23.0952 102.202 22.5599Z" fill="#597EF7"/>
<path d="M89.022 10.8276C88.4108 10.2923 87.4888 10.3623 86.9626 10.984C86.4364 11.6057 86.5052 12.5437 87.1164 13.079C87.7275 13.6143 88.6495 13.5442 89.1757 12.9225C89.7019 12.3008 89.6331 11.3629 89.022 10.8276Z" fill="#597EF7"/>
<path d="M97.8622 19.6892C96.5042 21.2936 94.1248 21.4743 92.5477 20.0929C90.9706 18.7115 90.7929 16.291 92.1509 14.6867C93.5089 13.0823 95.8883 12.9015 97.4654 14.283C99.0425 15.6644 99.2201 18.0848 97.8622 19.6892Z" fill="#597EF7"/>
<path d="M84.0097 19.8487C83.9496 19.0306 84.5529 18.3179 85.3571 18.2568C86.1614 18.1957 86.862 18.8094 86.9221 19.6275C86.9821 20.4457 86.3788 21.1584 85.5746 21.2195C84.7704 21.2806 84.0697 20.6669 84.0097 19.8487Z" fill="#597EF7"/>
<path fill-rule="evenodd" clip-rule="evenodd" d="M93.9744 99.4196C92.8498 99.4196 91.9381 98.4922 91.9381 97.3482C91.9381 96.2042 92.8498 95.2768 93.9744 95.2768C95.099 95.2768 96.0106 96.2042 96.0106 97.3482C96.0106 98.4922 95.099 99.4196 93.9744 99.4196ZM100.085 98.2852V96.4112L98.6336 96.0359C98.5271 95.6438 98.3741 95.2713 98.1809 94.9251L98.9469 93.615L97.6443 92.2898L96.3564 93.069C96.016 92.8725 95.6499 92.7169 95.2644 92.6086L94.8955 91.1316H93.0533L92.6844 92.6086C92.2989 92.7169 91.9327 92.8725 91.5924 93.069L90.3045 92.2898L89.0019 93.615L89.7678 94.9251C89.5747 95.2713 89.4217 95.6438 89.3152 96.0359L87.8633 96.4112V98.2852L89.3152 98.6605C89.4217 99.0526 89.5747 99.4251 89.7678 99.7714L89.0019 101.081L90.3045 102.407L91.5924 101.627C91.9327 101.824 92.2989 101.98 92.6844 102.088L93.0533 103.565H94.8955L95.2644 102.088C95.6499 101.98 96.016 101.824 96.3564 101.627L97.6443 102.407L98.9469 101.081L98.1809 99.7714C98.3741 99.4251 98.5271 99.0526 98.6336 98.6605L100.085 98.2852Z" fill="#597EF7"/>
<path fill-rule="evenodd" clip-rule="evenodd" d="M103.126 107.143C102.081 107.143 101.234 106.281 101.234 105.218C101.234 104.156 102.081 103.294 103.126 103.294C104.171 103.294 105.017 104.156 105.017 105.218C105.017 106.281 104.171 107.143 103.126 107.143ZM108.803 106.089V104.348L107.454 103.999C107.355 103.635 107.213 103.289 107.034 102.967L107.745 101.75L106.535 100.519L105.339 101.243C105.022 101.06 104.682 100.916 104.324 100.815L103.981 99.4429H102.27L101.927 100.815C101.569 100.916 101.229 101.06 100.913 101.243L99.7162 100.519L98.506 101.75L99.2176 102.967C99.0382 103.289 98.896 103.635 98.7971 103.999L97.4482 104.348V106.089L98.7971 106.438C98.896 106.802 99.0382 107.148 99.2176 107.47L98.506 108.687L99.7162 109.918L100.913 109.194C101.229 109.376 101.569 109.521 101.927 109.622L102.27 110.994H103.981L104.324 109.622C104.682 109.521 105.022 109.376 105.339 109.194L106.535 109.918L107.745 108.687L107.034 107.47C107.213 107.148 107.355 106.802 107.454 106.438L108.803 106.089Z" fill="#253368"/>
<path fill-rule="evenodd" clip-rule="evenodd" d="M103.739 96.7883L101.495 96.3476L103.868 93.6093C103.657 93.5748 103.44 93.5566 103.219 93.5566C100.966 93.5566 99.1401 95.4142 99.1401 97.7056C99.1401 99.997 100.966 101.855 103.219 101.855C105.471 101.855 107.297 99.997 107.297 97.7056C107.297 97.5443 107.288 97.3852 107.27 97.2287L103.739 96.7883Z" fill="#A3B5D6"/>
<path fill-rule="evenodd" clip-rule="evenodd" d="M103.738 96.7881L99.5181 95.9593C99.2757 96.4901 99.14 97.0816 99.14 97.7054C99.14 98.267 99.25 98.8025 99.4487 99.291L90.3977 107.833C89.8458 109.601 91.5108 111.253 93.2348 110.649L93.3551 110.606L101.69 101.553C102.162 101.747 102.678 101.854 103.219 101.854C105.471 101.854 107.297 99.9968 107.297 97.7054C107.297 96.4609 106.758 95.3444 105.905 94.584L103.738 96.7881Z" fill="#CCD7EE"/>
<path fill-rule="evenodd" clip-rule="evenodd" d="M99.4411 102.418L98.5537 101.515L99.4411 100.612L100.329 101.515L99.4411 102.418Z" fill="#A3B5D6"/>
<g clip-path="url(#clip0)">
<path d="M38.7837 63.6147L41.2174 62.2979L49.2711 77.7012C49.4556 78.054 49.324 78.4922 48.9771 78.6799L47.7995 79.317C47.4527 79.5047 47.0219 79.3708 46.8374 79.018L38.7837 63.6147Z" fill="#FAAD14"/>
<path d="M39.2093 60.2102L38.2717 60.7176L38.7842 63.6163L41.2176 62.2997L39.2093 60.2102Z" fill="#FFF1B8"/>
<path d="M38.1469 59.4639L38.3021 60.7033L39.1918 60.2219L38.2439 59.41C38.2252 59.3939 38.1987 59.3912 38.1772 59.4031C38.1557 59.4151 38.1437 59.4392 38.1469 59.4639Z" fill="#253368"/>
<path d="M57.3836 71.7113L58.7142 70.9913L59.3466 72.2007C59.5421 72.5745 59.4026 73.0388 59.0351 73.2377C58.6675 73.4366 58.2111 73.2947 58.0156 72.9208L57.3833 71.7114L57.3836 71.7113Z" fill="#253368"/>
<path d="M49.0623 53.792C49.0125 53.6968 48.8963 53.6607 48.8027 53.7113C48.7092 53.7619 48.6737 53.8802 48.7234 53.9753L48.9503 54.4093C49.0001 54.5045 49.1163 54.5406 49.2099 54.49C49.3034 54.4393 49.339 54.3211 49.2892 54.2259L49.0623 53.792Z" fill="#4E5C93"/>
<path d="M49.2183 56.8613L51.1731 55.8036L58.9703 70.7162C59.1548 71.0691 59.0231 71.5073 58.6763 71.695L57.9776 72.073C57.6307 72.2607 57.2 72.1268 57.0155 71.7739L49.2183 56.8613Z" fill="#597EF7"/>
<path d="M49.3963 54.1838L51.1745 55.8029L49.2183 56.8613L48.8614 54.4753C48.8538 54.4245 48.8785 54.3744 48.9231 54.3504L49.2604 54.1679C49.3044 54.1434 49.3589 54.1498 49.3963 54.1838Z" fill="#E4EBF7"/>
<path d="M58.5963 70.001L56.6426 71.0581L56.8306 71.4177L58.7844 70.3606L58.5963 70.001Z" fill="white"/>
<path d="M57.8935 67.2479L57.3193 67.5586L58.5656 69.9422L59.1398 69.6315L57.8935 67.2479Z" fill="#253368"/>
<path d="M56.9029 64.7757C56.8338 64.6434 56.6722 64.5932 56.5422 64.6636C56.4121 64.734 56.3627 64.8983 56.4319 65.0306L59.5219 70.9404C59.5911 71.0727 59.7526 71.1229 59.8827 71.0525C60.0128 70.9821 60.0621 70.8178 59.9929 70.6855L56.9029 64.7757Z" fill="#A3B5D6"/>
<path d="M44.5867 57.9459L43.7951 58.3742C43.6881 58.4321 43.5553 58.3908 43.4984 58.282L42.9648 57.2614C42.9157 57.1675 42.9386 57.0514 43.0196 56.9841L43.7274 56.3962C43.7782 56.3538 43.845 56.3368 43.9095 56.3499C43.974 56.363 44.0293 56.4048 44.0602 56.4638L44.6773 57.6441C44.7342 57.7529 44.6936 57.888 44.5867 57.9459Z" fill="#FF7946"/>
<path d="M46.9356 59.6561L43.9712 61.26L50.6492 74.032L53.6136 72.4281L46.9356 59.6561Z" fill="#FF7946"/>
<path d="M49.7314 72.2781L52.6958 70.6741L54.8183 74.7335C55.0028 75.0864 54.8712 75.5245 54.5243 75.7122L52.816 76.6365C52.4692 76.8242 52.0384 76.6903 51.8539 76.3375L49.7314 72.2781Z" fill="black"/>
<path d="M46.9356 59.6561L43.9712 61.26L44.5559 62.3784L47.5203 60.7744L46.9356 59.6561Z" fill="#253368"/>
<path d="M46.5781 58.9734L46.9352 59.6562L43.9708 61.2602L43.6111 60.5723L43.3469 58.104L44.6197 57.4153L46.5781 58.9734Z" fill="#E4EBF7"/>
<path d="M46.5757 58.9805L43.6113 60.5845L43.971 61.2723L46.9354 59.6684L46.5757 58.9805Z" fill="#F5F5F5"/>
<path d="M53.271 71.785L50.3066 73.3889L50.6663 74.0768L53.6307 72.4728L53.271 71.785Z" fill="#F5F5F5"/>
<path d="M48.3437 64.0192C48.5401 64.3949 48.4492 64.6179 48.0683 64.6836C47.6874 64.7493 47.3902 64.5894 47.1876 64.2018L47.0232 63.8874C46.9982 63.8396 46.9462 63.8129 46.8935 63.821L46.3483 63.9053C46.2956 63.9134 46.2436 63.8867 46.2186 63.8389L46.2061 63.8149C46.1868 63.7782 46.1863 63.7343 46.2047 63.6972C46.2231 63.6601 46.2581 63.6344 46.2985 63.6283L47.9176 63.3861C47.9702 63.3783 48.0219 63.405 48.0468 63.4528L48.3437 64.0192ZM47.42 63.7397C47.3797 63.7458 47.3448 63.7716 47.3265 63.8086C47.3082 63.8457 47.3088 63.8895 47.3281 63.926L47.4421 64.1441C47.5023 64.2593 47.5723 64.3393 47.6474 64.3847C47.7225 64.4301 47.8197 64.4425 47.9323 64.4235C48.0449 64.4046 48.1079 64.3626 48.1278 64.3024C48.1476 64.2421 48.1297 64.1538 48.0712 64.042L47.9181 63.7492C47.8931 63.7013 47.8411 63.6747 47.7884 63.6828L47.42 63.7397Z" fill="white"/>
<path d="M49.1753 65.9609C49.1211 65.9717 49.0664 65.9451 49.0404 65.8956L48.6711 65.1894C48.6452 65.141 48.5918 65.1149 48.5385 65.1245L48.2841 65.1709C48.2447 65.178 48.211 65.2038 48.1933 65.2403C48.1757 65.2769 48.1762 65.3198 48.1948 65.3559L48.467 65.8763C48.4857 65.912 48.4866 65.9547 48.4696 65.9913C48.4525 66.0278 48.4194 66.054 48.3803 66.0618C48.326 66.0725 48.2713 66.0459 48.2453 65.9962L47.8973 65.3307C47.8716 65.2823 47.8183 65.2562 47.765 65.2657L47.4625 65.3177C47.4231 65.3249 47.3895 65.3507 47.3718 65.3872C47.3542 65.4237 47.3547 65.4666 47.3732 65.5026L47.6999 66.1274C47.7186 66.1631 47.7196 66.2058 47.7024 66.2423C47.6853 66.2789 47.6522 66.305 47.6131 66.3127C47.5589 66.3234 47.5042 66.2969 47.4782 66.2474L46.976 65.2869C46.9574 65.2508 46.9568 65.2078 46.9745 65.1712C46.9922 65.1346 47.0261 65.1088 47.0656 65.1018L48.663 64.8181C48.7162 64.8086 48.7694 64.8348 48.7951 64.8832L49.2608 65.7739C49.2801 65.8096 49.2815 65.8526 49.2646 65.8895C49.2477 65.9264 49.2145 65.953 49.1753 65.9609Z" fill="white"/>
<path d="M49.5798 66.3834C49.6041 66.43 49.5978 66.487 49.5639 66.5269L48.7127 67.5264L48.7173 67.5352L49.9346 67.2611C49.9897 67.2487 50.046 67.2752 50.0725 67.3258L50.0853 67.3503C50.1037 67.3854 50.1049 67.4273 50.0886 67.4635C50.0723 67.4997 50.0404 67.5261 50.0023 67.5349L48.444 67.8934C48.3888 67.9062 48.3321 67.8798 48.3055 67.829L48.2568 67.7358C48.2317 67.6891 48.2377 67.6315 48.2718 67.5911L49.1327 66.5717L49.1281 66.5629L47.8813 66.825C47.827 66.8358 47.7721 66.8092 47.7463 66.7594L47.7317 66.7314C47.7131 66.6958 47.7121 66.6533 47.7291 66.6169C47.746 66.5804 47.7789 66.5542 47.8178 66.5462L49.395 66.2239C49.4493 66.2132 49.504 66.2398 49.53 66.2895L49.5798 66.3834Z" fill="white"/>
<path d="M49.3477 68.8317C49.3095 68.7587 49.2205 68.7311 49.1488 68.7699C49.0772 68.8086 49.05 68.8992 49.0881 68.9721L49.639 70.0258C49.6771 70.0987 49.7661 70.1264 49.8378 70.0876C49.9095 70.0488 49.9367 69.9582 49.8986 69.8853L49.3477 68.8317Z" fill="#F5222D"/>
<path d="M40.5147 62.6889L39.5205 63.2268L47.9038 79.2604L48.898 78.7225L40.5147 62.6889Z" fill="#FAAD14"/>
</g>
<path fill-rule="evenodd" clip-rule="evenodd" d="M120.401 47.0713H66.1431V43.2647C66.1431 42.439 66.8038 41.7695 67.6188 41.7695H118.926C119.741 41.7695 120.401 42.439 120.401 43.2647V47.0713Z" fill="#253368"/>
<path fill-rule="evenodd" clip-rule="evenodd" d="M69.9478 44.2587C69.9478 44.7769 69.5356 45.197 69.0273 45.197C68.519 45.197 68.1069 44.7769 68.1069 44.2587C68.1069 43.7405 68.519 43.3203 69.0273 43.3203C69.5356 43.3203 69.9478 43.7405 69.9478 44.2587Z" fill="#FF7946"/>
<path fill-rule="evenodd" clip-rule="evenodd" d="M73.3842 44.2587C73.3842 44.7769 72.9722 45.197 72.4638 45.197C71.9555 45.197 71.5435 44.7769 71.5435 44.2587C71.5435 43.7405 71.9555 43.3203 72.4638 43.3203C72.9722 43.3203 73.3842 43.7405 73.3842 44.2587Z" fill="#FAAD14"/>
<path fill-rule="evenodd" clip-rule="evenodd" d="M76.8207 44.2587C76.8207 44.7769 76.4087 45.197 75.9003 45.197C75.392 45.197 74.98 44.7769 74.98 44.2587C74.98 43.7405 75.392 43.3203 75.9003 43.3203C76.4087 43.3203 76.8207 43.7405 76.8207 44.2587Z" fill="#7CB305"/>
<path fill-rule="evenodd" clip-rule="evenodd" d="M67.7865 83.6486C66.8789 83.6486 66.1431 82.9801 66.1431 82.1555V46.6023H120.404V82.1555C120.404 82.9801 119.668 83.6486 118.761 83.6486H67.7865Z" fill="#E4EBF7"/>
<path d="M116.11 49.6616H84.6901C84.3284 49.6616 84.0352 49.9599 84.0352 50.3278V80.1455C84.0352 80.5134 84.3284 80.8117 84.6901 80.8117H116.11C116.472 80.8117 116.765 80.5134 116.765 80.1455V50.3278C116.765 49.9599 116.472 49.6616 116.11 49.6616Z" fill="white"/>
<path d="M80.9802 49.606H70.2892C69.9275 49.606 69.6343 49.9042 69.6343 50.2722V80.0899C69.6343 80.4578 69.9275 80.7561 70.2892 80.7561H80.9802C81.3419 80.7561 81.6351 80.4578 81.6351 80.0899V50.2722C81.6351 49.9042 81.3419 49.606 80.9802 49.606Z" fill="white"/>
<path d="M78.6239 61.8435H72.6244C72.419 61.8435 72.2524 62.0129 72.2524 62.2219V63.1579C72.2524 63.3669 72.419 63.5363 72.6244 63.5363H78.6239C78.8294 63.5363 78.9959 63.3669 78.9959 63.1579V62.2219C78.9959 62.0129 78.8294 61.8435 78.6239 61.8435Z" fill="#ADC6FF"/>
<path d="M78.6296 65.1255H72.6188C72.4165 65.1255 72.2524 65.2923 72.2524 65.4982V66.3943C72.2524 66.6001 72.4165 66.767 72.6188 66.767H78.6296C78.8319 66.767 78.9959 66.6001 78.9959 66.3943V65.4982C78.9959 65.2923 78.8319 65.1255 78.6296 65.1255Z" fill="#FF7946"/>
<path d="M78.6296 68.3516H72.6188C72.4165 68.3516 72.2524 68.5184 72.2524 68.7242V69.6204C72.2524 69.8262 72.4165 69.9931 72.6188 69.9931H78.6296C78.8319 69.9931 78.9959 69.8262 78.9959 69.6204V68.7242C78.9959 68.5184 78.8319 68.3516 78.6296 68.3516Z" fill="#FAAD14"/>
<path d="M78.6296 71.5779H72.6188C72.4165 71.5779 72.2524 71.7447 72.2524 71.9506V72.8467C72.2524 73.0525 72.4165 73.2194 72.6188 73.2194H78.6296C78.8319 73.2194 78.9959 73.0525 78.9959 72.8467V71.9506C78.9959 71.7447 78.8319 71.5779 78.6296 71.5779Z" fill="#597EF7"/>
<path d="M106.509 64.0129H87.7447C87.5036 64.0129 87.3081 64.2118 87.3081 64.4571V64.4588C87.3081 64.7041 87.5036 64.903 87.7447 64.903H106.509C106.75 64.903 106.946 64.7041 106.946 64.4588V64.4571C106.946 64.2118 106.75 64.0129 106.509 64.0129Z" fill="#ADC6FF"/>
<path d="M106.509 68.5742H87.7447C87.5036 68.5742 87.3081 68.7731 87.3081 69.0183V69.0201C87.3081 69.2654 87.5036 69.4642 87.7447 69.4642H106.509C106.75 69.4642 106.946 69.2654 106.946 69.0201V69.0183C106.946 68.7731 106.75 68.5742 106.509 68.5742Z" fill="#ADC6FF"/>
<path d="M113.055 66.238H87.7447C87.5036 66.238 87.3081 66.4369 87.3081 66.6822V66.6839C87.3081 66.9292 87.5036 67.1281 87.7447 67.1281H113.055C113.296 67.1281 113.492 66.9292 113.492 66.6839V66.6822C113.492 66.4369 113.296 66.238 113.055 66.238Z" fill="#ADC6FF"/>
<path d="M97.9992 71.4666H88.6179C87.8945 71.4666 87.3081 72.0631 87.3081 72.799V76.4754C87.3081 77.2113 87.8945 77.8078 88.6179 77.8078H97.9992C98.7225 77.8078 99.309 77.2113 99.309 76.4754V72.799C99.309 72.0631 98.7225 71.4666 97.9992 71.4666Z" fill="#FAAD14"/>
<path d="M112.619 52.6655H88.1813C87.699 52.6655 87.3081 53.0632 87.3081 53.5538V61.7898C87.3081 62.2804 87.699 62.6781 88.1813 62.6781H112.619C113.101 62.6781 113.492 62.2804 113.492 61.7898V53.5538C113.492 53.0632 113.101 52.6655 112.619 52.6655Z" fill="#597EF7"/>
<path d="M112.182 71.4666H102.801C102.078 71.4666 101.491 72.0631 101.491 72.799V76.4754C101.491 77.2113 102.078 77.8078 102.801 77.8078H112.182C112.906 77.8078 113.492 77.2113 113.492 76.4754V72.799C113.492 72.0631 112.906 71.4666 112.182 71.4666Z" fill="#FF7946"/>
<path d="M75.6241 58.4299C77.2877 58.4299 78.6364 57.0424 78.6364 55.3308C78.6364 53.6192 77.2877 52.2317 75.6241 52.2317C73.9605 52.2317 72.6118 53.6192 72.6118 55.3308C72.6118 57.0424 73.9605 58.4299 75.6241 58.4299Z" fill="#FAAD14"/>
<path d="M75.6242 58.4298C76.4924 58.4303 77.3164 58.0357 77.875 57.3519C77.4348 56.4922 76.5681 55.9541 75.6238 55.9541C74.6794 55.9541 73.8127 56.4922 73.3726 57.3519C73.9314 58.0358 74.7557 58.4304 75.6242 58.4298Z" fill="#253368"/>
<path d="M75.6397 56.0775C76.2654 56.0775 76.7726 55.5556 76.7726 54.9119C76.7726 54.2682 76.2654 53.7463 75.6397 53.7463C75.0141 53.7463 74.5068 54.2682 74.5068 54.9119C74.5068 55.5556 75.0141 56.0775 75.6397 56.0775Z" fill="#253368"/>
<path fill-rule="evenodd" clip-rule="evenodd" d="M117.725 23.303C110.619 23.303 104.857 29.1636 104.857 36.3931C104.857 43.6226 110.619 49.4832 117.725 49.4832C124.832 49.4832 130.593 43.6226 130.593 36.3931C130.593 29.1636 124.832 23.303 117.725 23.303Z" fill="#FF9D00"/>
<path fill-rule="evenodd" clip-rule="evenodd" d="M115.652 40.8397L114.84 40.0133L122.712 31.9757C122.981 31.7018 123.418 31.7018 123.687 31.9757L124.012 32.3062C124.281 32.5801 124.281 33.0241 124.012 33.298L116.627 40.8397C116.358 41.1136 115.921 41.1136 115.652 40.8397Z" fill="white"/>
<path fill-rule="evenodd" clip-rule="evenodd" d="M117.438 40.0133L116.625 40.8397C116.356 41.1136 115.919 41.1136 115.65 40.8397L112.415 37.5489C112.146 37.2751 112.146 36.8311 112.415 36.5572L112.74 36.2266C113.009 35.9528 113.446 35.9528 113.715 36.2266L117.438 40.0133Z" fill="white"/>
<defs>
<clipPath id="clip0">
<rect width="25.3899" height="25.634" fill="white" transform="matrix(0.87951 -0.47588 0.463347 0.886177 31.7773 60.863)"/>
</clipPath>
</defs>
</svg>
