<svg width="853" height="774" viewBox="0 0 853 774" fill="none" xmlns="http://www.w3.org/2000/svg">
<path d="M230.286 137.416H209.907C207.656 137.416 205.831 139.241 205.831 141.492C205.831 143.743 207.656 145.568 209.907 145.568H230.286C232.537 145.568 234.362 143.743 234.362 141.492C234.362 139.241 232.537 137.416 230.286 137.416Z" fill="#CCD7EE"/>
<path d="M105.567 71.6924L175.262 141.387H449.32V243.072" stroke="#CCD7EE" stroke-width="1.01897"/>
<path d="M453.44 174.099C453.44 171.848 451.615 170.023 449.364 170.023C447.113 170.023 445.288 171.848 445.288 174.099C445.288 176.35 447.113 178.175 449.364 178.175C451.615 178.175 453.44 176.35 453.44 174.099Z" fill="#023861"/>
<path d="M453.44 141.492C453.44 139.241 451.615 137.416 449.364 137.416C447.113 137.416 445.288 139.241 445.288 141.492C445.288 143.743 447.113 145.568 449.364 145.568C451.615 145.568 453.44 143.743 453.44 141.492Z" fill="#CCD7EE"/>
<path d="M179.338 141.492C179.338 139.241 177.513 137.416 175.262 137.416C173.011 137.416 171.187 139.241 171.187 141.492C171.187 143.743 173.011 145.568 175.262 145.568C177.513 145.568 179.338 143.743 179.338 141.492Z" fill="#56CCF2"/>
<path d="M247.609 141.492C247.609 139.241 245.784 137.416 243.533 137.416C241.282 137.416 239.457 139.241 239.457 141.492C239.457 143.743 241.282 145.568 243.533 145.568C245.784 145.568 247.609 143.743 247.609 141.492Z" fill="#023861"/>
<path d="M588.056 23.8481V97.093L555.273 129.876V307.328H513.559" stroke="#CCD7EE" stroke-width="1.01897"/>
<path d="M559.413 306.565C559.413 304.314 557.588 302.489 555.337 302.489C553.086 302.489 551.261 304.314 551.261 306.565C551.261 308.816 553.086 310.641 555.337 310.641C557.588 310.641 559.413 308.816 559.413 306.565Z" fill="#CCD7EE"/>
<path fill-rule="evenodd" clip-rule="evenodd" d="M235.266 252.274C235.266 252.199 235.269 252.125 235.269 252.049C235.269 211.249 202.345 178.174 161.731 178.174C131.618 178.174 105.736 196.36 94.3642 222.392C91.4796 221.894 88.5153 221.63 85.4891 221.63C56.8204 221.63 33.5796 244.978 33.5796 273.777C33.5796 302.577 56.8204 325.924 85.4891 325.924H239.325C259.632 325.924 276.094 309.387 276.094 288.987C276.094 268.587 259.632 252.049 239.325 252.049C237.953 252.049 236.599 252.127 235.266 252.274Z" fill="url(#paint0_linear)"/>
<path fill-rule="evenodd" clip-rule="evenodd" d="M627.752 302.348C627.752 302.273 627.749 302.198 627.749 302.123C627.749 261.323 660.674 228.248 701.288 228.248C731.401 228.248 757.282 246.434 768.654 272.466C771.539 271.967 774.503 271.704 777.53 271.704C806.198 271.704 829.439 295.051 829.439 323.851C829.439 352.651 806.198 375.998 777.53 375.998H623.694C603.387 375.998 586.925 359.46 586.925 339.06C586.925 318.66 603.387 302.123 623.694 302.123C625.065 302.123 626.419 302.201 627.752 302.348Z" fill="url(#paint1_linear)"/>
<path d="M555.336 130.283V0" stroke="#CCD7EE" stroke-width="1.01897"/>
<path d="M559.413 130.283C559.413 128.032 557.588 126.208 555.337 126.208C553.086 126.208 551.261 128.032 551.261 130.283C551.261 132.534 553.086 134.359 555.337 134.359C557.588 134.359 559.413 132.534 559.413 130.283Z" fill="#CCD7EE"/>
<path d="M559.413 182.25C559.413 179.999 557.588 178.174 555.337 178.174C553.086 178.174 551.261 179.999 551.261 182.25C551.261 184.501 553.086 186.326 555.337 186.326C557.588 186.326 559.413 184.501 559.413 182.25Z" fill="#56CCF2"/>
<path d="M559.413 244.665C559.413 242.414 557.588 240.589 555.337 240.589C553.086 240.589 551.261 242.414 551.261 244.665C551.261 246.916 553.086 248.741 555.337 248.741C557.588 248.741 559.413 246.916 559.413 244.665Z" fill="#56CCF2"/>
<path d="M575.716 353.437C575.716 351.186 573.891 349.361 571.64 349.361C569.389 349.361 567.564 351.186 567.564 353.437C567.564 355.688 569.389 357.513 571.64 357.513C573.891 357.513 575.716 355.688 575.716 353.437Z" fill="#CCD7EE"/>
<path d="M197.915 384.15L174.09 407.975H0" stroke="#E4EBF7" stroke-width="1.01897"/>
<path d="M177.3 408.605C177.3 406.354 175.475 404.529 173.224 404.529C170.973 404.529 169.148 406.354 169.148 408.605C169.148 410.856 170.973 412.681 173.224 412.681C175.475 412.681 177.3 410.856 177.3 408.605Z" fill="#56CCF2"/>
<path d="M368.866 350.524C368.866 348.273 367.041 346.448 364.79 346.448C362.539 346.448 360.714 348.273 360.714 350.524C360.714 352.775 362.539 354.6 364.79 354.6C367.041 354.6 368.866 352.775 368.866 350.524Z" fill="#CCD7EE"/>
<path d="M559.413 96.6574C559.413 94.4064 557.588 92.5815 555.337 92.5815C553.086 92.5815 551.261 94.4064 551.261 96.6574C551.261 98.9084 553.086 100.733 555.337 100.733C557.588 100.733 559.413 98.9084 559.413 96.6574Z" fill="#56CCF2"/>
<path d="M558.394 48.7664C558.394 47.0781 557.025 45.7095 555.337 45.7095C553.648 45.7095 552.28 47.0781 552.28 48.7664V84.4302C552.28 86.1185 553.648 87.4871 555.337 87.4871C557.025 87.4871 558.394 86.1185 558.394 84.4302V48.7664Z" fill="#56CCF2"/>
<path d="M558.394 210.324C558.394 208.635 557.025 207.267 555.337 207.267C553.648 207.267 552.28 208.635 552.28 210.324V219.263C552.28 220.951 553.648 222.32 555.337 222.32C557.025 222.32 558.394 220.951 558.394 219.263V210.324Z" fill="#56CCF2"/>
<path d="M559.413 182.76H600.171" stroke="#E4EBF7" stroke-width="1.01897" stroke-linecap="square"/>
<path d="M512.54 353.437L731.108 353.946" stroke="#E4EBF7" stroke-width="1.01897" stroke-linecap="square"/>
<path d="M571.64 353.946L596.13 378.436H673.537" stroke="#E4EBF7" stroke-width="1.01897"/>
<path d="M393.95 350.657H365.079L355.1 360.636" stroke="#E4EBF7" stroke-width="1.01897"/>
<path d="M314.861 137.416H260.855C258.604 137.416 256.78 139.241 256.78 141.492C256.78 143.743 258.604 145.568 260.855 145.568H314.861C317.112 145.568 318.936 143.743 318.936 141.492C318.936 139.241 317.112 137.416 314.861 137.416Z" fill="#56CCF2"/>
<path fill-rule="evenodd" clip-rule="evenodd" d="M459.771 407.072H457.69C454.829 407.072 452.487 404.737 452.487 401.881V360.354C452.487 357.499 454.829 355.163 457.69 355.163H459.771C462.632 355.163 464.974 357.499 464.974 360.354V401.881C464.974 404.737 462.632 407.072 459.771 407.072Z" fill="#253368"/>
<path fill-rule="evenodd" clip-rule="evenodd" d="M521.602 408.623C521.602 412.064 518.807 414.853 515.358 414.853H402.982C399.533 414.853 396.738 412.064 396.738 408.623C396.738 405.184 399.533 402.394 402.982 402.394H515.358C518.807 402.394 521.602 405.184 521.602 408.623Z" fill="#253368"/>
<path fill-rule="evenodd" clip-rule="evenodd" d="M440.977 419.147C439.261 419.147 437.857 417.745 437.857 416.032V401.214C437.857 399.501 439.261 398.101 440.977 398.101H476.483C478.2 398.101 479.605 399.501 479.605 401.214V416.032C479.605 417.745 478.2 419.147 476.483 419.147H440.977Z" fill="#A3B5D6"/>
<path d="M443.041 401.17V416.078" stroke="#4E5C93" stroke-width="5.36072" stroke-linecap="round" stroke-linejoin="round"/>
<path d="M473.901 401.17V416.078" stroke="#4E5C93" stroke-width="5.36072" stroke-linecap="round" stroke-linejoin="round"/>
<path fill-rule="evenodd" clip-rule="evenodd" d="M400.634 379.207H517.704V242.765H400.634V379.207Z" fill="#4E5C93"/>
<path fill-rule="evenodd" clip-rule="evenodd" d="M400.109 380.385C397.178 380.385 394.781 377.993 394.781 375.07V343.65C394.781 340.727 397.178 338.335 400.109 338.335H518.231C521.161 338.335 523.559 340.727 523.559 343.65V375.07C523.559 377.993 521.161 380.385 518.231 380.385H400.109Z" fill="#A3B5D6"/>
<path fill-rule="evenodd" clip-rule="evenodd" d="M400.109 282.215C397.178 282.215 394.781 279.823 394.781 276.899V245.48C394.781 242.557 397.178 240.164 400.109 240.164H518.231C521.161 240.164 523.559 242.557 523.559 245.48V276.899C523.559 279.823 521.161 282.215 518.231 282.215H400.109Z" fill="#A3B5D6"/>
<path fill-rule="evenodd" clip-rule="evenodd" d="M409.708 265.176C407.501 265.176 405.713 263.39 405.713 261.189C405.713 258.988 407.501 257.203 409.708 257.203C411.915 257.203 413.704 258.988 413.704 261.189C413.704 263.39 411.915 265.176 409.708 265.176Z" fill="white"/>
<path fill-rule="evenodd" clip-rule="evenodd" d="M418.027 261.189C418.027 258.988 419.816 257.203 422.023 257.203C424.229 257.203 426.019 258.988 426.019 261.189C426.019 263.39 424.229 265.176 422.023 265.176C419.816 265.176 418.027 263.39 418.027 261.189Z" fill="white"/>
<path fill-rule="evenodd" clip-rule="evenodd" d="M434.339 265.176C432.131 265.176 430.343 263.39 430.343 261.189C430.343 258.988 432.131 257.203 434.339 257.203C436.545 257.203 438.333 258.988 438.333 261.189C438.333 263.39 436.545 265.176 434.339 265.176Z" fill="white"/>
<path fill-rule="evenodd" clip-rule="evenodd" d="M476.744 265.176C476.135 265.176 475.642 264.684 475.642 264.076V258.303C475.642 257.695 476.135 257.203 476.744 257.203H514.495C515.104 257.203 515.597 257.695 515.597 258.303V264.076C515.597 264.684 515.104 265.176 514.495 265.176H476.744Z" fill="#4E5C93"/>
<path fill-rule="evenodd" clip-rule="evenodd" d="M400.109 331.3C397.178 331.3 394.781 328.908 394.781 325.984V294.565C394.781 291.642 397.178 289.249 400.109 289.249H518.231C521.161 289.249 523.559 291.642 523.559 294.565V325.984C523.559 328.908 521.161 331.3 518.231 331.3H400.109Z" fill="#A3B5D6"/>
<path fill-rule="evenodd" clip-rule="evenodd" d="M409.708 315.686C407.501 315.686 405.713 313.901 405.713 311.699C405.713 309.497 407.501 307.713 409.708 307.713C411.915 307.713 413.704 309.497 413.704 311.699C413.704 313.901 411.915 315.686 409.708 315.686Z" fill="white"/>
<path fill-rule="evenodd" clip-rule="evenodd" d="M422.023 315.686C419.816 315.686 418.027 313.901 418.027 311.699C418.027 309.497 419.816 307.713 422.023 307.713C424.229 307.713 426.019 309.497 426.019 311.699C426.019 313.901 424.229 315.686 422.023 315.686Z" fill="#4E5C93"/>
<path fill-rule="evenodd" clip-rule="evenodd" d="M434.339 315.686C432.131 315.686 430.343 313.901 430.343 311.699C430.343 309.497 432.131 307.713 434.339 307.713C436.545 307.713 438.333 309.497 438.333 311.699C438.333 313.901 436.545 315.686 434.339 315.686Z" fill="#4E5C93"/>
<path fill-rule="evenodd" clip-rule="evenodd" d="M514.265 315.686H476.974C476.238 315.686 475.642 315.091 475.642 314.357V309.041C475.642 308.307 476.238 307.713 476.974 307.713H514.265C515.001 307.713 515.597 308.307 515.597 309.041V314.357C515.597 315.091 515.001 315.686 514.265 315.686Z" fill="white"/>
<path fill-rule="evenodd" clip-rule="evenodd" d="M405.713 359.654C405.713 357.453 407.501 355.668 409.708 355.668C411.915 355.668 413.704 357.453 413.704 359.654C413.704 361.855 411.915 363.641 409.708 363.641C407.501 363.641 405.713 361.855 405.713 359.654Z" fill="white"/>
<path fill-rule="evenodd" clip-rule="evenodd" d="M422.023 363.641C419.816 363.641 418.027 361.855 418.027 359.654C418.027 357.453 419.816 355.668 422.023 355.668C424.229 355.668 426.019 357.453 426.019 359.654C426.019 361.855 424.229 363.641 422.023 363.641Z" fill="white"/>
<path fill-rule="evenodd" clip-rule="evenodd" d="M434.339 363.641C432.131 363.641 430.343 361.855 430.343 359.654C430.343 357.453 432.131 355.668 434.339 355.668C436.545 355.668 438.333 357.453 438.333 359.654C438.333 361.855 436.545 363.641 434.339 363.641Z" fill="white"/>
<path fill-rule="evenodd" clip-rule="evenodd" d="M514.265 363.641H476.974C476.238 363.641 475.642 363.045 475.642 362.312V356.996C475.642 356.262 476.238 355.668 476.974 355.668H514.265C515.001 355.668 515.597 356.262 515.597 356.996V362.312C515.597 363.045 515.001 363.641 514.265 363.641Z" fill="#4E5C93"/>
<path fill-rule="evenodd" clip-rule="evenodd" d="M223.546 624.877C223.546 624.877 222.126 634.898 236.354 644.596C241.69 648.232 244.569 655.768 239.585 657.203C236.151 658.192 229.308 655.176 222.251 651.756C212.389 646.977 215.557 642.218 209.851 640.523C206.544 639.54 198.151 635.685 198.331 633.416C198.648 629.452 199.608 628.944 202.948 623.729C223.901 591.023 230.096 605.177 223.546 624.877Z" fill="#253368"/>
<path fill-rule="evenodd" clip-rule="evenodd" d="M206.503 616.78L243.503 530.395C246.499 523.399 255.83 520.917 263.859 524.978C271.611 528.899 275.092 537.393 271.594 543.858L226.791 626.665C226.791 626.665 216.72 626.625 206.503 616.78Z" fill="#4E5C93"/>
<path fill-rule="evenodd" clip-rule="evenodd" d="M260.203 543.376C268.399 543.792 275.431 538.193 276.124 530.7L283.837 447.164C284.732 437.467 276.659 428.958 266.051 428.42C255.443 427.881 246.547 435.529 246.454 445.268L245.651 529.154C245.579 536.678 252.007 542.961 260.203 543.376Z" fill="#4E5C93"/>
<path fill-rule="evenodd" clip-rule="evenodd" d="M271.813 312.162L272.494 287.499L250.277 286.702L246.939 310.054C245.931 317.106 251.028 323.57 258.13 324.246C265.333 324.931 271.613 319.385 271.813 312.162Z" fill="#FFC999"/>
<path fill-rule="evenodd" clip-rule="evenodd" d="M278.466 285.446C278.466 285.446 282.189 282.287 283.378 284.777C284.568 287.266 281.248 295.422 277.565 295.279C272.647 295.088 278.466 285.446 278.466 285.446Z" fill="#CCD7EE"/>
<path fill-rule="evenodd" clip-rule="evenodd" d="M255.039 304.865C255.039 304.865 261.641 311.447 271.73 306.559C278.992 303.042 281.333 287.952 281.108 276.686C280.982 270.312 278.407 266.636 272.438 264.167C266.469 261.699 249.793 260.001 247.863 278.534C245.714 299.176 255.039 304.865 255.039 304.865Z" fill="#FFC999"/>
<path d="M269.71 278.774C269.774 278.598 269.969 278.506 270.145 278.57C270.302 278.627 270.392 278.787 270.366 278.945L270.35 279.005L268.996 282.755L270.053 293.456C270.072 293.649 269.927 293.814 269.741 293.828L269.684 293.828L265.232 293.429C265.045 293.413 264.906 293.248 264.923 293.061C264.938 292.893 265.074 292.764 265.237 292.752L265.292 292.753L269.335 293.114L268.312 282.746C268.309 282.712 268.31 282.679 268.317 282.646L268.33 282.597L269.71 278.774Z" fill="#DD936F"/>
<path d="M261.303 295.664C261.393 295.418 261.666 295.292 261.913 295.381L262.059 295.431C262.123 295.451 262.201 295.476 262.295 295.503L262.393 295.532C262.801 295.649 263.278 295.767 263.822 295.877C265.486 296.214 267.382 296.407 269.469 296.38C269.732 296.377 269.947 296.587 269.951 296.849C269.954 297.111 269.744 297.326 269.482 297.329C267.325 297.357 265.361 297.157 263.633 296.807C263.159 296.711 262.731 296.609 262.352 296.506L262.13 296.444C261.868 296.368 261.685 296.309 261.587 296.273C261.34 296.183 261.213 295.911 261.303 295.664Z" fill="#FF7946"/>
<path fill-rule="evenodd" clip-rule="evenodd" d="M249.19 286.691L246.28 279.189C246.28 279.189 245.011 268.663 247.838 264.47C252.226 257.963 260.688 258.989 265.903 257.654C271.119 256.319 271.239 254.623 273.253 255.106C275.266 255.59 282.624 261.88 282.939 267.724C283.215 272.863 280.643 285.629 280.643 285.629C280.643 285.629 280.353 274.069 279.551 270.944C275.729 268.885 261.243 267.365 255.009 268.628C255.009 268.628 254.098 272.463 253.523 275.171C250.054 277.164 249.19 286.691 249.19 286.691Z" fill="#253368"/>
<path d="M256.592 305.855C256.677 305.688 256.881 305.62 257.049 305.704C262.488 308.435 266.915 308.473 270.302 306.915C270.779 306.695 271.19 306.46 271.533 306.226L271.689 306.117C271.805 306.033 271.885 305.968 271.929 305.929C272.069 305.803 272.284 305.815 272.41 305.954C272.535 306.094 272.524 306.309 272.384 306.434C272.301 306.509 272.145 306.632 271.917 306.788C271.543 307.042 271.099 307.296 270.586 307.532C267.014 309.175 262.369 309.136 256.743 306.311C256.576 306.227 256.508 306.023 256.592 305.855Z" fill="#DD936F"/>
<path d="M266.186 281.949L269.471 282.138C269.846 282.16 270.133 282.481 270.111 282.856C270.091 283.205 269.809 283.478 269.467 283.495L269.393 283.495L266.108 283.305C265.733 283.283 265.446 282.962 265.468 282.588C265.488 282.238 265.77 281.965 266.112 281.948L266.186 281.949Z" fill="#253368"/>
<path d="M266.207 284.081C266.827 283.867 267.46 283.758 268.078 283.818C268.814 283.889 269.459 284.2 269.943 284.785C270.183 285.074 270.142 285.503 269.853 285.742C269.584 285.964 269.195 285.944 268.949 285.709L268.895 285.651C268.653 285.358 268.341 285.208 267.946 285.17C267.553 285.132 267.103 285.209 266.652 285.365L266.473 285.431C266.337 285.484 266.233 285.532 266.173 285.564C265.842 285.741 265.43 285.615 265.253 285.284C265.076 284.953 265.201 284.542 265.533 284.365L265.677 284.294C265.814 284.229 265.993 284.155 266.207 284.081Z" fill="#253368"/>
<path d="M264.561 299.361L267.236 299.551C267.423 299.564 267.564 299.727 267.551 299.914C267.539 300.082 267.406 300.213 267.243 300.228L267.188 300.229L264.513 300.039C264.325 300.026 264.184 299.863 264.198 299.676C264.21 299.508 264.343 299.377 264.506 299.362L264.561 299.361Z" fill="#DD936F"/>
<path d="M248.66 280.65L254.04 281.062C254.415 281.091 254.695 281.417 254.667 281.791C254.64 282.14 254.353 282.408 254.01 282.418L253.936 282.417L248.556 282.005C248.182 281.976 247.901 281.65 247.93 281.276C247.957 280.926 248.243 280.659 248.586 280.648L248.66 280.65Z" fill="#253368"/>
<path fill-rule="evenodd" clip-rule="evenodd" d="M254.466 280.706L264.742 281.434C265.46 281.485 266 282.105 265.945 282.821C265.84 284.157 265.612 286.295 265.134 288.105C264.57 290.24 262.527 291.427 260.316 291.372C257.555 291.304 255.084 291.132 253.937 289.618C252.189 287.309 252.909 283.765 253.084 281.873C253.149 281.179 253.77 280.657 254.466 280.706Z" fill="white"/>
<path d="M254.482 280.481C253.662 280.423 252.934 281.036 252.858 281.852L252.815 282.27L252.728 283.019C252.576 284.348 252.523 285.262 252.586 286.217C252.68 287.63 253.042 288.812 253.756 289.755C254.797 291.129 256.527 291.505 260.31 291.599C262.724 291.658 264.782 290.321 265.353 288.163C265.759 286.624 266.02 284.764 266.17 282.839C266.235 281.998 265.602 281.269 264.758 281.209L254.482 280.481ZM254.45 280.932L264.725 281.66C265.319 281.702 265.764 282.214 265.718 282.804C265.57 284.704 265.313 286.54 264.915 288.047C264.401 289.99 262.536 291.201 260.321 291.146L259.826 291.132C256.533 291.021 254.996 290.642 254.118 289.482C253.464 288.618 253.127 287.519 253.039 286.187C252.987 285.403 253.017 284.64 253.118 283.627L253.29 282.091C253.297 282.021 253.304 281.956 253.309 281.894C253.363 281.324 253.876 280.892 254.45 280.932Z" fill="#253368"/>
<path fill-rule="evenodd" clip-rule="evenodd" d="M270.501 281.728L282.135 282.553C282.445 284.281 281.564 290.816 279.467 292.082C276.694 293.291 271.334 292.303 270.596 290.818C269.475 288.566 269.297 284.408 269.445 282.633C269.49 282.093 269.96 281.689 270.501 281.728Z" fill="white"/>
<path d="M270.518 281.502C269.853 281.454 269.275 281.95 269.219 282.614C269.009 285.13 269.423 288.968 270.394 290.919C271.232 292.608 276.804 293.49 279.558 292.289C281.457 291.145 282.809 285.026 282.359 282.513C282.34 282.411 282.255 282.334 282.152 282.327L270.518 281.502ZM281.939 282.765L281.952 282.868C282.236 285.375 280.96 290.916 279.35 291.888C276.819 292.989 271.511 292.15 270.8 290.717C269.872 288.854 269.467 285.093 269.671 282.652C269.706 282.234 270.068 281.924 270.485 281.954L281.939 282.765Z" fill="#253368"/>
<path d="M253.413 280.022L266.126 281.257C266.5 281.294 266.773 281.626 266.737 281.999C266.703 282.348 266.411 282.609 266.068 282.613L265.994 282.61L253.281 281.374C252.907 281.338 252.633 281.006 252.67 280.632C252.703 280.284 252.996 280.022 253.338 280.019L253.413 280.022Z" fill="#253368"/>
<path d="M269.756 281.428L282.251 282.137C282.626 282.158 282.912 282.479 282.891 282.854C282.871 283.203 282.59 283.476 282.248 283.494L282.173 283.493L269.679 282.785C269.304 282.763 269.017 282.442 269.038 282.068C269.058 281.718 269.339 281.445 269.682 281.428L269.756 281.428Z" fill="#253368"/>
<path fill-rule="evenodd" clip-rule="evenodd" d="M248.136 280.757C246.977 279.267 244.988 278.669 243.38 280.063C240.788 282.308 241.899 291.847 248.096 292.928C250.503 292.864 249.946 283.084 248.136 280.757Z" fill="#FFC999"/>
<path d="M244.956 281.466C245.041 281.299 245.246 281.232 245.414 281.317L245.52 281.375C245.583 281.412 245.661 281.459 245.749 281.518C245.992 281.678 246.235 281.868 246.462 282.088C247.375 282.968 247.786 284.055 247.379 285.304C247.23 285.759 246.991 285.994 246.577 286.196L246.388 286.282C246.022 286.443 245.928 286.528 245.871 286.819C245.758 287.391 245.993 287.842 246.481 288.211C246.631 288.324 246.793 288.419 246.954 288.496L247.057 288.543C247.102 288.562 247.137 288.575 247.159 288.583C247.337 288.643 247.432 288.836 247.372 289.013C247.311 289.191 247.118 289.286 246.94 289.226C246.716 289.15 246.395 288.997 246.071 288.753C245.394 288.241 245.033 287.549 245.203 286.688C245.306 286.167 245.533 285.933 246.009 285.708L246.192 285.626C246.515 285.482 246.641 285.371 246.732 285.093C247.048 284.126 246.732 283.293 245.99 282.576C245.794 282.388 245.584 282.223 245.374 282.084L245.24 281.999C245.181 281.963 245.135 281.938 245.105 281.923C244.938 281.838 244.871 281.633 244.956 281.466Z" fill="#DD936F"/>
<path d="M255.265 276.591C255.416 276.089 255.946 275.805 256.449 275.956C258.628 276.613 261.737 277.157 264.073 277.131C264.598 277.125 265.028 277.546 265.034 278.07C265.039 278.594 264.619 279.023 264.094 279.029C261.54 279.057 258.249 278.481 255.9 277.773C255.397 277.622 255.113 277.092 255.265 276.591Z" fill="#253368"/>
<path d="M271.461 277.177C273.137 276.846 274.927 276.849 276.636 277.422C277.51 277.715 278.32 278.149 279.048 278.738C279.456 279.068 279.519 279.666 279.188 280.073C278.858 280.48 278.26 280.542 277.852 280.213C277.305 279.77 276.696 279.444 276.031 279.221C274.682 278.769 273.209 278.766 271.83 279.039C271.492 279.105 271.253 279.17 271.137 279.208C270.639 279.373 270.101 279.102 269.937 278.605C269.772 278.107 270.043 277.571 270.541 277.406L270.705 277.356C270.891 277.303 271.147 277.239 271.461 277.177Z" fill="#253368"/>
<path d="M257.579 283.447C257.841 283.465 258.038 283.692 258.02 283.954C257.954 284.887 258.543 285.665 259.298 285.719C260.054 285.772 260.747 285.084 260.813 284.152C260.831 283.89 261.059 283.693 261.32 283.712C261.582 283.73 261.779 283.957 261.761 284.218C261.66 285.648 260.541 286.758 259.231 286.665C257.921 286.572 256.971 285.316 257.072 283.887C257.091 283.625 257.318 283.429 257.579 283.447Z" fill="#5C4E4A"/>
<path d="M272.101 284.476C272.362 284.494 272.56 284.721 272.541 284.983C272.475 285.916 273.063 286.694 273.819 286.747C274.574 286.801 275.267 286.113 275.333 285.18C275.352 284.919 275.579 284.722 275.841 284.741C276.102 284.759 276.299 284.986 276.281 285.247C276.18 286.677 275.062 287.787 273.752 287.694C272.442 287.601 271.492 286.345 271.593 284.916C271.61 284.676 271.803 284.491 272.036 284.476L272.101 284.476Z" fill="#5C4E4A"/>
<path fill-rule="evenodd" clip-rule="evenodd" d="M282.634 406.538C275.753 406.097 270.461 400.287 270.673 393.404L272.458 335.439C272.714 327.132 279.808 320.69 288.112 321.221C296.416 321.753 302.628 329.048 301.82 337.318L296.177 395.037C295.507 401.89 289.516 406.978 282.634 406.538Z" fill="#597EF7"/>
<path fill-rule="evenodd" clip-rule="evenodd" d="M282.035 448.077L268.123 462.059L247.791 453.509C247.791 453.509 232.273 469.986 226.654 455.56C221.036 441.133 228.259 415.13 228.259 415.13L281.214 415.486C281.214 415.486 287.385 438.104 282.035 448.077Z" fill="#ADC6FF"/>
<path fill-rule="evenodd" clip-rule="evenodd" d="M350.03 384.285L350.151 403.292L282.526 406.893C275.284 407.278 269.189 401.543 269.143 394.302C269.097 387.061 275.119 381.249 282.365 381.543L350.03 384.285Z" fill="#FFC999"/>
<path d="M285.874 381.142L349.693 383.814C349.926 383.823 350.113 383.998 350.144 384.222L350.149 384.285L350.269 403.29C350.271 403.542 350.076 403.751 349.824 403.767L341.113 404.303C335.426 404.647 329.592 404.992 323.845 405.319L319.714 405.553L311.818 405.985C293.469 406.968 281.922 407.409 279.914 407.099C279.655 407.059 279.477 406.817 279.517 406.558C279.557 406.299 279.8 406.122 280.059 406.162L280.192 406.179C282.582 406.451 295.266 405.939 314.72 404.878L320.926 404.534L326.67 404.207C329.554 404.041 332.45 403.871 335.329 403.699L349.316 402.847L349.201 384.742L285.834 382.09C285.593 382.08 285.402 381.893 285.381 381.66L285.379 381.596C285.389 381.356 285.576 381.165 285.809 381.143L285.874 381.142Z" fill="#597EF7"/>
<path d="M339.694 385.603C339.934 385.602 340.134 385.779 340.167 386.01L340.172 386.074L340.277 402.639C340.279 402.901 340.068 403.114 339.805 403.116C339.565 403.118 339.365 402.94 339.332 402.709L339.327 402.645L339.222 386.08C339.22 385.818 339.431 385.605 339.694 385.603Z" fill="#597EF7"/>
<path fill-rule="evenodd" clip-rule="evenodd" d="M345.117 396.981C345.934 396.976 346.601 397.633 346.606 398.449C346.611 399.265 345.952 399.93 345.136 399.936C344.319 399.941 343.652 399.284 343.647 398.468C343.642 397.652 344.3 396.986 345.117 396.981Z" fill="white"/>
<path fill-rule="evenodd" clip-rule="evenodd" d="M281.998 400.606C281.998 400.606 296.132 349.889 292.432 322.862C285.541 319.669 282.323 318.052 270.687 315.024C268.198 314.377 262.679 318.786 259.64 318.641C255.145 318.427 248.246 312.723 244.011 313.439C227.791 316.183 218.864 321.454 218.864 321.454L222.709 363.738C223.188 366.775 223.437 386.828 224.58 400.072C225.348 408.964 224.28 413.162 232.339 413.162C247.321 413.162 271.401 415.297 281.209 412.448C285.449 411.216 283.865 405.551 281.998 400.606Z" fill="#597EF7"/>
<path fill-rule="evenodd" clip-rule="evenodd" d="M271.461 312.045L275.775 317.527L269.424 327.137L260.952 317.608L271.461 312.045Z" fill="#597EF7"/>
<path fill-rule="evenodd" clip-rule="evenodd" d="M260.19 317.873L247.03 308.535L241.836 314.761L250.355 326.422L260.19 317.873Z" fill="#597EF7"/>
<path d="M243.083 314.73C243.272 314.603 243.522 314.637 243.671 314.8L243.712 314.853L250.81 325.4L260.308 317.614C260.464 317.485 260.684 317.478 260.848 317.587L260.906 317.634L270.233 326.381L274.915 316.609C275.013 316.404 275.246 316.306 275.457 316.371L275.52 316.396C275.725 316.494 275.823 316.726 275.758 316.937L275.733 317L270.784 327.332C270.661 327.589 270.339 327.666 270.114 327.508L270.064 327.467L260.575 318.567L251 326.416C250.81 326.572 250.535 326.547 250.376 326.371L250.335 326.319L242.959 315.359C242.819 315.151 242.875 314.869 243.083 314.73Z" fill="#253368"/>
<path d="M260.564 317.512C260.814 317.495 261.031 317.683 261.048 317.933L261.168 319.742L261.286 321.666C261.464 324.646 261.642 327.989 261.808 331.618C262.357 343.636 262.648 355.787 262.547 367.201L262.531 368.753C262.37 382.069 261.666 393.328 260.316 401.892L260.208 402.559L260.344 402.679C261.599 403.819 262.263 405.244 262.409 406.875L262.425 407.089C262.526 408.745 262.11 410.498 261.358 412.234C261.123 412.777 260.871 413.278 260.619 413.727C260.553 413.845 260.49 413.953 260.431 414.051L260.276 414.301C260.139 414.51 259.857 414.567 259.648 414.43C259.439 414.292 259.381 414.011 259.519 413.802L259.621 413.639C259.663 413.57 259.713 413.485 259.77 413.387L259.828 413.283C260.065 412.86 260.303 412.387 260.525 411.875C261.226 410.258 261.61 408.637 261.519 407.145C261.42 405.526 260.763 404.16 259.435 403.094C259.307 402.992 259.244 402.828 259.271 402.667C260.709 394.05 261.458 382.5 261.624 368.742C261.76 357.416 261.5 345.309 260.974 333.297L260.901 331.659C260.746 328.277 260.581 325.142 260.415 322.32L260.226 319.234L260.143 317.996C260.126 317.747 260.314 317.53 260.564 317.512Z" fill="#253368"/>
<path d="M291.779 336.301C292.007 336.325 292.179 336.514 292.186 336.737L292.179 336.848L291.875 339.72C291.664 341.686 291.425 343.843 291.163 346.149L291.017 347.421C290.159 354.89 289.228 362.359 288.254 369.39L288.059 370.791C286.402 382.574 284.785 391.887 283.263 397.816C283.017 398.777 282.773 399.645 282.533 400.418L282.483 400.574L282.536 400.689C284.829 405.709 284.729 409.25 283.101 411.524L283.011 411.647C282.527 412.288 282.034 412.673 281.683 412.851C281.46 412.965 281.187 412.876 281.073 412.653C280.959 412.43 281.048 412.157 281.272 412.044C281.32 412.019 281.423 411.954 281.564 411.845C281.809 411.654 282.055 411.408 282.287 411.101C283.811 409.082 283.92 405.772 281.587 400.798C281.539 400.694 281.531 400.576 281.566 400.467C281.834 399.633 282.107 398.673 282.384 397.591L282.533 397.001C284.001 391.092 285.562 382.031 287.16 370.665C288.204 363.237 289.201 355.277 290.116 347.318L290.538 343.594C290.671 342.4 290.797 341.254 290.915 340.164L291.281 336.706C291.305 336.478 291.494 336.307 291.717 336.299L291.779 336.301Z" fill="#253368"/>
<path d="M291.029 341.287L274.978 340.93C274.74 340.925 274.539 341.103 274.516 341.339L273.089 355.945C273.076 356.072 273.119 356.199 273.205 356.294L280.696 364.487C280.856 364.661 281.122 364.684 281.309 364.54L289.156 358.484C289.251 358.411 289.313 358.303 289.329 358.184L291.469 341.798C291.503 341.531 291.299 341.293 291.029 341.287ZM275.378 341.845L290.503 342.181L288.453 357.881L281.085 363.567L274.012 355.831L275.378 341.845Z" fill="#253368"/>
<path fill-rule="evenodd" clip-rule="evenodd" d="M263.71 327.623C263.797 328.464 264.437 329.086 265.138 329.013C265.84 328.94 266.338 328.2 266.249 327.359C266.162 326.519 265.523 325.896 264.821 325.969C264.12 326.041 263.622 326.782 263.71 327.623Z" fill="white"/>
<path fill-rule="evenodd" clip-rule="evenodd" d="M264.423 342.94C264.511 343.781 265.15 344.403 265.851 344.33C266.554 344.257 267.051 343.517 266.963 342.676C266.876 341.835 266.236 341.213 265.535 341.286C264.834 341.359 264.336 342.099 264.423 342.94Z" fill="white"/>
<path fill-rule="evenodd" clip-rule="evenodd" d="M265.136 360.038C265.224 360.879 265.864 361.501 266.565 361.428C267.267 361.355 267.765 360.615 267.677 359.774C267.59 358.934 266.949 358.311 266.248 358.384C265.547 358.456 265.049 359.197 265.136 360.038Z" fill="white"/>
<path fill-rule="evenodd" clip-rule="evenodd" d="M264.803 377.084C264.62 377.91 265.029 378.702 265.718 378.855C266.406 379.007 267.113 378.462 267.297 377.638C267.48 376.812 267.07 376.019 266.382 375.867C265.694 375.714 264.987 376.259 264.803 377.084Z" fill="white"/>
<path fill-rule="evenodd" clip-rule="evenodd" d="M262.348 402.051C262.068 402.848 262.379 403.684 263.045 403.918C263.711 404.151 264.477 403.694 264.758 402.897C265.038 402.099 264.726 401.264 264.061 401.03C263.396 400.797 262.628 401.254 262.348 402.051Z" fill="white"/>
<path fill-rule="evenodd" clip-rule="evenodd" d="M208.508 403.062C201.799 401.469 197.564 394.851 198.935 388.102L210.478 331.267C212.133 323.123 220.213 317.967 228.308 319.889C236.404 321.812 241.296 330.047 239.103 338.064L223.799 394.006C221.981 400.649 215.217 404.655 208.508 403.062Z" fill="#FFC999"/>
<path fill-rule="evenodd" clip-rule="evenodd" d="M228.953 378.429L239.827 337.474C242.02 329.459 237.129 321.222 229.033 319.301C220.937 317.379 211.701 322.909 210.047 331.053L201.486 372.729C201.486 372.729 228.674 378.151 228.953 378.429Z" fill="#597EF7"/>
<path fill-rule="evenodd" clip-rule="evenodd" d="M311.206 645.794C311.206 645.794 318.085 655.107 333.467 650.132C339.709 648.114 347.48 652.257 343.633 657.613C341.273 660.898 335.097 663.969 328.384 666.161C318.322 669.447 318.143 664.565 313.096 667.368C310.171 668.993 301.762 671.969 300.24 669.92C297.581 666.342 297.233 665.311 296.314 658.322C292.948 632.741 301.323 624.315 311.206 645.794Z" fill="#253368"/>
<path fill-rule="evenodd" clip-rule="evenodd" d="M291.336 649.37L264.753 545.763C262.524 537.372 267.852 528.844 276.379 527.158C284.612 525.529 292.589 530.939 294.11 539.181L313.592 644.765C313.592 644.765 305.16 651.488 291.336 649.37Z" fill="#ADC6FF"/>
<path d="M234.218 354.103C234.276 353.86 234.52 353.709 234.764 353.766C234.988 353.819 235.133 354.028 235.112 354.25L235.102 354.311L229.394 378.533C229.342 378.754 229.137 378.899 228.917 378.881L228.857 378.872L202.461 373.173C202.216 373.12 202.06 372.879 202.113 372.634C202.162 372.41 202.369 372.261 202.592 372.278L202.653 372.287L228.613 377.892L234.218 354.103Z" fill="#253368"/>
<path fill-rule="evenodd" clip-rule="evenodd" d="M344.323 410.126L281.028 410.719C278.621 410.741 276.881 408.431 277.571 406.128L290.915 361.579C291.365 360.081 292.739 359.048 294.306 359.034L357.601 358.44C360.008 358.418 361.748 360.729 361.058 363.032L347.714 407.58C347.264 409.078 345.89 410.11 344.323 410.126Z" fill="#ADC6FF"/>
<path fill-rule="evenodd" clip-rule="evenodd" d="M346.107 410.126L282.812 410.719C280.406 410.741 278.665 408.431 279.355 406.128L292.699 361.579C293.149 360.081 294.522 359.048 296.089 359.034L359.385 358.44C361.791 358.418 363.531 360.729 362.841 363.032L349.497 407.58C349.048 409.078 347.674 410.11 346.107 410.126Z" fill="black"/>
<path fill-rule="evenodd" clip-rule="evenodd" d="M278.912 409.018C278.912 409.018 264.78 406.6 262.954 400.123C261.3 394.258 265.693 391.253 265.693 391.253C265.693 391.253 274.421 389.338 281.315 389.131C285.832 388.993 294.381 387.456 295.072 389.746C295.973 392.733 286.976 392.881 286.147 394.994C284.469 399.275 298.649 400.53 300.839 401.967C305.119 404.774 295.841 412.047 278.912 409.018Z" fill="#FFC999"/>
<path d="M286.575 401.713C286.652 401.542 286.854 401.466 287.025 401.543L287.268 401.648L287.527 401.754C287.619 401.791 287.716 401.829 287.818 401.869L287.974 401.929C288.74 402.221 289.602 402.513 290.539 402.785C293.782 403.728 297.083 404.207 300.184 403.972C300.372 403.958 300.535 404.098 300.549 404.285C300.563 404.472 300.423 404.635 300.236 404.649C297.042 404.891 293.664 404.401 290.349 403.437C289.529 403.199 288.767 402.946 288.073 402.691L287.732 402.564C287.512 402.48 287.313 402.401 287.135 402.328L286.745 402.163C286.574 402.085 286.498 401.884 286.575 401.713Z" fill="#DD936F"/>
<path d="M284.205 404.991C284.265 404.813 284.458 404.718 284.636 404.778C289.699 406.478 294.052 406.98 297.28 406.816L297.54 406.801C297.752 406.788 297.895 406.775 297.965 406.766C298.151 406.744 298.321 406.877 298.343 407.063C298.366 407.249 298.233 407.418 298.046 407.441L297.868 407.458C297.79 407.465 297.695 407.472 297.582 407.479C294.246 407.69 289.708 407.198 284.419 405.422C284.241 405.362 284.145 405.169 284.205 404.991Z" fill="#DD936F"/>
<path d="M281.177 407.231C281.249 407.057 281.448 406.975 281.622 407.046L281.835 407.127C282.02 407.193 282.242 407.268 282.503 407.348C283.251 407.579 284.151 407.811 285.203 408.027C287.044 408.406 289.146 408.697 291.51 408.864C291.697 408.877 291.838 409.04 291.825 409.227C291.812 409.414 291.649 409.555 291.462 409.542C289.068 409.372 286.936 409.078 285.066 408.693C284.112 408.496 283.278 408.287 282.564 408.076L282.302 407.997C282.139 407.947 281.991 407.899 281.856 407.853L281.604 407.766C281.485 407.723 281.405 407.692 281.362 407.674C281.188 407.603 281.106 407.404 281.177 407.231Z" fill="#DD936F"/>
<path fill-rule="evenodd" clip-rule="evenodd" d="M272.121 398.071C271.916 401.866 268.827 404.868 265.022 404.971L211.655 406.409C204.2 406.543 198.131 400.6 198.332 393.361C198.532 386.123 204.919 380.523 212.356 381.069L266.088 390.49C269.73 391.129 272.321 394.383 272.121 398.071Z" fill="#FFC999"/>
<path fill-rule="evenodd" clip-rule="evenodd" d="M283.664 552.908C291.325 549.968 295.286 541.506 292.635 533.75L263.061 447.284C259.629 437.246 248.532 432.065 238.618 435.87C228.704 439.676 223.939 450.945 228.122 460.694L264.153 544.682C267.386 552.215 276.003 555.849 283.664 552.908Z" fill="#ADC6FF"/>
<path fill-rule="evenodd" clip-rule="evenodd" d="M282.671 420.12H228.098L229.29 412.645L281.721 412.403L282.671 420.12Z" fill="#ADC6FF"/>
<path d="M224.944 322.951L225.131 322.996C225.211 323.017 225.306 323.043 225.416 323.076C225.778 323.183 226.18 323.324 226.612 323.502C227.842 324.008 229.072 324.713 230.22 325.648C233.501 328.321 235.471 332.306 235.471 337.822C235.471 338.072 235.268 338.275 235.017 338.275C234.767 338.275 234.563 338.072 234.563 337.822C234.563 332.584 232.72 328.854 229.647 326.35C228.572 325.474 227.418 324.814 226.266 324.339C225.944 324.207 225.641 324.097 225.363 324.008L225.158 323.945C224.962 323.887 224.825 323.852 224.757 323.838C224.512 323.786 224.355 323.546 224.406 323.301C224.454 323.077 224.66 322.926 224.883 322.943L224.944 322.951Z" fill="#253368"/>
<path fill-rule="evenodd" clip-rule="evenodd" d="M350.849 385.023C350.849 385.023 359.004 381.559 360.915 382.537C363.876 384.051 359.462 389.216 359.462 389.216C359.462 389.216 361.424 391.971 358.506 394.335C358.468 397.711 356.288 398.493 356.288 398.493C356.288 398.493 357.137 401.397 353.986 402.267C350.835 403.137 345.483 400.457 347.809 396.925C346.412 393.923 349.075 392.512 349.075 392.512C349.075 392.512 348.249 389.85 350.872 388.539C349.606 386.991 350.001 385.393 350.849 385.023Z" fill="#FFC999"/>
<path d="M358.056 387.066C358.242 387.037 358.416 387.163 358.445 387.348C358.471 387.515 358.371 387.673 358.216 387.724L358.162 387.737L350.925 388.875C350.739 388.904 350.565 388.777 350.536 388.592C350.509 388.425 350.609 388.267 350.765 388.216L350.819 388.203L358.056 387.066Z" fill="#DD936F"/>
<path d="M349.108 392.174L355.426 392.78C355.613 392.798 355.75 392.964 355.732 393.151C355.716 393.319 355.58 393.446 355.416 393.457L355.361 393.456L349.043 392.85C348.856 392.832 348.719 392.666 348.737 392.479C348.753 392.311 348.89 392.184 349.053 392.173L349.108 392.174Z" fill="#DD936F"/>
<path d="M347.873 396.592L353.749 397.727C353.933 397.762 354.054 397.94 354.018 398.125C353.986 398.29 353.838 398.404 353.675 398.4L353.619 398.394L347.744 397.259C347.559 397.223 347.439 397.045 347.474 396.861C347.506 396.695 347.654 396.581 347.818 396.586L347.873 396.592Z" fill="#DD936F"/>
<path fill-rule="evenodd" clip-rule="evenodd" d="M267.814 416.776C267.901 417.617 268.541 418.239 269.242 418.166C269.944 418.093 270.441 417.353 270.354 416.512C270.266 415.671 269.627 415.049 268.925 415.122C268.224 415.194 267.726 415.935 267.814 416.776Z" fill="white"/>
<path d="M282.523 411.873C282.711 411.873 282.863 412.025 282.863 412.213C282.863 412.382 282.74 412.522 282.578 412.548L282.523 412.552H228.9C228.713 412.552 228.56 412.4 228.56 412.213C228.56 412.044 228.684 411.904 228.845 411.878L228.9 411.873H282.523Z" fill="#597EF7"/>
<path d="M280.77 419.086C280.958 419.086 281.11 419.239 281.11 419.426C281.11 419.595 280.987 419.735 280.825 419.761L280.77 419.766H229.048C228.86 419.766 228.708 419.614 228.708 419.426C228.708 419.257 228.831 419.117 228.993 419.091L229.048 419.086H280.77Z" fill="#597EF7"/>
<path d="M264.963 412.407C265.132 412.399 265.278 412.515 265.313 412.675L265.32 412.73L265.673 419.796L265.732 419.946L265.825 420.196L265.946 420.536C266.05 420.835 266.161 421.173 266.277 421.551C266.743 423.057 267.208 424.882 267.641 427.034C269.521 436.365 270.224 448.481 269.064 463.533C269.049 463.72 268.886 463.86 268.699 463.846C268.511 463.831 268.371 463.668 268.386 463.481L268.49 462.062C269.495 447.728 268.782 436.143 266.974 427.168C266.545 425.039 266.086 423.236 265.627 421.751L265.493 421.326C265.428 421.123 265.364 420.935 265.304 420.76L265.154 420.341L265.023 420.003L264.997 419.888L264.64 412.764C264.631 412.576 264.775 412.417 264.963 412.407Z" fill="#597EF7"/>
<path d="M271.583 418.741C271.765 418.694 271.95 418.803 271.997 418.985L272.134 419.535L272.367 420.511C272.408 420.688 272.45 420.872 272.493 421.063C272.865 422.698 273.236 424.49 273.583 426.383C274.235 429.946 274.722 433.444 274.976 436.723C275.425 442.512 275.115 447.175 273.856 450.326L273.765 450.549L273.723 450.62C272.293 452.525 270.955 453.759 269.741 454.451C268.988 454.881 268.428 455.031 268.101 455.031C267.913 455.031 267.761 454.878 267.761 454.691C267.761 454.503 267.913 454.351 268.101 454.351C268.138 454.351 268.239 454.338 268.398 454.296C268.683 454.22 269.019 454.081 269.404 453.862C270.482 453.246 271.691 452.148 273 450.448L273.153 450.246L273.226 450.07C274.407 447.112 274.724 442.684 274.328 437.18L274.298 436.775C274.046 433.522 273.562 430.047 272.914 426.505C272.607 424.831 272.281 423.236 271.953 421.761L271.83 421.213C271.722 420.739 271.621 420.307 271.528 419.921L271.338 419.155C271.292 418.973 271.401 418.788 271.583 418.741Z" fill="#597EF7"/>
<g opacity="0.5">
<path fill-rule="evenodd" clip-rule="evenodd" d="M702.274 597.634C702.274 597.634 700.293 581.789 721.684 574.659C743.074 567.529 747.828 571.292 747.828 571.292L745.847 577.63C745.847 577.63 742.48 593.475 727.032 595.654C711.583 597.832 705.641 594.663 702.274 597.634Z" fill="#7CB305"/>
<path d="M745.535 572.04L746.16 572.526L746.108 572.59C746.086 572.618 746.058 572.652 746.025 572.692L745.926 572.809C745.856 572.89 745.78 572.978 745.696 573.072L745.632 573.144C745.197 573.626 744.672 574.162 744.057 574.738C742.301 576.382 740.165 578.023 737.637 579.555C732.561 582.63 726.566 584.866 719.622 585.907L719.364 585.945C714.69 586.623 710.965 588.176 708.08 590.336C706.696 591.373 705.597 592.482 704.755 593.588C704.462 593.973 704.222 594.33 704.032 594.648L703.97 594.754C703.941 594.805 703.915 594.852 703.891 594.896L703.824 595.023L703.82 595.031L703.104 594.692L703.126 594.647C703.172 594.557 703.246 594.42 703.352 594.242C703.557 593.899 703.813 593.518 704.125 593.108C705.01 591.945 706.16 590.784 707.605 589.702C710.553 587.495 714.335 585.904 719.045 585.191L719.25 585.161C726.196 584.152 732.176 581.937 737.227 578.877C739.706 577.375 741.799 575.767 743.515 574.16C744.074 573.636 744.555 573.148 744.958 572.707L745.043 572.613C745.168 572.474 745.278 572.349 745.371 572.238L745.476 572.113L745.535 572.04Z" fill="#7CB305"/>
<path fill-rule="evenodd" clip-rule="evenodd" d="M745.253 608.33H747.828V571.292H745.253L745.947 582.673C746.145 585.911 746.166 589.157 746.012 592.398L745.253 608.33Z" fill="#7CB305"/>
<path fill-rule="evenodd" clip-rule="evenodd" d="M705.597 543.405C705.597 543.405 713.481 531.417 732.263 539.013C751.046 546.609 751.987 552.674 751.987 552.674L747.052 555.132C747.052 555.132 735.512 564.002 723.679 556.485C711.846 548.968 709.631 543.337 705.597 543.405Z" fill="#7CB305"/>
<path fill-rule="evenodd" clip-rule="evenodd" d="M749.412 618.629H751.393L752.169 553.248C752.178 552.442 751.647 551.729 750.872 551.507L749.412 551.09C749.412 551.09 749.91 557.165 749.808 564.756C749.712 572.018 749.016 580.659 749.016 587.059C749.016 605.161 749.412 618.629 749.412 618.629Z" fill="#7CB305"/>
<path fill-rule="evenodd" clip-rule="evenodd" d="M732.379 542.97C740.926 549.603 749.61 553.863 749.61 553.863L747.052 555.132C747.052 555.132 735.512 564.003 723.679 556.485C711.846 548.968 709.631 543.337 705.597 543.405C705.597 543.405 719.109 532.67 732.379 542.97Z" fill="#5B8C00"/>
<path fill-rule="evenodd" clip-rule="evenodd" d="M798.285 571.762C798.285 571.762 792.967 563.715 780.297 568.814C767.627 573.912 766.992 577.983 766.992 577.983L770.32 579.632C770.32 579.632 778.105 585.586 786.087 580.541C794.07 575.495 795.564 571.716 798.285 571.762Z" fill="#7CB305"/>
<path fill-rule="evenodd" clip-rule="evenodd" d="M768.698 622.578H767.33L766.794 578.48C766.787 577.936 767.154 577.455 767.69 577.306L768.698 577.024C768.698 577.024 768.355 581.122 768.425 586.242C768.492 591.14 768.972 596.968 768.972 601.285C768.972 613.494 768.698 622.578 768.698 622.578Z" fill="#7CB305"/>
<path fill-rule="evenodd" clip-rule="evenodd" d="M799.763 528.154C799.763 528.154 791.88 516.166 773.097 523.762C754.315 531.358 753.374 537.424 753.374 537.424L758.308 539.881C758.308 539.881 769.848 548.752 781.681 541.235C793.514 533.717 795.729 528.086 799.763 528.154Z" fill="#7CB305"/>
<path fill-rule="evenodd" clip-rule="evenodd" d="M755.949 605.953H753.968L753.192 537.997C753.183 537.191 753.714 536.478 754.489 536.256L755.949 535.839C755.949 535.839 755.451 541.914 755.553 549.505C755.649 556.767 756.345 565.408 756.345 571.808C756.345 589.91 755.949 605.953 755.949 605.953Z" fill="#7CB305"/>
<path fill-rule="evenodd" clip-rule="evenodd" d="M799.764 528.154C799.764 528.154 786.252 517.419 772.982 527.719C764.435 534.352 755.75 538.612 755.75 538.612L758.308 539.881C758.308 539.881 769.848 548.752 781.682 541.234C793.515 533.717 795.729 528.086 799.764 528.154Z" fill="#5B8C00"/>
<path fill-rule="evenodd" clip-rule="evenodd" d="M759.514 605.359H762.881L764.212 563.267L761.676 523.539C761.686 522.733 761.154 522.019 760.379 521.798L758.919 521.381C758.919 521.381 762.088 552.93 762.088 559.33C762.088 577.432 759.514 605.359 759.514 605.359Z" fill="#7CB305"/>
<path fill-rule="evenodd" clip-rule="evenodd" d="M721.624 499.153C721.624 499.153 728.815 488.503 745.848 499.198C763.006 509.972 761.815 524.105 761.815 524.105L756.331 524.676C756.331 524.676 742.413 528.935 733.969 517.745C725.525 506.554 725.425 500.504 721.624 499.153Z" fill="#7CB305"/>
<path fill-rule="evenodd" clip-rule="evenodd" d="M721.624 499.152C721.624 499.152 729.365 493.446 735.945 501.575C739.312 505.734 745.269 508.87 747.828 511.28C754.478 517.54 759.172 524.384 759.172 524.384L756.331 524.676C756.331 524.676 742.413 528.935 733.969 517.744C725.525 506.554 725.425 500.504 721.624 499.152Z" fill="#5B8C00"/>
<path fill-rule="evenodd" clip-rule="evenodd" d="M778.281 660.816H732.331C729.705 660.816 727.577 658.688 727.577 656.062V610.112C727.577 607.487 729.705 605.359 732.331 605.359H778.281C780.906 605.359 783.034 607.487 783.034 610.112V656.062C783.034 658.688 780.906 660.816 778.281 660.816Z" fill="#253368"/>
</g>
<g opacity="0.2">
<path fill-rule="evenodd" clip-rule="evenodd" d="M146.485 523.796H15.2095V512.008C15.2095 509.451 17.2782 507.378 19.8299 507.378H141.864C144.416 507.378 146.485 509.451 146.485 512.008V523.796Z" fill="#253368"/>
<path fill-rule="evenodd" clip-rule="evenodd" d="M141.864 637.292H19.8299C17.2782 637.292 15.2095 635.219 15.2095 632.662V522.415H146.485V632.662C146.485 635.219 144.416 637.292 141.864 637.292Z" fill="#E4EBF7"/>
<path fill-rule="evenodd" clip-rule="evenodd" d="M25.878 515.019C25.878 516.623 24.5796 517.924 22.9781 517.924C21.3767 517.924 20.0786 516.623 20.0786 515.019C20.0786 513.414 21.3767 512.113 22.9781 512.113C24.5796 512.113 25.878 513.414 25.878 515.019Z" fill="#FF7946"/>
<path fill-rule="evenodd" clip-rule="evenodd" d="M36.7066 515.019C36.7066 516.623 35.4085 517.924 33.8069 517.924C32.2056 517.924 30.9075 516.623 30.9075 515.019C30.9075 513.414 32.2056 512.113 33.8069 512.113C35.4085 512.113 36.7066 513.414 36.7066 515.019Z" fill="#FAAD14"/>
<path fill-rule="evenodd" clip-rule="evenodd" d="M47.5357 515.019C47.5357 516.623 46.2376 517.924 44.6361 517.924C43.0347 517.924 41.7366 516.623 41.7366 515.019C41.7366 513.414 43.0347 512.113 44.6361 512.113C46.2376 512.113 47.5357 513.414 47.5357 515.019Z" fill="#7CB305"/>
<path fill-rule="evenodd" clip-rule="evenodd" d="M29.3981 621.666C28.6017 621.666 27.9563 621.02 27.9563 620.223V536.532C27.9563 535.734 28.6017 535.088 29.3981 535.088H133.731C134.527 535.088 135.172 535.734 135.172 536.532V620.223C135.172 621.02 134.527 621.666 133.731 621.666H29.3981Z" fill="white"/>
<path d="M64.1911 571.567C64.7912 571.053 65.6999 571.168 66.1545 571.807L66.178 571.841L87.1729 603.311L103.413 591.899C103.605 591.764 103.83 591.682 104.063 591.661L104.114 591.658L125.572 590.538C126.311 590.499 126.942 591.067 126.98 591.807C127.018 592.533 126.47 593.154 125.75 593.212L125.711 593.215L104.638 594.315L87.5908 606.294C86.9859 606.719 86.1538 606.573 85.7283 605.975L85.705 605.941L64.7865 574.586L40.3385 595.518C39.7865 595.99 38.9612 595.936 38.4756 595.402L38.4485 595.371C37.9759 594.819 38.0303 593.994 38.5642 593.508L38.5949 593.481L64.1911 571.567Z" fill="#FF7946"/>
<path d="M122.394 552.575C122.806 551.96 123.639 551.796 124.254 552.208C124.857 552.613 125.026 553.423 124.642 554.034L124.62 554.068L105.53 582.535C105.051 583.249 104.037 583.331 103.448 582.715L103.419 582.684L81.599 558.406L66.4735 568.612C66.2601 568.756 66.01 568.835 65.7533 568.841L65.7019 568.841L39.4447 568.412C38.7045 568.399 38.1142 567.79 38.1262 567.049C38.1382 566.322 38.7271 565.74 39.4497 565.731L39.4885 565.731L65.3237 566.153L81.0666 555.531C81.6094 555.165 82.3353 555.246 82.785 555.716L82.8133 555.747L104.262 579.611L122.394 552.575Z" fill="#FAAD14"/>
<path d="M89.3217 570.806C89.6562 570.513 90.113 570.406 90.5412 570.517L90.5853 570.529L104.564 574.676L125.167 571.393C125.885 571.279 126.561 571.758 126.695 572.468L126.702 572.506C126.816 573.224 126.337 573.9 125.627 574.034L125.589 574.041L104.686 577.371C104.506 577.4 104.322 577.392 104.146 577.347L104.094 577.333L90.5308 573.31L66.9639 593.921C66.5298 594.301 65.903 594.359 65.4073 594.071L65.3704 594.049L37.2156 576.432C36.588 576.04 36.3975 575.212 36.7902 574.585C37.1758 573.969 37.9801 573.774 38.6032 574.139L38.6376 574.16L65.9483 591.248L89.3217 570.806Z" fill="#597EF7"/>
<path fill-rule="evenodd" clip-rule="evenodd" d="M65.1481 546.044H38.7373C37.6559 546.044 36.7715 545.158 36.7715 544.074C36.7715 542.991 37.6559 542.104 38.7373 542.104H65.1481C66.2293 542.104 67.1139 542.991 67.1139 544.074C67.1139 545.158 66.2293 546.044 65.1481 546.044Z" fill="#CCD7EE"/>
<path fill-rule="evenodd" clip-rule="evenodd" d="M49.8783 555.335H40.049C38.9634 555.335 38.083 554.453 38.083 553.365C38.083 552.277 38.9634 551.396 40.049 551.396H49.8783C50.9641 551.396 51.8441 552.277 51.8441 553.365C51.8441 554.453 50.9641 555.335 49.8783 555.335Z" fill="#CCD7EE"/>
<path d="M121.094 598.202C116.49 598.202 112.769 601.984 112.769 606.638C112.769 611.291 116.49 615.073 121.094 615.073C125.697 615.073 129.418 611.291 129.418 606.638C129.418 601.985 125.697 598.202 121.094 598.202ZM121.094 601.375C123.933 601.375 126.245 603.726 126.245 606.638C126.245 609.55 123.933 611.9 121.094 611.9C118.254 611.9 115.942 609.55 115.942 606.638C115.942 603.725 118.254 601.375 121.094 601.375Z" fill="#CCD7EE"/>
<path d="M126.63 602.188C127.436 601.843 128.368 602.217 128.713 603.022C129.176 604.105 129.418 605.283 129.418 606.494C129.418 607.485 129.256 608.455 128.942 609.37C128.658 610.199 127.755 610.641 126.926 610.356C126.111 610.076 125.67 609.198 125.927 608.381L125.941 608.341C126.141 607.756 126.245 607.134 126.245 606.494C126.245 605.745 126.103 605.022 125.832 604.357L125.796 604.271C125.451 603.465 125.824 602.533 126.63 602.188Z" fill="#597EF7"/>
</g>
<path fill-rule="evenodd" clip-rule="evenodd" d="M608.718 613.403H649.386V605.09H608.718V613.403Z" fill="#253368"/>
<path fill-rule="evenodd" clip-rule="evenodd" d="M648.618 520.21L659.509 654.406H650.157L639.267 520.21H648.618ZM618.837 520.21L607.946 654.406H598.595L609.485 520.21H618.837Z" fill="#4E5C93"/>
<path fill-rule="evenodd" clip-rule="evenodd" d="M605.515 528.944C600.691 528.944 596.78 525.033 596.78 520.21C596.78 515.386 600.691 511.475 605.515 511.475H653.443C658.267 511.475 662.179 515.386 662.179 520.21C662.179 525.033 658.267 528.944 653.443 528.944H605.515Z" fill="#A3B5D6"/>
<path fill-rule="evenodd" clip-rule="evenodd" d="M527.115 470.211L539.37 489.672L593.399 457.927C599.674 453.977 601.557 445.688 597.607 439.414C593.656 433.139 585.368 431.256 579.093 435.206L527.115 470.211Z" fill="#E4EBF7"/>
<path d="M578.824 434.807C579.045 434.658 579.344 434.717 579.493 434.937C579.628 435.138 579.592 435.403 579.418 435.562L579.362 435.606L527.484 470.53L539.238 489.196L585.037 461.773C585.247 461.648 585.513 461.7 585.661 461.885L585.698 461.939C585.823 462.148 585.771 462.414 585.586 462.562L585.532 462.599L539.33 490.265C539.126 490.387 538.867 490.341 538.716 490.165L538.675 490.108L526.42 470.648C526.294 470.448 526.334 470.189 526.504 470.035L526.559 469.992L578.824 434.807Z" fill="#A3B5D6"/>
<path d="M535.991 466.144C536.196 466.015 536.46 466.059 536.613 466.237L536.655 466.295L547.06 482.82C547.202 483.045 547.135 483.342 546.91 483.484C546.705 483.613 546.441 483.568 546.288 483.39L546.245 483.333L535.84 466.808C535.699 466.583 535.766 466.286 535.991 466.144Z" fill="#A3B5D6"/>
<path fill-rule="evenodd" clip-rule="evenodd" d="M582.672 459.458C575.379 458.122 570.551 451.127 571.887 443.833L582.095 388.11C583.431 380.816 590.427 375.987 597.72 377.323C605.013 378.659 609.843 385.654 608.506 392.948L598.297 448.672C596.961 455.965 589.965 460.794 582.672 459.458Z" fill="#E4EBF7"/>
<path fill-rule="evenodd" clip-rule="evenodd" d="M639.114 335.371C639.114 335.371 638.433 315.324 613.928 320.448C600.418 324.232 604.605 347.04 604.605 347.04C604.605 347.04 604.457 352.002 607.096 356.637C610.051 361.829 615.615 362.792 622.635 362.246C635.405 359.62 639.388 351.679 639.388 351.679C639.388 351.679 648.347 350.844 645.722 339.839C643.219 329.642 639.114 335.371 639.114 335.371Z" fill="#FFC999"/>
<path fill-rule="evenodd" clip-rule="evenodd" d="M633.335 323.344C634.088 328.409 638.803 331.905 643.869 331.154C648.933 330.402 652.429 325.686 651.678 320.622C650.926 315.557 646.21 312.06 641.146 312.812C636.081 313.564 632.584 318.279 633.335 323.344Z" fill="#253368"/>
<path fill-rule="evenodd" clip-rule="evenodd" d="M604.83 347.735C604.83 347.735 601.043 342.96 598.311 337.002C595.579 331.043 605.581 316.832 607.039 315.59C608.496 314.346 609.15 313.223 620.793 315.6C653.783 312.045 650.463 343.247 650.463 343.247C650.463 343.247 654.692 345.443 653.585 353.202C652.078 361.021 641.85 362.804 641.85 362.804L639.768 351.232C639.768 351.232 643.275 350.978 645.29 346.573C647.305 342.169 644.324 337.622 642.657 337.459C641.067 336.598 637.57 337.666 638.207 341.958C638.528 344.119 633.696 339.886 630.864 331.898C619.088 331.388 615.038 323.845 615.038 323.845C615.038 323.845 615.769 331.536 618.054 334.482C611.76 333.568 608.069 330.832 608.567 327.268C602.185 331.295 604.83 347.735 604.83 347.735Z" fill="#253368"/>
<path fill-rule="evenodd" clip-rule="evenodd" d="M642.292 365.256L639.199 346.944L616.677 350.82C616.677 350.82 617.869 362.289 618.135 367.157C604.624 377.431 638.639 381.46 644.975 371.197C646.932 368.027 642.292 365.256 642.292 365.256Z" fill="#FFC999"/>
<path fill-rule="evenodd" clip-rule="evenodd" d="M617.304 343.048C618.379 347.379 622.291 350.134 626.04 349.203C629.79 348.271 631.959 344.007 630.884 339.676C629.808 335.345 625.896 332.59 622.146 333.522C618.397 334.453 616.229 338.718 617.304 343.048Z" fill="white"/>
<path d="M622.029 333.055C618.006 334.054 615.7 338.59 616.836 343.165C617.971 347.739 622.132 350.67 626.156 349.67C630.18 348.671 632.486 344.135 631.351 339.56C630.231 335.053 626.177 332.143 622.21 333.012L622.029 333.055ZM630.416 339.792C631.43 343.879 629.4 347.872 625.924 348.735C622.449 349.599 618.785 347.018 617.771 342.933C616.756 338.846 618.787 334.853 622.262 333.989C625.737 333.126 629.4 335.706 630.416 339.792Z" fill="#253368"/>
<path fill-rule="evenodd" clip-rule="evenodd" d="M601.832 344.742C602.908 349.072 606.626 351.875 610.136 351.004C613.647 350.132 615.621 345.915 614.546 341.584C613.471 337.254 609.754 334.45 606.242 335.322C602.732 336.194 600.757 340.411 601.832 344.742Z" fill="white"/>
<path d="M606.126 334.854C602.333 335.796 600.23 340.288 601.365 344.857C602.5 349.427 606.46 352.413 610.252 351.471C614.046 350.529 616.148 346.038 615.013 341.468C613.896 336.968 610.039 334.003 606.298 334.814L606.126 334.854ZM614.079 341.7C615.094 345.792 613.249 349.735 610.02 350.536C606.792 351.338 603.316 348.717 602.299 344.625C601.284 340.534 603.13 336.591 606.358 335.789C609.587 334.988 613.063 337.609 614.079 341.7Z" fill="#253368"/>
<path d="M615.751 344.366C615.865 344.2 616.093 344.159 616.259 344.273C616.406 344.375 616.456 344.566 616.384 344.723L616.352 344.781L614.46 347.525L617.221 349.305C617.372 349.402 617.427 349.591 617.361 349.751L617.33 349.809C617.233 349.96 617.044 350.015 616.884 349.949L616.826 349.918L613.748 347.935C613.592 347.834 613.539 347.636 613.615 347.473L613.645 347.421L615.751 344.366Z" fill="#DD936F"/>
<path d="M622.219 351.067C622.462 350.958 622.747 351.068 622.855 351.311C622.963 351.554 622.854 351.839 622.611 351.947L622.251 352.1C622.187 352.126 622.117 352.155 622.042 352.185C621.603 352.363 621.133 352.54 620.649 352.705C620.123 352.885 619.612 353.041 619.126 353.164C618.204 353.399 617.414 353.51 616.782 353.465C616.517 353.446 616.317 353.215 616.336 352.95C616.355 352.685 616.586 352.485 616.851 352.504C617.359 352.54 618.057 352.442 618.888 352.231C619.347 352.114 619.834 351.966 620.337 351.794C620.687 351.674 621.03 351.548 621.358 351.42L621.681 351.292C621.934 351.19 622.12 351.111 622.219 351.067Z" fill="#F5222D"/>
<path fill-rule="evenodd" clip-rule="evenodd" d="M616.807 340.017C616.807 340.017 615.48 339.391 614.527 340.355L616.807 340.017Z" fill="white"/>
<path d="M616.807 340.017C616.807 340.017 615.48 339.391 614.527 340.355" stroke="#253368" stroke-width="1.34018" stroke-linecap="round" stroke-linejoin="round"/>
<path d="M629.935 359.462C630.122 359.386 630.335 359.477 630.41 359.664C630.485 359.851 630.395 360.064 630.208 360.139C629.182 360.552 627.989 360.931 626.662 361.278C625.059 361.698 623.343 362.049 621.628 362.336C621.148 362.416 620.695 362.487 620.277 362.548L619.461 362.66C619.412 362.667 619.371 362.672 619.338 362.676C619.138 362.7 618.956 362.557 618.932 362.357C618.908 362.157 619.051 361.975 619.251 361.951L619.869 361.869C620.363 361.799 620.914 361.715 621.508 361.616C623.203 361.332 624.898 360.985 626.478 360.572C627.777 360.232 628.941 359.862 629.935 359.462Z" fill="#DD936F"/>
<path fill-rule="evenodd" clip-rule="evenodd" d="M621.136 342.292C621.297 343.379 621.908 344.188 622.501 344.1C623.093 344.012 623.444 343.06 623.282 341.973C623.121 340.887 622.509 340.078 621.917 340.165C621.324 340.253 620.975 341.206 621.136 342.292Z" fill="#253368"/>
<path fill-rule="evenodd" clip-rule="evenodd" d="M607.212 344.542C607.374 345.628 607.985 346.438 608.577 346.35C609.169 346.262 609.52 345.309 609.359 344.223C609.197 343.137 608.587 342.327 607.994 342.415C607.4 342.503 607.051 343.455 607.212 344.542Z" fill="#253368"/>
<path d="M630.801 338.716L637.06 337.924" stroke="#253368" stroke-width="1.34018" stroke-linecap="round" stroke-linejoin="round"/>
<path fill-rule="evenodd" clip-rule="evenodd" d="M622.703 520.148L648.434 505.155C650.221 504.114 651.321 502.2 651.32 500.131L653.936 471.574C653.936 471.574 616.591 450.757 597.795 459.37C592.266 461.902 591.474 490.583 591.474 490.583C586.192 493.982 592.198 503.111 593.101 504.325C595.87 508.046 603.98 510.491 616.926 519.275C618.682 520.468 620.912 521.288 622.703 520.148Z" fill="#253368"/>
<path d="M617.502 480.156C617.652 480.184 617.758 480.315 617.758 480.462L617.753 480.518L616.818 485.698C616.787 485.867 616.625 485.98 616.456 485.949C616.305 485.922 616.199 485.791 616.199 485.643L616.204 485.587L617.14 480.408C617.167 480.257 617.298 480.151 617.446 480.151L617.502 480.156Z" fill="#253368"/>
<path fill-rule="evenodd" clip-rule="evenodd" d="M569.315 524.223L635.315 523.024C648.97 522.633 659.819 512.549 658.339 501.623C657.058 492.165 646.91 485.582 635.094 486.545L568.697 491.954C568.697 491.954 549.744 492.656 550.231 508.744C550.706 524.39 569.315 524.223 569.315 524.223Z" fill="#253368"/>
<path fill-rule="evenodd" clip-rule="evenodd" d="M614.416 367.784L615.505 367.759C614.701 374.298 639.36 375.25 643.17 367.662C643.267 367.469 643.343 367.288 643.407 367.114L646.411 367.044L647.427 476.456C637.12 471.575 628.252 466.94 601.862 468.32C592.885 377.375 614.416 367.784 614.416 367.784Z" fill="#597EF7"/>
<path fill-rule="evenodd" clip-rule="evenodd" d="M592.844 560.864C597.216 559.144 602.379 561.249 603.975 565.408C606.702 572.517 611.046 583.402 615.697 593.318C619.864 602.205 624.574 607.484 623.993 610.531C623.367 613.817 618.03 613.651 616.379 618.249C614.728 622.846 613.62 626.305 603.378 628.599C591.399 631.283 599.393 624.347 601.99 617.909C606.579 606.539 605.643 602.555 602.997 596.881C597.578 585.257 592.603 576.655 589.174 571.122C586.81 567.305 588.514 562.567 592.844 560.864Z" fill="#FFC999"/>
<path fill-rule="evenodd" clip-rule="evenodd" d="M585.475 506.004L617.889 586.877C618.663 588.809 617.787 590.927 615.821 591.867L601.947 598.502C599.61 599.62 596.659 598.661 595.556 596.425L557.227 518.77C557.227 518.77 550.17 505.778 565.602 499.886C579.996 494.389 585.475 506.004 585.475 506.004Z" fill="#253368"/>
<path fill-rule="evenodd" clip-rule="evenodd" d="M620.201 601.764C620.201 601.764 619.74 604.286 616.711 610.52C614.322 615.439 612.691 618.499 609.923 618.611C604.872 618.815 601.229 619.406 601.229 619.406C601.229 619.406 598.421 622.919 596.693 626.232C594.965 629.545 597.204 632.718 604.081 630.801C610.958 628.885 614.417 626.911 618.041 619.985C621.666 613.058 625.28 613.644 624.838 610.8C624.147 606.356 620.201 601.764 620.201 601.764Z" fill="#253368"/>
<path fill-rule="evenodd" clip-rule="evenodd" d="M620.24 590.367L597.495 601.245C597.013 601.475 596.406 601.284 596.168 600.828L591.336 591.564C591.118 591.146 591.292 590.655 591.733 590.445L615.905 578.884C616.434 578.63 617.1 578.889 617.282 579.417L620.687 589.364C620.822 589.759 620.636 590.178 620.24 590.367Z" fill="#4E5C93"/>
<path fill-rule="evenodd" clip-rule="evenodd" d="M554.322 565.859C559.005 567.137 561.572 572.166 559.85 576.705C556.906 584.464 552.531 596.453 549.092 607.807C546.009 617.983 545.944 625.43 543.301 627.659C540.449 630.061 536.354 626.574 531.754 629.451C527.153 632.328 523.799 634.576 514.069 630.107C502.687 624.881 513.97 623.99 520.638 620.14C532.415 613.341 534.532 609.365 536.512 602.876C540.568 589.586 542.809 579.144 544.069 572.288C544.94 567.557 549.682 564.592 554.322 565.859Z" fill="#FFC999"/>
<path fill-rule="evenodd" clip-rule="evenodd" d="M546.594 617.82C546.594 617.82 544.421 619.676 537.558 623.082C532.147 625.77 528.665 627.352 526.4 625.712C522.265 622.718 518.965 620.937 518.965 620.937C518.965 620.937 514.228 622.165 510.489 623.901C506.75 625.638 506.241 629.742 513.046 632.423C519.849 635.105 523.995 635.594 531.822 631.971C539.65 628.349 542.084 631.115 543.774 628.417C546.416 624.201 546.594 617.82 546.594 617.82Z" fill="#253368"/>
<path fill-rule="evenodd" clip-rule="evenodd" d="M579.332 509.655L554.603 601.228C554.013 603.417 551.917 604.852 549.662 604.609L533.749 602.899C531.068 602.61 529.206 600.093 529.716 597.445L547.409 505.497C547.409 505.497 549.829 489.753 566.573 493.008C582.192 496.044 579.332 509.655 579.332 509.655Z" fill="#253368"/>
<path fill-rule="evenodd" clip-rule="evenodd" d="M555.022 605.942L528.806 604.846C528.25 604.823 527.831 604.337 527.887 603.785L529.052 592.57C529.104 592.064 529.541 591.686 530.049 591.707L557.91 592.872C558.52 592.897 558.952 593.478 558.803 594.07L555.996 605.215C555.885 605.657 555.478 605.962 555.022 605.942Z" fill="#4E5C93"/>
<path d="M617.395 376.372C617.482 376.188 617.702 376.109 617.886 376.196C618.392 376.434 618.904 376.652 619.423 376.852C625.047 379.015 631.067 378.875 636.759 377.336C637.558 377.121 638.288 376.891 638.941 376.661L639.215 376.562C639.404 376.493 639.574 376.427 639.727 376.367L640.095 376.214C640.282 376.131 640.5 376.215 640.583 376.401C640.666 376.588 640.583 376.806 640.396 376.889L640.219 376.965L640.153 376.992C639.957 377.072 639.729 377.16 639.47 377.255C638.73 377.526 637.886 377.797 636.952 378.05C631.121 379.625 624.95 379.769 619.158 377.542C618.622 377.336 618.093 377.11 617.571 376.864C617.387 376.777 617.308 376.557 617.395 376.372Z" fill="#597EF7"/>
<path fill-rule="evenodd" clip-rule="evenodd" d="M618.678 365.8C618.678 365.8 609.198 387.047 609.186 443.639C609.172 500.313 593.454 489.203 593.454 489.203L565.791 494.085C565.791 494.085 584.401 485.609 585.125 456.793C586.442 404.314 587.355 389.985 591.788 378.307C596.724 375.561 601.953 373.693 609.58 369.692C611.433 368.72 618.678 365.8 618.678 365.8Z" fill="#E4EBF7"/>
<path d="M590.77 396.51C591.014 396.524 591.204 396.716 591.223 396.953L591.222 397.041L591.122 398.98L591.038 400.776C590.945 402.843 590.853 405.169 590.766 407.729L590.68 410.403C590.216 425.645 590.142 442.344 590.682 459.355C590.691 459.62 590.482 459.843 590.216 459.852C589.951 459.86 589.728 459.651 589.72 459.385C589.179 442.352 589.252 425.634 589.718 410.374L589.804 407.696C589.89 405.132 589.983 402.803 590.076 400.732L590.21 397.919L590.262 396.963C590.277 396.697 590.505 396.494 590.77 396.51Z" fill="#A3B5D6"/>
<path d="M617.658 365.094C617.899 364.98 618.186 365.083 618.299 365.324C618.404 365.544 618.326 365.804 618.127 365.933L618.07 365.965L609.445 370.044L609.365 370.366L609.336 370.484C609.202 371.036 609.053 371.705 608.892 372.491L608.747 373.218C608.335 375.325 607.925 377.825 607.54 380.725L607.402 381.792C605.178 399.328 604.754 422.859 607.224 452.821C607.246 453.086 607.049 453.318 606.784 453.34C606.519 453.362 606.286 453.165 606.264 452.9C603.764 422.566 604.223 398.793 606.515 381.132L606.585 380.599C607.019 377.334 607.483 374.572 607.949 372.298L608.069 371.722C608.147 371.353 608.223 371.013 608.295 370.702L608.435 370.114L608.527 369.749C608.55 369.663 608.566 369.605 608.574 369.574C608.605 369.462 608.676 369.366 608.772 369.303L608.832 369.269L617.658 365.094Z" fill="#A3B5D6"/>
<path fill-rule="evenodd" clip-rule="evenodd" d="M672.106 382.345C664.513 376.378 655.506 371.337 650.643 368.625C647.528 366.888 645.02 364.541 642.572 363.747C626.811 434.402 631.215 515.776 634.325 556.397C652.825 558.682 672.295 545.007 672.295 545.007C676.137 548.505 666.592 490.189 667.225 450.69C667.718 419.942 673.813 383.685 672.106 382.345Z" fill="#E4EBF7"/>
<path d="M642.381 363.232C642.517 363.032 642.777 362.967 642.989 363.069L643.05 363.105L650.675 368.292C650.798 368.375 650.875 368.51 650.885 368.658L650.906 369.086L650.91 369.193C650.997 371.737 650.882 375.329 650.403 379.855C649.714 386.377 648.387 393.555 646.279 401.284L646.058 402.086C644.919 406.174 639.132 425.688 637.791 430.83C635.741 438.696 634.398 445.661 633.531 453.456C633.502 453.72 633.264 453.911 632.999 453.881C632.735 453.852 632.544 453.614 632.574 453.35C633.409 445.833 634.686 439.081 636.605 431.571L636.952 430.235C638.452 424.594 644.02 405.814 645.13 401.827C647.353 393.845 648.738 386.449 649.446 379.754C649.887 375.572 650.016 372.203 649.961 369.74L649.936 368.954L642.509 363.901C642.309 363.765 642.243 363.505 642.345 363.294L642.381 363.232Z" fill="#A3B5D6"/>
<path d="M668.254 474.621C668.518 474.591 668.757 474.78 668.788 475.044C668.817 475.286 668.66 475.507 668.43 475.566L668.366 475.578L653.395 477.333L654.184 511.41C654.244 514.042 656.567 516.03 659.158 515.709L659.305 515.689L670.879 513.872C671.142 513.831 671.389 514.01 671.43 514.273C671.468 514.514 671.32 514.741 671.093 514.809L671.029 514.823L659.454 516.64C656.284 517.138 653.395 514.778 653.227 511.598L653.221 511.432L652.422 476.917C652.417 476.691 652.569 476.495 652.782 476.44L652.848 476.428L668.254 474.621Z" fill="#A3B5D6"/>
<path fill-rule="evenodd" clip-rule="evenodd" d="M571.177 504.989L627.644 498.336L572.702 479.296L526.007 489.434L571.177 504.989Z" fill="#CCD7EE"/>
<path fill-rule="evenodd" clip-rule="evenodd" d="M569.217 500.993L610.228 496.16L571.288 482.294L536.409 489.695L569.217 500.993Z" fill="#253368"/>
<path fill-rule="evenodd" clip-rule="evenodd" d="M627.496 501.229L627.656 498.354L570.042 504.684L570.891 507.794L627.496 501.229Z" fill="#A3B5D6"/>
<path d="M563.406 484.547C563.45 484.44 563.564 484.382 563.674 484.403L563.72 484.417L595.328 497.45C595.451 497.5 595.509 497.641 595.458 497.764C595.414 497.872 595.301 497.93 595.191 497.909L595.144 497.895L563.537 484.862C563.414 484.811 563.355 484.67 563.406 484.547Z" fill="#CCD7EE"/>
<path d="M567.728 483.012C567.77 482.903 567.883 482.843 567.993 482.862L568.04 482.876L603.409 496.771C603.532 496.819 603.593 496.959 603.545 497.083C603.502 497.191 603.39 497.251 603.28 497.232L603.233 497.219L567.864 483.324C567.74 483.275 567.679 483.136 567.728 483.012Z" fill="#CCD7EE"/>
<path d="M562.807 487.444C562.853 487.337 562.967 487.28 563.077 487.303L563.123 487.317L589.648 498.688C589.771 498.74 589.827 498.882 589.775 499.004C589.729 499.111 589.615 499.168 589.505 499.145L589.459 499.13L562.934 487.76C562.811 487.708 562.755 487.566 562.807 487.444Z" fill="#CCD7EE"/>
<path d="M555.398 487.887C555.444 487.78 555.558 487.723 555.668 487.746L555.714 487.76L582.239 499.132C582.362 499.184 582.418 499.325 582.366 499.448C582.32 499.555 582.206 499.611 582.096 499.589L582.05 499.574L555.524 488.203C555.402 488.151 555.346 488.009 555.398 487.887Z" fill="#CCD7EE"/>
<path d="M548.537 488.776C548.583 488.669 548.697 488.613 548.807 488.635L548.853 488.65L575.379 500.021C575.501 500.074 575.557 500.215 575.505 500.337C575.459 500.444 575.345 500.501 575.235 500.478L575.189 500.464L548.664 489.093C548.541 489.04 548.485 488.899 548.537 488.776Z" fill="#CCD7EE"/>
<path d="M603.633 494.13C603.765 494.119 603.882 494.217 603.893 494.35C603.902 494.466 603.828 494.569 603.721 494.601L603.673 494.61L568.626 497.526C568.493 497.537 568.377 497.439 568.366 497.306C568.356 497.19 568.43 497.087 568.538 497.055L568.586 497.046L603.633 494.13Z" fill="#CCD7EE"/>
<path d="M596.005 491.094C596.137 491.083 596.254 491.182 596.265 491.314C596.274 491.43 596.2 491.534 596.093 491.565L596.045 491.574L560.998 494.492C560.865 494.503 560.749 494.404 560.738 494.272C560.728 494.156 560.802 494.052 560.91 494.021L560.958 494.012L596.005 491.094Z" fill="#CCD7EE"/>
<path d="M586.243 488.181C586.374 488.162 586.496 488.254 586.515 488.386C586.531 488.501 586.463 488.609 586.358 488.646L586.31 488.658L550.495 493.74C550.364 493.759 550.242 493.667 550.223 493.536C550.207 493.42 550.275 493.313 550.38 493.275L550.428 493.263L586.243 488.181Z" fill="#CCD7EE"/>
<path d="M579.496 484.822C579.627 484.802 579.75 484.892 579.77 485.024C579.787 485.139 579.72 485.247 579.615 485.286L579.568 485.298L547.812 490.113C547.681 490.133 547.558 490.043 547.538 489.911C547.52 489.796 547.588 489.688 547.693 489.649L547.74 489.637L579.496 484.822Z" fill="#CCD7EE"/>
<path fill-rule="evenodd" clip-rule="evenodd" d="M570.846 507.795L568.316 507.914L525.59 492.603L511.009 418.767L557.24 429.921L570.846 507.795Z" fill="#A3B5D6"/>
<path fill-rule="evenodd" clip-rule="evenodd" d="M568.225 507.914L523.168 491.79C522.756 491.641 522.452 491.289 522.367 490.859L508.275 419.899C508.098 419.007 508.906 418.233 509.79 418.447L553.64 429.089C554.121 429.207 554.487 429.597 554.572 430.084L568.225 507.914Z" fill="#4E5C93"/>
<path fill-rule="evenodd" clip-rule="evenodd" d="M661.504 463.405L662.247 463.468C669.835 464.112 676.508 458.482 677.152 450.895L681.758 396.618C682.401 389.03 676.773 382.356 669.184 381.713L668.442 381.649C660.853 381.006 654.18 386.635 653.536 394.223L648.93 448.499C648.287 456.088 653.916 462.761 661.504 463.405Z" fill="#E4EBF7"/>
<path fill-rule="evenodd" clip-rule="evenodd" d="M603.723 473.162C599.146 476.375 584.98 474.269 584.98 474.269L575.535 478.941C574.076 479.526 573.726 478.552 573.004 478.552C571.057 478.552 571.057 476.508 571.057 476.508C570.387 476.189 569.305 476.703 569.013 474.852C569.013 474.852 567.65 474.755 567.551 473.1C567.501 472.225 576.375 459.601 576.375 459.601L589.62 459.962C589.62 459.962 608.966 460.324 611.136 464.664C613.305 469.003 603.723 473.162 603.723 473.162Z" fill="#F4B784"/>
<path d="M583.982 466.234C584.171 466.167 584.379 466.265 584.446 466.454C584.507 466.624 584.433 466.809 584.28 466.894L584.226 466.918L578.858 468.834L572.284 475.988C572.241 476.03 572.176 476.104 572.105 476.202L572.052 476.279C571.869 476.557 571.79 476.825 571.85 477.043C571.951 477.411 572.453 477.743 573.531 477.958C573.728 477.998 573.855 478.189 573.816 478.386C573.777 478.582 573.585 478.71 573.389 478.67C572.07 478.407 571.339 477.923 571.15 477.235C571.023 476.775 571.158 476.315 571.445 475.879C571.547 475.725 571.649 475.602 571.723 475.524L571.763 475.482L578.385 468.277C578.411 468.248 578.442 468.224 578.476 468.205L578.53 468.181L583.982 466.234Z" fill="#DD936F"/>
<path d="M580.734 463.133C580.915 463.047 581.132 463.123 581.219 463.304C581.296 463.467 581.242 463.659 581.098 463.759L581.047 463.789L576.838 465.797L570.542 473.641L570.495 473.694L570.421 473.782C570.325 473.899 570.23 474.03 570.141 474.168C569.94 474.479 569.807 474.782 569.768 475.047C569.687 475.601 570.025 475.973 571.115 476.149C571.313 476.181 571.447 476.367 571.415 476.565C571.384 476.763 571.197 476.898 570.999 476.866C569.547 476.632 568.905 475.926 569.049 474.942C569.105 474.557 569.278 474.165 569.53 473.775C569.6 473.666 569.673 473.563 569.746 473.465L569.897 473.276L569.994 473.165L576.324 465.279C576.347 465.25 576.374 465.225 576.404 465.205L576.451 465.178L580.734 463.133Z" fill="#DD936F"/>
<path d="M587.349 469.529C587.547 469.493 587.736 469.624 587.772 469.821C587.804 469.999 587.701 470.17 587.536 470.228L587.479 470.243L581.162 471.392L574.312 478.052L574.311 478.064C574.308 478.105 574.312 478.147 574.323 478.187L574.345 478.245C574.447 478.452 574.788 478.598 575.526 478.578C576.138 478.562 577.346 478.016 578.917 477.083C579.239 476.891 579.573 476.686 579.917 476.468C580.66 475.997 581.412 475.492 582.134 474.987L583.076 474.316C583.128 474.278 583.188 474.254 583.251 474.247L583.613 474.212L583.982 474.18C584.177 474.165 584.387 474.15 584.612 474.135C586.144 474.035 587.83 473.994 589.588 474.044L590.33 474.07L591.539 474.127C597.42 474.409 600.801 474.061 604.831 472.111C605.011 472.024 605.228 472.099 605.316 472.28C605.403 472.46 605.328 472.677 605.147 472.765C601.16 474.694 597.801 475.105 592.272 474.886L590.299 474.796L590.148 474.79C588.205 474.712 586.338 474.75 584.659 474.86L584.04 474.904L583.427 474.959L582.917 475.325C582.801 475.407 582.678 475.493 582.55 475.583C581.82 476.093 581.059 476.604 580.306 477.081C579.957 477.303 579.617 477.512 579.288 477.707L578.875 477.949C577.394 478.8 576.264 479.285 575.545 479.304C574.553 479.33 573.943 479.069 573.694 478.568C573.576 478.329 573.562 478.085 573.606 477.86L573.625 477.783C573.628 477.772 573.631 477.762 573.634 477.753C573.646 477.717 573.664 477.683 573.687 477.653L573.725 477.61L580.735 470.794C580.774 470.757 580.821 470.728 580.871 470.711L580.923 470.697L587.349 469.529Z" fill="#DD936F"/>
<path d="M576.387 459.238L601.022 459.96C601.223 459.966 601.38 460.133 601.375 460.334C601.369 460.514 601.233 460.66 601.06 460.683L601.001 460.686L576.569 459.969L567.872 473.271L567.842 473.333C567.831 473.359 567.818 473.391 567.804 473.426L567.783 473.483C567.722 473.656 567.688 473.827 567.693 473.975C567.705 474.378 568.01 474.584 568.978 474.491C569.178 474.471 569.355 474.618 569.375 474.817C569.394 475.017 569.248 475.194 569.048 475.213C567.698 475.344 566.995 474.868 566.967 473.998C566.959 473.748 567.01 473.493 567.098 473.242C567.134 473.139 567.171 473.052 567.209 472.975L567.248 472.901L576.072 459.402C576.13 459.314 576.222 459.256 576.325 459.241L576.387 459.238Z" fill="#DD936F"/>
<path fill-rule="evenodd" clip-rule="evenodd" d="M599.514 455.363L605.313 477.617L666.41 463.688C673.586 461.818 677.887 454.486 676.017 447.311C674.147 440.136 666.815 435.836 659.641 437.705L599.514 455.363Z" fill="#E4EBF7"/>
<path d="M659.505 437.243C659.76 437.168 660.028 437.314 660.103 437.569C660.171 437.803 660.054 438.048 659.838 438.144L659.776 438.167L599.769 455.778L605.332 477.125L657.278 464.826C657.515 464.77 657.753 464.899 657.838 465.121L657.857 465.183C657.913 465.421 657.784 465.659 657.562 465.744L657.5 465.763L605.096 478.172C604.862 478.227 604.627 478.102 604.539 477.886L604.519 477.825L598.72 455.569C598.66 455.339 598.778 455.102 598.99 455.008L599.05 454.986L659.505 437.243Z" fill="#A3B5D6"/>
<path d="M609.205 454.169C609.441 454.108 609.681 454.233 609.771 454.452L609.792 454.514L614.715 473.41C614.782 473.668 614.628 473.931 614.371 473.998C614.135 474.059 613.894 473.935 613.804 473.715L613.783 473.653L608.86 454.757C608.793 454.5 608.947 454.237 609.205 454.169Z" fill="#A3B5D6"/>
<path d="M654.261 405.191C654.504 405.218 654.683 405.421 654.688 405.659L654.685 405.724L650.889 438.812C650.858 439.076 650.62 439.266 650.355 439.235C650.113 439.208 649.934 439.005 649.929 438.767L649.932 438.702L653.728 405.614C653.756 405.372 653.959 405.192 654.196 405.188L654.261 405.191Z" fill="#A3B5D6"/>
<defs>
<linearGradient id="paint0_linear" x1="154.837" y1="279.47" x2="146.104" y2="216.011" gradientUnits="userSpaceOnUse">
<stop stop-color="#F2F4F9" stop-opacity="0"/>
<stop offset="1" stop-color="#E0E5F1"/>
</linearGradient>
<linearGradient id="paint1_linear" x1="720.456" y1="360.921" x2="720.456" y2="206.368" gradientUnits="userSpaceOnUse">
<stop stop-color="#F2F4F9" stop-opacity="0"/>
<stop offset="1" stop-color="#E0E5F1"/>
</linearGradient>
</defs>
</svg>
