<svg width="253" height="253" viewBox="0 0 253 253" fill="none" xmlns="http://www.w3.org/2000/svg">
<circle cx="126.5" cy="126.5" r="126.5" fill="#04395E"/>
<path fill-rule="evenodd" clip-rule="evenodd" d="M191.345 175.539C191.345 175.539 203.992 189.055 215.895 176.989C228.033 164.687 214.714 151.523 214.714 151.523C214.714 151.523 206.032 141.957 195.162 130.727C186.667 121.951 180.183 115.183 174.225 110.098C167.796 104.609 158.655 107.008 153.08 112.658C144.609 121.247 148.092 131.353 153.678 137.674C159.111 143.822 164.8 150.586 170.934 157.225C182.731 169.993 191.345 175.539 191.345 175.539Z" fill="#ADC6FF"/>
<path fill-rule="evenodd" clip-rule="evenodd" d="M59.2492 171.797C59.2492 171.797 46.7737 184.773 35.0339 173.19C23.0634 161.38 36.1999 148.742 36.1999 148.742C36.1999 148.742 44.7625 139.559 55.4845 128.778C63.8616 120.353 70.2585 113.856 76.1336 108.974C82.475 103.705 91.4899 106.007 96.9888 111.432C105.345 119.677 101.909 129.378 96.3987 135.447C91.0403 141.349 85.4306 147.842 79.379 154.216C67.7449 166.473 59.2492 171.797 59.2492 171.797Z" fill="#ADC6FF"/>
<path fill-rule="evenodd" clip-rule="evenodd" d="M140.984 97.7014L140.035 78L113.655 78.0171L113.01 97.8399C112.722 105.512 118.876 111.911 126.628 111.994C126.775 111.996 126.922 111.998 127.071 111.999C134.998 112.089 141.361 105.544 140.984 97.7014Z" fill="#C99382"/>
<path fill-rule="evenodd" clip-rule="evenodd" d="M146.159 100.907L144.49 97.432L110.696 97L109.392 100.22C109.392 100.22 84.1567 99.5673 76.2221 110.413C69.8568 119.113 90.4177 176.838 90.6462 189.016C85.1209 203.564 93.1506 208 93.1506 208L159.007 207.215C159.007 207.215 166.547 202.249 160.092 192.252C162.736 174.37 180.271 123.745 177.753 114.233C175.274 104.867 146.159 100.907 146.159 100.907Z" fill="#ADC6FF"/>
<path d="M111.544 105.001L112.936 105.061L114.259 105.112C115.028 105.14 115.852 105.168 116.725 105.194C123.371 105.396 130.248 105.459 136.668 105.299C139.058 105.24 141.325 105.15 143.448 105.028C143.726 105.012 143.971 105.135 143.998 105.303C144.024 105.471 143.821 105.62 143.544 105.636C141.401 105.759 139.117 105.85 136.709 105.909C130.715 106.058 124.333 106.014 118.108 105.845L116.675 105.804C115.623 105.772 114.642 105.739 113.742 105.705L112.418 105.652L111.464 105.61C111.186 105.596 110.979 105.449 111.002 105.281C111.024 105.113 111.267 104.988 111.544 105.001Z" fill="#597EF7"/>
<path fill-rule="evenodd" clip-rule="evenodd" d="M159 216.817L157.986 207L92.3056 207.766L92 217.598C92 217.598 126.76 218.9 159 216.817Z" fill="#597EF7"/>
<path fill-rule="evenodd" clip-rule="evenodd" d="M150.121 60.3813C150.121 60.3813 157.006 53.0457 161.003 59.9839C164.802 66.5756 156.98 75.5723 150.351 73.7648C147.452 67.5909 150.121 60.3813 150.121 60.3813Z" fill="#C99382"/>
<path fill-rule="evenodd" clip-rule="evenodd" d="M104.88 60.3813C104.88 60.3813 97.9937 53.0457 93.9965 59.9839C90.1981 66.5756 98.0195 75.5723 104.649 73.7648C107.548 67.5909 104.88 60.3813 104.88 60.3813Z" fill="#C99382"/>
<path fill-rule="evenodd" clip-rule="evenodd" d="M154 61.2335C154 84.7772 142.146 91 127.523 91C112.902 91 102.049 85.0246 101.047 61.2335C100.125 39.3478 112.902 32 127.523 32C142.146 32 154 40.5637 154 61.2335Z" fill="#C99382"/>
<path fill-rule="evenodd" clip-rule="evenodd" d="M130.001 64.6026C130.056 69.2966 133.908 73.0565 138.602 72.9994C143.296 72.9435 147.055 69.0927 146.999 64.3986C146.942 59.7033 143.092 55.9447 138.398 56.0006C133.704 56.0565 129.945 59.9086 130.001 64.6026Z" fill="white"/>
<path d="M138.386 55C133.141 55.0592 128.938 59.1377 129.001 64.1082C129.063 69.0785 133.368 73.0599 138.614 72.9993C143.86 72.9402 148.062 68.8628 147.999 63.8924C147.936 59.0025 143.772 55.0716 138.643 55.0003L138.386 55ZM138.401 56.1848C142.957 56.1334 146.693 59.5896 146.749 63.9066C146.803 68.2225 143.154 71.7632 138.599 71.8145C134.044 71.8671 130.305 68.4099 130.251 64.0941C130.197 59.7778 133.846 56.2362 138.401 56.1848Z" fill="#7D4556"/>
<path d="M137.051 64.4004C137.019 64.7349 136.801 64.9958 136.534 64.9999C136.267 65.0041 136.044 64.7501 136.006 64.4166L136 64.3239C135.997 63.7628 136.077 63.0047 136.326 62.2356C136.764 60.8797 137.6 60.0201 138.863 60.0004C140.115 59.9808 140.999 60.7507 141.529 62.0037C141.832 62.7192 141.964 63.4229 141.998 63.921C142.024 64.2974 141.809 64.6298 141.519 64.6633C141.229 64.6968 140.973 64.4188 140.947 64.0423L140.935 63.9222C140.925 63.8456 140.91 63.7454 140.888 63.6276C140.826 63.2962 140.733 62.9655 140.605 62.6623C140.251 61.8268 139.71 61.3559 138.875 61.3689C138.069 61.3815 137.585 61.8788 137.299 62.7644C137.193 63.0923 137.124 63.4513 137.086 63.8132L137.065 64.0556C137.06 64.1276 137.057 64.19 137.056 64.2413L137.055 64.3095L137.051 64.4004Z" fill="#7D4556"/>
<path d="M111.376 53.047C113.88 51.5252 117.605 51.5252 122.684 53.9618C122.966 54.0971 123.081 54.4262 122.94 54.6969C122.799 54.9676 122.456 55.0774 122.174 54.942C117.435 52.6688 114.133 52.6688 111.987 53.9729C111.686 54.1558 111.439 54.35 111.243 54.5416L111.131 54.6563C111.086 54.7054 111.057 54.7415 111.042 54.7614C110.864 55.0111 110.509 55.075 110.249 54.9041C109.988 54.7332 109.922 54.3922 110.1 54.1425C110.309 53.849 110.725 53.443 111.376 53.047Z" fill="#7D4556"/>
<path d="M139.217 52.0141C140.909 51.938 142.418 52.1668 143.684 52.7601C143.98 52.8992 144.087 53.2151 143.923 53.4656C143.758 53.7161 143.383 53.8064 143.086 53.6672C142.043 53.1786 140.761 52.9839 139.283 53.0504C137.757 53.1191 136.105 53.4598 134.438 53.986C133.909 54.1532 133.407 54.3301 132.942 54.5087L132.601 54.6429C132.269 54.7762 132.034 54.8788 131.912 54.9353C131.615 55.0738 131.241 54.9826 131.077 54.7317C130.913 54.4808 131.021 54.1651 131.318 54.0267L131.563 53.9176C131.698 53.859 131.869 53.7875 132.072 53.706C132.659 53.4699 133.31 53.2341 134.007 53.014C135.782 52.4539 137.55 52.0892 139.217 52.0141Z" fill="#7D4556"/>
<path d="M124.284 57.0538C124.539 56.9301 124.852 57.027 124.982 57.2702L125.097 57.4979C125.144 57.595 125.2 57.7127 125.262 57.8496C125.468 58.3024 125.673 58.8086 125.865 59.357C126.493 61.1567 126.832 62.9769 126.725 64.6951C126.66 65.7416 126.46 66.696 126.091 67.9228L125.599 69.5149C125.179 70.9028 125.169 71.1493 125.306 71.6272C125.51 72.339 126.418 72.7952 128.537 73.0148C128.822 73.0443 129.028 73.2882 128.997 73.5594C128.966 73.8307 128.71 74.0266 128.425 73.9971C125.927 73.7383 124.652 73.0967 124.305 71.8874L124.262 71.7313C124.104 71.1324 124.131 70.798 124.57 69.3414L124.981 68.0168C125.403 66.6703 125.623 65.6967 125.688 64.6368C125.787 63.0615 125.47 61.3591 124.879 59.6687C124.698 59.1488 124.503 58.6691 124.309 58.2417L124.158 57.9187C124.115 57.8309 124.081 57.7636 124.057 57.7181C123.927 57.4749 124.028 57.1775 124.284 57.0538Z" fill="#9B6160"/>
<path d="M121.017 75.4212C121.087 75.1167 121.351 74.9373 121.606 75.0203L121.853 75.0932L122.047 75.146C122.414 75.2429 122.835 75.3401 123.306 75.4309C126.54 76.0544 130.043 76.0544 133.4 75.0184C133.656 74.9392 133.918 75.1227 133.985 75.4281C134.051 75.7336 133.897 76.0454 133.64 76.1245C130.138 77.2057 126.507 77.2056 123.153 76.5589L122.59 76.4427C122.41 76.4031 122.239 76.3629 122.076 76.3224L121.839 76.2615C121.606 76.2 121.442 76.1515 121.354 76.1227C121.098 76.0397 120.947 75.7256 121.017 75.4212Z" fill="#7D4556"/>
<path fill-rule="evenodd" clip-rule="evenodd" d="M109.001 64.6026C109.054 69.2966 112.678 73.0565 117.096 72.9994C121.514 72.9435 125.052 69.0927 124.999 64.3986C124.947 59.7033 121.322 55.9447 116.904 56.0006C112.486 56.0565 108.948 59.9086 109.001 64.6026Z" fill="white"/>
<path d="M116.892 55.0007C111.923 55.0598 107.941 59.1382 108.001 64.1086C108.061 69.0792 112.139 73.0598 117.108 72.9993C122.078 72.9402 126.058 68.8629 125.999 63.8927C125.94 58.922 121.863 54.9415 116.892 55.0007ZM116.906 56.1854C121.223 56.134 124.763 59.5905 124.815 63.9068C124.866 68.2227 121.409 71.7632 117.094 71.8146C112.779 71.8671 109.238 68.4105 109.185 64.0943C109.134 59.7783 112.591 56.2368 116.906 56.1854Z" fill="#7D4556"/>
<path d="M114.401 64.4004C114.359 64.7349 114.068 64.9958 113.712 64.9999C113.356 65.0041 113.058 64.7501 113.008 64.4166L113 64.3239C112.997 63.7628 113.103 63.0046 113.434 62.2355C114.018 60.8796 115.135 60.0201 116.818 60.0004C118.487 59.9808 119.666 60.7507 120.373 62.0037C120.776 62.7192 120.952 63.4229 120.997 63.921C121.032 64.2974 120.746 64.6298 120.359 64.6633C120.004 64.694 119.688 64.463 119.611 64.1343L119.58 63.9222C119.567 63.8456 119.547 63.7454 119.517 63.6276C119.435 63.2962 119.311 62.9655 119.14 62.6623C118.668 61.8268 117.948 61.3559 116.835 61.3689C115.759 61.3815 115.113 61.8789 114.732 62.7645C114.591 63.0924 114.498 63.4514 114.447 63.8133L114.419 64.0557C114.413 64.1276 114.409 64.1901 114.408 64.2413L114.407 64.3095L114.401 64.4004Z" fill="#7D4556"/>
<path fill-rule="evenodd" clip-rule="evenodd" d="M125 61C125 61 127.593 58.75 130 61Z" fill="white"/>
<path d="M125 61C125 61 127.593 58.75 130 61" stroke="#7D4556" stroke-width="1.383"/>
<path d="M140.324 88.0415C140.574 87.9252 140.861 88.0616 140.963 88.3461C141.066 88.6306 140.946 88.9556 140.695 89.0719C132.07 93.0701 124.855 92.6619 117.331 89.7256C117.075 89.6256 116.939 89.3089 117.027 89.0182C117.115 88.7276 117.394 88.573 117.65 88.673C124.968 91.529 131.949 91.9239 140.324 88.0415Z" fill="#9B6160"/>
<path d="M129.494 79C129.773 79 130 79.2239 130 79.5C130 79.7485 129.817 79.9547 129.576 79.9935L129.494 80H125.506C125.227 80 125 79.7761 125 79.5C125 79.2515 125.183 79.0453 125.424 79.0065L125.506 79H129.494Z" fill="#9B6160"/>
<path d="M127.5 85C127.749 85 127.955 85.1688 127.993 85.39L128 85.4656V90.5344C128 90.7916 127.776 91 127.5 91C127.251 91 127.045 90.8312 127.007 90.61L127 90.5344V85.4656C127 85.2084 127.224 85 127.5 85Z" fill="#9B6160"/>
<path d="M129.276 87.0036C129.434 86.9774 129.58 87.0958 129.625 87.2752L129.636 87.3372L129.997 90.5573C130.021 90.7706 129.898 90.9672 129.724 90.9964C129.566 91.0226 129.42 90.9043 129.375 90.7248L129.364 90.6628L129.003 87.4427C128.979 87.2294 129.102 87.0328 129.276 87.0036Z" fill="#9B6160"/>
<path d="M124.384 88.0051C124.741 88.0381 124.997 88.2218 125 88.4317L124.991 88.5025L124.445 90.6303C124.384 90.8683 124.013 91.0315 123.616 90.9949C123.259 90.9618 123.003 90.7782 123 90.5683L123.009 90.4975L123.555 88.3697C123.61 88.1555 123.916 88.0018 124.266 88L124.384 88.0051Z" fill="#9B6160"/>
<path d="M130.425 88.0133C130.699 87.9631 130.98 88.0591 131.093 88.2318L131.124 88.2921L131.981 90.5056C132.062 90.7154 131.88 90.9308 131.575 90.9867C131.301 91.0369 131.02 90.9409 130.907 90.7682L130.876 90.7079L130.019 88.4945C129.938 88.2846 130.12 88.0692 130.425 88.0133Z" fill="#9B6160"/>
<path d="M95.5434 60.9383C96.5712 59.5688 97.9313 59.5688 99.2139 61.8075C99.7382 63.1536 99.6914 64.0511 99.2353 65.3045L98.9768 65.9863C98.7025 66.755 98.7203 67.2437 99.1748 68.0089C99.309 68.235 99.4633 68.4173 99.6343 68.5615C99.9452 68.8238 100.254 68.93 100.462 68.9504L100.534 68.9542C100.792 68.9542 101 69.1883 101 69.4771C101 69.7659 100.792 70 100.534 70C100.147 70 99.61 69.8489 99.075 69.3977C98.8205 69.183 98.593 68.9145 98.3999 68.589C97.7993 67.5778 97.7367 66.7669 98.0493 65.7838L98.1561 65.476L98.2968 65.1118C98.7362 63.9794 98.7951 63.3419 98.3964 62.3011C97.5062 60.7562 96.898 60.7562 96.2555 61.6122C96.0769 61.8502 95.949 62.0918 95.8871 62.2396C95.7777 62.501 95.5003 62.6132 95.2676 62.4902C95.0349 62.3673 94.9349 62.0558 95.0444 61.7945C95.1378 61.5714 95.3045 61.2567 95.5434 60.9383Z" fill="#9B6160"/>
<path d="M155.519 61.7383C156.558 59.5755 157.691 59.5755 158.547 60.944C158.746 61.2622 158.885 61.5768 158.963 61.7997C159.054 62.0609 158.971 62.3722 158.777 62.495C158.583 62.6179 158.352 62.5057 158.261 62.2446C158.209 62.0969 158.103 61.8554 157.954 61.6176C157.419 60.7621 156.912 60.7621 156.2 62.2316C155.861 63.2765 155.883 63.9018 156.188 64.9083L156.407 65.6002C156.725 66.6685 156.699 67.5161 156.167 68.5896C156.006 68.9157 155.816 69.1845 155.604 69.3992C155.158 69.8493 154.71 70 154.388 70C154.174 70 154 69.766 154 69.4774C154 69.2177 154.141 69.0022 154.325 68.9617L154.388 68.9549C154.557 68.9549 154.847 68.8574 155.138 68.563C155.281 68.4188 155.41 68.2365 155.522 68.0099C155.875 67.2964 155.912 66.8234 155.729 66.1389L155.645 65.8527C155.629 65.8009 155.601 65.7138 155.542 65.5324C155.098 64.1589 155.027 63.2371 155.519 61.7383Z" fill="#9B6160"/>
<path fill-rule="evenodd" clip-rule="evenodd" d="M100.703 65.586C100.703 65.586 96.7695 61.3973 98.7367 56.2227C95.2947 50.0637 97.5082 44.1501 100.703 41.9317C99.7203 36.5117 103.407 26.9016 111.029 25.9158C115.516 27.7023 120.864 27.8874 120.864 27.8874C120.864 27.8874 133.647 20.4958 142.497 29.3655C151.593 28.3797 156.265 38.7288 155.527 42.4252C160.444 48.5843 156.51 57.9476 156.51 57.9476C156.51 57.9476 155.961 61.5692 154.299 66.5718C152.577 71.7464 151.839 65.0937 151.839 63.6157C151.839 62.1363 148.152 60.905 149.381 54.2524C145.203 51.295 146.125 46.7374 146.125 46.7374C146.125 46.7374 143.112 49.8169 134.509 45.6282C128.361 50.8027 119.018 45.6282 119.018 45.6282C119.018 45.6282 111.46 49.2616 107.034 46.5523C107.034 46.5523 108.263 50.2474 104.822 55.422C106.05 60.3498 102.424 62.6299 103.407 65.586C104.391 68.5421 101.686 71.4996 100.703 65.586Z" fill="#7D4556"/>
<path d="M80.3974 138.01C80.6383 137.962 80.8733 138.096 80.957 138.316L80.979 138.393L91.0845 188.302C91.1046 188.401 91.093 188.504 91.0513 188.597L90.9386 188.864C90.9025 188.954 90.8607 189.061 90.8144 189.183C90.6326 189.665 90.4505 190.209 90.2804 190.806C89.5529 193.357 89.2748 195.973 89.7032 198.397C90.2967 201.756 92.1958 204.391 95.7205 206.072C95.9663 206.189 96.0694 206.481 95.9507 206.724C95.832 206.967 95.5366 207.069 95.2907 206.951C91.4694 205.129 89.3759 202.224 88.7294 198.565C88.2718 195.976 88.5646 193.221 89.3289 190.541C89.4711 190.042 89.6216 189.578 89.7738 189.153L89.9362 188.716L90.0848 188.345L80.0097 138.584C79.9615 138.346 80.0973 138.114 80.3201 138.031L80.3974 138.01Z" fill="#597EF7"/>
<path d="M170.594 138.008C170.861 138.055 171.04 138.311 170.992 138.579L169.867 144.88L169.475 147.048C168.427 152.822 167.356 158.595 166.311 164.051L165.577 167.859L164.542 173.102C162.489 183.356 160.952 190.039 160.064 192.188L160.013 192.306L160.066 192.41C162.381 197.042 162.086 201.627 160.167 205.791L160.03 206.08C159.67 206.83 159.283 207.5 158.895 208.084C158.793 208.238 158.696 208.378 158.605 208.503L158.426 208.744C158.401 208.776 158.38 208.802 158.365 208.82C158.291 208.911 158.187 208.972 158.073 208.992L157.986 209H92.4912C92.2199 209 92 208.779 92 208.507C92 208.262 92.1781 208.058 92.4115 208.02L92.4912 208.014L157.745 208.013L157.906 207.79L158.078 207.537C158.441 206.989 158.806 206.358 159.146 205.651C161.108 201.574 161.419 197.087 159.032 192.547C158.957 192.405 158.956 192.235 159.029 192.091L159.102 191.94C159.96 190.039 161.652 182.629 163.902 171.284L164.199 169.782C164.472 168.397 164.75 166.965 165.034 165.491L165.66 162.22C166.499 157.81 167.352 153.216 168.193 148.602L169.149 143.324L170.025 138.408C170.067 138.166 170.278 137.997 170.515 138L170.594 138.008Z" fill="#597EF7"/>
<path d="M158.504 207C158.778 207 159 207.224 159 207.5C159 207.749 158.82 207.955 158.584 207.993L158.504 208H92.4964C92.2222 208 92 207.776 92 207.5C92 207.251 92.18 207.045 92.4158 207.007L92.4964 207H158.504Z" fill="#253368"/>
<path fill-rule="evenodd" clip-rule="evenodd" d="M195.869 157.999C195.869 157.999 208.423 146.817 218.005 157.901C227.883 169.33 216.333 180.662 216.333 180.662C216.333 180.662 208.009 188.418 197.794 198.026C191.557 203.892 184.541 210.219 178.798 214.019C172.579 218.135 169.238 215.395 164.449 209.853C158.759 203.272 157.024 199.964 161.662 194.029C166.082 188.368 172.955 181.655 178.047 176.191C187.758 165.772 195.869 157.999 195.869 157.999Z" fill="#ADC6FF"/>
<path fill-rule="evenodd" clip-rule="evenodd" d="M164.077 221L153 208.477L160.327 200L173 214.327L164.077 221Z" fill="#ADC6FF"/>
<path fill-rule="evenodd" clip-rule="evenodd" d="M55.1312 154.92C55.1312 154.92 42.5776 143.915 32.9958 154.823C23.1161 166.071 34.6678 177.223 34.6678 177.223C34.6678 177.223 42.99 184.856 53.2067 194.311C59.4432 200.084 66.4591 206.31 72.2024 210.05C78.4207 214.102 81.7607 211.405 86.5503 205.951C92.2403 199.474 93.976 196.219 89.3387 190.378C84.9174 184.806 78.0459 178.2 72.9532 172.823C63.2426 162.569 55.1312 154.92 55.1312 154.92Z" fill="#ADC6FF"/>
<path fill-rule="evenodd" clip-rule="evenodd" d="M86.9228 218L98 205.477L90.6719 197L78 211.327L86.9228 218Z" fill="#ADC6FF"/>
<path fill-rule="evenodd" clip-rule="evenodd" d="M149.321 200.841C149.321 200.841 156.424 191.99 159.097 192C163.242 192.014 161.256 200.638 161.256 200.638C161.256 200.638 164.99 202.69 163.085 207.168C164.949 211.122 162.968 213.322 162.968 213.322C162.968 213.322 165.551 216.204 162.543 219.078C159.534 221.953 152.076 221.99 152.665 216.504C149.418 213.831 151.58 210.613 151.58 210.613C151.58 210.613 149.159 208.001 151.331 204.925C149.052 203.87 148.588 201.772 149.321 200.841Z" fill="#C99382"/>
<path d="M158.197 199.085C158.424 198.94 158.74 198.985 158.904 199.185C159.05 199.363 159.026 199.604 158.859 199.757L158.79 199.81L150.803 204.915C150.576 205.06 150.26 205.015 150.096 204.815C149.95 204.637 149.974 204.396 150.141 204.243L150.21 204.19L158.197 199.085Z" fill="#9B6160"/>
<path d="M159.463 191.002C161.681 190.924 162.615 192.875 162.637 195.968C162.644 196.989 162.551 198.076 162.392 199.159C162.365 199.341 162.338 199.517 162.31 199.685L162.224 200.165L162.21 200.237L162.382 200.399C162.685 200.69 162.988 201.025 163.271 201.401C164.559 203.109 165.026 205.03 164.168 207.007L164.088 207.179L164.095 207.189C165.236 209.471 165.225 211.395 164.47 212.896L164.383 213.062C164.267 213.272 164.15 213.449 164.041 213.593L163.929 213.73L164.304 217.438C164.33 217.689 164.178 217.917 163.956 217.982L163.88 217.997C163.643 218.024 163.429 217.863 163.368 217.628L163.353 217.547L162.954 213.598C162.937 213.433 162.998 213.269 163.117 213.16C163.214 213.071 163.383 212.866 163.557 212.55C164.256 211.28 164.279 209.596 163.13 207.433C163.048 207.278 163.048 207.09 163.13 206.935C164.033 205.226 163.685 203.574 162.523 202.035C162.274 201.704 162.007 201.408 161.739 201.151L161.569 200.992C161.494 200.925 161.435 200.876 161.397 200.846C161.243 200.726 161.171 200.519 161.215 200.321L161.267 200.062L161.286 199.965C161.341 199.676 161.396 199.352 161.447 199.003C161.598 197.97 161.687 196.935 161.68 195.976C161.661 193.38 160.984 191.964 159.494 192.017C159.23 192.026 159.009 191.806 159 191.526C158.992 191.246 159.199 191.011 159.463 191.002Z" fill="#9B6160"/>
<path d="M158.306 207.034C158.567 206.935 158.862 207.059 158.965 207.311C159.057 207.538 158.962 207.791 158.751 207.912L158.677 207.947L150.694 210.966C150.433 211.065 150.138 210.941 150.035 210.689C149.943 210.462 150.038 210.209 150.249 210.088L150.323 210.053L158.306 207.034Z" fill="#9B6160"/>
<path fill-rule="evenodd" clip-rule="evenodd" d="M100.637 200.841C100.637 200.841 92.5877 191.99 89.5571 192C84.8589 192.014 87.1102 200.638 87.1102 200.638C87.1102 200.638 82.8782 202.69 85.0388 207.168C82.9263 211.122 85.1692 213.322 85.1692 213.322C85.1692 213.322 82.242 216.204 85.6509 219.078C89.0612 221.953 97.5155 221.99 96.8467 216.504C100.528 213.831 98.0765 210.613 98.0765 210.613C98.0765 210.613 100.82 208.001 98.3585 204.925C100.941 203.87 101.467 201.772 100.637 200.841Z" fill="#C99382"/>
<path d="M90.096 199.185C90.2416 199.007 90.5078 198.952 90.7243 199.044L90.8028 199.085L98.7903 204.19C99.0169 204.334 99.0678 204.614 98.904 204.815C98.7584 204.993 98.4922 205.048 98.2757 204.956L98.1972 204.915L90.2097 199.81C89.9831 199.666 89.9322 199.386 90.096 199.185Z" fill="#9B6160"/>
<path d="M90.4602 191.002C90.7683 191.011 91.0099 191.246 90.9997 191.526C90.9895 191.806 90.7315 192.025 90.4234 192.016C88.6854 191.964 87.8949 193.38 87.8734 195.976C87.8654 196.935 87.9685 197.97 88.1453 199.003L88.2375 199.506C88.2689 199.667 88.3009 199.82 88.3328 199.965L88.4161 200.321C88.4672 200.519 88.3834 200.725 88.2032 200.846L88.0839 200.931C88.0097 200.986 87.9149 201.059 87.8041 201.151C87.4924 201.407 87.1801 201.704 86.8894 202.034C85.5348 203.574 85.1286 205.226 86.1833 206.935C86.2787 207.09 86.2785 207.278 86.1827 207.433C84.841 209.596 84.8679 211.28 85.6835 212.55C85.8863 212.866 86.0829 213.071 86.1967 213.16C86.3123 213.251 86.3809 213.38 86.3893 213.516L86.3869 213.598L85.9211 217.547C85.8882 217.825 85.613 218.027 85.3065 217.997C85.0307 217.97 84.8234 217.765 84.8087 217.521L84.811 217.438L85.248 213.73L85.2133 213.696C85.0902 213.568 84.956 213.407 84.8208 213.213L84.7194 213.062C83.7752 211.592 83.6814 209.697 84.9143 207.441L85.0624 207.178L84.9713 207.007C84.0058 205.1 84.4776 203.246 85.8602 201.584L86.0176 201.4C86.2652 201.119 86.5257 200.86 86.7896 200.625L87.1172 200.347L87.2544 200.237L87.2382 200.164C87.188 199.937 87.1379 199.69 87.0897 199.427L87.0422 199.159C86.8568 198.076 86.7486 196.989 86.7571 195.968C86.782 192.956 87.8152 191.028 90.259 191L90.4602 191.002Z" fill="#9B6160"/>
<path d="M90.0313 207.311C90.1134 207.084 90.334 206.961 90.5467 207.011L90.6171 207.034L97.713 210.053C97.9454 210.152 98.0598 210.437 97.9687 210.689C97.8866 210.916 97.666 211.039 97.4533 210.989L97.3829 210.966L90.287 207.947C90.0546 207.848 89.9402 207.563 90.0313 207.311Z" fill="#9B6160"/>
</svg>
