<svg width="526" height="650" viewBox="0 0 526 650" fill="none" xmlns="http://www.w3.org/2000/svg">
<path fill-rule="evenodd" clip-rule="evenodd" d="M258.834 285.503L270.414 303.978L326.499 272.34C334.615 267.985 337.445 257.735 332.716 249.832C327.986 241.931 317.612 239.584 309.941 244.68L258.834 285.503Z" fill="#41D3BD"/>
<path d="M258.931 284.742C259.198 284.595 259.529 284.671 259.707 284.909L259.751 284.978L270.199 303.872C270.36 304.163 270.254 304.53 269.963 304.691C269.695 304.839 269.364 304.763 269.187 304.524L269.143 304.455L258.695 285.562C258.534 285.271 258.64 284.904 258.931 284.742Z" fill="#597EF7"/>
<path d="M270.913 280.129C271.169 279.968 271.5 280.023 271.692 280.246L271.745 280.317L281.728 296.127C281.906 296.409 281.822 296.782 281.54 296.96C281.284 297.121 280.952 297.067 280.761 296.844L280.707 296.772L270.725 280.962C270.547 280.68 270.631 280.307 270.913 280.129Z" fill="#597EF7"/>
<path fill-rule="evenodd" clip-rule="evenodd" d="M272.548 296.065C271.659 296.598 271.368 297.752 271.901 298.641C272.435 299.532 273.588 299.822 274.479 299.289C275.369 298.756 275.659 297.602 275.126 296.712C274.592 295.821 273.439 295.531 272.548 296.065Z" fill="white"/>
<path fill-rule="evenodd" clip-rule="evenodd" d="M326.518 267.868C333.52 262.608 335.09 252.743 330.064 245.57L287.758 185.163C281.695 176.507 269.668 174.593 261.219 180.94C252.77 187.288 251.258 199.371 257.882 207.605L304.116 265.064C309.604 271.887 319.515 273.127 326.518 267.868Z" fill="#41D3BD"/>
<path fill-rule="evenodd" clip-rule="evenodd" d="M195.489 366.59C195.489 366.59 183.939 353.637 187.102 346.119C189.967 339.311 199.149 341.791 199.149 341.791C199.149 341.791 206.107 344.547 212.789 349.55C217.169 352.829 226.424 357.821 225.347 360.513C223.944 364.024 215.315 357.376 212.934 358.754C208.11 361.546 220.586 373.435 221.574 376.449C223.506 382.339 209.227 382.235 195.489 366.59Z" fill="#997C79"/>
<path d="M208.274 365.47C208.463 365.373 208.696 365.448 208.793 365.638L208.86 365.764C208.914 365.866 208.988 366.001 209.082 366.167L209.155 366.297C209.458 366.827 209.816 367.418 210.228 368.055C211.406 369.877 212.78 371.698 214.334 373.397C215.931 375.141 217.63 376.656 219.424 377.876C219.601 377.996 219.647 378.236 219.527 378.413C219.407 378.589 219.167 378.635 218.99 378.515C217.143 377.259 215.399 375.704 213.764 373.918C212.179 372.185 210.779 370.33 209.579 368.475C209.229 367.933 208.917 367.424 208.644 366.955L208.339 366.422C208.231 366.227 208.153 366.081 208.106 365.99C208.009 365.8 208.084 365.567 208.274 365.47Z" fill="#4E5C93"/>
<path d="M203.557 366.789C203.736 366.674 203.975 366.725 204.09 366.904C204.304 367.234 204.519 367.56 204.737 367.881C207.036 371.273 209.499 374.06 211.959 376.283C212.819 377.059 213.616 377.709 214.33 378.237C214.517 378.375 214.688 378.497 214.841 378.604L215.187 378.835C215.198 378.842 215.207 378.847 215.214 378.852C215.395 378.964 215.452 379.202 215.34 379.383C215.228 379.565 214.99 379.621 214.808 379.509L214.625 379.391L214.557 379.345C214.359 379.211 214.129 379.049 213.871 378.858C213.137 378.315 212.32 377.649 211.442 376.856C208.936 374.593 206.433 371.759 204.097 368.314C203.877 367.988 203.658 367.658 203.442 367.323C203.326 367.144 203.377 366.905 203.557 366.789Z" fill="#4E5C93"/>
<path d="M198.996 366.628C199.182 366.525 199.417 366.592 199.521 366.778L199.621 366.949C199.694 367.07 199.796 367.232 199.929 367.434C200.288 367.98 200.739 368.61 201.29 369.319C202.869 371.348 204.925 373.587 207.514 375.968C207.671 376.113 207.681 376.357 207.536 376.514C207.392 376.671 207.148 376.681 206.991 376.537C204.371 374.126 202.285 371.856 200.681 369.793C200.188 369.159 199.771 368.584 199.427 368.074L199.284 367.859C199.187 367.711 199.101 367.576 199.026 367.456L198.846 367.153C198.742 366.967 198.809 366.732 198.996 366.628Z" fill="#4E5C93"/>
<path fill-rule="evenodd" clip-rule="evenodd" d="M245.004 179.125L209.84 180.082L210.952 135.526L241.291 134.641L245.004 179.125Z" fill="#997C79"/>
<path fill-rule="evenodd" clip-rule="evenodd" d="M208.331 132.204C209.75 136.38 208.36 139.002 205.998 139.581C202.956 140.325 199.549 137.25 197.824 133.191C195.38 127.44 197.551 123.852 201.121 123.918C204.077 123.971 206.914 128.029 208.331 132.204Z" fill="#997C79"/>
<path fill-rule="evenodd" clip-rule="evenodd" d="M243.714 131.17C242.541 135.422 244.083 137.958 246.475 138.397C249.555 138.964 252.777 135.694 254.261 131.542C256.365 125.658 253.989 122.202 250.428 122.476C247.481 122.703 244.887 126.919 243.714 131.17Z" fill="#997C79"/>
<path fill-rule="evenodd" clip-rule="evenodd" d="M249.041 124.338C249.566 142.286 241.009 157.097 226.52 157.521C212.89 157.919 203.448 143.614 202.097 125.709C200.248 101.17 210.991 92.9246 224.62 92.5264C238.25 92.1282 248.338 100.218 249.041 124.338Z" fill="#997C79"/>
<path fill-rule="evenodd" clip-rule="evenodd" d="M206.396 107.488L243.355 106.323C243.355 106.323 244.21 110.376 244.899 116.532C249.812 121.77 249.015 129.441 249.015 129.441C249.015 129.441 255.242 92.4367 224.621 93.3309C193.433 94.2419 202.676 130.795 202.676 130.795C202.368 120.266 205.514 118.004 205.514 118.004C205.514 118.004 205.893 113.536 206.396 107.488Z" fill="#604346"/>
<path d="M209.676 118.834L220.733 119.173C221.066 119.183 221.327 119.462 221.317 119.795C221.308 120.1 221.073 120.345 220.778 120.376L220.696 120.379L209.82 120.046L207.973 121.197C207.716 121.357 207.385 121.3 207.195 121.076L207.142 121.004C206.982 120.747 207.039 120.416 207.263 120.225L207.335 120.173L209.338 118.925C209.414 118.878 209.499 118.848 209.587 118.838L209.676 118.834Z" fill="#604346"/>
<path d="M240.893 117.92C240.975 117.917 241.057 117.93 241.133 117.959L241.208 117.993L243.28 119.123C243.572 119.282 243.68 119.649 243.521 119.941C243.374 120.209 243.054 120.322 242.777 120.217L242.702 120.182L240.777 119.133L230.064 119.596C229.759 119.61 229.497 119.394 229.445 119.101L229.436 119.02C229.422 118.715 229.638 118.453 229.931 118.4L230.012 118.391L240.893 117.92Z" fill="#604346"/>
<path fill-rule="evenodd" clip-rule="evenodd" d="M204.041 136.578C204.041 136.578 206.149 136.899 207.511 139.026C209.113 141.528 211.596 145.025 211.596 145.025C211.596 145.025 212.782 139.665 216.21 137.705C218.267 136.53 221.347 135.587 225.936 135.581C230.267 135.575 233.312 136.472 235.426 137.595C238.95 139.469 241.156 144.671 241.156 144.671C241.156 144.671 242.965 142.579 244.393 139.139C245.803 135.744 245.833 136.038 248.024 135.463C246.285 145.711 239.311 157.132 226.405 157.508C211.351 157.948 206.117 143.655 204.041 136.578Z" fill="#7C5B4D"/>
<path d="M228.123 146.487C228.456 146.478 228.734 146.74 228.743 147.073C228.752 147.378 228.533 147.637 228.24 147.686L228.158 147.693L224.252 147.808C223.919 147.818 223.641 147.556 223.631 147.223C223.622 146.917 223.842 146.658 224.135 146.61L224.217 146.602L228.123 146.487Z" fill="#604346"/>
<path d="M220.892 119.87C221.184 119.778 221.493 119.919 221.62 120.187L221.649 120.264L222.773 123.817C222.787 123.862 222.796 123.907 222.799 123.954L222.8 124.023L222.346 135.44L228.287 135.266C228.592 135.257 228.851 135.477 228.9 135.77L228.908 135.852C228.917 136.157 228.697 136.416 228.404 136.465L228.322 136.472L221.735 136.666C221.412 136.675 221.145 136.43 221.116 136.118L221.115 136.038L221.591 124.081L220.499 120.627C220.407 120.336 220.547 120.027 220.816 119.9L220.892 119.87Z" fill="#604346"/>
<path fill-rule="evenodd" clip-rule="evenodd" d="M217.199 127.459C217.248 129.1 216.298 130.46 215.079 130.495C213.859 130.531 212.834 129.229 212.785 127.588C212.737 125.947 213.687 124.587 214.906 124.552C216.124 124.517 217.152 125.818 217.199 127.459Z" fill="#604346"/>
<path fill-rule="evenodd" clip-rule="evenodd" d="M238.085 126.849C238.134 128.49 237.184 129.85 235.965 129.885C234.745 129.921 233.718 128.619 233.671 126.978C233.623 125.337 234.573 123.977 235.791 123.942C237.01 123.907 238.038 125.208 238.085 126.849Z" fill="#604346"/>
<path fill-rule="evenodd" clip-rule="evenodd" d="M218.834 140.418C218.834 140.418 223.93 140.774 231.745 140.121C231.745 140.121 230.57 143.344 224.941 143.326C220.523 143.312 218.834 140.418 218.834 140.418Z" fill="white"/>
<path d="M231.695 139.52L230.538 139.611C226.537 139.907 223.054 139.965 220.25 139.877L219.46 139.847L218.876 139.816C218.393 139.782 218.069 140.304 218.313 140.722C218.564 141.152 219.072 141.758 219.879 142.357C221.197 143.335 222.878 143.923 224.939 143.93C227.543 143.938 229.484 143.291 230.842 142.193C231.677 141.517 232.131 140.825 232.312 140.328C232.463 139.914 232.134 139.483 231.695 139.52ZM230.551 140.82L230.436 140.939C230.328 141.046 230.211 141.151 230.083 141.255C228.947 142.173 227.276 142.73 224.943 142.723C223.147 142.717 221.714 142.216 220.598 141.388L220.372 141.212L220.221 141.083L220.622 141.095C223.254 141.163 226.436 141.106 230.051 140.856L230.551 140.82Z" fill="#604346"/>
<path d="M238.161 152.403C238.334 152.223 238.621 152.218 238.8 152.392C238.98 152.566 238.985 152.852 238.811 153.032C236.071 155.867 232.007 157.798 226.419 157.961C220.887 158.123 216.522 156.404 213.266 153.631C213.076 153.469 213.053 153.184 213.215 152.994C213.377 152.803 213.663 152.78 213.853 152.942C216.946 155.576 221.098 157.211 226.393 157.057C231.735 156.901 235.578 155.074 238.161 152.403Z" fill="#604346"/>
<path fill-rule="evenodd" clip-rule="evenodd" d="M268.062 270.109L278.922 178.791C276.848 176.785 268.05 173.053 242.797 168.948C237.416 168.072 232.018 176.744 226.31 177.017C222.45 177.2 215.074 168.361 211.842 168.836C192.399 171.694 182.157 175.301 173.372 179.243L187.641 252.176L191.356 270.788C191.356 270.788 188.439 285.052 195.421 287.776C268.806 287.776 262.583 287.097 262.583 287.097C262.583 287.097 273.007 283.181 268.062 270.109Z" fill="#41D3BD"/>
<path fill-rule="evenodd" clip-rule="evenodd" d="M209.891 165.197L203.206 172.169L214.84 188.334L227.241 175.933L209.891 165.197Z" fill="#37B4A1"/>
<path fill-rule="evenodd" clip-rule="evenodd" d="M217.782 185.659L227.243 176.031L236.704 185.829L232.421 195.278L221.754 195.155L217.782 185.659Z" fill="#253368"/>
<path fill-rule="evenodd" clip-rule="evenodd" d="M221.811 195.073L232.358 194.877L242.297 255.965C242.382 256.492 242.268 257.032 241.976 257.479L230.226 275.461C229.386 276.747 227.507 276.756 226.654 275.48L214.322 257.034C214.034 256.603 213.912 256.083 213.978 255.569L221.811 195.073Z" fill="#253368"/>
<path d="M204.083 171.664C204.336 171.498 204.668 171.547 204.864 171.767L204.918 171.838L214.896 187.096L226.825 175.597C227.043 175.387 227.378 175.373 227.611 175.553L227.678 175.612C227.888 175.83 227.901 176.166 227.722 176.399L227.662 176.466L215.209 188.472C214.958 188.714 214.56 188.69 214.337 188.436L214.285 188.368L203.908 172.499C203.726 172.22 203.804 171.846 204.083 171.664Z" fill="#597EF7"/>
<path fill-rule="evenodd" clip-rule="evenodd" d="M244.341 165.197L249.82 172.169L239.393 188.334L226.992 175.933L244.341 165.197Z" fill="#37B4A1"/>
<path d="M248.091 171.867C248.258 171.578 248.627 171.48 248.915 171.646C249.18 171.799 249.285 172.122 249.172 172.397L249.136 172.471L239.965 188.34C239.784 188.653 239.376 188.733 239.092 188.529L239.024 188.472L226.571 176.466C226.331 176.234 226.324 175.852 226.555 175.612C226.765 175.394 227.1 175.369 227.34 175.54L227.408 175.597L239.305 187.068L248.091 171.867Z" fill="#597EF7"/>
<path d="M232.653 194.57C232.819 194.57 232.955 194.705 232.955 194.872C232.955 195.018 232.851 195.139 232.714 195.168L232.653 195.174H221.397C221.23 195.174 221.095 195.039 221.095 194.872C221.095 194.726 221.199 194.605 221.336 194.576L221.397 194.57H232.653Z" fill="#597EF7"/>
<path d="M273.93 205.631C274.263 205.62 274.543 205.881 274.554 206.214C274.773 212.434 274.559 219.746 273.975 227.928C273.453 235.249 272.652 243.038 271.647 251.02C271.039 255.844 270.392 260.47 269.741 264.761L269.352 267.288C269.223 268.114 269.099 268.887 268.983 269.603L268.682 271.418L268.793 271.766L268.83 271.887C268.976 272.373 269.122 272.916 269.259 273.505C269.718 275.491 269.959 277.498 269.863 279.385C269.632 283.919 267.491 286.985 262.945 287.692C262.616 287.744 262.307 287.518 262.256 287.189C262.205 286.86 262.43 286.551 262.76 286.5C266.67 285.892 268.453 283.338 268.658 279.324C268.747 277.564 268.519 275.663 268.083 273.777C267.979 273.327 267.869 272.906 267.758 272.519L267.608 272.02C267.558 271.858 267.518 271.739 267.493 271.669C267.459 271.571 267.45 271.467 267.467 271.365L267.723 269.831C267.859 269.001 268.005 268.089 268.16 267.101L268.399 265.563C269.098 261.008 269.797 256.053 270.45 250.869C271.452 242.907 272.251 235.14 272.771 227.842C273.352 219.7 273.565 212.429 273.349 206.256C273.337 205.923 273.597 205.644 273.93 205.631Z" fill="#597EF7"/>
<path fill-rule="evenodd" clip-rule="evenodd" d="M136.57 274.957C128.912 270.707 126.006 261.152 129.998 253.358L163.621 187.718C168.439 178.313 180.089 174.768 189.33 179.896C198.569 185.023 201.724 196.786 196.291 205.851L158.376 269.107C153.875 276.619 144.228 279.207 136.57 274.957Z" fill="#41D3BD"/>
<path fill-rule="evenodd" clip-rule="evenodd" d="M171.947 601.539C171.947 601.539 161.865 621.308 141.601 624.636C128.334 626.815 141.14 639.527 164.423 635.772C177.695 633.63 175.054 626.794 182.384 627.025C186.634 627.161 195.251 625.254 195.775 622.054C196.691 616.461 195.811 613.613 196.057 607.034C197.257 575.005 186.212 567.658 171.947 601.539Z" fill="black"/>
<path fill-rule="evenodd" clip-rule="evenodd" d="M194.168 480.751C183.764 479.891 175.926 470.919 176.471 460.493L184.645 342.8C185.499 330.5 196.378 321.355 208.643 322.63C220.686 323.881 229.4 334.705 228.053 346.737L214.936 463.82C213.689 474.129 204.516 481.606 194.168 480.751Z" fill="#125E8A"/>
<path fill-rule="evenodd" clip-rule="evenodd" d="M196.717 601.925L214.218 466.732C215.636 455.784 207.513 445.914 196.496 445.197C185.86 444.507 176.712 452.647 176.163 463.292L169.127 599.643C169.127 599.643 179.661 606.883 196.717 601.925Z" fill="#125E8A"/>
<path fill-rule="evenodd" clip-rule="evenodd" d="M262.237 600.464C262.237 600.464 271.558 620.603 291.678 624.701C304.852 627.386 291.572 639.599 268.449 634.958C255.269 632.312 258.167 625.581 250.834 625.534C246.582 625.506 238.043 623.273 237.641 620.054C236.94 614.431 237.929 611.618 237.933 605.036C237.958 572.983 249.274 566.063 262.237 600.464Z" fill="black"/>
<path fill-rule="evenodd" clip-rule="evenodd" d="M252.355 479.433C262.811 479.58 271.441 471.291 271.715 460.836L274.797 343.117C275.151 330.983 265.52 320.899 253.383 320.695C241.069 320.489 231.032 330.521 231.231 342.834L233.527 460.708C233.728 471.006 242.057 479.288 252.355 479.433Z" fill="#125E8A"/>
<path fill-rule="evenodd" clip-rule="evenodd" d="M237.792 599.466L233.405 463.215C233.05 452.182 242.087 443.14 253.119 443.49C263.773 443.828 272.095 452.811 271.614 463.46L265.473 599.854C265.473 599.854 254.29 606.044 237.792 599.466Z" fill="#125E8A"/>
<path fill-rule="evenodd" clip-rule="evenodd" d="M265.266 295.704H192.34L193.547 287.096H264.059L265.266 295.704Z" fill="black"/>
<path fill-rule="evenodd" clip-rule="evenodd" d="M274.959 340.739C273.764 307.678 265.117 294.496 265.117 294.496H192.902C192.902 294.496 183.781 316.489 185.539 344.624C198.11 352.439 223.052 354.003 223.052 354.003C224.93 354.914 236.001 355.328 237.854 354.464C237.854 354.464 271.901 345.948 274.959 340.739Z" fill="#125E8A"/>
<path fill-rule="evenodd" clip-rule="evenodd" d="M237.385 297.214H221.372C219.573 297.214 218.102 295.741 218.102 293.943V287.996C218.102 286.197 219.573 284.724 221.372 284.724H237.385C239.184 284.724 240.656 286.197 240.656 287.996V293.943C240.656 295.741 239.184 297.214 237.385 297.214Z" fill="white"/>
<path fill-rule="evenodd" clip-rule="evenodd" d="M235.662 295.197H222.803C221.721 295.197 220.837 294.312 220.837 293.231V288.829C220.837 287.748 221.721 286.864 222.803 286.864H235.662C236.743 286.864 237.627 287.748 237.627 288.829V293.231C237.627 294.312 236.743 295.197 235.662 295.197Z" fill="black"/>
<path d="M227.716 353.765H227.796L235.611 354.446C235.943 354.475 236.189 354.767 236.16 355.099C236.134 355.404 235.886 355.635 235.589 355.65L235.507 355.648L228.268 355.018L196.734 602.613C196.708 602.818 196.579 602.993 196.397 603.08L196.316 603.112L196.034 603.196L195.671 603.299C195.541 603.334 195.402 603.372 195.255 603.411C194.415 603.631 193.47 603.852 192.439 604.058C188.364 604.871 184.202 605.224 180.304 604.855C175.52 604.401 171.553 602.882 168.703 600.073C168.465 599.839 168.463 599.457 168.697 599.219C168.931 598.982 169.313 598.979 169.55 599.213C172.177 601.803 175.887 603.224 180.418 603.653C184.183 604.011 188.233 603.667 192.203 602.874C193.065 602.702 193.866 602.52 194.591 602.336L195.155 602.188L195.586 602.069L227.145 354.291C227.179 354.026 227.38 353.822 227.631 353.775L227.716 353.765Z" fill="#253368"/>
<path d="M181.077 203.367C181.41 203.362 181.684 203.629 181.689 203.962C181.722 206.4 181.809 208.899 181.947 211.454C182.594 223.439 184.325 236.264 186.806 249.253C187.929 255.135 189.132 260.66 190.336 265.666L190.826 267.676C190.984 268.314 191.137 268.921 191.283 269.495L191.704 271.116L191.938 271.987C191.961 272.07 191.966 272.156 191.953 272.24L191.904 272.599L191.847 273.074C191.829 273.243 191.81 273.422 191.793 273.61C191.573 275.951 191.552 278.429 191.86 280.738C192.196 283.26 192.9 285.31 194.02 286.721C194.227 286.982 194.183 287.362 193.922 287.569C193.661 287.776 193.281 287.732 193.074 287.471C191.797 285.862 191.027 283.616 190.664 280.897C190.342 278.485 190.363 275.921 190.591 273.497C190.619 273.204 190.648 272.933 190.677 272.686L190.741 272.185L190.472 271.175L190.114 269.794C189.893 268.929 189.659 267.99 189.413 266.981L189.163 265.948C187.955 260.924 186.747 255.381 185.62 249.479C183.13 236.441 181.393 223.565 180.742 211.519C180.604 208.948 180.516 206.433 180.482 203.979C180.477 203.646 180.744 203.372 181.077 203.367Z" fill="#597EF7"/>
<path fill-rule="evenodd" clip-rule="evenodd" d="M259.685 284.245C259.685 284.245 269.006 275.382 272.102 275.739C276.899 276.296 273.53 285.57 273.53 285.57C273.53 285.57 277.6 288.324 274.838 293.026C276.505 297.641 273.941 299.815 273.941 299.815C273.941 299.815 276.575 303.337 272.734 306.125C268.894 308.912 260.253 307.985 261.616 301.995C258.187 298.619 261.088 295.342 261.088 295.342C261.088 295.342 258.61 292.139 261.507 289.021C258.998 287.558 258.721 285.179 259.685 284.245Z" fill="#997C79"/>
<path d="M270.544 283.397C270.762 283.274 271.038 283.351 271.161 283.568C271.27 283.762 271.222 284.001 271.057 284.138L270.989 284.185L261.729 289.415C261.512 289.537 261.236 289.461 261.113 289.243C261.004 289.05 261.052 288.81 261.217 288.673L261.284 288.626L270.544 283.397Z" fill="#604346"/>
<path d="M269.869 292.517C270.11 292.452 270.358 292.595 270.423 292.836C270.481 293.054 270.371 293.276 270.173 293.366L270.103 293.391L261.205 295.779C260.964 295.843 260.716 295.7 260.651 295.459C260.593 295.242 260.703 295.019 260.901 294.929L260.971 294.905L269.869 292.517Z" fill="#604346"/>
<path d="M270.105 300.105C270.352 300.063 270.585 300.229 270.627 300.475C270.664 300.697 270.533 300.909 270.327 300.979L270.256 300.997L261.689 302.441C261.443 302.483 261.21 302.317 261.168 302.07C261.131 301.849 261.261 301.637 261.468 301.567L261.539 301.549L270.105 300.105Z" fill="#604346"/>
<path d="M309.561 244.211C309.819 244.001 310.199 244.04 310.409 244.299C310.6 244.534 310.585 244.869 310.386 245.086L310.321 245.147L297.185 255.812C296.927 256.022 296.547 255.983 296.337 255.724C296.146 255.489 296.161 255.153 296.36 254.937L296.425 254.875L309.561 244.211Z" fill="#597EF7"/>
<path fill-rule="evenodd" clip-rule="evenodd" d="M240.307 222.784H224.221C222.625 222.784 221.304 221.543 221.205 219.951L219.121 186.547C219.014 184.808 220.394 183.337 222.137 183.337H242.391C244.133 183.337 245.514 184.808 245.406 186.547L243.322 219.951C243.223 221.543 241.902 222.784 240.307 222.784Z" fill="#4E5C93"/>
<path fill-rule="evenodd" clip-rule="evenodd" d="M240.307 224.515H224.221C222.625 224.515 221.304 223.275 221.205 221.682L219.121 188.279C219.014 186.54 220.394 185.069 222.137 185.069H242.391C244.133 185.069 245.514 186.54 245.406 188.279L243.322 221.682C243.223 223.275 241.902 224.515 240.307 224.515Z" fill="#FF9D00"/>
<path fill-rule="evenodd" clip-rule="evenodd" d="M222.289 229.708C222.289 229.708 206.994 234.339 201.94 228.785C197.363 223.754 202.991 217.045 202.991 217.045C202.991 217.045 207.321 214.186 213.196 209.764C216.221 207.487 219.499 199.4 219.604 202.068C219.813 207.39 219.973 208.943 220.202 211.465C220.666 216.577 237.728 211.395 240.628 211.738C246.297 212.406 240.679 224.292 222.289 229.708Z" fill="#997C79"/>
<path d="M240.939 214.003C241.153 213.874 241.431 213.944 241.559 214.159C241.688 214.373 241.618 214.651 241.404 214.779C240.368 215.399 239.257 215.951 238.082 216.44C235.586 217.476 232.918 218.184 230.25 218.624C229.472 218.752 228.74 218.849 228.067 218.92L227.67 218.96C227.465 218.979 227.277 218.995 227.108 219.007L226.782 219.028C226.738 219.03 226.704 219.032 226.68 219.033C226.43 219.043 226.22 218.848 226.21 218.599C226.201 218.374 226.358 218.181 226.571 218.137L226.668 218.127L226.885 218.115L227.394 218.076L227.586 218.059C228.345 217.988 229.191 217.881 230.103 217.731C232.707 217.301 235.31 216.611 237.734 215.604C238.871 215.132 239.942 214.599 240.939 214.003Z" fill="#604346"/>
<path d="M240.119 217.9C240.328 217.762 240.608 217.82 240.746 218.028C240.884 218.237 240.826 218.518 240.618 218.655L240.43 218.774C240.374 218.808 240.308 218.847 240.232 218.892C239.922 219.074 239.554 219.277 239.129 219.494C237.92 220.113 236.496 220.732 234.866 221.308C232.195 222.253 229.233 222.991 225.996 223.444C225.748 223.479 225.52 223.306 225.485 223.059C225.45 222.811 225.623 222.582 225.87 222.548C229.046 222.103 231.949 221.38 234.564 220.455C236.156 219.892 237.543 219.29 238.716 218.689C239.044 218.521 239.335 218.363 239.59 218.218L239.955 218.003C240.031 217.957 240.086 217.922 240.119 217.9Z" fill="#604346"/>
<path d="M234.744 223.207C234.975 223.111 235.239 223.221 235.335 223.452C235.431 223.682 235.321 223.947 235.09 224.043C232.057 225.3 229.347 226.164 226.997 226.706C226.171 226.896 225.449 227.033 224.834 227.125L224.463 227.176C224.284 227.199 224.152 227.212 224.067 227.218C223.818 227.236 223.601 227.049 223.583 226.8C223.565 226.55 223.752 226.334 224.001 226.316L224.18 226.298C224.307 226.284 224.481 226.262 224.7 226.229C225.292 226.141 225.991 226.009 226.794 225.824C229.095 225.293 231.757 224.445 234.744 223.207Z" fill="#604346"/>
<path fill-rule="evenodd" clip-rule="evenodd" d="M205.122 214.364L214.86 236.184L149.734 277.226C141.149 280.562 131.52 276.049 128.59 267.318C125.66 258.587 131.75 246.873 140.61 244.357L205.122 214.364Z" fill="#41D3BD"/>
<path d="M193.76 222.578C194.043 222.463 194.362 222.578 194.51 222.836L194.546 222.909L201.653 240.364C201.779 240.673 201.631 241.025 201.322 241.15C201.039 241.266 200.72 241.151 200.572 240.893L200.536 240.819L193.428 223.364C193.303 223.056 193.451 222.704 193.76 222.578Z" fill="#597EF7"/>
<path fill-rule="evenodd" clip-rule="evenodd" d="M205.681 231.482C206.664 231.152 207.729 231.682 208.059 232.666C208.39 233.649 207.86 234.715 206.876 235.044C205.892 235.375 204.827 234.845 204.497 233.86C204.167 232.877 204.698 231.812 205.681 231.482Z" fill="white"/>
<path d="M204.839 214.152C205.116 214.025 205.44 214.127 205.598 214.378L205.637 214.45L215.141 235.221C215.253 235.466 215.188 235.752 214.991 235.925L214.921 235.979L151.063 277.41C150.784 277.591 150.41 277.512 150.229 277.232C150.064 276.978 150.114 276.646 150.335 276.452L150.406 276.398L213.827 235.249L204.79 215.499L139.1 245.41C138.822 245.536 138.498 245.434 138.34 245.183L138.301 245.111C138.174 244.833 138.276 244.509 138.528 244.35L138.6 244.311L204.839 214.152Z" fill="#597EF7"/>
<path d="M36.5311 209.42C36.5939 209.206 36.8189 209.082 37.0337 209.145C42.0815 210.619 44.9786 215.906 43.5045 220.954C43.4418 221.169 43.2168 221.292 43.0019 221.229C42.7871 221.167 42.6638 220.942 42.7265 220.727C44.0751 216.109 41.4246 211.272 36.8065 209.923C36.5917 209.86 36.4684 209.635 36.5311 209.42Z" fill="#C4C4C4"/>
<path d="M25.7275 215.341C25.9424 215.403 26.0657 215.628 26.0029 215.843C24.6544 220.461 27.3049 225.298 31.923 226.647C32.1379 226.709 32.2612 226.934 32.1985 227.149C32.1357 227.364 31.9107 227.487 31.6958 227.425C26.648 225.951 23.7508 220.664 25.2249 215.616C25.2876 215.401 25.5127 215.278 25.7275 215.341Z" fill="#C4C4C4"/>
<path d="M38.4841 223.352C39.4733 222.551 40.2372 221.45 40.6211 220.136C41.6247 216.699 39.6522 213.099 36.2155 212.096C32.7787 211.092 29.1791 213.065 28.1755 216.501C27.1719 219.938 29.1444 223.538 32.5812 224.541C34.4236 225.079 36.3128 224.762 37.8237 223.822L45.9646 235.338C46.0938 235.52 46.3467 235.564 46.5295 235.435C46.7122 235.305 46.7557 235.053 46.6265 234.87L38.4841 223.352Z" fill="#C4C4C4"/>
<path d="M70.6418 236.487C74.1713 232.957 79.8936 232.957 83.423 236.487C86.9523 240.016 86.9523 245.738 83.4229 249.268C79.8936 252.797 74.1713 252.797 70.6418 249.268C70.4835 249.11 70.2269 249.11 70.0687 249.268C69.9104 249.426 69.9104 249.683 70.0687 249.841C73.9147 253.687 80.1502 253.687 83.9961 249.841C87.842 245.995 87.842 239.76 83.9961 235.914C80.1502 232.068 73.9147 232.068 70.0687 235.914C69.9104 236.072 69.9104 236.328 70.0687 236.487C70.2269 236.645 70.4835 236.645 70.6418 236.487Z" fill="#C4C4C4"/>
<path d="M81.6182 247.463C84.1505 244.931 84.1505 240.825 81.6182 238.293C79.0859 235.761 74.9803 235.761 72.4479 238.293C71.2449 239.496 70.6134 241.054 70.5534 242.63H61.3983C61.1745 242.63 60.993 242.811 60.993 243.035C60.993 243.259 61.1745 243.44 61.3983 243.44H70.573C70.7 244.908 71.325 246.34 72.4479 247.463C74.9803 249.995 79.0859 249.995 81.6182 247.463Z" fill="#C4C4C4"/>
<path d="M36.8806 259.953C37.9076 261.1 38.5321 262.615 38.5321 264.276C38.5321 267.858 35.629 270.761 32.0478 270.761C28.4666 270.761 25.5633 267.858 25.5633 264.276C25.5633 260.695 28.4666 257.792 32.0478 257.792C33.6761 257.792 35.1643 258.392 36.3031 259.384L45.179 249.741C45.3305 249.577 45.5869 249.566 45.7516 249.718C45.9163 249.869 45.9269 250.126 45.7753 250.29L36.8806 259.953Z" fill="#C4C4C4"/>
<path d="M23.2944 264.277C23.2944 259.443 27.2138 255.523 32.0484 255.523C32.2722 255.523 32.4537 255.342 32.4537 255.118C32.4537 254.894 32.2722 254.713 32.0484 254.713C26.7661 254.713 22.4839 258.995 22.4839 264.277C22.4839 269.559 26.7661 273.842 32.0484 273.842C37.3307 273.842 41.6128 269.559 41.6128 264.277C41.6128 264.053 41.4313 263.872 41.2075 263.872C40.9837 263.872 40.8022 264.053 40.8022 264.277C40.8022 269.112 36.883 273.031 32.0484 273.031C27.2138 273.031 23.2944 269.112 23.2944 264.277Z" fill="#C4C4C4"/>
<path d="M52.0682 236.556C55.6494 236.556 58.5526 239.459 58.5526 243.04C58.5526 246.621 55.6494 249.525 52.0682 249.525C48.487 249.525 45.5839 246.621 45.5839 243.04C45.5839 239.459 48.487 236.556 52.0682 236.556Z" fill="#C4C4C4"/>
<g clip-path="url(#clip0)">
<path fill-rule="evenodd" clip-rule="evenodd" d="M324.395 184.86C325.692 185.223 326.676 185.734 327.347 186.394C328.017 187.054 328.51 188.108 328.825 189.554L330.923 199.203C331.117 200.096 331.441 200.678 331.896 200.95C332.35 201.221 333.049 201.255 333.993 201.05L335.266 200.773C335.706 200.677 336.093 200.714 336.427 200.883C336.76 201.053 336.997 201.461 337.137 202.107C337.244 202.599 337.18 203.024 336.945 203.382C336.709 203.739 336.387 203.962 335.979 204.051L333.149 204.667C331.607 205.002 330.398 204.934 329.522 204.464C328.646 203.993 328.034 202.958 327.686 201.358L325.558 191.57C324.908 188.585 323.44 187.212 321.154 187.451C320.637 187.499 320.176 187.421 319.77 187.22C319.363 187.018 319.104 186.656 318.99 186.132C318.876 185.609 318.976 185.16 319.29 184.785C319.604 184.411 320.021 184.135 320.542 183.957C321.704 183.544 322.422 182.831 322.696 181.82C322.971 180.81 322.907 179.381 322.506 177.535L320.628 168.901C320.307 167.423 320.499 166.189 321.206 165.197C321.912 164.206 322.927 163.566 324.247 163.279L326.984 162.684C327.392 162.595 327.787 162.63 328.168 162.789C328.548 162.948 328.809 163.351 328.949 163.997C329.139 164.568 329.103 165.011 328.843 165.326C328.582 165.641 328.199 165.852 327.696 165.962L326.328 166.259C325.416 166.458 324.819 166.781 324.538 167.229C324.257 167.677 324.233 168.439 324.468 169.517L326.496 178.843C326.998 181.151 326.297 183.157 324.395 184.86Z" fill="#C4C4C4"/>
<path fill-rule="evenodd" clip-rule="evenodd" d="M344.394 174.951L342.366 165.625C342.131 164.547 341.793 163.863 341.351 163.573C340.91 163.282 340.233 163.236 339.32 163.434L337.952 163.732C337.449 163.841 337.013 163.807 336.645 163.629C336.278 163.451 336.061 163.063 335.997 162.464C335.856 161.818 335.926 161.344 336.206 161.041C336.486 160.738 336.831 160.542 337.239 160.453L339.975 159.858C341.296 159.571 342.485 159.732 343.539 160.341C344.594 160.95 345.281 161.993 345.603 163.47L347.48 172.104C347.882 173.95 348.417 175.277 349.086 176.082C349.755 176.888 350.705 177.237 351.933 177.131C352.482 177.077 352.976 177.155 353.416 177.364C353.858 177.575 354.135 177.942 354.249 178.465C354.363 178.989 354.277 179.426 353.991 179.778C353.705 180.13 353.318 180.392 352.827 180.563C350.648 181.295 349.883 183.154 350.532 186.139L352.66 195.927C353.008 197.527 352.882 198.723 352.28 199.515C351.678 200.307 350.607 200.87 349.065 201.205L346.235 201.821C345.826 201.91 345.441 201.84 345.078 201.613C344.716 201.385 344.481 201.025 344.374 200.533C344.233 199.887 344.279 199.418 344.512 199.125C344.745 198.833 345.082 198.639 345.522 198.543L346.796 198.266C347.739 198.061 348.361 197.74 348.661 197.304C348.962 196.868 349.015 196.204 348.821 195.311L346.723 185.662C346.408 184.216 346.419 183.053 346.755 182.174C347.091 181.295 347.774 180.421 348.803 179.552C346.366 178.794 344.896 177.259 344.394 174.951Z" fill="#C4C4C4"/>
</g>
<g clip-path="url(#clip1)">
<path fill-rule="evenodd" clip-rule="evenodd" d="M299.395 371.86C300.692 372.223 301.676 372.734 302.347 373.394C303.017 374.054 303.51 375.108 303.825 376.554L305.923 386.203C306.117 387.096 306.441 387.678 306.896 387.95C307.35 388.221 308.049 388.255 308.993 388.05L310.266 387.773C310.706 387.677 311.093 387.714 311.427 387.883C311.76 388.053 311.997 388.461 312.137 389.107C312.244 389.599 312.18 390.024 311.945 390.382C311.709 390.739 311.387 390.962 310.979 391.051L308.149 391.667C306.607 392.002 305.398 391.934 304.522 391.464C303.646 390.993 303.034 389.958 302.686 388.358L300.558 378.57C299.908 375.585 298.44 374.212 296.154 374.451C295.637 374.499 295.176 374.421 294.77 374.22C294.363 374.018 294.104 373.656 293.99 373.132C293.876 372.609 293.976 372.16 294.29 371.785C294.604 371.411 295.021 371.135 295.542 370.957C296.704 370.544 297.422 369.831 297.696 368.82C297.971 367.81 297.907 366.381 297.506 364.535L295.628 355.901C295.307 354.423 295.499 353.189 296.206 352.197C296.912 351.206 297.927 350.566 299.247 350.279L301.984 349.684C302.392 349.595 302.787 349.63 303.168 349.789C303.548 349.948 303.809 350.351 303.949 350.997C304.139 351.568 304.103 352.011 303.843 352.326C303.582 352.641 303.199 352.852 302.696 352.962L301.328 353.259C300.416 353.458 299.819 353.781 299.538 354.229C299.257 354.677 299.233 355.439 299.468 356.517L301.496 365.843C301.998 368.151 301.297 370.157 299.395 371.86Z" fill="#C4C4C4"/>
<path fill-rule="evenodd" clip-rule="evenodd" d="M319.394 361.951L317.366 352.625C317.131 351.547 316.793 350.863 316.351 350.573C315.91 350.282 315.233 350.236 314.32 350.434L312.952 350.732C312.449 350.841 312.013 350.807 311.645 350.629C311.278 350.451 311.061 350.063 310.997 349.464C310.856 348.818 310.926 348.344 311.206 348.041C311.486 347.738 311.831 347.542 312.239 347.453L314.975 346.858C316.296 346.571 317.485 346.732 318.539 347.341C319.594 347.95 320.281 348.993 320.603 350.47L322.48 359.104C322.882 360.95 323.417 362.277 324.086 363.082C324.755 363.888 325.705 364.237 326.933 364.131C327.482 364.077 327.976 364.155 328.416 364.364C328.858 364.575 329.135 364.942 329.249 365.465C329.363 365.989 329.277 366.426 328.991 366.778C328.705 367.13 328.318 367.392 327.827 367.563C325.648 368.295 324.883 370.154 325.532 373.139L327.66 382.927C328.008 384.527 327.882 385.723 327.28 386.515C326.678 387.307 325.607 387.87 324.065 388.205L321.235 388.821C320.826 388.91 320.441 388.84 320.078 388.613C319.716 388.385 319.481 388.025 319.374 387.533C319.233 386.887 319.279 386.418 319.512 386.125C319.745 385.833 320.082 385.639 320.522 385.543L321.796 385.266C322.739 385.061 323.361 384.74 323.661 384.304C323.962 383.868 324.015 383.204 323.821 382.311L321.723 372.662C321.408 371.216 321.419 370.053 321.755 369.174C322.091 368.295 322.774 367.421 323.803 366.552C321.366 365.794 319.896 364.259 319.394 361.951Z" fill="#C4C4C4"/>
</g>
<path fill-rule="evenodd" clip-rule="evenodd" d="M525 232C525 275.079 490.077 310 447.001 310C403.922 310 369 275.079 369 232C369 188.921 403.922 154 447.001 154C490.077 154 525 188.921 525 232Z" fill="#FFE7BA"/>
<mask id="mask0" style="mask-type:alpha" maskUnits="userSpaceOnUse" x="369" y="153" width="157" height="157">
<path d="M447.216 153.652C404.119 153.652 369.184 188.587 369.184 231.682C369.184 274.779 404.119 309.714 447.216 309.714C490.311 309.714 525.248 274.779 525.248 231.682C525.248 188.587 490.311 153.652 447.216 153.652Z" fill="white"/>
</mask>
<g mask="url(#mask0)">
<path fill-rule="evenodd" clip-rule="evenodd" d="M488 226V320.348C488 321.732 486.208 322.432 485.221 321.464L479.477 314.783L473.427 320.845C472.222 322.054 470.27 322.066 469.05 320.873L462.807 314.783L456.881 320.8C455.672 322.027 453.698 322.04 452.474 320.827L446.37 314.783L440.21 320.864C438.996 322.061 437.047 322.061 435.835 320.862L429.685 314.783L423.553 320.845C422.334 322.051 420.373 322.043 419.162 320.83L413.126 314.783L407.528 321.542C406.546 322.522 405 321.825 405 320.435V226H488Z" fill="white"/>
<path fill-rule="evenodd" clip-rule="evenodd" d="M405 225H488V220.724C488 219.219 486.609 218 484.893 218H408.107C406.39 218 405 219.219 405 220.724V225Z" fill="#597EF7"/>
<path fill-rule="evenodd" clip-rule="evenodd" d="M470.876 250C471.497 250 472 249.608 472 249.126V243.875C472 243.392 471.497 243 470.876 243H464.126C463.503 243 463 243.392 463 243.875V249.126C463 249.608 463.503 250 464.126 250H470.876Z" fill="#FAAD14"/>
<path fill-rule="evenodd" clip-rule="evenodd" d="M405 234H442V208H405V234Z" fill="#04395E"/>
<path fill-rule="evenodd" clip-rule="evenodd" d="M405 247H442V238H405V247Z" fill="#04395E"/>
<path fill-rule="evenodd" clip-rule="evenodd" d="M456 213H393L424.501 181L456 213Z" fill="#04395E"/>
<path fill-rule="evenodd" clip-rule="evenodd" d="M471 300C469.419 288.993 459.759 276 448.043 276C436.133 276 426.33 288.725 425 300C434.399 300 458.921 300 471 300Z" fill="#41D3BD"/>
<path fill-rule="evenodd" clip-rule="evenodd" d="M461 266.5C461 273.956 454.956 280 447.501 280C440.044 280 434 273.956 434 266.5C434 259.044 440.044 253 447.501 253C454.956 253 461 259.044 461 266.5Z" fill="#41D3BD"/>
</g>
<path fill-rule="evenodd" clip-rule="evenodd" d="M344.621 68.23C332.965 68.23 323.516 77.679 323.516 89.335V89.3888C323.516 101.045 332.965 110.494 344.621 110.494H375.745C376.907 110.494 378.048 110.4 379.159 110.219L385.189 116.043C385.353 116.202 385.572 116.29 385.8 116.29C386.286 116.29 386.68 115.896 386.68 115.411L386.68 107.443C392.777 103.743 396.85 97.0415 396.85 89.3888V89.335C396.85 77.679 387.401 68.23 375.745 68.23H344.621Z" fill="#FB8500"/>
<path d="M349.74 17.666H305.3C288.649 17.666 275.15 31.1646 275.15 47.816C275.15 64.4674 288.649 77.966 305.3 77.966H349.74C366.392 77.966 379.89 64.4674 379.89 47.816C379.89 31.1646 366.392 17.666 349.74 17.666Z" fill="#125E8A"/>
<path fill-rule="evenodd" clip-rule="evenodd" d="M289.676 69.1958V84.9796C289.676 85.6734 290.238 86.2359 290.932 86.2359C291.257 86.2359 291.57 86.1096 291.804 85.8836L303.403 74.6923L289.676 69.1958Z" fill="#125E8A"/>
<path d="M307.342 51.5848C310.03 51.5848 312.21 49.4054 312.21 46.7168C312.21 44.0283 310.03 41.8489 307.342 41.8489C304.653 41.8489 302.474 44.0283 302.474 46.7168C302.474 49.4054 304.653 51.5848 307.342 51.5848Z" fill="white"/>
<path d="M327.285 51.5848C329.973 51.5848 332.153 49.4054 332.153 46.7168C332.153 44.0283 329.973 41.8489 327.285 41.8489C324.596 41.8489 322.417 44.0283 322.417 46.7168C322.417 49.4054 324.596 51.5848 327.285 51.5848Z" fill="white"/>
<path d="M347.699 51.5848C350.388 51.5848 352.567 49.4054 352.567 46.7168C352.567 44.0283 350.388 41.8489 347.699 41.8489C345.011 41.8489 342.831 44.0283 342.831 46.7168C342.831 49.4054 345.011 51.5848 347.699 51.5848Z" fill="white"/>
<path fill-rule="evenodd" clip-rule="evenodd" d="M407.921 381.415C433.054 365.38 448.033 407.433 435.393 430.848C419.968 459.422 412.067 492.299 407.667 502.205C403.955 510.561 393.788 530.934 381.544 521.544C370.277 512.902 376.418 478.986 376.418 478.986C376.418 478.986 376.916 401.196 407.921 381.415Z" fill="#5B8C00"/>
<path fill-rule="evenodd" clip-rule="evenodd" d="M332.325 515.014C323.781 499.465 320.661 477.151 330.198 471.429C339.342 465.943 354.488 479.451 361.504 505.446C368.519 531.442 372.567 550.132 365.704 553.381C354.445 558.713 343.61 535.55 332.325 515.014Z" fill="#5B8C00"/>
<path fill-rule="evenodd" clip-rule="evenodd" d="M422.153 516.194C412.489 531.47 398.543 562.2 389.806 551.437C384.511 544.915 391.59 514.026 410.966 497.22C427.448 482.924 431.817 500.918 422.153 516.194Z" fill="#7CB305"/>
<path fill-rule="evenodd" clip-rule="evenodd" d="M329.676 410.188C333.351 406.853 337.975 406.091 342.193 407.913C348.08 410.457 357.014 418.03 365.856 439.767C377.401 468.147 383.41 499.259 382.222 518.967C381.446 531.855 369.674 537.411 363.089 528.014C360.064 523.698 356.864 517.046 353.733 506.953C341.133 466.339 329.353 440.889 327.948 438.333C324.2 431.514 321.52 417.59 329.676 410.188Z" fill="#7CB305"/>
<path fill-rule="evenodd" clip-rule="evenodd" d="M338.127 426.387C338.251 428.393 337.147 430.154 335.661 430.322C334.174 430.491 332.868 429.002 332.743 426.996C332.618 424.991 333.722 423.229 335.209 423.061C336.696 422.893 338.002 424.382 338.127 426.387Z" fill="white"/>
<path fill-rule="evenodd" clip-rule="evenodd" d="M361.071 441.944C361.196 443.949 360.092 445.711 358.605 445.879C357.118 446.047 355.812 444.558 355.687 442.553C355.563 440.548 356.667 438.786 358.154 438.617C359.64 438.449 360.947 439.939 361.071 441.944Z" fill="white"/>
<path fill-rule="evenodd" clip-rule="evenodd" d="M357.226 483.364C357.369 485.66 356.104 487.678 354.402 487.87C352.699 488.063 351.203 486.357 351.06 484.061C350.917 481.765 352.182 479.747 353.884 479.554C355.587 479.361 357.083 481.067 357.226 483.364Z" fill="white"/>
<path fill-rule="evenodd" clip-rule="evenodd" d="M427.7 421.463C427.7 424.722 425.741 427.364 423.325 427.364C420.908 427.364 418.95 424.722 418.95 421.463C418.95 418.204 420.908 415.562 423.325 415.562C425.741 415.562 427.7 418.204 427.7 421.463Z" fill="white"/>
<path fill-rule="evenodd" clip-rule="evenodd" d="M392.481 439.483C392.481 442.742 390.522 445.384 388.106 445.384C385.69 445.384 383.731 442.742 383.731 439.483C383.731 436.224 385.69 433.582 388.106 433.582C390.522 433.582 392.481 436.224 392.481 439.483Z" fill="white"/>
<path fill-rule="evenodd" clip-rule="evenodd" d="M403.887 479.539C403.887 480.902 403.068 482.006 402.059 482.006C401.049 482.006 400.23 480.902 400.23 479.539C400.23 478.177 401.049 477.073 402.059 477.073C403.068 477.073 403.887 478.177 403.887 479.539Z" fill="white"/>
<path fill-rule="evenodd" clip-rule="evenodd" d="M417.061 511.082C417.061 513.094 415.851 514.726 414.359 514.726C412.867 514.726 411.658 513.094 411.658 511.082C411.658 509.07 412.867 507.439 414.359 507.439C415.851 507.439 417.061 509.07 417.061 511.082Z" fill="white"/>
<path d="M353.966 519.164C354.218 518.84 354.617 518.853 354.857 519.192L354.972 519.36L355.059 519.49C355.218 519.729 355.402 520.015 355.608 520.346C356.193 521.288 356.844 522.413 357.544 523.721C359.539 527.447 361.533 531.892 363.392 537.05C368.697 551.77 371.879 569.253 371.879 589.436C371.879 589.906 371.597 590.286 371.249 590.286C370.901 590.286 370.619 589.906 370.619 589.436C370.619 569.519 367.483 552.288 362.259 537.793C360.432 532.726 358.477 528.364 356.523 524.715C355.881 523.517 355.283 522.478 354.743 521.601L354.642 521.438C354.489 521.191 354.349 520.972 354.225 520.781L354.067 520.543C354.008 520.456 353.967 520.396 353.945 520.365C353.705 520.025 353.715 519.488 353.966 519.164Z" fill="#253368"/>
<path d="M401.554 525.11C401.762 524.734 402.157 524.657 402.435 524.938C402.714 525.219 402.771 525.751 402.563 526.127C400.269 530.271 398.152 534.728 396.205 539.451C392.089 549.437 388.907 560.142 386.545 570.849C385.719 574.596 385.054 578.075 384.536 581.195L384.431 581.834C384.308 582.598 384.201 583.294 384.11 583.918L384.051 584.326L383.947 585.097C383.889 585.559 383.564 585.871 383.221 585.793C382.878 585.715 382.647 585.277 382.705 584.814L382.74 584.541C382.77 584.32 382.806 584.06 382.849 583.762L382.953 583.055C383.055 582.381 383.172 581.635 383.307 580.824L383.421 580.142C383.927 577.163 384.562 573.88 385.338 570.364C387.724 559.547 390.94 548.729 395.104 538.625C397.077 533.838 399.225 529.318 401.554 525.11Z" fill="#253368"/>
<path d="M412.561 419.111C412.802 419.423 412.82 419.931 412.608 420.271L412.58 420.312C412.568 420.33 412.541 420.368 412.501 420.426L412.346 420.655L412.256 420.789C411.985 421.197 411.669 421.688 411.314 422.262C410.294 423.907 409.156 425.888 407.929 428.204C404.419 434.833 400.907 442.817 397.627 452.164C392.166 467.726 387.914 485.475 385.336 505.429C382.206 529.658 381.688 556.127 384.25 584.854C384.292 585.32 384.045 585.743 383.7 585.799C383.355 585.855 383.041 585.523 382.999 585.057C380.423 556.165 380.944 529.53 384.095 505.137C386.693 485.03 390.98 467.135 396.488 451.437C399.801 441.996 403.351 433.926 406.904 427.217L407.179 426.7C408.275 424.654 409.299 422.874 410.231 421.36L410.347 421.172C410.682 420.632 410.983 420.162 411.247 419.762L411.318 419.655C411.4 419.531 411.474 419.421 411.539 419.326L411.67 419.137C411.911 418.798 412.31 418.786 412.561 419.111Z" fill="#253368"/>
<path d="M358.039 469.494C358.337 469.251 358.724 469.379 358.905 469.78L358.968 469.923C359.018 470.039 359.077 470.176 359.145 470.335L359.244 470.568C359.413 470.968 359.603 471.429 359.812 471.948L359.985 472.38C360.626 473.989 361.328 475.851 362.077 477.959L362.18 478.248C364.625 485.158 367.069 493.238 369.349 502.419C375.734 528.128 379.619 557.307 379.764 589.431C379.766 589.9 379.486 590.283 379.138 590.286C378.79 590.289 378.506 589.911 378.504 589.442C378.36 557.506 374.499 528.504 368.155 502.959C365.932 494.011 363.555 486.121 361.175 479.355L361.043 478.98C360.23 476.681 359.473 474.676 358.79 472.971L358.584 472.461C358.387 471.975 358.209 471.548 358.053 471.182L357.979 471.008L357.827 470.661C357.647 470.26 357.742 469.737 358.039 469.494Z" fill="#253368"/>
<path fill-rule="evenodd" clip-rule="evenodd" d="M406.517 631.579H352.071C349.128 631.579 346.72 628.331 346.72 624.361V570.785C346.72 566.814 349.128 563.567 352.071 563.567H406.517C409.46 563.567 411.869 566.814 411.869 570.785V624.361C411.869 628.331 409.46 631.579 406.517 631.579Z" fill="#253368"/>
<path d="M122.496 150.756V135.121H96.394V150.756C68.821 160.697 65.7329 167.785 65.7329 167.785H153.163C153.163 167.785 150.074 160.697 122.496 150.756Z" fill="#FFE7BA"/>
<path d="M138.876 114.073C138.876 110.439 137 107.314 134.309 105.924C134.44 101.333 134.338 98.1167 134.338 98.1167C134.338 89.59 129.526 82.1342 122.346 78.0739V71.8948C102.044 71.8948 95.5163 79.2319 95.5163 79.2319C89.3772 83.4652 85.3855 90.3449 85.3855 98.1124C85.3855 98.1124 85.2912 101.175 85.407 105.588C82.3217 106.756 80.0957 110.113 80.0957 114.073C80.0957 118.688 83.1195 122.486 86.9982 122.953C87.8675 127.728 89.1857 132.06 91.1758 134.702C97.1247 142.601 104.339 145.927 109.862 145.927C115.385 145.927 122.6 142.601 128.548 134.702C130.564 132.033 131.88 127.643 132.75 122.81C136.248 121.967 138.876 118.378 138.876 114.073Z" fill="#FFE7BA"/>
<path d="M97.0132 96.7683C97.3061 96.7683 97.5436 97.0058 97.5436 97.2987C97.5436 97.5833 97.3195 97.8155 97.0381 97.8286L97.0132 97.8291H84.8136C84.5207 97.8291 84.2832 97.5917 84.2832 97.2987C84.2832 97.0142 84.5073 96.7819 84.7886 96.7689L84.8136 96.7683H97.0132Z" fill="white"/>
<path d="M99.8684 94.095C97.9986 94.095 96.4829 95.6107 96.4829 97.4805C96.4829 99.3502 97.9986 100.866 99.8684 100.866C101.738 100.866 103.254 99.3502 103.254 97.4805C103.254 95.6107 101.738 94.095 99.8684 94.095ZM99.8684 95.1558C101.152 95.1558 102.193 96.1966 102.193 97.4805C102.193 98.7644 101.152 99.8051 99.8684 99.8051C98.5845 99.8051 97.5437 98.7644 97.5437 97.4805C97.5437 96.1966 98.5845 95.1558 99.8684 95.1558Z" fill="white"/>
<path d="M131.948 126.878C132.241 126.878 132.478 127.115 132.478 127.408C132.478 127.693 132.254 127.925 131.973 127.938L131.948 127.939H119.747C119.454 127.939 119.216 127.701 119.216 127.408C119.216 127.124 119.44 126.891 119.722 126.878L119.747 126.878H131.948Z" fill="white"/>
<path d="M116.893 123.841C115.023 123.841 113.507 125.357 113.507 127.227C113.507 129.096 115.023 130.612 116.893 130.612C118.763 130.612 120.278 129.096 120.278 127.227C120.278 125.357 118.763 123.841 116.893 123.841ZM116.893 124.902C118.177 124.902 119.217 125.943 119.217 127.227C119.217 128.51 118.177 129.551 116.893 129.551C115.609 129.551 114.568 128.51 114.568 127.227C114.568 125.943 115.609 124.902 116.893 124.902Z" fill="white"/>
<path d="M57.3637 158.615C58.627 158.615 59.6512 159.639 59.6512 160.903V172.34H70.9457C72.2091 172.34 73.2332 173.364 73.2332 174.628C73.2332 175.891 72.2091 176.915 70.9457 176.915H59.6512C57.1245 176.915 55.0762 174.867 55.0762 172.34V160.903C55.0762 159.639 56.1003 158.615 57.3637 158.615ZM149.007 176.915C147.743 176.915 146.719 175.891 146.719 174.628C146.719 173.364 147.743 172.34 149.007 172.34H160.301L160.301 160.903C160.301 159.639 161.325 158.615 162.589 158.615C163.852 158.615 164.876 159.639 164.876 160.903V172.34C164.876 174.867 162.828 176.915 160.301 176.915H149.007ZM70.9457 67.1953C72.2091 67.1953 73.2332 68.2195 73.2332 69.4828C73.2332 70.7462 72.2091 71.7703 70.9457 71.7703H59.6512V83.2078C59.6512 84.4712 58.627 85.4953 57.3637 85.4953C56.1003 85.4953 55.0762 84.4712 55.0762 83.2078V71.7703C55.0762 69.2689 57.0837 67.2363 59.5755 67.1959L59.6512 67.1953H70.9457Z" fill="#FF9D00"/>
<path d="M164.876 83.2078C164.876 84.4712 163.852 85.4953 162.589 85.4953C161.325 85.4953 160.301 84.4712 160.301 83.2078V71.7703H149.007C147.743 71.7703 146.719 70.7462 146.719 69.4828C146.719 68.2195 147.743 67.1953 149.007 67.1953H161.064C163.169 67.1953 164.876 68.9022 164.876 71.0078V83.2078Z" fill="#FF9D00"/>
<rect width="76" height="76" transform="translate(0 325)" fill="white" fill-opacity="0.46"/>
<path fill-rule="evenodd" clip-rule="evenodd" d="M13.1641 345.884C13.3915 345.884 13.6159 345.897 13.8369 345.921C13.8369 345.909 13.8364 345.897 13.8364 345.884C13.8364 339.151 19.2952 333.692 26.0289 333.692C31.0215 333.692 35.3125 336.693 37.1981 340.99C37.6763 340.907 38.1678 340.864 38.6695 340.864C43.4228 340.864 47.276 344.717 47.276 349.47C47.276 354.224 43.4228 358.077 38.6695 358.077H13.1641C9.79718 358.077 7.06787 355.347 7.06787 351.981C7.06787 348.614 9.79718 345.884 13.1641 345.884Z" fill="#4E5C93" fill-opacity="0.6"/>
<path fill-rule="evenodd" clip-rule="evenodd" d="M61.936 365.615C61.5477 365.615 61.1646 365.637 60.7875 365.678C60.7875 365.657 60.7883 365.636 60.7883 365.615C60.7883 354.121 51.4708 344.804 39.9772 344.804C31.4553 344.804 24.1311 349.927 20.9127 357.261C20.0965 357.12 19.2575 357.046 18.4011 357.046C10.2879 357.046 3.71094 363.623 3.71094 371.736C3.71094 379.849 10.2879 386.426 18.4011 386.426H61.936C67.6828 386.426 72.3415 381.767 72.3415 376.021C72.3415 370.274 67.6828 365.615 61.936 365.615Z" fill="#E4EBF7"/>
<path fill-rule="evenodd" clip-rule="evenodd" d="M67.0935 381.829C66.9004 381.829 66.7097 381.84 66.5219 381.861C66.5219 381.85 66.5223 381.84 66.5223 381.829C66.5223 376.097 61.8849 371.451 56.1644 371.451C51.9229 371.451 48.2776 374.006 46.6758 377.663C46.2695 377.593 45.852 377.556 45.4257 377.556C41.3877 377.556 38.1143 380.836 38.1143 384.882C38.1143 388.927 41.3877 392.207 45.4257 392.207H67.0935C69.9538 392.207 72.2725 389.884 72.2725 387.018C72.2725 384.152 69.9538 381.829 67.0935 381.829Z" fill="#A3B5D6"/>
<path d="M367.838 341.855C368.956 342.966 370.767 342.966 371.885 341.855C373.002 340.744 373.002 338.944 371.885 337.833C370.767 336.722 368.956 336.722 367.838 337.833C366.721 338.944 366.721 340.745 367.838 341.855Z" fill="#C4C4C4"/>
<path d="M391.911 366.167C393.029 367.278 394.841 367.278 395.958 366.167C397.076 365.056 397.076 363.256 395.958 362.145C394.841 361.034 393.029 361.034 391.911 362.145C390.794 363.256 390.794 365.056 391.911 366.167Z" fill="#C4C4C4"/>
<path d="M375.908 347.966C378.791 345.099 383.467 345.099 386.351 347.966C389.234 350.832 389.234 355.479 386.351 358.345C383.467 361.211 378.791 361.212 375.908 358.345C373.024 355.479 373.024 350.832 375.908 347.966Z" fill="#C4C4C4"/>
<path d="M403 349.67C403 351.241 401.719 352.514 400.139 352.514C398.558 352.514 397.277 351.241 397.277 349.67C397.277 348.099 398.558 346.826 400.139 346.826C401.719 346.826 403 348.099 403 349.67Z" fill="#C4C4C4"/>
<path d="M27.8381 552.855C28.9555 553.966 30.7673 553.966 31.8849 552.855C33.0024 551.744 33.0024 549.944 31.8849 548.833C30.7675 547.722 28.9557 547.722 27.8382 548.833C26.7206 549.944 26.7206 551.745 27.8381 552.855Z" fill="#C4C4C4"/>
<path d="M51.9115 577.167C53.0289 578.278 54.8407 578.278 55.9582 577.167C57.0756 576.056 57.0756 574.256 55.9582 573.145C54.8407 572.034 53.0289 572.034 51.9115 573.145C50.794 574.256 50.794 576.056 51.9115 577.167Z" fill="#C4C4C4"/>
<path d="M35.9076 558.966C38.7914 556.099 43.4669 556.099 46.3506 558.966C49.2344 561.832 49.2344 566.479 46.3506 569.345C43.4668 572.211 38.7913 572.212 35.9075 569.345C33.0238 566.479 33.0238 561.832 35.9076 558.966Z" fill="#C4C4C4"/>
<path d="M63 560.67C63 562.241 61.7189 563.514 60.1385 563.514C58.5582 563.514 57.2771 562.241 57.2771 560.67C57.2771 559.099 58.5582 557.826 60.1385 557.826C61.7189 557.826 63 559.099 63 560.67Z" fill="#C4C4C4"/>
<path d="M473.159 385.751C473.159 383.984 474.599 382.551 476.375 382.551C478.152 382.551 479.592 383.984 479.592 385.751C479.592 385.903 479.716 386.027 479.868 386.027C480.021 386.027 480.145 385.903 480.145 385.751C480.145 383.68 478.457 382 476.375 382C474.293 382 472.605 383.68 472.605 385.751C472.605 387.823 474.293 389.503 476.375 389.503C476.528 389.503 476.652 389.38 476.652 389.228C476.652 389.075 476.528 388.952 476.375 388.952C474.599 388.952 473.159 387.519 473.159 385.751Z" fill="#C4C4C4"/>
<path d="M505.718 383.199C503.941 383.199 502.501 384.633 502.501 386.4C502.501 386.552 502.377 386.676 502.225 386.676C502.072 386.676 501.948 386.552 501.948 386.4C501.948 384.328 503.636 382.649 505.718 382.649C507.8 382.649 509.488 384.328 509.488 386.4C509.488 388.472 507.8 390.152 505.718 390.152C505.565 390.152 505.441 390.028 505.441 389.876C505.441 389.724 505.565 389.601 505.718 389.601C507.494 389.601 508.934 388.168 508.934 386.4C508.934 384.633 507.494 383.199 505.718 383.199Z" fill="#C4C4C4"/>
<path d="M504.108 388.383C504.548 388.737 505.108 388.949 505.718 388.949C507.133 388.949 508.28 387.808 508.28 386.4C508.28 384.992 507.133 383.851 505.718 383.851C504.303 383.851 503.156 384.992 503.156 386.4C503.156 387.003 503.366 387.556 503.717 387.993L500.116 391.725C500.01 391.835 500.013 392.009 500.123 392.114C500.234 392.22 500.409 392.216 500.515 392.106L504.108 388.383Z" fill="#C4C4C4"/>
<path d="M486.768 405.257C488.951 407.429 492.49 407.429 494.673 405.257C496.855 403.085 496.855 399.564 494.673 397.392C492.49 395.22 488.951 395.22 486.768 397.392C484.586 399.564 484.586 403.085 486.768 405.257Z" fill="#C4C4C4"/>
<path fill-rule="evenodd" clip-rule="evenodd" d="M499.124 392.969C494.496 388.355 486.992 388.355 482.364 392.969C477.736 397.584 477.736 405.065 482.364 409.679C486.992 414.294 494.496 414.294 499.124 409.679C503.751 405.065 503.751 397.584 499.124 392.969ZM482.756 393.358C487.167 388.959 494.32 388.959 498.732 393.358C503.144 397.758 503.144 404.891 498.732 409.29C494.32 413.69 487.167 413.69 482.756 409.29C478.343 404.891 478.343 397.758 482.756 393.358Z" fill="#C4C4C4"/>
<path d="M478.937 385.751C478.937 386.37 478.716 386.937 478.347 387.379L482.063 390.929C482.173 391.035 482.177 391.209 482.071 391.319C481.965 391.428 481.79 391.432 481.68 391.326L477.95 387.762C477.516 388.1 476.969 388.301 476.375 388.301C474.961 388.301 473.814 387.159 473.814 385.751C473.814 384.344 474.961 383.202 476.375 383.202C477.79 383.202 478.937 384.344 478.937 385.751Z" fill="#C4C4C4"/>
<path d="M477.379 414.265C476.939 413.911 476.379 413.699 475.77 413.699C474.355 413.699 473.208 414.841 473.208 416.249C473.208 417.656 474.355 418.798 475.77 418.798C477.185 418.798 478.331 417.656 478.331 416.249C478.331 415.646 478.121 415.092 477.769 414.655L481.326 410.97C481.431 410.861 481.428 410.686 481.318 410.581C481.207 410.476 481.032 410.479 480.926 410.589L477.379 414.265Z" fill="#C4C4C4"/>
<path d="M475.77 413.048C473.993 413.048 472.553 414.481 472.553 416.249C472.553 418.016 473.993 419.449 475.77 419.449C477.546 419.449 478.986 418.016 478.986 416.249C478.986 416.097 479.11 415.973 479.263 415.973C479.416 415.973 479.54 416.097 479.54 416.249C479.54 418.32 477.852 420 475.77 420C473.688 420 472 418.32 472 416.249C472 414.177 473.688 412.497 475.77 412.497C475.923 412.497 476.046 412.62 476.046 412.772C476.046 412.925 475.923 413.048 475.77 413.048Z" fill="#C4C4C4"/>
<path d="M503.669 415.507C503.669 414.9 503.882 414.343 504.238 413.905L500.496 410.329C500.386 410.224 500.382 410.05 500.488 409.94C500.594 409.83 500.769 409.827 500.879 409.932L504.63 413.516C505.068 413.167 505.625 412.958 506.23 412.958C507.645 412.958 508.792 414.099 508.792 415.507C508.792 416.915 507.645 418.056 506.23 418.056C504.815 418.056 503.669 416.915 503.669 415.507Z" fill="#C4C4C4"/>
<path d="M506.23 411.756C506.077 411.756 505.954 411.879 505.954 412.031C505.954 412.183 506.077 412.306 506.23 412.306C508.007 412.306 509.447 413.739 509.447 415.507C509.447 417.275 508.007 418.708 506.23 418.708C504.454 418.708 503.014 417.275 503.014 415.507C503.014 415.355 502.89 415.232 502.737 415.232C502.584 415.232 502.46 415.355 502.46 415.507C502.46 417.579 504.148 419.258 506.23 419.258C508.312 419.258 510 417.579 510 415.507C510 413.435 508.312 411.756 506.23 411.756Z" fill="#C4C4C4"/>
<path d="M34.1588 428.751C34.1588 426.984 35.5989 425.551 37.3753 425.551C39.1517 425.551 40.5918 426.984 40.5918 428.751C40.5918 428.903 40.7157 429.027 40.8685 429.027C41.0213 429.027 41.1451 428.903 41.1451 428.751C41.1451 426.68 39.4573 425 37.3753 425C35.2933 425 33.6055 426.68 33.6055 428.751C33.6055 430.823 35.2933 432.503 37.3753 432.503C37.5281 432.503 37.652 432.38 37.652 432.228C37.652 432.075 37.5281 431.952 37.3753 431.952C35.5989 431.952 34.1588 430.519 34.1588 428.751Z" fill="#C4C4C4"/>
<path d="M66.7178 426.199C64.9414 426.199 63.5013 427.633 63.5013 429.4C63.5013 429.552 63.3775 429.676 63.2247 429.676C63.0719 429.676 62.948 429.552 62.948 429.4C62.948 427.328 64.6358 425.649 66.7178 425.649C68.7999 425.649 70.4877 427.328 70.4877 429.4C70.4877 431.472 68.7999 433.152 66.7178 433.152C66.5651 433.152 66.4412 433.028 66.4412 432.876C66.4412 432.724 66.5651 432.601 66.7178 432.601C68.4943 432.601 69.9344 431.168 69.9344 429.4C69.9344 427.633 68.4943 426.199 66.7178 426.199Z" fill="#C4C4C4"/>
<path d="M65.1078 431.383C65.5477 431.737 66.1079 431.949 66.7178 431.949C68.1326 431.949 69.2795 430.808 69.2795 429.4C69.2795 427.992 68.1326 426.851 66.7178 426.851C65.3031 426.851 64.1562 427.992 64.1562 429.4C64.1562 430.003 64.3662 430.556 64.7174 430.993L61.1155 434.725C61.0097 434.835 61.0133 435.009 61.1235 435.114C61.2337 435.22 61.4088 435.216 61.5146 435.106L65.1078 431.383Z" fill="#C4C4C4"/>
<path d="M47.7685 448.257C49.9512 450.429 53.49 450.429 55.6726 448.257C57.8553 446.085 57.8553 442.564 55.6726 440.392C53.49 438.22 49.9512 438.22 47.7685 440.392C45.5858 442.564 45.5858 446.085 47.7685 448.257Z" fill="#C4C4C4"/>
<path fill-rule="evenodd" clip-rule="evenodd" d="M60.1237 435.969C55.4957 431.355 47.992 431.355 43.3639 435.969C38.7362 440.584 38.7362 448.065 43.3639 452.679C47.992 457.294 55.4957 457.294 60.1237 452.679C64.7514 448.065 64.7514 440.584 60.1237 435.969ZM43.7556 436.358C48.1674 431.959 55.3202 431.959 59.7321 436.358C64.1442 440.758 64.1442 447.891 59.7321 452.29C55.3202 456.69 48.1674 456.69 43.7556 452.29C39.3435 447.891 39.3435 440.758 43.7556 436.358Z" fill="#C4C4C4"/>
<path d="M39.937 428.751C39.937 429.37 39.7155 429.937 39.3473 430.379L43.0628 433.929C43.173 434.035 43.1766 434.209 43.0708 434.319C42.9649 434.428 42.7898 434.432 42.6796 434.326L38.9499 430.762C38.5155 431.1 37.969 431.301 37.3753 431.301C35.9605 431.301 34.8136 430.159 34.8136 428.751C34.8136 427.344 35.9605 426.202 37.3753 426.202C38.7901 426.202 39.937 427.344 39.937 428.751Z" fill="#C4C4C4"/>
<path d="M38.3789 457.265C37.9391 456.911 37.3793 456.699 36.7698 456.699C35.3551 456.699 34.2082 457.841 34.2082 459.249C34.2082 460.656 35.3551 461.798 36.7698 461.798C38.1846 461.798 39.3315 460.656 39.3315 459.249C39.3315 458.646 39.1211 458.092 38.7695 457.655L42.3255 453.97C42.4314 453.861 42.4278 453.686 42.3176 453.581C42.2074 453.476 42.0323 453.479 41.9265 453.589L38.3789 457.265Z" fill="#C4C4C4"/>
<path d="M36.7698 456.048C34.9934 456.048 33.5533 457.481 33.5533 459.249C33.5533 461.016 34.9934 462.449 36.7698 462.449C38.5463 462.449 39.9863 461.016 39.9863 459.249C39.9863 459.097 40.1102 458.973 40.263 458.973C40.4158 458.973 40.5396 459.097 40.5396 459.249C40.5396 461.32 38.8519 463 36.7698 463C34.6878 463 33 461.32 33 459.249C33 457.177 34.6878 455.497 36.7698 455.497C36.9226 455.497 37.0465 455.62 37.0465 455.772C37.0465 455.925 36.9226 456.048 36.7698 456.048Z" fill="#C4C4C4"/>
<path d="M64.6685 458.507C64.6685 457.9 64.8817 457.343 65.2377 456.905L61.4961 453.329C61.3859 453.224 61.3823 453.05 61.4882 452.94C61.594 452.83 61.7691 452.827 61.8793 452.932L65.63 456.516C66.0684 456.167 66.6248 455.958 67.2302 455.958C68.6449 455.958 69.7918 457.099 69.7918 458.507C69.7918 459.915 68.6449 461.056 67.2302 461.056C65.8154 461.056 64.6685 459.915 64.6685 458.507Z" fill="#C4C4C4"/>
<path d="M67.2302 454.756C67.0774 454.756 66.9535 454.879 66.9535 455.031C66.9535 455.183 67.0774 455.306 67.2302 455.306C69.0066 455.306 70.4467 456.739 70.4467 458.507C70.4467 460.275 69.0066 461.708 67.2302 461.708C65.4537 461.708 64.0137 460.275 64.0137 458.507C64.0137 458.355 63.8898 458.232 63.737 458.232C63.5842 458.232 63.4604 458.355 63.4604 458.507C63.4604 460.579 65.1481 462.258 67.2302 462.258C69.3122 462.258 71 460.579 71 458.507C71 456.435 69.3122 454.756 67.2302 454.756Z" fill="#C4C4C4"/>
<path fill-rule="evenodd" clip-rule="evenodd" d="M227.417 21.5V19.8446H225.816V21.5H227.417ZM227.417 51.1554H225.816V49.5H227.417V51.1554ZM256.583 51.1554H258.184V49.5H256.583V51.1554ZM225.363 22.3446C225.162 22.3446 225 22.1765 225 21.9692V19.3754C225 19.1681 225.162 19 225.363 19H227.87C228.071 19 228.233 19.1681 228.233 19.3754V21.7207L256.361 48.6554H258.637C258.838 48.6554 259 48.8235 259 49.0308V51.6246C259 51.8319 258.838 52 258.637 52H256.13C255.929 52 255.767 51.8319 255.767 51.6246V50.75H228.233L228.233 51.6246C228.233 51.8319 228.071 52 227.87 52H225.363C225.162 52 225 51.8319 225 51.6246V49.0308C225 48.8235 225.162 48.6554 225.363 48.6554L226.208 48.6554V22.3446C226.208 22.3446 226.208 22.3446 226.208 22.3446L225.363 22.3446ZM227.025 22.3446C227.025 22.3446 227.025 22.3446 227.025 22.3446V48.6554L227.87 48.6554C228.071 48.6554 228.233 48.8235 228.233 49.0308L228.233 49.9054H255.767V49.2376L227.683 22.3446H227.025Z" fill="#C4C4C4"/>
<g clip-path="url(#clip2)">
<path d="M453.637 87.452C454.705 87.847 455.891 87.3011 456.287 86.2327C456.682 85.1643 456.136 83.978 455.067 83.583C453.999 83.1879 452.813 83.7338 452.418 84.8022C452.022 85.8706 452.568 87.0569 453.637 87.452Z" fill="#C4C4C4"/>
<path d="M454.366 85.5679L443.368 115.313" stroke="url(#paint0_linear)" stroke-linecap="square"/>
<path d="M460.626 96.8758C461.694 97.2708 462.88 96.725 463.275 95.6566C463.67 94.5882 463.124 93.4018 462.056 93.0068C460.988 92.6117 459.801 93.1576 459.406 94.226C459.011 95.2944 459.557 96.4807 460.626 96.8758Z" fill="#C4C4C4"/>
<path d="M461.355 94.9917L451.64 121.265" stroke="url(#paint1_linear)" stroke-linecap="square"/>
<path d="M473.715 89.7996C474.784 90.1946 475.97 89.6488 476.365 88.5804C476.76 87.512 476.214 86.3257 475.146 85.9306C474.078 85.5356 472.891 86.0814 472.496 87.1498C472.101 88.2182 472.647 89.4046 473.715 89.7996Z" fill="#C4C4C4"/>
<path d="M474.444 87.9155L462.404 120.477" stroke="url(#paint2_linear)" stroke-linecap="square"/>
<path d="M481.277 97.6722C482.346 98.0672 483.532 97.5213 483.927 96.453C484.322 95.3846 483.776 94.1982 482.708 93.8032C481.64 93.4081 480.453 93.954 480.058 95.0224C479.663 96.0908 480.209 97.2771 481.277 97.6722Z" fill="#C4C4C4"/>
<path d="M482.007 95.7881L469.645 129.22" stroke="url(#paint3_linear)" stroke-linecap="square"/>
</g>
<g clip-path="url(#clip3)">
<path d="M100.122 482.119C101.452 481.683 102.178 480.251 101.742 478.921C101.307 477.59 99.8748 476.865 98.5441 477.3C97.2135 477.736 96.4879 479.168 96.9235 480.498C97.3591 481.829 98.7909 482.554 100.122 482.119Z" fill="#C4C4C4"/>
<path d="M99.3848 479.748L111.512 516.794" stroke="url(#paint4_linear)" stroke-linecap="square"/>
<path d="M114.05 485.856C115.38 485.421 116.106 483.989 115.67 482.658C115.235 481.328 113.803 480.602 112.472 481.038C111.142 481.473 110.416 482.905 110.852 484.236C111.287 485.566 112.719 486.292 114.05 485.856Z" fill="#C4C4C4"/>
<path d="M113.313 483.485L124.025 516.207" stroke="url(#paint5_linear)" stroke-linecap="square"/>
<path d="M121.251 469.044C122.582 468.608 123.307 467.176 122.872 465.846C122.436 464.515 121.004 463.79 119.674 464.225C118.343 464.661 117.617 466.093 118.053 467.423C118.488 468.754 119.92 469.479 121.251 469.044Z" fill="#C4C4C4"/>
<path d="M120.514 466.672L133.79 507.227" stroke="url(#paint6_linear)" stroke-linecap="square"/>
<path d="M134.547 470.849C135.878 470.414 136.604 468.982 136.168 467.651C135.732 466.321 134.301 465.595 132.97 466.031C131.639 466.466 130.914 467.898 131.349 469.229C131.785 470.559 133.217 471.285 134.547 470.849Z" fill="#C4C4C4"/>
<path d="M133.811 468.478L147.441 510.116" stroke="url(#paint7_linear)" stroke-linecap="square"/>
</g>
<path d="M104.532 317H104.529C102.58 317 101 318.666 101 320.72C101 322.775 102.58 324.44 104.529 324.44H104.532C106.481 324.44 108.061 322.775 108.061 320.72C108.061 318.666 106.481 317 104.532 317Z" fill="#C4C4C4"/>
<path d="M104.532 330.28H104.529C102.58 330.28 101 331.945 101 334C101 336.055 102.58 337.72 104.529 337.72H104.532C106.481 337.72 108.061 336.055 108.061 334C108.061 331.945 106.481 330.28 104.532 330.28Z" fill="#C4C4C4"/>
<path d="M104.532 343.56H104.529C102.58 343.56 101 345.225 101 347.28C101 349.334 102.58 351 104.529 351H104.532C106.481 351 108.061 349.334 108.061 347.28C108.061 345.225 106.481 343.56 104.532 343.56Z" fill="#C4C4C4"/>
<path d="M117.002 317H116.998C115.049 317 113.469 318.666 113.469 320.72C113.469 322.775 115.049 324.44 116.998 324.44H117.002C118.951 324.44 120.531 322.775 120.531 320.72C120.531 318.666 118.951 317 117.002 317Z" fill="#C4C4C4"/>
<path d="M117.002 330.28H116.998C115.049 330.28 113.469 331.945 113.469 334C113.469 336.055 115.049 337.72 116.998 337.72H117.002C118.951 337.72 120.531 336.055 120.531 334C120.531 331.945 118.951 330.28 117.002 330.28Z" fill="#C4C4C4"/>
<path d="M117.002 343.56H116.998C115.049 343.56 113.469 345.225 113.469 347.28C113.469 349.334 115.049 351 116.998 351H117.002C118.951 351 120.531 349.334 120.531 347.28C120.531 345.225 118.951 343.56 117.002 343.56Z" fill="#C4C4C4"/>
<path d="M129.471 317H129.468C127.519 317 125.939 318.666 125.939 320.72C125.939 322.775 127.519 324.44 129.468 324.44H129.471C131.42 324.44 133 322.775 133 320.72C133 318.666 131.42 317 129.471 317Z" fill="#C4C4C4"/>
<path d="M129.471 330.28H129.468C127.519 330.28 125.939 331.945 125.939 334C125.939 336.055 127.519 337.72 129.468 337.72H129.471C131.42 337.72 133 336.055 133 334C133 331.945 131.42 330.28 129.471 330.28Z" fill="#C4C4C4"/>
<path d="M129.471 343.56H129.468C127.519 343.56 125.939 345.225 125.939 347.28C125.939 349.334 127.519 351 129.468 351H129.471C131.42 351 133 349.334 133 347.28C133 345.225 131.42 343.56 129.471 343.56Z" fill="#C4C4C4"/>
<path d="M58.8281 628.048L58.672 620.029L108.424 619.061C109.564 619.039 110.506 619.947 110.528 621.09L110.603 624.97C110.626 626.113 109.72 627.058 108.58 627.08L58.8281 628.048Z" fill="#CCD7EE"/>
<path d="M50.6988 622.538L50.7589 625.628L58.8281 628.048L58.672 620.029L50.6988 622.538Z" fill="#A3B5D6"/>
<path d="M47.1541 624.475L50.7612 625.737L50.7011 622.653L47.1438 624.137C47.0735 624.166 47.0286 624.235 47.0309 624.309C47.0332 624.384 47.0821 624.45 47.1541 624.475Z" fill="#253368"/>
<path d="M58.7197 622.497L58.7798 625.581L110.595 624.572L110.535 621.488L58.7197 622.497Z" fill="#CCD7EE"/>
<path d="M116.781 617.201L116.192 614.362C116.113 613.978 116.319 613.611 116.653 613.542L119.786 612.892C120.074 612.832 120.371 613.014 120.494 613.327L121.574 616.064C121.652 616.261 121.65 616.482 121.568 616.667C121.487 616.852 121.335 616.981 121.154 617.019L117.53 617.77C117.196 617.84 116.861 617.585 116.781 617.201Z" fill="#A3B5D6"/>
<path d="M110.178 621.816L108.298 612.754L69.6349 620.774L71.5146 629.836L110.178 621.816Z" fill="#A3B5D6"/>
<path d="M75.0718 619.646L76.9514 628.708L64.4244 631.307C63.3356 631.532 62.2746 630.856 62.0546 629.796L60.9714 624.574C60.7515 623.513 61.4559 622.471 62.5448 622.245L75.0718 619.646Z" fill="#253368"/>
<path d="M110.178 621.816L108.298 612.754L105.277 613.381L107.157 622.443L110.178 621.816Z" fill="#253368"/>
<path d="M112.298 621.376L110.178 621.816L108.298 612.754L110.434 612.311L117.263 613.445L118.07 617.336L112.298 621.376Z" fill="#CCD7EE"/>
<path d="M112.594 621.315L110.714 612.253L108.297 612.754L110.177 621.816L112.594 621.315Z" fill="#E4EBF7"/>
<path d="M73.3264 629.46L71.4468 620.398L69.6345 620.774L71.5141 629.836L73.3264 629.46Z" fill="#E4EBF7"/>
<path d="M97.8256 622.488C96.6997 622.721 96.1911 622.312 96.314 621.256C96.437 620.199 97.0809 619.536 98.2428 619.295L99.1852 619.099C99.3287 619.069 99.4378 618.952 99.4575 618.807L99.659 617.303C99.6786 617.157 99.7877 617.04 99.9312 617.01L100.003 616.995C100.113 616.972 100.227 617.004 100.309 617.081C100.392 617.158 100.431 617.27 100.416 617.381L99.7968 621.843C99.7765 621.988 99.6673 622.104 99.5242 622.134L97.8256 622.488ZM99.2628 620.26C99.2779 620.149 99.238 620.037 99.1559 619.96C99.0739 619.884 98.9598 619.852 98.8501 619.875L98.1966 620.011C97.851 620.083 97.5897 620.207 97.4139 620.371C97.2382 620.535 97.1313 620.782 97.0937 621.094C97.056 621.406 97.1163 621.604 97.2574 621.702C97.3984 621.801 97.6414 621.82 97.9765 621.751L98.8543 621.569C98.9978 621.539 99.107 621.422 99.1266 621.276L99.2628 620.26Z" fill="white"/>
<path d="M92.2061 623.198C92.2212 623.047 92.3357 622.921 92.4883 622.89L94.6625 622.439C94.8119 622.406 94.9243 622.284 94.9416 622.136L95.0228 621.427C95.0358 621.317 94.9944 621.208 94.9115 621.134C94.8285 621.06 94.714 621.03 94.6032 621.052L93.001 621.384C92.8909 621.407 92.7768 621.378 92.6933 621.305C92.6099 621.233 92.5669 621.126 92.5775 621.016C92.5929 620.864 92.7077 620.739 92.8605 620.707L94.9094 620.282C95.0587 620.25 95.1712 620.129 95.1886 619.98L95.2938 619.14C95.3064 619.03 95.2649 618.922 95.1821 618.848C95.0992 618.774 94.9849 618.743 94.8742 618.765L92.9507 619.164C92.8407 619.187 92.7266 619.158 92.6432 619.085C92.5599 619.012 92.5171 618.905 92.5281 618.796C92.5432 618.644 92.6577 618.519 92.8103 618.487L95.7672 617.874C95.8782 617.851 95.993 617.882 96.076 617.956C96.159 618.03 96.2003 618.139 96.187 618.249L95.6558 622.694C95.6383 622.842 95.5257 622.964 95.3764 622.996L92.6343 623.564C92.5239 623.589 92.4087 623.561 92.3241 623.488C92.2395 623.416 92.1957 623.308 92.2061 623.198Z" fill="white"/>
<path d="M90.5176 624.004C90.3852 624.031 90.2487 623.97 90.1739 623.849L88.3017 620.826L88.2768 620.831L88.0969 624.247C88.0886 624.402 87.9834 624.529 87.8396 624.559L87.77 624.574C87.6701 624.594 87.5658 624.565 87.4877 624.493C87.4097 624.422 87.3669 624.317 87.3719 624.21L87.5833 619.832C87.5907 619.677 87.6959 619.548 87.8402 619.518L88.105 619.463C88.2382 619.434 88.3766 619.495 88.4524 619.616L90.367 622.68L90.392 622.675L90.6225 619.191C90.6339 619.04 90.7385 618.917 90.8799 618.888L90.9593 618.871C91.0606 618.85 91.1663 618.881 91.2446 618.954C91.3228 619.028 91.3644 619.135 91.3568 619.243L91.0425 623.643C91.0306 623.794 90.9262 623.917 90.7851 623.946L90.5176 624.004Z" fill="white"/>
<path d="M84.4617 621.479C84.6957 621.431 84.8293 621.121 84.7601 620.787C84.6909 620.454 84.4451 620.223 84.211 620.271L80.8297 620.973C80.5957 621.021 80.4621 621.331 80.5313 621.665C80.6005 621.998 80.8463 622.229 81.0804 622.181L84.4617 621.479Z" fill="#4E5C93"/>
<path d="M121.682 630.766L121.605 627.066L124.373 627.008C125.229 626.99 125.94 627.805 125.961 628.827C125.983 629.849 125.306 630.691 124.45 630.709L121.682 630.767L121.682 630.766Z" fill="#253368"/>
<path d="M78.3946 629.819C78.093 629.825 77.8513 629.969 77.8549 630.139C77.8584 630.309 78.1059 630.442 78.4075 630.436L79.7825 630.407C80.0841 630.401 80.3258 630.258 80.3222 630.087C80.3187 629.917 80.0713 629.784 79.7696 629.79L78.3946 629.819Z" fill="#253368"/>
<path d="M84.6851 632.156L84.5821 627.222L121.255 626.456C122.122 626.438 122.841 627.134 122.859 628.009L122.896 629.773C122.914 630.649 122.225 631.373 121.358 631.391L84.6851 632.156Z" fill="#4E5C93"/>
<path d="M79.2551 629.166L84.5823 627.222L84.6853 632.156L79.2875 630.517C79.1727 630.482 79.0943 630.384 79.0921 630.271L79.0743 629.42C79.0706 629.309 79.143 629.207 79.2551 629.166Z" fill="#CCD7EE"/>
<path d="M119.125 626.501L119.228 631.436L119.844 631.423L119.741 626.488L119.125 626.501Z" fill="white"/>
<path d="M112.93 625.396L112.956 626.63L119.124 626.501L119.099 625.267L112.93 625.396Z" fill="#253368"/>
<path d="M107.351 624.895C107.019 624.902 106.755 625.184 106.763 625.525C106.77 625.865 107.045 626.136 107.377 626.129L122.212 625.82C122.544 625.813 122.807 625.531 122.8 625.19C122.793 624.85 122.518 624.579 122.186 624.586L107.351 624.895Z" fill="#A3B5D6"/>
<path d="M451.023 524.095C451.023 524.406 451.263 524.658 451.56 524.658C451.856 524.658 452.096 524.406 452.096 524.095V516.584C452.096 516.273 451.856 516.021 451.56 516.021C451.263 516.021 451.023 516.273 451.023 516.584V524.095Z" fill="#597EF7"/>
<path d="M445.372 525.923C445.478 526.105 445.669 526.207 445.867 526.207C445.963 526.207 446.061 526.182 446.151 526.131C446.424 525.974 446.518 525.627 446.36 525.356L442.557 518.806C442.399 518.535 442.051 518.442 441.777 518.599C441.505 518.755 441.411 519.102 441.569 519.373L445.372 525.923Z" fill="#597EF7"/>
<path d="M441.639 530.437C441.543 530.437 441.445 530.412 441.356 530.36L434.806 526.557C434.535 526.399 434.442 526.05 434.599 525.778C434.755 525.505 435.102 525.411 435.373 525.569L441.923 529.372C442.195 529.529 442.288 529.878 442.131 530.151C442.026 530.334 441.835 530.437 441.639 530.437Z" fill="#597EF7"/>
<path d="M432.584 536.096H440.095C440.406 536.096 440.658 535.856 440.658 535.56C440.658 535.263 440.406 535.023 440.095 535.023H432.584C432.273 535.023 432.021 535.263 432.021 535.56C432.021 535.856 432.273 536.096 432.584 536.096Z" fill="#597EF7"/>
<path d="M435.09 545.508C434.894 545.508 434.704 545.406 434.599 545.222C434.442 544.95 434.535 544.601 434.806 544.443L441.356 540.64C441.627 540.482 441.974 540.576 442.131 540.849C442.288 541.122 442.195 541.471 441.923 541.628L435.373 545.431C435.284 545.483 435.187 545.508 435.09 545.508Z" fill="#597EF7"/>
<path d="M441.778 552.401C441.867 552.453 441.965 552.478 442.062 552.478C442.259 552.478 442.451 552.376 442.557 552.194L446.36 545.644C446.518 545.373 446.424 545.026 446.151 544.869C445.878 544.712 445.529 544.805 445.372 545.077L441.569 551.627C441.411 551.898 441.505 552.245 441.778 552.401Z" fill="#597EF7"/>
<path d="M451.56 554.979C451.263 554.979 451.023 554.727 451.023 554.416V546.905C451.023 546.594 451.263 546.342 451.56 546.342C451.856 546.342 452.096 546.594 452.096 546.905V554.416C452.096 554.727 451.856 554.979 451.56 554.979Z" fill="#597EF7"/>
<path d="M460.443 552.194C460.549 552.376 460.741 552.478 460.938 552.478C461.035 552.478 461.133 552.453 461.222 552.401C461.495 552.245 461.589 551.898 461.431 551.627L457.628 545.077C457.471 544.805 457.122 544.712 456.849 544.869C456.576 545.026 456.482 545.373 456.64 545.644L460.443 552.194Z" fill="#597EF7"/>
<path d="M467.91 545.508C467.813 545.508 467.716 545.483 467.627 545.431L461.077 541.628C460.805 541.471 460.712 541.122 460.869 540.849C461.026 540.576 461.373 540.482 461.644 540.64L468.194 544.443C468.465 544.601 468.558 544.95 468.401 545.222C468.296 545.405 468.106 545.508 467.91 545.508Z" fill="#597EF7"/>
<path d="M462.905 536.096H470.416C470.727 536.096 470.979 535.856 470.979 535.56C470.979 535.263 470.727 535.023 470.416 535.023H462.905C462.594 535.023 462.342 535.263 462.342 535.56C462.342 535.856 462.594 536.096 462.905 536.096Z" fill="#597EF7"/>
<path d="M461.361 530.437C461.165 530.437 460.974 530.334 460.869 530.151C460.712 529.878 460.805 529.529 461.077 529.372L467.627 525.569C467.898 525.411 468.245 525.505 468.401 525.777C468.558 526.05 468.465 526.399 468.194 526.557L461.644 530.36C461.555 530.412 461.457 530.437 461.361 530.437Z" fill="#597EF7"/>
<path d="M456.849 526.131C456.939 526.182 457.037 526.207 457.133 526.207C457.331 526.207 457.522 526.105 457.628 525.923L461.431 519.373C461.589 519.102 461.495 518.755 461.223 518.599C460.949 518.442 460.601 518.535 460.443 518.806L456.64 525.356C456.482 525.627 456.576 525.974 456.849 526.131Z" fill="#597EF7"/>
<path fill-rule="evenodd" clip-rule="evenodd" d="M485.283 448.528L476.182 465.134L459.543 474.216L459.542 474.217L476.182 483.3L485.283 499.907L494.384 483.3L511.025 474.217L511.023 474.216L494.384 465.134L485.284 448.528L485.283 448.527L485.283 448.528Z" fill="#125E8A" fill-opacity="0.62"/>
<g opacity="0.6">
<path fill-rule="evenodd" clip-rule="evenodd" d="M284.171 550.741L306.139 516.72C305.444 516.154 305 515.291 305 514.324C305 512.619 306.382 511.236 308.088 511.236C309.793 511.236 311.176 512.619 311.176 514.324C311.176 515.471 310.55 516.472 309.622 517.005L326.141 554.805C326.494 554.665 326.879 554.588 327.281 554.588C328.987 554.588 330.369 555.97 330.369 557.676C330.369 559.381 328.987 560.764 327.281 560.764C325.638 560.764 324.294 559.48 324.199 557.861L285.812 554.08C285.54 555.507 284.286 556.586 282.779 556.586C281.074 556.586 279.691 555.203 279.691 553.498C279.691 551.793 281.074 550.41 282.779 550.41C283.28 550.41 283.753 550.529 284.171 550.741ZM308.088 517.412C308.21 517.412 308.331 517.405 308.449 517.391L313.277 540.036C312.055 540.448 311.176 541.603 311.176 542.963C311.176 543.259 311.217 543.546 311.295 543.817L285.596 552.231C285.389 551.772 285.074 551.373 284.682 551.066L306.644 517.054C307.075 517.283 307.566 517.412 308.088 517.412ZM311.52 544.38L285.789 552.805C285.839 553.021 285.866 553.246 285.867 553.477L324.222 557.254C324.3 556.682 324.535 556.16 324.882 555.732L315.946 545.553C315.462 545.868 314.884 546.051 314.264 546.051C313.069 546.051 312.033 545.373 311.52 544.38ZM316.419 545.174L325.308 555.3C325.402 555.223 325.5 555.15 325.602 555.084L309.07 517.253C309.06 517.256 309.05 517.259 309.041 517.262L313.867 539.9C313.997 539.884 314.129 539.875 314.264 539.875C315.969 539.875 317.352 541.257 317.352 542.963C317.352 543.83 316.994 544.613 316.419 545.174Z" fill="#C4C4C4"/>
</g>
<defs>
<linearGradient id="paint0_linear" x1="443.686" y1="115.429" x2="454.692" y2="85.6644" gradientUnits="userSpaceOnUse">
<stop stop-color="#C4C4C4"/>
<stop offset="1" stop-color="#979797"/>
</linearGradient>
<linearGradient id="paint1_linear" x1="451.438" y1="121.194" x2="461.16" y2="94.9025" gradientUnits="userSpaceOnUse">
<stop stop-color="#C4C4C4"/>
<stop offset="1" stop-color="#979797"/>
</linearGradient>
<linearGradient id="paint2_linear" x1="462.596" y1="120.572" x2="474.642" y2="87.9934" gradientUnits="userSpaceOnUse">
<stop stop-color="#C4C4C4"/>
<stop offset="1" stop-color="#979797"/>
</linearGradient>
<linearGradient id="paint3_linear" x1="469.443" y1="129.151" x2="481.813" y2="95.6949" gradientUnits="userSpaceOnUse">
<stop stop-color="#C4C4C4"/>
<stop offset="1" stop-color="#979797"/>
</linearGradient>
<linearGradient id="paint4_linear" x1="111.834" y1="516.687" x2="99.6985" y2="479.616" gradientUnits="userSpaceOnUse">
<stop stop-color="#C4C4C4"/>
<stop offset="1" stop-color="#979797"/>
</linearGradient>
<linearGradient id="paint5_linear" x1="123.823" y1="516.278" x2="113.103" y2="483.533" gradientUnits="userSpaceOnUse">
<stop stop-color="#C4C4C4"/>
<stop offset="1" stop-color="#979797"/>
</linearGradient>
<linearGradient id="paint6_linear" x1="134.001" y1="507.187" x2="120.718" y2="466.611" gradientUnits="userSpaceOnUse">
<stop stop-color="#C4C4C4"/>
<stop offset="1" stop-color="#979797"/>
</linearGradient>
<linearGradient id="paint7_linear" x1="147.24" y1="510.189" x2="133.599" y2="468.521" gradientUnits="userSpaceOnUse">
<stop stop-color="#C4C4C4"/>
<stop offset="1" stop-color="#979797"/>
</linearGradient>
<clipPath id="clip0">
<rect width="55" height="54" fill="white" transform="translate(304 161.687) rotate(-12.2681)"/>
</clipPath>
<clipPath id="clip1">
<rect width="55" height="54" fill="white" transform="translate(279 348.687) rotate(-12.2681)"/>
</clipPath>
<clipPath id="clip2">
<rect width="48" height="48" fill="white" transform="translate(449.813 71.1663) rotate(20.292)"/>
</clipPath>
<clipPath id="clip3">
<rect width="59" height="59" fill="white" transform="translate(84 469.356) rotate(-18.1264)"/>
</clipPath>
</defs>
</svg>
