<svg width="253" height="259" viewBox="0 0 253 259" fill="none" xmlns="http://www.w3.org/2000/svg">
<circle cx="126.5" cy="126.5" r="126.5" fill="#FF9D00"/>
<path fill-rule="evenodd" clip-rule="evenodd" d="M158.389 143.936C139.65 171.983 114.438 155.634 108.044 148.336C100.803 140.07 91.7236 141.104 88.9646 131.002C85.8088 119.444 94.6358 112.06 92.9115 106.894C87.74 86.9198 101.966 94.096 99.7681 81.7545C96.0943 61.1298 99.2623 61.5311 108.044 46.8558C118.517 29.3514 129.651 37.4828 129.651 37.4828C129.651 37.4828 145.052 33.7693 151.947 54.4331C153.195 58.1686 158.269 60.4021 158.384 69.8154C158.677 93.8013 171.671 95.6984 174.245 112.06C176.933 129.142 164.595 134.292 158.389 143.936Z" fill="#253368"/>
<path fill-rule="evenodd" clip-rule="evenodd" d="M148.564 73.1353C149.506 67.2043 145.109 67.8599 145.109 67.8599C145.109 67.8599 142.983 74.027 142.825 79.0174C149.035 79.0785 148.564 73.1353 148.564 73.1353Z" fill="#F4B784"/>
<path fill-rule="evenodd" clip-rule="evenodd" d="M106.002 73.1353C105.062 67.2043 110.683 67.8599 110.683 67.8599C110.683 67.8599 112.808 74.027 112.966 79.0174C106.756 79.0785 106.002 73.1353 106.002 73.1353Z" fill="#F4B784"/>
<path fill-rule="evenodd" clip-rule="evenodd" d="M128.032 115.108C122.574 115.108 118.212 110.575 117.203 105.129L118.032 84.1138H136.807L137.637 105.129C137.852 110.575 133.489 115.108 128.032 115.108Z" fill="#F4B784"/>
<path d="M128.584 84.7301C128.843 84.7128 129.067 84.9084 129.084 85.1668C129.1 85.3995 128.943 85.6038 128.723 85.6549L128.647 85.6661L127.015 85.775C126.756 85.7922 126.532 85.5967 126.515 85.3382C126.499 85.1056 126.656 84.9013 126.876 84.8501L126.952 84.8389L128.584 84.7301Z" fill="#DD936F"/>
<path fill-rule="evenodd" clip-rule="evenodd" d="M144.599 71.939C143.098 85.1979 137.035 93.4639 127.704 93.4639C118.373 93.4639 111.833 83.7827 110.808 71.939C109.095 52.1375 118.373 46.626 127.704 46.626C137.035 46.626 146.893 51.6825 144.599 71.939Z" fill="#FFC999"/>
<path fill-rule="evenodd" clip-rule="evenodd" d="M146.661 56.4992C144.591 48.4888 140.685 40.427 128.96 42.4942C114.824 34.9168 93.012 66.8996 106.203 68.2829C118.617 69.5856 117.18 59.8836 119.806 53.5147C122.22 47.6595 126.662 54.2033 126.662 54.2033C126.662 54.2033 129.116 51.4476 131.874 52.4811C136.497 54.2119 131.489 63.3867 143.212 69.1269C144.64 69.8253 143.408 77.8027 143.903 77.163C146.202 74.1773 148.729 64.5059 146.661 56.4992Z" fill="#253368"/>
<path d="M114.585 60.7174L122.861 62.1742C123.194 62.2328 123.417 62.55 123.358 62.8826C123.304 63.1875 123.033 63.3996 122.732 63.3876L122.649 63.3787L114.373 61.922C114.04 61.8634 113.817 61.5462 113.876 61.2135C113.93 60.9086 114.201 60.6966 114.503 60.7085L114.585 60.7174Z" fill="#253368"/>
<path d="M140.393 61.1706C140.73 61.1369 141.03 61.382 141.064 61.7181C141.095 62.0261 140.891 62.3037 140.598 62.3738L140.516 62.3876L130.556 63.3857C130.219 63.4194 129.919 63.1743 129.885 62.8383C129.854 62.5302 130.058 62.2526 130.351 62.1825L130.434 62.1687L140.393 61.1706Z" fill="#253368"/>
<path d="M123.717 63.4153C123.932 63.3225 124.177 63.4016 124.299 63.5916L124.335 63.659L125.599 66.5689C125.618 66.6125 125.63 66.6587 125.635 66.7058L125.637 66.7769L125.193 76.5132L127.577 77.5345C127.792 77.6263 127.902 77.8589 127.848 78.0781L127.824 78.1504C127.732 78.3647 127.499 78.4755 127.279 78.4211L127.207 78.3968L124.524 77.2483C124.367 77.1809 124.26 77.0344 124.242 76.8681L124.24 76.7957L124.694 66.8422L123.473 64.0323C123.381 63.8184 123.46 63.5733 123.65 63.4512L123.717 63.4153Z" fill="#DD936F"/>
<path d="M118.617 66.4873C120.317 66.4873 121.643 68.0959 121.643 70.0271C121.643 70.3648 121.369 70.6387 121.031 70.6387C120.693 70.6387 120.419 70.3648 120.419 70.0271C120.419 68.7247 119.583 67.7104 118.617 67.7104C117.651 67.7104 116.816 68.7241 116.816 70.0271C116.816 70.3648 116.542 70.6387 116.204 70.6387C115.865 70.6387 115.591 70.3648 115.591 70.0271C115.591 68.0954 116.917 66.4873 118.617 66.4873Z" fill="#253368"/>
<path d="M135.168 66.4873C136.868 66.4873 138.194 68.0954 138.194 70.0271C138.194 70.3648 137.919 70.6387 137.581 70.6387C137.243 70.6387 136.969 70.3648 136.969 70.0271C136.969 68.7241 136.134 67.7104 135.168 67.7104C134.202 67.7104 133.366 68.7241 133.366 70.0271C133.366 70.3648 133.092 70.6387 132.754 70.6387C132.416 70.6387 132.142 70.3648 132.142 70.0271C132.142 68.0954 133.467 66.4873 135.168 66.4873Z" fill="#253368"/>
<path d="M122.384 80.4925C122.479 80.986 122.741 81.6843 123.262 82.3855C124.136 83.5632 125.452 84.2766 127.237 84.2766C129.163 84.2766 130.516 83.6131 131.342 82.4997C131.844 81.8232 132.054 81.1471 132.1 80.6632C132.133 80.3044 131.851 79.9944 131.49 79.9944L130.608 79.991C129.318 79.9814 127.952 79.9521 126.564 79.9083L124.906 79.8497L123.017 79.7665C122.62 79.746 122.309 80.1027 122.384 80.4925ZM123.889 81.0765L123.867 81.0298L124.858 81.0719C125.126 81.0824 125.402 81.0928 125.686 81.1028L126.526 81.1309C127.644 81.1661 128.747 81.192 129.81 81.206L130.68 81.2149L130.663 81.2571C130.582 81.433 130.481 81.606 130.359 81.7713C129.766 82.5698 128.78 83.0535 127.237 83.0535C125.855 83.0535 124.897 82.534 124.245 81.6568C124.107 81.4704 123.988 81.2752 123.889 81.0765Z" fill="#C44343"/>
<path d="M128.617 86.314C128.876 86.314 129.086 86.524 129.086 86.7831C129.086 87.0162 128.916 87.2096 128.693 87.246L128.617 87.2521H126.203C125.944 87.2521 125.733 87.0421 125.733 86.7831C125.733 86.5499 125.904 86.3565 126.127 86.3201L126.203 86.314H128.617Z" fill="#DD936F"/>
<path fill-rule="evenodd" clip-rule="evenodd" d="M145.823 77.3353C145.716 76.9977 145.236 77.0075 145.144 77.3488C144.326 80.3675 142.421 88.4953 145.579 88.6861C149.14 88.9026 146.792 80.4164 145.823 77.3353Z" fill="white"/>
<path fill-rule="evenodd" clip-rule="evenodd" d="M110.039 77.3353C109.932 76.9977 109.452 77.0075 109.36 77.3488C108.542 80.3675 106.637 88.4953 109.795 88.6861C113.356 88.9026 111.007 80.4164 110.039 77.3353Z" fill="white"/>
<path fill-rule="evenodd" clip-rule="evenodd" d="M62.8431 180.701C57.8847 177.397 56.5364 170.557 59.7681 165.112L85.7323 119.626C90.0393 112.372 96.5028 108.697 103.107 113.099C109.635 117.448 108.58 127.119 103.696 133.875L78.5549 177.386C74.799 182.582 67.8628 184.045 62.8431 180.701Z" fill="#FFC999"/>
<path fill-rule="evenodd" clip-rule="evenodd" d="M92.5433 153.222L73.9243 138.413L85.3022 117.749C90.8705 107.687 97.7332 108.188 106.436 109.693L106.038 110.116C113.098 114.311 113.467 126.4 109.143 133.376L92.5433 153.222Z" fill="#597EF7"/>
<path fill-rule="evenodd" clip-rule="evenodd" d="M98.3486 188.482L100.02 200.645C100.02 200.645 68.3396 189.666 60.9319 180.637C48.9111 165.986 73.3311 162.184 73.3311 162.184L98.3486 188.482Z" fill="#FFC999"/>
<path d="M72.2007 163.253C74.7197 163.253 77.0534 164.718 79.1522 167.145C79.8799 167.987 80.5272 168.887 81.0872 169.787C81.2343 170.024 81.3674 170.248 81.4862 170.456L81.6922 170.828C81.7315 170.901 81.7607 170.958 81.7796 170.995C81.854 171.144 81.7937 171.325 81.6449 171.399C81.4961 171.473 81.3151 171.413 81.2407 171.265L81.16 171.11L81.0726 170.95C80.932 170.695 80.7659 170.411 80.5755 170.105C80.0311 169.23 79.4016 168.354 78.6962 167.539C76.7006 165.231 74.5089 163.855 72.2007 163.855C72.0343 163.855 71.8994 163.72 71.8994 163.554C71.8994 163.388 72.0343 163.253 72.2007 163.253Z" fill="#DD936F"/>
<path d="M73.5648 138.127C73.7053 137.951 73.9492 137.905 74.141 138.008L74.2102 138.054L92.4675 152.575L94.0789 150.527C94.2182 150.35 94.4618 150.303 94.6542 150.405L94.7237 150.45C94.901 150.589 94.948 150.832 94.8462 151.025L94.801 151.094L92.9041 153.505C92.7642 153.683 92.5192 153.729 92.3265 153.626L92.257 153.58L73.638 138.772C73.4396 138.614 73.4069 138.325 73.5648 138.127Z" fill="#253368"/>
<path fill-rule="evenodd" clip-rule="evenodd" d="M192.016 180.725C196.806 177.183 197.818 170.284 194.323 165.005L168.224 120.457C163.568 113.424 154.866 110.454 148.485 115.173C142.178 119.837 143.706 129.445 148.916 135.954L176.16 178.182C180.166 183.188 187.166 184.311 192.016 180.725Z" fill="#FFC999"/>
<path fill-rule="evenodd" clip-rule="evenodd" d="M160.639 154.207L179.259 139.399L167.88 118.736C163.807 111.609 153.149 107.645 147.458 112.969L147.145 111.101C140.084 115.297 139.716 127.385 144.041 134.362L160.639 154.207Z" fill="#597EF7"/>
<path fill-rule="evenodd" clip-rule="evenodd" d="M172.025 238.865C172.025 238.865 170.565 210.625 151.639 195.888L101.054 195.701C101.054 195.701 83.6377 211.207 83.6377 240.242C83.6377 240.242 92.483 241.947 102.756 248.623C109.457 252.977 116.948 258.954 128.656 258.954C140.592 258.954 146.854 253.528 153.635 249.082C163.703 242.482 172.025 238.865 172.025 238.865Z" fill="#E4EBF7"/>
<path fill-rule="evenodd" clip-rule="evenodd" d="M100.803 196.172L151.806 195.888L149.558 188.367L103.39 188.419L100.803 196.172Z" fill="#E4EBF7"/>
<path d="M150.202 187.95C150.461 187.95 150.671 188.16 150.671 188.419C150.671 188.652 150.501 188.846 150.278 188.882L150.202 188.888H102.684C102.425 188.888 102.215 188.678 102.215 188.419C102.215 188.186 102.385 187.993 102.608 187.956L102.684 187.95H150.202Z" fill="#DD936F"/>
<path d="M150.184 195.308C150.437 195.308 150.643 195.513 150.643 195.767C150.643 195.995 150.476 196.184 150.258 196.219L150.184 196.225H102.358C102.104 196.225 101.898 196.02 101.898 195.767C101.898 195.539 102.065 195.35 102.283 195.314L102.358 195.308H150.184Z" fill="#A3B5D6"/>
<path d="M127.047 187.78C127.275 187.78 127.464 187.947 127.5 188.165L127.506 188.239V256.508C127.506 256.761 127.3 256.966 127.047 256.966C126.818 256.966 126.629 256.8 126.593 256.582L126.587 256.508V188.239C126.587 187.986 126.793 187.78 127.047 187.78Z" fill="#A3B5D6"/>
<path d="M119.096 110.242L135.593 110.973C135.846 110.984 136.043 111.198 136.031 111.451C136.021 111.679 135.846 111.861 135.627 111.886L135.552 111.889L119.056 111.159C118.802 111.147 118.606 110.933 118.617 110.68C118.627 110.452 118.802 110.271 119.022 110.245L119.096 110.242Z" fill="#253368"/>
<path d="M97.0532 127.952C97.1621 127.724 97.436 127.626 97.6651 127.735C97.8942 127.844 97.9917 128.117 97.8828 128.346L97.7348 128.674L97.5838 129.026C97.5314 129.151 97.477 129.283 97.4208 129.422L97.3351 129.635C96.92 130.681 96.5046 131.867 96.1167 133.168C94.7118 137.881 94.0329 142.795 94.4768 147.564C94.8327 151.384 96.0864 154.478 99.1469 159.497L99.3923 159.898L99.4535 160.059L100.039 163.343L100.418 165.451C100.609 166.501 100.798 167.542 100.986 168.562L101.805 172.961C102.525 176.763 103.063 179.409 103.352 180.493C103.382 180.609 103.367 180.732 103.308 180.836C101.621 183.834 102.845 187.654 104.496 188.043L104.592 188.061L148.762 188.061L148.902 187.972L148.985 187.915C149.235 187.738 149.487 187.515 149.722 187.244C150.966 185.812 151.268 183.727 149.996 180.793C149.96 180.709 149.949 180.615 149.967 180.525L150.452 177.975C151.239 173.795 151.915 169.964 152.485 166.521L152.756 164.863C152.909 163.917 153.044 163.054 153.163 162.277L153.422 160.533C153.432 160.463 153.459 160.395 153.499 160.336C157.194 154.989 158.816 150.758 159.074 146.032C159.308 141.724 158.519 137.439 157.06 133.406C156.61 132.164 156.129 131.038 155.648 130.051L155.453 129.658C155.39 129.534 155.329 129.417 155.271 129.307L155.015 128.841C154.886 128.622 154.959 128.341 155.178 128.213C155.396 128.084 155.678 128.157 155.806 128.375L155.943 128.619L155.993 128.711C156.11 128.926 156.236 129.17 156.371 129.441L156.474 129.65C156.968 130.665 157.463 131.82 157.924 133.094C159.422 137.234 160.232 141.638 159.991 146.082C159.73 150.864 158.125 155.154 154.542 160.438L154.317 160.767L154.129 162.033C153.959 163.158 153.751 164.479 153.504 165.986L153.157 168.071C152.558 171.623 151.851 175.558 151.034 179.837L150.895 180.561L150.956 180.706C152.191 183.731 151.872 186.053 150.54 187.697L150.416 187.845C149.925 188.411 149.429 188.762 149.079 188.932C149.038 188.953 148.993 188.966 148.948 188.973L148.878 188.979L104.523 188.974C102.137 188.616 100.608 184.27 102.312 180.759L102.417 180.551L102.268 179.923C101.956 178.562 101.493 176.247 100.91 173.172L100.453 170.737L99.8941 167.7C99.7052 166.667 99.5146 165.616 99.3245 164.561L98.5645 160.304L98.3596 159.97C95.3165 154.979 94.0031 151.803 93.5935 147.962L93.5623 147.649C93.1063 142.75 93.8006 137.723 95.2364 132.906C95.6323 131.578 96.0566 130.367 96.4813 129.297L96.6548 128.868C96.7109 128.732 96.765 128.604 96.817 128.483L97.0057 128.055C97.0253 128.012 97.0413 127.978 97.0532 127.952Z" fill="#253368"/>
<path d="M152.981 145.255C153.234 145.255 153.44 145.46 153.44 145.714C153.44 145.942 153.273 146.131 153.055 146.166L152.981 146.172H98.5027C98.2491 146.172 98.0435 145.967 98.0435 145.714C98.0435 145.486 98.21 145.296 98.4282 145.261L98.5027 145.255H152.981Z" fill="#253368"/>
<path fill-rule="evenodd" clip-rule="evenodd" d="M153.211 187.153L150.57 199.794C150.57 199.794 184.616 190.58 193.048 181.646C206.733 167.147 181.383 161.376 181.383 161.376L153.211 187.153Z" fill="#FFC999"/>
<path fill-rule="evenodd" clip-rule="evenodd" d="M146.814 185.805C146.814 185.805 151.939 178.184 154.153 177.953C157.585 177.596 156.677 184.58 156.677 184.58C156.677 184.58 159.943 185.866 158.747 189.571C160.628 192.526 159.177 194.439 159.177 194.439C159.177 194.439 161.561 196.483 159.315 199.023C157.07 201.561 150.898 202.255 150.918 197.87C148.002 196.05 149.517 193.318 149.517 193.318C149.517 193.318 147.29 191.471 148.826 188.848C146.85 188.22 146.286 186.605 146.814 185.805Z" fill="#FFC999"/>
<path d="M154.271 183.546C154.395 183.434 154.585 183.444 154.697 183.568C154.792 183.674 154.798 183.829 154.72 183.941L154.674 183.993L149.028 189.072C148.904 189.184 148.714 189.174 148.602 189.05C148.507 188.944 148.501 188.789 148.579 188.677L148.625 188.625L154.271 183.546Z" fill="#DD936F"/>
<path d="M154.181 177.653C155.963 177.817 156.874 179.16 157.113 181.224C157.216 182.113 157.187 183.058 157.075 183.967L157.037 184.249L157.009 184.434L157.226 184.587C157.517 184.802 157.807 185.053 158.079 185.339C159.168 186.484 159.647 187.83 159.165 189.315L159.086 189.532L159.132 189.598C160.256 191.266 160.369 192.736 159.841 193.925L159.775 194.067C159.706 194.205 159.637 194.323 159.572 194.419L159.502 194.517L160.121 197.358C160.152 197.5 160.077 197.64 159.949 197.697L159.891 197.716C159.749 197.746 159.608 197.672 159.551 197.544L159.533 197.486L158.882 194.504C158.861 194.407 158.889 194.306 158.957 194.234C159.02 194.167 159.126 194.02 159.235 193.8C159.762 192.736 159.673 191.382 158.502 189.746C158.441 189.661 158.429 189.55 158.47 189.453C159.06 188.072 158.671 186.836 157.642 185.753C157.396 185.494 157.132 185.266 156.868 185.071C156.711 184.956 156.591 184.878 156.526 184.84C156.415 184.775 156.357 184.647 156.382 184.521L156.409 184.371C156.429 184.251 156.453 184.089 156.477 183.894C156.583 183.028 156.612 182.128 156.515 181.293C156.304 179.479 155.562 178.384 154.126 178.252C153.96 178.237 153.838 178.091 153.853 177.925C153.869 177.76 154.015 177.638 154.181 177.653Z" fill="#DD936F"/>
<path d="M155.213 190.006C155.36 189.929 155.542 189.987 155.619 190.134C155.687 190.263 155.652 190.418 155.543 190.506L155.492 190.54L149.657 193.584C149.509 193.661 149.327 193.604 149.25 193.457C149.183 193.328 149.218 193.173 149.327 193.084L149.378 193.051L155.213 190.006Z" fill="#DD936F"/>
<path d="M156.555 195.257C156.709 195.194 156.884 195.268 156.947 195.422C157.002 195.557 156.952 195.708 156.835 195.786L156.782 195.814L151.032 198.149C150.878 198.212 150.702 198.138 150.639 197.984C150.585 197.849 150.635 197.698 150.751 197.62L150.805 197.592L156.555 195.257Z" fill="#DD936F"/>
<path d="M180.982 164.238C181.149 164.238 181.284 164.373 181.284 164.539C181.284 164.705 181.149 164.84 180.982 164.84C178.665 164.84 176.236 166.225 173.857 168.543C173.017 169.361 172.244 170.239 171.556 171.117C171.315 171.424 171.102 171.709 170.92 171.965L170.7 172.281C170.608 172.42 170.421 172.458 170.282 172.366C170.143 172.275 170.105 172.088 170.197 171.949L170.366 171.705L170.429 171.615C170.617 171.353 170.835 171.06 171.081 170.746C171.785 169.848 172.575 168.951 173.436 168.112C175.917 165.695 178.472 164.238 180.982 164.238Z" fill="#DD936F"/>
<path d="M178.973 139.04C179.171 138.882 179.46 138.915 179.618 139.113C179.759 139.289 179.748 139.537 179.605 139.7L179.545 139.757L160.925 154.566C160.748 154.707 160.498 154.696 160.335 154.551L160.277 154.491L158.382 152.08C158.225 151.881 158.26 151.592 158.459 151.436C158.637 151.297 158.884 151.309 159.047 151.453L159.104 151.513L160.714 153.561L178.973 139.04Z" fill="#253368"/>
<path fill-rule="evenodd" clip-rule="evenodd" d="M107.895 185.805C107.895 185.805 102.77 178.184 100.555 177.953C97.1241 177.596 98.0315 184.58 98.0315 184.58C98.0315 184.58 94.7655 185.866 95.9607 189.571C94.0809 192.526 95.5321 194.439 95.5321 194.439C95.5321 194.439 93.1478 196.483 95.3937 199.023C97.6384 201.561 103.81 202.255 103.791 197.87C106.705 196.05 105.191 193.318 105.191 193.318C105.191 193.318 107.417 191.471 105.881 188.848C107.859 188.22 108.421 186.605 107.895 185.805Z" fill="#FFC999"/>
<path d="M100.012 183.568C100.108 183.462 100.262 183.44 100.381 183.505L100.438 183.546L106.083 188.625C106.207 188.737 106.217 188.927 106.106 189.05C106.01 189.156 105.857 189.179 105.737 189.113L105.68 189.072L100.035 183.993C99.9111 183.881 99.9011 183.691 100.012 183.568Z" fill="#DD936F"/>
<path d="M100.528 177.653C100.693 177.638 100.84 177.76 100.855 177.925C100.871 178.091 100.749 178.237 100.583 178.252C99.1469 178.384 98.4042 179.479 98.1939 181.293C98.0971 182.128 98.1255 183.028 98.2319 183.894L98.2842 184.273C98.3005 184.379 98.3153 184.463 98.3269 184.521C98.3519 184.647 98.294 184.775 98.1828 184.84C98.1179 184.878 97.9975 184.956 97.8404 185.071C97.5763 185.266 97.312 185.495 97.0659 185.753C96.0369 186.836 95.648 188.072 96.2377 189.453C96.279 189.55 96.2668 189.661 96.2057 189.746C95.035 191.382 94.9459 192.736 95.4736 193.799C95.5827 194.02 95.6889 194.167 95.7521 194.234C95.8062 194.292 95.8347 194.368 95.8332 194.445L95.8264 194.504L95.1761 197.486C95.1407 197.648 94.9802 197.751 94.8176 197.716C94.6754 197.685 94.5787 197.558 94.5805 197.418L94.5874 197.358L95.2065 194.517L95.1995 194.509C95.1383 194.426 95.0708 194.322 95.0023 194.198L94.9337 194.067C94.3318 192.853 94.4067 191.333 95.5758 189.598L95.6204 189.532L95.6081 189.502C95.0459 188.005 95.4594 186.645 96.4961 185.483L96.6289 185.339C96.9009 185.053 97.1916 184.802 97.4825 184.587L97.6998 184.434L97.6652 184.206L97.6338 183.967C97.5221 183.058 97.4923 182.113 97.5954 181.224C97.8346 179.16 98.7461 177.817 100.528 177.653Z" fill="#DD936F"/>
<path d="M99.0895 190.134C99.1569 190.005 99.3046 189.945 99.4393 189.984L99.496 190.006L105.331 193.051C105.479 193.128 105.536 193.31 105.459 193.457C105.391 193.586 105.244 193.645 105.109 193.607L105.052 193.584L99.217 190.54C99.0695 190.463 99.0124 190.281 99.0895 190.134Z" fill="#DD936F"/>
<path d="M97.7615 195.422C97.8163 195.287 97.9577 195.214 98.0955 195.239L98.154 195.257L103.905 197.592C104.059 197.654 104.133 197.83 104.07 197.984C104.016 198.118 103.874 198.192 103.736 198.166L103.678 198.149L97.9271 195.814C97.773 195.752 97.6989 195.576 97.7615 195.422Z" fill="#DD936F"/>
<path fill-rule="evenodd" clip-rule="evenodd" d="M158.34 119.75C148.908 116.063 141.89 119.078 138.801 116.306C136.976 114.666 137.131 108 137.131 108H114.355C114.355 108 114.844 114.025 113.02 115.665C109.931 118.437 102.679 115.652 94.1705 120.257C86.1359 124.604 88.9623 139.381 92.641 149.253C93.4909 151.535 92.0238 155.837 93.4444 159.011C94.8747 162.204 97.0472 166.071 97.9093 168.137C100.742 174.926 100.16 182.239 101.987 188.399C101.987 188.399 99.0763 194.024 103.671 196.307H147.813C153.325 193.794 149.497 188.399 149.497 188.399C151.242 182.52 150.182 177.779 152.768 169.169C153.286 167.449 155.23 164.72 156.888 161.077C159.474 155.394 158.267 149.942 158.612 148.564C161.634 136.492 166.518 122.947 158.34 119.75Z" fill="#597EF7"/>
</svg>
