<svg width="188" height="197" viewBox="0 0 188 197" fill="none" xmlns="http://www.w3.org/2000/svg">
<g clip-path="url(#clip0)">
<path d="M120.156 33.5821C120.484 33.6601 120.813 33.4573 120.891 33.1291C120.969 32.8009 120.766 32.4717 120.438 32.3937C120.11 32.3157 119.781 32.5186 119.703 32.8467C119.625 33.1749 119.827 33.5041 120.156 33.5821Z" fill="#023047" fill-opacity="0.78"/>
<path fill-rule="evenodd" clip-rule="evenodd" d="M122.706 31.5296L121.792 35.3741L119.335 36.8984L117.826 34.4316L118.739 30.5871L121.197 29.0627L122.706 31.5296ZM122.435 31.5727L121.114 29.413L118.962 30.7476L118.097 34.3885L119.418 36.5481L121.57 35.2136L122.435 31.5727Z" fill="#023047" fill-opacity="0.78"/>
<path fill-rule="evenodd" clip-rule="evenodd" d="M115.775 29.9579L114.983 33.2895C114.404 33.217 113.852 33.5906 113.714 34.1711C113.566 34.7934 113.95 35.4177 114.573 35.5655C114.884 35.6395 115.196 35.5802 115.448 35.4245L118.001 37.8382C117.955 37.924 117.92 38.0171 117.896 38.1162C117.748 38.7384 118.133 39.3627 118.755 39.5105C119.377 39.6584 120.002 39.2738 120.15 38.6516C120.173 38.5525 120.183 38.4534 120.181 38.3561L123.547 37.3487C123.702 37.6013 123.954 37.7945 124.265 37.8685C124.887 38.0164 125.512 37.6318 125.659 37.0096C125.797 36.429 125.472 35.8468 124.922 35.6512L125.714 32.3196C126.293 32.3921 126.845 32.0185 126.983 31.438C127.131 30.8157 126.747 30.1914 126.124 30.0436C125.702 29.9431 125.278 30.0885 125.003 30.3872L122.566 28.0827C122.656 27.9609 122.723 27.8193 122.761 27.6627C122.908 27.0405 122.524 26.4162 121.902 26.2683C121.279 26.1205 120.655 26.505 120.507 27.1273C120.47 27.2839 120.467 27.4407 120.492 27.5899L117.279 28.5517C117.168 28.1615 116.855 27.841 116.432 27.7406C115.81 27.5927 115.185 27.9773 115.038 28.5995C114.9 29.1801 115.225 29.7623 115.775 29.9579ZM122.394 28.2691C122.122 28.5052 121.743 28.6113 121.366 28.5217C120.989 28.432 120.699 28.1672 120.562 27.8339L117.321 28.8041C117.327 28.9126 117.317 29.0238 117.291 29.1349C117.153 29.7155 116.6 30.0891 116.022 30.0166L115.23 33.3482C115.78 33.5437 116.105 34.126 115.967 34.7066C115.915 34.9276 115.802 35.1187 115.651 35.2665L118.147 37.6264C118.42 37.3105 118.856 37.1539 119.291 37.2572C119.725 37.3605 120.044 37.6963 120.146 38.1015L123.437 37.1166C123.368 36.9165 123.354 36.6952 123.406 36.4741C123.544 35.8936 124.097 35.52 124.675 35.5925L125.467 32.2609C124.918 32.0654 124.592 31.4831 124.73 30.9025C124.756 30.7914 124.798 30.6878 124.852 30.5936L122.394 28.2691Z" fill="#023047" fill-opacity="0.78"/>
</g>
<path d="M30.5889 115.942L103.793 13.5405L176.997 115.942H30.5889Z" fill="#FF9D00"/>
<path fill-rule="evenodd" clip-rule="evenodd" d="M2.3563 86.2904L6.83532 79.0109C6.68602 78.8946 6.58835 78.7146 6.5839 78.5106C6.57607 78.1508 6.86143 77.8527 7.22128 77.8449C7.58112 77.837 7.87919 78.1224 7.88702 78.4822C7.89229 78.7243 7.76493 78.9384 7.57147 79.055L11.2308 86.9551C11.3046 86.9239 11.3854 86.9059 11.4703 86.9041C11.8302 86.8962 12.1283 87.1816 12.1361 87.5414C12.1439 87.9013 11.8586 88.1993 11.4987 88.2072C11.152 88.2147 10.8626 87.95 10.835 87.6088L2.71791 86.9874C2.66703 87.2898 2.40728 87.5232 2.08942 87.5301C1.72957 87.538 1.43151 87.2526 1.42367 86.8928C1.41584 86.5329 1.7012 86.2348 2.06104 86.227C2.16672 86.2247 2.26707 86.2477 2.3563 86.2904ZM7.24965 79.148C7.27544 79.1474 7.30085 79.1454 7.32579 79.1419L8.44845 83.8979C8.19263 83.9904 8.01236 84.2381 8.01861 84.5251C8.01997 84.5876 8.03008 84.6479 8.04776 84.7047L2.66373 86.5982C2.618 86.5024 2.54959 86.4196 2.46559 86.3567L6.94335 79.0792C7.03531 79.1254 7.13959 79.1504 7.24965 79.148ZM8.09767 84.8226L2.70711 86.7184C2.71858 86.7638 2.72529 86.8112 2.72668 86.8599L10.8371 87.4808C10.8509 87.3597 10.898 87.2484 10.9693 87.1566L9.03695 85.0497C8.93629 85.1184 8.81525 85.1596 8.68435 85.1625C8.43232 85.168 8.2106 85.0296 8.09767 84.8226ZM9.13507 84.9677L11.0573 87.0635C11.0767 87.0466 11.0971 87.0309 11.1184 87.0164L7.45606 79.1099C7.45406 79.1106 7.45204 79.1113 7.45003 79.112L8.57234 83.8665C8.59968 83.8624 8.6276 83.86 8.65598 83.8594C9.01582 83.8515 9.31389 84.1369 9.32173 84.4967C9.32571 84.6797 9.25391 84.8467 9.13507 84.9677Z" fill="#023047" fill-opacity="0.78"/>
<path fill-rule="evenodd" clip-rule="evenodd" d="M69.3577 28.8713C64.4255 28.8713 60.4272 32.8696 60.4272 37.8018V37.8246C60.4272 42.7568 64.4255 46.7551 69.3577 46.7551H82.5275C83.0195 46.7551 83.5022 46.7153 83.9725 46.6388L86.524 49.1033C86.5934 49.1703 86.6861 49.2077 86.7825 49.2077C86.988 49.2077 87.1546 49.0412 87.1546 48.8356L87.1548 45.4643C89.7345 43.8984 91.458 41.0628 91.458 37.8246V37.8018C91.458 32.8696 87.4597 28.8713 82.5275 28.8713H69.3577Z" fill="#253368"/>
<path d="M71.5238 7.47534H52.7193C45.6733 7.47534 39.9614 13.1872 39.9614 20.2332C39.9614 27.2791 45.6733 32.991 52.7193 32.991H71.5238C78.5697 32.991 84.2816 27.2791 84.2816 20.2332C84.2816 13.1872 78.5697 7.47534 71.5238 7.47534Z" fill="#597EF7"/>
<path fill-rule="evenodd" clip-rule="evenodd" d="M46.1079 29.28V35.9589C46.1079 36.2525 46.3459 36.4904 46.6395 36.4904C46.7772 36.4904 46.9095 36.437 47.0086 36.3414L51.9165 31.6059L46.1079 29.28Z" fill="#597EF7"/>
<path d="M53.5828 21.828C54.7204 21.828 55.6427 20.9057 55.6427 19.7681C55.6427 18.6305 54.7204 17.7083 53.5828 17.7083C52.4452 17.7083 51.5229 18.6305 51.5229 19.7681C51.5229 20.9057 52.4452 21.828 53.5828 21.828Z" fill="white"/>
<path d="M62.0218 21.828C63.1594 21.828 64.0816 20.9057 64.0816 19.7681C64.0816 18.6305 63.1594 17.7083 62.0218 17.7083C60.8841 17.7083 59.9619 18.6305 59.9619 19.7681C59.9619 20.9057 60.8841 21.828 62.0218 21.828Z" fill="white"/>
<path d="M70.66 21.828C71.7976 21.828 72.7198 20.9057 72.7198 19.7681C72.7198 18.6305 71.7976 17.7083 70.66 17.7083C69.5223 17.7083 68.6001 18.6305 68.6001 19.7681C68.6001 20.9057 69.5223 21.828 70.66 21.828Z" fill="white"/>
<path fill-rule="evenodd" clip-rule="evenodd" d="M44.0791 91.907C44.0791 91.907 38.2054 91.7888 37.9457 96.6946C37.6787 101.753 43.3083 102.127 43.3083 102.127C43.3083 102.127 47.276 102.293 52.1654 102.519C55.151 102.656 58.4497 102.743 60.8541 102.462C63.4573 102.157 63.7893 100.733 63.919 98.2804C64.0731 95.3677 63.8401 94.1483 61.2815 93.6449C58.8423 93.1644 55.4994 92.9489 52.9166 92.6647C47.9924 92.1225 44.0791 91.907 44.0791 91.907Z" fill="#125E8A"/>
<path fill-rule="evenodd" clip-rule="evenodd" d="M38.3991 145.207C40.9001 135.172 43.383 124.774 45.1692 116.457C45.1692 116.457 45.4489 110.191 39.7293 109.916C34.1231 109.647 32.5258 116.429 32.5258 116.429L28.5704 143.65C28.5704 143.65 27.9754 148.091 32.9028 148.783C37.3969 149.414 38.3991 145.207 38.3991 145.207Z" fill="#253368"/>
<path fill-rule="evenodd" clip-rule="evenodd" d="M20.5251 163.37C18.828 161.924 16.2481 162.462 15.2539 164.474C14.11 166.787 12.549 169.905 10.8235 173.239C9.04769 176.671 7.5828 179.519 7.6295 180.01C7.83694 182.173 9.63017 183.932 10.9572 186.698C12.0068 188.887 11.9866 189.64 13.9493 191.27C16.7303 193.58 16.0045 191.442 14.8363 185.308C13.7954 179.842 14.9508 178.191 14.9508 178.191L21.2372 167.879C22.1356 166.405 21.832 164.485 20.5251 163.37Z" fill="#C99382"/>
<path fill-rule="evenodd" clip-rule="evenodd" d="M15.0522 184.167C15.9456 187.853 17.461 191.198 16.7412 192.337C16.0215 193.477 14.4814 194.031 11.3232 190.581C9.16208 188.22 10.2436 188.068 8.59458 185.075C7.77056 183.58 7.25566 183.418 6.60622 181.845C6.40557 180.635 9.01497 176.677 9.01497 176.677L10.8143 183.872C10.8143 183.872 10.8995 181.014 12.1286 181.04C13.3581 181.067 14.4251 181.208 14.7678 181.908C15.1104 182.607 15.0522 184.167 15.0522 184.167Z" fill="#7D4556"/>
<path fill-rule="evenodd" clip-rule="evenodd" d="M38.2154 146.751C27.5819 161.576 16.3593 177.021 16.3593 177.021L10.3843 173.435L28.1894 142.171C28.1894 142.171 31.5413 137.797 36.4129 140.189C40.809 142.346 38.2154 146.751 38.2154 146.751Z" fill="#253368"/>
<path fill-rule="evenodd" clip-rule="evenodd" d="M53.5674 92.1524C53.5674 92.1524 54.9823 97.699 49.8794 98.9094C44.6759 100.144 43.4635 94.4759 43.4635 94.4759C43.4635 94.4759 42.417 90.6218 41.3011 85.9168C40.4293 82.2402 39.7456 79.4224 39.4115 77.0167C39.0508 74.4209 40.525 71.9012 42.9151 71.334C46.5475 70.4724 48.5696 72.3199 49.286 74.827C49.9828 77.2649 50.8215 80.5833 51.5298 83.2875C52.8915 88.4873 53.5674 92.1524 53.5674 92.1524Z" fill="#125E8A"/>
<path fill-rule="evenodd" clip-rule="evenodd" d="M26.5735 60.0472C26.5735 60.0472 23.6207 58.5264 24.5232 55.3679C23.1742 52.7047 24.6659 51.0056 24.6659 51.0056C24.6659 51.0056 24.6377 47.4681 26.975 47.2133C28.3629 43.5519 32.5204 44.8747 32.5204 44.8747C32.5204 44.8747 35.106 42.6575 38.9498 45.5179C41.7116 45.5511 41.6891 44.1808 42.5986 45.1123C43.508 46.0438 43.9582 48.265 42.7965 49.1716C44.8578 50.0017 43.0758 53.289 43.0758 53.289C43.0758 53.289 43.7885 55.15 41.4691 56.6184C39.1502 58.0864 38.361 62.5706 34.4832 64.0681C30.7522 65.5087 26.7334 64.3993 26.5735 60.0472Z" fill="#7D4556"/>
<path fill-rule="evenodd" clip-rule="evenodd" d="M28.6309 66.6432L28.922 60.5352L37.0239 61.3583L37.2223 66.6861C37.3106 69.0648 35.4202 71.0484 33.0399 71.0742C32.9945 71.075 32.9491 71.0754 32.9037 71.0758C30.4694 71.1036 28.5148 69.0746 28.6309 66.6432Z" fill="#C99382"/>
<path fill-rule="evenodd" clip-rule="evenodd" d="M30.3941 51.18C30.3941 51.18 30.9874 53.3093 29.3534 53.9263C29.7975 56.6902 28.5793 56.5164 28.5793 56.5164C28.5793 56.5164 26.5106 54.1614 25.3092 56.3888C24.1679 58.505 26.5179 61.3932 28.5102 60.8129C32.179 66.0033 38.9184 65.8892 40.9425 62.2355C42.1729 60.0151 41.5019 56.9261 41.5898 55.4524C41.8061 51.8298 41.0799 50.7776 41.0799 50.7776C41.0799 50.7776 39.7203 51.1489 38.1525 50.1062C36.6047 51.3947 34.224 50.3417 34.224 50.3417C34.224 50.3417 32.7842 52.4113 30.3941 51.18Z" fill="#C99382"/>
<path d="M26.1295 57.0297C26.2905 56.7712 26.5963 56.6433 27.0507 56.7059C27.9001 56.8222 28.592 58.0611 28.1051 58.3775C27.8641 58.5341 27.6875 58.7418 27.6461 58.9318C27.5995 59.1461 27.7203 59.3516 28.0777 59.5463C28.1521 59.5868 28.1795 59.6799 28.139 59.7543C28.0985 59.8287 28.0054 59.8561 27.931 59.8156C27.4633 59.5609 27.2677 59.2281 27.3465 58.8665C27.4079 58.5846 27.6356 58.3169 27.938 58.1203L27.9412 58.1113C27.9451 58.0946 27.9497 58.0551 27.9428 57.994C27.9302 57.8824 27.8824 57.7436 27.8069 57.6085C27.6266 57.2856 27.3391 57.0549 27.009 57.0097C26.6696 56.963 26.484 57.0406 26.3898 57.1918C26.3511 57.2539 26.3338 57.3173 26.3294 57.3602L26.3282 57.3798C26.3271 57.4645 26.2577 57.5323 26.173 57.5313C26.0883 57.5302 26.0205 57.4607 26.0215 57.376C26.0226 57.2837 26.0499 57.1576 26.1295 57.0297Z" fill="#9B6160"/>
<path d="M27.1753 57.8168C27.3285 57.7918 27.488 57.7891 27.6351 57.7992L27.6989 57.8048C27.783 57.8147 27.8432 57.8909 27.8334 57.975C27.8235 58.0591 27.7473 58.1193 27.6632 58.1094L27.614 58.1052C27.4885 58.0965 27.351 58.0989 27.2247 58.1195C26.9927 58.1574 26.8766 58.2384 26.8725 58.3796L26.8734 58.4107C26.88 58.4952 26.817 58.569 26.7326 58.5757C26.6482 58.5824 26.5743 58.5194 26.5676 58.4349C26.5391 58.0748 26.7892 57.88 27.1753 57.8168Z" fill="#9B6160"/>
<path fill-rule="evenodd" clip-rule="evenodd" d="M36.0702 55.8229C36.0526 57.3003 34.8402 58.4837 33.3628 58.4661C31.8853 58.4481 30.7019 57.2361 30.7199 55.7587C30.7375 54.2813 31.9495 53.0978 33.427 53.1154C34.9044 53.133 36.0878 54.3455 36.0702 55.8229Z" fill="white"/>
<path d="M33.4292 52.927C31.8477 52.9081 30.5503 54.175 30.5315 55.7565C30.5122 57.3378 31.7789 58.6354 33.3605 58.6546C34.9422 58.6735 36.2399 57.4066 36.2587 55.8251C36.2776 54.2435 35.0107 52.9458 33.4292 52.927ZM33.4248 53.304C34.798 53.3203 35.8981 54.4472 35.8818 55.8207C35.8654 57.1939 34.7385 58.294 33.365 58.2777C31.9917 58.2609 30.8917 57.1342 30.9085 55.761C30.9248 54.3877 32.0514 53.2876 33.4248 53.304Z" fill="#7D4556"/>
<path fill-rule="evenodd" clip-rule="evenodd" d="M42.5614 55.6503C42.5438 57.1277 41.3314 58.3111 39.854 58.2935C38.3766 58.2755 37.1931 57.0639 37.2111 55.5861C37.2287 54.1087 38.4408 52.9252 39.9182 52.9428C41.3956 52.9608 42.579 54.1729 42.5614 55.6503Z" fill="white"/>
<path d="M39.9205 52.7544C38.3389 52.7355 37.0415 54.0023 37.0227 55.5839C37.0034 57.1655 38.27 58.4628 39.8517 58.482C41.4334 58.5009 42.7311 57.234 42.75 55.6525C42.7685 54.097 41.5432 52.8162 39.998 52.7563L39.9205 52.7544ZM39.9159 53.1314C41.2893 53.1481 42.3893 54.2748 42.373 55.6481C42.3566 57.0213 41.2297 58.1214 39.8563 58.105C38.4827 58.0883 37.383 56.9619 37.3997 55.5884C37.4157 54.2391 38.5034 53.1537 39.8439 53.1315L39.9159 53.1314Z" fill="#7D4556"/>
<path d="M36.6942 55.3382C36.7646 55.2911 36.8598 55.3099 36.907 55.3803L36.9563 55.4557L37.0844 55.6587C37.2167 55.8732 37.3491 56.101 37.4728 56.3328C37.578 56.5299 37.6722 56.7213 37.7527 56.9039C38.0569 57.594 38.1498 58.1037 37.9296 58.3993C37.7258 58.6724 37.4417 58.8369 37.1027 58.9092C36.805 58.9728 36.4916 58.9616 36.1926 58.9053C36.0994 58.8877 36.0292 58.8699 35.9883 58.8574C35.9073 58.8326 35.8618 58.7468 35.8867 58.6658C35.9115 58.5848 35.9973 58.5393 36.0782 58.5642L36.1181 58.5752C36.1507 58.5836 36.1952 58.5937 36.2493 58.6039C36.5118 58.6533 36.7865 58.6631 37.0387 58.6093C37.3091 58.5516 37.5278 58.425 37.6838 58.216C37.8098 58.0469 37.731 57.6151 37.4721 57.0276C37.3949 56.8525 37.304 56.6679 37.2022 56.4772C37.0818 56.2515 36.9526 56.0291 36.8234 55.8198L36.7277 55.6672L36.6521 55.5509C36.605 55.4806 36.6239 55.3853 36.6942 55.3382Z" fill="#9B6160"/>
<path fill-rule="evenodd" clip-rule="evenodd" d="M34.1821 59.6787C34.1821 59.6787 36.654 59.9915 38.4259 59.7298C38.4259 59.7298 37.9094 61.4919 36.1437 61.2584C34.5759 61.051 34.1821 59.6787 34.1821 59.6787Z" fill="white"/>
<path d="M34.0274 59.7229C34.0442 59.7816 34.0801 59.878 34.1391 59.9997C34.2364 60.2003 34.3654 60.4007 34.5304 60.5879C34.9193 61.0291 35.4453 61.3283 36.1227 61.4179C36.9969 61.5335 37.6638 61.209 38.1367 60.6037C38.2775 60.4235 38.3902 60.2311 38.478 60.0386C38.531 59.9222 38.5644 59.8303 38.5806 59.7749C38.6137 59.6621 38.5187 59.5531 38.4025 59.5702C38.0399 59.6238 37.6296 59.6554 37.1803 59.6674C36.4774 59.6861 35.7224 59.6565 34.978 59.5957C34.8541 59.5855 34.7361 59.575 34.625 59.5642L34.2025 59.5187C34.0877 59.5041 33.9955 59.6117 34.0274 59.7229ZM34.474 59.9469L34.4341 59.8686L34.5939 59.8849C34.7065 59.8958 34.8261 59.9066 34.9518 59.9168C35.7069 59.9786 36.4728 60.0086 37.1889 59.9895L37.3601 59.984C37.5859 59.9753 37.8018 59.9614 38.0069 59.942L38.1755 59.9245L38.1848 59.9049C38.1069 60.0757 38.0068 60.2465 37.8828 60.4053C37.4759 60.9261 36.9172 61.1979 36.1649 61.0984C35.568 61.0195 35.1115 60.7598 34.7721 60.3748C34.6517 60.2382 34.5529 60.0931 34.474 59.9469Z" fill="#7D4556"/>
<path d="M37.7579 52.2793C37.7967 52.1993 37.8931 52.1658 37.9731 52.2046C38.7655 52.5887 39.7536 52.6955 40.7666 52.4301C40.8526 52.4076 40.9407 52.4591 40.9632 52.5452C40.9858 52.6312 40.9343 52.7193 40.8482 52.7418C39.7598 53.0269 38.6931 52.9117 37.8326 52.4946C37.7525 52.4558 37.7191 52.3594 37.7579 52.2793Z" fill="#7D4556"/>
<path d="M35.9909 54.7881C36.2759 54.75 36.5672 54.7337 36.8421 54.7518C37.0234 54.7638 37.19 54.7905 37.3394 54.8345L37.4127 54.8579L37.2891 55.2142C37.1568 55.1682 36.9975 55.1399 36.8173 55.128C36.5706 55.1117 36.3031 55.1267 36.0409 55.1618L35.9125 55.1806L35.7981 55.2013L35.7207 54.8323L35.7962 54.8181L35.9217 54.7978C35.9441 54.7945 35.9672 54.7913 35.9909 54.7881Z" fill="#7D4556"/>
<path d="M39.893 54.9762C40.344 54.9816 40.643 55.2184 40.7995 55.5919C40.8784 55.7802 40.9097 55.9662 40.915 56.1125L40.9159 56.1655C40.9146 56.2712 40.8292 56.3546 40.7251 56.3534C40.6297 56.3522 40.5517 56.2804 40.5403 56.1882L40.5386 56.1444C40.5377 56.1162 40.5347 56.0756 40.528 56.0265C40.5143 55.9268 40.4896 55.8279 40.4517 55.7376C40.3496 55.4936 40.1766 55.3566 39.8884 55.3532C39.5899 55.3496 39.3965 55.4793 39.2702 55.7095C39.2243 55.793 39.191 55.8841 39.1689 55.9754L39.1563 56.0333C39.1531 56.0501 39.1508 56.0643 39.1494 56.0754L39.1478 56.0896C39.1385 56.1933 39.047 56.2699 38.9433 56.2606C38.8396 56.2514 38.763 56.1599 38.7722 56.0562C38.7845 55.9189 38.8314 55.7251 38.9397 55.528C39.1292 55.1829 39.4452 54.9708 39.893 54.9762Z" fill="#7D4556"/>
<path d="M33.4569 54.8988C33.908 54.9042 34.207 55.1411 34.3635 55.5147C34.4423 55.7031 34.4737 55.8891 34.479 56.0355L34.4798 56.0885C34.4786 56.1943 34.3932 56.2776 34.2891 56.2764C34.1936 56.2753 34.1156 56.2034 34.1042 56.1112L34.1026 56.0674C34.1017 56.0391 34.0986 55.9985 34.0919 55.9494C34.0783 55.8497 34.0535 55.7507 34.0157 55.6604C33.9135 55.4163 33.7405 55.2792 33.4524 55.2758C33.1539 55.2722 32.9605 55.402 32.8341 55.6322C32.7883 55.7158 32.755 55.807 32.7329 55.8983C32.725 55.9308 32.7196 55.9584 32.7162 55.9795L32.7117 56.0126C32.7025 56.1163 32.611 56.1929 32.5073 56.1837C32.4036 56.1744 32.327 56.0829 32.3362 55.9792C32.3484 55.8419 32.3954 55.648 32.5036 55.4508C32.6932 55.1056 33.0092 54.8934 33.4569 54.8988Z" fill="#7D4556"/>
<path d="M30.7197 55.7585L28.0757 55.7266" stroke="#7D4556" stroke-width="1.383"/>
<path d="M34.8682 52.0833C34.948 52.044 35.0446 52.0768 35.0839 52.1566C35.1232 52.2364 35.0904 52.333 35.0106 52.3723C34.682 52.5341 34.2923 52.6557 33.8537 52.7424C33.2031 52.8709 32.5276 52.9122 31.9393 52.9028L31.7426 52.8976C31.7203 52.8967 31.7034 52.8959 31.6921 52.8953C31.6033 52.8903 31.5353 52.8143 31.5403 52.7254C31.5453 52.6366 31.6213 52.5686 31.7102 52.5736L31.8041 52.5773C32.4025 52.5958 33.1144 52.56 33.7913 52.4262C34.2041 52.3447 34.5677 52.2313 34.8682 52.0833Z" fill="#7D4556"/>
<path d="M36.1357 62.9266C36.2119 62.9244 36.2767 62.9782 36.2906 63.0507L36.2936 63.0876L36.2938 63.0981C36.2951 63.181 36.2939 63.2865 36.2885 63.4064C36.2805 63.5835 36.2646 63.7583 36.2386 63.9229C36.1713 64.3499 36.0493 64.6551 35.833 64.7955C35.762 64.8416 35.667 64.8214 35.6209 64.7504C35.5799 64.6872 35.5914 64.6052 35.6443 64.5553L35.6661 64.5382C35.7852 64.4609 35.8812 64.2208 35.9357 63.8752C35.9597 63.7229 35.9746 63.5591 35.9821 63.3926C35.9862 63.3019 35.9877 63.2202 35.9876 63.1516L35.9868 63.0842C35.9844 62.9996 36.0511 62.929 36.1357 62.9266Z" fill="#9B6160"/>
<path d="M36.7077 63.4112C36.7922 63.4058 36.8652 63.4698 36.8706 63.5544L36.8752 63.6503C36.8832 63.8579 36.8819 64.082 36.8649 64.2943C36.852 64.4548 36.8307 64.5969 36.7993 64.7167C36.7777 64.7986 36.6939 64.8476 36.612 64.826C36.5301 64.8045 36.4811 64.7207 36.5026 64.6388C36.5289 64.5389 36.5476 64.4137 36.5591 64.2697C36.5711 64.121 36.5747 63.9641 36.5727 63.812L36.5688 63.662C36.5672 63.6201 36.5656 63.5899 36.5646 63.5741C36.5591 63.4896 36.6232 63.4167 36.7077 63.4112Z" fill="#9B6160"/>
<path d="M35.4759 63.6115C35.5585 63.6302 35.6103 63.7124 35.5915 63.795L35.5799 63.8427C35.5727 63.8714 35.5632 63.9069 35.5516 63.9476C35.5193 64.0608 35.4817 64.174 35.4389 64.2807C35.339 64.5293 35.2276 64.7061 35.0842 64.7898C35.011 64.8325 34.9171 64.8078 34.8744 64.7347C34.8365 64.6696 34.8518 64.5882 34.907 64.541L34.9296 64.5249C34.9958 64.4863 35.0785 64.355 35.1543 64.1663C35.1928 64.0706 35.2271 63.9671 35.2567 63.8635L35.2752 63.7962C35.2831 63.7665 35.2888 63.7429 35.2924 63.7271C35.3093 63.6528 35.3775 63.6034 35.4512 63.608L35.4759 63.6115Z" fill="#9B6160"/>
<path d="M37.1635 63.2613C37.2379 63.2447 37.3117 63.2852 37.3391 63.3537L37.3465 63.3776L37.5481 64.2817C37.5665 64.3644 37.5145 64.4463 37.4318 64.4647C37.3574 64.4813 37.2836 64.4408 37.2561 64.3723L37.2488 64.3484L37.0472 63.4443C37.0287 63.3617 37.0808 63.2797 37.1635 63.2613Z" fill="#9B6160"/>
<path d="M31.7004 63.6435C31.7414 63.5694 31.8348 63.5426 31.9088 63.5837C32.0255 63.6484 32.1438 63.7097 32.2634 63.7677C33.8453 64.5354 35.5205 64.6916 37.0031 64.4993C37.09 64.488 37.1693 64.4761 37.2407 64.4642L37.3636 64.4419C37.3866 64.4374 37.4034 64.4339 37.4136 64.4315C37.4962 64.4127 37.5784 64.4644 37.5972 64.547C37.6161 64.6295 37.5644 64.7117 37.4818 64.7306L37.4239 64.7426L37.3643 64.7539C37.2713 64.7708 37.1637 64.7877 37.0425 64.8034C35.5057 65.0028 33.773 64.8412 32.1295 64.0437C32.0049 63.9832 31.8818 63.9193 31.7602 63.852C31.6861 63.8109 31.6593 63.7176 31.7004 63.6435Z" fill="#9B6160"/>
<path d="M34.6918 58.5677C34.7217 58.647 34.6817 58.7354 34.6025 58.7654L34.5306 58.7942C34.4911 58.8107 34.4422 58.832 34.386 58.8578C34.2218 58.9334 34.0576 59.0197 33.9052 59.1149C33.4355 59.4081 33.1951 59.7107 33.2655 59.9809C33.2868 60.0629 33.2377 60.1466 33.1557 60.168C33.0738 60.1893 32.99 60.1402 32.9687 60.0582C32.8524 59.6115 33.1691 59.2129 33.7427 58.8547C33.9072 58.752 34.0826 58.6598 34.2579 58.5792C34.3192 58.551 34.3762 58.5262 34.4275 58.505L34.4941 58.4784C34.5734 58.4485 34.6619 58.4885 34.6918 58.5677Z" fill="#9B6160"/>
<path fill-rule="evenodd" clip-rule="evenodd" d="M27.3082 68.4501L27.8251 66.9592L37.8775 67.2336L38.2816 68.6452C38.2816 68.6452 45.4221 70.3802 46.8038 72.3758C48.7106 75.1302 44.2644 92.0709 44.1941 95.8632C45.9042 100.393 43.7185 101.388 43.7185 101.388L23.3311 101.144C23.3311 101.144 20.9966 99.5978 22.995 96.4851C22.1763 90.9169 16.8015 73.2406 19.1716 71.3011C22.7762 68.3508 27.3082 68.4501 27.3082 68.4501Z" fill="#125E8A"/>
<path d="M19.4924 73.3787C19.5319 73.3017 19.6264 73.2712 19.7035 73.3108C19.8152 73.3681 20.0006 73.497 20.2343 73.7161C20.6174 74.0753 20.9988 74.5623 21.3532 75.1956C22.6024 77.427 23.2164 80.8575 22.8584 85.7428C22.8573 85.7588 22.8536 85.7744 22.8478 85.7892L22.8373 85.8107L18.6925 92.8723C18.6486 92.947 18.5525 92.972 18.4779 92.9282C18.4106 92.8887 18.3836 92.807 18.4109 92.7365L18.422 92.7136L22.5479 85.6836L22.5606 85.5078C22.8768 80.8636 22.2961 77.5891 21.1328 75.4454L21.0796 75.3488C20.7408 74.7437 20.3794 74.2821 20.0198 73.9449C19.9161 73.8477 19.8192 73.7672 19.7306 73.702L19.6785 73.6647C19.6193 73.6236 19.5789 73.5994 19.5603 73.5898C19.4832 73.5503 19.4528 73.4558 19.4924 73.3787Z" fill="#597EF7"/>
<path d="M46.0144 76.826C46.1002 76.814 46.1795 76.8739 46.1914 76.9596C46.4565 78.8598 46.4361 81.3019 46.1793 84.1599C46.003 86.1222 45.7215 88.2112 45.3636 90.3497C45.1598 91.5679 44.9426 92.7344 44.7243 93.8161L44.6648 94.109C44.6231 94.3126 44.5828 94.5057 44.5444 94.6875L44.4064 95.3257L44.3576 95.5438L44.4054 95.671C44.4182 95.7059 44.4315 95.7431 44.4454 95.7825C44.5241 96.0069 44.6028 96.2566 44.6763 96.5252C44.8831 97.2818 45.0088 98.0385 45.0128 98.7481C45.0176 99.5849 44.8512 100.303 44.4777 100.863C44.4297 100.935 44.3323 100.954 44.2603 100.906C44.1882 100.858 44.1687 100.761 44.2168 100.689C44.5511 100.188 44.7036 99.5292 44.6992 98.7499C44.6954 98.0711 44.574 97.3402 44.3738 96.6079C44.3023 96.3468 44.2259 96.1041 44.1494 95.8864L44.0894 95.7204C44.0724 95.675 44.0586 95.6399 44.0488 95.6158C44.0365 95.5858 44.0338 95.5527 44.0411 95.5211L44.128 95.1318C44.1972 94.8155 44.2744 94.4518 44.3575 94.0461C44.595 92.8866 44.8326 91.623 45.0543 90.2979C45.4109 88.1668 45.6914 86.0854 45.8669 84.1318C46.1218 81.2955 46.142 78.8753 45.8808 77.003C45.8688 76.9172 45.9287 76.838 46.0144 76.826Z" fill="#597EF7"/>
<path d="M27.9213 68.7559C27.9446 68.6725 28.031 68.6237 28.1145 68.6469C29.0058 68.8952 30.0386 69.0592 31.1849 69.1478C32.9039 69.2807 34.7458 69.2391 36.5191 69.089L36.8159 69.0628C37.0082 69.045 37.1894 69.0267 37.3583 69.0083L37.6858 68.9706L37.8346 68.9517C37.9204 68.94 37.9994 69.0001 38.0111 69.0859C38.0228 69.1718 37.9627 69.2508 37.8769 69.2625L37.7239 69.2819L37.5179 69.3061C37.2304 69.3387 36.9043 69.3712 36.5456 69.4016C34.7568 69.5529 32.8989 69.5949 31.1607 69.4605C29.9955 69.3704 28.9432 69.2033 28.0303 68.949C27.9469 68.9258 27.8981 68.8393 27.9213 68.7559Z" fill="#597EF7"/>
<path fill-rule="evenodd" clip-rule="evenodd" d="M45.1726 145.818C41.0985 135.794 35.5931 122.3 31.9636 114.165C31.9636 114.165 28.2906 108.678 23.0831 111.893C17.9793 115.045 20.8446 121.733 20.8446 121.733L27.982 136.171L35.5457 150.423C35.5457 150.423 37.7993 154.55 42.5699 152.167C46.9218 149.993 45.1726 145.818 45.1726 145.818Z" fill="#597EF7"/>
<path fill-rule="evenodd" clip-rule="evenodd" d="M47.583 172.892C45.4689 173.01 44.0207 175.006 44.6251 176.972C45.3209 179.235 46.2447 182.296 47.1934 185.606C48.1701 189.012 48.9864 191.833 49.3358 192.129C50.8746 193.434 53.2572 193.463 55.9639 194.457C58.1063 195.244 58.5775 195.756 60.994 195.592C64.4197 195.359 62.5361 194.401 57.7671 191.07C53.5187 188.102 53.2589 186.273 53.2589 186.273L50.9854 175.434C50.6606 173.885 49.211 172.802 47.583 172.892Z" fill="#C99382"/>
<path fill-rule="evenodd" clip-rule="evenodd" d="M57.1088 190.171C60.1859 192.14 63.4671 193.481 63.7293 194.719C63.9911 195.958 63.2943 197.312 58.806 196.937C55.7349 196.679 56.382 195.891 53.2433 194.876C51.6761 194.37 51.212 194.584 49.7119 193.913C48.7662 193.208 47.9316 188.838 47.9316 188.838L53.9781 192.647C53.9781 192.647 52.1295 190.628 52.9986 189.87C53.8678 189.111 54.7006 188.534 55.4046 188.798C56.1083 189.061 57.1088 190.171 57.1088 190.171Z" fill="#7D4556"/>
<path fill-rule="evenodd" clip-rule="evenodd" d="M45.1756 145.674C48.9999 163.882 52.754 182.913 52.754 182.913L45.8608 183.91L34.5698 148.431C34.5698 148.431 33.5919 142.924 38.8086 141.699C43.5156 140.593 45.1756 145.674 45.1756 145.674Z" fill="#597EF7"/>
<path fill-rule="evenodd" clip-rule="evenodd" d="M20.0298 117.6C20.7187 110.883 21.7393 105.292 22.5531 103.993C40.0463 104.47 43.9745 104.659 43.9745 104.659C43.9745 104.659 45.675 109.994 45.0301 117.365C45.0301 117.365 39.5728 123.973 32.623 123.973C26.3567 123.973 20.0298 117.6 20.0298 117.6Z" fill="#597EF7"/>
<path fill-rule="evenodd" clip-rule="evenodd" d="M22.4409 104.312L22.7695 101.238L44.0435 101.477L44.1425 104.556C44.1425 104.556 32.8836 104.964 22.4409 104.312Z" fill="#597EF7"/>
<path d="M36.7914 104.748C36.8778 104.741 36.9535 104.805 36.9606 104.892L37.0377 105.905L37.1005 106.798C37.1476 107.49 37.1941 108.226 37.2382 108.993C37.3615 111.136 37.4509 113.245 37.4917 115.22L37.5034 115.868C37.5515 118.998 37.4643 121.513 37.2113 123.212C37.1985 123.298 37.1187 123.357 37.0331 123.344C36.9474 123.331 36.8883 123.252 36.9011 123.166C37.168 121.373 37.2487 118.641 37.1781 115.226C37.1405 113.408 37.0616 111.474 36.9529 109.504L36.8916 108.443C36.8465 107.693 36.7995 106.978 36.7523 106.309L36.68 105.325L36.648 104.917C36.6409 104.831 36.7051 104.755 36.7914 104.748Z" fill="#253368"/>
<path d="M33.4133 104.748C33.4995 104.741 33.5756 104.805 33.5831 104.891L33.6284 105.455L33.6668 105.975C33.6968 106.395 33.7265 106.844 33.7546 107.316C33.8426 108.793 33.9022 110.255 33.9204 111.622L33.9256 112.208C33.9319 113.68 33.8839 114.943 33.7725 115.941L33.7593 116.052L33.7663 116.126C33.8643 117.049 34.3328 117.589 35.0698 117.841L35.1396 117.864C35.5707 117.998 36.0318 118.023 36.4435 117.983L36.5084 117.977C36.5362 117.973 36.557 117.97 36.5699 117.968C36.6553 117.954 36.7361 118.012 36.7503 118.097C36.7644 118.183 36.7067 118.263 36.6212 118.278L36.5767 118.284C36.5494 118.288 36.5147 118.292 36.4733 118.296C36.0237 118.338 35.5234 118.312 35.0465 118.164C34.1533 117.886 33.5678 117.24 33.4539 116.154L33.4455 116.063L33.4462 116.032C33.5815 114.904 33.6304 113.405 33.6068 111.626C33.5887 110.264 33.5293 108.807 33.4415 107.335L33.3985 106.646C33.3741 106.274 33.349 105.92 33.324 105.588L33.2706 104.918C33.2631 104.832 33.327 104.756 33.4133 104.748Z" fill="#253368"/>
<path d="M25.1353 104.844C25.2219 104.845 25.291 104.916 25.2896 105.003L25.2859 105.12C25.2842 105.159 25.282 105.203 25.2792 105.255C25.268 105.452 25.2502 105.672 25.2241 105.909C25.1494 106.586 25.0236 107.264 24.8341 107.898C24.3863 109.396 23.6558 110.424 22.5685 110.754C22.4857 110.779 22.3981 110.732 22.373 110.649C22.3479 110.566 22.3947 110.479 22.4776 110.454C23.4408 110.162 24.1129 109.215 24.5336 107.808C24.7171 107.194 24.8396 106.535 24.9123 105.875C24.9327 105.69 24.9479 105.516 24.9587 105.355L24.9707 105.147C24.9739 105.079 24.9755 105.028 24.976 104.998C24.9774 104.912 25.0487 104.842 25.1353 104.844Z" fill="#253368"/>
<path d="M42.2874 105.206C42.3653 105.207 42.4296 105.264 42.4412 105.339L42.443 105.364L42.4443 105.536C42.4476 105.728 42.4576 105.981 42.478 106.278C42.5215 106.911 42.6011 107.541 42.7253 108.128C43.0371 109.601 43.5758 110.555 44.3612 110.759C44.445 110.78 44.4953 110.866 44.4736 110.95C44.4519 111.034 44.3663 111.084 44.2824 111.062C43.3434 110.819 42.7529 109.773 42.4185 108.193C42.2909 107.59 42.2096 106.946 42.1651 106.3L42.1489 106.035C42.1369 105.811 42.1312 105.62 42.1297 105.471L42.1294 105.362C42.13 105.275 42.2008 105.206 42.2874 105.206Z" fill="#253368"/>
<path fill-rule="evenodd" clip-rule="evenodd" d="M65.2568 101.766L40.0041 100.617C39.0435 100.573 38.4003 99.6119 38.7262 98.7078L45.0248 81.211C45.2366 80.6221 45.8075 80.2402 46.4323 80.2688L71.6854 81.4183C72.6456 81.4621 73.2888 82.423 72.9633 83.3275L66.6643 100.824C66.4525 101.412 65.8816 101.794 65.2568 101.766Z" fill="#597EF7"/>
<path fill-rule="evenodd" clip-rule="evenodd" d="M66.3025 101.766L41.0498 100.617C40.0897 100.573 39.4464 99.6119 39.7719 98.7078L46.0705 81.211C46.2827 80.6221 46.8532 80.2402 47.478 80.2688L72.7311 81.4183C73.6913 81.4621 74.3345 82.423 74.009 83.3275L67.71 100.824C67.4982 101.412 66.9278 101.794 66.3025 101.766Z" fill="black"/>
<path fill-rule="evenodd" clip-rule="evenodd" d="M22.4136 93.9416C22.4136 93.9416 21.2016 99.536 16.0954 98.3395C10.8886 97.1193 12.3362 91.5061 12.3362 91.5061C12.3362 91.5061 13.1217 87.5907 14.2254 82.8828C15.0874 79.2038 15.7347 76.3777 16.5109 74.0764C17.3479 71.5926 19.7924 69.997 22.1838 70.5572C25.8186 71.4094 26.8025 73.9651 26.3237 76.5286C25.8575 79.021 25.1255 82.3643 24.551 85.1004C23.4461 90.3607 22.4136 93.9416 22.4136 93.9416Z" fill="#125E8A"/>
<path d="M25.2152 80.2826L25.2405 80.2859C25.3253 80.3037 25.3796 80.3868 25.3618 80.4716C24.927 82.5416 24.5007 84.7086 24.0973 86.8635L23.9637 87.5812C23.8708 88.0831 23.7832 88.5621 23.7015 89.0142L23.4497 90.4271L23.3939 90.7473C23.3792 90.8327 23.2981 90.89 23.2128 90.8753C23.1274 90.8606 23.0701 90.7795 23.0848 90.6941L23.2372 89.8266C23.3601 89.1351 23.5003 88.3613 23.6553 87.5241C24.0982 85.1319 24.5712 82.7098 25.0548 80.4071C25.0709 80.3308 25.1398 80.2792 25.2152 80.2826Z" fill="#597EF7"/>
<path fill-rule="evenodd" clip-rule="evenodd" d="M43.7854 102.342C43.7854 102.342 38.8076 102.324 37.8099 100.209C36.9062 98.2934 39.1945 96.809 39.1945 96.809C39.1945 96.809 41.1156 95.8526 43.464 95.3852C45.0027 95.0789 47.841 94.0607 48.2095 94.8061C48.69 95.7781 45.6178 96.3457 45.4558 97.1177C45.1271 98.6823 50.0545 98.2979 50.8871 98.6647C52.5137 99.3811 49.756 102.408 43.7854 102.342Z" fill="#C99382"/>
<path d="M45.9548 99.3882C45.9764 99.3063 46.0603 99.2574 46.1422 99.279L46.2331 99.3013C46.2636 99.3084 46.2998 99.3166 46.3415 99.3257C46.5048 99.3613 46.691 99.3969 46.8969 99.4302C48.0519 99.6169 49.263 99.6512 50.3917 99.4375C50.5198 99.4133 50.6458 99.3859 50.7697 99.3553C50.8519 99.335 50.935 99.3852 50.9553 99.4674C50.9756 99.5497 50.9254 99.6328 50.8432 99.6531C50.7138 99.685 50.5823 99.7136 50.4487 99.7389C49.28 99.9601 48.0351 99.9249 46.8479 99.7329C46.6787 99.7056 46.5222 99.6766 46.3801 99.6473L46.1964 99.6076C46.1361 99.5938 46.0916 99.5829 46.064 99.5756C45.9821 99.554 45.9332 99.4701 45.9548 99.3882Z" fill="#9B6160"/>
<path d="M50.1687 100.441C50.25 100.417 50.3352 100.464 50.3591 100.545C50.383 100.626 50.3365 100.712 50.2553 100.736L50.1872 100.754C50.1577 100.761 50.1214 100.77 50.0784 100.78C49.9371 100.813 49.7715 100.845 49.5828 100.875C48.4294 101.059 47.0355 101.079 45.4583 100.827C45.3747 100.814 45.3177 100.735 45.331 100.651C45.3444 100.568 45.423 100.511 45.5066 100.524C47.0503 100.771 48.4118 100.752 49.5344 100.572C49.6798 100.549 49.8106 100.525 49.926 100.5L50.0097 100.481C50.0895 100.463 50.1429 100.449 50.1687 100.441Z" fill="#9B6160"/>
<path d="M44.607 101.476L44.6845 101.491L44.7154 101.497C44.8093 101.513 44.922 101.529 45.0532 101.544C45.8386 101.636 46.8523 101.649 48.0859 101.53C48.1702 101.522 48.2451 101.584 48.2532 101.668C48.2613 101.753 48.1995 101.828 48.1152 101.836C46.8598 101.956 45.8244 101.943 45.0177 101.849C44.8808 101.833 44.7625 101.816 44.663 101.799L44.5386 101.775C44.456 101.756 44.4044 101.674 44.4233 101.591C44.4403 101.517 44.5086 101.468 44.5823 101.472L44.607 101.476Z" fill="#9B6160"/>
<path fill-rule="evenodd" clip-rule="evenodd" d="M18.5099 89.923C18.5099 89.923 12.6812 89.1869 11.9071 94.0379C11.1085 99.0406 16.6677 100.006 16.6677 100.006C16.6677 100.006 20.5962 100.588 25.4345 101.327C28.3885 101.778 31.6603 102.211 34.0807 102.185C36.7014 102.156 37.1815 100.775 37.5687 98.3495C38.0284 95.4691 37.9249 94.2321 35.4338 93.4617C33.0588 92.7273 29.7572 92.1614 27.2186 91.6069C22.3787 90.5494 18.5099 89.923 18.5099 89.923Z" fill="#125E8A"/>
<path fill-rule="evenodd" clip-rule="evenodd" d="M39.0268 101.392L39.9219 95.7827L36.1967 94.7739L35.1724 101.191L39.0268 101.392Z" fill="#125E8A"/>
<path d="M18.7106 90.0108L19.3923 90.1255L20.0861 90.2464C20.3897 90.3 20.7111 90.3577 21.0488 90.4193L21.2535 90.4568C22.9178 90.7624 24.6691 91.1066 26.4525 91.4857L28.0685 91.8315C29.1993 92.0674 31.1155 92.4568 31.1798 92.4695L31.9109 92.6231C33.4921 92.9603 34.6556 93.2457 35.6561 93.555C36.8859 93.9349 37.5742 94.4402 37.893 95.2127L37.9164 95.2723L40.1383 95.8741C40.2071 95.8927 40.2535 95.9548 40.2541 96.0239L40.2522 96.0501L39.357 101.659C39.3458 101.73 39.289 101.782 39.2203 101.79L39.194 101.791L36.8207 101.667C36.2878 102.257 35.5116 102.552 34.3731 102.582L34.258 102.584C32.2374 102.606 29.6434 102.334 26.0256 101.791L21.5935 101.118L16.8204 100.403C16.7347 100.391 16.6755 100.311 16.6882 100.225C16.7009 100.14 16.7807 100.08 16.8664 100.093L19.4356 100.477L23.3367 101.065L26.0711 101.481C29.6736 102.022 32.2554 102.292 34.2546 102.271C35.411 102.258 36.1481 101.977 36.6337 101.405C36.659 101.376 36.6943 101.357 36.7323 101.352L36.7613 101.35L39.0695 101.47L39.9201 96.1398L37.7562 95.554C37.7143 95.5427 37.6794 95.5146 37.6591 95.4771L37.6488 95.4535C37.394 94.7105 36.7786 94.2301 35.5635 93.8546L35.3407 93.787C34.287 93.4726 33.0345 93.1765 31.302 92.8152L27.5914 92.0518C27.5015 92.0327 27.4238 92.016 27.3612 92.0024C25.4083 91.5758 23.4815 91.1899 21.6521 90.8494L21.1968 90.7652C20.7844 90.6895 20.3952 90.6194 20.0316 90.5552L19.1554 90.4032L18.6605 90.3204C18.575 90.3066 18.5169 90.2261 18.5307 90.1406C18.5432 90.0636 18.6097 90.0088 18.6852 90.0088L18.7106 90.0108Z" fill="#597EF7"/>
<path fill-rule="evenodd" clip-rule="evenodd" d="M68.0489 95.5082C68.0489 95.5082 70.8614 94.4499 71.4948 94.8089C72.4762 95.3651 70.9068 97.0539 70.9068 97.0539C70.9068 97.0539 71.532 98.0169 70.5093 98.7771C70.448 99.9216 69.698 100.156 69.698 100.156C69.698 100.156 69.9442 101.153 68.8643 101.404C67.7843 101.653 66.0096 100.667 66.8479 99.5025C66.4177 98.4643 67.3406 98.0234 67.3406 98.0234C67.3406 98.0234 67.099 97.1087 68.0059 96.7014C67.5995 96.1584 67.7565 95.6215 68.0489 95.5082Z" fill="#C99382"/>
<path d="M70.4571 96.2669C70.5413 96.2573 70.6173 96.3177 70.6269 96.4018C70.6355 96.4775 70.5875 96.5467 70.5164 96.5668L70.492 96.5716L68.0233 96.8537C67.9392 96.8633 67.8632 96.8029 67.8535 96.7188C67.8449 96.6431 67.893 96.5739 67.964 96.5538L67.9885 96.549L70.4571 96.2669Z" fill="#9B6160"/>
<path d="M71.3782 94.7088C71.4335 94.6446 71.5303 94.6374 71.5945 94.6927C71.9024 94.9578 72.0041 95.3037 71.9289 95.6929C71.8702 95.9966 71.7086 96.3122 71.4765 96.6293C71.3752 96.7677 71.2669 96.8972 71.1586 97.0146L71.0858 97.0914L71.1058 97.1506L71.1283 97.2254C71.2101 97.5138 71.2371 97.8127 71.1751 98.0978C71.1123 98.3869 70.961 98.635 70.7112 98.8246L70.6608 98.8606L70.661 98.8659C70.6459 99.3634 70.4972 99.7338 70.2529 99.9894L70.2088 100.033C70.0812 100.154 69.9523 100.23 69.8425 100.272L69.8097 100.283L69.4452 101.134C69.4152 101.204 69.3392 101.241 69.2675 101.223L69.2439 101.215C69.1738 101.185 69.1376 101.109 69.1554 101.037L69.1633 101.014L69.5567 100.095C69.5732 100.056 69.6047 100.027 69.6433 100.012L69.6935 99.9979C69.7107 99.9923 69.7338 99.9836 69.7614 99.9711C69.8414 99.935 69.9221 99.8826 69.9978 99.8108C70.2206 99.5995 70.3563 99.2676 70.3556 98.7772C70.3555 98.7237 70.3834 98.674 70.429 98.6461C70.6791 98.4935 70.8203 98.2864 70.8755 98.0326C70.9252 97.8041 70.9024 97.5531 70.8333 97.3091C70.8076 97.2185 70.7823 97.1516 70.7667 97.117C70.7397 97.0574 70.7536 96.9871 70.8013 96.9422L70.8779 96.8654C70.8946 96.848 70.9131 96.8283 70.9332 96.8066C71.0341 96.6973 71.1351 96.5765 71.229 96.4481C71.4368 96.1644 71.5792 95.8862 71.6278 95.6348C71.6831 95.3484 71.6143 95.1145 71.3944 94.925C71.3302 94.8698 71.323 94.773 71.3782 94.7088Z" fill="#9B6160"/>
<path d="M67.3615 97.8713L69.4932 98.1678C69.5771 98.1794 69.6356 98.2569 69.6239 98.3408C69.6134 98.4163 69.5497 98.4712 69.4759 98.473L69.4509 98.4715L67.3193 98.1751C67.2354 98.1634 67.1768 98.086 67.1885 98.0021C67.199 97.9266 67.2628 97.8716 67.3366 97.8699L67.3615 97.8713Z" fill="#9B6160"/>
<path d="M66.8831 99.3535L68.8578 99.8226C68.9402 99.8421 68.9911 99.9248 68.9716 100.007C68.954 100.081 68.8852 100.13 68.8116 100.125L68.7869 100.121L66.8123 99.6519C66.7299 99.6324 66.679 99.5497 66.6985 99.4673C66.7161 99.3932 66.7849 99.3445 66.8585 99.3498L66.8831 99.3535Z" fill="#9B6160"/>
<path d="M23.473 104.201L44.1128 104.496C44.1994 104.497 44.2686 104.568 44.2673 104.655C44.2662 104.733 44.2084 104.797 44.1338 104.808L44.1083 104.809L23.4686 104.515C23.382 104.514 23.3128 104.443 23.314 104.356C23.3151 104.278 23.3729 104.214 23.4476 104.203L23.473 104.201Z" fill="#253368"/>
<path d="M110.659 159.963C110.626 159.971 110.6 160.008 110.594 160.055L110.276 162.414L111.639 162.075L110.743 160.016C110.728 159.982 110.702 159.961 110.674 159.961C110.668 159.961 110.663 159.962 110.659 159.963Z" fill="#253368"/>
<path d="M118.363 160.275L118.156 161.17C118.111 161.365 118.209 161.564 118.376 161.611C118.542 161.66 118.714 161.539 118.759 161.343L118.966 160.449C119.012 160.252 118.914 160.054 118.747 160.006C118.729 160.002 118.711 159.998 118.693 159.997C118.545 159.985 118.404 160.099 118.363 160.275Z" fill="#50548B"/>
<path d="M110.274 172.968L105.286 176.762H130.185L125.17 172.968H110.274Z" fill="#E4EBF7"/>
<path d="M125.206 176.758L130.186 176.762L125.206 172.968V176.758Z" fill="#A3B5D6"/>
<path d="M109.638 166.459L113.877 190.95C113.974 191.511 114.504 191.887 115.059 191.788L116.947 191.455C117.502 191.357 117.875 190.823 117.777 190.262L113.538 165.771L109.638 166.459Z" fill="#FFA940"/>
<path d="M110.21 162.303L109.639 166.461L113.539 165.773L111.713 162.039L110.21 162.303Z" fill="#FFE7BA"/>
<path d="M110.815 166.265L115.228 191.759L116.821 191.478L112.408 165.984L110.815 166.265Z" fill="#FE9921"/>
<path d="M116.259 189.804L116.195 191.756C116.175 192.36 116.622 192.866 117.194 192.887C117.765 192.908 118.245 192.436 118.265 191.833L118.329 189.88L116.26 189.804H116.259Z" fill="#253368"/>
<path d="M112.19 188.034C112.093 188.596 112.466 189.13 113.022 189.228L114.141 189.424C114.697 189.522 115.226 189.146 115.323 188.585L119.415 164.872L116.282 164.321L112.19 188.034Z" fill="#597EF7"/>
<path d="M117.947 161.32L116.283 164.321L119.418 164.872L118.806 161.468C118.793 161.397 118.737 161.341 118.666 161.329L118.125 161.234C118.116 161.233 118.106 161.232 118.096 161.232C118.035 161.232 117.978 161.265 117.947 161.32Z" fill="#E4EBF7"/>
<path d="M104.884 163.85L103.806 164.606C103.683 164.693 103.637 164.855 103.697 164.994L104.351 166.504C104.42 166.665 104.606 166.738 104.765 166.668L105.945 166.148C106.105 166.077 106.178 165.89 106.108 165.729L105.353 163.983C105.316 163.896 105.241 163.83 105.15 163.804C105.122 163.797 105.093 163.793 105.065 163.793C105.001 163.793 104.938 163.812 104.884 163.85Z" fill="#FF7946"/>
<path d="M104.702 170.788L112.873 189.681L117.293 187.734L109.122 168.841L104.702 170.788Z" fill="#FF7946"/>
<path d="M104.702 170.788L105.418 172.442L109.838 170.495L109.122 168.841L104.702 170.788Z" fill="#253368"/>
<path d="M104.152 166.234L104.262 169.77L104.702 170.788L109.122 168.841L108.685 167.831L106.05 165.398L104.152 166.234Z" fill="#E4EBF7"/>
<path d="M104.261 169.788L104.701 170.806L109.121 168.858L108.681 167.841L104.261 169.788Z" fill="#F5F5F5"/>
<path d="M110.123 174.25L107.778 174.413C107.72 174.417 107.667 174.45 107.636 174.5C107.605 174.551 107.602 174.613 107.625 174.668L107.64 174.703C107.671 174.774 107.742 174.818 107.819 174.812L108.609 174.753C108.685 174.747 108.757 174.792 108.788 174.862L108.988 175.327C109.237 175.901 109.645 176.162 110.197 176.11C110.75 176.06 110.904 175.753 110.664 175.197L110.301 174.359C110.272 174.292 110.206 174.25 110.134 174.25C110.131 174.25 110.127 174.25 110.123 174.25ZM109.627 175.638C109.525 175.566 109.433 175.444 109.359 175.274L109.219 174.951C109.196 174.897 109.2 174.835 109.23 174.784C109.26 174.734 109.313 174.701 109.372 174.697L109.905 174.657C109.982 174.652 110.053 174.695 110.084 174.766L110.271 175.199C110.343 175.364 110.359 175.492 110.324 175.576C110.289 175.659 110.194 175.711 110.03 175.726C110.004 175.728 109.976 175.729 109.951 175.729C109.822 175.729 109.712 175.699 109.627 175.638Z" fill="white"/>
<path d="M111.034 176.368L108.716 176.592C108.658 176.598 108.607 176.631 108.577 176.681C108.548 176.731 108.544 176.793 108.567 176.845L109.181 178.267C109.213 178.34 109.289 178.383 109.367 178.374C109.424 178.368 109.475 178.334 109.503 178.284C109.532 178.234 109.535 178.174 109.512 178.121L109.112 177.197C109.09 177.143 109.094 177.082 109.123 177.032C109.152 176.982 109.203 176.949 109.26 176.944L109.699 176.904C109.777 176.896 109.85 176.939 109.881 177.011L110.307 177.995C110.339 178.069 110.415 178.113 110.494 178.104C110.55 178.097 110.6 178.063 110.629 178.013C110.657 177.964 110.661 177.903 110.638 177.85L110.305 177.08C110.282 177.026 110.286 176.965 110.315 176.916C110.344 176.866 110.396 176.833 110.453 176.827L110.822 176.79C110.9 176.782 110.973 176.825 111.005 176.897L111.457 177.941C111.489 178.015 111.564 178.058 111.643 178.049C111.7 178.042 111.751 178.009 111.778 177.958C111.807 177.907 111.81 177.846 111.785 177.793L111.216 176.476C111.187 176.409 111.122 176.367 111.051 176.367C111.046 176.367 111.04 176.368 111.034 176.368Z" fill="white"/>
<path d="M105.523 181.268V193.365C105.523 193.887 105.938 194.31 106.448 194.31H129.261C129.771 194.31 130.186 193.887 130.186 193.365V181.268H105.523Z" fill="#597EF7"/>
<path d="M105.523 178.659V185.536L130.186 183.575V178.659H105.523Z" fill="#3D60E0"/>
<path d="M119.629 178.331C121.129 179.204 123.072 178.642 123.968 177.076L125.591 174.239L122.875 172.657C121.376 171.783 119.432 172.345 118.536 173.911C117.64 175.477 118.13 177.457 119.629 178.331Z" fill="#0ACF83"/>
<path d="M125.044 162.535C125.942 160.963 127.889 160.397 129.388 161.271L132.104 162.854L128.848 168.547L126.131 166.964C124.632 166.09 124.145 164.106 125.044 162.535Z" fill="#F24E1E"/>
<path d="M132.104 162.854L134.82 164.437C136.32 165.31 136.807 167.294 135.908 168.866C135.009 170.437 133.063 171.003 131.564 170.129L128.847 168.547L132.104 162.854Z" fill="#FF7262"/>
<path d="M132.663 174.54C131.764 176.111 129.818 176.677 128.318 175.803C126.819 174.93 126.332 172.945 127.231 171.374C128.129 169.803 130.076 169.237 131.575 170.11C133.074 170.984 133.562 172.968 132.663 174.54Z" fill="#1ABCFE"/>
<path d="M121.798 168.209C122.697 166.637 124.643 166.071 126.143 166.945L128.859 168.528L125.602 174.22L122.886 172.638C121.386 171.764 120.899 169.78 121.798 168.209Z" fill="#A259FF"/>
<path d="M105.383 176.762L102.976 182.248C102.884 182.447 102.897 182.679 103.009 182.865C103.122 183.051 103.32 183.164 103.531 183.165H131.94C132.156 183.165 132.357 183.047 132.469 182.854C132.58 182.662 132.586 182.423 132.485 182.225L130.127 176.762H105.383Z" fill="#E4EBF7"/>
<g clip-path="url(#clip1)">
<path d="M149.843 81.4849C150.092 81.8726 150.609 81.9848 150.996 81.7356C151.261 81.5655 151.397 81.2711 151.378 80.978C151.372 80.8377 151.33 80.7036 151.259 80.5867C151.065 80.1154 150.604 78.6667 151.85 77.7974L151.862 77.7899C152.239 77.5387 152.346 77.0298 152.099 76.6465C151.85 76.2592 151.335 76.1467 150.948 76.3952C150.583 76.6298 150.463 77.1026 150.661 77.4807L150.656 77.4794C150.656 77.4794 150.664 77.4902 150.678 77.5111C150.685 77.5229 150.692 77.5346 150.699 77.5461C150.7 77.5468 150.7 77.5475 150.701 77.5482C150.701 77.5486 150.701 77.549 150.701 77.5494C150.868 77.8335 151.375 78.9522 150.035 80.356L150.035 80.356C149.886 80.4715 149.775 80.6381 149.732 80.8368C149.726 80.8642 149.722 80.8915 149.718 80.9187C149.692 81.1095 149.731 81.3103 149.843 81.4849Z" fill="#023047" fill-opacity="0.78"/>
<path d="M156.799 72.8349C156.106 73.3971 155.092 73.2976 154.52 72.6162L154.503 72.5954C152.538 70.3516 149.814 71.5613 148.94 72.0403C148.241 72.5829 147.233 72.4693 146.673 71.7785C146.105 71.0784 146.212 70.0505 146.912 69.4826C147.48 69.022 148.264 69.0055 148.842 69.3895L148.843 69.3801C152.023 71.9932 154.205 70.7016 154.737 70.3041L154.743 70.2995C154.764 70.2826 154.785 70.2664 154.806 70.2507C154.844 70.2198 154.864 70.2016 154.864 70.2016L154.862 70.2113C155.555 69.7453 156.502 69.8776 157.039 70.539C157.607 71.2391 157.499 72.267 156.799 72.8349Z" fill="#023047" fill-opacity="0.78"/>
</g>
<path fill-rule="evenodd" clip-rule="evenodd" d="M178.911 119.327H59.9869C59.1745 119.327 58.5161 117.811 58.5161 115.942C58.5161 114.072 59.1745 112.557 59.9869 112.557H178.911C179.724 112.557 180.382 114.072 180.382 115.942C180.382 117.811 179.724 119.327 178.911 119.327Z" fill="#CCD7EE"/>
<path fill-rule="evenodd" clip-rule="evenodd" d="M72.0571 190.415H77.1349V119.327H72.0571V190.415Z" fill="#597EF7"/>
<path fill-rule="evenodd" clip-rule="evenodd" d="M79.6736 193.801H69.5181C69.5181 191.931 70.2894 190.416 71.241 190.416H77.9506C78.902 190.416 79.6736 191.931 79.6736 193.801Z" fill="#253368"/>
<path fill-rule="evenodd" clip-rule="evenodd" d="M169.381 193.801H159.225C159.225 191.931 159.997 190.416 160.948 190.416H167.658C168.609 190.416 169.381 191.931 169.381 193.801Z" fill="#253368"/>
<path fill-rule="evenodd" clip-rule="evenodd" d="M161.764 190.415H166.841V119.327H161.764V190.415Z" fill="#597EF7"/>
<path fill-rule="evenodd" clip-rule="evenodd" d="M160.696 104.066H157.619V93.5254C157.619 92.6865 158.304 92.0063 159.149 92.0063H159.165C160.011 92.0063 160.696 92.6865 160.696 93.5254V104.066Z" fill="#7CB305"/>
<path fill-rule="evenodd" clip-rule="evenodd" d="M162.226 106.646H159.14V101.142C159.14 100.325 159.81 99.6628 160.637 99.6628H160.729C161.556 99.6628 162.226 100.325 162.226 101.142V106.646Z" fill="#5B8C00"/>
<path fill-rule="evenodd" clip-rule="evenodd" d="M158.07 104.06H154.964V98.076C154.964 97.2545 155.636 96.5886 156.465 96.5886H156.57C157.399 96.5886 158.07 97.2545 158.07 98.076V104.06Z" fill="#7CB305"/>
<path fill-rule="evenodd" clip-rule="evenodd" d="M162.409 112.803H154.329C154.009 112.803 153.75 112.546 153.75 112.23V104.282C153.75 103.966 154.009 103.71 154.329 103.71H162.409C162.728 103.71 162.987 103.966 162.987 104.282V112.23C162.987 112.546 162.728 112.803 162.409 112.803Z" fill="#253368"/>
<path fill-rule="evenodd" clip-rule="evenodd" d="M160.85 99.1276C160.85 99.1276 160.503 95.6896 164.252 94.1424C168.001 92.5953 168.834 93.4119 168.834 93.4119L168.487 94.7871C168.487 94.7871 167.897 98.2252 165.189 98.6979C162.482 99.1706 161.44 98.483 160.85 99.1276Z" fill="#7CB305"/>
<path d="M168.432 93.574L168.541 93.6794L168.532 93.6935C168.528 93.6996 168.523 93.7069 168.518 93.7156L168.5 93.741C168.488 93.7586 168.475 93.7776 168.46 93.798L168.449 93.8135C168.373 93.9182 168.281 94.0345 168.173 94.1596C167.865 94.5161 167.491 94.8724 167.048 95.2046C166.158 95.872 165.107 96.357 163.89 96.5829L163.845 96.5911C163.026 96.7384 162.373 97.0753 161.868 97.5441C161.625 97.769 161.432 98.0096 161.285 98.2497C161.234 98.3332 161.192 98.4106 161.158 98.4797L161.147 98.5026C161.142 98.5136 161.138 98.5239 161.133 98.5334L161.122 98.5609L161.121 98.5627L160.996 98.4891L160.999 98.4794C161.007 98.4598 161.02 98.4301 161.039 98.3916C161.075 98.3171 161.12 98.2344 161.174 98.1456C161.33 97.8932 161.531 97.6412 161.784 97.4065C162.301 96.9275 162.964 96.5824 163.789 96.4276L163.825 96.421C165.043 96.2022 166.091 95.7215 166.976 95.0576C167.41 94.7317 167.777 94.3827 168.078 94.0341C168.176 93.9205 168.26 93.8146 168.331 93.7188L168.346 93.6984C168.368 93.6683 168.387 93.6411 168.403 93.6171L168.421 93.5899L168.432 93.574Z" fill="#7CB305"/>
<path fill-rule="evenodd" clip-rule="evenodd" d="M168.382 101.448H168.834V93.4119H168.382L168.504 95.8812C168.539 96.5838 168.542 97.2882 168.515 97.9914L168.382 101.448Z" fill="#7CB305"/>
<path fill-rule="evenodd" clip-rule="evenodd" d="M161.433 87.3608C161.433 87.3608 162.814 84.7595 166.106 86.4077C169.398 88.0559 169.563 89.3721 169.563 89.3721L168.698 89.9053C168.698 89.9053 166.675 91.8301 164.602 90.1989C162.528 88.5678 162.14 87.3459 161.433 87.3608Z" fill="#7CB305"/>
<path fill-rule="evenodd" clip-rule="evenodd" d="M169.111 103.683H169.459L169.595 89.4966C169.596 89.3216 169.503 89.1669 169.367 89.1188L169.111 89.0283C169.111 89.0283 169.199 90.3465 169.181 91.9936C169.164 93.5693 169.042 95.4443 169.042 96.8329C169.042 100.761 169.111 103.683 169.111 103.683Z" fill="#7CB305"/>
<path fill-rule="evenodd" clip-rule="evenodd" d="M166.126 87.2664C167.624 88.7058 169.146 89.6301 169.146 89.6301L168.698 89.9054C168.698 89.9054 166.675 91.8302 164.602 90.1991C162.528 88.5679 162.14 87.3461 161.433 87.3609C161.433 87.3609 163.801 85.0317 166.126 87.2664Z" fill="#5B8C00"/>
<path fill-rule="evenodd" clip-rule="evenodd" d="M177.676 93.5137C177.676 93.5137 176.744 91.7678 174.524 92.8741C172.303 93.9803 172.192 94.8637 172.192 94.8637L172.775 95.2216C172.775 95.2216 174.14 96.5135 175.539 95.4187C176.937 94.3239 177.199 93.5038 177.676 93.5137Z" fill="#7CB305"/>
<path fill-rule="evenodd" clip-rule="evenodd" d="M172.491 104.54H172.251L172.157 94.9716C172.156 94.8536 172.22 94.7492 172.314 94.7168L172.491 94.6558C172.491 94.6558 172.431 95.5448 172.443 96.6558C172.455 97.7186 172.539 98.9832 172.539 99.9199C172.539 102.569 172.491 104.54 172.491 104.54Z" fill="#7CB305"/>
<path fill-rule="evenodd" clip-rule="evenodd" d="M177.936 84.0517C177.936 84.0517 176.554 81.4504 173.262 83.0986C169.971 84.7469 169.806 86.063 169.806 86.063L170.67 86.5962C170.67 86.5962 172.693 88.521 174.767 86.8898C176.841 85.2587 177.229 84.0368 177.936 84.0517Z" fill="#7CB305"/>
<path fill-rule="evenodd" clip-rule="evenodd" d="M170.257 100.933H169.909L169.773 86.1875C169.772 86.0125 169.865 85.8578 170.001 85.8097L170.257 85.7192C170.257 85.7192 170.169 87.0374 170.187 88.6845C170.204 90.2602 170.326 92.1352 170.326 93.5238C170.326 97.4516 170.257 100.933 170.257 100.933Z" fill="#7CB305"/>
<path fill-rule="evenodd" clip-rule="evenodd" d="M177.936 84.0518C177.936 84.0518 175.568 81.7226 173.242 83.9573C171.744 85.3967 170.222 86.321 170.222 86.321L170.67 86.5964C170.67 86.5964 172.693 88.5212 174.767 86.89C176.841 85.2589 177.229 84.037 177.936 84.0518Z" fill="#5B8C00"/>
<path fill-rule="evenodd" clip-rule="evenodd" d="M170.881 100.804H171.472L171.705 91.6705L171.26 83.0503C171.262 82.8753 171.169 82.7206 171.033 82.6725L170.777 82.582C170.777 82.582 171.333 89.4277 171.333 90.8164C171.333 94.7442 170.881 100.804 170.881 100.804Z" fill="#7CB305"/>
<path fill-rule="evenodd" clip-rule="evenodd" d="M164.241 77.759C164.241 77.759 165.501 75.4481 168.487 77.7688C171.494 80.1065 171.285 83.1733 171.285 83.1733L170.324 83.2971C170.324 83.2971 167.885 84.2212 166.405 81.7931C164.925 79.365 164.907 78.0522 164.241 77.759Z" fill="#7CB305"/>
<path fill-rule="evenodd" clip-rule="evenodd" d="M164.241 77.7588C164.241 77.7588 165.598 76.5206 166.751 78.2843C167.341 79.1868 168.385 79.8672 168.834 80.3901C169.999 81.7486 170.822 83.2336 170.822 83.2336L170.324 83.2968C170.324 83.2968 167.885 84.221 166.405 81.7928C164.925 79.3647 164.907 78.0519 164.241 77.7588Z" fill="#5B8C00"/>
<path fill-rule="evenodd" clip-rule="evenodd" d="M174.171 112.837H166.118C165.658 112.837 165.285 112.375 165.285 111.805V101.835C165.285 101.265 165.658 100.804 166.118 100.804H174.171C174.631 100.804 175.004 101.265 175.004 101.835V111.805C175.004 112.375 174.631 112.837 174.171 112.837Z" fill="#253368"/>
<path fill-rule="evenodd" clip-rule="evenodd" d="M150.733 82.176C154.888 80.2107 157.365 85.365 155.275 88.2349C152.725 91.737 151.419 95.7667 150.691 96.9808C150.078 98.005 148.397 100.502 146.373 99.3511C144.51 98.2919 145.525 94.1349 145.525 94.1349C145.525 94.1349 145.607 84.6005 150.733 82.176Z" fill="#5B8C00"/>
<path fill-rule="evenodd" clip-rule="evenodd" d="M138.235 98.5507C136.823 96.645 136.307 93.9101 137.884 93.2088C139.395 92.5364 141.9 94.1919 143.059 97.3781C144.219 100.564 144.888 102.855 143.754 103.253C141.892 103.907 140.101 101.068 138.235 98.5507Z" fill="#5B8C00"/>
<path fill-rule="evenodd" clip-rule="evenodd" d="M153.086 98.6954C151.488 100.568 149.183 104.334 147.738 103.015C146.863 102.216 148.033 98.4297 151.237 96.3698C153.961 94.6176 154.684 96.8231 153.086 98.6954Z" fill="#7CB305"/>
<path fill-rule="evenodd" clip-rule="evenodd" d="M137.798 85.7026C138.405 85.2939 139.169 85.2005 139.867 85.4239C140.84 85.7356 142.317 86.6638 143.779 89.328C145.687 92.8065 146.681 96.6198 146.485 99.0353C146.356 100.615 144.41 101.296 143.321 100.144C142.821 99.6152 142.292 98.7998 141.775 97.5628C139.692 92.5849 137.744 89.4655 137.512 89.1523C136.892 88.3165 136.449 86.6099 137.798 85.7026Z" fill="#7CB305"/>
<path fill-rule="evenodd" clip-rule="evenodd" d="M139.194 87.6881C139.215 87.9339 139.032 88.1498 138.787 88.1704C138.541 88.1911 138.325 88.0085 138.304 87.7627C138.284 87.517 138.466 87.3011 138.712 87.2804C138.958 87.2598 139.174 87.4423 139.194 87.6881Z" fill="white"/>
<path fill-rule="evenodd" clip-rule="evenodd" d="M142.988 89.5948C143.008 89.8405 142.826 90.0565 142.58 90.0771C142.334 90.0978 142.118 89.9152 142.098 89.6694C142.077 89.4237 142.259 89.2077 142.505 89.1871C142.751 89.1665 142.967 89.349 142.988 89.5948Z" fill="white"/>
<path fill-rule="evenodd" clip-rule="evenodd" d="M142.352 94.6715C142.375 94.9529 142.166 95.2002 141.885 95.2238C141.603 95.2475 141.356 95.0384 141.333 94.7569C141.309 94.4755 141.518 94.2282 141.799 94.2046C142.081 94.1809 142.328 94.39 142.352 94.6715Z" fill="white"/>
<path fill-rule="evenodd" clip-rule="evenodd" d="M154.003 87.0846C154.003 87.484 153.679 87.8079 153.279 87.8079C152.88 87.8079 152.556 87.484 152.556 87.0846C152.556 86.6852 152.88 86.3613 153.279 86.3613C153.679 86.3613 154.003 86.6852 154.003 87.0846Z" fill="white"/>
<path fill-rule="evenodd" clip-rule="evenodd" d="M148.18 89.2932C148.18 89.6926 147.856 90.0165 147.457 90.0165C147.058 90.0165 146.734 89.6926 146.734 89.2932C146.734 88.8938 147.058 88.57 147.457 88.57C147.856 88.57 148.18 88.8938 148.18 89.2932Z" fill="white"/>
<path fill-rule="evenodd" clip-rule="evenodd" d="M150.066 94.2028C150.066 94.3697 149.931 94.5051 149.764 94.5051C149.597 94.5051 149.461 94.3697 149.461 94.2028C149.461 94.0358 149.597 93.9004 149.764 93.9004C149.931 93.9004 150.066 94.0358 150.066 94.2028Z" fill="white"/>
<path fill-rule="evenodd" clip-rule="evenodd" d="M152.244 98.0688C152.244 98.3155 152.044 98.5154 151.797 98.5154C151.551 98.5154 151.351 98.3155 151.351 98.0688C151.351 97.8222 151.551 97.6222 151.797 97.6222C152.044 97.6222 152.244 97.8222 152.244 98.0688Z" fill="white"/>
<path d="M141.813 99.0594C141.855 99.0197 141.921 99.0213 141.96 99.0629L141.98 99.0834L141.994 99.0994C142.02 99.1287 142.051 99.1637 142.085 99.2043C142.181 99.3197 142.289 99.4576 142.405 99.6179C142.735 100.075 143.064 100.619 143.371 101.252C144.249 103.056 144.775 105.199 144.775 107.672C144.775 107.73 144.728 107.777 144.671 107.777C144.613 107.777 144.566 107.73 144.566 107.672C144.566 105.231 144.048 103.119 143.184 101.343C142.882 100.722 142.559 100.187 142.236 99.7398C142.13 99.5929 142.031 99.4656 141.942 99.3581L141.925 99.3381C141.9 99.3079 141.877 99.2811 141.856 99.2577L141.83 99.2284C141.82 99.2177 141.813 99.2105 141.81 99.2066C141.77 99.165 141.772 99.0991 141.813 99.0594Z" fill="#253368"/>
<path d="M149.681 99.7883C149.715 99.7422 149.78 99.7327 149.826 99.7671C149.872 99.8015 149.882 99.8668 149.847 99.9129C149.468 100.421 149.118 100.967 148.796 101.546C148.116 102.77 147.59 104.082 147.199 105.394C147.063 105.853 146.953 106.28 146.867 106.662L146.85 106.741C146.829 106.834 146.812 106.92 146.797 106.996L146.787 107.046L146.77 107.141C146.76 107.197 146.706 107.235 146.65 107.226C146.593 107.216 146.555 107.163 146.564 107.106L146.57 107.072C146.575 107.045 146.581 107.013 146.588 106.977L146.605 106.89C146.622 106.808 146.642 106.716 146.664 106.617L146.683 106.533C146.766 106.168 146.871 105.766 147 105.335C147.394 104.009 147.926 102.683 148.614 101.445C148.94 100.858 149.295 100.304 149.681 99.7883Z" fill="#253368"/>
<path d="M151.5 86.7963C151.54 86.8345 151.543 86.8968 151.508 86.9384L151.503 86.9435C151.501 86.9456 151.497 86.9503 151.49 86.9575L151.465 86.9855L151.45 87.002C151.405 87.0519 151.353 87.1121 151.294 87.1825C151.125 87.3842 150.937 87.6269 150.734 87.9108C150.154 88.7233 149.573 89.7018 149.031 90.8474C148.129 92.7548 147.425 94.9303 146.999 97.3759C146.482 100.346 146.396 103.59 146.82 107.111C146.827 107.168 146.786 107.22 146.729 107.227C146.672 107.234 146.62 107.193 146.613 107.136C146.187 103.595 146.273 100.33 146.794 97.3402C147.224 94.8757 147.932 92.6824 148.843 90.7583C149.391 89.6012 149.978 88.6121 150.565 87.7898L150.611 87.7264C150.792 87.4756 150.961 87.2575 151.115 87.0719L151.134 87.0489C151.19 86.9827 151.239 86.9251 151.283 86.8761L151.295 86.8629C151.308 86.8477 151.321 86.8343 151.331 86.8227L151.353 86.7994C151.393 86.7579 151.459 86.7565 151.5 86.7963Z" fill="#253368"/>
<path d="M142.487 92.9715C142.536 92.9417 142.6 92.9575 142.63 93.0066L142.64 93.0242C142.648 93.0383 142.658 93.0551 142.669 93.0746L142.686 93.1032C142.714 93.1523 142.745 93.2087 142.78 93.2723L142.808 93.3253C142.914 93.5225 143.03 93.7506 143.154 94.0091L143.171 94.0445C143.575 94.8914 143.979 95.8817 144.356 97.0071C145.412 100.158 146.054 103.735 146.078 107.672C146.079 107.729 146.032 107.776 145.975 107.777C145.917 107.777 145.87 107.731 145.87 107.673C145.846 103.759 145.208 100.204 144.159 97.0733C143.791 95.9765 143.398 95.0094 143.005 94.1801L142.983 94.1342C142.849 93.8525 142.724 93.6067 142.611 93.3977L142.577 93.3351C142.544 93.2756 142.515 93.2234 142.489 93.1784L142.477 93.1571L142.452 93.1146C142.422 93.0654 142.437 93.0014 142.487 92.9715Z" fill="#253368"/>
<path fill-rule="evenodd" clip-rule="evenodd" d="M150.501 112.838H141.5C141.013 112.838 140.615 112.44 140.615 111.953V105.386C140.615 104.9 141.013 104.502 141.5 104.502H150.501C150.988 104.502 151.386 104.9 151.386 105.386V111.953C151.386 112.44 150.988 112.838 150.501 112.838Z" fill="#253368"/>
<path fill-rule="evenodd" clip-rule="evenodd" d="M104.028 110.359H113.792V102.687H104.028V110.359Z" fill="#253368"/>
<path fill-rule="evenodd" clip-rule="evenodd" d="M119.708 112.986H98.4364C97.5697 112.986 96.8672 112.283 96.8672 111.417C96.8672 110.55 97.5697 109.847 98.4364 109.847H119.708C120.574 109.847 121.277 110.55 121.277 111.417C121.277 112.283 120.574 112.986 119.708 112.986Z" fill="#04395E"/>
<path fill-rule="evenodd" clip-rule="evenodd" d="M141.714 103.185H75.6377C74.0156 103.185 72.7007 101.87 72.7007 100.248V59.9763C72.7007 58.3542 74.0156 57.0393 75.6377 57.0393H141.714C143.336 57.0393 144.651 58.3542 144.651 59.9763V100.248C144.651 101.87 143.336 103.185 141.714 103.185Z" fill="#04395E"/>
<path fill-rule="evenodd" clip-rule="evenodd" d="M140.361 100.8H76.6578C75.9553 100.8 75.3857 100.219 75.3857 99.503V61.5248C75.3857 60.8085 75.9553 60.2278 76.6578 60.2278H140.361C141.063 60.2278 141.633 60.8085 141.633 61.5248V99.503C141.633 100.219 141.063 100.8 140.361 100.8Z" fill="#FBF3E6"/>
<path fill-rule="evenodd" clip-rule="evenodd" d="M127.809 69.2162H89.4985V66.5742C89.4985 66.0011 89.9651 65.5364 90.5405 65.5364H126.767C127.342 65.5364 127.809 66.0011 127.809 66.5742V69.2162Z" fill="#41D3BD"/>
<path fill-rule="evenodd" clip-rule="evenodd" d="M92.185 67.2641C92.185 67.6238 91.894 67.9154 91.5351 67.9154C91.1762 67.9154 90.8853 67.6238 90.8853 67.2641C90.8853 66.9044 91.1762 66.6128 91.5351 66.6128C91.894 66.6128 92.185 66.9044 92.185 67.2641Z" fill="#FF7946"/>
<path fill-rule="evenodd" clip-rule="evenodd" d="M94.6112 67.2641C94.6112 67.6238 94.3203 67.9154 93.9614 67.9154C93.6025 67.9154 93.3115 67.6238 93.3115 67.2641C93.3115 66.9044 93.6025 66.6128 93.9614 66.6128C94.3203 66.6128 94.6112 66.9044 94.6112 67.2641Z" fill="#FAAD14"/>
<path fill-rule="evenodd" clip-rule="evenodd" d="M97.038 67.2641C97.038 67.6238 96.747 67.9154 96.3881 67.9154C96.0292 67.9154 95.7383 67.6238 95.7383 67.2641C95.7383 66.9044 96.0292 66.6128 96.3881 66.6128C96.747 66.6128 97.038 66.9044 97.038 67.2641Z" fill="#7CB305"/>
<path fill-rule="evenodd" clip-rule="evenodd" d="M90.6589 94.6042C90.0181 94.6042 89.4985 94.1402 89.4985 93.5678V68.8909H127.811V93.5678C127.811 94.1402 127.291 94.6042 126.65 94.6042H90.6589Z" fill="#E4EBF7"/>
<path d="M124.779 71.0142H102.594C102.339 71.0142 102.132 71.2212 102.132 71.4766V92.1726C102.132 92.4279 102.339 92.635 102.594 92.635H124.779C125.034 92.635 125.241 92.4279 125.241 92.1726V71.4766C125.241 71.2212 125.034 71.0142 124.779 71.0142Z" fill="white"/>
<path d="M99.9744 70.9756H92.4258C92.1704 70.9756 91.9634 71.1826 91.9634 71.438V92.134C91.9634 92.3894 92.1704 92.5964 92.4258 92.5964H99.9744C100.23 92.5964 100.437 92.3894 100.437 92.134V71.438C100.437 71.1826 100.23 70.9756 99.9744 70.9756Z" fill="white"/>
<path d="M98.3112 79.4695H94.0752C93.9301 79.4695 93.8125 79.5871 93.8125 79.7321V80.3818C93.8125 80.5268 93.9301 80.6444 94.0752 80.6444H98.3112C98.4563 80.6444 98.5739 80.5268 98.5739 80.3818V79.7321C98.5739 79.5871 98.4563 79.4695 98.3112 79.4695Z" fill="#ADC6FF"/>
<path d="M98.3152 81.7473H94.0712C93.9283 81.7473 93.8125 81.8631 93.8125 82.006V82.628C93.8125 82.7708 93.9283 82.8866 94.0712 82.8866H98.3152C98.4581 82.8866 98.5739 82.7708 98.5739 82.628V82.006C98.5739 81.8631 98.4581 81.7473 98.3152 81.7473Z" fill="#FF7946"/>
<path d="M98.3152 83.9868H94.0712C93.9283 83.9868 93.8125 84.1026 93.8125 84.2455V84.8675C93.8125 85.0103 93.9283 85.1261 94.0712 85.1261H98.3152C98.4581 85.1261 98.5739 85.0103 98.5739 84.8675V84.2455C98.5739 84.1026 98.4581 83.9868 98.3152 83.9868Z" fill="#FAAD14"/>
<path d="M98.3152 86.2261H94.0712C93.9283 86.2261 93.8125 86.3419 93.8125 86.4847V87.1067C93.8125 87.2496 93.9283 87.3654 94.0712 87.3654H98.3152C98.4581 87.3654 98.5739 87.2496 98.5739 87.1067V86.4847C98.5739 86.3419 98.4581 86.2261 98.3152 86.2261Z" fill="#597EF7"/>
<path d="M118 80.9753H104.751C104.581 80.9753 104.443 81.1134 104.443 81.2836V81.2848C104.443 81.4551 104.581 81.5931 104.751 81.5931H118C118.17 81.5931 118.309 81.4551 118.309 81.2848V81.2836C118.309 81.1134 118.17 80.9753 118 80.9753Z" fill="#ADC6FF"/>
<path d="M118 84.1411H104.751C104.581 84.1411 104.443 84.2791 104.443 84.4494V84.4506C104.443 84.6208 104.581 84.7588 104.751 84.7588H118C118.17 84.7588 118.309 84.6208 118.309 84.4506V84.4494C118.309 84.2791 118.17 84.1411 118 84.1411Z" fill="#ADC6FF"/>
<path d="M122.622 82.5195H104.751C104.581 82.5195 104.443 82.6576 104.443 82.8278V82.829C104.443 82.9993 104.581 83.1373 104.751 83.1373H122.622C122.792 83.1373 122.93 82.9993 122.93 82.829V82.8278C122.93 82.6576 122.792 82.5195 122.622 82.5195Z" fill="#ADC6FF"/>
<path d="M122.314 73.0991H105.059C104.719 73.0991 104.443 73.3752 104.443 73.7157V79.4321C104.443 79.7726 104.719 80.0487 105.059 80.0487H122.314C122.654 80.0487 122.93 79.7726 122.93 79.4321V73.7157C122.93 73.3752 122.654 73.0991 122.314 73.0991Z" fill="#597EF7"/>
<path d="M122.005 86.1487H115.381C114.871 86.1487 114.457 86.5627 114.457 87.0735V89.6253C114.457 90.136 114.871 90.5501 115.381 90.5501H122.005C122.516 90.5501 122.93 90.136 122.93 89.6253V87.0735C122.93 86.5627 122.516 86.1487 122.005 86.1487Z" fill="#FF7946"/>
<path d="M96.1928 77.0999C97.3674 77.0999 98.3197 76.1369 98.3197 74.9489C98.3197 73.7609 97.3674 72.7979 96.1928 72.7979C95.0182 72.7979 94.0659 73.7609 94.0659 74.9489C94.0659 76.1369 95.0182 77.0999 96.1928 77.0999Z" fill="#FAAD14"/>
<path d="M96.1929 77.1002C96.8059 77.1005 97.3876 76.8266 97.782 76.352C97.4713 75.7553 96.8593 75.3818 96.1925 75.3818C95.5257 75.3818 94.9138 75.7553 94.603 76.352C94.9976 76.8267 95.5796 77.1006 96.1929 77.1002Z" fill="#253368"/>
<path d="M96.2042 75.4674C96.646 75.4674 97.0041 75.1052 97.0041 74.6584C97.0041 74.2116 96.646 73.8494 96.2042 73.8494C95.7624 73.8494 95.4043 74.2116 95.4043 74.6584C95.4043 75.1052 95.7624 75.4674 96.2042 75.4674Z" fill="#253368"/>
<g clip-path="url(#clip2)">
<path fill-rule="evenodd" clip-rule="evenodd" d="M57.3997 122.699C57.6966 122.787 57.9216 122.91 58.0746 123.065C58.2274 123.221 58.3391 123.468 58.4093 123.807L58.878 126.063C58.9213 126.271 58.9949 126.408 59.0988 126.473C59.2026 126.537 59.3628 126.547 59.5794 126.502L59.8718 126.442C59.9728 126.421 60.0615 126.43 60.1377 126.471C60.2139 126.511 60.2677 126.607 60.2991 126.758C60.323 126.873 60.3077 126.972 60.2534 127.055C60.1989 127.138 60.1248 127.189 60.031 127.208L59.3813 127.343C59.0274 127.417 58.7503 127.397 58.5501 127.285C58.3498 127.173 58.2108 126.929 58.1331 126.555L57.6576 124.267C57.5126 123.569 57.1778 123.244 56.6533 123.293C56.5347 123.303 56.429 123.283 56.3362 123.235C56.2432 123.187 56.1842 123.102 56.1588 122.979C56.1334 122.857 56.1569 122.753 56.2293 122.666C56.3017 122.58 56.3977 122.517 56.5176 122.477C56.7844 122.384 56.95 122.22 57.0142 121.985C57.0784 121.75 57.0656 121.417 56.9759 120.985L56.5565 118.967C56.4848 118.621 56.5305 118.334 56.6938 118.105C56.857 117.876 57.0904 117.73 57.3936 117.667L58.0217 117.536C58.1154 117.517 58.206 117.526 58.293 117.564C58.38 117.602 58.4392 117.697 58.4706 117.848C58.5134 117.982 58.5047 118.085 58.4445 118.158C58.3843 118.23 58.2963 118.279 58.1809 118.303L57.8669 118.368C57.6574 118.411 57.5201 118.485 57.4552 118.588C57.39 118.692 57.3837 118.87 57.436 119.122L57.889 121.302C58.0012 121.842 57.8381 122.308 57.3997 122.699Z" fill="#023047" fill-opacity="0.78"/>
<path fill-rule="evenodd" clip-rule="evenodd" d="M61.9976 120.449L61.5446 118.268C61.4923 118.016 61.4157 117.856 61.3147 117.787C61.2138 117.717 61.0587 117.705 60.8492 117.748L60.5351 117.813C60.4197 117.837 60.3199 117.828 60.2356 117.786C60.1516 117.743 60.1025 117.652 60.0884 117.512C60.057 117.361 60.0736 117.251 60.1382 117.181C60.2028 117.111 60.2822 117.067 60.3759 117.047L61.004 116.917C61.3072 116.854 61.5795 116.895 61.8204 117.04C62.0615 117.185 62.2178 117.43 62.2896 117.776L62.7089 119.794C62.7986 120.226 62.9197 120.537 63.0721 120.727C63.2245 120.916 63.4417 121.001 63.7234 120.98C63.8493 120.969 63.9624 120.988 64.0633 121.039C64.1641 121.089 64.2272 121.175 64.2526 121.298C64.2781 121.42 64.2579 121.522 64.1918 121.603C64.1259 121.684 64.0367 121.744 63.9241 121.783C63.4235 121.947 63.2457 122.378 63.3907 123.076L63.8661 125.364C63.9438 125.738 63.9132 126.017 63.7742 126.2C63.6353 126.382 63.3888 126.511 63.035 126.584L62.3852 126.719C62.2915 126.739 62.2032 126.721 62.1203 126.667C62.0375 126.613 61.9841 126.528 61.9602 126.413C61.9288 126.262 61.94 126.153 61.9937 126.085C62.0475 126.018 62.125 125.974 62.226 125.953L62.5184 125.892C62.735 125.847 62.878 125.774 62.9475 125.673C63.0169 125.572 63.0299 125.418 62.9866 125.209L62.5179 122.953C62.4476 122.615 62.4517 122.344 62.5297 122.14C62.6079 121.936 62.7657 121.734 63.0027 121.535C62.4448 121.351 62.1098 120.988 61.9976 120.449Z" fill="#023047" fill-opacity="0.78"/>
</g>
<defs>
<clipPath id="clip0">
<rect width="16.2442" height="16.2442" fill="white" transform="translate(114.304 23.1096) rotate(13.3661)"/>
</clipPath>
<clipPath id="clip1">
<rect width="15.5389" height="15.5389" fill="white" transform="translate(162.393 74.7068) rotate(140.955)"/>
</clipPath>
<clipPath id="clip2">
<rect width="12.6007" height="12.6007" fill="white" transform="translate(52.7534 117.235) rotate(-11.7361)"/>
</clipPath>
</defs>
</svg>
