<svg width="102" height="129" viewBox="0 0 102 129" fill="none" xmlns="http://www.w3.org/2000/svg">
<path fill-rule="evenodd" clip-rule="evenodd" d="M51.9975 124.302C40.6586 124.302 31.7557 114.567 32.7474 103.25L35.3408 73.6868H68.6541L71.2453 103.25C72.2392 114.567 63.3363 124.302 51.9975 124.302Z" fill="#B78376"/>
<path fill-rule="evenodd" clip-rule="evenodd" d="M81.8571 50.4768C81.8571 20.011 74.4783 5.51379 51.5766 5.51379C30.5694 5.51379 18.6782 20.011 21.3848 50.4657C21.3848 50.4657 21.3848 66.1097 31.5877 80.0846C35.4435 85.3675 44.2155 91.566 51.7851 91.766C59.4523 91.9638 66.6825 86.9277 71.9825 79.8757C77.6774 72.2949 81.8571 62.1448 81.8571 50.4768Z" fill="#C99382"/>
<path fill-rule="evenodd" clip-rule="evenodd" d="M51.9077 92.6888C47.4707 92.6888 42.286 90.6841 38.3792 87.4548C38.144 87.2592 38.1107 86.9081 38.306 86.6725C38.499 86.4347 38.8495 86.4014 39.0869 86.5969C42.8029 89.6706 47.7147 91.5775 51.9077 91.5775C55.7923 91.5775 61.5294 89.0728 66.1839 85.3412C66.4235 85.1523 66.7718 85.1879 66.9626 85.4279C67.1534 85.6679 67.1156 86.0169 66.876 86.208C61.9665 90.144 56.0896 92.6888 51.9077 92.6888Z" fill="#9B6160"/>
<path fill-rule="evenodd" clip-rule="evenodd" d="M53.019 71.8383H48.0491C47.5363 71.8383 47.1201 71.4217 47.1201 70.9084C47.1201 70.3951 47.5363 69.9785 48.0491 69.9785H52.0659L51.698 55.877C51.6943 55.7003 51.7407 55.5255 51.8318 55.3729L54.6651 50.66C54.9289 50.2193 55.5011 50.0779 55.9396 50.3439C56.3799 50.608 56.5211 51.1789 56.2555 51.6197L53.5615 56.1001L53.9479 70.8842C53.9535 71.1353 53.8587 71.3771 53.6841 71.5575C53.5095 71.736 53.2698 71.8383 53.019 71.8383Z" fill="#9B6160"/>
<path fill-rule="evenodd" clip-rule="evenodd" d="M31.2498 52.5269C30.8547 52.5269 30.473 52.3208 30.2687 51.9571C29.9657 51.4206 30.161 50.7466 30.7043 50.4495C36.7138 47.1525 45.8887 49.414 46.2748 49.5116C46.8742 49.6624 47.2378 50.2654 47.0852 50.8596C46.9303 51.4516 46.3197 51.813 45.7203 51.66C45.635 51.6379 37.0191 49.5227 31.793 52.3873C31.6224 52.4826 31.4338 52.5269 31.2498 52.5269Z" fill="#4A3D39"/>
<path fill-rule="evenodd" clip-rule="evenodd" d="M71.4538 52.5269C71.2642 52.5269 71.07 52.4826 70.8942 52.3873C65.5093 49.5197 57.1603 51.6338 57.0747 51.656C56.469 51.8222 55.8262 51.4676 55.6574 50.8759C55.4909 50.2864 55.8563 49.677 56.4736 49.5174C56.8482 49.4177 65.8168 47.1484 72.0156 50.4504C72.5751 50.7474 72.7763 51.4211 72.4642 51.9574C72.2538 52.3208 71.8607 52.5269 71.4538 52.5269Z" fill="#4A3D39"/>
<path fill-rule="evenodd" clip-rule="evenodd" d="M67.2041 57.5479C67.2041 55.2019 65.8198 53.2994 64.1132 53.2994C62.4066 53.2994 61.0244 55.2019 61.0244 57.5479C61.0244 59.8939 62.4066 61.7964 64.1132 61.7964C65.8198 61.7964 67.2041 59.8939 67.2041 57.5479Z" fill="#4A3D39"/>
<path fill-rule="evenodd" clip-rule="evenodd" d="M37.0771 53.2994C35.3726 53.2994 33.9883 55.2019 33.9883 57.5479C33.9883 59.8939 35.3726 61.7964 37.0771 61.7964C38.7857 61.7964 40.1679 59.8939 40.1679 57.5479C40.1679 55.2019 38.7857 53.2994 37.0771 53.2994Z" fill="#4A3D39"/>
<path fill-rule="evenodd" clip-rule="evenodd" d="M51.5479 80.3353C46.7294 80.3353 43.5728 79.6892 43.377 79.6474C42.6993 79.5055 42.3308 79.0363 42.5473 78.5972C42.7663 78.1597 43.493 77.921 44.1681 78.0596C44.2351 78.0729 50.8548 79.4086 59.4277 78.0429C60.1209 77.931 60.8166 78.2065 60.9867 78.654C61.1567 79.1014 60.7341 79.5539 60.0436 79.6641C56.8947 80.1667 54.0062 80.3353 51.5479 80.3353Z" fill="#9B6160"/>
<path fill-rule="evenodd" clip-rule="evenodd" d="M51.5501 87.2875C49.2401 87.2875 47.7287 86.6388 47.6331 86.5971C47.1775 86.3977 46.9913 85.9046 47.2143 85.497C47.4396 85.0915 47.9834 84.9228 48.4415 85.12C48.5566 85.1726 51.359 86.3385 55.1387 85.0236C55.609 84.8658 56.1431 85.0674 56.3268 85.4926C56.5105 85.9155 56.2778 86.3911 55.8026 86.5555C54.2226 87.1056 52.7749 87.2875 51.5501 87.2875Z" fill="#9B6160"/>
<path fill-rule="evenodd" clip-rule="evenodd" d="M3.48094 81.682C-9.35402 115.138 16.5014 120.491 29.2639 119.668C32.6709 119.93 36.7946 120.057 41.4534 120.107C35.92 116.507 32.4547 110.053 33.0797 102.948L34.8218 83.1682C34.1745 82.5134 33.5674 81.8636 33.0051 81.2353C30.1939 78.0942 28.0823 74.7118 26.4962 71.4079C15.775 71.1148 12.9461 55.7184 15.9706 52.5704C17.7726 50.6924 19.9596 51.0349 21.6756 51.8269C20.4467 28.6203 27.8526 10.4869 50.554 10.4869C72.5632 10.4869 81.6117 27.6235 80.277 52.4317C79.6758 63.5838 76.337 72.934 70.864 80.1907C70.0731 81.2388 69.2295 82.2499 68.341 83.2095L70.0794 102.948C70.7013 110.017 67.2741 116.441 61.7897 120.052C66.6447 120.014 71.7148 119.976 76.8897 119.976C87.6928 119.976 109.082 115.087 99.6003 85.488C95.3909 70.1861 93.6915 58.5311 92.2842 48.8793L92.2841 48.8792C90.3049 35.3054 88.9035 25.694 81.9107 15.4737C72.3271 1.46866 50.6761 -3.76487 44.6744 2.82384C15.0822 0.450363 11.496 30.0248 8.3859 55.6733C7.17784 65.636 6.0416 75.0064 3.48094 81.682Z" fill="#4A3D39"/>
<path fill-rule="evenodd" clip-rule="evenodd" d="M81.3277 48.7672C81.3384 49.5388 81.3436 50.3215 81.3436 51.1154C81.3436 59.0704 79.3028 66.2961 76.1378 72.4367C81.1616 73.2201 85.289 66.4288 86.768 63.3827C89.6491 57.4397 87.4503 50.6164 84.5568 49.1717C83.425 48.607 82.2744 48.5954 81.3277 48.7672ZM21.7113 49.0533C20.666 48.683 19.0211 48.3699 17.414 49.1717C14.5206 50.6164 12.3217 57.4397 15.2028 63.3827C16.816 66.705 21.5775 74.4826 27.2205 72.0282C27.2205 72.0282 27.2211 72.0273 27.2222 72.0256C21.8752 61.054 21.8752 51.1047 21.8752 51.1047C21.8126 50.4124 21.758 49.7286 21.7113 49.0533Z" fill="#B78376"/>
<path fill-rule="evenodd" clip-rule="evenodd" d="M26.6453 34.1552C27.1362 33.8778 28.8385 33.9531 28.8385 33.9531L25.6465 37.7865L27.0427 37.9886C27.0427 37.9886 22.0464 42.2477 22.9433 55.5646C23.1239 58.2521 23.2535 60.9911 21.8573 58.9745C9.0765 25.2263 28.1563 6.17539 52.6617 6.17969C81.3813 6.18399 89.8267 39.0077 87.7653 66.7144C64.2311 74.7854 67.2638 41.8392 64.3076 32.9447C59.9744 19.9008 46.3903 28.505 46.3903 28.505L40.6056 26.6883L40.8053 28.9092C40.8053 28.9092 34.7231 27.9503 32.0305 28.7071C28.4411 32.6416 26.6453 34.1552 26.6453 34.1552Z" fill="#4A3D39"/>
</svg>
