<svg width="328" height="325" viewBox="0 0 328 325" fill="none" xmlns="http://www.w3.org/2000/svg">
<path fill-rule="evenodd" clip-rule="evenodd" d="M20.6664 253.891C20.6664 253.891 19.8902 247.612 28.2733 244.787C36.6564 241.961 38.5193 243.452 38.5193 243.452L37.7431 245.964C37.7431 245.964 36.4235 252.242 30.3691 253.106C24.3146 253.969 21.986 252.713 20.6664 253.891Z" fill="#7CB305"/>
<path d="M37.6203 243.748L37.8655 243.941L37.8452 243.967C37.8364 243.978 37.8254 243.991 37.8124 244.007L37.7736 244.053C37.7464 244.085 37.7163 244.12 37.6835 244.157L37.6583 244.186C37.488 244.377 37.2824 244.589 37.0411 244.818C36.3532 245.469 35.5161 246.119 34.5254 246.726C32.5358 247.945 30.1865 248.831 27.465 249.243L27.364 249.258C25.5321 249.527 24.0723 250.142 22.9416 250.999C22.3991 251.409 21.9686 251.849 21.6386 252.287C21.5238 252.44 21.4298 252.581 21.3553 252.707L21.331 252.749C21.3196 252.769 21.3092 252.788 21.2999 252.805L21.2739 252.856L21.2723 252.859L20.9917 252.725L21.0003 252.707C21.018 252.671 21.0472 252.617 21.0887 252.546C21.1691 252.41 21.2695 252.259 21.3916 252.097C21.7384 251.636 22.1892 251.176 22.7555 250.747C23.9109 249.873 25.393 249.242 27.2389 248.96L27.3194 248.948C30.0416 248.548 32.385 247.67 34.3645 246.458C35.3362 245.863 36.1563 245.225 36.8289 244.589C37.048 244.381 37.2364 244.188 37.3943 244.013L37.4277 243.976C37.4768 243.921 37.5196 243.871 37.5563 243.827L37.5972 243.777L37.6203 243.748Z" fill="#7CB305"/>
<path fill-rule="evenodd" clip-rule="evenodd" d="M37.5098 258.129H38.5188V243.452H37.5098L37.7817 247.962C37.8591 249.245 37.8675 250.531 37.8071 251.815L37.5098 258.129Z" fill="#7CB305"/>
<path fill-rule="evenodd" clip-rule="evenodd" d="M21.9688 232.402C21.9688 232.402 25.0585 227.651 32.4194 230.661C39.7803 233.671 40.1493 236.075 40.1493 236.075L38.2153 237.048C38.2153 237.048 33.6927 240.564 29.0553 237.585C24.4179 234.606 23.5498 232.374 21.9688 232.402Z" fill="#7CB305"/>
<path fill-rule="evenodd" clip-rule="evenodd" d="M39.1401 262.21H39.9163L40.2204 236.302C40.2242 235.982 40.016 235.7 39.7121 235.612L39.1401 235.447C39.1401 235.447 39.335 237.854 39.2953 240.862C39.2574 243.74 38.9849 247.164 38.9849 249.7C38.9849 256.873 39.1401 262.21 39.1401 262.21Z" fill="#7CB305"/>
<path fill-rule="evenodd" clip-rule="evenodd" d="M32.4648 232.229C35.8144 234.858 39.2178 236.546 39.2178 236.546L38.2153 237.049C38.2153 237.049 33.6927 240.564 29.0553 237.585C24.4179 234.606 23.5498 232.375 21.9688 232.402C21.9688 232.402 27.2641 228.148 32.4648 232.229Z" fill="#5B8C00"/>
<path fill-rule="evenodd" clip-rule="evenodd" d="M58.2935 243.638C58.2935 243.638 56.2092 240.45 51.2437 242.47C46.2782 244.49 46.0293 246.104 46.0293 246.104L47.3339 246.757C47.3339 246.757 50.3847 249.116 53.5131 247.117C56.6413 245.118 57.2269 243.62 58.2935 243.638Z" fill="#7CB305"/>
<path fill-rule="evenodd" clip-rule="evenodd" d="M46.6984 263.775H46.162L45.9519 246.3C45.9493 246.085 46.0931 245.894 46.3031 245.835L46.6984 245.724C46.6984 245.724 46.5637 247.347 46.5911 249.376C46.6173 251.317 46.8057 253.627 46.8057 255.337C46.8057 260.175 46.6984 263.775 46.6984 263.775Z" fill="#7CB305"/>
<path fill-rule="evenodd" clip-rule="evenodd" d="M58.8729 226.358C58.8729 226.358 55.7832 221.608 48.4222 224.618C41.0613 227.628 40.6924 230.031 40.6924 230.031L42.6263 231.005C42.6263 231.005 47.1489 234.52 51.7864 231.541C56.4238 228.563 57.2918 226.331 58.8729 226.358Z" fill="#7CB305"/>
<path fill-rule="evenodd" clip-rule="evenodd" d="M41.7015 257.187H40.9253L40.6211 230.259C40.6174 229.939 40.8256 229.657 41.1295 229.569L41.7015 229.404C41.7015 229.404 41.5066 231.811 41.5462 234.819C41.5842 237.696 41.8567 241.121 41.8567 243.657C41.8567 250.83 41.7015 257.187 41.7015 257.187Z" fill="#7CB305"/>
<path fill-rule="evenodd" clip-rule="evenodd" d="M58.8731 226.358C58.8731 226.358 53.5777 222.105 48.3771 226.186C45.0274 228.814 41.624 230.502 41.624 230.502L42.6265 231.005C42.6265 231.005 47.1491 234.52 51.7866 231.541C56.424 228.563 57.292 226.331 58.8731 226.358Z" fill="#5B8C00"/>
<path fill-rule="evenodd" clip-rule="evenodd" d="M43.0986 256.951H44.4181L44.9401 240.272L43.9461 224.529C43.9498 224.21 43.7416 223.927 43.4377 223.84L42.8657 223.674C42.8657 223.674 44.1077 236.176 44.1077 238.712C44.1077 245.885 43.0986 256.951 43.0986 256.951Z" fill="#7CB305"/>
<path fill-rule="evenodd" clip-rule="evenodd" d="M28.2495 214.866C28.2495 214.866 31.0677 210.646 37.7431 214.884C44.4675 219.153 44.0006 224.754 44.0006 224.754L41.8518 224.98C41.8518 224.98 36.3971 226.668 33.0877 222.233C29.7783 217.799 29.7394 215.402 28.2495 214.866Z" fill="#7CB305"/>
<path fill-rule="evenodd" clip-rule="evenodd" d="M28.2495 214.866C28.2495 214.866 31.2833 212.605 33.8621 215.826C35.1816 217.474 37.5162 218.717 38.5193 219.672C41.1253 222.153 42.965 224.865 42.965 224.865L41.8518 224.98C41.8518 224.98 36.3971 226.668 33.0877 222.233C29.7783 217.799 29.7395 215.402 28.2495 214.866Z" fill="#5B8C00"/>
<path fill-rule="evenodd" clip-rule="evenodd" d="M50.4536 278.927H32.4454C31.4166 278.927 30.5825 278.084 30.5825 277.043V258.835C30.5825 257.795 31.4166 256.951 32.4454 256.951H50.4536C51.4824 256.951 52.3165 257.795 52.3165 258.835V277.043C52.3165 278.084 51.4824 278.927 50.4536 278.927Z" fill="#253368"/>
<ellipse cx="166.191" cy="162.218" rx="105.272" ry="105.56" fill="#FF9D00"/>
<path fill-rule="evenodd" clip-rule="evenodd" d="M219.127 173.008L216.316 165.336C216.316 165.336 212.202 159.249 210.919 159.74C209.741 160.365 212.634 161.978 213.316 163.734C212.149 163.739 212.807 165.424 212.807 165.424C212.807 165.424 211.881 165.46 212.235 166.847C211.417 167.42 212.225 168.981 212.225 168.981C212.225 168.981 214.269 173.101 216.392 175.791C216.392 175.791 219.743 177.997 219.127 173.008Z" fill="#FFC999"/>
<path fill-rule="evenodd" clip-rule="evenodd" d="M218.434 170.396C218.434 170.396 217.9 167.733 217.549 166.382C217.198 165.031 217.589 162.513 216.64 163.245C216.002 163.736 216.23 165.198 216.336 166.282C216.442 167.365 214.884 170.069 216.325 171.751C217.298 172.887 218.701 172.941 218.434 170.396Z" fill="#FFC999"/>
<path d="M213.2 163.629C213.143 163.693 213.148 163.792 213.212 163.849L213.284 163.917C213.342 163.971 213.407 164.034 213.477 164.104C213.678 164.303 213.879 164.516 214.065 164.734C214.257 164.958 214.424 165.175 214.557 165.379C214.961 165.998 215.008 166.4 214.667 166.573C214.59 166.612 214.56 166.706 214.599 166.783C214.638 166.859 214.732 166.89 214.808 166.851C215.38 166.56 215.31 165.963 214.818 165.209C214.677 164.992 214.502 164.765 214.302 164.531C214.109 164.306 213.903 164.087 213.697 163.883L213.593 163.781L213.42 163.618C213.357 163.561 213.258 163.566 213.2 163.629Z" fill="#DD936F"/>
<path d="M212.79 165.383C212.743 165.455 212.763 165.551 212.835 165.598L212.909 165.648C212.969 165.689 213.035 165.735 213.107 165.787C213.312 165.935 213.517 166.095 213.708 166.259C213.934 166.454 214.125 166.643 214.268 166.819C214.574 167.195 214.621 167.444 214.417 167.592C214.303 167.674 214.164 167.688 213.993 167.639C213.818 167.588 213.623 167.474 213.423 167.316C213.321 167.236 213.225 167.15 213.137 167.064L213.06 166.985C213.047 166.971 213.036 166.96 213.028 166.951C212.971 166.887 212.873 166.881 212.808 166.938C212.744 166.995 212.738 167.094 212.795 167.158L212.832 167.198C212.855 167.222 212.884 167.252 212.918 167.286C213.014 167.379 213.118 167.473 213.23 167.561C213.459 167.742 213.686 167.874 213.906 167.938C214.163 168.012 214.4 167.988 214.599 167.845C214.997 167.557 214.913 167.119 214.51 166.623C214.354 166.43 214.15 166.229 213.911 166.023C213.713 165.852 213.501 165.688 213.29 165.535L213.183 165.458L213.006 165.337C212.934 165.29 212.837 165.311 212.79 165.383Z" fill="#DD936F"/>
<path d="M212.565 166.771C212.479 166.764 212.404 166.828 212.397 166.914C212.39 167 212.454 167.075 212.54 167.082C212.723 167.097 212.97 167.244 213.277 167.555C213.921 168.206 214.075 168.638 213.918 168.747C213.751 168.862 213.308 168.7 213.003 168.326C212.88 168.176 212.649 168.34 212.749 168.505C213.08 169.052 213.446 169.458 213.864 169.771L213.949 169.833C214.21 170.021 214.407 170.127 214.852 170.324L215.17 170.463C216.12 170.875 216.491 171.218 216.759 172.174C216.782 172.256 216.868 172.305 216.951 172.281C217.034 172.258 217.082 172.172 217.059 172.089C216.77 171.058 216.345 170.645 215.375 170.213L214.921 170.014C214.495 169.823 214.322 169.723 214.051 169.521C213.885 169.397 213.729 169.258 213.579 169.098L213.543 169.058L213.578 169.068C213.758 169.11 213.928 169.1 214.06 169.025L214.095 169.003C214.486 168.733 214.263 168.109 213.498 167.336C213.144 166.977 212.837 166.793 212.565 166.771Z" fill="#DD936F"/>
<path d="M216.204 164.772C216.127 164.771 216.062 164.827 216.05 164.901L216.047 164.927L216.033 166.97L215.984 167.074L215.966 167.114C215.905 167.253 215.844 167.408 215.787 167.575C215.611 168.089 215.511 168.606 215.526 169.094C215.539 169.544 215.651 169.946 215.879 170.284C215.927 170.355 216.024 170.374 216.095 170.326C216.167 170.277 216.185 170.181 216.137 170.109C215.945 169.825 215.849 169.48 215.837 169.085C215.824 168.64 215.917 168.157 216.082 167.676C216.125 167.549 216.17 167.43 216.217 167.32L216.251 167.24C216.274 167.188 216.294 167.146 216.308 167.115L216.326 167.079C216.334 167.064 216.339 167.049 216.342 167.033L216.344 167.008L216.359 164.929C216.359 164.843 216.29 164.773 216.204 164.772Z" fill="#DD936F"/>
<path fill-rule="evenodd" clip-rule="evenodd" d="M246.665 144.183C246.665 144.183 236.395 146.265 236.541 152.186C236.616 155.232 239.704 158.432 238.3 159.413C232.812 163.247 238.489 165.185 234.376 167.261C228.578 170.186 231.456 179.54 237.042 178.849C242.829 178.134 242.792 186.325 252.705 183.614C258.291 182.086 256.788 178.763 260.715 176.628C264.642 174.492 269.821 165.979 264.716 161.021C261.54 157.881 258.628 158.304 256.733 152.958C254.839 147.612 253.083 144.357 250.421 144.897C249.395 143.534 246.665 144.183 246.665 144.183Z" fill="#253368"/>
<path fill-rule="evenodd" clip-rule="evenodd" d="M241.089 157.218C241.056 157.106 240.897 157.105 240.864 157.217C240.565 158.212 239.862 160.893 240.907 160.985C242.087 161.088 241.382 158.25 241.089 157.218Z" fill="white"/>
<path fill-rule="evenodd" clip-rule="evenodd" d="M250.775 165.745C250.216 161.038 250.253 159.187 250.253 159.187L244.39 161.031L244.256 166.05C244.207 167.897 245.697 169.419 247.545 169.409C249.5 169.398 251.005 167.686 250.775 165.745Z" fill="#F4B784"/>
<path fill-rule="evenodd" clip-rule="evenodd" d="M247.221 150.441C247.221 150.441 246.509 148.608 245.255 149.511C244.359 150.157 244.595 149.631 244.387 149.137C243.617 147.302 243.287 151.624 240.374 152.6C240.345 154.911 240.402 162.513 245.396 162.755C247.339 162.85 249.674 161.628 250.647 158.805C251.234 157.099 250.709 155.361 250.025 155.023C247.772 153.909 247.803 152.74 247.221 150.441Z" fill="#FFC999"/>
<path d="M243.311 152.629C243.286 152.547 243.199 152.501 243.117 152.526C243.042 152.548 242.997 152.621 243.007 152.695L243.013 152.72L243.365 153.876L243.357 154.085L243.345 154.351C243.338 154.478 243.329 154.614 243.318 154.761C243.265 155.497 243.175 156.334 243.041 157.257C243.03 157.331 243.072 157.401 243.142 157.426L243.496 157.556L244.095 157.78L244.656 157.994C244.737 158.025 244.827 157.985 244.858 157.905C244.886 157.832 244.856 157.752 244.791 157.714L244.75 157.696L244.409 157.566C244.205 157.489 244 157.412 243.801 157.337L243.367 157.177L243.38 157.089C243.489 156.312 243.566 155.599 243.616 154.957L243.629 154.784L243.644 154.568C243.653 154.43 243.66 154.302 243.665 154.184L243.676 153.877L243.676 153.857L243.67 153.809L243.311 152.629Z" fill="#DD936F"/>
<path d="M247.464 154.837C247.259 154.319 246.867 154.035 246.287 154.174C245.902 154.266 245.693 154.543 245.635 154.919C245.608 155.1 245.616 155.288 245.647 155.468L245.66 155.537C245.666 155.567 245.672 155.591 245.677 155.609C245.707 155.717 245.819 155.78 245.927 155.751C246.026 155.723 246.088 155.627 246.074 155.528L246.057 155.452C246.054 155.437 246.051 155.419 246.048 155.4C246.024 155.259 246.017 155.112 246.037 154.981C246.071 154.755 246.174 154.618 246.381 154.569C246.736 154.484 246.948 154.638 247.087 154.987C247.13 155.097 247.161 155.217 247.181 155.337L247.191 155.403C247.196 155.442 247.199 155.473 247.2 155.492C247.206 155.604 247.301 155.69 247.413 155.684C247.525 155.678 247.611 155.583 247.606 155.471L247.602 155.419C247.598 155.38 247.592 155.329 247.582 155.27C247.557 155.123 247.519 154.977 247.464 154.837Z" fill="#253368"/>
<path d="M242.694 155.153C242.557 154.662 242.221 154.368 241.673 154.438C241.276 154.488 241.053 154.761 240.98 155.151C240.947 155.328 240.947 155.512 240.967 155.684C240.971 155.728 240.976 155.761 240.98 155.781C241.001 155.892 241.107 155.965 241.218 155.944C241.329 155.924 241.402 155.817 241.381 155.706L241.375 155.662C241.374 155.655 241.373 155.647 241.372 155.639C241.357 155.503 241.357 155.358 241.381 155.226C241.425 154.994 241.528 154.867 241.724 154.842C242.045 154.802 242.214 154.949 242.302 155.262C242.341 155.403 242.356 155.553 242.355 155.684L242.353 155.768C242.344 155.88 242.428 155.978 242.54 155.987C242.653 155.995 242.751 155.911 242.759 155.799L242.761 155.766C242.769 155.581 242.754 155.365 242.694 155.153Z" fill="#253368"/>
<path d="M246.62 158.315C246.581 158.21 246.464 158.156 246.359 158.195C245.453 158.53 244.604 158.614 243.93 158.56L243.844 158.552C243.83 158.55 243.819 158.549 243.812 158.548C243.701 158.531 243.597 158.608 243.581 158.719C243.565 158.83 243.641 158.933 243.752 158.95L243.795 158.955C243.822 158.958 243.856 158.962 243.898 158.965C244.626 159.023 245.533 158.933 246.5 158.576C246.605 158.537 246.659 158.42 246.62 158.315Z" fill="#C44343"/>
<path d="M242.489 152.328C241.923 152.203 241.325 152.193 240.771 152.25L240.644 152.265L240.517 152.284C240.407 152.303 240.333 152.408 240.352 152.519C240.371 152.629 240.476 152.703 240.587 152.684L240.659 152.673C240.699 152.667 240.751 152.661 240.813 152.655C241.327 152.602 241.884 152.611 242.402 152.725C242.562 152.76 242.713 152.804 242.855 152.858C242.959 152.898 243.077 152.846 243.117 152.741C243.157 152.636 243.105 152.519 243 152.479C242.838 152.417 242.668 152.367 242.489 152.328Z" fill="#253368"/>
<path d="M247.933 152.052C247.832 152.053 247.729 152.055 247.624 152.059C247.065 152.083 246.469 152.166 245.869 152.29C245.667 152.331 245.476 152.375 245.299 152.42L245.114 152.467L244.897 152.528C244.789 152.56 244.728 152.673 244.761 152.781C244.793 152.888 244.906 152.949 245.014 152.917L245.174 152.872C245.204 152.864 245.236 152.855 245.271 152.846C245.478 152.792 245.706 152.738 245.951 152.688C246.532 152.568 247.107 152.488 247.642 152.465C247.741 152.461 247.838 152.459 247.933 152.459C248.045 152.459 248.136 152.368 248.136 152.255C248.136 152.143 248.045 152.052 247.933 152.052Z" fill="#253368"/>
<path d="M245.266 159.608L244.724 159.63C244.638 159.633 244.571 159.706 244.574 159.792C244.577 159.869 244.636 159.931 244.711 159.94L244.736 159.941L245.279 159.92C245.365 159.916 245.432 159.844 245.428 159.758C245.425 159.681 245.366 159.619 245.292 159.609L245.266 159.608Z" fill="#DD936F"/>
<path fill-rule="evenodd" clip-rule="evenodd" d="M253.481 156.107C253.846 154.146 251.975 154.314 251.975 154.314C251.975 154.314 251.99 156.258 251.526 158.009C253.402 157.903 253.481 156.107 253.481 156.107Z" fill="#FFC999"/>
<path fill-rule="evenodd" clip-rule="evenodd" d="M252.459 157.502C252.427 157.389 252.268 157.388 252.234 157.5C251.936 158.495 251.232 161.177 252.278 161.268C253.457 161.371 252.753 158.533 252.459 157.502Z" fill="white"/>
<path fill-rule="evenodd" clip-rule="evenodd" d="M223.171 189.169C223.171 189.169 230.905 176.629 232.653 174.381C236.876 168.95 241.205 170.244 242.146 174.054C243.28 178.647 228.599 193.678 228.599 193.678C228.599 193.678 226.798 195.9 224.05 194.308C220.801 192.428 223.171 189.169 223.171 189.169Z" fill="#FFC999"/>
<path fill-rule="evenodd" clip-rule="evenodd" d="M228.209 180.708C229.026 179.54 234.78 168.186 239.432 171.067C243.372 173.507 242.503 177.5 236.079 185.497L228.209 180.708Z" fill="#125E8A"/>
<path fill-rule="evenodd" clip-rule="evenodd" d="M214.225 171.936C218.983 185.401 219.072 187.377 221.145 191.614C224.161 197.778 230.836 194.246 229.346 190.153C228.411 187.585 225.991 184.053 223.094 179.478C219.528 173.848 218.087 170.92 218.087 170.92L214.225 171.936Z" fill="#FFC999"/>
<path d="M218.497 171.77C218.451 171.697 218.355 171.676 218.282 171.722C218.218 171.763 218.194 171.843 218.221 171.912L218.234 171.937L228.604 188.254C228.65 188.327 228.747 188.348 228.819 188.302C228.884 188.261 228.908 188.18 228.88 188.112L228.867 188.087L218.497 171.77Z" fill="#DD936F"/>
<path fill-rule="evenodd" clip-rule="evenodd" d="M220.917 232.479C220.922 232.374 219.882 261.168 220.037 263.023C220.46 268.086 221.1 268.732 218.511 270.303C217.848 270.705 216.77 270.405 215.778 271.73C213.061 275.359 208.836 277.639 208.119 275.747C207.608 273.96 214.196 267.575 214.586 263.762C214.991 259.8 209.644 227.993 210.599 224.644C212.001 219.725 218.194 211.271 220.917 232.479Z" fill="#FFC999"/>
<path fill-rule="evenodd" clip-rule="evenodd" d="M220.309 270.807C220.309 270.807 220.956 267.983 220.106 264.664C220.106 264.664 218.003 266.939 216.208 269.388C214.135 272.215 213.589 272.396 213.589 272.396C210.775 273.541 209.982 271.942 209.982 271.942C209.982 271.942 208.579 274.104 205.795 276.541C203.301 278.724 213.672 278.24 214.864 275.508C216.055 272.777 217.79 271.092 217.79 271.092L218.938 274.979L219.92 274.867L220.309 270.807Z" fill="#253368"/>
<path fill-rule="evenodd" clip-rule="evenodd" d="M252.703 193.854C249.584 194.91 241.518 195.086 240.536 194.763C239.554 194.439 240.268 192.566 240.268 192.566C240.268 192.566 236.111 185.513 235.799 183.496C235.486 181.479 236.895 176.735 236.895 176.735C236.895 176.735 236.903 173.369 237.111 172.176C237.437 170.318 241.854 169.688 242.854 169.056C243.855 168.424 243.801 165.783 243.801 165.783L250.847 164.726C250.847 164.726 251.416 166.701 251.894 167.36C252.823 168.642 255.812 168.042 257.219 168.228C263.3 169.031 255.393 184.568 253.171 190.918C253.171 190.918 254.267 192.319 252.703 193.854Z" fill="#125E8A"/>
<path d="M251.035 168.104L244.345 169.509C244.235 169.532 244.165 169.64 244.188 169.75C244.209 169.851 244.301 169.918 244.401 169.911L244.428 169.907L251.119 168.501C251.229 168.478 251.299 168.37 251.276 168.261C251.255 168.16 251.162 168.092 251.063 168.1L251.035 168.104Z" fill="#253368"/>
<path d="M251.164 169.253C251.129 169.156 251.029 169.101 250.931 169.122L250.904 169.13L247.411 170.374C247.305 170.411 247.25 170.528 247.287 170.633C247.322 170.73 247.422 170.785 247.52 170.764L247.547 170.756L251.041 169.512C251.146 169.475 251.202 169.358 251.164 169.253Z" fill="#253368"/>
<path d="M252.002 179.447C251.919 179.372 251.791 179.378 251.715 179.461L251.684 179.494C251.64 179.538 251.57 179.602 251.474 179.681C251.265 179.854 251.015 180.027 250.722 180.189C249.592 180.814 248.197 181.096 246.532 180.842L246.385 180.818C245.78 180.716 244.422 180.831 242.502 181.108L242.367 181.127C242.052 181.173 241.727 181.223 241.394 181.276L241.142 181.316C240.563 181.409 239.983 181.507 239.42 181.607L238.767 181.725L238.101 181.849C237.991 181.87 237.919 181.976 237.94 182.086C237.961 182.196 238.068 182.269 238.178 182.247L238.729 182.145C238.838 182.124 238.953 182.103 239.074 182.082C239.763 181.957 240.485 181.833 241.207 181.717C241.543 181.663 241.871 181.612 242.189 181.564L242.687 181.492C244.447 181.241 245.722 181.133 246.277 181.213L246.317 181.219C248.141 181.528 249.677 181.231 250.918 180.545C251.234 180.37 251.505 180.183 251.733 179.995C251.871 179.88 251.965 179.789 252.015 179.734C252.091 179.651 252.085 179.523 252.002 179.447Z" fill="#253368"/>
<path d="M236.946 173.727C236.843 173.725 236.756 173.8 236.74 173.898L236.738 173.926L236.686 176.238L236.644 176.379C236.613 176.487 236.578 176.607 236.541 176.738L236.513 176.838C236.378 177.324 236.242 177.844 236.116 178.377C235.988 178.914 235.877 179.434 235.787 179.928L235.736 180.213C235.561 181.243 235.494 182.089 235.56 182.703C235.614 183.209 235.77 183.8 236.011 184.461C236.176 184.913 236.378 185.389 236.608 185.879C236.802 186.29 237.006 186.693 237.213 187.077L237.337 187.304C237.406 187.431 237.472 187.547 237.533 187.653L237.669 187.887C237.727 187.983 237.852 188.014 237.948 187.956C238.044 187.898 238.075 187.773 238.017 187.677L237.929 187.526C237.858 187.404 237.778 187.263 237.693 187.108C237.448 186.665 237.204 186.191 236.976 185.706C236.751 185.226 236.553 184.761 236.393 184.321C236.162 183.689 236.014 183.128 235.964 182.659C235.897 182.038 235.981 181.125 236.186 180.001C236.275 179.515 236.385 179.001 236.511 178.471C236.615 178.031 236.726 177.601 236.837 177.191L236.905 176.947C236.933 176.846 236.96 176.751 236.985 176.662L237.083 176.329L237.092 176.274L237.144 173.935C237.147 173.823 237.058 173.73 236.946 173.727Z" fill="#253368"/>
<path fill-rule="evenodd" clip-rule="evenodd" d="M239.155 213.551L234.498 207.084C234.498 207.084 236.489 199.236 240.288 195.864L253.651 195.611C253.651 195.611 256.338 200.904 257.025 212.342L245.816 213.714L239.155 213.551Z" fill="#E4EBF7"/>
<path fill-rule="evenodd" clip-rule="evenodd" d="M253.96 195.772L240.288 195.864L240.661 193.778L253.543 193.597L253.96 195.772Z" fill="#125E8A"/>
<path d="M244.006 196.407C243.922 196.396 243.846 196.455 243.835 196.538C243.681 197.703 243.577 198.946 243.52 200.256C243.377 203.552 243.53 207.082 243.871 210.545L243.92 211.026C243.985 211.656 244.054 212.246 244.123 212.789L244.176 213.201L244.275 213.902C244.288 213.985 244.365 214.042 244.448 214.03C244.532 214.017 244.589 213.939 244.576 213.856L244.517 213.449C244.496 213.298 244.474 213.132 244.451 212.951L244.399 212.545C244.322 211.925 244.246 211.245 244.174 210.515C243.834 207.065 243.682 203.549 243.825 200.269C243.881 198.967 243.984 197.733 244.137 196.578C244.148 196.494 244.089 196.418 244.006 196.407Z" fill="#A3B5D6"/>
<path d="M253.921 195.724L240.524 195.742C240.438 195.742 240.368 195.812 240.368 195.898C240.368 195.975 240.425 196.04 240.499 196.052L240.524 196.054L253.922 196.036C254.008 196.036 254.077 195.966 254.077 195.88C254.077 195.802 254.02 195.738 253.946 195.726L253.921 195.724Z" fill="#DD936F"/>
<path fill-rule="evenodd" clip-rule="evenodd" d="M252.496 244.476C252.402 244.454 278.29 250.631 279.998 250.828C284.66 251.366 285.362 250.904 286.313 253.534C286.558 254.208 286.09 255.129 287.11 256.269C289.902 259.389 291.198 263.63 289.354 263.936C287.643 264.074 283.058 256.946 279.676 255.9C276.162 254.812 246.383 253.87 243.524 252.396C239.324 250.232 232.794 243.086 252.496 244.476Z" fill="#FFC999"/>
<path fill-rule="evenodd" clip-rule="evenodd" d="M287.097 251.998C287.097 251.998 284.657 250.898 281.497 251.064C281.497 251.064 283.175 253.383 285.066 255.453C287.249 257.844 287.314 258.372 287.314 258.372C287.839 261.129 286.247 261.556 286.247 261.556C286.247 261.556 287.95 263.22 289.651 266.185C291.174 268.84 292.622 259.36 290.364 257.784C288.107 256.208 286.897 254.331 286.897 254.331L290.626 253.998L290.703 253.088L287.097 251.998Z" fill="#253368"/>
<path fill-rule="evenodd" clip-rule="evenodd" d="M241.129 239.475L273.319 242.395L272.66 257.347C272.66 257.347 256.084 255.825 239.266 253.731C239.266 253.731 230.806 253.193 231.547 245.717C232.289 238.241 241.129 239.475 241.129 239.475Z" fill="#A3B5D6"/>
<path fill-rule="evenodd" clip-rule="evenodd" d="M231.627 243.734C232.425 227.365 233.346 209.934 234.919 206.39C234.919 206.39 237.818 204.624 243.228 208.18C249.536 212.327 248.822 218.147 248.822 218.147L247.541 244.661C247.361 246.823 246.98 253.545 238.617 253.353C230.384 253.164 231.61 244.091 231.627 243.734Z" fill="#A3B5D6"/>
<path fill-rule="evenodd" clip-rule="evenodd" d="M260.727 192.324C260.727 192.324 254.738 178.925 253.861 176.319C251.744 170.025 254.793 167.507 258.36 168.782C262.66 170.319 267.601 190.61 267.601 190.61C267.601 190.61 267.936 192.984 265.19 194.346C261.945 195.956 260.727 192.324 260.727 192.324Z" fill="#FFC999"/>
<path fill-rule="evenodd" clip-rule="evenodd" d="M256.329 182.61C255.825 181.33 249.9 170.828 255.296 168.538C259.414 166.791 261.323 170.332 264.329 179.766L256.329 182.61Z" fill="#125E8A"/>
<path d="M253.999 178.013C253.952 177.911 253.831 177.867 253.729 177.915C253.636 177.958 253.592 178.064 253.621 178.159L253.631 178.185L255.738 182.696C255.779 182.782 255.872 182.828 255.963 182.809L255.99 182.801L263.991 179.957C264.097 179.919 264.152 179.803 264.114 179.698C264.08 179.601 263.979 179.546 263.881 179.567L263.855 179.574L256.028 182.357L253.999 178.013Z" fill="#253368"/>
<path fill-rule="evenodd" clip-rule="evenodd" d="M236.242 199.363C236.242 199.363 240.672 199.614 242.68 198.324C244.322 197.269 242.571 195.882 242.571 195.882C242.571 195.882 239.476 193.765 237.389 193.05C236.022 192.582 233.556 191.304 233.128 191.939C232.57 192.768 235.305 193.663 235.358 194.388C235.466 195.857 231.014 194.901 230.21 195.134C228.636 195.588 230.783 198.69 236.242 199.363Z" fill="#FFC999"/>
<path d="M230.237 195.766C230.157 195.734 230.067 195.773 230.035 195.853C230.003 195.933 230.043 196.024 230.123 196.055C230.341 196.141 230.567 196.217 230.801 196.283C231.947 196.605 233.152 196.673 234.216 196.598L234.329 196.589L234.474 196.575C234.486 196.574 234.496 196.573 234.503 196.572C234.589 196.561 234.649 196.484 234.638 196.398C234.628 196.313 234.55 196.252 234.465 196.263L234.36 196.274C234.315 196.278 234.26 196.283 234.194 196.287C233.163 196.36 231.991 196.294 230.886 195.983C230.662 195.92 230.445 195.848 230.237 195.766Z" fill="#DD936F"/>
<path d="M230.653 196.831C230.574 196.796 230.482 196.831 230.447 196.91C230.412 196.988 230.447 197.08 230.526 197.115L230.6 197.146L230.697 197.184C230.732 197.197 230.769 197.21 230.809 197.224C231.037 197.304 231.303 197.383 231.606 197.457C232.565 197.691 233.67 197.819 234.901 197.789C234.987 197.787 235.055 197.715 235.053 197.629C235.051 197.543 234.979 197.475 234.893 197.478C233.691 197.507 232.613 197.382 231.68 197.154C231.429 197.093 231.204 197.028 231.008 196.963L230.912 196.93C230.783 196.885 230.696 196.85 230.653 196.831Z" fill="#DD936F"/>
<path d="M232.418 198.08C232.335 198.06 232.251 198.113 232.231 198.196C232.212 198.28 232.264 198.364 232.348 198.383C233.705 198.7 234.754 198.799 235.466 198.775L235.611 198.768C235.617 198.768 235.621 198.767 235.625 198.767C235.711 198.759 235.774 198.683 235.766 198.598C235.758 198.512 235.682 198.449 235.597 198.457L235.526 198.461C235.286 198.472 234.951 198.466 234.526 198.429C233.905 198.374 233.201 198.262 232.418 198.08Z" fill="#DD936F"/>
<path fill-rule="evenodd" clip-rule="evenodd" d="M239.013 195.341C239.013 195.341 258.542 187.993 261.256 187.555C267.987 186.469 269.084 192.862 264.675 194.703C258.809 197.153 239.913 199.189 239.913 199.189L239.013 195.341Z" fill="#FFC999"/>
<path fill-rule="evenodd" clip-rule="evenodd" d="M223.612 216.583L223.719 255.356L207.031 256.256C207.031 256.256 206.996 236.288 207.571 215.965C207.571 215.965 207.287 205.801 215.675 205.843C224.062 205.886 223.612 216.583 223.612 216.583Z" fill="#E4EBF7"/>
<path fill-rule="evenodd" clip-rule="evenodd" d="M255.62 203.483C255.62 203.483 259.083 210.969 255.194 216.917C250.314 224.38 218.595 221.721 218.595 221.721C216.567 221.678 209.216 220.119 208.53 213.943C208.21 211.068 208.571 208.992 211.046 207.538C215.465 204.942 222.712 204.774 230.947 204.107C241.254 203.272 252.678 200.904 255.62 203.483Z" fill="#E4EBF7"/>
<path d="M247.73 202.241L242.924 202.729L238.87 203.146C236.855 203.355 234.869 203.563 232.954 203.765L228.084 204.287C222.522 204.891 218.775 205.333 217.426 205.558C217.343 205.571 217.287 205.65 217.301 205.733C217.315 205.816 217.393 205.872 217.476 205.858L217.679 205.825C219.188 205.59 222.911 205.154 228.314 204.568L231.887 204.185L234.923 203.864C236.228 203.727 237.558 203.588 238.901 203.449L247.775 202.543C247.859 202.534 247.92 202.46 247.912 202.376C247.904 202.301 247.843 202.244 247.77 202.239L247.73 202.241Z" fill="#A3B5D6"/>
<path fill-rule="evenodd" clip-rule="evenodd" d="M122.434 196.627C120.884 196.627 119.626 195.505 119.626 194.12V134.415H212.321V194.12C212.321 195.505 211.064 196.627 209.514 196.627H122.434Z" fill="#E4EBF7"/>
<path d="M205.219 139.826H151.545C150.927 139.826 150.426 140.327 150.426 140.944V191.018C150.426 191.635 150.927 192.136 151.545 192.136H205.219C205.837 192.136 206.338 191.635 206.338 191.018V140.944C206.338 140.327 205.837 139.826 205.219 139.826Z" fill="white"/>
<path d="M144.836 139.409H126.572C125.954 139.409 125.453 139.91 125.453 140.528V190.601C125.453 191.219 125.954 191.72 126.572 191.72H144.836C145.453 191.72 145.954 191.219 145.954 190.601V140.528C145.954 139.91 145.453 139.409 144.836 139.409Z" fill="white"/>
<path d="M140.916 160.22H130.667C130.316 160.22 130.032 160.504 130.032 160.855V162.427C130.032 162.778 130.316 163.063 130.667 163.063H140.916C141.267 163.063 141.552 162.778 141.552 162.427V160.855C141.552 160.504 141.267 160.22 140.916 160.22Z" fill="#597EF7"/>
<path d="M140.926 165.631H130.658C130.312 165.631 130.032 165.911 130.032 166.256V167.761C130.032 168.107 130.312 168.387 130.658 168.387H140.926C141.271 168.387 141.552 168.107 141.552 167.761V166.256C141.552 165.911 141.271 165.631 140.926 165.631Z" fill="#ADC6FF"/>
<path d="M140.926 171.041H130.658C130.312 171.041 130.032 171.321 130.032 171.667V173.172C130.032 173.518 130.312 173.798 130.658 173.798H140.926C141.271 173.798 141.552 173.518 141.552 173.172V171.667C141.552 171.321 141.271 171.041 140.926 171.041Z" fill="#FF7946"/>
<path d="M140.926 176.452H130.658C130.312 176.452 130.032 176.732 130.032 177.078V178.583C130.032 178.928 130.312 179.209 130.658 179.209H140.926C141.271 179.209 141.552 178.928 141.552 178.583V177.078C141.552 176.732 141.271 176.452 140.926 176.452Z" fill="#ADC6FF"/>
<path d="M188.638 178.117H156.582C156.17 178.117 155.836 178.451 155.836 178.863V178.865C155.836 179.277 156.17 179.611 156.582 179.611H188.638C189.05 179.611 189.384 179.277 189.384 178.865V178.863C189.384 178.451 189.05 178.117 188.638 178.117Z" fill="#597EF7"/>
<path d="M188.638 186.025H156.582C156.17 186.025 155.836 186.359 155.836 186.771V186.773C155.836 187.185 156.17 187.519 156.582 187.519H188.638C189.05 187.519 189.384 187.185 189.384 186.773V186.771C189.384 186.359 189.05 186.025 188.638 186.025Z" fill="#597EF7"/>
<path d="M199.82 181.863H156.582C156.17 181.863 155.836 182.197 155.836 182.609V182.612C155.836 183.023 156.17 183.357 156.582 183.357H199.82C200.232 183.357 200.566 183.023 200.566 182.612V182.609C200.566 182.197 200.232 181.863 199.82 181.863Z" fill="#597EF7"/>
<path d="M199.295 144.82H157.328C156.504 144.82 155.836 145.488 155.836 146.312V173.296C155.836 174.119 156.504 174.787 157.328 174.787H199.295C200.119 174.787 200.787 174.119 200.787 173.296V146.312C200.787 145.488 200.119 144.82 199.295 144.82Z" fill="#597EF7"/>
<path fill-rule="evenodd" clip-rule="evenodd" d="M212.41 135.422H119.72V129.029C119.72 127.643 120.849 126.518 122.241 126.518H209.889C211.281 126.518 212.41 127.643 212.41 129.029V135.422Z" fill="#253368"/>
<path fill-rule="evenodd" clip-rule="evenodd" d="M126.219 130.698C126.219 131.569 125.515 132.274 124.646 132.274C123.778 132.274 123.074 131.569 123.074 130.698C123.074 129.828 123.778 129.123 124.646 129.123C125.515 129.123 126.219 129.828 126.219 130.698Z" fill="#FF7946"/>
<path fill-rule="evenodd" clip-rule="evenodd" d="M132.09 130.698C132.09 131.569 131.386 132.274 130.518 132.274C129.649 132.274 128.945 131.569 128.945 130.698C128.945 129.828 129.649 129.123 130.518 129.123C131.386 129.123 132.09 129.828 132.09 130.698Z" fill="#FAAD14"/>
<path fill-rule="evenodd" clip-rule="evenodd" d="M137.96 130.698C137.96 131.569 137.257 132.274 136.388 132.274C135.52 132.274 134.816 131.569 134.816 130.698C134.816 129.828 135.52 129.123 136.388 129.123C137.257 129.123 137.96 129.828 137.96 130.698Z" fill="#7CB305"/>
<path d="M136.064 154.415C138.906 154.415 141.21 152.085 141.21 149.211C141.21 146.337 138.906 144.007 136.064 144.007C133.222 144.007 130.918 146.337 130.918 149.211C130.918 152.085 133.222 154.415 136.064 154.415Z" fill="#FAAD14"/>
<path d="M136.064 154.415C137.547 154.416 138.955 153.753 139.909 152.605C139.157 151.161 137.677 150.258 136.064 150.258C134.45 150.258 132.97 151.161 132.218 152.605C133.173 153.754 134.581 154.416 136.064 154.415Z" fill="#253368"/>
<path d="M136.092 150.465C137.16 150.465 138.027 149.589 138.027 148.508C138.027 147.427 137.16 146.55 136.092 146.55C135.023 146.55 134.156 147.427 134.156 148.508C134.156 149.589 135.023 150.465 136.092 150.465Z" fill="#253368"/>
<path d="M200.93 155.225C201.044 155.225 201.138 155.319 201.138 155.433C201.138 155.543 201.053 155.633 200.945 155.641L200.93 155.642H156.253C156.138 155.642 156.044 155.548 156.044 155.433C156.044 155.324 156.129 155.234 156.237 155.226L156.253 155.225H200.93Z" fill="white"/>
<path d="M166.242 144.439C166.351 144.439 166.441 144.524 166.449 144.632L166.45 144.647V174.787C166.45 174.902 166.357 174.995 166.242 174.995C166.132 174.995 166.042 174.91 166.034 174.803L166.034 174.787V144.647C166.034 144.532 166.127 144.439 166.242 144.439Z" fill="white"/>
<path d="M178.312 144.439C178.421 144.439 178.511 144.524 178.519 144.632L178.52 144.647V174.787C178.52 174.902 178.427 174.995 178.312 174.995C178.202 174.995 178.112 174.91 178.104 174.803L178.104 174.787V144.647C178.104 144.532 178.197 144.439 178.312 144.439Z" fill="white"/>
<path d="M189.965 144.439C190.075 144.439 190.165 144.524 190.173 144.632L190.174 144.647V174.787C190.174 174.902 190.08 174.995 189.965 174.995C189.856 174.995 189.766 174.91 189.758 174.803L189.757 174.787V144.647C189.757 144.532 189.85 144.439 189.965 144.439Z" fill="white"/>
<path d="M200.93 165.214C201.044 165.214 201.138 165.308 201.138 165.422C201.138 165.532 201.053 165.622 200.945 165.63L200.93 165.631H156.253C156.138 165.631 156.044 165.537 156.044 165.422C156.044 165.313 156.129 165.223 156.237 165.215L156.253 165.214H200.93Z" fill="white"/>
<path fill-rule="evenodd" clip-rule="evenodd" d="M107.207 130.857L109.843 120.422C109.843 120.422 114.402 111.888 116.149 112.355C117.778 113.014 114.21 115.521 113.555 117.915C115.083 117.762 114.452 120.06 114.452 120.06C114.452 120.06 115.67 119.98 115.395 121.846C116.546 122.484 115.699 124.64 115.699 124.64C115.699 124.64 113.584 130.315 111.17 134.129C111.17 134.129 107.081 137.476 107.207 130.857Z" fill="#C99382"/>
<path fill-rule="evenodd" clip-rule="evenodd" d="M107.759 127.341C107.759 127.341 108.096 123.779 108.371 121.961C108.647 120.143 107.79 116.899 109.134 117.727C110.037 118.283 109.938 120.231 109.946 121.664C109.956 123.098 112.365 126.428 110.707 128.828C109.587 130.449 107.756 130.71 107.759 127.341Z" fill="#C99382"/>
<path d="M113.666 117.791C113.734 117.853 113.74 117.957 113.678 118.026L113.597 118.118L113.494 118.24C113.457 118.283 113.419 118.329 113.38 118.376C113.155 118.65 112.93 118.943 112.721 119.242C112.514 119.537 112.334 119.822 112.187 120.091C111.668 121.044 111.633 121.653 112.158 121.855C112.244 121.887 112.287 121.983 112.254 122.069C112.221 122.155 112.125 122.197 112.039 122.164C111.246 121.859 111.292 121.041 111.896 119.932C112.049 119.651 112.236 119.356 112.449 119.052C112.664 118.745 112.894 118.446 113.124 118.166L113.24 118.026L113.431 117.804C113.493 117.736 113.598 117.73 113.666 117.791Z" fill="#9B6160"/>
<path d="M114.438 120.028C114.496 120.099 114.485 120.203 114.414 120.261L114.328 120.333L114.217 120.428C114.178 120.462 114.138 120.497 114.096 120.535C113.856 120.748 113.617 120.977 113.393 121.212C113.163 121.454 112.963 121.688 112.803 121.909C112.347 122.539 112.277 122.956 112.62 123.153C112.743 123.224 112.879 123.243 113.03 123.215C113.294 123.165 113.594 122.972 113.9 122.681C114.031 122.557 114.154 122.423 114.265 122.289L114.35 122.183C114.373 122.154 114.391 122.13 114.403 122.113C114.456 122.038 114.56 122.021 114.635 122.075C114.709 122.128 114.726 122.232 114.673 122.306L114.613 122.386C114.587 122.419 114.556 122.457 114.52 122.5C114.401 122.644 114.27 122.787 114.129 122.922C113.781 123.253 113.433 123.476 113.092 123.541C112.866 123.584 112.65 123.553 112.454 123.441C111.873 123.107 111.978 122.484 112.535 121.714C112.704 121.48 112.913 121.235 113.153 120.983C113.383 120.741 113.629 120.506 113.875 120.287C113.94 120.229 114.001 120.176 114.058 120.127L114.205 120.003C114.276 119.946 114.38 119.956 114.438 120.028Z" fill="#9B6160"/>
<path d="M114.961 121.83C115.051 121.813 115.137 121.872 115.154 121.962C115.171 122.052 115.112 122.139 115.021 122.156C114.772 122.202 114.462 122.435 114.097 122.89L113.981 123.038C113.315 123.911 113.193 124.467 113.432 124.598C113.689 124.738 114.266 124.455 114.625 123.909C114.738 123.737 115.002 123.884 114.914 124.071C114.434 125.087 113.853 125.766 113.096 126.302C112.923 126.425 112.742 126.539 112.531 126.662L111.992 126.968C110.828 127.625 110.379 128.144 110.158 129.434C110.143 129.524 110.057 129.585 109.967 129.569C109.876 129.554 109.816 129.468 109.831 129.378C110.06 128.044 110.537 127.441 111.652 126.781L112.315 126.404L112.363 126.376C112.567 126.257 112.74 126.148 112.904 126.031C113.337 125.725 113.708 125.37 114.035 124.921L114.103 124.824L114.058 124.847C113.79 124.971 113.524 125.002 113.317 124.91L113.273 124.889C112.756 124.606 112.956 123.782 113.838 122.683C114.248 122.171 114.619 121.893 114.961 121.83Z" fill="#9B6160"/>
<path d="M109.917 119.707C109.999 119.698 110.074 119.75 110.095 119.827L110.1 119.854L110.4 122.537L110.422 122.573C110.455 122.628 110.493 122.692 110.533 122.764C110.648 122.968 110.763 123.195 110.87 123.44C111.177 124.145 111.362 124.851 111.362 125.516C111.362 125.995 111.264 126.435 111.056 126.826C111.013 126.907 110.912 126.937 110.831 126.894C110.75 126.851 110.72 126.75 110.763 126.67C110.944 126.33 111.03 125.943 111.03 125.516C111.031 124.903 110.857 124.239 110.566 123.573C110.463 123.339 110.353 123.121 110.244 122.926L110.169 122.796C110.139 122.747 110.116 122.709 110.1 122.685C110.091 122.671 110.084 122.655 110.079 122.638L110.074 122.613L109.771 119.891C109.76 119.8 109.826 119.717 109.917 119.707Z" fill="#9B6160"/>
<path fill-rule="evenodd" clip-rule="evenodd" d="M100.242 148.204C100.242 148.204 106.009 150.463 103.85 155.711C101.648 161.062 95.902 158.548 95.902 158.548C95.902 158.548 91.8559 157.033 87.0169 155.043C83.2363 153.487 80.3294 152.308 78.0049 151.083C75.4962 149.76 74.2136 146.874 75.2246 144.416C76.7616 140.68 79.6614 140.07 82.3164 141.024C84.8981 141.952 88.3434 143.31 91.1666 144.396C96.5949 146.483 100.242 148.204 100.242 148.204Z" fill="#41D3BD"/>
<path fill-rule="evenodd" clip-rule="evenodd" d="M95.6874 150.594C95.6874 150.594 93.3491 156.505 98.2248 158.621C103.253 160.803 105.759 155.236 105.759 155.236C105.759 155.236 107.426 151.276 109.501 146.403C110.768 143.428 112.102 140.116 112.725 137.572C113.4 134.818 112.082 133.943 109.644 132.886C106.748 131.629 105.424 131.405 103.947 133.809C102.539 136.101 101.058 139.408 99.7937 141.92C97.3842 146.708 95.6874 150.594 95.6874 150.594Z" fill="#41D3BD"/>
<path fill-rule="evenodd" clip-rule="evenodd" d="M113.224 132.176L107.586 129.729L105.527 133.363L111.977 136.161L113.224 132.176Z" fill="#41D3BD"/>
<path fill-rule="evenodd" clip-rule="evenodd" d="M61.3722 131.44C61.3722 131.44 57.9897 130.225 58.5122 126.709C56.6894 124.043 58.0499 122.01 58.0499 122.01C58.0499 122.01 57.5207 118.219 59.9922 117.616C60.9642 113.492 65.6112 114.325 65.6112 114.325C65.6112 114.325 68.0716 111.581 72.5987 114.107C75.5657 113.753 75.3489 112.287 76.4559 113.158C77.5629 114.029 78.3593 116.348 77.2408 117.484C79.5693 118.084 78.1212 121.861 78.1212 121.861C78.1212 121.861 79.1486 123.758 76.8673 125.66C74.587 127.562 74.3733 132.484 70.4245 134.637C66.6253 136.709 62.1575 136.086 61.3722 131.44Z" fill="#4B4B4B"/>
<path fill-rule="evenodd" clip-rule="evenodd" d="M64.5095 138.225L63.9604 131.632L72.7677 131.372L73.7318 137.06C74.1618 139.599 72.4142 141.993 69.8648 142.357C69.8157 142.364 69.7675 142.371 69.7184 142.378C67.1111 142.751 64.7281 140.85 64.5095 138.225Z" fill="#C99382"/>
<path fill-rule="evenodd" clip-rule="evenodd" d="M64.2192 121.389C64.2192 121.389 65.1558 123.589 63.49 124.482C64.3568 127.384 63.0255 127.37 63.0255 127.37C63.0255 127.37 60.4739 125.135 59.4992 127.694C58.5736 130.125 61.5021 132.892 63.5573 131.988C68.2255 137.038 75.4386 135.965 77.0951 131.76C78.1012 129.205 76.946 125.986 76.8323 124.393C76.5527 120.476 75.6257 119.45 75.6257 119.45C75.6257 119.45 74.2197 120.04 72.3906 119.142C70.912 120.743 68.2095 119.95 68.2095 119.95C68.2095 119.95 66.9566 122.372 64.2192 121.389Z" fill="#C99382"/>
<path d="M61.4122 127.788C62.3397 127.793 63.2568 129.025 62.779 129.433C62.5428 129.634 62.3827 129.882 62.3651 130.092C62.3453 130.329 62.5039 130.532 62.9146 130.691C63.0001 130.724 63.0427 130.82 63.0097 130.905C62.9767 130.991 62.8807 131.033 62.7952 131C62.2578 130.793 62.001 130.463 62.0345 130.064C62.0605 129.753 62.267 129.434 62.5635 129.18L62.5657 129.17C62.5675 129.152 62.5669 129.109 62.5508 129.044C62.5216 128.926 62.4507 128.784 62.3507 128.65C62.1116 128.329 61.7706 128.122 61.4102 128.12C61.0618 128.118 60.8738 128.216 60.7863 128.374C60.7486 128.442 60.7331 128.514 60.7315 128.576L60.7321 128.611C60.7431 128.704 60.6782 128.787 60.5872 128.797C60.5053 128.807 60.4302 128.756 60.4081 128.679L60.4017 128.642L60.401 128.632C60.3928 128.507 60.4154 128.358 60.496 128.213C60.6456 127.943 60.9481 127.785 61.4122 127.788Z" fill="#9B6160"/>
<path d="M62.2629 128.876C62.3545 128.874 62.4298 128.948 62.4311 129.039C62.4323 129.131 62.3591 129.206 62.2674 129.207L62.226 129.209C62.2003 129.21 62.1677 129.213 62.1296 129.217C62.024 129.228 61.9187 129.246 61.8221 129.273C61.5629 129.346 61.4408 129.452 61.4573 129.61L61.4625 129.642C61.4815 129.732 61.4243 129.82 61.3347 129.839C61.2451 129.858 61.157 129.801 61.1379 129.711C61.0543 129.318 61.309 129.073 61.7323 128.954C61.8491 128.921 61.9725 128.899 62.0957 128.887L62.1763 128.88C62.2124 128.877 62.2418 128.876 62.2629 128.876Z" fill="#9B6160"/>
<path fill-rule="evenodd" clip-rule="evenodd" d="M70.9631 125.568C71.1529 127.156 70.0194 128.597 68.4319 128.786C66.8445 128.975 65.4043 127.842 65.2145 126.255C65.0251 124.667 66.1587 123.227 67.7462 123.037C69.3332 122.848 70.7738 123.981 70.9631 125.568Z" fill="white"/>
<path d="M67.7219 122.835C66.0225 123.037 64.8092 124.579 65.0119 126.279C65.2151 127.978 66.7567 129.191 68.456 128.988C70.1554 128.786 71.3687 127.243 71.1656 125.544C70.9629 123.845 69.4209 122.632 67.7219 122.835ZM70.7605 125.593C70.9369 127.068 69.8833 128.407 68.4077 128.583C66.9321 128.759 65.5934 127.706 65.4169 126.23C65.2409 124.755 66.2946 123.416 67.7702 123.24C69.2197 123.067 70.5375 124.08 70.7502 125.515L70.7605 125.593Z" fill="#4B4B4B"/>
<path fill-rule="evenodd" clip-rule="evenodd" d="M77.9027 124.467C78.0921 126.055 76.9585 127.495 75.371 127.684C73.7836 127.874 72.3434 126.741 72.1541 125.153C71.9642 123.566 73.0978 122.126 74.6853 121.936C76.2723 121.746 77.7129 122.88 77.9027 124.467Z" fill="white"/>
<path d="M74.661 121.733C72.9614 121.937 71.7483 123.478 71.9514 125.177C72.1541 126.877 73.6959 128.09 75.3951 127.887C77.0945 127.684 78.3078 126.143 78.1051 124.443C77.9019 122.744 76.3599 121.531 74.661 121.733ZM77.7 124.492C77.8761 125.967 76.8225 127.306 75.3468 127.482C73.8713 127.658 72.5325 126.605 72.3565 125.129C72.1801 123.654 73.2335 122.315 74.7094 122.138C76.1586 121.965 77.4766 122.979 77.6897 124.414L77.7 124.492Z" fill="#4B4B4B"/>
<path d="M71.5639 124.96C71.6328 124.9 71.7376 124.907 71.7981 124.976L71.867 125.056L71.9983 125.213C72.0139 125.232 72.0298 125.252 72.046 125.272C72.231 125.5 72.416 125.742 72.5889 125.987C72.7304 126.188 72.8578 126.384 72.9677 126.57C73.3559 127.229 73.508 127.735 73.3208 128.07C73.1217 128.426 72.7999 128.652 72.396 128.769C72.0683 128.864 71.7258 128.879 71.4155 128.849L71.3229 128.838C71.3154 128.837 71.3089 128.836 71.3034 128.835C71.213 128.82 71.1521 128.734 71.1674 128.644C71.1826 128.554 71.2682 128.493 71.3586 128.508L71.4173 128.516C71.4266 128.517 71.4367 128.518 71.4477 128.519C71.7197 128.545 72.0225 128.532 72.3035 128.45C72.6293 128.356 72.8786 128.181 73.0312 127.908C73.1372 127.718 73.0103 127.296 72.6817 126.739C72.5768 126.56 72.4542 126.373 72.3176 126.178C72.1494 125.939 71.9688 125.703 71.7883 125.481L71.6544 125.319L71.5488 125.195C71.4883 125.126 71.4951 125.021 71.5639 124.96Z" fill="#9B6160"/>
<path fill-rule="evenodd" clip-rule="evenodd" d="M69.4819 129.971C69.4819 129.971 72.1782 129.957 74.0417 129.427C74.0417 129.427 73.736 131.391 71.8092 131.389C70.0983 131.388 69.4819 129.971 69.4819 129.971Z" fill="white"/>
<path d="M73.9942 129.259C73.2139 129.481 72.2264 129.63 71.1349 129.717C70.822 129.743 70.5164 129.761 70.2245 129.775L69.8478 129.789C69.7723 129.791 69.7042 129.793 69.6441 129.794L69.4809 129.797C69.3559 129.798 69.2724 129.926 69.3223 130.041L69.3472 130.093C69.3725 130.144 69.4092 130.209 69.4582 130.286C69.571 130.464 69.7121 130.64 69.8838 130.806C70.3747 131.278 71.0136 131.563 71.8092 131.563C72.7154 131.564 73.3679 131.163 73.7949 130.503C73.9427 130.274 74.0524 130.03 74.1302 129.787C74.1771 129.639 74.2033 129.523 74.2142 129.454C74.2337 129.328 74.1165 129.224 73.9942 129.259ZM73.8008 129.671L73.798 129.681C73.729 129.897 73.6318 130.113 73.5021 130.313C73.136 130.88 72.5898 131.215 71.8095 131.215C71.1087 131.214 70.5544 130.967 70.1256 130.555L70.0525 130.481C69.958 130.382 69.8752 130.28 69.8038 130.177L69.779 130.139L70.0213 130.132C70.3818 130.119 70.7664 130.097 71.1628 130.065C72.0666 129.992 72.9016 129.879 73.6154 129.716L73.8008 129.671Z" fill="#4B4B4B"/>
<path d="M75.523 121.266C75.6121 121.23 75.7138 121.273 75.7502 121.362C75.7866 121.451 75.7438 121.553 75.6546 121.589C74.5277 122.049 73.3665 122.075 72.3845 121.749C72.2932 121.719 72.2437 121.62 72.2741 121.529C72.3044 121.437 72.4031 121.388 72.4945 121.418C73.3987 121.719 74.4742 121.694 75.523 121.266Z" fill="#4B4B4B"/>
<path d="M71.7114 124.307C71.8793 124.3 72.0365 124.306 72.1815 124.329L72.267 124.344L72.1847 124.743C72.0525 124.716 71.8991 124.707 71.7289 124.714C71.4951 124.724 71.2415 124.765 70.9851 124.826C70.9148 124.843 70.8475 124.861 70.7842 124.878L70.6626 124.914L70.5838 124.94L70.4487 124.555L70.5737 124.515C70.67 124.486 70.7764 124.457 70.8903 124.429C71.1701 124.363 71.4484 124.318 71.7114 124.307Z" fill="#4B4B4B"/>
<path d="M74.9443 124.121C75.4518 124.061 75.8136 124.294 76.0307 124.701C76.1409 124.908 76.1932 125.111 76.2103 125.254C76.2236 125.366 76.1438 125.468 76.0319 125.481C75.9294 125.493 75.8355 125.427 75.8103 125.33L75.7945 125.241C75.7906 125.223 75.7858 125.202 75.7798 125.179C75.7545 125.081 75.7185 124.983 75.6707 124.893C75.5269 124.623 75.3164 124.487 74.9925 124.526C74.6892 124.562 74.5044 124.713 74.3974 124.954C74.3332 125.099 74.3068 125.251 74.3031 125.37L74.3028 125.421C74.3076 125.533 74.2202 125.628 74.1076 125.633C74.0045 125.637 73.916 125.564 73.8983 125.465L73.8952 125.436L73.895 125.367C73.8989 125.197 73.9339 124.993 74.0245 124.789C74.187 124.422 74.4899 124.175 74.9443 124.121Z" fill="#4B4B4B"/>
<path d="M68.0292 124.946C68.5366 124.886 68.8983 125.119 69.1153 125.526C69.2254 125.733 69.2777 125.936 69.2948 126.079C69.3081 126.191 69.2283 126.293 69.1164 126.306C69.0046 126.319 68.9031 126.24 68.8897 126.128L68.884 126.092C68.8797 126.069 68.8733 126.039 68.8643 126.004C68.8391 125.906 68.8031 125.808 68.7553 125.718C68.6115 125.449 68.4012 125.313 68.0775 125.351C67.7739 125.387 67.589 125.538 67.482 125.78C67.4086 125.945 67.3846 126.119 67.3873 126.245C67.3921 126.358 67.3047 126.453 67.1921 126.458C67.089 126.463 67.0005 126.39 66.9828 126.291L66.9795 126.254L66.9795 126.192C66.9834 126.023 67.0185 125.818 67.1091 125.614C67.2717 125.248 67.5747 125 68.0292 124.946Z" fill="#4B4B4B"/>
<path d="M65.1905 126.052L65.2388 126.457L62.3979 126.796L62.3496 126.391L65.1905 126.052Z" fill="#4B4B4B"/>
<path d="M69.1464 121.726C69.2265 121.672 69.3347 121.694 69.3882 121.774C69.4416 121.854 69.4201 121.962 69.34 122.016C68.9841 122.254 68.5454 122.451 68.0421 122.612C67.5627 122.766 67.0508 122.88 66.5391 122.961L66.3307 122.991C66.2298 123.005 66.1341 123.017 66.0445 123.027L65.874 123.044C65.8665 123.045 65.8597 123.045 65.8538 123.046C65.7578 123.053 65.6742 122.981 65.667 122.885C65.6598 122.789 65.7318 122.705 65.8278 122.698L65.9655 122.685L66.0064 122.68C66.1506 122.665 66.3116 122.643 66.485 122.616C66.9802 122.539 67.4751 122.428 67.9354 122.28C68.4103 122.128 68.8205 121.944 69.1464 121.726Z" fill="#4B4B4B"/>
<path d="M72.0354 133.18C72.1259 133.165 72.211 133.227 72.2256 133.317L72.2347 133.379C72.2413 133.427 72.2491 133.49 72.2569 133.565C72.2815 133.802 72.2933 134.043 72.2854 134.269C72.2698 134.719 72.1814 135.05 71.9749 135.227C71.9052 135.286 71.8005 135.278 71.741 135.209C71.6814 135.139 71.6896 135.034 71.7593 134.975C71.8724 134.878 71.9412 134.62 71.9538 134.258C71.9611 134.048 71.95 133.822 71.9268 133.599L71.9109 133.461C71.906 133.423 71.9015 133.392 71.898 133.37C71.8834 133.279 71.945 133.194 72.0354 133.18Z" fill="#9B6160"/>
<path d="M72.7182 133.619C72.8081 133.601 72.8954 133.66 72.9132 133.749L72.9295 133.839C72.9415 133.909 72.9535 133.985 72.9647 134.066C72.9883 134.238 73.0052 134.408 73.0124 134.567C73.0198 134.732 73.0165 134.879 73.0004 135.006C72.9888 135.097 72.9058 135.161 72.8149 135.15C72.724 135.138 72.6597 135.055 72.6712 134.964C72.6846 134.859 72.6875 134.729 72.6809 134.582C72.6742 134.434 72.6583 134.274 72.636 134.112L72.6139 133.964L72.5877 133.814C72.5699 133.724 72.6283 133.637 72.7182 133.619Z" fill="#9B6160"/>
<path d="M71.4248 134.008C71.516 134.016 71.5831 134.097 71.5746 134.188L71.5642 134.279C71.5609 134.304 71.557 134.333 71.5522 134.365C71.5326 134.495 71.5069 134.627 71.4743 134.75C71.4026 135.021 71.3092 135.22 71.1703 135.327C71.0979 135.384 70.9937 135.37 70.9376 135.298C70.8877 135.233 70.8926 135.144 70.9452 135.085L70.9672 135.065C71.0308 135.016 71.0993 134.87 71.1535 134.665C71.1827 134.555 71.2061 134.435 71.2241 134.315L71.239 134.206C71.2414 134.186 71.2431 134.17 71.2442 134.157C71.2519 134.075 71.3181 134.013 71.3978 134.007L71.4248 134.008Z" fill="#9B6160"/>
<path d="M73.1857 133.393C73.2632 133.365 73.3481 133.398 73.3872 133.468L73.3985 133.492L73.7423 134.434C73.7737 134.52 73.7294 134.615 73.6433 134.647C73.5658 134.675 73.4809 134.642 73.4418 134.572L73.4305 134.548L73.0868 133.606C73.0553 133.52 73.0996 133.425 73.1857 133.393Z" fill="#9B6160"/>
<path d="M67.3793 134.574C67.4128 134.489 67.5092 134.447 67.5944 134.481C69.3392 135.168 71.1528 135.197 72.8138 134.835C72.9927 134.796 73.1564 134.754 73.3035 134.713L73.4106 134.681C73.5136 134.651 73.5841 134.627 73.6193 134.614C73.7052 134.582 73.8007 134.626 73.8325 134.712C73.8643 134.798 73.8205 134.893 73.7346 134.925L73.6903 134.941C73.6463 134.956 73.5846 134.976 73.5062 134.999C73.3249 135.054 73.1168 135.108 72.8846 135.159C71.1646 135.534 69.2868 135.504 67.4728 134.79C67.3876 134.756 67.3457 134.66 67.3793 134.574Z" fill="#9B6160"/>
<path d="M69.6479 128.64C69.7287 128.597 69.8292 128.627 69.8725 128.708C69.9158 128.789 69.8853 128.889 69.8046 128.932L69.7361 128.971C69.6986 128.993 69.652 129.02 69.5984 129.054C69.4418 129.152 69.2852 129.261 69.1397 129.378C68.7406 129.699 68.5069 130.015 68.5111 130.275C68.5119 130.327 68.5219 130.376 68.5416 130.425C68.576 130.51 68.5351 130.607 68.4502 130.641C68.3653 130.675 68.2685 130.635 68.2341 130.55C68.1989 130.463 68.1808 130.373 68.1793 130.281C68.173 129.886 68.4587 129.5 68.9317 129.119C69.0883 128.993 69.2554 128.877 69.4225 128.773L69.503 128.723C69.5653 128.686 69.6149 128.658 69.6479 128.64Z" fill="#9B6160"/>
<path fill-rule="evenodd" clip-rule="evenodd" d="M63.3459 140.35L63.6896 138.678L74.5122 137.554L75.1449 139.012C75.1449 139.012 83.0009 140.715 84.7198 143.78C86.4926 146.941 85.1356 162.841 85.5949 166.919C88.069 171.538 85.5971 173.37 85.5971 173.37L63.6919 175.984C63.6919 175.984 60.97 174.655 62.6738 171.033C61.0107 165.175 53.2047 149.033 55.4731 146.618C58.9241 142.944 63.3459 140.35 63.3459 140.35Z" fill="#41D3BD"/>
<path d="M55.5285 147.459C55.577 147.381 55.6793 147.358 55.7571 147.406L55.7981 147.433C55.8455 147.465 55.9119 147.515 55.9951 147.582C56.1768 147.729 56.3784 147.916 56.5948 148.145C57.2089 148.797 57.8214 149.66 58.3918 150.764C59.7379 153.369 60.643 156.892 60.9071 161.47C60.9124 161.561 60.8425 161.64 60.7511 161.645C60.6596 161.65 60.5811 161.58 60.5759 161.489C60.3143 156.956 59.4209 153.478 58.097 150.916C57.5408 149.84 56.9463 149.002 56.3533 148.373C56.1472 148.155 55.9565 147.978 55.7862 147.84L55.7168 147.785C55.6532 147.736 55.6075 147.704 55.5816 147.688C55.5039 147.639 55.4801 147.537 55.5285 147.459Z" fill="#125E8A"/>
<path d="M84.8622 144.722C84.9517 144.702 85.0401 144.759 85.0595 144.849C85.4002 146.418 85.5972 148.768 85.6761 151.695C85.7336 153.828 85.725 156.098 85.6733 158.302L85.6487 159.239L85.6162 160.224L85.6012 160.606C85.5972 160.698 85.5197 160.769 85.4282 160.765C85.3366 160.761 85.2656 160.683 85.2697 160.592L85.2874 160.136C85.3007 159.769 85.3141 159.352 85.3265 158.892C85.391 156.508 85.407 154.024 85.3444 151.704L85.3317 151.272C85.2461 148.565 85.0537 146.386 84.7353 144.919C84.7158 144.83 84.7726 144.741 84.8622 144.722Z" fill="#125E8A"/>
<path d="M74.9138 139.524C74.9379 139.612 74.8858 139.703 74.7974 139.727L74.5998 139.779L74.3964 139.83C74.3247 139.848 74.2492 139.866 74.17 139.886L74.0484 139.914C73.4571 140.054 72.8031 140.194 72.1047 140.325C70.4574 140.632 68.8257 140.84 67.2991 140.902C66.1614 140.949 65.1187 140.912 64.1915 140.78C64.1007 140.767 64.0376 140.683 64.0505 140.593C64.0634 140.502 64.1473 140.439 64.2381 140.452C65.1436 140.58 66.1667 140.616 67.2856 140.571C68.7944 140.509 70.411 140.303 72.0438 139.998C72.6501 139.885 73.2227 139.765 73.7493 139.644L73.9721 139.592C74.0951 139.562 74.2101 139.535 74.3164 139.508L74.7101 139.407C74.7985 139.383 74.8897 139.435 74.9138 139.524Z" fill="#125E8A"/>
<path fill-rule="evenodd" clip-rule="evenodd" d="M86.1236 220.333C82.7571 209.254 79.1636 197.836 76.0974 188.818C76.0974 188.818 72.7632 182.636 67.1101 185.661C61.569 188.626 63.9343 196.061 63.9343 196.061L75.7855 224.489C75.7855 224.489 77.7668 229.098 82.8991 226.929C87.5801 224.951 86.1236 220.333 86.1236 220.333Z" fill="#125E8A"/>
<path fill-rule="evenodd" clip-rule="evenodd" d="M90.9514 248.958C88.7605 249.282 87.4451 251.564 88.2658 253.621C89.21 255.987 90.4692 259.19 91.7788 262.658C93.1269 266.227 94.2507 269.182 94.6436 269.468C96.3736 270.726 98.8579 270.532 101.775 271.346C104.083 271.991 104.623 272.497 107.125 272.093C110.671 271.521 108.616 270.669 103.325 267.537C98.611 264.746 98.1623 262.804 98.1623 262.804L94.7423 251.369C94.2538 249.734 92.6385 248.708 90.9514 248.958Z" fill="#C99382"/>
<path fill-rule="evenodd" clip-rule="evenodd" d="M102.612 266.602C105.971 268.407 109.48 269.527 109.868 270.818C110.257 272.109 109.669 273.612 105.009 273.631C101.821 273.644 102.412 272.746 99.0816 271.96C97.4184 271.567 96.9605 271.838 95.3509 271.264C94.309 270.604 93.0308 266.04 93.0308 266.04L99.6245 269.523C99.6245 269.523 97.5268 267.551 98.3489 266.664C99.1718 265.778 99.9744 265.087 100.724 265.302C101.475 265.516 102.612 266.602 102.612 266.602Z" fill="#4B4B4B"/>
<path fill-rule="evenodd" clip-rule="evenodd" d="M86.4368 221.305C92.1549 240.519 98.0159 260.644 98.0159 260.644L90.9904 262.358L75.8819 225.277C75.8819 225.277 74.3369 219.449 79.6077 217.645C84.364 216.017 86.4368 221.305 86.4368 221.305Z" fill="#125E8A"/>
<path fill-rule="evenodd" clip-rule="evenodd" d="M97.9126 215.421C94.5456 204.342 90.9526 192.923 87.886 183.906C87.886 183.906 84.5518 177.724 78.8987 180.749C73.3576 183.714 75.7229 191.149 75.7229 191.149L87.5741 219.577C87.5741 219.577 89.5558 224.185 94.6877 222.017C99.3687 220.039 97.9126 215.421 97.9126 215.421Z" fill="#125E8A"/>
<path fill-rule="evenodd" clip-rule="evenodd" d="M82.2573 243.812C80.4256 242.567 77.9125 243.354 77.1232 245.424C76.2153 247.804 74.9721 251.014 73.5868 254.452C72.1612 257.991 70.9865 260.926 71.0821 261.402C71.5029 263.499 73.462 265.04 75.0566 267.614C76.3184 269.651 76.3728 270.39 78.4868 271.787C81.483 273.768 80.5486 271.749 78.777 265.861C77.1984 260.616 78.1842 258.883 78.1842 258.883L83.4134 248.153C84.1607 246.62 83.6678 244.77 82.2573 243.812Z" fill="#C99382"/>
<path fill-rule="evenodd" clip-rule="evenodd" d="M78.8856 264.691C80.1337 268.294 81.957 271.494 81.3685 272.708C80.7796 273.92 79.3293 274.628 75.8889 271.486C73.5338 269.336 74.5771 269.076 72.6591 266.241C71.7012 264.826 71.1809 264.716 70.3854 263.203C70.0659 262.012 72.2171 257.788 72.2171 257.788L74.7089 264.817C74.7089 264.817 74.5014 261.944 75.7071 261.85C76.9127 261.754 77.971 261.79 78.3776 262.456C78.7842 263.122 78.8856 264.691 78.8856 264.691Z" fill="#4B4B4B"/>
<path fill-rule="evenodd" clip-rule="evenodd" d="M97.665 220.41C88.8582 238.419 79.5395 257.195 79.5395 257.195L73.21 253.697L87.2092 216.183C87.2092 216.183 90.0205 210.849 95.1201 213.092C99.7215 215.116 97.665 220.41 97.665 220.41Z" fill="#125E8A"/>
<path fill-rule="evenodd" clip-rule="evenodd" d="M63.8338 195.009C61.6216 188.815 63.4622 180.812 64.1099 179.311C82.0381 177.472 86.4567 176.653 86.4567 176.653C86.4567 176.653 88.1154 180.834 89.4799 189.505C89.4799 189.505 84.5401 200.599 77.5902 198.888C71.8774 197.481 64.4701 192.918 63.8338 195.009Z" fill="#125E8A"/>
<path fill-rule="evenodd" clip-rule="evenodd" d="M64.1103 179.311L64.0063 175.906L85.9112 173.292L86.4558 176.645C86.4558 176.645 74.94 178.613 64.1103 179.311Z" fill="#125E8A"/>
<path d="M77.6778 178.157C77.7688 178.146 77.8512 178.211 77.862 178.302L77.9225 178.828C77.9705 179.251 78.0241 179.733 78.0818 180.266L78.1916 181.292C78.3194 182.505 78.4457 183.766 78.5654 185.044L78.6514 185.978C78.7352 186.905 78.8124 187.811 78.8818 188.688L78.9159 189.124C79.1695 192.416 79.2967 195.112 79.2643 197.004C79.2627 197.095 79.1872 197.168 79.0955 197.167C79.0039 197.165 78.9309 197.089 78.9325 196.998L78.9361 196.717C78.9516 194.903 78.8319 192.404 78.6033 189.389L78.585 189.149C78.4849 187.85 78.3671 186.484 78.235 185.075L78.1311 183.986C78.0257 182.902 77.9165 181.837 77.8068 180.811L77.6687 179.543L77.5324 178.341C77.5217 178.25 77.5868 178.168 77.6778 178.157Z" fill="#253368"/>
<path d="M74.661 179.137C74.7524 179.13 74.8321 179.199 74.8392 179.29L74.919 180.291C74.9842 181.093 75.0602 181.997 75.1461 182.984C75.3916 185.806 75.6676 188.729 75.9651 191.581C76.1734 192.561 76.6276 193.117 77.2556 193.351C77.6524 193.499 78.0807 193.506 78.479 193.429C78.569 193.411 78.6333 193.394 78.6656 193.384C78.7527 193.355 78.8464 193.403 78.8749 193.49C78.9034 193.577 78.8559 193.671 78.7688 193.699C78.724 193.714 78.6466 193.734 78.5423 193.755C78.0892 193.843 77.602 193.834 77.1396 193.662C76.4021 193.387 75.8718 192.738 75.6378 191.633C75.3749 189.12 75.1306 186.567 74.909 184.076L74.7329 182.053C74.6932 181.588 74.6562 181.145 74.6218 180.727L74.5083 179.316C74.5013 179.224 74.5696 179.144 74.661 179.137Z" fill="#253368"/>
<path d="M66.1497 179.702C66.2407 179.691 66.3231 179.757 66.3335 179.848L66.3432 179.943L66.359 180.134C66.3607 180.158 66.3623 180.182 66.364 180.206C66.428 181.161 66.4021 182.211 66.2208 183.204C65.9337 184.778 65.3017 185.911 64.228 186.397C64.1446 186.435 64.0462 186.398 64.0085 186.314C63.9707 186.231 64.0077 186.132 64.0912 186.095C65.044 185.663 65.6248 184.622 65.8944 183.145C66.0574 182.252 66.0909 181.304 66.0449 180.429L66.028 180.159L66.0039 179.886C65.9934 179.795 66.0587 179.712 66.1497 179.702Z" fill="#253368"/>
<path d="M84.6011 177.671C84.692 177.659 84.7749 177.724 84.7862 177.815L84.8069 177.964C84.8109 177.991 84.8154 178.021 84.8205 178.054C84.8502 178.246 84.8875 178.46 84.9327 178.69C85.0618 179.349 85.2287 180.007 85.4372 180.62C85.9837 182.226 86.7108 183.224 87.6079 183.334C87.6989 183.346 87.7635 183.428 87.7523 183.519C87.7411 183.61 87.6583 183.675 87.5673 183.664C86.5002 183.532 85.7074 182.445 85.1231 180.726C84.9093 180.098 84.7388 179.426 84.607 178.754C84.5702 178.566 84.5385 178.389 84.5117 178.225L84.4632 177.905C84.4606 177.885 84.4585 177.869 84.4568 177.856C84.4456 177.765 84.5101 177.682 84.6011 177.671Z" fill="#253368"/>
<path d="M86.6002 177.368C86.6912 177.358 86.7736 177.423 86.7844 177.514C86.794 177.596 86.7422 177.671 86.6654 177.693L86.639 177.698L64.0745 180.353C63.9835 180.363 63.901 180.298 63.8903 180.207C63.8807 180.125 63.9324 180.05 64.0092 180.028L64.0357 180.023L86.6002 177.368Z" fill="#253368"/>
<path d="M85.7145 172.944C85.8055 172.933 85.8882 172.998 85.8994 173.089C85.9094 173.17 85.858 173.246 85.7813 173.268L85.7549 173.273L64.0753 175.928C63.9843 175.939 63.9015 175.875 63.8904 175.784C63.8804 175.702 63.9318 175.627 64.0085 175.604L64.0349 175.599L85.7145 172.944Z" fill="#253368"/>
<path fill-rule="evenodd" clip-rule="evenodd" d="M69.1479 168.284C69.1479 168.284 71.2384 174.114 65.8649 175.939C60.3858 177.799 58.5018 171.817 58.5018 171.817C58.5018 171.817 56.9816 167.773 55.299 162.818C53.985 158.948 52.9611 155.982 52.3559 153.425C51.7028 150.665 53.0337 147.801 55.5503 146.946C59.3748 145.648 61.7418 147.431 62.7692 150.058C63.7682 152.614 65.0101 156.103 66.049 158.944C68.0462 164.405 69.1479 168.284 69.1479 168.284Z" fill="#41D3BD"/>
<path fill-rule="evenodd" clip-rule="evenodd" d="M94.0814 173.908C94.0814 173.908 88.762 174.748 87.3311 172.661C86.0352 170.77 88.224 168.79 88.224 168.79C88.224 168.79 90.111 167.437 92.5391 166.533C94.1297 165.941 96.9856 164.364 97.5081 165.096C98.1886 166.052 95.0052 167.188 94.965 168.04C94.8836 169.768 100.081 168.508 101.033 168.756C102.894 169.241 100.47 172.95 94.0814 173.908Z" fill="#C99382"/>
<path d="M101.028 169.514C101.112 169.479 101.21 169.518 101.245 169.602C101.281 169.687 101.242 169.784 101.158 169.82C100.884 169.936 100.598 170.039 100.301 170.128C98.9925 170.523 97.6258 170.635 96.4361 170.585L96.275 170.578C96.1621 170.571 96.0821 170.565 96.0389 170.561C95.9477 170.552 95.881 170.471 95.89 170.38C95.8989 170.288 95.9801 170.222 96.0713 170.231L96.2488 170.244L96.293 170.246C97.4844 170.311 98.8802 170.21 100.206 169.81C100.491 169.725 100.765 169.626 101.028 169.514Z" fill="#9B6160"/>
<path d="M100.573 170.778C100.656 170.738 100.755 170.773 100.795 170.856C100.834 170.939 100.799 171.038 100.717 171.077L100.622 171.119L100.5 171.17C100.456 171.188 100.408 171.206 100.357 171.225C100.067 171.334 99.728 171.442 99.3415 171.543C98.2477 171.828 96.9968 172 95.6081 172.002C95.5165 172.003 95.442 171.928 95.4419 171.837C95.4417 171.745 95.5159 171.671 95.6075 171.671C96.9671 171.668 98.1903 171.5 99.2577 171.222C99.6329 171.124 99.9614 171.019 100.241 170.914L100.376 170.862C100.397 170.854 100.417 170.845 100.437 170.837L100.492 170.814C100.533 170.796 100.561 170.784 100.573 170.778Z" fill="#9B6160"/>
<path d="M98.5358 172.301C98.6244 172.277 98.7151 172.331 98.7382 172.419C98.7614 172.508 98.7083 172.599 98.6196 172.622C97.6497 172.875 96.7793 173.034 96.0146 173.116L95.8029 173.137C95.4621 173.168 95.1819 173.179 94.9643 173.178L94.8414 173.175C94.8161 173.175 94.7986 173.174 94.789 173.173C94.6975 173.167 94.6282 173.088 94.6341 172.997C94.6401 172.905 94.719 172.836 94.8105 172.842L94.8523 172.844C95.1062 172.852 95.4839 172.839 95.9793 172.786C96.7277 172.705 97.5818 172.55 98.5358 172.301Z" fill="#9B6160"/>
<path fill-rule="evenodd" clip-rule="evenodd" d="M65.0132 165.438C65.0132 165.438 58.6607 165.657 58.6699 170.972C58.6797 176.453 64.7836 176.526 64.7836 176.526C64.7836 176.526 69.0801 176.47 74.3757 176.425C77.6095 176.398 81.1782 176.297 83.7594 175.851C86.5539 175.369 86.8287 173.811 86.8238 171.153C86.818 167.997 86.4946 166.693 83.7006 166.301C81.0371 165.926 77.4131 165.89 74.6062 165.735C69.254 165.44 65.0132 165.438 65.0132 165.438Z" fill="#41D3BD"/>
<path d="M62.7086 150.347C62.7939 150.313 62.8901 150.355 62.9235 150.441L63.1204 150.948C63.4555 151.817 63.8281 152.813 64.2755 154.03L66.2046 159.329C66.9474 161.361 67.6133 163.299 68.202 165.111L68.4134 165.767L68.8509 165.778C70.5243 165.823 72.262 165.889 74.0262 165.981L75.1677 166.041C75.5228 166.058 75.916 166.075 76.4246 166.096L78.8294 166.194L79.4288 166.222C81.241 166.311 82.5744 166.417 83.724 166.578L83.901 166.605C86.3646 166.994 86.9568 168.034 86.9883 171.357L86.9896 171.595C86.9954 174.805 86.3875 175.983 83.8794 176.441L83.7879 176.457C81.5467 176.844 78.587 176.998 74.3774 177.034L68.3104 177.093L64.786 177.134C64.6944 177.135 64.6191 177.062 64.618 176.97C64.6168 176.878 64.6901 176.803 64.7817 176.802L70.2735 176.74L73.5544 176.709L74.3746 176.702C78.5668 176.667 81.5134 176.513 83.7315 176.13L83.9073 176.098C86.1196 175.671 86.6497 174.651 86.6577 171.711L86.6578 171.596C86.652 168.188 86.1627 167.276 83.7613 166.919L83.6777 166.907C82.4587 166.736 81.0245 166.627 79.0173 166.535L76.9159 166.448L75.7714 166.401C75.3843 166.384 75.065 166.368 74.7528 166.352L74.5969 166.343C72.4378 166.225 70.3115 166.144 68.2876 166.096C68.2169 166.094 68.155 166.048 68.1335 165.98C67.5276 164.082 66.8332 162.034 66.0507 159.876L64.1705 154.708C63.5358 152.973 63.0477 151.67 62.6145 150.562C62.5811 150.476 62.6232 150.38 62.7086 150.347Z" fill="#125E8A"/>
<path fill-rule="evenodd" clip-rule="evenodd" d="M88.9055 174.151L88.8949 168.006L84.7412 167.57L84.7536 174.601L88.9055 174.151Z" fill="#41D3BD"/>
</svg>
