<svg width="642" height="1073" viewBox="0 0 642 1073" fill="none" xmlns="http://www.w3.org/2000/svg">
<g clip-path="url(#clip0)">
<path d="M431.669 336.596C432.622 336.822 433.577 336.234 433.804 335.281C434.03 334.328 433.441 333.373 432.489 333.146C431.536 332.92 430.58 333.509 430.354 334.461C430.127 335.414 430.716 336.37 431.669 336.596Z" fill="#023047" fill-opacity="0.78"/>
<path fill-rule="evenodd" clip-rule="evenodd" d="M439.073 330.638L436.421 341.798L429.287 346.223L424.906 339.062L427.558 327.902L434.692 323.476L439.073 330.638ZM438.285 330.763L434.45 324.493L428.204 328.367L425.693 338.937L429.528 345.206L435.774 341.332L438.285 330.763Z" fill="#023047" fill-opacity="0.78"/>
<path fill-rule="evenodd" clip-rule="evenodd" d="M418.951 326.075L416.653 335.747C414.973 335.536 413.368 336.621 412.968 338.306C412.539 340.112 413.655 341.925 415.462 342.354C416.365 342.569 417.271 342.397 418.003 341.945L425.414 348.952C425.281 349.201 425.178 349.471 425.11 349.758C424.681 351.565 425.797 353.377 427.603 353.806C429.41 354.236 431.222 353.119 431.651 351.313C431.72 351.025 431.749 350.737 431.742 350.455L441.513 347.531C441.964 348.264 442.695 348.825 443.599 349.04C445.405 349.469 447.218 348.352 447.647 346.546C448.047 344.861 447.102 343.17 445.507 342.603L447.805 332.931C449.485 333.142 451.089 332.057 451.49 330.372C451.919 328.565 450.803 326.753 448.996 326.324C447.769 326.032 446.539 326.454 445.742 327.321L438.666 320.631C438.927 320.278 439.123 319.867 439.231 319.412C439.66 317.606 438.544 315.793 436.738 315.364C434.931 314.935 433.119 316.051 432.69 317.858C432.582 318.312 432.572 318.767 432.646 319.201L423.317 321.993C422.995 320.86 422.086 319.93 420.859 319.638C419.053 319.209 417.24 320.325 416.811 322.132C416.411 323.817 417.356 325.507 418.951 326.075ZM438.166 321.172C437.376 321.858 436.278 322.166 435.183 321.906C434.088 321.645 433.246 320.877 432.849 319.909L423.44 322.725C423.457 323.04 423.429 323.363 423.353 323.686C422.952 325.371 421.348 326.456 419.668 326.245L417.37 335.917C418.965 336.485 419.91 338.175 419.51 339.86C419.357 340.502 419.03 341.057 418.591 341.486L425.837 348.337C426.631 347.42 427.896 346.965 429.158 347.265C430.42 347.565 431.345 348.54 431.642 349.716L441.195 346.857C440.995 346.276 440.953 345.633 441.105 344.992C441.506 343.306 443.11 342.222 444.79 342.432L447.088 332.761C445.493 332.193 444.548 330.503 444.948 328.817C445.025 328.495 445.146 328.194 445.303 327.92L438.166 321.172Z" fill="#023047" fill-opacity="0.78"/>
</g>
<path d="M169.551 575.753L382.699 278.902L595.847 575.753H169.551Z" fill="#FF9D00"/>
<path fill-rule="evenodd" clip-rule="evenodd" d="M251.867 588.284C252.729 588.541 253.382 588.896 253.826 589.348C254.269 589.801 254.594 590.518 254.797 591.5L256.158 598.05C256.284 598.655 256.498 599.052 256.799 599.24C257.1 599.428 257.566 599.457 258.194 599.326L259.043 599.15C259.336 599.089 259.594 599.117 259.815 599.235C260.036 599.352 260.192 599.631 260.284 600.069C260.353 600.403 260.309 600.69 260.151 600.93C259.993 601.17 259.777 601.318 259.505 601.375L257.619 601.767C256.592 601.98 255.787 601.924 255.206 601.598C254.625 601.272 254.221 600.566 253.996 599.479L252.615 592.836C252.194 590.81 251.222 589.868 249.7 590.009C249.356 590.038 249.049 589.981 248.779 589.841C248.509 589.701 248.338 589.454 248.264 589.098C248.19 588.743 248.259 588.44 248.469 588.189C248.679 587.939 248.958 587.756 249.306 587.64C250.08 587.37 250.561 586.894 250.747 586.212C250.934 585.531 250.897 584.563 250.636 583.31L249.419 577.45C249.211 576.447 249.343 575.613 249.817 574.948C250.291 574.283 250.969 573.859 251.849 573.676L253.672 573.297C253.944 573.241 254.207 573.268 254.46 573.379C254.712 573.49 254.884 573.764 254.976 574.203C255.1 574.592 255.074 574.891 254.9 575.101C254.725 575.313 254.47 575.452 254.134 575.522L253.223 575.711C252.615 575.838 252.216 576.051 252.028 576.352C251.838 576.653 251.82 577.169 251.972 577.9L253.287 584.23C253.613 585.797 253.139 587.149 251.867 588.284Z" fill="#023047" fill-opacity="0.78"/>
<path fill-rule="evenodd" clip-rule="evenodd" d="M265.214 581.752L263.899 575.422C263.747 574.691 263.525 574.225 263.232 574.024C262.939 573.824 262.489 573.786 261.88 573.913L260.969 574.102C260.634 574.172 260.344 574.145 260.099 574.021C259.855 573.898 259.713 573.633 259.672 573.227C259.581 572.789 259.629 572.468 259.817 572.266C260.004 572.063 260.234 571.934 260.507 571.877L262.33 571.498C263.21 571.316 264.001 571.435 264.7 571.856C265.4 572.278 265.854 572.989 266.062 573.992L267.279 579.852C267.54 581.106 267.891 582.008 268.334 582.559C268.776 583.11 269.406 583.355 270.224 583.294C270.59 583.262 270.918 583.319 271.211 583.465C271.504 583.611 271.687 583.862 271.761 584.217C271.835 584.572 271.776 584.867 271.584 585.103C271.393 585.339 271.134 585.513 270.807 585.624C269.354 586.101 268.837 587.352 269.258 589.379L270.639 596.022C270.864 597.108 270.775 597.917 270.372 598.447C269.968 598.978 269.253 599.35 268.226 599.563L266.34 599.955C266.067 600.012 265.811 599.961 265.57 599.804C265.33 599.647 265.175 599.401 265.106 599.067C265.015 598.629 265.047 598.311 265.203 598.116C265.359 597.92 265.584 597.791 265.877 597.73L266.726 597.554C267.355 597.423 267.77 597.211 267.972 596.919C268.173 596.627 268.211 596.177 268.085 595.572L266.725 589.022C266.521 588.041 266.533 587.254 266.759 586.661C266.986 586.07 267.444 585.484 268.132 584.905C266.513 584.37 265.54 583.319 265.214 581.752Z" fill="#023047" fill-opacity="0.78"/>
<path fill-rule="evenodd" clip-rule="evenodd" d="M89.6962 489.609L102.699 468.476C102.265 468.139 101.982 467.616 101.969 467.024C101.946 465.979 102.775 465.114 103.819 465.091C104.864 465.069 105.729 465.897 105.752 466.942C105.767 467.644 105.397 468.266 104.836 468.604L115.459 491.539C115.673 491.448 115.908 491.396 116.154 491.39C117.199 491.368 118.064 492.196 118.087 493.241C118.11 494.285 117.281 495.151 116.237 495.173C115.23 495.195 114.39 494.427 114.31 493.436L90.7459 491.632C90.5982 492.51 89.8442 493.188 88.9214 493.208C87.8768 493.231 87.0115 492.402 86.9888 491.358C86.966 490.313 87.7944 489.448 88.839 489.425C89.1458 489.418 89.4371 489.485 89.6962 489.609ZM103.902 468.874C103.976 468.873 104.05 468.867 104.123 468.857L107.382 482.663C106.639 482.932 106.116 483.651 106.134 484.484C106.138 484.666 106.167 484.841 106.219 485.006L90.5887 490.502C90.4559 490.224 90.2573 489.984 90.0134 489.801L103.012 468.675C103.279 468.809 103.582 468.881 103.902 468.874ZM106.363 485.348L90.7146 490.851C90.7479 490.983 90.7674 491.121 90.7714 491.262L114.316 493.065C114.356 492.713 114.493 492.39 114.7 492.123L109.09 486.007C108.798 486.207 108.447 486.326 108.067 486.335C107.335 486.351 106.691 485.949 106.363 485.348ZM109.375 485.769L114.955 491.853C115.011 491.804 115.071 491.759 115.133 491.716L104.501 468.764C104.495 468.766 104.489 468.768 104.483 468.77L107.741 482.572C107.821 482.56 107.902 482.553 107.984 482.552C109.029 482.529 109.894 483.357 109.917 484.402C109.928 484.933 109.72 485.418 109.375 485.769Z" fill="#023047" fill-opacity="0.78"/>
<path fill-rule="evenodd" clip-rule="evenodd" d="M282.999 322.742C268.68 322.742 257.072 334.35 257.072 348.668V348.734C257.072 363.053 268.68 374.661 282.999 374.661H321.232C322.66 374.661 324.061 374.545 325.427 374.323L332.834 381.478C333.035 381.672 333.305 381.781 333.585 381.781C334.181 381.781 334.665 381.297 334.665 380.701L334.665 370.913C342.154 366.367 347.158 358.135 347.158 348.734V348.668C347.158 334.35 335.55 322.742 321.232 322.742H282.999Z" fill="#253368"/>
<path d="M289.287 260.628H234.696C214.241 260.628 197.658 277.21 197.658 297.665C197.658 318.12 214.241 334.703 234.696 334.703H289.287C309.742 334.703 326.324 318.12 326.324 297.665C326.324 277.21 309.742 260.628 289.287 260.628Z" fill="#597EF7"/>
<path fill-rule="evenodd" clip-rule="evenodd" d="M215.502 323.929V343.318C215.502 344.17 216.193 344.861 217.045 344.861C217.445 344.861 217.829 344.706 218.117 344.429L232.365 330.681L215.502 323.929Z" fill="#597EF7"/>
<path d="M237.203 302.295C240.506 302.295 243.183 299.618 243.183 296.315C243.183 293.012 240.506 290.335 237.203 290.335C233.901 290.335 231.223 293.012 231.223 296.315C231.223 299.618 233.901 302.295 237.203 302.295Z" fill="white"/>
<path d="M261.702 302.295C265.005 302.295 267.682 299.618 267.682 296.315C267.682 293.012 265.005 290.335 261.702 290.335C258.399 290.335 255.722 293.012 255.722 296.315C255.722 299.618 258.399 302.295 261.702 302.295Z" fill="white"/>
<path d="M286.779 302.295C290.082 302.295 292.759 299.618 292.759 296.315C292.759 293.012 290.082 290.335 286.779 290.335C283.477 290.335 280.799 293.012 280.799 296.315C280.799 299.618 283.477 302.295 286.779 302.295Z" fill="white"/>
<path fill-rule="evenodd" clip-rule="evenodd" d="M209.383 508.024C209.383 508.024 192.332 507.681 191.578 521.922C190.803 536.608 207.146 537.694 207.146 537.694C207.146 537.694 218.664 538.175 232.858 538.83C241.525 539.229 251.101 539.479 258.081 538.664C265.638 537.781 266.602 533.646 266.979 526.526C267.426 518.07 266.749 514.53 259.322 513.069C252.241 511.674 242.536 511.048 235.039 510.223C220.744 508.649 209.383 508.024 209.383 508.024Z" fill="#125E8A"/>
<path fill-rule="evenodd" clip-rule="evenodd" d="M192.894 662.754C200.154 633.624 207.363 603.437 212.548 579.293C212.548 579.293 213.36 561.102 196.756 560.304C180.481 559.523 175.844 579.212 175.844 579.212L164.361 658.234C164.361 658.234 162.634 671.126 176.938 673.135C189.985 674.968 192.894 662.754 192.894 662.754Z" fill="#253368"/>
<path fill-rule="evenodd" clip-rule="evenodd" d="M146.293 721.602C141.893 717.913 135.205 719.286 132.628 724.417C129.663 730.319 125.616 738.272 121.143 746.779C116.539 755.534 112.742 762.799 112.863 764.051C113.401 769.57 118.049 774.056 121.49 781.113C124.21 786.699 124.158 788.618 129.246 792.777C136.455 798.669 134.574 793.217 131.545 777.566C128.847 763.623 131.842 759.412 131.842 759.412L148.139 733.104C150.468 729.344 149.681 724.445 146.293 721.602Z" fill="#C99382"/>
<path fill-rule="evenodd" clip-rule="evenodd" d="M132.132 774.576C134.41 784.196 138.274 792.93 136.438 795.903C134.603 798.878 130.676 800.325 122.623 791.319C117.113 785.157 119.87 784.759 115.666 776.945C113.564 773.043 112.251 772.622 110.595 768.514C110.084 765.357 116.737 755.023 116.737 755.023L121.326 773.807C121.326 773.807 121.543 766.345 124.677 766.415C127.812 766.485 130.533 766.853 131.406 768.679C132.28 770.503 132.132 774.576 132.132 774.576Z" fill="#7D4556"/>
<path fill-rule="evenodd" clip-rule="evenodd" d="M192.16 665.271C164.73 709.418 135.781 755.411 135.781 755.411L120.367 744.733L166.297 651.632C166.297 651.632 174.944 638.609 187.511 645.729C198.851 652.154 192.16 665.271 192.16 665.271Z" fill="#253368"/>
<path fill-rule="evenodd" clip-rule="evenodd" d="M236.927 508.736C236.927 508.736 241.034 524.838 226.22 528.352C211.115 531.936 207.595 515.481 207.595 515.481C207.595 515.481 204.557 504.293 201.318 490.634C198.787 479.961 196.802 471.781 195.832 464.797C194.785 457.262 199.064 449.947 206.003 448.3C216.548 445.799 222.418 451.162 224.498 458.44C226.521 465.518 228.955 475.151 231.012 483.001C234.965 498.096 236.927 508.736 236.927 508.736Z" fill="#125E8A"/>
<path fill-rule="evenodd" clip-rule="evenodd" d="M158.565 415.535C158.565 415.535 149.993 411.12 152.613 401.951C148.696 394.219 153.027 389.287 153.027 389.287C153.027 389.287 152.945 379.017 159.73 378.278C163.759 367.648 175.829 371.489 175.829 371.489C175.829 371.489 183.335 365.052 194.493 373.356C202.511 373.452 202.446 369.474 205.086 372.178C207.726 374.883 209.033 381.331 205.66 383.963C211.644 386.373 206.471 395.916 206.471 395.916C206.471 395.916 208.54 401.318 201.807 405.581C195.075 409.843 192.784 422.86 181.527 427.207C170.696 431.389 159.029 428.169 158.565 415.535Z" fill="#7D4556"/>
<path fill-rule="evenodd" clip-rule="evenodd" d="M164.536 434.683L165.381 416.951L188.901 419.341L189.477 434.807C189.733 441.713 184.246 447.471 177.335 447.546C177.204 447.549 177.072 447.55 176.94 447.551C169.873 447.632 164.199 441.741 164.536 434.683Z" fill="#C99382"/>
<path fill-rule="evenodd" clip-rule="evenodd" d="M169.654 389.794C169.654 389.794 171.377 395.975 166.633 397.766C167.922 405.79 164.386 405.285 164.386 405.285C164.386 405.285 158.381 398.449 154.893 404.915C151.58 411.058 158.402 419.442 164.185 417.758C174.836 432.826 194.4 432.494 200.277 421.888C203.849 415.442 201.901 406.475 202.156 402.196C202.784 391.68 200.675 388.625 200.675 388.625C200.675 388.625 196.728 389.703 192.177 386.676C187.684 390.417 180.773 387.36 180.773 387.36C180.773 387.36 176.593 393.368 169.654 389.794Z" fill="#C99382"/>
<path d="M157.275 406.774C157.742 406.023 158.63 405.652 159.949 405.834C162.415 406.171 164.424 409.768 163.01 410.686C162.311 411.141 161.798 411.744 161.678 412.295C161.542 412.918 161.893 413.514 162.931 414.079C163.147 414.197 163.226 414.467 163.109 414.683C162.991 414.899 162.721 414.979 162.505 414.861C161.147 414.122 160.579 413.156 160.808 412.106C160.986 411.288 161.647 410.51 162.525 409.94L162.534 409.914C162.546 409.865 162.559 409.751 162.539 409.573C162.502 409.249 162.364 408.846 162.145 408.454C161.621 407.516 160.786 406.847 159.828 406.716C158.843 406.58 158.304 406.805 158.031 407.244C157.918 407.425 157.868 407.609 157.855 407.733L157.852 407.79C157.849 408.036 157.647 408.233 157.401 408.23C157.155 408.227 156.958 408.025 156.961 407.779C156.965 407.511 157.044 407.145 157.275 406.774Z" fill="#9B6160"/>
<path d="M160.311 409.059C160.756 408.987 161.219 408.979 161.646 409.008L161.831 409.024C162.076 409.053 162.25 409.274 162.222 409.518C162.193 409.763 161.972 409.937 161.728 409.909L161.585 409.896C161.22 409.871 160.821 409.878 160.455 409.938C159.781 410.048 159.444 410.283 159.432 410.693L159.435 410.783C159.454 411.029 159.271 411.243 159.026 411.262C158.781 411.282 158.567 411.099 158.547 410.854C158.464 409.808 159.19 409.243 160.311 409.059Z" fill="#9B6160"/>
<path fill-rule="evenodd" clip-rule="evenodd" d="M186.133 403.271C186.082 407.56 182.563 410.995 178.274 410.944C173.985 410.892 170.549 407.374 170.601 403.085C170.652 398.796 174.171 395.36 178.46 395.411C182.749 395.462 186.184 398.982 186.133 403.271Z" fill="white"/>
<path d="M178.466 394.864C173.875 394.81 170.109 398.487 170.054 403.078C169.998 407.669 173.675 411.436 178.267 411.492C182.858 411.547 186.626 407.869 186.68 403.278C186.735 398.686 183.057 394.919 178.466 394.864ZM178.453 395.959C182.44 396.006 185.633 399.278 185.586 403.265C185.539 407.251 182.267 410.445 178.28 410.397C174.293 410.349 171.1 407.078 171.149 403.092C171.196 399.105 174.467 395.911 178.453 395.959Z" fill="#7D4556"/>
<path fill-rule="evenodd" clip-rule="evenodd" d="M204.978 402.77C204.927 407.058 201.407 410.494 197.118 410.443C192.829 410.391 189.394 406.873 189.446 402.583C189.497 398.294 193.015 394.859 197.304 394.91C201.593 394.962 205.029 398.481 204.978 402.77Z" fill="white"/>
<path d="M197.311 394.363C192.72 394.308 188.953 397.986 188.899 402.577C188.843 407.169 192.519 410.935 197.111 410.99C201.703 411.045 205.47 407.367 205.525 402.776C205.579 398.261 202.022 394.543 197.536 394.369L197.311 394.363ZM197.298 395.457C201.285 395.506 204.478 398.777 204.431 402.763C204.383 406.75 201.112 409.943 197.124 409.896C193.137 409.847 189.944 406.577 189.993 402.59C190.04 398.673 193.197 395.522 197.089 395.458L197.298 395.457Z" fill="#7D4556"/>
<path d="M187.944 401.864C188.148 401.728 188.425 401.782 188.561 401.987L188.705 402.205L189.077 402.795C189.461 403.417 189.845 404.079 190.204 404.752C190.509 405.324 190.783 405.879 191.017 406.41C191.9 408.413 192.17 409.893 191.53 410.751C190.939 411.544 190.114 412.021 189.13 412.231C188.265 412.416 187.356 412.383 186.488 412.22C186.217 412.169 186.013 412.117 185.895 412.081C185.659 412.009 185.527 411.76 185.6 411.524C185.672 411.289 185.921 411.157 186.156 411.229L186.271 411.262C186.366 411.286 186.495 411.315 186.652 411.345C187.414 411.488 188.212 411.517 188.944 411.36C189.729 411.193 190.364 410.825 190.817 410.219C191.182 409.728 190.954 408.474 190.202 406.769C189.978 406.26 189.714 405.725 189.419 405.171C189.069 404.516 188.694 403.87 188.319 403.262L188.041 402.82L187.822 402.482C187.685 402.278 187.74 402.001 187.944 401.864Z" fill="#9B6160"/>
<path fill-rule="evenodd" clip-rule="evenodd" d="M180.652 414.464C180.652 414.464 187.828 415.372 192.972 414.613C192.972 414.613 191.473 419.728 186.347 419.05C181.796 418.448 180.652 414.464 180.652 414.464Z" fill="white"/>
<path d="M180.203 414.593C180.251 414.764 180.356 415.044 180.527 415.397C180.81 415.979 181.184 416.561 181.663 417.104C182.792 418.385 184.319 419.254 186.285 419.514C188.823 419.849 190.759 418.908 192.132 417.15C192.541 416.627 192.868 416.069 193.123 415.51C193.277 415.172 193.374 414.905 193.421 414.744C193.517 414.417 193.241 414.1 192.904 414.15C191.851 414.306 190.66 414.398 189.356 414.432C187.315 414.487 185.123 414.401 182.962 414.224C182.602 414.195 182.26 414.164 181.938 414.133L180.711 414C180.378 413.958 180.11 414.271 180.203 414.593ZM181.499 415.244L181.383 415.016L181.847 415.064C182.174 415.095 182.521 415.126 182.886 415.156C185.078 415.336 187.302 415.423 189.381 415.367L189.878 415.351C190.533 415.326 191.16 415.286 191.755 415.229L192.245 415.179L192.272 415.122C192.046 415.617 191.755 416.113 191.395 416.574C190.214 418.086 188.592 418.875 186.408 418.587C184.675 418.357 183.35 417.604 182.365 416.486C182.015 416.089 181.728 415.668 181.499 415.244Z" fill="#7D4556"/>
<path d="M191.034 392.985C191.146 392.752 191.426 392.655 191.658 392.768C193.959 393.883 196.827 394.192 199.768 393.422C200.018 393.357 200.273 393.506 200.339 393.756C200.404 394.006 200.255 394.262 200.005 394.327C196.845 395.155 193.748 394.82 191.25 393.609C191.018 393.497 190.921 393.217 191.034 392.985Z" fill="#7D4556"/>
<path d="M185.902 400.267C186.729 400.156 187.575 400.109 188.373 400.162C188.899 400.196 189.383 400.274 189.817 400.402L190.029 400.47L189.671 401.504C189.286 401.371 188.824 401.288 188.301 401.254C187.585 401.207 186.808 401.25 186.047 401.352L185.674 401.407L185.342 401.467L185.117 400.395L185.337 400.354L185.701 400.295C185.766 400.286 185.833 400.276 185.902 400.267Z" fill="#7D4556"/>
<path d="M197.231 400.814C198.54 400.83 199.408 401.517 199.862 402.601C200.091 403.148 200.182 403.688 200.198 404.113L200.2 404.266C200.196 404.573 199.948 404.815 199.646 404.812C199.369 404.809 199.143 404.6 199.11 404.332L199.105 404.205C199.102 404.123 199.093 404.005 199.074 403.863C199.034 403.573 198.962 403.286 198.853 403.024C198.556 402.316 198.054 401.918 197.217 401.908C196.351 401.898 195.789 402.274 195.423 402.943C195.289 403.185 195.193 403.449 195.129 403.714L195.092 403.883C195.083 403.931 195.076 403.973 195.072 404.005L195.067 404.046C195.04 404.347 194.775 404.569 194.474 404.543C194.173 404.516 193.95 404.25 193.977 403.949C194.013 403.551 194.149 402.988 194.463 402.416C195.013 401.414 195.931 400.798 197.231 400.814Z" fill="#7D4556"/>
<path d="M178.546 400.589C179.856 400.604 180.724 401.292 181.178 402.377C181.407 402.924 181.498 403.464 181.514 403.889L181.516 404.042C181.512 404.349 181.264 404.592 180.962 404.588C180.685 404.585 180.459 404.376 180.426 404.108L180.421 403.981C180.418 403.899 180.409 403.781 180.39 403.639C180.35 403.349 180.278 403.062 180.169 402.8C179.872 402.091 179.37 401.693 178.533 401.683C177.667 401.673 177.105 402.049 176.738 402.718C176.605 402.96 176.509 403.225 176.445 403.49C176.422 403.585 176.406 403.665 176.396 403.726L176.383 403.822C176.356 404.123 176.091 404.345 175.79 404.319C175.488 404.292 175.266 404.026 175.293 403.725C175.328 403.327 175.465 402.764 175.779 402.191C176.329 401.189 177.247 400.573 178.546 400.589Z" fill="#7D4556"/>
<path d="M170.601 403.084L162.925 402.992" stroke="#7D4556" stroke-width="1.383"/>
<path d="M182.644 392.415C182.876 392.301 183.156 392.396 183.27 392.628C183.384 392.86 183.289 393.14 183.057 393.254C182.104 393.724 180.972 394.077 179.699 394.328C177.81 394.702 175.849 394.821 174.142 394.794L173.57 394.779C173.506 394.776 173.457 394.774 173.424 394.772C173.166 394.758 172.969 394.537 172.983 394.279C172.998 394.021 173.218 393.824 173.476 393.838L173.749 393.849C175.486 393.903 177.553 393.799 179.518 393.411C180.716 393.174 181.772 392.845 182.644 392.415Z" fill="#7D4556"/>
<path d="M186.322 423.893C186.544 423.886 186.732 424.043 186.772 424.253L186.781 424.36L186.781 424.391C186.785 424.631 186.782 424.938 186.766 425.286C186.743 425.8 186.696 426.307 186.621 426.785C186.426 428.025 186.072 428.911 185.444 429.318C185.237 429.452 184.962 429.393 184.828 429.187C184.709 429.004 184.742 428.766 184.896 428.621L184.959 428.571C185.305 428.347 185.583 427.65 185.742 426.646C185.811 426.205 185.855 425.729 185.876 425.246C185.888 424.982 185.893 424.745 185.892 424.546L185.89 424.35C185.883 424.105 186.077 423.9 186.322 423.893Z" fill="#9B6160"/>
<path d="M187.984 425.3C188.229 425.284 188.441 425.47 188.457 425.715L188.47 425.994C188.493 426.597 188.489 427.247 188.44 427.863C188.403 428.329 188.341 428.742 188.25 429.09C188.187 429.327 187.944 429.47 187.706 429.407C187.468 429.345 187.326 429.101 187.389 428.863C187.465 428.573 187.519 428.21 187.553 427.792C187.587 427.36 187.598 426.905 187.592 426.463L187.581 426.028C187.576 425.906 187.571 425.819 187.568 425.773C187.552 425.527 187.739 425.316 187.984 425.3Z" fill="#9B6160"/>
<path d="M184.408 425.882C184.647 425.937 184.798 426.175 184.743 426.415L184.71 426.554C184.689 426.637 184.661 426.74 184.627 426.858C184.534 427.186 184.425 427.515 184.3 427.825C184.01 428.546 183.687 429.06 183.27 429.303C183.058 429.427 182.785 429.355 182.662 429.143C182.551 428.954 182.596 428.718 182.756 428.58L182.822 428.534C183.014 428.422 183.254 428.04 183.474 427.493C183.586 427.215 183.685 426.915 183.771 426.614L183.825 426.419C183.848 426.332 183.865 426.264 183.875 426.218C183.924 426.002 184.122 425.859 184.336 425.872L184.408 425.882Z" fill="#9B6160"/>
<path d="M189.307 424.864C189.523 424.816 189.737 424.934 189.817 425.133L189.838 425.202L190.423 427.827C190.477 428.067 190.326 428.304 190.086 428.358C189.87 428.406 189.655 428.288 189.576 428.09L189.554 428.02L188.969 425.396C188.916 425.156 189.067 424.918 189.307 424.864Z" fill="#9B6160"/>
<path d="M173.449 425.975C173.568 425.76 173.839 425.682 174.054 425.801C174.393 425.989 174.736 426.167 175.083 426.335C179.676 428.564 184.539 429.017 188.843 428.459C189.095 428.426 189.325 428.392 189.532 428.357L189.889 428.292C189.956 428.279 190.005 428.269 190.035 428.262C190.274 428.208 190.513 428.358 190.568 428.597C190.622 428.837 190.472 429.076 190.233 429.13L190.064 429.165L189.891 429.198C189.621 429.247 189.309 429.296 188.957 429.342C184.496 429.921 179.466 429.451 174.695 427.136C174.333 426.961 173.976 426.775 173.623 426.58C173.408 426.461 173.33 426.19 173.449 425.975Z" fill="#9B6160"/>
<path d="M182.132 411.24C182.219 411.47 182.103 411.727 181.873 411.813L181.664 411.897C181.55 411.945 181.408 412.007 181.245 412.082C180.768 412.301 180.291 412.552 179.849 412.828C178.485 413.679 177.788 414.558 177.992 415.342C178.054 415.58 177.911 415.823 177.673 415.885C177.435 415.947 177.192 415.804 177.13 415.567C176.793 414.27 177.712 413.113 179.377 412.073C179.855 411.775 180.364 411.507 180.873 411.273C181.051 411.191 181.216 411.119 181.365 411.058L181.559 410.98C181.789 410.894 182.046 411.01 182.132 411.24Z" fill="#9B6160"/>
<path fill-rule="evenodd" clip-rule="evenodd" d="M160.697 439.928L162.198 435.6L191.38 436.397L192.553 440.494C192.553 440.494 213.282 445.531 217.293 451.324C222.828 459.321 209.921 508.499 209.717 519.509C214.681 532.659 208.336 535.549 208.336 535.549L149.151 534.839C149.151 534.839 142.374 530.35 148.176 521.314C145.799 505.149 130.196 453.835 137.076 448.205C147.541 439.64 160.697 439.928 160.697 439.928Z" fill="#125E8A"/>
<path d="M138.007 454.236C138.122 454.013 138.397 453.924 138.62 454.039C138.945 454.206 139.483 454.58 140.161 455.216C141.273 456.258 142.38 457.672 143.41 459.511C147.036 465.988 148.818 475.947 147.779 490.129C147.776 490.176 147.765 490.221 147.748 490.264L147.718 490.327L135.685 510.826C135.558 511.043 135.279 511.116 135.062 510.989C134.867 510.874 134.789 510.637 134.868 510.432L134.9 510.366L146.878 489.957L146.915 489.447C147.832 475.965 146.147 466.459 142.77 460.236L142.615 459.955C141.632 458.199 140.583 456.859 139.538 455.88C139.238 455.598 138.956 455.364 138.699 455.175L138.548 455.067C138.376 454.947 138.259 454.877 138.205 454.849C137.981 454.734 137.893 454.46 138.007 454.236Z" fill="#597EF7"/>
<path d="M215.002 464.243C215.251 464.208 215.481 464.382 215.515 464.631C216.285 470.147 216.226 477.236 215.48 485.533C214.968 491.23 214.151 497.294 213.112 503.502C212.521 507.039 211.89 510.425 211.256 513.565L211.084 514.416C210.962 515.007 210.846 515.567 210.734 516.095L210.334 517.948L210.192 518.581L210.331 518.95C210.368 519.051 210.407 519.159 210.447 519.274C210.675 519.925 210.904 520.65 211.117 521.43C211.717 523.626 212.082 525.823 212.094 527.883C212.108 530.312 211.625 532.396 210.541 534.022C210.401 534.231 210.118 534.288 209.909 534.148C209.7 534.009 209.644 533.726 209.783 533.517C210.754 532.062 211.196 530.15 211.184 527.888C211.172 525.917 210.82 523.796 210.239 521.67C210.031 520.912 209.809 520.207 209.588 519.575L209.413 519.093C209.364 518.962 209.324 518.86 209.295 518.79C209.26 518.703 209.252 518.607 209.273 518.515L209.525 517.385C209.726 516.466 209.95 515.411 210.192 514.233C210.881 510.867 211.571 507.199 212.214 503.352C213.25 497.165 214.064 491.123 214.573 485.452C215.313 477.218 215.372 470.192 214.614 464.757C214.579 464.507 214.753 464.277 215.002 464.243Z" fill="#597EF7"/>
<path d="M162.478 440.817C162.545 440.574 162.796 440.433 163.038 440.5C165.626 441.221 168.624 441.697 171.952 441.954C176.942 442.34 182.289 442.219 187.437 441.784L188.299 441.707C188.857 441.656 189.383 441.603 189.873 441.549L190.824 441.44L191.256 441.385C191.505 441.351 191.735 441.526 191.769 441.775C191.803 442.024 191.628 442.253 191.379 442.287L190.935 442.344L190.337 442.414C189.502 442.508 188.555 442.603 187.514 442.691C182.321 443.13 176.928 443.252 171.882 442.862C168.499 442.601 165.444 442.116 162.794 441.377C162.552 441.31 162.41 441.059 162.478 440.817Z" fill="#597EF7"/>
<path fill-rule="evenodd" clip-rule="evenodd" d="M213.187 663.676C201.854 634.749 186.539 595.808 176.443 572.331C176.443 572.331 166.226 556.496 151.74 565.774C137.542 574.87 145.429 594.259 145.429 594.259L186.408 676.963C186.408 676.963 192.677 688.875 205.947 681.997C218.053 675.723 213.187 663.676 213.187 663.676Z" fill="#597EF7"/>
<path fill-rule="evenodd" clip-rule="evenodd" d="M219.634 741.966C213.701 742.305 209.636 748.084 211.332 753.779C213.285 760.33 215.878 769.194 218.54 778.776C221.281 788.639 223.573 796.806 224.553 797.664C228.872 801.443 235.559 801.525 243.155 804.403C249.167 806.681 250.49 808.164 257.272 807.689C266.886 807.016 261.6 804.242 248.215 794.597C236.292 786.005 235.563 780.707 235.563 780.707L229.183 749.323C228.271 744.839 224.203 741.705 219.634 741.966Z" fill="#C99382"/>
<path fill-rule="evenodd" clip-rule="evenodd" d="M246.538 791.928C255.078 797.562 264.184 801.401 264.912 804.945C265.638 808.488 263.704 812.363 251.248 811.29C242.725 810.554 244.521 808.298 235.81 805.393C231.46 803.944 230.172 804.558 226.009 802.636C223.385 800.62 221.069 788.114 221.069 788.114L237.849 799.013C237.849 799.013 232.719 793.236 235.131 791.065C237.543 788.895 239.854 787.244 241.808 787.998C243.761 788.753 246.538 791.928 246.538 791.928Z" fill="#7D4556"/>
<path fill-rule="evenodd" clip-rule="evenodd" d="M213.037 663.158C223.682 715.88 234.489 771.072 234.489 771.072L215.302 773.959L183.874 671.224C183.874 671.224 181.152 655.278 195.672 651.73C208.774 648.527 213.037 663.158 213.037 663.158Z" fill="#597EF7"/>
<path fill-rule="evenodd" clip-rule="evenodd" d="M143.315 582.791C144.206 563.183 148.039 546.417 150.287 542.649C198.621 544.031 209.474 544.582 209.474 544.582C209.474 544.582 214.173 560.063 212.391 581.454C212.391 581.454 197.312 600.629 178.11 600.629C160.796 600.629 143.315 582.791 143.315 582.791Z" fill="#597EF7"/>
<path fill-rule="evenodd" clip-rule="evenodd" d="M149.1 543.837L150.014 534.741L209.199 535.451L209.474 544.561C209.474 544.561 178.152 545.767 149.1 543.837Z" fill="#597EF7"/>
<path d="M188.226 545.301C188.476 545.281 188.696 545.467 188.717 545.718L188.941 548.659L189.123 551.252C189.26 553.261 189.394 555.396 189.523 557.624C189.881 563.845 190.14 569.968 190.258 575.699L190.292 577.583C190.432 586.669 190.179 593.97 189.444 598.902C189.407 599.15 189.176 599.322 188.927 599.285C188.678 599.248 188.507 599.016 188.544 598.768C189.319 593.564 189.553 585.633 189.348 575.718C189.239 570.439 189.01 564.825 188.694 559.108L188.516 556.026C188.385 553.85 188.249 551.774 188.112 549.833L187.902 546.976L187.809 545.792C187.789 545.542 187.975 545.322 188.226 545.301Z" fill="#253368"/>
<path d="M178.42 545.302C178.67 545.28 178.891 545.465 178.912 545.716L179.044 547.353L179.156 548.861C179.243 550.08 179.329 551.385 179.41 552.755C179.666 557.042 179.839 561.287 179.892 565.255L179.907 566.958C179.925 571.231 179.786 574.895 179.462 577.792L179.424 578.115L179.444 578.33C179.729 581.011 181.089 582.578 183.228 583.31L183.431 583.377C184.683 583.766 186.021 583.837 187.216 583.723L187.405 583.703C187.486 583.693 187.546 583.685 187.583 583.679C187.831 583.638 188.066 583.805 188.107 584.053C188.148 584.301 187.98 584.536 187.732 584.577L187.603 584.596C187.524 584.606 187.423 584.618 187.303 584.629C185.998 584.753 184.545 584.677 183.161 584.246C180.568 583.44 178.868 581.565 178.538 578.413L178.513 578.147L178.515 578.057C178.908 574.783 179.05 570.43 178.981 565.267C178.929 561.315 178.756 557.083 178.502 552.809L178.376 550.811C178.306 549.731 178.233 548.703 178.16 547.739L178.005 545.795C177.984 545.544 178.169 545.323 178.42 545.302Z" fill="#253368"/>
<path d="M154.389 545.579C154.64 545.583 154.841 545.79 154.837 546.042L154.826 546.382C154.821 546.493 154.815 546.623 154.806 546.772C154.774 547.346 154.722 547.984 154.647 548.672C154.43 550.638 154.065 552.605 153.514 554.446C152.215 558.793 150.094 561.779 146.937 562.736C146.697 562.809 146.443 562.673 146.37 562.432C146.297 562.191 146.433 561.937 146.673 561.864C149.47 561.017 151.421 558.27 152.642 554.185C153.175 552.403 153.53 550.488 153.741 548.572C153.801 548.036 153.845 547.53 153.876 547.063L153.911 546.459C153.92 546.261 153.925 546.115 153.926 546.027C153.93 545.776 154.137 545.575 154.389 545.579Z" fill="#253368"/>
<path d="M204.182 546.632C204.408 546.634 204.595 546.8 204.628 547.017L204.634 547.09L204.638 547.588C204.647 548.147 204.676 548.882 204.735 549.743C204.862 551.58 205.093 553.409 205.453 555.112C206.359 559.39 207.922 562.159 210.202 562.751C210.446 562.814 210.592 563.062 210.529 563.305C210.466 563.549 210.217 563.695 209.974 563.632C207.248 562.925 205.534 559.89 204.563 555.301C204.192 553.551 203.956 551.682 203.827 549.806L203.78 549.037C203.745 548.388 203.729 547.833 203.724 547.4L203.723 547.084C203.725 546.832 203.931 546.63 204.182 546.632Z" fill="#253368"/>
<path fill-rule="evenodd" clip-rule="evenodd" d="M270.86 536.645L197.551 533.308C194.763 533.181 192.896 530.392 193.842 527.767L212.127 476.974C212.741 475.264 214.399 474.156 216.213 474.239L289.523 477.576C292.31 477.703 294.177 480.492 293.232 483.118L274.946 533.91C274.331 535.619 272.674 536.727 270.86 536.645Z" fill="#597EF7"/>
<path fill-rule="evenodd" clip-rule="evenodd" d="M273.898 536.645L200.589 533.308C197.801 533.181 195.934 530.392 196.879 527.767L215.164 476.974C215.78 475.264 217.436 474.156 219.25 474.239L292.56 477.576C295.347 477.703 297.215 480.492 296.27 483.118L277.984 533.91C277.369 535.619 275.713 536.727 273.898 536.645Z" fill="black"/>
<path fill-rule="evenodd" clip-rule="evenodd" d="M146.488 513.93C146.488 513.93 142.97 530.17 128.146 526.697C113.031 523.155 117.233 506.86 117.233 506.86C117.233 506.86 119.514 495.493 122.718 481.826C125.22 471.146 127.099 462.942 129.352 456.261C131.782 449.05 138.879 444.418 145.821 446.045C156.373 448.519 159.229 455.938 157.839 463.38C156.486 470.615 154.361 480.321 152.693 488.264C149.486 503.534 146.488 513.93 146.488 513.93Z" fill="#125E8A"/>
<path d="M154.622 474.278L154.695 474.288C154.941 474.339 155.099 474.581 155.047 474.827C153.785 480.836 152.548 487.127 151.377 493.383L150.989 495.466C150.719 496.923 150.465 498.314 150.228 499.626L149.497 503.728L149.335 504.657C149.292 504.905 149.057 505.072 148.809 505.029C148.561 504.986 148.395 504.751 148.437 504.503L148.88 501.984C149.237 499.977 149.643 497.731 150.093 495.3C151.379 488.356 152.752 481.324 154.156 474.64C154.203 474.418 154.403 474.268 154.622 474.278Z" fill="#597EF7"/>
<path fill-rule="evenodd" clip-rule="evenodd" d="M208.53 538.316C208.53 538.316 194.08 538.266 191.183 532.125C188.56 526.564 195.203 522.254 195.203 522.254C195.203 522.254 200.78 519.478 207.597 518.121C212.064 517.232 220.304 514.276 221.373 516.44C222.768 519.262 213.85 520.909 213.38 523.151C212.425 527.693 226.73 526.577 229.147 527.641C233.869 529.721 225.863 538.508 208.53 538.316Z" fill="#C99382"/>
<path d="M214.828 529.742C214.891 529.504 215.135 529.362 215.372 529.425L215.636 529.49C215.725 529.51 215.83 529.534 215.951 529.56C216.425 529.664 216.965 529.767 217.563 529.864C220.916 530.406 224.432 530.505 227.709 529.885C228.08 529.815 228.446 529.735 228.806 529.646C229.045 529.587 229.286 529.733 229.345 529.972C229.404 530.211 229.258 530.452 229.019 530.511C228.644 530.604 228.262 530.686 227.874 530.76C224.481 531.402 220.868 531.3 217.421 530.743C216.93 530.663 216.475 530.579 216.063 530.494L215.53 530.379C215.355 530.339 215.225 530.307 215.145 530.286C214.907 530.223 214.766 529.98 214.828 529.742Z" fill="#9B6160"/>
<path d="M227.063 532.799C227.299 532.73 227.546 532.865 227.615 533.1C227.685 533.336 227.55 533.584 227.314 533.653L227.116 533.707C227.031 533.728 226.925 533.754 226.8 533.783C226.39 533.877 225.909 533.971 225.362 534.058C222.013 534.593 217.967 534.649 213.388 533.918C213.145 533.88 212.98 533.651 213.019 533.409C213.058 533.166 213.286 533.001 213.529 533.039C218.01 533.755 221.962 533.7 225.221 533.179C225.643 533.112 226.023 533.041 226.358 532.969L226.601 532.915C226.833 532.862 226.988 532.821 227.063 532.799Z" fill="#9B6160"/>
<path d="M210.917 535.802L211.142 535.846L211.231 535.862C211.504 535.909 211.831 535.957 212.212 536.001C214.492 536.267 217.435 536.303 221.016 535.96C221.261 535.937 221.478 536.116 221.502 536.361C221.525 536.605 221.346 536.823 221.101 536.846C217.457 537.195 214.451 537.159 212.109 536.885C211.712 536.839 211.368 536.789 211.079 536.739L210.718 536.67C210.479 536.615 210.329 536.376 210.384 536.136C210.433 535.921 210.631 535.778 210.845 535.791L210.917 535.802Z" fill="#9B6160"/>
<path fill-rule="evenodd" clip-rule="evenodd" d="M135.156 502.264C135.156 502.264 118.235 500.127 115.988 514.21C113.67 528.733 129.808 531.534 129.808 531.534C129.808 531.534 141.213 533.225 155.258 535.37C163.834 536.68 173.332 537.936 180.358 537.86C187.966 537.777 189.36 533.769 190.484 526.727C191.818 518.365 191.518 514.774 184.286 512.537C177.392 510.405 167.807 508.762 160.438 507.153C146.387 504.083 135.156 502.264 135.156 502.264Z" fill="#125E8A"/>
<path fill-rule="evenodd" clip-rule="evenodd" d="M194.716 535.558L197.314 519.275L186.5 516.346L183.526 534.974L194.716 535.558Z" fill="#125E8A"/>
<path d="M135.737 502.519L137.716 502.852L139.731 503.203C140.612 503.359 141.545 503.526 142.525 503.705L143.119 503.814C147.951 504.701 153.035 505.7 158.212 506.801L162.904 507.805C166.186 508.489 171.749 509.62 171.936 509.657L174.058 510.102C178.648 511.082 182.026 511.91 184.931 512.808C188.5 513.911 190.499 515.378 191.424 517.62L191.492 517.793L197.942 519.54C198.142 519.594 198.277 519.774 198.279 519.975L198.273 520.051L195.674 536.335C195.642 536.539 195.477 536.692 195.277 536.715L195.201 536.718L188.311 536.358C186.764 538.069 184.511 538.926 181.206 539.014L180.872 539.02C175.006 539.083 167.476 538.295 156.973 536.717L144.107 534.765L130.25 532.689C130.001 532.652 129.83 532.421 129.867 532.172C129.903 531.923 130.135 531.751 130.384 531.788L137.842 532.902L149.167 534.609L157.105 535.816C167.563 537.387 175.058 538.172 180.862 538.109C184.219 538.073 186.359 537.257 187.768 535.598C187.842 535.511 187.944 535.456 188.055 535.441L188.139 535.438L194.84 535.786L197.309 520.312L191.027 518.611C190.905 518.578 190.804 518.497 190.745 518.388L190.715 518.319C189.975 516.162 188.189 514.768 184.662 513.678L184.015 513.481C180.956 512.569 177.32 511.709 172.29 510.66L161.519 508.444C161.258 508.389 161.032 508.34 160.85 508.301C155.181 507.062 149.587 505.942 144.277 504.954L142.955 504.709C141.758 504.489 140.628 504.286 139.572 504.099L137.029 503.658L135.592 503.418C135.344 503.378 135.175 503.144 135.215 502.896C135.251 502.672 135.444 502.513 135.664 502.513L135.737 502.519Z" fill="#597EF7"/>
<path fill-rule="evenodd" clip-rule="evenodd" d="M278.967 518.478C278.967 518.478 287.132 515.405 288.971 516.448C291.82 518.062 287.264 522.965 287.264 522.965C287.264 522.965 289.079 525.76 286.11 527.967C285.932 531.29 283.755 531.97 283.755 531.97C283.755 531.97 284.469 534.865 281.334 535.592C278.199 536.317 273.047 533.454 275.481 530.073C274.232 527.059 276.911 525.779 276.911 525.779C276.911 525.779 276.21 523.124 278.843 521.942C277.663 520.365 278.118 518.806 278.967 518.478Z" fill="#C99382"/>
<path d="M285.958 520.68C286.203 520.652 286.423 520.828 286.451 521.072C286.476 521.292 286.337 521.492 286.131 521.551L286.059 521.565L278.893 522.384C278.649 522.412 278.428 522.236 278.4 521.992C278.375 521.772 278.515 521.572 278.721 521.513L278.792 521.499L285.958 520.68Z" fill="#9B6160"/>
<path d="M288.633 516.158C288.794 515.971 289.075 515.95 289.261 516.111C290.155 516.881 290.45 517.885 290.232 519.015C290.062 519.896 289.592 520.812 288.919 521.733C288.624 522.135 288.31 522.511 287.996 522.851L287.784 523.074L287.842 523.246L287.908 523.463C288.145 524.301 288.224 525.168 288.044 525.996C287.861 526.835 287.422 527.555 286.697 528.106L286.55 528.21L286.551 528.226C286.507 529.67 286.076 530.745 285.366 531.487L285.238 531.615C284.868 531.966 284.494 532.185 284.175 532.307L284.08 532.34L283.022 534.811C282.935 535.014 282.714 535.119 282.506 535.068L282.437 535.045C282.234 534.958 282.129 534.737 282.18 534.529L282.203 534.46L283.345 531.794C283.393 531.682 283.485 531.596 283.597 531.553L283.742 531.512C283.792 531.496 283.859 531.47 283.939 531.434C284.172 531.329 284.406 531.177 284.626 530.969C285.273 530.355 285.666 529.392 285.665 527.968C285.664 527.813 285.745 527.669 285.878 527.588C286.604 527.145 287.013 526.543 287.174 525.807C287.318 525.143 287.252 524.415 287.051 523.706C286.977 523.443 286.903 523.249 286.858 523.149C286.78 522.976 286.82 522.772 286.958 522.641L287.181 522.418C287.229 522.368 287.283 522.311 287.341 522.247C287.634 521.93 287.927 521.579 288.2 521.207C288.803 520.383 289.217 519.576 289.358 518.846C289.518 518.014 289.319 517.335 288.68 516.785C288.494 516.625 288.473 516.344 288.633 516.158Z" fill="#9B6160"/>
<path d="M276.972 525.338L283.161 526.198C283.404 526.232 283.574 526.457 283.54 526.701C283.51 526.92 283.325 527.079 283.11 527.084L283.038 527.08L276.85 526.219C276.606 526.186 276.436 525.961 276.47 525.717C276.501 525.498 276.686 525.339 276.9 525.333L276.972 525.338Z" fill="#9B6160"/>
<path d="M275.583 529.641L281.316 531.002C281.555 531.059 281.703 531.299 281.646 531.538C281.595 531.753 281.395 531.895 281.181 531.879L281.11 531.868L275.377 530.507C275.138 530.45 274.99 530.21 275.047 529.971C275.098 529.756 275.298 529.614 275.511 529.63L275.583 529.641Z" fill="#9B6160"/>
<path d="M149.564 543.714L209.482 544.569C209.733 544.572 209.934 544.779 209.93 545.03C209.927 545.257 209.759 545.442 209.543 545.474L209.469 545.479L149.551 544.624C149.3 544.621 149.099 544.414 149.103 544.163C149.106 543.936 149.274 543.751 149.49 543.719L149.564 543.714Z" fill="#253368"/>
<path d="M404.098 703.482C404.003 703.504 403.927 703.613 403.909 703.748L402.988 710.598L406.945 709.613L404.343 703.635C404.299 703.536 404.223 703.475 404.142 703.475C404.126 703.475 404.112 703.477 404.098 703.482Z" fill="#253368"/>
<path d="M426.466 704.387L425.865 706.984C425.733 707.551 426.02 708.128 426.502 708.266C426.986 708.406 427.484 708.058 427.616 707.488L428.217 704.891C428.349 704.321 428.064 703.747 427.58 703.606C427.529 703.593 427.477 703.583 427.425 703.578C426.995 703.544 426.584 703.875 426.466 704.387Z" fill="#50548B"/>
<path d="M402.984 741.234L388.504 752.249H460.787L446.228 741.234H402.984Z" fill="#E4EBF7"/>
<path d="M446.331 752.239L460.787 752.249L446.331 741.234V752.239Z" fill="#A3B5D6"/>
<path d="M401.137 722.338L413.444 793.437C413.726 795.065 415.264 796.156 416.876 795.87L422.356 794.904C423.969 794.618 425.05 793.068 424.767 791.44L412.461 720.342L401.137 722.338Z" fill="#FFA940"/>
<path d="M402.798 710.276L401.139 722.345L412.461 720.348L407.162 709.507L402.798 710.276Z" fill="#FFE7BA"/>
<path d="M404.554 721.776L417.365 795.784L421.987 794.968L409.178 720.959L404.554 721.776Z" fill="#FE9921"/>
<path d="M420.36 790.111L420.173 795.777C420.115 797.529 421.413 798.998 423.072 799.059C424.732 799.12 426.123 797.75 426.182 795.999L426.367 790.332L420.362 790.111H420.36Z" fill="#253368"/>
<path d="M408.547 784.973C408.264 786.602 409.347 788.153 410.961 788.437L414.211 789.008C415.825 789.29 417.361 788.201 417.641 786.572L429.521 717.732L420.426 716.133L408.547 784.973Z" fill="#597EF7"/>
<path d="M425.257 707.421L420.426 716.133L429.527 717.734L427.752 707.852C427.714 707.645 427.551 707.481 427.345 707.448L425.775 707.172C425.747 707.167 425.719 707.166 425.691 707.166C425.513 707.166 425.346 707.261 425.257 707.421Z" fill="#E4EBF7"/>
<path d="M387.337 714.765L384.208 716.961C383.85 717.211 383.718 717.682 383.892 718.085L385.789 722.469C385.989 722.937 386.529 723.149 386.993 722.946L390.418 721.437C390.882 721.231 391.093 720.688 390.891 720.22L388.7 715.151C388.59 714.899 388.373 714.708 388.109 714.633C388.029 714.611 387.945 714.6 387.864 714.6C387.676 714.6 387.494 714.655 387.337 714.765Z" fill="#FF7946"/>
<path d="M386.809 734.907L410.53 789.755L423.362 784.102L399.641 729.254L386.809 734.907Z" fill="#FF7946"/>
<path d="M386.809 734.907L388.887 739.707L401.719 734.056L399.641 729.254L386.809 734.907Z" fill="#253368"/>
<path d="M385.214 721.686L385.532 731.952L386.808 734.908L399.64 729.255L398.372 726.323L390.724 719.258L385.214 721.686Z" fill="#E4EBF7"/>
<path d="M385.529 732.004L386.807 734.958L399.638 729.303L398.36 726.351L385.529 732.004Z" fill="#F5F5F5"/>
<path d="M402.545 744.956L395.737 745.431C395.568 745.442 395.414 745.538 395.326 745.685C395.237 745.83 395.225 746.012 395.293 746.171L395.338 746.273C395.427 746.478 395.634 746.605 395.856 746.588L398.149 746.418C398.371 746.401 398.58 746.53 398.669 746.736L399.252 748.084C399.972 749.75 401.157 750.507 402.761 750.358C404.366 750.211 404.813 749.32 404.116 747.708L403.061 745.274C402.977 745.08 402.786 744.956 402.578 744.956C402.568 744.956 402.556 744.956 402.545 744.956ZM401.106 748.988C400.808 748.777 400.541 748.425 400.328 747.93L399.922 746.993C399.854 746.836 399.866 746.655 399.954 746.508C400.041 746.361 400.195 746.266 400.364 746.254L401.914 746.139C402.136 746.124 402.343 746.249 402.432 746.455L402.975 747.713C403.184 748.193 403.23 748.563 403.129 748.806C403.026 749.048 402.752 749.2 402.276 749.242C402.199 749.249 402.119 749.252 402.045 749.252C401.672 749.252 401.353 749.165 401.106 748.988Z" fill="white"/>
<path d="M405.192 751.106L398.461 751.756C398.295 751.773 398.145 751.868 398.06 752.014C397.974 752.159 397.964 752.338 398.029 752.492L399.813 756.617C399.906 756.829 400.125 756.956 400.353 756.929C400.517 756.911 400.664 756.812 400.747 756.669C400.83 756.523 400.84 756.348 400.772 756.194L399.613 753.511C399.548 753.355 399.558 753.178 399.643 753.033C399.727 752.889 399.876 752.792 400.042 752.777L401.317 752.66C401.542 752.639 401.754 752.764 401.845 752.973L403.081 755.83C403.174 756.042 403.394 756.171 403.623 756.146C403.787 756.126 403.932 756.027 404.017 755.882C404.098 755.738 404.108 755.561 404.042 755.407L403.075 753.172C403.009 753.016 403.02 752.839 403.105 752.695C403.189 752.552 403.338 752.455 403.504 752.438L404.576 752.329C404.801 752.308 405.015 752.431 405.106 752.64L406.419 755.673C406.512 755.887 406.73 756.012 406.959 755.985C407.124 755.965 407.272 755.868 407.353 755.721C407.435 755.573 407.444 755.395 407.372 755.242L405.719 751.419C405.634 751.225 405.447 751.103 405.242 751.103C405.225 751.103 405.209 751.105 405.192 751.106Z" fill="white"/>
<path d="M389.193 765.329V800.448C389.193 801.963 390.395 803.191 391.878 803.191H458.102C459.585 803.191 460.787 801.963 460.787 800.448V765.329H389.193Z" fill="#597EF7"/>
<path d="M389.193 757.756V777.72L460.787 772.027V757.756H389.193Z" fill="#3D60E0"/>
<path d="M430.142 756.802C434.494 759.338 440.137 757.707 442.738 753.161L447.449 744.926L439.564 740.331C435.211 737.795 429.568 739.426 426.968 743.972C424.367 748.518 425.789 754.266 430.142 756.802Z" fill="#0ACF83"/>
<path d="M445.86 710.947C448.469 706.386 454.119 704.742 458.472 707.278L466.357 711.873L456.903 728.4L449.018 723.805C444.665 721.269 443.25 715.508 445.86 710.947Z" fill="#F24E1E"/>
<path d="M466.357 711.873L474.243 716.468C478.595 719.004 480.01 724.764 477.401 729.326C474.792 733.887 469.141 735.531 464.789 732.994L456.903 728.4L466.357 711.873Z" fill="#FF7262"/>
<path d="M467.979 745.797C465.369 750.358 459.719 752.002 455.366 749.466C451.014 746.929 449.599 741.169 452.208 736.608C454.818 732.046 460.468 730.403 464.821 732.939C469.173 735.475 470.588 741.236 467.979 745.797Z" fill="#1ABCFE"/>
<path d="M436.438 727.418C439.047 722.857 444.698 721.213 449.05 723.749L456.936 728.344L447.481 744.871L439.596 740.276C435.244 737.74 433.829 731.979 436.438 727.418Z" fill="#A259FF"/>
<path d="M388.784 752.249L381.797 768.176C381.531 768.752 381.568 769.427 381.894 769.967C382.223 770.506 382.795 770.834 383.409 770.836H465.879C466.508 770.836 467.092 770.494 467.416 769.935C467.739 769.376 467.757 768.682 467.463 768.109L460.618 752.249H388.784Z" fill="#E4EBF7"/>
<g clip-path="url(#clip1)">
<path d="M517.852 475.659C518.576 476.784 520.075 477.11 521.2 476.386C521.968 475.892 522.364 475.038 522.308 474.187C522.29 473.78 522.168 473.39 521.964 473.051C521.399 471.683 520.062 467.477 523.679 464.954L523.713 464.932C524.808 464.203 525.118 462.725 524.402 461.612C523.679 460.488 522.183 460.162 521.061 460.883C520.001 461.564 519.653 462.937 520.227 464.034L520.213 464.03C520.213 464.03 520.237 464.062 520.276 464.122C520.296 464.157 520.316 464.191 520.338 464.224C520.339 464.226 520.341 464.228 520.342 464.23C520.343 464.231 520.343 464.233 520.344 464.234C520.829 465.059 522.301 468.306 518.409 472.381L518.408 472.381C517.976 472.717 517.655 473.2 517.53 473.777C517.513 473.857 517.5 473.936 517.491 474.015C517.413 474.569 517.526 475.152 517.852 475.659Z" fill="#023047" fill-opacity="0.78"/>
<path d="M538.046 450.547C536.034 452.179 533.089 451.891 531.431 449.913L531.381 449.852C525.676 443.338 517.768 446.85 515.232 448.241C513.202 449.816 510.275 449.486 508.649 447.481C507 445.448 507.311 442.464 509.344 440.816C510.993 439.478 513.267 439.431 514.948 440.545L514.949 440.518C524.179 448.104 530.514 444.355 532.06 443.201L532.076 443.187C532.137 443.138 532.198 443.091 532.26 443.046C532.37 442.956 532.427 442.903 532.427 442.903L532.422 442.931C534.435 441.578 537.184 441.962 538.741 443.882C540.39 445.915 540.079 448.899 538.046 450.547Z" fill="#023047" fill-opacity="0.78"/>
</g>
<path fill-rule="evenodd" clip-rule="evenodd" d="M625.377 584.406H280.168C277.809 584.406 275.898 580.474 275.898 575.625C275.898 570.776 277.809 566.845 280.168 566.845H625.377C627.735 566.845 629.647 570.776 629.647 575.625C629.647 580.474 627.735 584.406 625.377 584.406Z" fill="#CCD7EE"/>
<path fill-rule="evenodd" clip-rule="evenodd" d="M314.329 792.313H329.99V584.407H314.329V792.313Z" fill="#597EF7"/>
<path fill-rule="evenodd" clip-rule="evenodd" d="M336.613 802.4H307.706C307.706 796.829 309.902 792.313 312.61 792.313H331.708C334.417 792.313 336.613 796.829 336.613 802.4Z" fill="#253368"/>
<path fill-rule="evenodd" clip-rule="evenodd" d="M596.657 802.4H567.75C567.75 796.829 569.947 792.313 572.655 792.313H591.753C594.461 792.313 596.657 796.829 596.657 802.4Z" fill="#253368"/>
<path fill-rule="evenodd" clip-rule="evenodd" d="M574.374 792.313H590.034V584.407H574.374V792.313Z" fill="#597EF7"/>
<path fill-rule="evenodd" clip-rule="evenodd" d="M549.082 541.383H540.041V510.405C540.041 507.939 542.054 505.94 544.538 505.94H544.585C547.069 505.94 549.082 507.939 549.082 510.405V541.383Z" fill="#7CB305"/>
<path fill-rule="evenodd" clip-rule="evenodd" d="M553.579 548.966H544.51V532.79C544.51 530.389 546.48 528.443 548.908 528.443H549.181C551.61 528.443 553.579 530.389 553.579 532.79V548.966Z" fill="#5B8C00"/>
<path fill-rule="evenodd" clip-rule="evenodd" d="M541.367 541.367H532.239V523.78C532.239 521.365 534.213 519.408 536.648 519.408H536.958C539.393 519.408 541.367 521.365 541.367 523.78V541.367Z" fill="#7CB305"/>
<path fill-rule="evenodd" clip-rule="evenodd" d="M554.118 567.06H530.371C529.433 567.06 528.672 566.307 528.672 565.378V542.018C528.672 541.089 529.433 540.336 530.371 540.336H554.118C555.057 540.336 555.818 541.089 555.818 542.018V565.378C555.818 566.307 555.057 567.06 554.118 567.06Z" fill="#253368"/>
<path fill-rule="evenodd" clip-rule="evenodd" d="M550.616 526.984C550.616 526.984 549.619 516.968 560.386 512.461C571.153 507.954 573.546 510.332 573.546 510.332L572.549 514.339C572.549 514.339 570.854 524.355 563.078 525.732C555.301 527.109 552.311 525.106 550.616 526.984Z" fill="#7CB305"/>
<path d="M572.391 510.805L572.706 511.112L572.68 511.153C572.669 511.171 572.655 511.192 572.638 511.217L572.588 511.291C572.553 511.343 572.515 511.398 572.472 511.457L572.44 511.503C572.221 511.807 571.957 512.146 571.647 512.511C570.764 513.549 569.689 514.587 568.416 515.555C565.861 517.499 562.843 518.912 559.348 519.571L559.218 519.595C556.865 520.023 554.99 521.005 553.538 522.371C552.841 523.026 552.288 523.727 551.864 524.426C551.717 524.67 551.596 524.895 551.5 525.097L551.469 525.163C551.455 525.195 551.441 525.225 551.429 525.253L551.396 525.333L551.394 525.338L551.033 525.124L551.044 525.096C551.067 525.039 551.105 524.952 551.158 524.84C551.261 524.623 551.39 524.382 551.547 524.123C551.993 523.388 552.572 522.654 553.299 521.97C554.783 520.574 556.686 519.569 559.057 519.118L559.161 519.099C562.657 518.462 565.667 517.061 568.21 515.127C569.458 514.178 570.511 513.161 571.375 512.145C571.656 511.814 571.898 511.506 572.101 511.227L572.144 511.167C572.207 511.079 572.262 511 572.309 510.93L572.362 510.851L572.391 510.805Z" fill="#7CB305"/>
<path fill-rule="evenodd" clip-rule="evenodd" d="M572.25 533.745H573.546V510.333H572.25L572.599 517.526C572.698 519.573 572.709 521.626 572.632 523.674L572.25 533.745Z" fill="#7CB305"/>
<path fill-rule="evenodd" clip-rule="evenodd" d="M552.288 492.704C552.288 492.704 556.257 485.126 565.711 489.927C575.166 494.729 575.639 498.563 575.639 498.563L573.156 500.117C573.156 500.117 567.347 505.724 561.39 500.972C555.434 496.22 554.319 492.661 552.288 492.704Z" fill="#7CB305"/>
<path fill-rule="evenodd" clip-rule="evenodd" d="M574.343 540.256H575.34L575.731 498.926C575.736 498.417 575.468 497.966 575.078 497.826L574.343 497.562C574.343 497.562 574.594 501.402 574.543 506.201C574.494 510.791 574.144 516.254 574.144 520.299C574.144 531.742 574.343 540.256 574.343 540.256Z" fill="#7CB305"/>
<path fill-rule="evenodd" clip-rule="evenodd" d="M565.769 492.429C570.072 496.622 574.443 499.315 574.443 499.315L573.156 500.117C573.156 500.117 567.347 505.725 561.39 500.973C555.434 496.221 554.319 492.661 552.288 492.704C552.288 492.704 559.09 485.918 565.769 492.429Z" fill="#5B8C00"/>
<path fill-rule="evenodd" clip-rule="evenodd" d="M598.944 510.629C598.944 510.629 596.267 505.543 589.89 508.766C583.512 511.989 583.192 514.562 583.192 514.562L584.868 515.605C584.868 515.605 588.786 519.368 592.804 516.179C596.822 512.989 597.574 510.6 598.944 510.629Z" fill="#7CB305"/>
<path fill-rule="evenodd" clip-rule="evenodd" d="M584.051 542.752H583.363L583.093 514.876C583.089 514.532 583.274 514.228 583.544 514.134L584.051 513.956C584.051 513.956 583.878 516.546 583.914 519.783C583.947 522.879 584.189 526.563 584.189 529.292C584.189 537.01 584.051 542.752 584.051 542.752Z" fill="#7CB305"/>
<path fill-rule="evenodd" clip-rule="evenodd" d="M599.689 483.064C599.689 483.064 595.72 475.485 586.266 480.287C576.811 485.089 576.337 488.923 576.337 488.923L578.821 490.477C578.821 490.477 584.63 496.084 590.587 491.332C596.543 486.58 597.658 483.021 599.689 483.064Z" fill="#7CB305"/>
<path fill-rule="evenodd" clip-rule="evenodd" d="M577.633 532.243H576.637L576.246 489.286C576.241 488.776 576.509 488.325 576.899 488.185L577.633 487.921C577.633 487.921 577.383 491.762 577.434 496.56C577.483 501.151 577.833 506.613 577.833 510.659C577.833 522.101 577.633 532.243 577.633 532.243Z" fill="#7CB305"/>
<path fill-rule="evenodd" clip-rule="evenodd" d="M599.689 483.064C599.689 483.064 592.887 476.278 586.208 482.788C581.905 486.981 577.534 489.674 577.534 489.674L578.822 490.476C578.822 490.476 584.63 496.084 590.587 491.332C596.543 486.58 597.658 483.02 599.689 483.064Z" fill="#5B8C00"/>
<path fill-rule="evenodd" clip-rule="evenodd" d="M579.428 531.867H581.123L581.793 505.259L580.516 480.146C580.521 479.636 580.254 479.185 579.864 479.045L579.129 478.782C579.129 478.782 580.724 498.725 580.724 502.771C580.724 514.214 579.428 531.867 579.428 531.867Z" fill="#7CB305"/>
<path fill-rule="evenodd" clip-rule="evenodd" d="M560.355 464.731C560.355 464.731 563.975 457.998 572.549 464.759C581.186 471.57 580.586 480.504 580.586 480.504L577.826 480.865C577.826 480.865 570.82 483.557 566.569 476.483C562.319 469.409 562.269 465.585 560.355 464.731Z" fill="#7CB305"/>
<path fill-rule="evenodd" clip-rule="evenodd" d="M560.355 464.73C560.355 464.73 564.252 461.123 567.564 466.261C569.259 468.891 572.257 470.873 573.546 472.396C576.893 476.354 579.256 480.68 579.256 480.68L577.826 480.864C577.826 480.864 570.82 483.557 566.569 476.483C562.319 469.409 562.269 465.585 560.355 464.73Z" fill="#5B8C00"/>
<path fill-rule="evenodd" clip-rule="evenodd" d="M588.875 566.924H565.745C564.424 566.924 563.353 565.578 563.353 563.919V534.872C563.353 533.212 564.424 531.867 565.745 531.867H588.875C590.197 531.867 591.268 533.212 591.268 534.872V563.919C591.268 565.578 590.197 566.924 588.875 566.924Z" fill="#253368"/>
<path fill-rule="evenodd" clip-rule="evenodd" d="M521.2 477.669C533.226 471.937 540.394 486.971 534.346 495.342C526.965 505.556 523.184 517.31 521.078 520.851C519.302 523.838 514.437 531.121 508.578 527.765C503.186 524.675 506.125 512.55 506.125 512.55C506.125 512.55 506.363 484.741 521.2 477.669Z" fill="#5B8C00"/>
<path fill-rule="evenodd" clip-rule="evenodd" d="M485.026 525.43C480.937 519.871 479.444 511.895 484.008 509.849C488.383 507.888 495.631 512.717 498.988 522.01C502.345 531.303 504.282 537.985 500.998 539.146C495.61 541.052 490.426 532.772 485.026 525.43Z" fill="#5B8C00"/>
<path fill-rule="evenodd" clip-rule="evenodd" d="M528.01 525.852C523.385 531.313 516.712 542.298 512.531 538.451C509.997 536.119 513.385 525.077 522.657 519.068C530.544 513.958 532.634 520.391 528.01 525.852Z" fill="#7CB305"/>
<path fill-rule="evenodd" clip-rule="evenodd" d="M483.758 487.955C485.516 486.763 487.729 486.491 489.747 487.142C492.565 488.051 496.84 490.759 501.071 498.53C506.595 508.675 509.471 519.798 508.902 526.843C508.531 531.45 502.898 533.437 499.746 530.077C498.299 528.534 496.768 526.156 495.27 522.548C489.24 508.029 483.603 498.931 482.931 498.017C481.137 495.579 479.855 490.601 483.758 487.955Z" fill="#7CB305"/>
<path fill-rule="evenodd" clip-rule="evenodd" d="M487.802 493.747C487.861 494.464 487.333 495.094 486.622 495.154C485.91 495.214 485.285 494.681 485.226 493.964C485.166 493.248 485.694 492.618 486.406 492.558C487.117 492.498 487.742 493.03 487.802 493.747Z" fill="white"/>
<path fill-rule="evenodd" clip-rule="evenodd" d="M498.781 499.308C498.841 500.025 498.312 500.655 497.601 500.715C496.89 500.775 496.265 500.243 496.205 499.526C496.145 498.809 496.674 498.179 497.385 498.119C498.096 498.059 498.721 498.591 498.781 499.308Z" fill="white"/>
<path fill-rule="evenodd" clip-rule="evenodd" d="M496.941 514.115C497.009 514.936 496.404 515.658 495.59 515.726C494.775 515.795 494.059 515.186 493.991 514.365C493.922 513.544 494.527 512.823 495.342 512.754C496.157 512.685 496.873 513.294 496.941 514.115Z" fill="white"/>
<path fill-rule="evenodd" clip-rule="evenodd" d="M530.664 491.986C530.664 493.152 529.727 494.096 528.571 494.096C527.414 494.096 526.477 493.152 526.477 491.986C526.477 490.821 527.414 489.877 528.571 489.877C529.727 489.877 530.664 490.821 530.664 491.986Z" fill="white"/>
<path fill-rule="evenodd" clip-rule="evenodd" d="M513.811 498.428C513.811 499.594 512.874 500.538 511.718 500.538C510.561 500.538 509.624 499.594 509.624 498.428C509.624 497.263 510.561 496.319 511.718 496.319C512.874 496.319 513.811 497.263 513.811 498.428Z" fill="white"/>
<path fill-rule="evenodd" clip-rule="evenodd" d="M519.269 512.748C519.269 513.235 518.877 513.63 518.394 513.63C517.911 513.63 517.519 513.235 517.519 512.748C517.519 512.261 517.911 511.866 518.394 511.866C518.877 511.866 519.269 512.261 519.269 512.748Z" fill="white"/>
<path fill-rule="evenodd" clip-rule="evenodd" d="M525.573 524.025C525.573 524.744 524.994 525.327 524.28 525.327C523.566 525.327 522.988 524.744 522.988 524.025C522.988 523.305 523.566 522.722 524.28 522.722C524.994 522.722 525.573 523.305 525.573 524.025Z" fill="white"/>
<path d="M495.381 526.914C495.502 526.798 495.692 526.802 495.807 526.924L495.862 526.984L495.904 527.03C495.98 527.116 496.068 527.218 496.167 527.336C496.447 527.673 496.758 528.075 497.093 528.543C498.048 529.875 499.002 531.464 499.891 533.308C502.43 538.57 503.953 544.82 503.953 552.035C503.953 552.203 503.818 552.339 503.651 552.339C503.485 552.339 503.35 552.203 503.35 552.035C503.35 544.915 501.849 538.755 499.349 533.573C498.475 531.762 497.539 530.203 496.605 528.898C496.297 528.47 496.011 528.098 495.753 527.785L495.705 527.727C495.631 527.638 495.565 527.56 495.505 527.492L495.429 527.407C495.401 527.375 495.382 527.354 495.371 527.343C495.256 527.222 495.261 527.029 495.381 526.914Z" fill="#253368"/>
<path d="M518.153 529.039C518.252 528.905 518.441 528.877 518.575 528.978C518.708 529.078 518.735 529.268 518.636 529.403C517.538 530.885 516.525 532.478 515.593 534.166C513.624 537.736 512.101 541.563 510.971 545.391C510.575 546.73 510.257 547.974 510.009 549.089L509.959 549.318C509.9 549.591 509.849 549.84 509.806 550.063L509.777 550.209L509.727 550.484C509.7 550.649 509.544 550.761 509.38 550.733C509.216 550.705 509.105 550.549 509.133 550.383L509.15 550.285C509.164 550.206 509.182 550.113 509.202 550.007L509.252 549.754C509.3 549.513 509.357 549.247 509.421 548.957L509.476 548.713C509.718 547.648 510.022 546.474 510.393 545.217C511.535 541.35 513.074 537.483 515.066 533.871C516.011 532.159 517.038 530.544 518.153 529.039Z" fill="#253368"/>
<path d="M523.42 491.145C523.535 491.257 523.544 491.439 523.442 491.56L523.429 491.575C523.423 491.581 523.41 491.595 523.391 491.616L523.317 491.697L523.274 491.745C523.144 491.891 522.993 492.067 522.823 492.272C522.335 492.86 521.79 493.568 521.203 494.396C519.524 496.766 517.843 499.62 516.274 502.962C513.661 508.525 511.626 514.87 510.392 522.003C508.895 530.665 508.647 540.128 509.873 550.397C509.892 550.564 509.775 550.715 509.609 550.735C509.444 550.755 509.294 550.636 509.274 550.47C508.041 540.141 508.291 530.619 509.798 521.899C511.041 514.711 513.093 508.314 515.729 502.702C517.314 499.327 519.013 496.442 520.713 494.043L520.845 493.858C521.369 493.127 521.859 492.491 522.305 491.949L522.36 491.882C522.521 491.689 522.665 491.521 522.791 491.378L522.825 491.34C522.864 491.296 522.9 491.256 522.931 491.222L522.994 491.155C523.109 491.034 523.3 491.029 523.42 491.145Z" fill="#253368"/>
<path d="M497.33 509.157C497.473 509.07 497.658 509.116 497.744 509.259L497.775 509.311C497.799 509.352 497.827 509.401 497.859 509.458L497.907 509.541C497.988 509.684 498.078 509.849 498.178 510.034L498.261 510.189C498.568 510.764 498.904 511.429 499.263 512.183L499.312 512.286C500.482 514.757 501.651 517.645 502.742 520.928C505.798 530.118 507.656 540.55 507.726 552.034C507.727 552.201 507.593 552.338 507.426 552.339C507.26 552.34 507.124 552.205 507.123 552.037C507.054 540.621 505.206 530.252 502.171 521.121C501.107 517.922 499.969 515.101 498.831 512.682L498.768 512.548C498.378 511.726 498.016 511.009 497.689 510.4L497.591 510.218C497.497 510.044 497.412 509.891 497.337 509.76L497.301 509.698L497.229 509.574C497.142 509.431 497.188 509.244 497.33 509.157Z" fill="#253368"/>
<path fill-rule="evenodd" clip-rule="evenodd" d="M520.528 567.101H494.474C493.066 567.101 491.914 565.94 491.914 564.521V545.368C491.914 543.948 493.066 542.787 494.474 542.787H520.528C521.936 542.787 523.088 543.948 523.088 545.368V564.521C523.088 565.94 521.936 567.101 520.528 567.101Z" fill="#253368"/>
<path fill-rule="evenodd" clip-rule="evenodd" d="M384.848 559.48H413.193V537.208H384.848V559.48Z" fill="#253368"/>
<path fill-rule="evenodd" clip-rule="evenodd" d="M430.368 567.106H368.617C366.101 567.106 364.061 565.067 364.061 562.551C364.061 560.035 366.101 557.996 368.617 557.996H430.368C432.884 557.996 434.923 560.035 434.923 562.551C434.923 565.067 432.884 567.106 430.368 567.106Z" fill="#04395E"/>
<path fill-rule="evenodd" clip-rule="evenodd" d="M494.253 538.655H302.432C297.723 538.655 293.906 534.838 293.906 530.129V413.219C293.906 408.51 297.723 404.693 302.432 404.693H494.253C498.962 404.693 502.779 408.51 502.779 413.219V530.129C502.779 534.838 498.962 538.655 494.253 538.655Z" fill="#04395E"/>
<path fill-rule="evenodd" clip-rule="evenodd" d="M490.323 531.731H305.393C303.354 531.731 301.701 530.045 301.701 527.966V417.714C301.701 415.635 303.354 413.949 305.393 413.949H490.323C492.363 413.949 494.016 415.635 494.016 417.714V527.966C494.016 530.045 492.363 531.731 490.323 531.731Z" fill="#FBF3E6"/>
<path fill-rule="evenodd" clip-rule="evenodd" d="M453.885 440.043H342.67V432.373C342.67 430.709 344.024 429.36 345.695 429.36H450.86C452.531 429.36 453.885 430.709 453.885 432.373V440.043Z" fill="#41D3BD"/>
<path fill-rule="evenodd" clip-rule="evenodd" d="M350.468 434.376C350.468 435.42 349.624 436.266 348.582 436.266C347.54 436.266 346.695 435.42 346.695 434.376C346.695 433.331 347.54 432.485 348.582 432.485C349.624 432.485 350.468 433.331 350.468 434.376Z" fill="#FF7946"/>
<path fill-rule="evenodd" clip-rule="evenodd" d="M357.512 434.376C357.512 435.42 356.668 436.266 355.626 436.266C354.584 436.266 353.739 435.42 353.739 434.376C353.739 433.331 354.584 432.485 355.626 432.485C356.668 432.485 357.512 433.331 357.512 434.376Z" fill="#FAAD14"/>
<path fill-rule="evenodd" clip-rule="evenodd" d="M364.557 434.376C364.557 435.42 363.712 436.266 362.67 436.266C361.628 436.266 360.783 435.42 360.783 434.376C360.783 433.331 361.628 432.485 362.67 432.485C363.712 432.485 364.557 433.331 364.557 434.376Z" fill="#7CB305"/>
<path fill-rule="evenodd" clip-rule="evenodd" d="M346.039 513.744C344.178 513.744 342.67 512.397 342.67 510.735V439.098H453.891V510.735C453.891 512.397 452.382 513.744 450.522 513.744H346.039Z" fill="#E4EBF7"/>
<path d="M445.088 445.262H380.686C379.945 445.262 379.344 445.863 379.344 446.604V506.685C379.344 507.426 379.945 508.027 380.686 508.027H445.088C445.83 508.027 446.431 507.426 446.431 506.685V446.604C446.431 445.863 445.83 445.262 445.088 445.262Z" fill="white"/>
<path d="M373.082 445.15H351.168C350.427 445.15 349.826 445.751 349.826 446.492V506.573C349.826 507.314 350.427 507.915 351.168 507.915H373.082C373.823 507.915 374.424 507.314 374.424 506.573V446.492C374.424 445.751 373.823 445.15 373.082 445.15Z" fill="white"/>
<path d="M368.253 469.808H355.955C355.534 469.808 355.193 470.149 355.193 470.57V472.456C355.193 472.877 355.534 473.218 355.955 473.218H368.253C368.674 473.218 369.015 472.877 369.015 472.456V470.57C369.015 470.149 368.674 469.808 368.253 469.808Z" fill="#ADC6FF"/>
<path d="M368.264 476.42H355.944C355.529 476.42 355.193 476.757 355.193 477.171V478.977C355.193 479.392 355.529 479.728 355.944 479.728H368.264C368.679 479.728 369.015 479.392 369.015 478.977V477.171C369.015 476.757 368.679 476.42 368.264 476.42Z" fill="#FF7946"/>
<path d="M368.264 482.921H355.944C355.529 482.921 355.193 483.257 355.193 483.672V485.478C355.193 485.892 355.529 486.228 355.944 486.228H368.264C368.679 486.228 369.015 485.892 369.015 485.478V483.672C369.015 483.257 368.679 482.921 368.264 482.921Z" fill="#FAAD14"/>
<path d="M368.264 489.422H355.944C355.529 489.422 355.193 489.758 355.193 490.173V491.978C355.193 492.393 355.529 492.729 355.944 492.729H368.264C368.679 492.729 369.015 492.393 369.015 491.978V490.173C369.015 489.758 368.679 489.422 368.264 489.422Z" fill="#597EF7"/>
<path d="M425.41 474.179H386.948C386.453 474.179 386.053 474.579 386.053 475.074V475.077C386.053 475.571 386.453 475.972 386.948 475.972H425.41C425.904 475.972 426.305 475.571 426.305 475.077V475.074C426.305 474.579 425.904 474.179 425.41 474.179Z" fill="#ADC6FF"/>
<path d="M425.41 483.37H386.948C386.453 483.37 386.053 483.77 386.053 484.265V484.268C386.053 484.762 386.453 485.163 386.948 485.163H425.41C425.904 485.163 426.305 484.762 426.305 484.268V484.265C426.305 483.77 425.904 483.37 425.41 483.37Z" fill="#ADC6FF"/>
<path d="M438.827 478.662H386.948C386.453 478.662 386.053 479.063 386.053 479.557V479.561C386.053 480.055 386.453 480.455 386.948 480.455H438.827C439.322 480.455 439.722 480.055 439.722 479.561V479.557C439.722 479.063 439.322 478.662 438.827 478.662Z" fill="#ADC6FF"/>
<path d="M437.932 451.314H387.843C386.854 451.314 386.053 452.116 386.053 453.104V469.699C386.053 470.688 386.854 471.489 387.843 471.489H437.932C438.921 471.489 439.722 470.688 439.722 469.699V453.104C439.722 452.116 438.921 451.314 437.932 451.314Z" fill="#597EF7"/>
<path d="M437.038 489.198H417.809C416.326 489.198 415.124 490.4 415.124 491.882V499.29C415.124 500.773 416.326 501.975 417.809 501.975H437.038C438.52 501.975 439.722 500.773 439.722 499.29V491.882C439.722 490.4 438.52 489.198 437.038 489.198Z" fill="#FF7946"/>
<path d="M362.103 462.929C365.513 462.929 368.278 460.133 368.278 456.684C368.278 453.236 365.513 450.44 362.103 450.44C358.693 450.44 355.929 453.236 355.929 456.684C355.929 460.133 358.693 462.929 362.103 462.929Z" fill="#FAAD14"/>
<path d="M362.103 462.929C363.883 462.93 365.572 462.135 366.717 460.757C365.815 459.025 364.038 457.941 362.102 457.941C360.167 457.941 358.39 459.025 357.488 460.757C358.634 462.135 360.323 462.931 362.103 462.929Z" fill="#253368"/>
<path d="M362.136 458.189C363.419 458.189 364.458 457.138 364.458 455.841C364.458 454.544 363.419 453.492 362.136 453.492C360.854 453.492 359.814 454.544 359.814 455.841C359.814 457.138 360.854 458.189 362.136 458.189Z" fill="#253368"/>
<defs>
<clipPath id="clip0">
<rect width="47.1572" height="47.1572" fill="white" transform="translate(414.681 306.195) rotate(13.3661)"/>
</clipPath>
<clipPath id="clip1">
<rect width="45.1095" height="45.1095" fill="white" transform="translate(554.284 455.982) rotate(140.955)"/>
</clipPath>
</defs>
</svg>
