<svg width="672" height="817" viewBox="0 0 672 817" fill="none" xmlns="http://www.w3.org/2000/svg">
<ellipse cx="320.832" cy="321.168" rx="208.478" ry="208.564" fill="#41D3BD"/>
<path fill-rule="evenodd" clip-rule="evenodd" d="M489.217 625.049H543.229V615.491H489.217V625.049Z" fill="#253368"/>
<path fill-rule="evenodd" clip-rule="evenodd" d="M529.79 517.889L544.253 672.199H556.673L542.209 517.889H529.79Z" fill="#597EF7"/>
<path fill-rule="evenodd" clip-rule="evenodd" d="M490.237 517.889L475.773 672.199H488.193L502.657 517.889H490.237Z" fill="#597EF7"/>
<path fill-rule="evenodd" clip-rule="evenodd" d="M484.964 527.933C478.556 527.933 473.363 523.436 473.363 517.889C473.363 512.343 478.556 507.845 484.964 507.845H548.616C555.023 507.845 560.218 512.343 560.218 517.889C560.218 523.436 555.023 527.933 548.616 527.933H484.964Z" fill="#A3B5D6"/>
<path d="M548.103 444.71C548.343 444.707 548.541 444.898 548.545 445.138C548.548 445.354 548.392 445.536 548.186 445.572L548.115 445.579L509.787 446.126C509.546 446.129 509.349 445.938 509.345 445.698C509.342 445.482 509.498 445.3 509.704 445.264L509.774 445.257L548.103 444.71Z" fill="#A3B5D6"/>
<path fill-rule="evenodd" clip-rule="evenodd" d="M428.826 566.753C428.909 566.498 410.543 630.438 409.616 635.12C407.087 647.9 408.212 649.943 400.708 651.992C398.787 652.518 396.337 651.019 392.949 653.587C383.678 660.619 371.632 663.264 371.196 658.094C371.195 653.332 391.974 642.229 395.628 633.103C399.424 623.621 401.864 544.86 409.731 540.61C417.598 536.36 437.063 512.552 428.826 566.753Z" fill="#FFC999"/>
<path fill-rule="evenodd" clip-rule="evenodd" d="M404.794 654.501C404.794 654.501 408.385 647.995 408.629 639.214C408.629 639.214 401.829 643.342 395.667 648.113C388.552 653.624 387.074 653.687 387.074 653.687C379.315 654.527 378.485 650.028 378.485 650.028C378.485 650.028 373.494 654.369 364.896 658.417C357.196 662.041 383.157 668.151 388.027 662.256C392.898 656.361 398.371 653.43 398.371 653.43L398.465 663.821L400.971 664.237L404.794 654.501Z" fill="#253368"/>
<path fill-rule="evenodd" clip-rule="evenodd" d="M403.948 500.846L381.954 612.815L421.611 620.679C421.611 620.679 435.611 560.556 443.961 509.102C443.961 509.102 450.145 482.574 428.959 478.644C407.775 474.714 403.948 500.846 403.948 500.846Z" fill="#A3B5D6"/>
<path fill-rule="evenodd" clip-rule="evenodd" d="M428.716 476.688C470.499 471.518 501.352 471.076 511.015 473.495C511.015 473.495 531.073 477.507 527.31 492.916C522.718 511.72 501.15 512.034 501.15 512.034L431.295 517.503C425.74 517.996 407.462 520.107 406.408 498.682C405.413 478.474 427.806 476.801 428.716 476.688Z" fill="#A3B5D6"/>
<path fill-rule="evenodd" clip-rule="evenodd" d="M428.129 449.822C428.129 449.822 481.567 431.085 489.126 428.94C508.234 423.516 510.627 446.749 498.507 449.848C491.202 451.716 476.406 453.856 463.521 455.881C445.361 458.735 432.007 460.264 432.007 460.264L428.129 449.822Z" fill="#FFC999"/>
<path fill-rule="evenodd" clip-rule="evenodd" d="M523.343 303.492C523.343 303.492 493.936 309.167 494.202 326.062C494.339 334.751 503.081 343.957 499.043 346.721C483.262 357.517 500.862 361.312 490.904 369.913C476.094 382.706 485.943 403.603 501.927 401.777C518.484 399.884 511.197 423.597 539.596 416.117C555.6 411.902 560.201 408.231 571.479 402.239C582.757 396.246 588.966 366.251 574.502 351.98C565.506 342.944 557.172 344.076 551.894 328.778C546.615 313.479 541.68 304.15 534.058 305.623C531.159 301.71 523.343 303.492 523.343 303.492Z" fill="#253368"/>
<path fill-rule="evenodd" clip-rule="evenodd" d="M507.071 340.532C506.982 340.209 506.528 340.203 506.428 340.523C505.55 343.353 503.471 350.984 506.458 351.271C509.825 351.594 507.885 343.482 507.071 340.532Z" fill="white"/>
<path fill-rule="evenodd" clip-rule="evenodd" d="M536.46 362.844C535.119 351.233 533.845 341.746 533.845 341.746L515.921 351.842L516.979 365.991C517.796 371.2 522.77 374.699 527.961 373.717C533.449 372.676 537.1 368.382 536.46 362.844Z" fill="#F4B784"/>
<path fill-rule="evenodd" clip-rule="evenodd" d="M524.77 321.358C524.77 321.358 522.782 316.11 519.177 318.654C516.598 320.472 517.285 318.979 516.705 317.565C514.549 312.31 513.828 325.25 505.475 327.96C505.336 334.55 504.974 355.614 519.241 356.435C524.792 356.754 531.901 352.81 534.347 345.302C535.942 340.407 534.614 335.48 532.668 334.498C526.257 331.264 526.376 327.928 524.77 321.358Z" fill="#FFC999"/>
<path d="M512.15 326.985C512.358 326.907 512.586 326.994 512.693 327.18L512.724 327.245L514.031 330.723L514.057 330.832L514.089 331.225C514.094 331.297 514.099 331.377 514.104 331.465C514.228 333.665 514.134 336.51 513.672 339.859L513.602 340.345L513.903 340.367C514.548 340.419 515.15 340.498 515.708 340.598L516.037 340.661C516.358 340.725 516.647 340.793 516.903 340.863L517.088 340.915C517.271 340.968 517.398 341.011 517.468 341.037C517.698 341.124 517.814 341.38 517.727 341.61C517.64 341.84 517.384 341.955 517.154 341.869L517.005 341.818C516.958 341.804 516.903 341.787 516.838 341.768C516.564 341.688 516.238 341.607 515.862 341.532C515.042 341.367 514.109 341.251 513.07 341.205C512.805 341.193 512.609 340.955 512.649 340.693C513.199 337.147 513.336 334.137 513.23 331.826L513.201 331.288L513.176 330.981L511.89 327.557C511.812 327.35 511.899 327.122 512.085 327.016L512.15 326.985Z" fill="#DD936F"/>
<path d="M521.814 343.013C522.12 342.919 522.445 343.09 522.539 343.396C522.633 343.702 522.461 344.026 522.155 344.12C521.935 344.188 521.711 344.251 521.484 344.312C520.112 344.676 518.65 344.901 517.17 345.015C516.284 345.083 515.498 345.104 514.86 345.097L514.464 345.088C514.144 345.074 513.896 344.804 513.91 344.484C513.924 344.165 514.195 343.917 514.515 343.931L514.655 343.935C515.293 343.95 516.126 343.933 517.081 343.859C518.495 343.751 519.888 343.536 521.186 343.192C521.399 343.135 521.608 343.076 521.814 343.013Z" fill="#C44343"/>
<path d="M505.8 327.631C507.347 326.584 509.513 326.283 512.331 327.137C512.637 327.23 512.811 327.554 512.717 327.86C512.624 328.166 512.3 328.339 511.993 328.246C509.506 327.492 507.705 327.742 506.452 328.59C506.033 328.874 505.782 329.148 505.681 329.306C505.51 329.576 505.151 329.657 504.88 329.485C504.609 329.314 504.529 328.956 504.701 328.686C504.881 328.402 505.238 328.012 505.8 327.631Z" fill="#253368"/>
<path d="M524.115 325.605C524.997 325.581 525.802 325.634 526.515 325.778C526.829 325.841 527.033 326.146 526.969 326.46C526.906 326.774 526.6 326.977 526.285 326.914C525.667 326.789 524.947 326.742 524.147 326.764C523.118 326.792 522.009 326.932 520.891 327.149C520.559 327.214 520.243 327.281 519.949 327.35L519.463 327.469C519.344 327.499 519.257 327.523 519.202 327.539C518.894 327.627 518.573 327.449 518.485 327.141C518.396 326.834 518.575 326.513 518.883 326.425L519.17 326.348L519.384 326.294C519.774 326.198 520.206 326.101 520.669 326.012C521.845 325.784 523.015 325.636 524.115 325.605Z" fill="#253368"/>
<path d="M518.951 347.455C519.196 347.448 519.402 347.641 519.409 347.886C519.416 348.107 519.26 348.295 519.05 348.336L518.978 348.344L517.427 348.391C517.181 348.399 516.976 348.206 516.968 347.961C516.961 347.74 517.117 347.552 517.327 347.511L517.399 347.503L518.951 347.455Z" fill="#DD936F"/>
<path fill-rule="evenodd" clip-rule="evenodd" d="M542.518 337.678C543.609 332.094 538.26 332.525 538.26 332.525C538.26 332.525 538.252 338.071 536.882 343.053C542.246 342.799 542.518 337.678 542.518 337.678Z" fill="#FFC999"/>
<path fill-rule="evenodd" clip-rule="evenodd" d="M539.562 341.63C539.472 341.306 539.018 341.299 538.919 341.619C538.042 344.45 535.963 352.081 538.949 352.368C542.316 352.692 540.376 344.58 539.562 341.63Z" fill="white"/>
<path d="M509.398 331.95C510.641 331.811 511.702 332.986 511.868 334.486C511.904 334.804 511.674 335.09 511.355 335.125C511.036 335.161 510.75 334.931 510.714 334.613C510.611 333.684 510.034 333.045 509.526 333.101C509.017 333.157 508.595 333.906 508.699 334.837C508.734 335.155 508.505 335.441 508.186 335.477C507.867 335.512 507.58 335.283 507.545 334.965C507.377 333.464 508.155 332.086 509.398 331.95Z" fill="#253368"/>
<path d="M522.317 330.736C523.711 330.53 524.981 331.709 525.217 333.303C525.264 333.62 525.045 333.914 524.728 333.961C524.411 334.008 524.115 333.789 524.069 333.472C523.919 332.462 523.183 331.779 522.487 331.882C521.791 331.985 521.284 332.85 521.432 333.861C521.479 334.177 521.259 334.472 520.942 334.518C520.625 334.565 520.33 334.346 520.284 334.029C520.049 332.435 520.924 330.941 522.317 330.736Z" fill="#253368"/>
<path fill-rule="evenodd" clip-rule="evenodd" d="M486.516 441.185C486.516 441.185 487.724 402.15 488.57 394.629C490.611 376.465 500.823 372.417 508.545 379.816C517.853 388.735 506.768 443.306 506.768 443.306C506.768 443.306 505.358 450.58 496.61 450.715C486.27 450.875 486.516 441.185 486.516 441.185Z" fill="#FFC999"/>
<path fill-rule="evenodd" clip-rule="evenodd" d="M486.845 413.157C487.094 409.241 484.086 374.222 500.525 374.087C513.312 373.983 510.287 390.664 506.622 418.667L486.845 413.157Z" fill="#597EF7"/>
<path fill-rule="evenodd" clip-rule="evenodd" d="M546.951 446.027C537.809 448.253 512.513 447.189 509.798 446.027C507.082 444.866 508.563 436.576 508.563 436.576C492 394.381 493.564 380.361 495.015 377.224C496.976 372.983 514.546 373.224 515.21 369.914C515.537 368.281 515.422 362.646 515.422 362.646L538.068 361.39C538.068 361.39 539.331 367.595 540.528 369.586C542.856 373.458 557.163 370.456 563.048 378.287C573.565 392.282 559.2 416.333 551.297 433.829C551.297 433.829 551.787 442.053 546.951 446.027Z" fill="#597EF7"/>
<path fill-rule="evenodd" clip-rule="evenodd" d="M513.663 504.943L494.347 484.786C494.347 484.786 498.513 462.31 509.215 452.519L547.391 451.183C547.391 451.183 563.773 462.569 561.992 490.152L532.707 505.102L513.663 504.943Z" fill="#E4EBF7"/>
<path fill-rule="evenodd" clip-rule="evenodd" d="M548.284 451.628L509.216 452.519L510.187 446.552L546.992 445.443L548.284 451.628Z" fill="#E4EBF7"/>
<path d="M522.83 452.532C523.069 452.56 523.24 452.775 523.212 453.014C522.77 456.822 522.436 460.962 522.201 465.382C521.672 475.299 521.664 485.853 521.98 495.899L522.039 497.667C522.091 499.126 522.146 500.458 522.202 501.646L522.305 503.684C522.319 503.923 522.136 504.129 521.896 504.143C521.656 504.157 521.45 503.974 521.436 503.735L521.39 502.883L521.311 501.233C521.269 500.313 521.228 499.313 521.189 498.24L521.169 497.697C520.793 487.104 520.77 475.866 521.331 465.335C521.567 460.898 521.903 456.741 522.347 452.914C522.372 452.699 522.55 452.539 522.759 452.53L522.83 452.532Z" fill="#A3B5D6"/>
<path d="M548.171 451.503C548.412 451.498 548.61 451.689 548.614 451.929C548.618 452.145 548.463 452.327 548.257 452.365L548.186 452.371L509.899 453.039C509.658 453.043 509.46 452.852 509.456 452.612C509.452 452.396 509.607 452.214 509.813 452.177L509.883 452.17L548.171 451.503Z" fill="#A3B5D6"/>
<path fill-rule="evenodd" clip-rule="evenodd" d="M510.083 562.787C510.021 562.506 528.078 631.389 529.785 636.206C534.446 649.352 536.599 650.621 530.812 656.596C529.329 658.126 526.252 658.079 524.538 662.291C519.847 673.816 510.202 682.815 506.972 678.291C504.365 673.905 517.428 652.363 515.802 641.968C514.112 631.17 473.282 557.314 478.201 549.114C483.12 540.914 488.025 508.388 510.083 562.787Z" fill="#FFC999"/>
<path fill-rule="evenodd" clip-rule="evenodd" d="M535.944 657.454C535.944 657.454 535.692 649.506 531.115 641.287C531.115 641.287 527.11 648.792 524.046 656.544C520.508 665.493 519.181 666.356 519.181 666.356C512.497 671.357 509.269 667.666 509.269 667.666C509.269 667.666 507.049 674.381 501.345 682.794C496.236 690.326 523.485 681.811 524.746 673.728C526.008 665.646 529.443 659.965 529.443 659.965L535.214 669.484L537.748 668.501L535.944 657.454Z" fill="#253368"/>
<path fill-rule="evenodd" clip-rule="evenodd" d="M449.784 508.149L483.426 625.586L525.07 613.818C525.07 613.818 509.094 549.697 491.961 496.584C491.961 496.584 484.918 468.289 462.803 474.834C440.689 481.378 449.784 508.149 449.784 508.149Z" fill="#E4EBF7"/>
<path fill-rule="evenodd" clip-rule="evenodd" d="M471.711 472.845C518.055 466.044 532.584 466.129 543.391 468.574C543.391 468.574 565.803 472.534 562.007 489.767C557.373 510.798 533.393 511.689 533.393 511.689L475.61 518.177C469.445 518.867 447.454 520.315 447.454 497.87C447.454 475.361 470.702 472.994 471.711 472.845Z" fill="#E4EBF7"/>
<path fill-rule="evenodd" clip-rule="evenodd" d="M549.073 433.792C549.073 433.792 541.622 400.261 541.909 392.425C542.599 373.497 555.848 371.589 562.613 380.026C567.843 386.551 571.112 435.816 571.112 435.816C571.112 435.816 569.119 444.243 560.402 445.113C550.098 446.14 549.073 433.792 549.073 433.792Z" fill="#FFC999"/>
<path fill-rule="evenodd" clip-rule="evenodd" d="M554.984 373.501C564.149 375.39 567.665 384.419 568.496 410.042L544.305 413.956C544.25 410.031 528.396 370.674 556.911 373.871" fill="#597EF7"/>
<path fill-rule="evenodd" clip-rule="evenodd" d="M489.632 451.056C489.632 451.056 547.457 427.692 555.122 425.969C570.675 422.472 576.114 440.789 563.089 446.218C546.324 453.206 492.533 463.61 492.533 463.61L489.632 451.056Z" fill="#FFC999"/>
<path d="M548.38 378.324C548.6 378.227 548.857 378.328 548.954 378.548C549.05 378.767 548.949 379.024 548.729 379.12C546.8 379.962 545.237 382.243 544.04 385.525C543.486 387.044 543.048 388.676 542.714 390.309C542.621 390.766 542.541 391.197 542.475 391.595L542.393 392.11L542.347 392.429L544.738 413.908C544.762 414.123 544.625 414.318 544.423 414.375L544.353 414.388C544.138 414.412 543.942 414.275 543.886 414.074L543.872 414.004L541.476 392.473L541.477 392.371L541.531 391.983L541.567 391.751C541.644 391.263 541.742 390.72 541.861 390.135C542.203 388.464 542.651 386.792 543.222 385.227C544.492 381.742 546.176 379.286 548.38 378.324Z" fill="#253368"/>
<path d="M535.373 370.754C535.613 370.746 535.814 370.934 535.823 371.174C535.83 371.389 535.678 371.574 535.473 371.615L535.402 371.623L518.603 372.195C518.363 372.203 518.161 372.016 518.153 371.776C518.146 371.56 518.297 371.375 518.503 371.335L518.573 371.327L535.373 370.754Z" fill="#253368"/>
<path d="M500.036 384.835C500.241 384.767 500.461 384.859 500.559 385.045L500.587 385.11L501.894 389.024C501.917 389.093 501.922 389.167 501.909 389.239L501.89 389.309L498.509 398.628L498.446 398.763C498.419 398.824 498.387 398.901 498.35 398.993C498.223 399.308 498.097 399.68 497.978 400.105C496.564 405.171 497.537 411.404 502.717 418.232C502.862 418.424 502.825 418.696 502.633 418.841C502.441 418.986 502.168 418.948 502.023 418.757C496.672 411.703 495.655 405.189 497.139 399.872C497.267 399.416 497.403 399.015 497.541 398.671L497.637 398.44C497.664 398.377 497.686 398.33 497.7 398.304L497.711 398.283L501.019 389.155L499.76 385.385C499.692 385.18 499.785 384.96 499.971 384.863L500.036 384.835Z" fill="#253368"/>
<path d="M534.708 464.715C534.946 464.685 535.163 464.855 535.193 465.093C535.219 465.307 535.084 465.504 534.883 465.563L534.814 465.577L468.634 473.688C468.395 473.718 468.178 473.548 468.149 473.31C468.122 473.096 468.257 472.899 468.458 472.84L468.528 472.826L534.708 464.715Z" fill="#A3B5D6"/>
<path fill-rule="evenodd" clip-rule="evenodd" d="M466.957 487.066L534.648 476.372L467.564 456.11L411.811 470.526L466.957 487.066Z" fill="#CCD7EE"/>
<path fill-rule="evenodd" clip-rule="evenodd" d="M464.405 482.357L513.567 474.591L466.005 459.783L424.352 470.344L464.405 482.357Z" fill="#4E5C93"/>
<path fill-rule="evenodd" clip-rule="evenodd" d="M534.607 479.859L534.661 476.396L465.577 486.754L466.747 490.453L534.607 479.859Z" fill="#253368"/>
<path d="M456.621 462.867C456.669 462.735 456.803 462.66 456.936 462.68L456.993 462.695L495.683 476.851C495.833 476.906 495.911 477.072 495.855 477.222C495.807 477.354 495.673 477.429 495.54 477.409L495.483 477.395L456.793 463.238C456.643 463.183 456.566 463.017 456.621 462.867Z" fill="#CCD7EE"/>
<path d="M461.753 460.814C461.799 460.682 461.931 460.604 462.065 460.622L462.122 460.636L505.383 475.649C505.534 475.702 505.614 475.867 505.561 476.018C505.515 476.15 505.383 476.228 505.249 476.21L505.192 476.197L461.931 461.183C461.78 461.13 461.7 460.965 461.753 460.814Z" fill="#CCD7EE"/>
<path d="M456.037 466.377C456.087 466.246 456.222 466.172 456.355 466.194L456.412 466.21L488.902 478.611C489.052 478.669 489.127 478.836 489.07 478.986C489.02 479.116 488.885 479.19 488.752 479.168L488.695 479.153L456.204 466.751C456.054 466.694 455.98 466.526 456.037 466.377Z" fill="#CCD7EE"/>
<path d="M447.135 467.264C447.186 467.134 447.32 467.06 447.453 467.082L447.51 467.097L480.001 479.498C480.151 479.555 480.226 479.723 480.168 479.872C480.118 480.003 479.984 480.076 479.85 480.055L479.794 480.039L447.303 467.638C447.153 467.581 447.078 467.414 447.135 467.264Z" fill="#CCD7EE"/>
<path d="M438.914 468.66C438.964 468.53 439.099 468.456 439.232 468.478L439.289 468.493L471.779 480.894C471.929 480.951 472.004 481.119 471.947 481.268C471.897 481.399 471.762 481.472 471.629 481.45L471.572 481.435L439.081 469.034C438.931 468.977 438.856 468.81 438.914 468.66Z" fill="#CCD7EE"/>
<path d="M505.526 472.464C505.686 472.444 505.83 472.557 505.85 472.716C505.867 472.855 505.783 472.983 505.655 473.026L505.598 473.039L463.527 478.219C463.368 478.239 463.223 478.126 463.203 477.967C463.186 477.828 463.271 477.7 463.399 477.657L463.456 477.644L505.526 472.464Z" fill="#CCD7EE"/>
<path d="M496.194 469.18C496.354 469.16 496.498 469.273 496.518 469.432C496.535 469.571 496.451 469.699 496.323 469.742L496.266 469.755L454.195 474.936C454.036 474.955 453.891 474.842 453.871 474.684C453.854 474.545 453.939 474.417 454.067 474.374L454.124 474.361L496.194 469.18Z" fill="#CCD7EE"/>
<path d="M484.627 466.989C484.786 466.969 484.931 467.082 484.951 467.241C484.968 467.38 484.883 467.508 484.755 467.551L484.698 467.564L442.628 472.745C442.468 472.764 442.324 472.651 442.304 472.493C442.287 472.354 442.371 472.226 442.499 472.183L442.556 472.17L484.627 466.989Z" fill="#CCD7EE"/>
<path d="M476.803 461.179C476.962 461.159 477.107 461.272 477.126 461.431C477.144 461.57 477.059 461.698 476.931 461.741L476.874 461.754L434.803 466.935C434.644 466.954 434.499 466.841 434.48 466.683C434.463 466.544 434.547 466.416 434.675 466.373L434.732 466.36L476.803 461.179Z" fill="#CCD7EE"/>
<path fill-rule="evenodd" clip-rule="evenodd" d="M466.692 490.455L463.65 490.719L411.459 474.355L390.366 386.302L446.581 397.502L466.692 490.455Z" fill="#253368"/>
<path fill-rule="evenodd" clip-rule="evenodd" d="M463.542 490.724L408.504 473.493C408.001 473.335 407.618 472.926 407.495 472.414L387.128 387.793C386.872 386.73 387.808 385.76 388.882 385.976L442.206 396.675C442.79 396.792 443.249 397.244 443.376 397.826L463.542 490.724Z" fill="#4E5C93"/>
<path fill-rule="evenodd" clip-rule="evenodd" d="M495.982 461.403C494.324 467.584 480.53 465.485 480.53 465.485L473.768 470.98C472.697 471.717 472.238 470.997 471.655 471.131C470.084 471.486 469.708 469.84 469.708 469.84C469.109 469.707 468.33 470.318 467.755 468.883C467.755 468.883 466.637 469.054 466.255 467.739C466.112 467.25 468.27 460.631 469.559 456.758C470.126 455.057 471.599 453.822 473.375 453.555L489.883 451.074C489.883 451.074 498.214 453.087 495.982 461.403Z" fill="#FFC999"/>
<path d="M481.514 461.103C481.74 461.006 482.002 461.111 482.098 461.337C482.185 461.54 482.109 461.772 481.928 461.886L481.864 461.92L477.007 463.989L472.15 470.663C472.021 470.84 471.787 470.894 471.597 470.803L471.528 470.762C471.351 470.634 471.296 470.4 471.388 470.21L471.429 470.141L476.359 463.368C476.391 463.325 476.43 463.288 476.474 463.259L476.544 463.221L481.514 461.103Z" fill="#DD936F"/>
<path d="M478.192 459.066C478.406 458.945 478.677 459.021 478.798 459.235C478.907 459.427 478.856 459.666 478.689 459.8L478.629 459.84L474.169 462.346L470.212 469.255C470.102 469.447 469.871 469.526 469.67 469.451L469.604 469.42C469.412 469.31 469.333 469.08 469.408 468.879L469.439 468.814L473.457 461.799C473.484 461.752 473.518 461.711 473.559 461.677L473.625 461.632L478.192 459.066Z" fill="#DD936F"/>
<path d="M474.969 457.184C475.162 457.032 475.442 457.065 475.595 457.257C475.73 457.428 475.72 457.668 475.58 457.826L475.522 457.881L472.52 460.251L468.908 467.668C468.812 467.866 468.586 467.961 468.381 467.899L468.313 467.873C468.114 467.777 468.02 467.552 468.081 467.347L468.107 467.279L471.765 459.771C471.784 459.731 471.81 459.694 471.84 459.662L471.889 459.616L474.969 457.184Z" fill="#DD936F"/>
<path fill-rule="evenodd" clip-rule="evenodd" d="M469.133 273.98L461.831 287.304L448.481 294.59L448.48 294.591L461.831 301.879L469.133 315.203L476.435 301.879L489.786 294.591L489.785 294.59L476.435 287.304L469.134 273.98L469.133 273.98L469.133 273.98Z" fill="#125E8A" fill-opacity="0.62"/>
<path fill-rule="evenodd" clip-rule="evenodd" d="M223.378 185.087L214.277 201.694L197.638 210.775L197.637 210.776L214.277 219.859L223.378 236.466L232.479 219.859L249.12 210.776L249.119 210.775L232.479 201.694L223.379 185.087L223.378 185.087L223.378 185.087Z" fill="#125E8A" fill-opacity="0.62"/>
<path d="M218.384 435.99C220.031 437.634 222.702 437.634 224.349 435.99C225.996 434.346 225.996 431.681 224.349 430.037C222.702 428.393 220.031 428.393 218.384 430.037C216.737 431.681 216.737 434.346 218.384 435.99Z" fill="#597EF7"/>
<path d="M253.869 471.974C255.516 473.617 258.186 473.617 259.834 471.974C261.481 470.33 261.481 467.664 259.834 466.021C258.186 464.377 255.516 464.377 253.869 466.021C252.221 467.664 252.221 470.33 253.869 471.974Z" fill="#597EF7"/>
<path d="M230.279 445.034C234.529 440.792 241.421 440.792 245.672 445.034C249.923 449.276 249.923 456.154 245.672 460.397C241.421 464.639 234.529 464.639 230.278 460.397C226.028 456.155 226.028 449.277 230.279 445.034Z" fill="#597EF7"/>
<path d="M270.214 447.557C270.214 449.881 268.325 451.766 265.996 451.766C263.666 451.766 261.778 449.881 261.778 447.557C261.778 445.232 263.666 443.347 265.996 443.347C268.325 443.347 270.214 445.232 270.214 447.557Z" fill="#597EF7"/>
<path d="M357.94 179.097C355.939 177.377 352.921 177.602 351.198 179.599C349.476 181.596 349.701 184.608 351.702 186.327C353.702 188.046 356.721 187.821 358.443 185.825C360.166 183.828 359.941 180.816 357.94 179.097Z" fill="#597EF7"/>
<path d="M314.793 141.417C312.792 139.698 309.774 139.923 308.051 141.92C306.329 143.916 306.554 146.929 308.555 148.648C310.555 150.367 313.574 150.142 315.296 148.145C317.019 146.149 316.794 143.136 314.793 141.417Z" fill="#597EF7"/>
<path d="M343.732 169.877C339.287 175.03 331.498 175.61 326.335 171.174C321.172 166.737 320.59 158.963 325.036 153.811C329.481 148.658 337.27 148.078 342.433 152.514C347.596 156.951 348.178 164.724 343.732 169.877Z" fill="#597EF7"/>
<path d="M298.385 170.389C298.188 167.762 300.163 165.473 302.796 165.277C305.429 165.081 307.722 167.052 307.919 169.679C308.115 172.306 306.14 174.595 303.508 174.792C300.875 174.988 298.581 173.017 298.385 170.389Z" fill="#597EF7"/>
<path fill-rule="evenodd" clip-rule="evenodd" d="M331.007 425.938C327.325 425.938 324.341 422.96 324.341 419.286C324.341 415.612 327.325 412.633 331.007 412.633C334.688 412.633 337.673 415.612 337.673 419.286C337.673 422.96 334.688 425.938 331.007 425.938ZM351.012 422.295V416.276L346.259 415.071C345.91 413.812 345.41 412.615 344.777 411.503L347.285 407.296L343.02 403.04L338.804 405.543C337.69 404.911 336.492 404.412 335.23 404.064L334.022 399.32H327.991L326.784 404.064C325.522 404.412 324.323 404.911 323.209 405.543L318.993 403.04L314.729 407.296L317.236 411.503C316.604 412.615 316.103 413.812 315.754 415.071L311.001 416.276V422.295L315.754 423.5C316.103 424.759 316.604 425.956 317.236 427.068L314.729 431.275L318.993 435.531L323.209 433.029C324.323 433.66 325.522 434.159 326.784 434.507L327.991 439.251H334.022L335.23 434.507C336.492 434.159 337.69 433.66 338.804 433.029L343.02 435.531L347.285 431.275L344.777 427.068C345.41 425.956 345.91 424.759 346.259 423.5L351.012 422.295Z" fill="#597EF7"/>
<path fill-rule="evenodd" clip-rule="evenodd" d="M360.964 450.741C357.544 450.741 354.771 447.974 354.771 444.56C354.771 441.147 357.544 438.38 360.964 438.38C364.384 438.38 367.157 441.147 367.157 444.56C367.157 447.974 364.384 450.741 360.964 450.741ZM379.55 447.356V441.765L375.134 440.645C374.81 439.475 374.345 438.363 373.758 437.33L376.087 433.421L372.125 429.468L368.209 431.792C367.173 431.206 366.06 430.742 364.887 430.419L363.765 426.012H358.163L357.041 430.419C355.868 430.742 354.755 431.206 353.72 431.792L349.803 429.468L345.841 433.421L348.171 437.33C347.583 438.363 347.118 439.475 346.794 440.645L342.378 441.765V447.356L346.794 448.476C347.118 449.646 347.583 450.757 348.171 451.79L345.841 455.699L349.803 459.653L353.72 457.328C354.755 457.914 355.868 458.379 357.041 458.702L358.163 463.109H363.765L364.887 458.702C366.06 458.379 367.173 457.914 368.209 457.328L372.125 459.653L376.087 455.699L373.758 451.79C374.345 450.757 374.81 449.646 375.134 448.476L379.55 447.356Z" fill="#253368"/>
<path fill-rule="evenodd" clip-rule="evenodd" d="M362.969 417.487L355.624 416.071L363.394 407.277C362.702 407.166 361.991 407.108 361.267 407.108C353.894 407.108 347.916 413.074 347.916 420.433C347.916 427.792 353.894 433.757 361.267 433.757C368.641 433.757 374.619 427.792 374.619 420.433C374.619 419.915 374.588 419.404 374.531 418.901L362.969 417.487Z" fill="#A3B5D6"/>
<path fill-rule="evenodd" clip-rule="evenodd" d="M362.969 417.486L349.154 414.825C348.36 416.529 347.916 418.429 347.916 420.432C347.916 422.236 348.276 423.956 348.927 425.525L319.297 452.957C317.491 458.636 322.941 463.943 328.585 462L328.979 461.865L356.263 432.788C357.808 433.413 359.497 433.757 361.267 433.757C368.641 433.757 374.619 427.791 374.619 420.432C374.619 416.435 372.855 412.85 370.062 410.408L362.969 417.486Z" fill="#CCD7EE"/>
<path fill-rule="evenodd" clip-rule="evenodd" d="M348.901 435.566L345.996 432.667L348.901 429.768L351.806 432.667L348.901 435.566Z" fill="#A3B5D6"/>
<g clip-path="url(#clip0)">
<path d="M150.334 310.947L158.301 306.718L184.665 356.187C185.269 357.32 184.839 358.727 183.703 359.33L179.848 361.376C178.713 361.979 177.303 361.549 176.699 360.416L150.334 310.947Z" fill="#FAAD14"/>
<path d="M151.728 300.013L148.659 301.642L150.337 310.952L158.303 306.723L151.728 300.013Z" fill="#FFF1B8"/>
<path d="M148.25 297.616L148.758 301.596L151.671 300.05L148.568 297.443C148.506 297.391 148.42 297.382 148.349 297.421C148.279 297.459 148.239 297.536 148.25 297.616Z" fill="#253368"/>
<path d="M211.224 336.95L215.58 334.637L217.65 338.521C218.29 339.722 217.833 341.213 216.63 341.852C215.427 342.491 213.933 342.035 213.293 340.834L211.223 336.95L211.224 336.95Z" fill="#253368"/>
<path d="M183.983 279.4C183.821 279.095 183.44 278.978 183.134 279.141C182.827 279.304 182.711 279.683 182.874 279.989L183.617 281.383C183.78 281.688 184.16 281.804 184.467 281.642C184.773 281.479 184.889 281.1 184.726 280.794L183.983 279.4Z" fill="#4E5C93"/>
<path d="M184.493 289.257L190.892 285.86L216.417 333.754C217.021 334.887 216.59 336.294 215.455 336.897L213.168 338.111C212.032 338.714 210.622 338.284 210.018 337.15L184.493 289.257Z" fill="#597EF7"/>
<path d="M185.076 280.659L190.897 285.858L184.493 289.257L183.325 281.595C183.3 281.432 183.381 281.271 183.527 281.193L184.631 280.607C184.775 280.529 184.953 280.549 185.076 280.659Z" fill="#E4EBF7"/>
<path d="M215.194 331.457L208.798 334.853L209.413 336.008L215.809 332.613L215.194 331.457Z" fill="white"/>
<path d="M212.892 322.616L211.013 323.613L215.093 331.268L216.972 330.271L212.892 322.616Z" fill="#253368"/>
<path d="M209.649 314.675C209.423 314.25 208.894 314.089 208.468 314.315C208.042 314.541 207.881 315.069 208.107 315.494L218.223 334.473C218.449 334.898 218.978 335.06 219.404 334.834C219.83 334.607 219.991 334.08 219.765 333.655L209.649 314.675Z" fill="#A3B5D6"/>
<path d="M169.331 292.741L166.74 294.116C166.39 294.302 165.955 294.169 165.769 293.82L164.022 290.542C163.861 290.241 163.936 289.868 164.201 289.652L166.518 287.764C166.685 287.627 166.904 287.573 167.115 287.615C167.326 287.657 167.507 287.791 167.608 287.981L169.628 291.771C169.814 292.121 169.682 292.555 169.331 292.741Z" fill="#FF7946"/>
<path d="M177.02 298.234L167.316 303.385L189.177 344.403L198.881 339.252L177.02 298.234Z" fill="#FF7946"/>
<path d="M186.175 338.77L195.879 333.619L202.827 346.656C203.431 347.789 203 349.196 201.865 349.799L196.272 352.768C195.137 353.37 193.727 352.94 193.123 351.807L186.175 338.77Z" fill="black"/>
<path d="M177.02 298.234L167.316 303.385L169.23 306.976L178.934 301.825L177.02 298.234Z" fill="#253368"/>
<path d="M175.851 296.041L177.02 298.234L167.316 303.385L166.138 301.176L165.273 293.249L169.44 291.037L175.851 296.041Z" fill="#E4EBF7"/>
<path d="M175.842 296.064L166.138 301.215L167.316 303.424L177.02 298.273L175.842 296.064Z" fill="#F5F5F5"/>
<path d="M197.759 337.187L188.055 342.338L189.233 344.547L198.937 339.396L197.759 337.187Z" fill="#F5F5F5"/>
<path d="M181.631 312.246C182.273 313.453 181.976 314.169 180.729 314.38C179.482 314.591 178.509 314.077 177.846 312.833L177.308 311.823C177.226 311.669 177.056 311.584 176.883 311.61L175.099 311.88C174.926 311.906 174.756 311.821 174.674 311.667L174.633 311.59C174.57 311.472 174.568 311.331 174.628 311.212C174.689 311.093 174.803 311.01 174.935 310.991L180.236 310.213C180.408 310.188 180.577 310.273 180.659 310.427L181.631 312.246ZM178.607 311.348C178.475 311.368 178.361 311.451 178.301 311.57C178.241 311.689 178.243 311.829 178.306 311.947L178.679 312.647C178.876 313.017 179.105 313.274 179.351 313.42C179.597 313.566 179.915 313.605 180.284 313.545C180.653 313.484 180.859 313.349 180.924 313.156C180.989 312.962 180.93 312.678 180.739 312.319L180.237 311.379C180.156 311.225 179.985 311.14 179.813 311.166L178.607 311.348Z" fill="white"/>
<path d="M184.353 318.482C184.175 318.517 183.996 318.431 183.911 318.272L182.702 316.004C182.618 315.849 182.443 315.765 182.268 315.796L181.436 315.945C181.307 315.968 181.196 316.05 181.138 316.168C181.081 316.285 181.082 316.423 181.143 316.539L182.034 318.21C182.095 318.325 182.099 318.462 182.043 318.579C181.987 318.697 181.878 318.781 181.751 318.806C181.573 318.84 181.394 318.755 181.309 318.595L180.169 316.458C180.085 316.303 179.911 316.219 179.736 316.249L178.746 316.416C178.617 316.439 178.507 316.522 178.449 316.639C178.391 316.757 178.393 316.894 178.454 317.01L179.523 319.017C179.584 319.132 179.587 319.268 179.531 319.386C179.475 319.503 179.367 319.587 179.239 319.612C179.062 319.646 178.882 319.561 178.797 319.402L177.153 316.317C177.092 316.201 177.09 316.063 177.148 315.946C177.206 315.828 177.317 315.745 177.447 315.723L182.676 314.812C182.85 314.781 183.024 314.866 183.108 315.021L184.633 317.882C184.696 317.996 184.701 318.134 184.645 318.253C184.59 318.371 184.481 318.457 184.353 318.482Z" fill="white"/>
<path d="M185.677 319.839C185.757 319.989 185.736 320.172 185.625 320.3L182.839 323.51L182.854 323.538L186.839 322.658C187.019 322.618 187.203 322.703 187.29 322.865L187.332 322.944C187.392 323.057 187.396 323.191 187.343 323.308C187.289 323.424 187.185 323.509 187.06 323.537L181.959 324.689C181.778 324.729 181.593 324.645 181.506 324.482L181.346 324.182C181.264 324.032 181.284 323.847 181.395 323.718L184.214 320.444L184.198 320.415L180.117 321.257C179.939 321.292 179.76 321.206 179.675 321.046L179.627 320.957C179.566 320.842 179.563 320.706 179.619 320.589C179.674 320.472 179.782 320.387 179.909 320.362L185.072 319.327C185.25 319.292 185.429 319.378 185.514 319.537L185.677 319.839Z" fill="white"/>
<path d="M184.917 327.701C184.792 327.467 184.5 327.378 184.266 327.503C184.031 327.628 183.942 327.918 184.067 328.153L185.87 331.536C185.995 331.771 186.287 331.86 186.521 331.735C186.756 331.61 186.845 331.32 186.72 331.085L184.917 327.701Z" fill="#F5222D"/>
<path d="M156.002 307.974L152.748 309.701L180.191 361.194L183.446 359.467L156.002 307.974Z" fill="#FAAD14"/>
</g>
<path fill-rule="evenodd" clip-rule="evenodd" d="M417.516 257.816H239.896V245.591C239.896 242.939 242.06 240.789 244.728 240.789H412.685C415.353 240.789 417.516 242.939 417.516 245.591V257.816Z" fill="#253368"/>
<path fill-rule="evenodd" clip-rule="evenodd" d="M252.351 248.783C252.351 250.447 251.002 251.797 249.338 251.797C247.674 251.797 246.325 250.447 246.325 248.783C246.325 247.119 247.674 245.77 249.338 245.77C251.002 245.77 252.351 247.119 252.351 248.783Z" fill="#FF7946"/>
<path fill-rule="evenodd" clip-rule="evenodd" d="M263.601 248.783C263.601 250.447 262.252 251.797 260.588 251.797C258.924 251.797 257.575 250.447 257.575 248.783C257.575 247.119 258.924 245.77 260.588 245.77C262.252 245.77 263.601 247.119 263.601 248.783Z" fill="#FAAD14"/>
<path fill-rule="evenodd" clip-rule="evenodd" d="M274.851 248.783C274.851 250.447 273.502 251.797 271.838 251.797C270.174 251.797 268.825 250.447 268.825 248.783C268.825 247.119 270.174 245.77 271.838 245.77C273.502 245.77 274.851 247.119 274.851 248.783Z" fill="#7CB305"/>
<path fill-rule="evenodd" clip-rule="evenodd" d="M245.276 375.287C242.305 375.287 239.896 373.14 239.896 370.492V256.31H417.525V370.492C417.525 373.14 415.117 375.287 412.145 375.287H245.276Z" fill="#E4EBF7"/>
<path d="M403.468 266.135H300.612C299.428 266.135 298.468 267.093 298.468 268.275V364.037C298.468 365.219 299.428 366.177 300.612 366.177H403.468C404.652 366.177 405.612 365.219 405.612 364.037V268.275C405.612 267.093 404.652 266.135 403.468 266.135Z" fill="white"/>
<path d="M288.467 265.957H253.469C252.285 265.957 251.325 266.914 251.325 268.096V363.858C251.325 365.04 252.285 365.998 253.469 365.998H288.467C289.651 365.998 290.611 365.04 290.611 363.858V268.096C290.611 266.914 289.651 265.957 288.467 265.957Z" fill="white"/>
<path d="M280.754 305.258H261.114C260.442 305.258 259.896 305.802 259.896 306.474V309.479C259.896 310.151 260.442 310.695 261.114 310.695H280.754C281.427 310.695 281.972 310.151 281.972 309.479V306.474C281.972 305.802 281.427 305.258 280.754 305.258Z" fill="#ADC6FF"/>
<path d="M280.773 315.798H261.096C260.433 315.798 259.896 316.334 259.896 316.995V319.873C259.896 320.534 260.433 321.07 261.096 321.07H280.773C281.435 321.07 281.972 320.534 281.972 319.873V316.995C281.972 316.334 281.435 315.798 280.773 315.798Z" fill="#FF7946"/>
<path d="M280.773 326.16H261.096C260.433 326.16 259.896 326.696 259.896 327.357V330.235C259.896 330.896 260.433 331.432 261.096 331.432H280.773C281.435 331.432 281.972 330.896 281.972 330.235V327.357C281.972 326.696 281.435 326.16 280.773 326.16Z" fill="#FAAD14"/>
<path d="M280.773 336.521H261.096C260.433 336.521 259.896 337.057 259.896 337.718V340.596C259.896 341.257 260.433 341.793 261.096 341.793H280.773C281.435 341.793 281.972 341.257 281.972 340.596V337.718C281.972 337.057 281.435 336.521 280.773 336.521Z" fill="#597EF7"/>
<path d="M372.039 312.226H310.611C309.822 312.226 309.182 312.864 309.182 313.652V313.658C309.182 314.445 309.822 315.084 310.611 315.084H372.039C372.828 315.084 373.468 314.445 373.468 313.658V313.652C373.468 312.864 372.828 312.226 372.039 312.226Z" fill="#ADC6FF"/>
<path d="M372.039 326.875H310.611C309.822 326.875 309.182 327.513 309.182 328.301V328.306C309.182 329.094 309.822 329.733 310.611 329.733H372.039C372.828 329.733 373.468 329.094 373.468 328.306V328.301C373.468 327.513 372.828 326.875 372.039 326.875Z" fill="#ADC6FF"/>
<path d="M393.468 319.371H310.611C309.822 319.371 309.182 320.01 309.182 320.797V320.803C309.182 321.591 309.822 322.229 310.611 322.229H393.468C394.257 322.229 394.897 321.591 394.897 320.803V320.797C394.897 320.01 394.257 319.371 393.468 319.371Z" fill="#ADC6FF"/>
<path d="M344.18 336.164H313.47C311.102 336.164 309.182 338.08 309.182 340.443V352.25C309.182 354.614 311.102 356.53 313.47 356.53H344.18C346.548 356.53 348.468 354.614 348.468 352.25V340.443C348.468 338.08 346.548 336.164 344.18 336.164Z" fill="#FAAD14"/>
<path d="M392.038 275.782H312.041C310.462 275.782 309.182 277.059 309.182 278.635V305.085C309.182 306.661 310.462 307.938 312.041 307.938H392.038C393.617 307.938 394.897 306.661 394.897 305.085V278.635C394.897 277.059 393.617 275.782 392.038 275.782Z" fill="#597EF7"/>
<path d="M390.609 336.164H359.899C357.531 336.164 355.611 338.08 355.611 340.443V352.25C355.611 354.614 357.531 356.53 359.899 356.53H390.609C392.978 356.53 394.897 354.614 394.897 352.25V340.443C394.897 338.08 392.978 336.164 390.609 336.164Z" fill="#FF7946"/>
<path d="M270.934 294.295C276.38 294.295 280.795 289.839 280.795 284.342C280.795 278.845 276.38 274.389 270.934 274.389C265.488 274.389 261.073 278.845 261.073 284.342C261.073 289.839 265.488 294.295 270.934 294.295Z" fill="#FAAD14"/>
<path d="M270.933 294.295C273.775 294.296 276.473 293.029 278.301 290.833C276.86 288.072 274.023 286.344 270.932 286.344C267.84 286.344 265.003 288.072 263.562 290.833C265.392 293.029 268.09 294.297 270.933 294.295Z" fill="#253368"/>
<path d="M270.986 286.74C273.034 286.74 274.695 285.064 274.695 282.997C274.695 280.929 273.034 279.253 270.986 279.253C268.938 279.253 267.277 280.929 267.277 282.997C267.277 285.064 268.938 286.74 270.986 286.74Z" fill="#253368"/>
<path fill-rule="evenodd" clip-rule="evenodd" d="M408.759 181.482C385.494 181.482 366.634 200.304 366.634 223.522C366.634 246.741 385.494 265.563 408.759 265.563C432.023 265.563 450.883 246.741 450.883 223.522C450.883 200.304 432.023 181.482 408.759 181.482Z" fill="#FF9D00"/>
<path fill-rule="evenodd" clip-rule="evenodd" d="M401.971 237.803L399.312 235.149L425.083 209.335C425.964 208.456 427.393 208.456 428.274 209.335L429.338 210.397C430.219 211.277 430.219 212.703 429.338 213.582L405.162 237.803C404.281 238.683 402.852 238.683 401.971 237.803Z" fill="white"/>
<path fill-rule="evenodd" clip-rule="evenodd" d="M407.817 235.149L405.158 237.803C404.276 238.683 402.847 238.683 401.966 237.803L391.376 227.234C390.495 226.355 390.495 224.929 391.376 224.049L392.44 222.988C393.321 222.108 394.75 222.108 395.632 222.988L407.817 235.149Z" fill="white"/>
<defs>
<clipPath id="clip0">
<rect width="82.762" height="82.6695" fill="white" transform="matrix(0.883271 -0.468863 0.470327 0.882492 127.399 302.109)"/>
</clipPath>
</defs>
</svg>
