<svg width="651" height="743" viewBox="0 0 651 743" fill="none" xmlns="http://www.w3.org/2000/svg">
<ellipse cx="294.965" cy="311.587" rx="191.943" ry="192.408" fill="#FF9D00"/>
<path fill-rule="evenodd" clip-rule="evenodd" d="M449.996 591.927H499.724V583.11H449.996V591.927Z" fill="#253368"/>
<path fill-rule="evenodd" clip-rule="evenodd" d="M487.351 493.068L500.667 635.424H512.102L498.785 493.068H487.351Z" fill="#597EF7"/>
<path fill-rule="evenodd" clip-rule="evenodd" d="M450.935 493.068L437.619 635.424H449.053L462.37 493.068H450.935Z" fill="#597EF7"/>
<path fill-rule="evenodd" clip-rule="evenodd" d="M446.081 502.334C440.181 502.334 435.4 498.186 435.4 493.069C435.4 487.952 440.181 483.802 446.081 483.802H504.685C510.583 483.802 515.366 487.952 515.366 493.069C515.366 498.186 510.583 502.334 504.685 502.334H446.081Z" fill="#A3B5D6"/>
<path d="M207.648 364.48H188.554C187.9 364.48 187.37 365.016 187.37 365.677V368.637C187.37 369.297 187.9 369.833 188.554 369.833H207.648C208.302 369.833 208.832 369.297 208.832 368.637V365.677C208.832 365.016 208.302 364.48 207.648 364.48Z" fill="#597EF7"/>
<path d="M207.666 374.669H188.536C187.892 374.669 187.37 375.196 187.37 375.847V378.681C187.37 379.332 187.892 379.859 188.536 379.859H207.666C208.31 379.859 208.832 379.332 208.832 378.681V375.847C208.832 375.196 208.31 374.669 207.666 374.669Z" fill="#ADC6FF"/>
<path d="M207.666 384.857H188.536C187.892 384.857 187.37 385.385 187.37 386.035V388.869C187.37 389.52 187.892 390.048 188.536 390.048H207.666C208.31 390.048 208.832 389.52 208.832 388.869V386.035C208.832 385.385 208.31 384.857 207.666 384.857Z" fill="#FF7946"/>
<path d="M207.666 395.045H188.536C187.892 395.045 187.37 395.573 187.37 396.224V399.058C187.37 399.708 187.892 400.236 188.536 400.236H207.666C208.31 400.236 208.832 399.708 208.832 399.058V396.224C208.832 395.573 208.31 395.045 207.666 395.045Z" fill="#ADC6FF"/>
<path d="M338.01 296.297H170.104C167.22 296.297 164.882 298.66 164.882 301.575V423.44C164.882 426.355 167.22 428.718 170.104 428.718H338.01C340.894 428.718 343.232 426.355 343.232 423.44V301.575C343.232 298.66 340.894 296.297 338.01 296.297Z" fill="#E4EBF7"/>
<path d="M326.514 319.809H225.025C223.928 319.809 223.04 320.707 223.04 321.815V414.983C223.04 416.091 223.928 416.989 225.025 416.989H326.514C327.61 416.989 328.499 416.091 328.499 414.983V321.815C328.499 320.707 327.61 319.809 326.514 319.809Z" fill="#597EF7"/>
<path d="M310.664 349.59H236.222V354.292H310.664V349.59Z" fill="white"/>
<path d="M273.443 366.048H236.222V370.75H273.443V366.048Z" fill="#FAAD14"/>
<path d="M305.236 333.132H268.015V337.834H305.236V333.132Z" fill="#FAAD14"/>
<path d="M304.46 398.18H236.222V402.882H304.46V398.18Z" fill="white"/>
<path d="M258.71 333.132H236.222V337.834H258.71V333.132Z" fill="white"/>
<path d="M292.053 366.048H281.197V370.75H292.053V366.048Z" fill="#E4EBF7"/>
<path d="M291.278 381.722H236.222V386.424H291.278V381.722Z" fill="#E4EBF7"/>
<path d="M169.659 290.028H338.365C341.004 290.028 343.142 292.145 343.142 294.756V308.845H164.882V294.756C164.882 292.145 167.021 290.028 169.659 290.028Z" fill="#253368"/>
<path d="M175.271 303.046C177.154 303.046 178.68 301.536 178.68 299.672C178.68 297.808 177.154 296.297 175.271 296.297C173.388 296.297 171.861 297.808 171.861 299.672C171.861 301.536 173.388 303.046 175.271 303.046Z" fill="#FF7946"/>
<path d="M188.453 303.046C190.336 303.046 191.863 301.536 191.863 299.672C191.863 297.808 190.336 296.297 188.453 296.297C186.57 296.297 185.043 297.808 185.043 299.672C185.043 301.536 186.57 303.046 188.453 303.046Z" fill="#FAAD14"/>
<path d="M200.86 303.046C202.743 303.046 204.27 301.536 204.27 299.672C204.27 297.808 202.743 296.297 200.86 296.297C198.977 296.297 197.45 297.808 197.45 299.672C197.45 301.536 198.977 303.046 200.86 303.046Z" fill="#7CB305"/>
<path d="M215.527 318.241H180.924C179.773 318.241 178.84 319.185 178.84 320.348V414.883C178.84 416.046 179.773 416.989 180.924 416.989H215.527C216.678 416.989 217.612 416.046 217.612 414.883V320.348C217.612 319.185 216.678 318.241 215.527 318.241Z" fill="white"/>
<path d="M207.648 364.48H188.554C187.9 364.48 187.37 365.016 187.37 365.677V368.637C187.37 369.297 187.9 369.833 188.554 369.833H207.648C208.302 369.833 208.832 369.297 208.832 368.637V365.677C208.832 365.016 208.302 364.48 207.648 364.48Z" fill="#597EF7"/>
<path d="M207.666 374.669H188.536C187.892 374.669 187.37 375.196 187.37 375.847V378.681C187.37 379.332 187.892 379.859 188.536 379.859H207.666C208.31 379.859 208.832 379.332 208.832 378.681V375.847C208.832 375.196 208.31 374.669 207.666 374.669Z" fill="#ADC6FF"/>
<path d="M207.666 384.857H188.536C187.892 384.857 187.37 385.385 187.37 386.035V388.869C187.37 389.52 187.892 390.048 188.536 390.048H207.666C208.31 390.048 208.832 389.52 208.832 388.869V386.035C208.832 385.385 208.31 384.857 207.666 384.857Z" fill="#FF7946"/>
<path d="M207.666 395.045H188.536C187.892 395.045 187.37 395.573 187.37 396.224V399.058C187.37 399.708 187.892 400.236 188.536 400.236H207.666C208.31 400.236 208.832 399.708 208.832 399.058V396.224C208.832 395.573 208.31 395.045 207.666 395.045Z" fill="#ADC6FF"/>
<path d="M197.834 350.416C203.129 350.416 207.421 346.028 207.421 340.616C207.421 335.204 203.129 330.816 197.834 330.816C192.539 330.816 188.247 335.204 188.247 340.616C188.247 346.028 192.539 350.416 197.834 350.416Z" fill="#FAAD14"/>
<path d="M197.834 350.416C200.597 350.417 203.22 349.17 204.997 347.007C203.597 344.289 200.838 342.587 197.832 342.587C194.827 342.587 192.068 344.289 190.667 347.007C192.446 349.17 195.07 350.418 197.834 350.416Z" fill="#253368"/>
<path d="M197.885 342.977C199.876 342.977 201.491 341.327 201.491 339.291C201.491 337.256 199.876 335.606 197.885 335.606C195.894 335.606 194.279 337.256 194.279 339.291C194.279 341.327 195.894 342.977 197.885 342.977Z" fill="#253368"/>
<path fill-rule="evenodd" clip-rule="evenodd" d="M323.649 216.174C310.012 216.174 298.956 227.23 298.956 240.867V240.93C298.956 254.568 310.012 265.623 323.649 265.623H360.064C361.425 265.623 362.759 265.513 364.06 265.302L371.115 272.116C371.307 272.302 371.563 272.405 371.83 272.405C372.398 272.405 372.858 271.945 372.858 271.376L372.859 262.054C379.992 257.725 384.757 249.884 384.757 240.93V240.867C384.757 227.23 373.702 216.174 360.064 216.174H323.649Z" fill="#253368"/>
<path d="M329.639 157.014H277.644C258.162 157.014 242.368 172.807 242.368 192.29C242.368 211.772 258.162 227.566 277.644 227.566H329.639C349.121 227.566 364.915 211.772 364.915 192.29C364.915 172.807 349.121 157.014 329.639 157.014Z" fill="#597EF7"/>
<path fill-rule="evenodd" clip-rule="evenodd" d="M259.363 217.304V235.772C259.363 236.583 260.021 237.241 260.833 237.241C261.214 237.241 261.579 237.094 261.853 236.829L275.424 223.735L259.363 217.304Z" fill="#597EF7"/>
<path d="M280.032 196.699C283.178 196.699 285.728 194.149 285.728 191.004C285.728 187.858 283.178 185.308 280.032 185.308C276.887 185.308 274.337 187.858 274.337 191.004C274.337 194.149 276.887 196.699 280.032 196.699Z" fill="white"/>
<path d="M303.366 196.699C306.511 196.699 309.061 194.149 309.061 191.004C309.061 187.858 306.511 185.308 303.366 185.308C300.22 185.308 297.67 187.858 297.67 191.004C297.67 194.149 300.22 196.699 303.366 196.699Z" fill="white"/>
<path d="M327.251 196.699C330.396 196.699 332.946 194.149 332.946 191.004C332.946 187.858 330.396 185.308 327.251 185.308C324.105 185.308 321.555 187.858 321.555 191.004C321.555 194.149 324.105 196.699 327.251 196.699Z" fill="white"/>
<path fill-rule="evenodd" clip-rule="evenodd" d="M434.555 303.905C434.555 303.905 422.71 303.22 420.684 315.803C409.705 320.883 413.864 332.936 413.864 332.936C413.864 332.936 409.009 343.101 420.747 347.087C422.51 356.923 433.663 354.149 433.663 354.149C433.663 354.149 437.041 361.577 445.363 357.684C455.26 364.072 472.612 361.129 478.057 351.811C491.155 359.904 511.598 346.896 508.189 338.774C522.486 336.672 528.139 320.89 518.6 308.715C524.186 297.957 516.291 292.57 516.291 292.57C516.291 292.57 516.298 268.961 499.739 267.206C490.277 255.307 473.06 267.002 473.06 267.002C473.06 267.002 460.858 265.552 457.458 276.287C444.239 279.491 445.503 286.771 445.005 293.02C433.077 294.725 434.555 303.905 434.555 303.905Z" fill="#253368"/>
<path fill-rule="evenodd" clip-rule="evenodd" d="M470.735 289.27C480.269 290.106 482.511 282.78 482.511 282.78C482.511 282.78 485.523 272.476 487.045 278.512C487.855 281.719 492.53 276.969 495.151 280.238C496.916 282.438 493.271 285.781 498.886 291.568C502.138 294.921 490.787 298.794 498.52 304.824C498.52 304.824 494.134 313.374 503.103 315.268L504.853 324.699C505.87 330.189 501.913 335.355 496.33 335.826C491.007 336.275 486.362 332.256 486.063 326.941L485.414 315.314C471.843 316.48 469.572 297.955 470.735 289.27Z" fill="#FFC999"/>
<path fill-rule="evenodd" clip-rule="evenodd" d="M480.745 301.442C484.672 301.483 488.11 299.2 488.11 299.2C488.11 299.2 489.132 304.295 485.859 304.906C482.68 305.5 480.745 301.442 480.745 301.442Z" fill="white"/>
<path d="M487.792 298.725L487.621 298.833C487.522 298.892 487.395 298.966 487.241 299.052C486.788 299.305 486.274 299.559 485.713 299.796C484.082 300.483 482.394 300.888 480.752 300.871C480.328 300.867 480.046 301.306 480.228 301.687L480.292 301.815C480.356 301.938 480.446 302.099 480.562 302.289C480.829 302.728 481.143 303.167 481.503 303.579C482.759 305.015 484.257 305.787 485.965 305.468C487.598 305.163 488.473 303.932 488.744 302.17C488.872 301.337 488.856 300.461 488.754 299.628L488.724 299.402C488.705 299.266 488.686 299.16 488.672 299.088C488.592 298.69 488.131 298.5 487.792 298.725ZM487.652 300.129L487.669 300.326C487.706 300.89 487.693 301.461 487.61 301.997C487.405 303.33 486.826 304.145 485.753 304.345C484.519 304.576 483.384 303.991 482.368 302.829L482.184 302.61C482.065 302.463 481.951 302.312 481.844 302.159L481.722 301.979L481.764 301.976C483.245 301.856 484.726 301.452 486.16 300.847C486.641 300.644 487.09 300.43 487.501 300.212L487.652 300.129Z" fill="#F5222D"/>
<path d="M481.324 290.813C481.56 290.786 481.773 290.955 481.8 291.19L481.81 291.316C481.843 291.885 481.795 292.658 481.604 293.597C481.361 294.792 480.922 296.049 480.247 297.34L480.112 297.591L480.273 297.669C481.09 298.056 481.812 298.326 482.44 298.496L482.646 298.55C483.086 298.658 483.399 298.699 483.589 298.702L483.652 298.702C483.889 298.688 484.093 298.867 484.108 299.103C484.122 299.339 483.942 299.543 483.705 299.557L483.681 299.558C483.423 299.566 483.01 299.521 482.44 299.381C481.564 299.166 480.526 298.772 479.321 298.156C479.103 298.044 479.022 297.773 479.145 297.561C479.977 296.123 480.496 294.733 480.761 293.427C480.921 292.642 480.971 291.992 480.957 291.507L480.945 291.286C480.919 291.051 481.088 290.839 481.324 290.813Z" fill="#DD936F"/>
<path d="M490.127 287.747C491.88 287.598 493.356 289.556 493.569 292.021C493.596 292.324 493.37 292.591 493.066 292.617C492.762 292.643 492.495 292.419 492.468 292.116C492.301 290.179 491.229 288.758 490.222 288.844C489.214 288.931 488.403 290.514 488.57 292.451C488.597 292.754 488.371 293.021 488.067 293.047C487.763 293.073 487.496 292.848 487.469 292.546C487.256 290.079 488.374 287.899 490.127 287.747Z" fill="#253368"/>
<path d="M475.283 290.375C477.036 290.225 478.512 292.182 478.726 294.648C478.752 294.951 478.527 295.218 478.223 295.244C477.919 295.27 477.651 295.046 477.625 294.743C477.457 292.806 476.386 291.386 475.378 291.472C474.37 291.558 473.559 293.141 473.727 295.078C473.753 295.381 473.528 295.648 473.224 295.674C472.92 295.7 472.652 295.475 472.626 295.173C472.412 292.706 473.53 290.526 475.283 290.375Z" fill="#253368"/>
<path d="M486.517 282.967C488.82 281.817 491.214 281.414 493.482 282.229C493.762 282.33 494.037 282.448 494.307 282.586C494.593 282.731 494.706 283.08 494.56 283.365C494.414 283.65 494.063 283.763 493.778 283.617C493.551 283.502 493.321 283.403 493.088 283.319C491.171 282.63 489.083 282.981 487.038 284.003C486.58 284.232 486.162 284.477 485.794 284.721L485.624 284.837C485.496 284.925 485.404 284.993 485.352 285.035C485.101 285.235 484.735 285.194 484.534 284.944C484.334 284.694 484.375 284.329 484.626 284.13L484.795 284.002C484.889 283.934 485.008 283.851 485.149 283.758C485.555 283.488 486.014 283.219 486.517 282.967Z" fill="#253368"/>
<path d="M493.31 312.145C493.508 312.014 493.775 312.068 493.906 312.266C494.037 312.463 493.983 312.729 493.785 312.859C491.159 314.589 488.358 315.589 485.481 315.876C485.244 315.899 485.034 315.727 485.01 315.492C484.986 315.257 485.159 315.047 485.395 315.023C488.133 314.75 490.801 313.798 493.31 312.145Z" fill="#DD936F"/>
<path fill-rule="evenodd" clip-rule="evenodd" d="M455.581 411.852L454.786 411.697C448.838 410.54 444.961 404.802 446.121 398.879L456.875 344.016C458.035 338.093 463.795 334.229 469.741 335.385L470.538 335.54C476.483 336.697 480.361 342.435 479.201 348.358L468.448 403.222C467.287 409.144 461.526 413.008 455.581 411.852Z" fill="#FFC999"/>
<path fill-rule="evenodd" clip-rule="evenodd" d="M474.654 371.557L479.277 347.971C480.391 342.287 476.279 336.658 470.139 335.463C464 334.269 458.064 337.944 456.95 343.63L452.372 366.991L474.654 371.557Z" fill="#41D3BD"/>
<path d="M470.527 335.199C476.764 336.412 480.973 342.085 479.967 347.881L479.926 348.099L475.303 371.684C475.272 371.845 475.128 371.956 474.969 371.953L474.908 371.946L452.626 367.379C452.446 367.342 452.329 367.166 452.367 366.986C452.4 366.826 452.543 366.717 452.701 366.721L452.761 366.728L474.712 371.226L479.271 347.971C480.335 342.544 476.466 337.156 470.633 335.9L470.398 335.852C470.217 335.817 470.099 335.642 470.135 335.462C470.166 335.302 470.308 335.191 470.467 335.193L470.527 335.199Z" fill="#125E8A"/>
<path fill-rule="evenodd" clip-rule="evenodd" d="M442.749 586.401C437.985 586.793 433.758 583.329 433.171 578.553L420.629 476.409C419.726 469.05 425.084 462.423 432.423 461.82C439.764 461.215 446.139 466.878 446.46 474.284L450.904 577.095C451.112 581.901 447.513 586.009 442.749 586.401Z" fill="#FFC999"/>
<path fill-rule="evenodd" clip-rule="evenodd" d="M517.862 448.233C514.99 439.596 507.037 434.514 500.253 436.979L427.299 463.494C421.681 465.536 419.094 472.875 421.471 480.027C423.848 487.181 430.321 491.531 436.054 489.829L510.475 467.732C517.396 465.677 520.732 456.871 517.862 448.233Z" fill="#FFC999"/>
<path fill-rule="evenodd" clip-rule="evenodd" d="M433.911 587.726L451.394 586.834L450.963 559.235L430.891 560.26L433.911 587.726Z" fill="#41D3BD"/>
<path d="M449.89 564.227C450.207 564.21 450.477 564.453 450.493 564.769C450.508 565.059 450.304 565.309 450.026 565.361L449.949 565.37L431.418 566.316C431.101 566.332 430.831 566.089 430.814 565.773C430.799 565.484 431.003 565.234 431.281 565.181L431.359 565.172L449.89 564.227Z" fill="#E4EBF7"/>
<path fill-rule="evenodd" clip-rule="evenodd" d="M432.058 581.161L451.28 580.181L454.054 615.205L410.743 617.416L410.36 612.035C410.226 610.058 411.534 608.269 413.464 607.789L424.79 603.835L430.525 600.183C432.252 599.083 433.232 597.133 433.074 595.097C432.732 590.719 432.163 583.295 432.058 581.161Z" fill="#125E8A"/>
<path fill-rule="evenodd" clip-rule="evenodd" d="M453.695 616.371L410.516 618.572C410.106 618.594 409.757 618.28 409.737 617.872L409.488 613.049C409.467 612.64 409.782 612.293 410.191 612.272L453.372 610.07C453.78 610.049 454.129 610.363 454.151 610.771L454.399 615.595C454.419 616.003 454.104 616.349 453.695 616.371Z" fill="#E4EBF7"/>
<path fill-rule="evenodd" clip-rule="evenodd" d="M410.191 612.272C410.035 609.233 412.117 606.528 415.104 605.889L424.789 603.818L425.826 611.368L410.191 612.272Z" fill="#E4EBF7"/>
<path d="M453.357 609.777C453.519 609.769 453.657 609.893 453.666 610.055C453.673 610.196 453.578 610.319 453.446 610.354L453.387 610.362L410.206 612.565C410.044 612.574 409.905 612.449 409.897 612.288C409.89 612.146 409.984 612.023 410.117 611.989L410.176 611.98L453.357 609.777Z" fill="#A3B5D6"/>
<path d="M433.282 593.304L433.453 593.334C433.676 593.377 433.984 593.449 434.354 593.556C435.144 593.783 435.933 594.094 436.675 594.504C437.416 594.912 438.069 595.399 438.608 595.971C438.951 596.335 438.709 596.932 438.209 596.958C437.681 596.985 436.868 597.14 435.864 597.394C435.562 597.471 435.246 597.555 434.922 597.646L434.37 597.804L433.772 597.983L433.949 598.114C434.486 598.524 435.02 598.997 435.531 599.534L435.784 599.808C435.888 599.924 435.99 600.042 436.09 600.161C436.42 600.556 436.118 601.153 435.603 601.122C434.976 601.085 434.239 601.12 433.418 601.22C432.591 601.321 431.706 601.482 430.799 601.689L430.434 601.773L430.514 601.816C430.642 601.888 430.772 601.967 430.902 602.052L431.097 602.185C431.584 602.529 432.019 602.947 432.39 603.444C432.584 603.704 432.529 604.071 432.269 604.264C432.008 604.457 431.639 604.403 431.445 604.143C431.15 603.748 430.804 603.416 430.415 603.141C429.957 602.816 429.463 602.587 428.97 602.437C428.72 602.361 428.523 602.32 428.402 602.303L428.348 602.296C427.711 602.231 427.621 601.345 428.231 601.153L428.761 600.997L428.888 600.962C429.398 600.82 429.954 600.678 430.537 600.545C431.481 600.331 432.404 600.162 433.275 600.056C433.497 600.029 433.714 600.007 433.925 599.989L434.297 599.961L434.101 599.774C433.827 599.521 433.548 599.287 433.268 599.071L432.988 598.862C432.817 598.738 432.656 598.629 432.507 598.533L432.362 598.442C432.253 598.375 432.178 598.333 432.142 598.314C431.687 598.072 431.742 597.405 432.231 597.241L432.935 597.014C433.474 596.845 434.038 596.676 434.603 596.518C434.937 596.424 435.261 596.337 435.573 596.258C435.932 596.167 436.268 596.088 436.58 596.022L436.816 595.973L436.788 595.952C436.645 595.852 436.495 595.757 436.341 595.665L436.105 595.529C435.447 595.166 434.737 594.887 434.027 594.682C433.84 594.628 433.664 594.582 433.501 594.544L433.128 594.467C433.116 594.465 433.107 594.463 433.099 594.462C432.778 594.411 432.559 594.111 432.609 593.791C432.656 593.496 432.916 593.287 433.209 593.297L433.282 593.304Z" fill="#E4EBF7"/>
<path d="M433.165 588.133L432.887 588.146C432.821 588.151 432.757 588.166 432.696 588.191C432.074 588.454 431.698 588.834 431.633 589.334C431.564 589.862 431.841 590.309 432.304 590.727C432.521 590.921 432.733 591.069 432.885 591.159L432.938 591.203L433.189 591.393C433.42 591.565 433.675 591.753 433.951 591.953L434.162 592.106C435.186 592.843 436.261 593.581 437.336 594.27C437.98 594.682 438.605 595.065 439.206 595.413C441.26 596.602 442.93 597.327 444.14 597.462C445.88 597.656 446.729 596.591 446.283 594.571C445.618 591.558 443.158 589.71 439.543 588.782C437.348 588.219 435.071 588.065 433.165 588.133ZM439.249 589.918C442.48 590.747 444.583 592.326 445.133 594.823C445.413 596.092 445.171 596.397 444.271 596.297C443.272 596.185 441.717 595.51 439.797 594.399C439.213 594.061 438.602 593.687 437.973 593.284C436.918 592.607 435.86 591.881 434.852 591.156L434.252 590.719L433.545 590.191C433.396 590.097 433.243 589.991 433.094 589.857C432.891 589.675 432.796 589.52 432.8 589.485L432.804 589.476C432.818 589.454 432.871 589.408 432.999 589.343L433.065 589.311L433.207 589.305C435.01 589.241 437.183 589.388 439.249 589.918Z" fill="#E4EBF7"/>
<path fill-rule="evenodd" clip-rule="evenodd" d="M368.43 574.161C363.739 573.247 360.617 568.768 361.357 564.014L377.18 462.322C378.32 454.996 385.285 450.071 392.513 451.479H392.514C399.741 452.886 404.33 460.064 402.616 467.277L378.819 567.416C377.707 572.097 373.121 575.075 368.43 574.161Z" fill="#FFC999"/>
<path fill-rule="evenodd" clip-rule="evenodd" d="M478.539 456.118C477.552 447.073 470.846 440.441 463.693 441.435L386.78 452.11C380.856 452.932 376.78 459.568 377.598 467.058C378.417 474.549 383.83 480.155 389.791 479.689L467.209 473.639C474.411 473.075 479.527 465.164 478.539 456.118Z" fill="#FFC999"/>
<path fill-rule="evenodd" clip-rule="evenodd" d="M359.564 573.041L376.632 576.92L383.752 550.245L364.156 545.792L359.564 573.041Z" fill="#41D3BD"/>
<path d="M362.578 551.077C362.643 550.794 362.907 550.608 363.189 550.634L363.266 550.646L381.358 554.758C381.667 554.829 381.861 555.136 381.79 555.444C381.725 555.727 381.461 555.912 381.179 555.887L381.102 555.875L363.01 551.763C362.701 551.692 362.507 551.385 362.578 551.077Z" fill="#E4EBF7"/>
<path fill-rule="evenodd" clip-rule="evenodd" d="M359.573 566.221L378.337 570.486L371.443 604.943L329.162 595.332L330.262 590.052C330.673 588.112 332.421 586.745 334.41 586.807L346.387 586.07L352.903 584.11C354.866 583.521 356.342 581.909 356.745 579.906C357.612 575.602 359.091 568.303 359.573 566.221Z" fill="#125E8A"/>
<path fill-rule="evenodd" clip-rule="evenodd" d="M370.779 605.966L328.627 596.384C328.228 596.294 327.977 595.898 328.069 595.499L329.146 590.79C329.238 590.392 329.636 590.143 330.036 590.234L372.189 599.815C372.589 599.906 372.838 600.302 372.747 600.701L371.668 605.409C371.577 605.808 371.179 606.056 370.779 605.966Z" fill="#E4EBF7"/>
<path fill-rule="evenodd" clip-rule="evenodd" d="M330.035 590.234C330.715 587.266 333.456 585.228 336.506 585.422L346.391 586.054L345.327 593.601L330.035 590.234Z" fill="#E4EBF7"/>
<path d="M330.101 589.948L372.254 599.529C372.412 599.565 372.511 599.722 372.475 599.88C372.443 600.018 372.319 600.111 372.182 600.108L372.123 600.101L329.97 590.52C329.811 590.484 329.712 590.327 329.748 590.169C329.78 590.031 329.905 589.938 330.042 589.941L330.101 589.948Z" fill="#A3B5D6"/>
<path d="M356.654 578.525C356.79 578.231 357.139 578.103 357.435 578.238L357.579 578.308C357.743 578.39 357.965 578.51 358.228 578.668C358.81 579.015 359.391 579.428 359.935 579.905C360.733 580.605 361.384 581.385 361.833 582.249C362.063 582.692 361.668 583.201 361.179 583.09C360.646 582.969 359.784 582.897 358.7 582.872C358.198 582.86 357.675 582.858 357.148 582.865L356.629 582.873L356.766 583.051C356.971 583.324 357.172 583.616 357.369 583.927L357.563 584.244C357.819 584.677 358.055 585.128 358.265 585.598C358.475 586.067 358.021 586.56 357.534 586.391C356.858 586.156 356.021 585.975 355.062 585.843C354.224 585.729 353.365 585.658 352.544 585.622L352.372 585.614L352.446 585.685C352.972 586.203 353.404 586.811 353.71 587.516L353.807 587.754C353.923 588.057 353.771 588.395 353.467 588.511C353.163 588.626 352.823 588.474 352.707 588.171C352.462 587.529 352.088 586.981 351.619 586.519C351.308 586.214 350.975 585.964 350.643 585.768L350.465 585.668C350.386 585.625 350.321 585.594 350.273 585.572L350.231 585.555C349.637 585.32 349.791 584.443 350.43 584.424L350.589 584.421C351.954 584.399 353.616 584.462 355.222 584.682C355.566 584.729 355.896 584.782 356.211 584.842L356.595 584.92L356.549 584.841C356.257 584.349 355.948 583.904 355.637 583.51L355.45 583.28L355.294 583.097C355.149 582.931 355.038 582.814 354.971 582.75C354.598 582.394 354.834 581.767 355.35 581.742L355.543 581.733C355.697 581.727 355.871 581.721 356.062 581.715C356.95 581.688 357.868 581.679 358.727 581.699C359.172 581.71 359.583 581.728 359.956 581.754L360.107 581.765L360 581.633C359.811 581.413 359.606 581.198 359.384 580.991L359.158 580.785C358.67 580.358 358.146 579.986 357.622 579.673L357.403 579.545C357.198 579.428 357.039 579.347 356.942 579.303C356.647 579.168 356.518 578.819 356.654 578.525Z" fill="#E4EBF7"/>
<path d="M358.267 573.159C357.152 573.298 356.654 573.98 356.899 574.847C356.969 575.096 357.094 575.341 357.259 575.584C357.399 575.793 357.539 575.96 357.64 576.066L357.664 576.102C357.704 576.157 357.789 576.27 357.898 576.412L358.369 577.018C358.481 577.16 358.597 577.307 358.718 577.458C359.581 578.54 360.49 579.622 361.402 580.634C361.998 581.294 362.577 581.902 363.132 582.448C364.669 583.96 365.967 584.942 367.011 585.277C368.507 585.757 369.485 584.91 369.6 582.981C369.798 579.653 367.624 577.084 363.954 575.177C362.752 574.552 361.469 574.043 360.187 573.639C359.828 573.526 359.489 573.428 359.176 573.344L358.654 573.211C358.573 573.192 358.509 573.177 358.463 573.168C358.399 573.154 358.333 573.151 358.267 573.159ZM358.243 574.351L358.317 574.337L358.653 574.419C359.008 574.51 359.405 574.622 359.832 574.757C361.054 575.142 362.274 575.626 363.41 576.216C366.714 577.933 368.589 580.15 368.425 582.912C368.352 584.135 368.065 584.384 367.372 584.161C366.555 583.899 365.372 583.003 363.959 581.614C363.421 581.085 362.859 580.493 362.278 579.85C361.382 578.858 360.489 577.793 359.639 576.729L359.134 576.089L358.539 575.313C358.435 575.197 358.335 575.078 358.236 574.931C358.135 574.782 358.064 574.642 358.032 574.53L358.01 574.443C358.026 574.419 358.097 574.382 358.243 574.351Z" fill="#E4EBF7"/>
<path fill-rule="evenodd" clip-rule="evenodd" d="M466.117 350.033C464.07 355.119 460.247 363.887 459.998 369.569C459.593 378.78 465.922 385.31 465.922 385.31C465.922 385.31 465.811 387.236 464.788 406.393C492.477 409.85 512.453 407.208 512.453 407.208L511.696 397.568L515.422 382.465C515.422 382.465 515.68 376.644 520.636 364.005C524.082 355.218 522.667 344.918 521.863 339.244C521.519 336.814 522.508 334.642 520.106 334.094C511.715 332.18 508.576 332.26 508.576 332.26L507.528 326.858C507.349 325.933 506.513 325.279 505.569 325.326L485.389 326.312C484.523 326.354 483.795 326.976 483.621 327.823L482.439 332.554L468.85 335.19C466.909 335.67 465.509 337.356 465.403 339.346L466.117 350.033Z" fill="#41D3BD"/>
<path d="M502.92 332.475C503.111 332.466 503.274 332.613 503.283 332.803C503.292 332.972 503.176 333.119 503.016 333.156L502.954 333.165L484.784 334.053C484.593 334.062 484.43 333.916 484.421 333.725C484.413 333.556 484.528 333.409 484.688 333.372L484.75 333.363L502.92 332.475Z" fill="#125E8A"/>
<path d="M508.376 330.817C508.519 330.618 508.797 330.572 508.996 330.715C509.176 330.843 509.231 331.08 509.136 331.271L509.099 331.333L490.623 357.029C490.431 357.297 490.032 357.266 489.876 356.993L489.847 356.931L481 334.055C480.912 333.826 481.026 333.57 481.255 333.482C481.462 333.403 481.691 333.487 481.799 333.671L481.83 333.736L490.379 355.846L508.376 330.817Z" fill="#CCD7EE"/>
<path fill-rule="evenodd" clip-rule="evenodd" d="M484.856 358.912C483.007 362.395 484.125 366.597 487.35 368.295C490.576 369.994 494.691 368.547 496.539 365.063C498.387 361.579 497.271 357.377 494.044 355.679C490.818 353.98 486.704 355.428 484.856 358.912Z" fill="#CCD7EE"/>
<path fill-rule="evenodd" clip-rule="evenodd" d="M484.131 358.93C482.283 362.414 483.4 366.616 486.626 368.313C489.852 370.013 493.966 368.565 495.814 365.081C497.662 361.599 496.546 357.396 493.319 355.698C490.093 353.999 485.979 355.446 484.131 358.93Z" fill="#E4EBF7"/>
<path fill-rule="evenodd" clip-rule="evenodd" d="M485.439 359.457C484.005 362.163 484.871 365.424 487.376 366.743C489.881 368.062 493.075 366.939 494.511 364.233C495.946 361.529 495.079 358.266 492.574 356.947C490.069 355.629 486.874 356.753 485.439 359.457Z" fill="#FAAD14"/>
<path d="M524.636 338.698C524.827 338.683 524.993 338.825 525.008 339.015L525.093 340.197L525.156 341.154C525.198 341.811 525.24 342.501 525.279 343.216C525.386 345.151 525.467 347.048 525.512 348.827L525.537 350.011C525.58 352.702 525.524 354.881 525.347 356.397C525.131 358.241 524.09 361.233 522.423 365.077C522.093 365.839 521.742 366.625 521.372 367.432C520.673 368.958 519.934 370.503 519.187 372.014L518.626 373.141C518.408 373.576 518.2 373.987 518.005 374.369L517.396 375.546L511.731 397.722L512.675 407.115C512.692 407.282 512.585 407.434 512.428 407.48L512.367 407.492L511.418 407.582C511.275 407.595 511.124 407.608 510.965 407.621L509.767 407.718C508.93 407.782 508.015 407.845 507.029 407.905C494.015 408.697 479.394 408.477 464.946 406.53C464.781 406.508 464.655 406.371 464.647 406.205L464.641 405.985C464.635 405.15 464.714 402.879 464.861 399.488L465.072 394.854L465.292 390.264L465.496 386.152L465.3 385.826L464.918 385.167C464.828 385.009 464.735 384.844 464.639 384.672C463.955 383.445 463.271 382.117 462.633 380.735C461.762 378.85 461.046 377.015 460.536 375.283C460.063 373.675 459.78 372.194 459.715 370.865C459.55 367.526 459.86 364.903 460.703 362.206C461.144 360.793 461.732 359.341 462.592 357.497L462.879 356.888C463.179 356.264 463.731 355.139 464.278 354.026L465.816 350.912L465.753 345.335C465.752 345.165 465.873 345.023 466.034 344.992L466.096 344.986C466.266 344.984 466.409 345.105 466.44 345.265L466.447 345.327L466.51 350.988L466.475 351.143L463.636 356.914C463.537 357.118 463.455 357.289 463.394 357.417C462.451 359.415 461.824 360.939 461.364 362.411C460.546 365.029 460.247 367.571 460.407 370.832C460.47 372.1 460.743 373.529 461.201 375.088C461.7 376.785 462.405 378.59 463.262 380.446C463.893 381.811 464.569 383.124 465.245 384.337L465.52 384.825C465.609 384.981 465.694 385.129 465.777 385.27L466.143 385.883C466.18 385.942 466.198 386.012 466.194 386.082L466.06 388.764C465.984 390.291 465.909 391.843 465.836 393.37L465.614 398.148C465.448 401.856 465.349 404.48 465.335 405.634L465.333 405.884L466.119 405.988C479.804 407.75 493.612 407.975 506.01 407.273L506.986 407.216L507.945 407.155C508.568 407.114 509.158 407.072 509.714 407.029L511.137 406.914L511.951 406.84L511.036 397.729L511.045 397.61L516.735 375.336L516.764 375.261L517.387 374.055C517.582 373.675 517.789 373.266 518.006 372.832C518.939 370.974 519.871 369.045 520.741 367.145C521.109 366.342 521.458 365.56 521.787 364.804L522.087 364.104C523.552 360.657 524.466 357.963 524.658 356.317C524.848 354.695 524.896 352.266 524.829 349.242L524.819 348.844C524.775 347.073 524.694 345.183 524.587 343.254L524.496 341.695C524.465 341.192 524.433 340.707 524.401 340.244L524.317 339.068C524.302 338.878 524.445 338.712 524.636 338.698Z" fill="#125E8A"/>
<path fill-rule="evenodd" clip-rule="evenodd" d="M463.839 412.011L465.607 405.985C465.607 405.985 488.173 407.622 509.385 407.615C510.411 410.078 510.612 414.748 510.612 414.748C508.906 413.205 487.284 416.371 463.839 412.011Z" fill="#125E8A"/>
<path fill-rule="evenodd" clip-rule="evenodd" d="M555.109 332.749C558.559 333.535 560.836 336.632 560.278 339.779L549.508 400.522C548.316 406.066 542.335 409.458 536.212 408.062C530.035 406.654 526.127 400.928 527.562 395.389L547.466 336.58C548.458 333.65 551.772 331.988 555.109 332.749Z" fill="#FFC999"/>
<path fill-rule="evenodd" clip-rule="evenodd" d="M542.638 406.586L541.698 406.924C535.978 408.982 529.666 406.031 527.6 400.332L508.678 348.134C506.613 342.435 509.575 336.147 515.296 334.09L516.234 333.752C521.955 331.694 528.267 334.646 530.333 340.344L549.254 392.542C551.32 398.241 548.357 404.528 542.638 406.586Z" fill="#FFC999"/>
<path fill-rule="evenodd" clip-rule="evenodd" d="M538 361.495L529.467 337.956C527.41 332.281 520.856 329.391 514.9 331.533C508.945 333.675 505.755 340.071 507.813 345.746L516.265 369.061L538 361.495Z" fill="#41D3BD"/>
<path d="M510.423 350.078C510.582 350.027 510.75 350.098 510.826 350.239L510.85 350.295L516.793 368.515L538.201 361.063C538.358 361.008 538.528 361.076 538.607 361.215L538.632 361.27C538.687 361.427 538.62 361.597 538.48 361.675L538.424 361.701L516.69 369.267C516.53 369.322 516.357 369.252 516.28 369.109L516.255 369.052L510.206 350.504C510.148 350.326 510.245 350.136 510.423 350.078Z" fill="#125E8A"/>
<path fill-rule="evenodd" clip-rule="evenodd" d="M565.131 320.904C565.131 320.904 564.338 339.118 557.459 341.384C551.229 343.436 547.148 339.756 547.148 339.756C547.148 339.756 543.421 334.286 541.932 327.088C540.95 322.346 540.004 313.14 542.436 312.289C545.605 311.182 546.068 321.663 548.511 321.59C551.018 321.514 551.69 320.294 553.47 315.402C554.582 312.345 554.012 308.025 555.306 305.531C556.845 302.563 566.664 304.397 565.131 320.904Z" fill="#FFC999"/>
<path d="M557.773 306.259C558.01 306.252 558.208 306.438 558.216 306.674C558.347 310.964 557.829 314.573 556.883 317.512C556.585 318.437 556.266 319.227 555.945 319.884L555.806 320.16C555.676 320.411 555.571 320.59 555.501 320.696C555.371 320.894 555.105 320.949 554.906 320.819C554.708 320.689 554.652 320.424 554.782 320.226C554.856 320.115 554.992 319.876 555.171 319.509C555.475 318.888 555.779 318.136 556.064 317.25C556.981 314.403 557.484 310.892 557.356 306.7C557.349 306.464 557.535 306.266 557.773 306.259Z" fill="#DD936F"/>
<path d="M560.797 306.892C560.94 306.703 561.209 306.664 561.399 306.806C561.589 306.948 561.628 307.217 561.485 307.406C561.26 307.705 561.116 308.127 561.048 308.642C560.98 309.166 560.996 309.736 561.064 310.281L561.102 310.544L561.121 310.653L561.13 310.75L561.121 310.964C561.113 311.136 561.102 311.334 561.087 311.557L561.036 312.216C560.997 312.67 560.948 313.154 560.887 313.662C560.624 315.84 560.199 318.018 559.574 320.056C559.335 320.836 559.07 321.582 558.777 322.29C558.687 322.508 558.436 322.613 558.216 322.523C557.996 322.433 557.892 322.182 557.982 321.964C558.264 321.282 558.52 320.561 558.752 319.806C559.36 317.822 559.776 315.691 560.033 313.56C560.123 312.813 560.187 312.12 560.229 311.499L560.252 311.128L560.269 310.772L560.24 310.601L560.211 310.387C560.134 309.776 560.117 309.138 560.196 308.532C560.28 307.882 560.471 307.325 560.797 306.892Z" fill="#DD936F"/>
<path d="M562.208 313.086C562.429 312.459 562.824 312.093 563.393 312.234C563.624 312.292 563.764 312.524 563.706 312.754C563.649 312.983 563.415 313.123 563.185 313.066C563.162 313.06 563.112 313.106 563.02 313.369C562.904 313.698 562.828 314.196 562.791 314.808C562.756 315.381 562.758 315.996 562.781 316.575L562.798 316.937C562.748 319.972 562.285 322.311 561.538 324.041C561.049 325.173 560.545 325.834 560.213 326.102L559.982 326.336L559.684 326.649C559.58 326.761 559.471 326.879 559.358 327.005C558.711 327.723 558.065 328.513 557.462 329.349C556.258 331.02 555.385 332.658 554.983 334.174C554.739 335.097 554.677 335.951 554.814 336.725C554.855 336.958 554.699 337.18 554.465 337.221C554.231 337.262 554.008 337.107 553.967 336.874C553.807 335.968 553.878 334.991 554.152 333.955C554.584 332.323 555.503 330.598 556.764 328.85C557.386 327.986 558.052 327.173 558.718 326.433L559.055 326.065C559.109 326.008 559.161 325.952 559.213 325.898L559.518 325.583C559.563 325.538 559.604 325.499 559.641 325.463C559.692 325.422 559.803 325.309 559.955 325.109C560.222 324.758 560.492 324.294 560.748 323.703C561.449 322.079 561.89 319.851 561.939 316.958L561.922 316.609C561.897 316.004 561.896 315.362 561.932 314.757C561.974 314.072 562.061 313.506 562.208 313.086Z" fill="#DD936F"/>
<path d="M548.192 321.906C548.314 321.703 548.578 321.638 548.782 321.759C548.912 321.837 549.125 321.986 549.395 322.208C549.838 322.575 550.28 323.02 550.692 323.549C552.259 325.56 552.972 328.165 552.358 331.377C552.314 331.61 552.089 331.762 551.855 331.718C551.622 331.674 551.469 331.449 551.513 331.217C552.079 328.257 551.434 325.898 550.012 324.074C549.641 323.597 549.243 323.196 548.846 322.868L548.659 322.719C548.517 322.609 548.406 322.534 548.339 322.494C548.136 322.372 548.07 322.109 548.192 321.906Z" fill="#DD936F"/>
<path d="M539.562 358.975C539.639 358.751 539.883 358.632 540.108 358.709C540.31 358.778 540.427 358.982 540.392 359.185L540.375 359.253L533.01 380.65C532.933 380.874 532.688 380.993 532.464 380.917C532.262 380.847 532.144 380.643 532.179 380.44L532.196 380.372L539.562 358.975Z" fill="#DD936F"/>
<path fill-rule="evenodd" clip-rule="evenodd" d="M393.411 440.039L456.811 422.084L462.947 412.302L510.39 414.154C510.39 414.154 540.871 470.523 504.792 482.86C476.141 490.716 468.182 491.522 468.182 491.522L456.917 506.957L405.706 482.399L368.288 458.95L393.411 440.039Z" fill="#125E8A"/>
<path d="M487.096 416.159C487.219 415.967 487.476 415.911 487.669 416.034C487.84 416.144 487.903 416.358 487.829 416.539L487.794 416.605L480.264 428.32C480.242 428.354 480.216 428.385 480.185 428.411L480.136 428.447L426.642 461.93L417.129 482.724C417.043 482.911 416.835 483.004 416.643 482.951L416.579 482.928C416.392 482.843 416.298 482.636 416.351 482.444L416.374 482.381L425.939 461.474C425.965 461.419 426.002 461.371 426.047 461.332L426.096 461.296L479.615 427.797L487.096 416.159Z" fill="#253368"/>
<path d="M496.855 418.138C497.06 418.153 497.22 418.314 497.239 418.512L497.24 418.579L496.087 435.072C496.083 435.115 496.074 435.158 496.057 435.198L496.028 435.256L476.254 467.964L457.292 507.137C457.192 507.342 456.944 507.429 456.738 507.33C456.552 507.24 456.464 507.031 456.52 506.841L456.545 506.778L475.525 467.571L495.265 434.916L496.412 418.522C496.427 418.317 496.588 418.157 496.787 418.138H496.855Z" fill="#253368"/>
<path d="M505.017 419.177C505.219 419.138 505.416 419.252 505.485 419.438L505.504 419.503L509.993 442.29C510.005 442.355 510.002 442.422 509.984 442.486L509.96 442.547L489.831 484.659C489.732 484.865 489.485 484.953 489.278 484.855C489.092 484.766 489.002 484.558 489.058 484.367L489.082 484.304L509.152 442.316L504.69 419.662C504.65 419.461 504.765 419.265 504.952 419.195L505.017 419.177Z" fill="#253368"/>
<path d="M463.375 411.686L510.409 413.741C510.638 413.751 510.815 413.944 510.806 414.172C510.796 414.377 510.638 414.541 510.44 414.564L510.373 414.566L463.571 412.521L456.54 422.926C456.499 422.988 456.442 423.036 456.376 423.068L456.307 423.094L393.597 440.416L369.017 458.918L405.927 482.049C406.099 482.157 406.164 482.37 406.091 482.552L406.057 482.619C405.949 482.79 405.734 482.855 405.552 482.782L405.485 482.748L368.068 459.299C367.843 459.158 367.811 458.851 367.986 458.667L368.038 458.62L393.162 439.71L393.301 439.641L455.937 422.338L463.012 411.868C463.08 411.768 463.186 411.704 463.303 411.689L463.375 411.686Z" fill="#253368"/>
<path d="M486.88 431.245C487 431.05 487.255 430.99 487.45 431.109C487.624 431.215 487.691 431.428 487.62 431.61L487.587 431.677L478.375 446.63L478.302 446.719L457.992 465.187C457.823 465.341 457.561 465.329 457.407 465.161C457.269 465.011 457.263 464.788 457.383 464.632L457.433 464.577L477.698 446.148L486.88 431.245Z" fill="#253368"/>
<path d="M453.462 437.124C453.679 437.05 453.915 437.165 453.989 437.381C454.056 437.575 453.969 437.785 453.793 437.879L453.731 437.906L421.724 448.844L395.336 463.151C395.135 463.26 394.883 463.186 394.773 462.986C394.675 462.805 394.725 462.584 394.883 462.462L394.939 462.425L421.391 448.091L453.462 437.124Z" fill="#253368"/>
<path fill-rule="evenodd" clip-rule="evenodd" d="M396.675 442.261C398.494 445.245 402.119 446.413 404.904 444.914L458.654 415.974C463.495 413.135 464.812 406.488 461.583 401.193C458.326 395.85 451.718 393.972 446.959 397.035L397.886 433.92C395.441 435.759 394.916 439.376 396.675 442.261Z" fill="#FFC999"/>
<path fill-rule="evenodd" clip-rule="evenodd" d="M390.611 441.715C390.611 441.715 397.631 432.322 403.581 430.517C408.445 429.042 408.209 435.009 408.209 435.009C408.209 435.009 407.13 444.963 404.998 450.431C403.602 454.014 401.937 461.234 399.957 460.989C397.378 460.668 400.255 453.574 398.916 452.199C396.204 449.413 390.535 460.081 388.71 461.302C385.144 463.688 382.674 453.926 390.611 441.715Z" fill="#FFC999"/>
<path d="M393.152 450.119C393.318 449.964 393.579 449.974 393.734 450.139C393.888 450.305 393.879 450.564 393.713 450.719L393.487 450.938L393.42 451.005C393.182 451.244 392.916 451.523 392.63 451.839C391.81 452.744 390.99 453.765 390.226 454.88C389.057 456.583 388.126 458.348 387.52 460.136C387.447 460.351 387.214 460.466 386.998 460.393C386.783 460.321 386.667 460.088 386.74 459.874C387.373 458.008 388.338 456.179 389.546 454.418C390.333 453.271 391.176 452.221 392.019 451.29C392.255 451.029 392.478 450.792 392.684 450.581L392.971 450.293C393.051 450.214 393.113 450.155 393.152 450.119Z" fill="#DD936F"/>
<path d="M391.428 447.187C391.578 447.017 391.838 447.001 392.009 447.15C392.18 447.3 392.196 447.559 392.046 447.729C390.023 450.021 388.477 452.339 387.346 454.562C386.951 455.338 386.636 456.046 386.394 456.672L386.296 456.929C386.209 457.165 386.153 457.335 386.124 457.433C386.061 457.651 385.833 457.776 385.614 457.713C385.396 457.649 385.271 457.422 385.334 457.205L385.405 456.982L385.505 456.7C385.541 456.599 385.582 456.491 385.626 456.376C385.878 455.726 386.204 454.993 386.612 454.192C387.774 451.909 389.358 449.534 391.428 447.187Z" fill="#DD936F"/>
<path d="M390.728 444.013C390.889 443.854 391.15 443.854 391.31 444.015C391.471 444.175 391.47 444.435 391.309 444.594L391.148 444.765C391.093 444.825 391.028 444.898 390.953 444.984L390.69 445.296C390.463 445.571 390.216 445.888 389.952 446.246C388.891 447.684 387.775 449.487 386.659 451.679C386.556 451.88 386.309 451.961 386.106 451.859C385.903 451.756 385.822 451.51 385.925 451.308C387.062 449.076 388.201 447.235 389.289 445.76C389.617 445.316 389.921 444.932 390.196 444.606L390.479 444.28C390.591 444.155 390.675 444.066 390.728 444.013Z" fill="#DD936F"/>
<path d="M465.622 405.572L509.4 407.201C509.629 407.21 509.808 407.402 509.799 407.63C509.791 407.835 509.635 407.999 509.437 408.024L509.369 408.027L465.591 406.397C465.363 406.389 465.184 406.197 465.192 405.969C465.2 405.764 465.357 405.599 465.555 405.575L465.622 405.572Z" fill="#253368"/>
<path fill-rule="evenodd" clip-rule="evenodd" d="M576.368 497.829C594.529 489.161 605.352 511.896 596.219 524.555C585.073 540.002 579.364 557.776 576.184 563.132C573.502 567.649 566.155 578.663 557.309 573.587C549.167 568.915 553.604 550.579 553.604 550.579C553.604 550.579 553.964 508.524 576.368 497.829Z" fill="#5B8C00"/>
<path fill-rule="evenodd" clip-rule="evenodd" d="M521.743 570.056C515.569 561.65 513.315 549.587 520.206 546.494C526.813 543.528 537.758 550.83 542.827 564.884C547.897 578.938 550.821 589.042 545.863 590.799C537.727 593.681 529.898 581.159 521.743 570.056Z" fill="#5B8C00"/>
<path fill-rule="evenodd" clip-rule="evenodd" d="M586.652 570.695C579.668 578.953 569.591 595.566 563.278 589.748C559.452 586.222 564.567 569.523 578.568 560.437C590.478 552.708 593.635 562.436 586.652 570.695Z" fill="#7CB305"/>
<path fill-rule="evenodd" clip-rule="evenodd" d="M519.829 513.385C522.485 511.582 525.826 511.17 528.874 512.155C533.128 513.53 539.583 517.625 545.973 529.376C554.314 544.719 558.657 561.539 557.798 572.194C557.237 579.161 548.731 582.165 543.973 577.085C541.787 574.752 539.475 571.155 537.213 565.699C528.108 543.742 519.596 529.983 518.581 528.601C515.872 524.915 513.936 517.387 519.829 513.385Z" fill="#7CB305"/>
<path fill-rule="evenodd" clip-rule="evenodd" d="M525.936 522.143C526.026 523.227 525.228 524.179 524.154 524.27C523.079 524.361 522.136 523.556 522.045 522.472C521.955 521.388 522.753 520.436 523.827 520.344C524.902 520.254 525.845 521.059 525.936 522.143Z" fill="white"/>
<path fill-rule="evenodd" clip-rule="evenodd" d="M542.515 530.553C542.605 531.637 541.807 532.59 540.733 532.68C539.659 532.772 538.715 531.966 538.625 530.882C538.535 529.798 539.332 528.846 540.407 528.755C541.481 528.664 542.425 529.469 542.515 530.553Z" fill="white"/>
<path fill-rule="evenodd" clip-rule="evenodd" d="M539.736 552.946C539.839 554.187 538.926 555.278 537.696 555.382C536.465 555.486 535.384 554.564 535.281 553.323C535.178 552.081 536.092 550.99 537.322 550.886C538.552 550.782 539.633 551.704 539.736 552.946Z" fill="white"/>
<path fill-rule="evenodd" clip-rule="evenodd" d="M590.66 519.481C590.66 521.243 589.244 522.671 587.499 522.671C585.753 522.671 584.337 521.243 584.337 519.481C584.337 517.719 585.753 516.291 587.499 516.291C589.244 516.291 590.66 517.719 590.66 519.481Z" fill="white"/>
<path fill-rule="evenodd" clip-rule="evenodd" d="M565.211 529.223C565.211 530.985 563.796 532.413 562.05 532.413C560.304 532.413 558.889 530.985 558.889 529.223C558.889 527.461 560.304 526.033 562.05 526.033C563.796 526.033 565.211 527.461 565.211 529.223Z" fill="white"/>
<path fill-rule="evenodd" clip-rule="evenodd" d="M573.453 550.878C573.453 551.615 572.862 552.212 572.132 552.212C571.402 552.212 570.811 551.615 570.811 550.878C570.811 550.142 571.402 549.545 572.132 549.545C572.862 549.545 573.453 550.142 573.453 550.878Z" fill="white"/>
<path fill-rule="evenodd" clip-rule="evenodd" d="M582.972 567.931C582.972 569.019 582.098 569.901 581.02 569.901C579.942 569.901 579.068 569.019 579.068 567.931C579.068 566.843 579.942 565.961 581.02 565.961C582.098 565.961 582.972 566.843 582.972 567.931Z" fill="white"/>
<path d="M537.381 572.3C537.563 572.125 537.851 572.132 538.024 572.315L538.108 572.406L538.171 572.477C538.285 572.606 538.418 572.76 538.567 572.939C538.99 573.448 539.46 574.057 539.966 574.764C541.408 576.778 542.848 579.181 544.192 581.97C548.025 589.928 550.325 599.38 550.325 610.291C550.325 610.545 550.121 610.751 549.869 610.751C549.618 610.751 549.414 610.545 549.414 610.291C549.414 599.524 547.148 590.208 543.373 582.372C542.053 579.632 540.64 577.274 539.228 575.301C538.764 574.653 538.332 574.092 537.942 573.617L537.869 573.53C537.759 573.396 537.658 573.278 537.568 573.175L537.453 573.046C537.411 572.998 537.382 572.966 537.366 572.949C537.192 572.766 537.199 572.475 537.381 572.3Z" fill="#253368"/>
<path d="M571.767 575.515C571.917 575.312 572.203 575.27 572.404 575.422C572.605 575.574 572.647 575.861 572.496 576.065C570.839 578.305 569.309 580.714 567.902 583.268C564.928 588.666 562.629 594.454 560.922 600.242C560.325 602.268 559.844 604.149 559.47 605.836L559.395 606.181C559.305 606.594 559.228 606.97 559.162 607.308L559.12 607.528L559.045 607.945C559.003 608.195 558.768 608.364 558.52 608.322C558.272 608.28 558.105 608.043 558.147 607.792L558.173 607.645C558.194 607.525 558.22 607.385 558.251 607.224L558.326 606.841C558.4 606.477 558.485 606.074 558.582 605.635L558.665 605.266C559.03 603.656 559.489 601.881 560.05 599.98C561.774 594.132 564.097 588.284 567.106 582.822C568.532 580.233 570.084 577.79 571.767 575.515Z" fill="#253368"/>
<path d="M579.721 518.209C579.895 518.377 579.908 518.652 579.754 518.836L579.734 518.858C579.725 518.868 579.706 518.888 579.677 518.92L579.565 519.043L579.5 519.116C579.304 519.337 579.076 519.602 578.819 519.912C578.082 520.802 577.26 521.873 576.374 523.125C573.837 526.709 571.299 531.025 568.93 536.078C564.984 544.491 561.911 554.087 560.048 564.875C557.787 577.974 557.412 592.283 559.264 607.814C559.294 608.066 559.116 608.295 558.866 608.325C558.616 608.355 558.39 608.175 558.36 607.924C556.498 592.304 556.875 577.904 559.152 564.717C561.028 553.846 564.127 544.172 568.107 535.685C570.5 530.581 573.066 526.218 575.633 522.591L575.832 522.312C576.623 521.205 577.363 520.243 578.037 519.425L578.121 519.323C578.363 519.031 578.58 518.777 578.771 518.561L578.822 518.503C578.882 518.436 578.935 518.377 578.982 518.325L579.077 518.223C579.251 518.04 579.539 518.033 579.721 518.209Z" fill="#253368"/>
<path d="M540.324 545.447C540.539 545.316 540.819 545.385 540.949 545.602L540.995 545.68C541.031 545.742 541.074 545.816 541.123 545.902L541.195 546.028C541.317 546.244 541.454 546.493 541.605 546.774L541.73 547.008C542.193 547.877 542.7 548.884 543.242 550.024L543.316 550.18C545.083 553.916 546.849 558.284 548.497 563.248C553.11 577.146 555.917 592.922 556.022 610.288C556.024 610.542 555.821 610.749 555.57 610.751C555.318 610.752 555.113 610.548 555.112 610.294C555.007 593.029 552.218 577.349 547.633 563.539C546.027 558.702 544.309 554.436 542.59 550.778L542.495 550.576C541.907 549.333 541.36 548.249 540.866 547.327L540.718 547.051C540.575 546.789 540.447 546.558 540.334 546.36L540.28 546.266L540.171 546.078C540.04 545.861 540.109 545.579 540.324 545.447Z" fill="#253368"/>
<path fill-rule="evenodd" clip-rule="evenodd" d="M575.354 633.075H536.011C533.885 633.075 532.145 631.319 532.145 629.173V600.208C532.145 598.061 533.885 596.305 536.011 596.305H575.354C577.48 596.305 579.22 598.061 579.22 600.208V629.173C579.22 631.319 577.48 633.075 575.354 633.075Z" fill="#253368"/>
</svg>
