<svg width="582" height="749" viewBox="0 0 582 749" fill="none" xmlns="http://www.w3.org/2000/svg">
<path fill-rule="evenodd" clip-rule="evenodd" d="M147.006 57.4768C101.764 57.4768 65.0879 94.2842 65.0879 139.688C65.0879 185.091 101.764 221.899 147.006 221.899C192.247 221.899 228.925 185.091 228.925 139.688C228.925 94.2842 192.247 57.4768 147.006 57.4768Z" fill="#125E8A"/>
<mask id="mask0" style="mask-type:alpha" maskUnits="userSpaceOnUse" x="65" y="57" width="164" height="166">
<path d="M147.006 57.9319C101.764 57.9319 65.0879 94.7393 65.0879 140.143C65.0879 185.548 101.764 222.354 147.006 222.354C192.248 222.354 228.923 185.548 228.923 140.143" fill="white"/>
</mask>
<g mask="url(#mask0)">
<path fill-rule="evenodd" clip-rule="evenodd" d="M199.029 213.852C212.072 213.852 223.917 208.838 232.866 200.682C230.571 184.25 216.547 161.909 199.54 161.909C182.251 161.909 168.022 184.668 166.09 201.501C174.928 209.177 186.423 213.852 199.029 213.852Z" fill="#41D3BD"/>
<path fill-rule="evenodd" clip-rule="evenodd" d="M219.222 144.926C219.222 155.87 210.384 164.741 199.479 164.741C188.573 164.741 179.733 155.87 179.733 144.926C179.733 133.983 188.573 125.112 199.479 125.112C210.384 125.112 219.222 133.983 219.222 144.926Z" fill="#E4EBF7"/>
<path fill-rule="evenodd" clip-rule="evenodd" d="M59.418 199.564C68.2564 207.239 79.7516 211.916 92.3569 211.916C105.4 211.916 117.246 206.902 126.195 198.745C123.899 182.313 109.876 161.91 92.8679 161.91C75.5788 161.91 61.3497 182.732 59.418 199.564Z" fill="#41D3BD"/>
<path fill-rule="evenodd" clip-rule="evenodd" d="M112.551 144.926C112.551 155.87 103.713 164.741 92.8082 164.741C81.9009 164.741 73.0625 155.87 73.0625 144.926C73.0625 133.983 81.9009 125.112 92.8082 125.112C103.713 125.112 112.551 133.983 112.551 144.926Z" fill="#E4EBF7"/>
<path fill-rule="evenodd" clip-rule="evenodd" d="M99.25 207.268C112.239 218.548 129.135 225.418 147.66 225.418C166.826 225.418 184.235 218.052 197.388 206.066C194.016 181.916 173.405 153.406 148.411 153.406C123.001 153.406 102.087 182.53 99.25 207.268Z" fill="#23C4AB"/>
<path fill-rule="evenodd" clip-rule="evenodd" d="M177.337 132.967C177.337 149.051 164.345 162.089 148.32 162.089C132.292 162.089 119.301 149.051 119.301 132.967C119.301 116.883 132.292 103.847 148.32 103.847C164.345 103.847 177.337 116.883 177.337 132.967Z" fill="white"/>
</g>
<path fill-rule="evenodd" clip-rule="evenodd" d="M295.03 480.087C293.409 451.418 291.443 421.799 289.338 398.272C289.338 398.272 284.922 381.423 269.508 385.398C254.398 389.294 255.739 408.593 255.739 408.593L267.646 484.04C267.646 484.04 269.723 496.305 283.378 494.09C295.832 492.068 295.03 480.087 295.03 480.087Z" fill="#41D3BD"/>
<path fill-rule="evenodd" clip-rule="evenodd" d="M289.874 551.888C284.399 551.385 279.884 556.112 280.658 561.549C281.548 567.805 282.706 576.261 283.83 585.385C284.987 594.775 285.963 602.555 286.743 603.472C290.179 607.517 296.287 608.507 302.847 612.178C308.037 615.083 309.043 616.62 315.316 617.114C324.209 617.815 319.749 614.556 308.822 603.908C299.087 594.421 299.145 589.479 299.145 589.479L297.607 559.92C297.387 555.696 294.093 552.274 289.874 551.888Z" fill="#C99382"/>
<path fill-rule="evenodd" clip-rule="evenodd" d="M307.652 601.238C314.697 607.557 322.506 612.313 322.685 615.651C322.865 618.989 320.564 622.268 309.31 619.581C301.609 617.742 303.562 615.926 295.988 612.078C292.205 610.157 290.942 610.542 287.396 608.215C285.27 606.014 284.864 594.267 284.864 594.267L298.729 606.525C298.729 606.525 294.824 600.543 297.329 598.889C299.835 597.235 302.178 596.042 303.862 596.999C305.546 597.957 307.652 601.238 307.652 601.238Z" fill="#7D4556"/>
<path fill-rule="evenodd" clip-rule="evenodd" d="M295.215 482.612C297.732 532.26 300.06 584.188 300.06 584.188L282.102 584.2L267.417 485.994C267.417 485.994 267.111 471.045 280.887 469.789C293.318 468.656 295.215 482.612 295.215 482.612Z" fill="#41D3BD"/>
<path fill-rule="evenodd" clip-rule="evenodd" d="M219.69 483.061C220.641 454.362 221.917 424.705 223.472 401.136C223.472 401.136 227.494 384.188 242.998 387.803C258.195 391.347 257.302 410.674 257.302 410.674L247.158 486.375C247.158 486.375 245.368 498.687 231.665 496.788C219.167 495.058 219.69 483.061 219.69 483.061Z" fill="#41D3BD"/>
<path fill-rule="evenodd" clip-rule="evenodd" d="M226.516 554.722C231.98 554.093 236.602 558.713 235.956 564.166C235.212 570.441 234.252 578.923 233.341 588.07C232.403 597.484 231.608 605.284 230.848 606.22C227.509 610.344 221.425 611.476 214.954 615.298C209.832 618.323 208.861 619.883 202.601 620.522C193.729 621.43 198.11 618.068 208.787 607.169C218.299 597.459 218.124 592.519 218.124 592.519L218.974 562.932C219.095 558.704 222.309 555.206 226.516 554.722Z" fill="#C99382"/>
<path fill-rule="evenodd" clip-rule="evenodd" d="M209.894 604.473C202.999 610.953 195.303 615.889 195.202 619.231C195.1 622.573 197.475 625.796 208.665 622.848C216.321 620.832 214.325 619.061 221.808 615.039C225.544 613.03 226.817 613.386 230.308 610.977C232.382 608.727 232.514 596.973 232.514 596.973L218.938 609.551C218.938 609.551 222.701 603.479 220.159 601.885C217.616 600.289 215.247 599.149 213.585 600.147C211.925 601.142 209.894 604.473 209.894 604.473Z" fill="#7D4556"/>
<path fill-rule="evenodd" clip-rule="evenodd" d="M219.563 485.589C218.205 535.282 217.087 587.251 217.087 587.251L235.04 586.845L247.432 488.325C247.432 488.325 247.39 473.372 233.588 472.437C221.134 471.593 219.563 485.589 219.563 485.589Z" fill="#41D3BD"/>
<path fill-rule="evenodd" clip-rule="evenodd" d="M268.653 271.892L267.87 255.504L246.103 255.517L245.572 272.007C245.333 278.39 250.412 283.712 256.807 283.781C256.929 283.782 257.051 283.784 257.173 283.786C263.713 283.86 268.965 278.416 268.653 271.892Z" fill="#C99382"/>
<path fill-rule="evenodd" clip-rule="evenodd" d="M272.485 275.935L271.095 271.935L244.087 272.671L243.002 276.458C243.002 276.458 227.351 273.047 219.66 285.116C214.828 292.7 226.121 338.277 226.311 348.452C221.716 360.607 228.394 364.312 228.394 364.312L283.17 363.656C283.17 363.656 289.441 359.507 284.073 351.156C286.272 336.215 297.527 296.171 293.895 288.798C286.677 274.144 272.485 275.935 272.485 275.935Z" fill="#125E8A"/>
<path d="M270.39 276.459C270.617 276.437 270.818 276.603 270.84 276.83C270.861 277.056 270.695 277.257 270.468 277.278C268.665 277.449 266.734 277.593 264.695 277.712C258.472 278.075 251.954 278.18 246.251 278.135L244.137 278.109C243.909 278.105 243.728 277.917 243.732 277.69C243.737 277.463 243.925 277.282 244.153 277.287L245.317 277.303C251.221 277.368 258.1 277.273 264.647 276.891C266.677 276.772 268.597 276.629 270.39 276.459Z" fill="#41D3BD"/>
<path fill-rule="evenodd" clip-rule="evenodd" d="M289.776 402.632C288.023 384.096 285.297 375.454 283.217 371.972C238.484 373.249 227.341 372.662 227.341 372.662C227.341 372.662 223.512 383.479 222.961 405.238C222.961 405.238 238.596 424.462 256.368 424.462C272.392 424.462 289.776 402.632 289.776 402.632Z" fill="#41D3BD"/>
<path fill-rule="evenodd" clip-rule="evenodd" d="M283.217 371.972L282.37 363.565L227.596 364.222L227.341 372.641C227.341 372.641 256.33 373.756 283.217 371.972Z" fill="#41D3BD"/>
<path d="M251.635 373.226C251.868 373.231 252.052 373.423 252.048 373.655L252.01 375.975C252.003 376.442 251.996 376.937 251.99 377.459C251.895 385.309 251.904 393.751 252.088 401.674L252.116 402.826C252.346 411.773 252.79 418.906 253.486 423.576C253.52 423.806 253.361 424.02 253.131 424.054C252.901 424.088 252.687 423.93 252.652 423.7L252.564 423.085C251.883 418.166 251.458 410.826 251.246 401.693C251.077 394.421 251.055 386.713 251.126 379.425L251.177 375.283L251.205 373.638C251.21 373.406 251.402 373.221 251.635 373.226Z" fill="#253368"/>
<path d="M259.454 373.405C259.687 373.406 259.874 373.596 259.873 373.828L259.874 376.487C259.878 377.747 259.887 379.18 259.903 380.742C259.941 384.354 260.01 387.927 260.117 391.308L260.154 392.427C260.337 397.74 260.606 402.147 260.973 405.342L261.012 405.668L261.013 405.752C260.771 408.824 259.049 410.7 256.375 411.583C254.904 412.069 253.374 412.193 252.065 412.119L251.862 412.105C251.846 412.104 251.832 412.102 251.821 412.101C251.589 412.078 251.421 411.871 251.445 411.64C251.468 411.409 251.675 411.24 251.907 411.264L252.113 411.279C253.325 411.348 254.756 411.232 256.11 410.784C258.414 410.024 259.873 408.486 260.151 405.922L260.169 405.725L260.136 405.44C259.817 402.661 259.572 398.989 259.393 394.611L259.311 392.456C259.196 389.114 259.119 385.562 259.074 381.955L259.048 379.379C259.038 378.193 259.033 377.098 259.03 376.115L259.031 373.824C259.032 373.592 259.221 373.404 259.454 373.405Z" fill="#253368"/>
<path d="M278.322 373.582C278.555 373.578 278.746 373.764 278.75 373.996L278.764 374.395C278.768 374.468 278.772 374.549 278.777 374.637C278.806 375.153 278.853 375.729 278.921 376.349C279.117 378.119 279.446 379.889 279.939 381.537C281.07 385.312 282.876 387.852 285.463 388.635C285.686 388.702 285.812 388.937 285.744 389.159C285.677 389.382 285.442 389.507 285.219 389.44C282.298 388.556 280.335 385.796 279.132 381.778C278.622 380.076 278.284 378.258 278.084 376.441C278.027 375.932 277.985 375.453 277.956 375.01L277.917 374.324C277.912 374.187 277.908 374.081 277.907 374.01C277.904 373.777 278.089 373.586 278.322 373.582Z" fill="#253368"/>
<path d="M232.239 374.555C232.448 374.554 232.623 374.705 232.657 374.905L232.663 374.986L232.66 375.421C232.652 375.956 232.624 376.661 232.567 377.489C232.448 379.223 232.229 380.951 231.887 382.568C230.988 386.809 229.402 389.614 226.879 390.268C226.653 390.326 226.424 390.191 226.365 389.966C226.307 389.741 226.442 389.511 226.667 389.453C228.777 388.907 230.224 386.347 231.062 382.394C231.396 380.819 231.61 379.129 231.727 377.431L231.757 376.96C231.797 376.275 231.815 375.697 231.82 375.26L231.821 374.979C231.819 374.747 232.006 374.557 232.239 374.555Z" fill="#253368"/>
<path d="M241.866 420.361C241.97 420.154 242.223 420.069 242.431 420.173L242.771 420.337L243.128 420.502C243.316 420.588 243.519 420.679 243.736 420.775C244.771 421.228 245.907 421.682 247.108 422.106C249.416 422.919 251.68 423.52 253.794 423.822C255.688 424.092 257.396 424.111 258.871 423.843C259.1 423.801 259.319 423.953 259.361 424.182C259.402 424.41 259.251 424.629 259.022 424.671C257.448 424.956 255.652 424.937 253.675 424.655C251.5 424.345 249.184 423.729 246.828 422.899C245.78 422.53 244.782 422.138 243.855 421.743L243.397 421.545C243.176 421.448 242.969 421.355 242.776 421.267L242.23 421.011C242.151 420.974 242.093 420.945 242.054 420.926C241.846 420.822 241.762 420.569 241.866 420.361Z" fill="#253368"/>
<path fill-rule="evenodd" clip-rule="evenodd" d="M276.835 240.191C276.835 240.191 282.394 233.872 285.621 239.849C288.687 245.526 282.373 253.276 277.021 251.719C274.682 246.4 276.835 240.191 276.835 240.191Z" fill="#C99382"/>
<path fill-rule="evenodd" clip-rule="evenodd" d="M238.09 240.191C238.09 240.191 232.532 233.872 229.304 239.849C226.239 245.526 232.552 253.276 237.904 251.719C240.243 246.4 238.09 240.191 238.09 240.191Z" fill="#C99382"/>
<path fill-rule="evenodd" clip-rule="evenodd" d="M279.115 241.531C279.115 261.161 269.351 266.35 257.306 266.35C245.263 266.35 236.325 261.367 235.5 241.531C234.74 223.283 245.263 217.156 257.306 217.156C269.351 217.156 279.115 224.297 279.115 241.531Z" fill="#C99382"/>
<path fill-rule="evenodd" clip-rule="evenodd" d="M259.049 243.693C259.097 247.657 262.353 250.832 266.322 250.785C270.292 250.736 273.472 247.484 273.424 243.52C273.377 239.556 270.119 236.381 266.151 236.428C262.182 236.477 259.001 239.729 259.049 243.693Z" fill="white"/>
<path d="M266.146 235.923C261.896 235.974 258.492 239.456 258.544 243.699C258.594 247.942 262.08 251.341 266.329 251.291C270.579 251.239 273.983 247.757 273.931 243.514C273.88 239.272 270.394 235.872 266.146 235.923ZM266.158 236.934C269.847 236.89 272.874 239.842 272.918 243.527C272.963 247.211 270.007 250.234 266.317 250.279C262.627 250.323 259.6 247.371 259.556 243.687C259.512 240.067 262.365 237.085 265.964 236.939L266.158 236.934Z" fill="#7D4556"/>
<path d="M264.48 244.04C264.449 244.287 264.24 244.48 263.983 244.483C263.727 244.486 263.513 244.298 263.476 244.052L263.471 243.983C263.468 243.569 263.545 243.008 263.784 242.44C264.204 241.438 265.008 240.802 266.22 240.788C267.423 240.773 268.271 241.342 268.78 242.269C269.071 242.797 269.197 243.317 269.23 243.686C269.255 243.964 269.049 244.209 268.77 244.234C268.492 244.259 268.246 244.054 268.221 243.775L268.209 243.686C268.2 243.63 268.185 243.556 268.164 243.469C268.105 243.224 268.015 242.979 267.892 242.755C267.553 242.138 267.034 241.79 266.232 241.799C265.458 241.809 264.993 242.176 264.718 242.831C264.616 243.073 264.55 243.339 264.513 243.606C264.499 243.705 264.491 243.791 264.487 243.859L264.48 244.04Z" fill="#7D4556"/>
<path d="M243.02 234.189C245.241 232.784 248.544 232.784 253.049 235.033C253.299 235.158 253.401 235.462 253.276 235.711C253.151 235.961 252.846 236.063 252.596 235.938C248.393 233.839 245.465 233.839 243.562 235.043C243.295 235.212 243.076 235.391 242.901 235.568L242.802 235.674C242.775 235.704 242.755 235.729 242.74 235.748L242.723 235.771C242.565 236.001 242.25 236.06 242.019 235.903C241.788 235.745 241.729 235.43 241.887 235.2C242.073 234.929 242.442 234.554 243.02 234.189Z" fill="#7D4556"/>
<path d="M267.125 233.081C268.519 233.006 269.761 233.23 270.803 233.808C271.048 233.943 271.136 234.251 271 234.496C270.864 234.74 270.556 234.828 270.311 234.692C269.453 234.216 268.396 234.026 267.179 234.091C265.923 234.158 264.562 234.49 263.19 235.003C262.754 235.166 262.34 235.338 261.958 235.512L261.677 235.643C261.403 235.773 261.21 235.873 261.11 235.928C260.865 236.063 260.557 235.974 260.422 235.73C260.286 235.485 260.375 235.177 260.62 235.042L260.822 234.936C260.933 234.879 261.074 234.809 261.241 234.73C261.725 234.5 262.261 234.27 262.835 234.055C264.296 233.509 265.752 233.154 267.125 233.081Z" fill="#7D4556"/>
<path d="M254.285 237.384C254.488 237.281 254.736 237.362 254.839 237.564L254.93 237.754C254.968 237.835 255.012 237.933 255.061 238.047C255.225 238.425 255.388 238.846 255.54 239.303C256.039 240.802 256.308 242.317 256.223 243.748C256.172 244.62 256.013 245.415 255.72 246.436L255.291 247.896C254.996 248.935 254.993 249.139 255.097 249.521C255.259 250.114 255.979 250.494 257.662 250.677C257.888 250.701 258.051 250.904 258.027 251.13C258.002 251.356 257.799 251.519 257.572 251.495C255.59 251.279 254.577 250.745 254.302 249.738L254.253 249.547C254.131 249.024 254.19 248.704 254.66 247.117L254.839 246.515C255.174 245.393 255.349 244.582 255.401 243.7C255.478 242.388 255.227 240.97 254.758 239.563C254.643 239.216 254.521 238.891 254.398 238.593L254.305 238.374C254.213 238.162 254.143 238.013 254.104 237.937C254.001 237.735 254.082 237.487 254.285 237.384Z" fill="#9B6160"/>
<path d="M262.132 252.505C262.363 252.445 262.599 252.584 262.659 252.815C262.719 253.046 262.581 253.282 262.349 253.342C259.19 254.16 255.914 254.16 252.888 253.67C252.534 253.613 252.21 253.553 251.916 253.491L251.513 253.402C251.401 253.376 251.318 253.355 251.264 253.34C251.034 253.277 250.898 253.04 250.961 252.809C251.024 252.579 251.262 252.443 251.492 252.506L251.89 252.601C252.221 252.675 252.601 252.748 253.026 252.817C255.944 253.289 259.104 253.289 262.132 252.505Z" fill="#7D4556"/>
<path fill-rule="evenodd" clip-rule="evenodd" d="M240.902 243.693C240.949 247.657 244.207 250.832 248.176 250.785C252.145 250.736 255.325 247.484 255.277 243.52C255.229 239.556 251.973 236.381 248.003 236.428C244.034 236.477 240.855 239.729 240.902 243.693Z" fill="white"/>
<path d="M247.997 235.923C243.748 235.974 240.345 239.456 240.395 243.699C240.446 247.942 243.932 251.341 248.182 251.291C252.431 251.239 255.834 247.758 255.784 243.514C255.732 239.271 252.246 235.872 247.997 235.923ZM248.009 236.934C251.699 236.89 254.726 239.842 254.771 243.527C254.815 247.211 251.859 250.234 248.169 250.279C244.48 250.323 241.452 247.371 241.408 243.687C241.365 240.067 244.217 237.085 247.816 236.939L248.009 236.934Z" fill="#7D4556"/>
<path d="M246.333 244.04C246.303 244.287 246.093 244.48 245.837 244.483C245.58 244.486 245.366 244.298 245.33 244.052L245.324 243.983C245.322 243.569 245.399 243.008 245.637 242.44C246.057 241.438 246.861 240.802 248.072 240.788C249.275 240.773 250.124 241.342 250.633 242.269C250.923 242.797 251.05 243.317 251.082 243.686C251.107 243.964 250.901 244.209 250.623 244.234C250.344 244.259 250.098 244.054 250.073 243.775L250.062 243.686C250.052 243.63 250.038 243.556 250.017 243.469C249.957 243.224 249.868 242.979 249.745 242.755C249.405 242.138 248.886 241.79 248.085 241.799C247.311 241.809 246.846 242.176 246.571 242.831C246.47 243.073 246.403 243.338 246.366 243.606L246.346 243.785C246.342 243.838 246.339 243.884 246.338 243.922L246.337 243.973L246.333 244.04Z" fill="#7D4556"/>
<path d="M255.698 240.616C256.736 240.285 257.837 240.241 258.886 240.683C258.979 240.722 259.072 240.766 259.164 240.813L259.3 240.886L258.801 241.767C258.7 241.71 258.597 241.659 258.492 241.615C257.7 241.281 256.834 241.315 256.006 241.58C255.808 241.643 255.656 241.705 255.563 241.75L255.513 241.774L255.042 240.879C255.175 240.809 255.4 240.712 255.698 240.616Z" fill="#7D4556"/>
<path d="M268.028 264.111C268.238 264.025 268.479 264.126 268.565 264.336C268.651 264.546 268.55 264.787 268.339 264.873C261.128 267.814 253.746 267.374 247.238 265.137C247.023 265.063 246.908 264.829 246.982 264.615C247.057 264.4 247.291 264.285 247.506 264.359C253.842 266.536 261.03 266.965 268.028 264.111Z" fill="#9B6160"/>
<path d="M258.7 256.544C258.927 256.544 259.112 256.728 259.112 256.955C259.112 257.16 258.962 257.329 258.767 257.361L258.7 257.367H255.451C255.224 257.367 255.039 257.182 255.039 256.955C255.039 256.751 255.188 256.581 255.384 256.549L255.451 256.544H258.7Z" fill="#9B6160"/>
<path d="M256.844 261.023C257.048 261.023 257.218 261.172 257.25 261.368L257.256 261.434V265.914C257.256 266.141 257.071 266.326 256.844 266.326C256.639 266.326 256.469 266.176 256.437 265.981L256.432 265.914V261.434C256.432 261.207 256.616 261.023 256.844 261.023Z" fill="#9B6160"/>
<path d="M258.645 262.263C258.847 262.235 259.036 262.36 259.094 262.549L259.108 262.615L259.572 266.013C259.603 266.238 259.445 266.445 259.219 266.476C259.016 266.504 258.828 266.379 258.77 266.189L258.756 266.124L258.292 262.726C258.261 262.501 258.419 262.293 258.645 262.263Z" fill="#9B6160"/>
<path d="M254.364 263.34L254.431 263.345C254.633 263.376 254.778 263.549 254.78 263.747L254.775 263.814L254.467 265.822C254.432 266.046 254.222 266.2 253.997 266.166C253.795 266.135 253.649 265.962 253.647 265.763L253.652 265.697L253.961 263.689C253.992 263.487 254.166 263.342 254.364 263.34Z" fill="#9B6160"/>
<path d="M260.294 263.045C260.492 262.992 260.695 263.093 260.776 263.273L260.798 263.336L261.417 265.654C261.476 265.873 261.345 266.099 261.125 266.157C260.927 266.21 260.725 266.109 260.643 265.929L260.621 265.866L260.002 263.548C259.944 263.329 260.074 263.103 260.294 263.045Z" fill="#9B6160"/>
<path d="M230.309 241.587C231.219 240.51 232.422 240.51 233.556 242.271C234.021 243.33 233.98 244.036 233.576 245.023L233.347 245.559C233.104 246.164 233.12 246.548 233.522 247.15C233.641 247.329 233.778 247.472 233.929 247.586C234.204 247.792 234.478 247.875 234.662 247.891L234.726 247.894C234.953 247.894 235.138 248.078 235.138 248.306C235.138 248.533 234.953 248.717 234.726 248.717C234.384 248.717 233.908 248.598 233.435 248.244C233.209 248.075 233.007 247.863 232.836 247.607C232.305 246.811 232.25 246.173 232.526 245.4L232.621 245.157C232.638 245.117 232.667 245.05 232.745 244.871C233.134 243.98 233.186 243.478 232.833 242.659C232.046 241.444 231.508 241.444 230.939 242.118C230.781 242.305 230.668 242.495 230.613 242.611C230.516 242.817 230.271 242.905 230.065 242.808C229.859 242.711 229.771 242.466 229.867 242.26C229.95 242.085 230.098 241.837 230.309 241.587Z" fill="#9B6160"/>
<path d="M280.641 242.212C281.744 240.51 282.948 240.51 283.857 241.587C284.069 241.838 284.216 242.085 284.299 242.261C284.396 242.466 284.307 242.711 284.101 242.808C283.895 242.905 283.65 242.817 283.553 242.611C283.498 242.495 283.385 242.305 283.227 242.118C282.659 241.444 282.12 241.444 281.365 242.601C281.004 243.423 281.027 243.916 281.352 244.708L281.584 245.253C281.922 246.094 281.894 246.762 281.33 247.606C281.159 247.864 280.956 248.076 280.73 248.245C280.258 248.599 279.783 248.717 279.441 248.717C279.214 248.717 279.029 248.533 279.029 248.306C279.029 248.101 279.179 247.932 279.374 247.9L279.441 247.894C279.62 247.894 279.927 247.818 280.236 247.587C280.388 247.473 280.525 247.329 280.644 247.15C281.02 246.589 281.058 246.216 280.864 245.677L280.747 245.387C280.729 245.344 280.703 245.285 280.666 245.2C280.194 244.118 280.118 243.392 280.641 242.212Z" fill="#9B6160"/>
<path fill-rule="evenodd" clip-rule="evenodd" d="M234.674 244.753C234.674 244.753 231.375 241.252 233.024 236.927C230.137 231.778 231.994 226.835 234.674 224.982C233.849 220.452 236.942 212.42 243.336 211.596C247.1 213.089 251.584 213.243 251.584 213.243C251.584 213.243 262.307 207.065 269.732 214.479C277.362 213.655 281.28 222.305 280.661 225.394C284.785 230.543 281.486 238.369 281.486 238.369C281.486 238.369 281.026 241.396 279.63 245.577C278.187 249.902 277.568 244.342 277.568 243.106C277.568 241.87 274.476 240.841 275.506 235.28C272 232.808 272.774 228.999 272.774 228.999C272.774 228.999 270.247 231.573 263.03 228.072C257.874 232.397 250.038 228.072 250.038 228.072C250.038 228.072 243.696 231.109 239.984 228.844C239.984 228.844 241.014 231.933 238.129 236.258C239.16 240.376 236.117 242.282 236.942 244.753C237.767 247.224 235.499 249.696 234.674 244.753Z" fill="#7D4556"/>
<path fill-rule="evenodd" clip-rule="evenodd" d="M223.173 312.146C223.173 312.146 232.772 324.145 243.631 315.178C254.704 306.034 244.516 294.271 244.516 294.271C244.516 294.271 237.947 285.798 229.668 275.8C223.199 267.987 218.265 261.967 213.65 257.361C208.668 252.392 200.88 251.472 195.794 255.671C188.064 262.055 188.75 269.372 192.964 274.959C197.062 280.395 202.819 287.557 207.468 293.447C216.411 304.771 223.173 312.146 223.173 312.146Z" fill="#125E8A"/>
<path fill-rule="evenodd" clip-rule="evenodd" d="M168.795 198.597C168.795 198.597 171.614 211.653 177.732 213.094C183.271 214.4 185.894 207.567 185.894 207.567C185.894 207.567 187.339 201.992 187.258 195.568C187.205 191.359 188.299 183.342 186.134 182.79C183.313 182.071 183.532 190.45 181.593 191.306C177.666 193.038 175.929 179.892 174.501 177.911C171.711 174.039 165.293 182.963 168.795 198.597Z" fill="#C99382"/>
<path d="M172.353 178.178C172.581 178.186 172.759 178.376 172.751 178.603C172.659 181.381 173.192 184.314 174.138 187.199C174.444 188.133 174.772 188.993 175.099 189.758L175.264 190.136L175.516 190.678C175.522 190.689 175.527 190.699 175.531 190.707C175.633 190.91 175.552 191.157 175.348 191.259C175.145 191.362 174.898 191.28 174.795 191.077L174.668 190.813L174.512 190.472C174.457 190.35 174.4 190.22 174.341 190.082C174.005 189.295 173.668 188.413 173.355 187.455C172.381 184.486 171.832 181.462 171.928 178.576C171.935 178.349 172.126 178.171 172.353 178.178Z" fill="#9B6160"/>
<path d="M169.853 180.342C170.08 180.36 170.249 180.557 170.232 180.784L170.223 180.956C170.184 181.921 170.242 183.279 170.476 184.962C170.829 187.494 171.514 190.218 172.611 193.067C172.693 193.279 172.587 193.517 172.375 193.599C172.162 193.681 171.924 193.575 171.842 193.363C170.722 190.453 170.021 187.668 169.66 185.075C169.435 183.457 169.368 182.124 169.393 181.131L169.405 180.799C169.407 180.765 169.409 180.739 169.41 180.721C169.428 180.494 169.626 180.325 169.853 180.342Z" fill="#9B6160"/>
<path d="M168.073 186.494C168.299 186.469 168.504 186.631 168.529 186.856C168.743 188.728 169.035 190.424 169.384 191.945C169.656 193.129 169.946 194.139 170.236 194.976L170.353 195.305C170.391 195.408 170.427 195.504 170.462 195.593L170.601 195.931C170.606 195.941 170.61 195.95 170.613 195.957C170.709 196.164 170.619 196.408 170.412 196.504C170.206 196.599 169.961 196.509 169.865 196.303L169.78 196.105L169.749 196.03C169.661 195.811 169.563 195.55 169.457 195.245C169.158 194.38 168.859 193.342 168.581 192.129C168.225 190.578 167.928 188.852 167.711 186.95C167.685 186.724 167.847 186.52 168.073 186.494Z" fill="#9B6160"/>
<path fill-rule="evenodd" clip-rule="evenodd" d="M214.449 258.252C214.449 258.252 219.632 273.141 207.314 277.874C194.611 282.754 188.976 268.7 188.976 268.7C188.976 268.7 185.256 258.714 180.616 246.426C177.784 238.923 174.823 230.576 173.543 224.209C172.157 217.315 175.519 215.285 181.678 212.919C188.991 210.109 192.301 209.691 195.714 215.802C198.968 221.628 202.296 229.977 205.17 236.332C210.645 248.446 214.449 258.252 214.449 258.252Z" fill="#125E8A"/>
<path fill-rule="evenodd" clip-rule="evenodd" d="M172.87 210.787L187.113 205.315L191.84 214.531L175.547 220.792L172.87 210.787Z" fill="#125E8A"/>
<path fill-rule="evenodd" clip-rule="evenodd" d="M295.112 312.146C295.112 312.146 285.513 324.145 274.654 315.178C263.581 306.034 273.769 294.271 273.769 294.271C273.769 294.271 280.337 285.798 288.616 275.8C295.085 267.987 300.019 261.967 304.635 257.361C309.617 252.392 317.405 251.472 322.491 255.671C330.221 262.055 329.535 269.372 325.321 274.959C321.223 280.395 315.466 287.557 310.817 293.447C301.874 304.771 295.112 312.146 295.112 312.146Z" fill="#125E8A"/>
<path fill-rule="evenodd" clip-rule="evenodd" d="M349.489 198.597C349.489 198.597 346.67 211.653 340.553 213.094C335.013 214.4 332.389 207.567 332.389 207.567C332.389 207.567 330.945 201.992 331.025 195.568C331.079 191.359 329.985 183.342 332.15 182.79C334.972 182.071 334.752 190.45 336.691 191.306C340.619 193.038 342.355 179.892 343.784 177.911C346.573 174.039 352.991 182.963 349.489 198.597Z" fill="#C99382"/>
<path d="M345.932 178.178C346.159 178.171 346.35 178.349 346.357 178.576C346.453 181.462 345.904 184.486 344.93 187.455C344.617 188.413 344.28 189.295 343.944 190.082L343.773 190.472L343.617 190.813C343.557 190.941 343.514 191.03 343.49 191.077C343.388 191.28 343.14 191.362 342.937 191.259C342.733 191.157 342.652 190.91 342.754 190.707L342.839 190.532L342.871 190.464C342.966 190.262 343.072 190.026 343.186 189.758C343.514 188.993 343.841 188.133 344.147 187.199C345.093 184.314 345.626 181.381 345.534 178.603C345.526 178.376 345.705 178.186 345.932 178.178Z" fill="#9B6160"/>
<path d="M348.432 180.342C348.659 180.325 348.857 180.494 348.874 180.721L348.885 180.923C348.926 181.935 348.865 183.342 348.624 185.075C348.263 187.668 347.563 190.453 346.442 193.363C346.36 193.575 346.122 193.681 345.91 193.599C345.697 193.517 345.591 193.279 345.673 193.067C346.77 190.218 347.456 187.494 347.808 184.962C348.027 183.391 348.092 182.103 348.068 181.154L348.062 180.956C348.058 180.869 348.055 180.811 348.053 180.784C348.035 180.557 348.205 180.36 348.432 180.342Z" fill="#9B6160"/>
<path d="M350.211 186.494C350.437 186.52 350.599 186.724 350.573 186.95C350.356 188.852 350.059 190.578 349.703 192.129C349.456 193.207 349.193 194.147 348.927 194.95L348.827 195.245C348.743 195.489 348.663 195.705 348.589 195.894L348.477 196.17C348.452 196.23 348.432 196.274 348.419 196.303C348.323 196.51 348.078 196.599 347.872 196.504C347.665 196.408 347.575 196.164 347.671 195.957L347.743 195.789L347.771 195.722C347.854 195.516 347.947 195.268 348.048 194.976C348.338 194.139 348.629 193.129 348.9 191.945C349.249 190.424 349.541 188.728 349.755 186.856C349.778 186.653 349.946 186.502 350.144 186.492L350.211 186.494Z" fill="#9B6160"/>
<path fill-rule="evenodd" clip-rule="evenodd" d="M303.836 258.252C303.836 258.252 298.653 273.141 310.971 277.874C323.674 282.754 329.309 268.7 329.309 268.7C329.309 268.7 333.029 258.714 337.669 246.426C340.501 238.923 343.462 230.576 344.742 224.209C346.128 217.315 342.766 215.285 336.608 212.919C329.294 210.109 325.984 209.691 322.571 215.802C319.317 221.628 315.989 229.977 313.115 236.332C307.64 248.446 303.836 258.252 303.836 258.252Z" fill="#125E8A"/>
<path fill-rule="evenodd" clip-rule="evenodd" d="M345.414 210.787L331.172 205.315L326.444 214.531L342.737 220.792L345.414 210.787Z" fill="#125E8A"/>
<path d="M282.831 364.24C283.064 364.24 283.253 364.428 283.253 364.661C283.253 364.87 283.1 365.043 282.9 365.076L282.831 365.082H227.9C227.667 365.082 227.479 364.893 227.479 364.661C227.479 364.452 227.631 364.278 227.832 364.246L227.9 364.24H282.831Z" fill="#253368"/>
<path d="M282.831 371.92C283.064 371.92 283.253 372.109 283.253 372.341C283.253 372.55 283.1 372.724 282.9 372.756L282.831 372.762H226.801C226.569 372.762 226.38 372.573 226.38 372.341C226.38 372.132 226.533 371.958 226.733 371.926L226.801 371.92H282.831Z" fill="#253368"/>
<path d="M115.053 255.782C115.053 256.088 115.293 256.336 115.589 256.336C115.885 256.336 116.125 256.088 116.125 255.782V248.394C116.125 248.088 115.885 247.84 115.589 247.84C115.293 247.84 115.053 248.088 115.053 248.394V255.782Z" fill="#597EF7"/>
<path d="M109.401 257.58C109.507 257.759 109.699 257.859 109.896 257.859C109.993 257.859 110.091 257.835 110.18 257.784C110.453 257.63 110.547 257.289 110.389 257.022L106.586 250.58C106.429 250.313 106.08 250.222 105.807 250.376C105.534 250.53 105.44 250.871 105.598 251.138L109.401 257.58Z" fill="#597EF7"/>
<path d="M105.668 262.02C105.572 262.02 105.475 261.995 105.385 261.944L98.8355 258.203C98.5641 258.048 98.4712 257.705 98.6278 257.437C98.7844 257.169 99.1313 257.077 99.4027 257.232L105.953 260.972C106.224 261.127 106.317 261.47 106.16 261.739C106.055 261.919 105.864 262.02 105.668 262.02Z" fill="#597EF7"/>
<path d="M96.6131 267.586H104.124C104.435 267.586 104.688 267.35 104.688 267.059C104.688 266.767 104.435 266.531 104.124 266.531H96.6131C96.302 266.531 96.0498 266.767 96.0498 267.059C96.0498 267.35 96.302 267.586 96.6131 267.586Z" fill="#597EF7"/>
<path d="M99.1196 276.844C98.9236 276.844 98.7329 276.743 98.6278 276.563C98.4712 276.295 98.5642 275.951 98.8354 275.797L105.385 272.056C105.657 271.901 106.004 271.993 106.16 272.261C106.317 272.53 106.224 272.873 105.953 273.028L99.4027 276.768C99.3134 276.819 99.2158 276.844 99.1196 276.844Z" fill="#597EF7"/>
<path d="M105.807 283.624C105.897 283.675 105.995 283.699 106.092 283.699C106.289 283.699 106.48 283.599 106.586 283.42L110.389 276.978C110.547 276.711 110.453 276.37 110.181 276.215C109.907 276.061 109.559 276.153 109.401 276.42L105.598 282.862C105.44 283.129 105.534 283.47 105.807 283.624Z" fill="#597EF7"/>
<path d="M115.589 286.16C115.293 286.16 115.053 285.912 115.053 285.606V278.218C115.053 277.912 115.293 277.664 115.589 277.664C115.885 277.664 116.125 277.912 116.125 278.218V285.606C116.125 285.912 115.885 286.16 115.589 286.16Z" fill="#597EF7"/>
<path d="M124.472 283.42C124.578 283.599 124.77 283.699 124.967 283.699C125.064 283.699 125.162 283.675 125.252 283.624C125.525 283.47 125.618 283.129 125.461 282.862L121.657 276.42C121.5 276.153 121.151 276.061 120.878 276.215C120.605 276.37 120.512 276.711 120.669 276.978L124.472 283.42Z" fill="#597EF7"/>
<path d="M131.939 276.844C131.843 276.844 131.745 276.819 131.656 276.768L125.106 273.028C124.835 272.873 124.742 272.53 124.898 272.261C125.055 271.993 125.402 271.901 125.673 272.056L132.223 275.797C132.494 275.952 132.587 276.295 132.431 276.563C132.326 276.743 132.135 276.844 131.939 276.844Z" fill="#597EF7"/>
<path d="M126.934 267.586H134.445C134.757 267.586 135.009 267.35 135.009 267.059C135.009 266.767 134.757 266.531 134.445 266.531H126.934C126.623 266.531 126.371 266.767 126.371 267.059C126.371 267.35 126.623 267.586 126.934 267.586Z" fill="#597EF7"/>
<path d="M125.39 262.02C125.194 262.02 125.003 261.919 124.898 261.739C124.742 261.47 124.835 261.127 125.106 260.972L131.656 257.232C131.927 257.077 132.274 257.169 132.431 257.437C132.587 257.705 132.494 258.048 132.223 258.203L125.673 261.944C125.584 261.995 125.486 262.02 125.39 262.02Z" fill="#597EF7"/>
<path d="M120.878 257.784C120.968 257.835 121.066 257.859 121.163 257.859C121.36 257.859 121.552 257.759 121.657 257.58L125.461 251.138C125.618 250.871 125.525 250.53 125.252 250.376C124.979 250.221 124.63 250.313 124.473 250.58L120.669 257.022C120.512 257.289 120.605 257.63 120.878 257.784Z" fill="#597EF7"/>
<path d="M278.053 142.095C278.053 142.406 278.293 142.658 278.589 142.658C278.885 142.658 279.125 142.406 279.125 142.095V134.584C279.125 134.273 278.885 134.021 278.589 134.021C278.293 134.021 278.053 134.273 278.053 134.584V142.095Z" fill="#597EF7"/>
<path d="M272.401 143.923C272.507 144.105 272.699 144.207 272.896 144.207C272.993 144.207 273.091 144.182 273.18 144.131C273.453 143.974 273.547 143.627 273.389 143.356L269.586 136.806C269.429 136.535 269.08 136.442 268.807 136.599C268.534 136.755 268.44 137.102 268.598 137.373L272.401 143.923Z" fill="#597EF7"/>
<path d="M268.668 148.437C268.572 148.437 268.475 148.412 268.385 148.36L261.835 144.557C261.564 144.399 261.471 144.05 261.628 143.778C261.784 143.505 262.131 143.411 262.403 143.569L268.953 147.372C269.224 147.529 269.317 147.878 269.16 148.151C269.055 148.334 268.864 148.437 268.668 148.437Z" fill="#597EF7"/>
<path d="M259.613 154.096H267.124C267.435 154.096 267.688 153.856 267.688 153.56C267.688 153.263 267.435 153.023 267.124 153.023H259.613C259.302 153.023 259.05 153.263 259.05 153.56C259.05 153.856 259.302 154.096 259.613 154.096Z" fill="#597EF7"/>
<path d="M262.12 163.508C261.924 163.508 261.733 163.406 261.628 163.222C261.471 162.95 261.564 162.601 261.835 162.443L268.385 158.64C268.657 158.482 269.004 158.576 269.16 158.849C269.317 159.122 269.224 159.471 268.953 159.628L262.403 163.431C262.313 163.483 262.216 163.508 262.12 163.508Z" fill="#597EF7"/>
<path d="M268.807 170.401C268.897 170.453 268.995 170.478 269.092 170.478C269.289 170.478 269.48 170.376 269.586 170.194L273.389 163.644C273.547 163.373 273.453 163.026 273.181 162.869C272.907 162.712 272.559 162.805 272.401 163.077L268.598 169.627C268.44 169.898 268.534 170.245 268.807 170.401Z" fill="#597EF7"/>
<path d="M278.589 172.979C278.293 172.979 278.053 172.727 278.053 172.416V164.905C278.053 164.594 278.293 164.342 278.589 164.342C278.885 164.342 279.125 164.594 279.125 164.905V172.416C279.125 172.727 278.885 172.979 278.589 172.979Z" fill="#597EF7"/>
<path d="M287.472 170.194C287.578 170.376 287.77 170.478 287.967 170.478C288.064 170.478 288.162 170.453 288.252 170.401C288.525 170.245 288.618 169.898 288.461 169.627L284.657 163.077C284.5 162.805 284.151 162.712 283.878 162.869C283.605 163.026 283.512 163.373 283.669 163.644L287.472 170.194Z" fill="#597EF7"/>
<path d="M294.939 163.508C294.843 163.508 294.745 163.483 294.656 163.431L288.106 159.628C287.835 159.471 287.742 159.122 287.898 158.849C288.055 158.576 288.402 158.482 288.673 158.64L295.223 162.443C295.494 162.601 295.587 162.95 295.431 163.222C295.326 163.405 295.135 163.508 294.939 163.508Z" fill="#597EF7"/>
<path d="M289.934 154.096H297.445C297.757 154.096 298.009 153.856 298.009 153.56C298.009 153.263 297.757 153.023 297.445 153.023H289.934C289.623 153.023 289.371 153.263 289.371 153.56C289.371 153.856 289.623 154.096 289.934 154.096Z" fill="#597EF7"/>
<path d="M288.39 148.437C288.194 148.437 288.003 148.334 287.898 148.151C287.742 147.878 287.835 147.529 288.106 147.372L294.656 143.569C294.927 143.411 295.274 143.505 295.431 143.777C295.587 144.05 295.494 144.399 295.223 144.557L288.673 148.36C288.584 148.412 288.486 148.437 288.39 148.437Z" fill="#597EF7"/>
<path d="M283.878 144.131C283.968 144.182 284.066 144.207 284.163 144.207C284.36 144.207 284.552 144.105 284.657 143.923L288.461 137.373C288.618 137.102 288.525 136.755 288.252 136.599C287.979 136.442 287.63 136.535 287.473 136.806L283.669 143.356C283.512 143.627 283.605 143.974 283.878 144.131Z" fill="#597EF7"/>
<path d="M400.545 290.095C400.545 290.406 400.789 290.658 401.09 290.658C401.391 290.658 401.635 290.406 401.635 290.095V282.584C401.635 282.273 401.391 282.021 401.09 282.021C400.789 282.021 400.545 282.273 400.545 282.584V290.095Z" fill="#597EF7"/>
<path d="M394.801 291.923C394.908 292.105 395.103 292.207 395.303 292.207C395.402 292.207 395.501 292.182 395.593 292.131C395.87 291.974 395.965 291.627 395.805 291.356L391.939 284.806C391.779 284.535 391.425 284.442 391.147 284.599C390.87 284.755 390.775 285.102 390.935 285.373L394.801 291.923Z" fill="#597EF7"/>
<path d="M391.007 296.437C390.909 296.437 390.81 296.412 390.719 296.36L384.062 292.557C383.786 292.399 383.692 292.05 383.851 291.778C384.01 291.505 384.362 291.411 384.638 291.569L391.296 295.372C391.571 295.529 391.666 295.878 391.507 296.151C391.4 296.334 391.206 296.437 391.007 296.437Z" fill="#597EF7"/>
<path d="M381.803 302.096H389.437C389.753 302.096 390.01 301.856 390.01 301.56C390.01 301.263 389.753 301.023 389.437 301.023H381.803C381.487 301.023 381.23 301.263 381.23 301.56C381.23 301.856 381.487 302.096 381.803 302.096Z" fill="#597EF7"/>
<path d="M384.351 311.508C384.151 311.508 383.958 311.406 383.851 311.222C383.692 310.95 383.786 310.601 384.062 310.443L390.719 306.64C390.995 306.482 391.347 306.576 391.507 306.849C391.666 307.122 391.571 307.471 391.296 307.628L384.638 311.431C384.548 311.483 384.448 311.508 384.351 311.508Z" fill="#597EF7"/>
<path d="M391.147 318.401C391.239 318.453 391.338 318.478 391.437 318.478C391.637 318.478 391.832 318.376 391.939 318.194L395.805 311.644C395.965 311.373 395.87 311.026 395.593 310.869C395.315 310.712 394.961 310.805 394.801 311.077L390.935 317.627C390.775 317.898 390.87 318.245 391.147 318.401Z" fill="#597EF7"/>
<path d="M401.09 320.979C400.789 320.979 400.545 320.727 400.545 320.416V312.905C400.545 312.594 400.789 312.342 401.09 312.342C401.391 312.342 401.635 312.594 401.635 312.905V320.416C401.635 320.727 401.391 320.979 401.09 320.979Z" fill="#597EF7"/>
<path d="M410.119 318.194C410.226 318.376 410.421 318.478 410.622 318.478C410.72 318.478 410.82 318.453 410.911 318.401C411.188 318.245 411.284 317.898 411.123 317.627L407.258 311.077C407.098 310.805 406.743 310.712 406.466 310.869C406.188 311.026 406.093 311.373 406.254 311.644L410.119 318.194Z" fill="#597EF7"/>
<path d="M417.708 311.508C417.61 311.508 417.511 311.483 417.42 311.431L410.763 307.628C410.487 307.471 410.393 307.122 410.552 306.849C410.711 306.576 411.064 306.482 411.339 306.64L417.997 310.443C418.273 310.601 418.367 310.95 418.208 311.222C418.101 311.405 417.907 311.508 417.708 311.508Z" fill="#597EF7"/>
<path d="M412.621 302.096H420.256C420.572 302.096 420.828 301.856 420.828 301.56C420.828 301.263 420.572 301.023 420.256 301.023H412.621C412.305 301.023 412.049 301.263 412.049 301.56C412.049 301.856 412.305 302.096 412.621 302.096Z" fill="#597EF7"/>
<path d="M411.052 296.437C410.853 296.437 410.659 296.334 410.552 296.151C410.393 295.878 410.487 295.529 410.763 295.372L417.42 291.569C417.696 291.411 418.049 291.505 418.208 291.777C418.367 292.05 418.273 292.399 417.997 292.557L411.339 296.36C411.249 296.412 411.15 296.437 411.052 296.437Z" fill="#597EF7"/>
<path d="M406.466 292.131C406.557 292.182 406.657 292.207 406.755 292.207C406.956 292.207 407.15 292.105 407.258 291.923L411.123 285.373C411.284 285.102 411.188 284.755 410.911 284.599C410.634 284.442 410.279 284.535 410.119 284.806L406.254 291.356C406.093 291.627 406.188 291.974 406.466 292.131Z" fill="#597EF7"/>
<path fill-rule="evenodd" clip-rule="evenodd" d="M71.7314 610.347C69.5289 610.347 67.7934 608.476 67.9648 606.286L82.3029 423.041H96.0426L75.8025 606.99C75.5919 608.901 73.974 610.347 72.0468 610.347" fill="#FFC53D"/>
<path fill-rule="evenodd" clip-rule="evenodd" d="M388.281 610.347C390.483 610.347 392.219 608.476 392.047 606.286L377.709 423.041H363.97L384.21 606.99C384.42 608.901 386.038 610.347 387.965 610.347" fill="#FFC53D"/>
<path fill-rule="evenodd" clip-rule="evenodd" d="M385.835 423.041H74.1763C73.0448 423.041 71.986 422.485 71.3457 421.556C69.7788 419.283 71.4104 416.188 74.1763 416.188H385.835C388.601 416.188 390.233 419.283 388.666 421.556C388.025 422.485 386.967 423.041 385.835 423.041Z" fill="#FFC53D"/>
<path fill-rule="evenodd" clip-rule="evenodd" d="M378.167 427.61H81.8447L82.3023 423.042H377.709L378.167 427.61Z" fill="#D48806"/>
<path fill-rule="evenodd" clip-rule="evenodd" d="M161.41 410.372H180.62V395.279H161.41V410.372Z" fill="#597EF7"/>
<path fill-rule="evenodd" clip-rule="evenodd" d="M192.259 415.541H150.41C148.704 415.541 147.322 414.158 147.322 412.453C147.322 410.748 148.704 409.366 150.41 409.366H192.259C193.964 409.366 195.346 410.748 195.346 412.453C195.346 414.158 193.964 415.541 192.259 415.541Z" fill="#597EF7"/>
<path fill-rule="evenodd" clip-rule="evenodd" d="M235.555 396.259H105.556C102.364 396.259 99.7773 393.672 99.7773 390.48V311.249C99.7773 308.058 102.364 305.471 105.556 305.471H235.555C238.746 305.471 241.333 308.058 241.333 311.249V390.48C241.333 393.672 238.746 396.259 235.555 396.259Z" fill="#253368"/>
<path d="M353.412 347.555C353.412 337.026 344.747 328.402 334.059 328.402C323.37 328.402 314.705 337.026 314.705 347.555C314.705 351.721 316.951 357.104 320.557 361.072C324.132 365.004 325.151 371.624 325.151 376.902V378.972H342.967V376.92C342.967 371.641 343.985 365.034 347.543 361.089C351.161 357.08 353.412 351.22 353.412 347.555Z" fill="#FFE58F"/>
<path d="M350.227 347.503C350.227 338.709 342.99 331.504 334.059 331.504C325.127 331.504 317.893 338.708 317.893 347.503C317.893 350.987 319.768 355.481 322.781 358.796C325.767 362.081 327.985 367.611 327.985 372.02V373.747H340.133V372.035C340.133 367.625 342.351 362.105 345.323 358.81C348.346 355.461 350.227 350.566 350.227 347.504V347.503Z" fill="#FAAD14"/>
<path d="M338.971 388.629H329.147C328.804 388.629 328.491 388.41 328.304 388.048L326.968 384.642H341.152L339.816 388.048C339.629 388.41 339.316 388.629 338.973 388.629H338.971Z" fill="#253368"/>
<path d="M341.357 371.098H326.761C325.677 371.098 324.798 371.965 324.798 373.033V384.174C324.798 385.242 325.677 386.108 326.761 386.108H341.357C342.441 386.108 343.32 385.242 343.32 384.174V373.033C343.32 371.965 342.441 371.098 341.357 371.098Z" fill="#597EF7"/>
<path d="M335.256 375.12C335.437 375.12 335.583 375.265 335.583 375.443C335.583 375.616 335.445 375.757 335.271 375.765L335.256 375.765H324.821C324.641 375.765 324.494 375.621 324.494 375.443C324.494 375.269 324.633 375.128 324.807 375.121L324.821 375.12H335.256Z" fill="white"/>
<path d="M335.256 381.793C335.437 381.793 335.583 381.938 335.583 382.116C335.583 382.289 335.445 382.43 335.271 382.438L335.256 382.438H324.821C324.641 382.438 324.494 382.294 324.494 382.116C324.494 381.942 324.633 381.801 324.807 381.794L324.821 381.793H335.256Z" fill="white"/>
<path d="M343.26 378.457C343.441 378.457 343.587 378.601 343.587 378.779C343.587 378.952 343.449 379.094 343.274 379.101L343.26 379.101H332.825C332.645 379.101 332.498 378.957 332.498 378.779C332.498 378.606 332.637 378.464 332.811 378.457L332.825 378.457H343.26Z" fill="white"/>
<path d="M335.379 339.857L328.084 350.806C327.691 351.4 328.114 352.13 328.821 352.13H332.089L328.071 359.608C327.771 360.213 328.544 360.774 329.017 360.295L339.945 349.479C340.502 348.916 340.106 347.954 339.317 347.954H334.376L336.443 340.335C336.605 339.684 335.747 339.303 335.379 339.857Z" fill="white"/>
<path fill-rule="evenodd" clip-rule="evenodd" d="M424.89 542.324C424.89 542.324 422.83 525.839 445.084 518.421C467.337 511.003 472.283 514.918 472.283 514.918L470.222 521.512C470.222 521.512 466.719 537.997 450.647 540.263C434.575 542.53 428.393 539.233 424.89 542.324Z" fill="#7CB305"/>
<path d="M469.897 515.696L470.548 516.201L470.494 516.269C470.47 516.298 470.441 516.333 470.406 516.375L470.303 516.496C470.231 516.581 470.151 516.672 470.064 516.77L469.997 516.844C469.545 517.346 468.999 517.904 468.359 518.504C466.533 520.213 464.311 521.921 461.681 523.514C456.399 526.714 450.163 529.04 442.938 530.123L442.67 530.162C437.807 530.868 433.932 532.483 430.93 534.731C429.49 535.81 428.347 536.963 427.471 538.114C427.166 538.515 426.917 538.886 426.719 539.217L426.655 539.327C426.624 539.38 426.597 539.429 426.572 539.475L426.503 539.607L426.499 539.615L425.754 539.262L425.777 539.216C425.824 539.122 425.901 538.979 426.011 538.795C426.225 538.437 426.491 538.041 426.815 537.615C427.736 536.405 428.933 535.197 430.436 534.071C433.503 531.775 437.438 530.12 442.338 529.378L442.552 529.346C449.778 528.297 455.999 525.993 461.254 522.809C463.833 521.247 466.01 519.574 467.796 517.902C468.377 517.357 468.877 516.849 469.297 516.39L469.385 516.293C469.516 516.148 469.629 516.018 469.726 515.903L469.835 515.772L469.897 515.696Z" fill="#7CB305"/>
<path fill-rule="evenodd" clip-rule="evenodd" d="M469.604 553.451H472.282V514.918H469.604L470.325 526.758C470.531 530.127 470.553 533.504 470.393 536.876L469.604 553.451Z" fill="#7CB305"/>
<path fill-rule="evenodd" clip-rule="evenodd" d="M428.348 485.906C428.348 485.906 436.55 473.433 456.09 481.336C475.631 489.239 476.61 495.549 476.61 495.549L471.476 498.106C471.476 498.106 459.47 507.335 447.16 499.514C434.849 491.693 432.545 485.835 428.348 485.906Z" fill="#7CB305"/>
<path fill-rule="evenodd" clip-rule="evenodd" d="M473.932 564.166H475.992L476.8 496.146C476.809 495.307 476.257 494.565 475.45 494.335L473.932 493.901C473.932 493.901 474.449 500.221 474.344 508.118C474.243 515.673 473.52 524.663 473.52 531.321C473.52 550.154 473.932 564.166 473.932 564.166Z" fill="#7CB305"/>
<path fill-rule="evenodd" clip-rule="evenodd" d="M456.211 485.453C465.103 492.354 474.137 496.786 474.137 496.786L471.476 498.106C471.476 498.106 459.47 507.335 447.16 499.514C434.849 491.693 432.545 485.835 428.348 485.906C428.348 485.906 442.405 474.738 456.211 485.453Z" fill="#5B8C00"/>
<path fill-rule="evenodd" clip-rule="evenodd" d="M524.776 515.407C524.776 515.407 519.243 507.036 506.062 512.34C492.88 517.644 492.22 521.88 492.22 521.88L495.683 523.595C495.683 523.595 503.782 529.79 512.086 524.54C520.391 519.291 521.945 515.359 524.776 515.407Z" fill="#7CB305"/>
<path fill-rule="evenodd" clip-rule="evenodd" d="M493.995 568.274H492.572L492.014 522.396C492.007 521.83 492.389 521.33 492.946 521.174L493.995 520.882C493.995 520.882 493.638 525.145 493.711 530.471C493.78 535.567 494.28 541.631 494.28 546.122C494.28 558.824 493.995 568.274 493.995 568.274Z" fill="#7CB305"/>
<path fill-rule="evenodd" clip-rule="evenodd" d="M526.315 470.039C526.315 470.039 518.113 457.567 498.572 465.47C479.032 473.373 478.053 479.683 478.053 479.683L483.187 482.24C483.187 482.24 495.192 491.468 507.503 483.648C519.814 475.827 522.118 469.968 526.315 470.039Z" fill="#7CB305"/>
<path fill-rule="evenodd" clip-rule="evenodd" d="M480.731 550.978H478.671L477.863 480.28C477.854 479.441 478.406 478.699 479.213 478.468L480.731 478.035C480.731 478.035 480.214 484.355 480.319 492.252C480.42 499.807 481.143 508.797 481.143 515.455C481.143 534.288 480.731 550.978 480.731 550.978Z" fill="#7CB305"/>
<path fill-rule="evenodd" clip-rule="evenodd" d="M526.315 470.04C526.315 470.04 512.258 458.872 498.452 469.586C489.56 476.488 480.525 480.919 480.525 480.919L483.187 482.24C483.187 482.24 495.192 491.468 507.503 483.648C519.814 475.827 522.118 469.968 526.315 470.04Z" fill="#5B8C00"/>
<path fill-rule="evenodd" clip-rule="evenodd" d="M484.44 550.36H487.943L489.329 506.569L486.69 465.238C486.7 464.399 486.147 463.657 485.341 463.426L483.822 462.993C483.822 462.993 487.119 495.816 487.119 502.474C487.119 521.306 484.44 550.36 484.44 550.36Z" fill="#7CB305"/>
<path fill-rule="evenodd" clip-rule="evenodd" d="M445.021 439.867C445.021 439.867 452.502 428.788 470.222 439.915C488.073 451.123 486.834 465.827 486.834 465.827L481.129 466.421C481.129 466.421 466.649 470.852 457.864 459.21C449.079 447.567 448.976 441.273 445.021 439.867Z" fill="#7CB305"/>
<path fill-rule="evenodd" clip-rule="evenodd" d="M445.021 439.867C445.021 439.867 453.074 433.931 459.92 442.387C463.423 446.714 469.62 449.977 472.283 452.484C479.201 458.997 484.085 466.117 484.085 466.117L481.129 466.42C481.129 466.42 466.649 470.851 457.864 459.209C449.079 447.567 448.976 441.273 445.021 439.867Z" fill="#5B8C00"/>
<path fill-rule="evenodd" clip-rule="evenodd" d="M503.965 608.055H456.16C453.429 608.055 451.215 605.841 451.215 603.11V555.305C451.215 552.574 453.429 550.36 456.16 550.36H503.965C506.696 550.36 508.91 552.574 508.91 555.305V603.11C508.91 605.841 506.696 608.055 503.965 608.055Z" fill="#253368"/>
<path d="M397.63 141.795H377.51C376.821 141.795 376.263 142.353 376.263 143.042V146.128C376.263 146.817 376.821 147.375 377.51 147.375H397.63C398.319 147.375 398.877 146.817 398.877 146.128V143.042C398.877 142.353 398.319 141.795 397.63 141.795Z" fill="#597EF7"/>
<path d="M397.649 152.417H377.491C376.813 152.417 376.263 152.967 376.263 153.645V156.599C376.263 157.278 376.813 157.828 377.491 157.828H397.649C398.327 157.828 398.877 157.278 398.877 156.599V153.645C398.877 152.967 398.327 152.417 397.649 152.417Z" fill="#ADC6FF"/>
<path d="M397.649 163.038H377.491C376.813 163.038 376.263 163.588 376.263 164.267V167.221C376.263 167.9 376.813 168.45 377.491 168.45H397.649C398.327 168.45 398.877 167.9 398.877 167.221V164.267C398.877 163.588 398.327 163.038 397.649 163.038Z" fill="#FF7946"/>
<path d="M397.649 173.66H377.491C376.813 173.66 376.263 174.21 376.263 174.888V177.843C376.263 178.521 376.813 179.071 377.491 179.071H397.649C398.327 179.071 398.877 178.521 398.877 177.843V174.888C398.877 174.21 398.327 173.66 397.649 173.66Z" fill="#ADC6FF"/>
<path d="M534.988 70.7112H358.071C355.032 70.7112 352.568 73.1746 352.568 76.2134V203.262C352.568 206.301 355.032 208.765 358.071 208.765H534.988C538.027 208.765 540.49 206.301 540.49 203.262V76.2134C540.49 73.1746 538.027 70.7112 534.988 70.7112Z" fill="#E4EBF7"/>
<path d="M522.875 95.2227H415.939C414.784 95.2227 413.848 96.1591 413.848 97.3143V194.445C413.848 195.601 414.784 196.537 415.939 196.537H522.875C524.03 196.537 524.967 195.601 524.967 194.445V97.3143C524.967 96.1591 524.03 95.2227 522.875 95.2227Z" fill="#597EF7"/>
<path d="M506.174 126.271H427.737V131.173H506.174V126.271Z" fill="white"/>
<path d="M466.956 143.429H427.737V148.331H466.956V143.429Z" fill="#FAAD14"/>
<path d="M500.455 109.113H461.236V114.015H500.455V109.113Z" fill="#FAAD14"/>
<path d="M499.638 176.928H427.737V181.83H499.638V176.928Z" fill="white"/>
<path d="M451.432 109.113H427.737V114.015H451.432V109.113Z" fill="white"/>
<path d="M486.565 143.429H475.126V148.331H486.565V143.429Z" fill="#E4EBF7"/>
<path d="M485.748 159.77H427.737V164.672H485.748V159.77Z" fill="#E4EBF7"/>
<path d="M357.602 64.1748H535.362C538.142 64.1748 540.396 66.3816 540.396 69.1038V83.7923H352.568V69.1038C352.568 66.3816 354.822 64.1748 357.602 64.1748Z" fill="#253368"/>
<path d="M363.515 77.7473C365.499 77.7473 367.107 76.1722 367.107 74.2293C367.107 72.2863 365.499 70.7112 363.515 70.7112C361.53 70.7112 359.922 72.2863 359.922 74.2293C359.922 76.1722 361.53 77.7473 363.515 77.7473Z" fill="#FF7946"/>
<path d="M377.404 77.7473C379.388 77.7473 380.997 76.1722 380.997 74.2293C380.997 72.2863 379.388 70.7112 377.404 70.7112C375.42 70.7112 373.812 72.2863 373.812 74.2293C373.812 76.1722 375.42 77.7473 377.404 77.7473Z" fill="#FAAD14"/>
<path d="M390.478 77.7473C392.462 77.7473 394.07 76.1722 394.07 74.2293C394.07 72.2863 392.462 70.7112 390.478 70.7112C388.493 70.7112 386.885 72.2863 386.885 74.2293C386.885 76.1722 388.493 77.7473 390.478 77.7473Z" fill="#7CB305"/>
<path d="M405.932 93.5886H369.472C368.259 93.5886 367.275 94.5719 367.275 95.7849V194.341C367.275 195.554 368.259 196.537 369.472 196.537H405.932C407.145 196.537 408.128 195.554 408.128 194.341V95.7849C408.128 94.5719 407.145 93.5886 405.932 93.5886Z" fill="white"/>
<path d="M397.63 141.795H377.51C376.821 141.795 376.263 142.353 376.263 143.042V146.128C376.263 146.817 376.821 147.375 377.51 147.375H397.63C398.319 147.375 398.877 146.817 398.877 146.128V143.042C398.877 142.353 398.319 141.795 397.63 141.795Z" fill="#597EF7"/>
<path d="M397.649 152.417H377.491C376.813 152.417 376.263 152.967 376.263 153.645V156.599C376.263 157.278 376.813 157.828 377.491 157.828H397.649C398.327 157.828 398.877 157.278 398.877 156.599V153.645C398.877 152.967 398.327 152.417 397.649 152.417Z" fill="#ADC6FF"/>
<path d="M397.649 163.038H377.491C376.813 163.038 376.263 163.588 376.263 164.267V167.221C376.263 167.9 376.813 168.45 377.491 168.45H397.649C398.327 168.45 398.877 167.9 398.877 167.221V164.267C398.877 163.588 398.327 163.038 397.649 163.038Z" fill="#FF7946"/>
<path d="M397.649 173.66H377.491C376.813 173.66 376.263 174.21 376.263 174.888V177.843C376.263 178.521 376.813 179.071 377.491 179.071H397.649C398.327 179.071 398.877 178.521 398.877 177.843V174.888C398.877 174.21 398.327 173.66 397.649 173.66Z" fill="#ADC6FF"/>
<path d="M387.288 127.132C392.867 127.132 397.39 122.557 397.39 116.915C397.39 111.272 392.867 106.698 387.288 106.698C381.709 106.698 377.187 111.272 377.187 116.915C377.187 122.557 381.709 127.132 387.288 127.132Z" fill="#FAAD14"/>
<path d="M387.288 127.132C390.2 127.133 392.963 125.832 394.836 123.578C393.36 120.744 390.454 118.97 387.287 118.97C384.12 118.97 381.213 120.744 379.737 123.578C381.612 125.833 384.376 127.134 387.288 127.132Z" fill="#253368"/>
<path d="M387.342 119.376C389.44 119.376 391.141 117.656 391.141 115.534C391.141 113.412 389.44 111.692 387.342 111.692C385.244 111.692 383.543 113.412 383.543 115.534C383.543 117.656 385.244 119.376 387.342 119.376Z" fill="#253368"/>
<g clip-path="url(#clip0)">
<path d="M487.63 260.119L481.403 257.509L465.166 296.25C464.794 297.138 465.212 298.159 466.099 298.531L469.112 299.794C470 300.166 471.021 299.748 471.393 298.86L487.63 260.119Z" fill="#FAAD14"/>
<path d="M485.839 252.052L488.238 253.058L487.629 260.123L481.402 257.514L485.839 252.052Z" fill="#FFF1B8"/>
<path d="M488.266 250.024L488.161 253.03L485.885 252.076L488.017 249.916C488.059 249.874 488.123 249.861 488.178 249.885C488.233 249.909 488.268 249.964 488.266 250.024Z" fill="#253368"/>
<path d="M444.056 283.714L440.651 282.287L439.376 285.329C438.982 286.269 439.425 287.351 440.366 287.745C441.306 288.139 442.388 287.696 442.782 286.756L444.057 283.714L444.056 283.714Z" fill="#253368"/>
<path d="M460.389 238.88C460.489 238.641 460.765 238.528 461.004 238.629C461.243 238.729 461.356 239.004 461.256 239.244L460.798 240.335C460.698 240.575 460.423 240.687 460.183 240.587C459.944 240.487 459.831 240.211 459.931 239.972L460.389 238.88Z" fill="#4E5C93"/>
<path d="M460.688 246.274L455.686 244.178L439.966 281.685C439.594 282.572 440.012 283.593 440.9 283.965L442.687 284.715C443.575 285.087 444.596 284.669 444.968 283.781L460.688 246.274Z" fill="#597EF7"/>
<path d="M459.661 239.895L455.683 244.176L460.687 246.274L461.03 240.473C461.038 240.35 460.966 240.235 460.852 240.188L459.989 239.826C459.877 239.777 459.745 239.805 459.661 239.895Z" fill="#E4EBF7"/>
<path d="M440.72 279.887L445.719 281.982L445.34 282.886L440.341 280.791L440.72 279.887Z" fill="white"/>
<path d="M441.825 273.128L443.294 273.743L440.781 279.739L439.312 279.123L441.825 273.128Z" fill="#253368"/>
<path d="M443.695 266.977C443.834 266.644 444.217 266.488 444.55 266.627C444.883 266.767 445.039 267.149 444.9 267.482L438.67 282.346C438.531 282.679 438.148 282.836 437.815 282.696C437.482 282.557 437.325 282.174 437.465 281.841L443.695 266.977Z" fill="#A3B5D6"/>
<path d="M472.223 247.833L474.248 248.681C474.522 248.796 474.837 248.667 474.952 248.394L476.027 245.827C476.126 245.59 476.045 245.317 475.832 245.174L473.976 243.924C473.843 243.834 473.676 243.808 473.522 243.854C473.367 243.9 473.242 244.012 473.179 244.161L471.935 247.129C471.821 247.403 471.949 247.718 472.223 247.833Z" fill="#FF7946"/>
<path d="M466.873 252.462L474.458 255.64L460.995 287.764L453.41 284.585L466.873 252.462Z" fill="#FF7946"/>
<path d="M462.843 283.352L455.258 280.173L450.979 290.383C450.607 291.271 451.025 292.292 451.912 292.664L456.283 294.495C457.171 294.867 458.192 294.449 458.564 293.562L462.843 283.352Z" fill="black"/>
<path d="M466.873 252.462L474.458 255.64L473.279 258.453L465.695 255.274L466.873 252.462Z" fill="#253368"/>
<path d="M467.593 250.744L466.873 252.461L474.457 255.64L475.183 253.91L475.281 247.933L472.025 246.568L467.593 250.744Z" fill="#E4EBF7"/>
<path d="M467.601 250.761L475.186 253.94L474.46 255.67L466.876 252.491L467.601 250.761Z" fill="#F5F5F5"/>
<path d="M454.103 282.966L461.688 286.145L460.962 287.875L453.378 284.696L454.103 282.966Z" fill="#F5F5F5"/>
<path d="M464.403 263.239C464.007 264.184 464.278 264.698 465.222 264.77C466.165 264.842 466.854 264.392 467.263 263.417L467.594 262.626C467.645 262.506 467.766 262.43 467.896 262.438L469.244 262.517C469.375 262.525 469.496 262.449 469.546 262.329L469.571 262.268C469.61 262.176 469.602 262.071 469.549 261.986C469.496 261.901 469.405 261.847 469.305 261.842L465.302 261.625C465.172 261.618 465.052 261.694 465.002 261.814L464.403 263.239ZM466.594 262.361C466.694 262.367 466.784 262.421 466.837 262.505C466.89 262.59 466.898 262.695 466.859 262.787L466.63 263.335C466.508 263.625 466.355 263.833 466.182 263.959C466.009 264.084 465.775 264.136 465.496 264.116C465.217 264.096 465.054 264.009 464.992 263.869C464.93 263.729 464.955 263.514 465.072 263.232L465.381 262.496C465.432 262.375 465.553 262.3 465.683 262.307L466.594 262.361Z" fill="white"/>
<path d="M462.804 268.081C462.939 268.095 463.066 268.019 463.119 267.894L463.863 266.118C463.916 265.996 464.04 265.922 464.172 265.933L464.803 265.987C464.901 265.995 464.989 266.049 465.04 266.133C465.091 266.216 465.099 266.32 465.061 266.41L464.513 267.719C464.475 267.809 464.482 267.911 464.532 267.995C464.582 268.079 464.668 268.134 464.765 268.144C464.9 268.158 465.028 268.082 465.08 267.957L465.782 266.283C465.834 266.161 465.958 266.086 466.09 266.097L466.839 266.154C466.937 266.162 467.025 266.217 467.076 266.3C467.127 266.384 467.135 266.487 467.098 266.577L466.439 268.149C466.401 268.239 466.409 268.341 466.458 268.425C466.508 268.509 466.595 268.564 466.692 268.573C466.826 268.587 466.954 268.511 467.006 268.386L468.019 265.971C468.056 265.88 468.048 265.777 467.997 265.693C467.946 265.609 467.857 265.555 467.759 265.547L463.801 265.226C463.669 265.215 463.545 265.29 463.493 265.412L462.554 267.652C462.515 267.742 462.521 267.845 462.57 267.93C462.62 268.015 462.706 268.071 462.804 268.081Z" fill="white"/>
<path d="M461.911 269.185C461.862 269.302 461.89 269.438 461.981 269.526L464.278 271.731L464.269 271.753L461.239 271.369C461.103 271.352 460.971 271.428 460.917 271.555L460.892 271.617C460.855 271.705 460.861 271.806 460.909 271.889C460.956 271.972 461.04 272.028 461.135 272.041L465.015 272.55C465.152 272.568 465.285 272.492 465.338 272.365L465.436 272.13C465.487 272.013 465.46 271.876 465.368 271.787L463.043 269.536L463.052 269.514L466.151 269.862C466.286 269.876 466.414 269.799 466.466 269.674L466.495 269.604C466.533 269.514 466.526 269.412 466.476 269.329C466.427 269.245 466.341 269.19 466.244 269.179L462.326 268.761C462.192 268.748 462.064 268.824 462.011 268.949L461.911 269.185Z" fill="white"/>
<path d="M471.238 262.514L482.364 267.177L481.829 268.455L477.045 266.45L475.634 269.815C475.34 270.517 475.243 271.099 475.366 271.59C475.477 272.113 475.862 272.549 476.491 272.886L477.912 273.646C478.516 273.954 478.934 274.313 479.203 274.719L478.622 276.106C478.354 275.609 477.893 275.177 477.234 274.828L475.592 273.938C474.522 273.343 474.1 272.47 474.31 271.312L474.279 271.299C473.856 271.873 473.335 272.241 472.68 272.406C472.053 272.546 471.436 272.489 470.812 272.228C469.784 271.797 469.148 271.128 468.893 270.251C468.646 269.397 468.763 268.419 469.226 267.313L471.238 262.514ZM471.809 264.255L470.398 267.621C470.039 268.478 469.943 269.189 470.116 269.738C470.286 270.249 470.715 270.667 471.401 270.954C472.056 271.228 472.639 271.235 473.161 270.996C473.718 270.716 474.188 270.162 474.528 269.352L475.938 265.986L471.809 264.255ZM466.824 273.044L477.951 277.707L474.535 285.857L473.428 285.393L476.309 278.521L472.226 276.81L469.614 283.043L468.507 282.58L471.12 276.347L467.395 274.786L464.626 281.393L463.52 280.929L466.824 273.044ZM462.666 282.966L473.792 287.629L472.172 291.494C471.441 293.239 470.365 294.363 468.96 294.874C467.622 295.357 466.077 295.241 464.363 294.522C462.618 293.791 461.438 292.802 460.849 291.584C460.2 290.249 460.256 288.716 460.994 286.955L462.666 282.966ZM463.237 284.707L462.185 287.216C461.572 288.681 461.501 289.897 461.978 290.903C462.427 291.842 463.396 292.633 464.892 293.26C466.341 293.868 467.598 293.973 468.633 293.601C469.703 293.188 470.55 292.261 471.158 290.812L472.15 288.443L463.237 284.707Z" fill="#F5222D"/>
<path d="M463.018 275.003C463.095 274.82 463.306 274.733 463.489 274.81C463.673 274.887 463.759 275.098 463.682 275.281L462.571 277.931C462.495 278.115 462.284 278.201 462.1 278.124C461.917 278.047 461.83 277.836 461.907 277.653L463.018 275.003Z" fill="#F5222D"/>
<path d="M483.202 258.289L485.746 259.355L468.844 299.682L466.301 298.615L483.202 258.289Z" fill="#FAAD14"/>
</g>
<path d="M440.66 372.047C440.872 370.131 439.49 368.406 437.574 368.194C436.266 368.05 435.048 368.647 434.338 369.65C433.989 370.123 433.772 370.669 433.692 371.233C433.082 373.277 430.761 379.198 424.423 378.738L424.365 378.733C422.478 378.554 420.79 379.927 420.581 381.822C420.37 383.736 421.747 385.46 423.658 385.671C425.463 385.871 427.098 384.65 427.451 382.901L427.463 382.918C427.463 382.918 427.465 382.861 427.477 382.758C427.486 382.702 427.493 382.645 427.5 382.588C427.5 382.584 427.501 382.581 427.501 382.577C427.501 382.575 427.501 382.573 427.501 382.571C427.707 381.208 429.009 376.238 437.063 375.21L437.064 375.211C437.852 375.228 438.65 374.978 439.313 374.446C439.405 374.372 439.491 374.296 439.573 374.215C440.162 373.666 440.565 372.911 440.66 372.047Z" fill="#41D3BD" fill-opacity="0.91"/>
<path d="M395.268 381.82C399.001 381.82 402.035 384.816 402.095 388.535L402.096 388.648C402.568 401.116 414.605 404.364 418.706 405.11C422.408 405.189 425.384 408.215 425.384 411.936C425.384 415.707 422.327 418.764 418.556 418.764C415.497 418.764 412.908 416.752 412.039 413.98L412.013 414.009C408.569 397.141 398.076 395.587 395.299 395.476L395.268 395.476C395.156 395.476 395.045 395.473 394.935 395.468C394.729 395.468 394.618 395.476 394.618 395.476L394.649 395.448C391.168 395.135 388.44 392.21 388.44 388.648C388.44 384.877 391.497 381.82 395.268 381.82Z" fill="#41D3BD" fill-opacity="0.91"/>
<path d="M58.6602 246.047C58.872 244.131 57.4901 242.406 55.5738 242.194C54.2663 242.05 53.0477 242.647 52.3382 243.65C51.9891 244.123 51.7716 244.669 51.6918 245.233C51.0822 247.277 48.7614 253.198 42.4225 252.738L42.3653 252.733C40.4777 252.554 38.7899 253.927 38.5809 255.822C38.3699 257.736 39.7475 259.46 41.6582 259.671C43.4629 259.871 45.0975 258.65 45.451 256.901L45.4633 256.918C45.4633 256.918 45.4655 256.861 45.4768 256.758C45.4858 256.702 45.4935 256.645 45.4998 256.588C45.5002 256.584 45.5006 256.581 45.5009 256.577C45.5011 256.575 45.5012 256.573 45.5014 256.571C45.7075 255.208 47.0086 250.238 55.0629 249.21L55.0636 249.211C55.8517 249.228 56.65 248.978 57.3134 248.446C57.4047 248.372 57.4913 248.296 57.5732 248.215C58.1622 247.666 58.5648 246.911 58.6602 246.047Z" fill="#41D3BD" fill-opacity="0.91"/>
<path d="M13.2682 255.82C17.0014 255.82 20.0349 258.816 20.0951 262.535L20.0961 262.648C20.5678 275.116 32.6054 278.364 36.7063 279.11C40.4077 279.189 43.3838 282.215 43.3838 285.936C43.3838 289.707 40.3269 292.764 36.556 292.764C33.4971 292.764 30.908 290.752 30.0394 287.98L30.0127 288.009C26.5689 271.141 16.076 269.587 13.2985 269.476L13.2682 269.476C13.1564 269.476 13.0451 269.473 12.9346 269.468C12.7292 269.468 12.618 269.476 12.618 269.476L12.6485 269.448C9.16804 269.135 6.44043 266.21 6.44043 262.648C6.44043 258.877 9.49734 255.82 13.2682 255.82Z" fill="#41D3BD" fill-opacity="0.91"/>
<path d="M288.66 17.0474C288.872 15.1311 287.49 13.406 285.574 13.1943C284.266 13.0498 283.048 13.6472 282.338 14.6501C281.989 15.1226 281.772 15.6687 281.692 16.2334C281.082 18.2774 278.761 24.1979 272.423 23.7383L272.365 23.7325C270.478 23.5545 268.79 24.9265 268.581 26.8217C268.37 28.7361 269.747 30.4595 271.658 30.671C273.463 30.8708 275.098 29.6501 275.451 27.9007L275.463 27.9178C275.463 27.9178 275.465 27.8614 275.477 27.758C275.486 27.7017 275.493 27.6449 275.5 27.5877C275.5 27.5842 275.501 27.5808 275.501 27.5775C275.501 27.5754 275.501 27.5734 275.501 27.5714C275.707 26.2083 277.009 21.2382 285.063 20.2101L285.064 20.2105C285.852 20.2277 286.65 19.9782 287.313 19.4457C287.405 19.3725 287.491 19.2956 287.573 19.2154C288.162 18.6658 288.565 17.9109 288.66 17.0474Z" fill="#41D3BD" fill-opacity="0.91"/>
<path d="M243.268 26.8203C247.001 26.8203 250.035 29.8164 250.095 33.5352L250.096 33.6481C250.568 46.1156 262.605 49.3638 266.706 50.11C270.408 50.1895 273.384 53.2151 273.384 56.9359C273.384 60.7068 270.327 63.7637 266.556 63.7637C263.497 63.7637 260.908 61.7522 260.039 58.9798L260.013 59.0086C256.569 42.1411 246.076 40.5872 243.299 40.4755L243.268 40.4759C243.156 40.4759 243.045 40.4733 242.935 40.4679C242.729 40.4679 242.618 40.4759 242.618 40.4759L242.649 40.4482C239.168 40.1351 236.44 37.2101 236.44 33.6481C236.44 29.8772 239.497 26.8203 243.268 26.8203Z" fill="#41D3BD" fill-opacity="0.91"/>
<defs>
<clipPath id="clip0">
<rect width="61.9497" height="61.9497" fill="white" transform="matrix(-0.922273 -0.38654 -0.38654 0.922273 504.109 251.946)"/>
</clipPath>
</defs>
</svg>
