<svg width="636" height="685" viewBox="0 0 636 685" fill="none" xmlns="http://www.w3.org/2000/svg">
<path fill-rule="evenodd" clip-rule="evenodd" d="M416.992 209.863C416.992 209.863 409.583 182.672 399.723 175.283C396.701 175.265 399.361 179.645 401.322 183.219C402.325 185.047 402.944 187.326 402.944 187.326C402.944 187.326 398.825 186.675 399.468 190.47C396.16 190.147 397.202 194.171 397.202 194.171C397.202 194.171 394.653 194.06 395.325 197.784C395.788 200.346 399.049 203.441 399.489 206.182C400.621 213.252 406.345 215.608 408.194 216.008C412.873 217.02 415.607 215.24 416.992 209.863Z" fill="#997C79"/>
<path d="M408.898 189.682C408.206 186.339 406.873 184.851 405.601 186.045C404.577 187.005 404.307 189.503 405.075 191.813L405.243 192.324C406.504 196.224 406.557 197.743 405.919 199.34L405.784 199.659C405.527 200.254 405.398 200.636 405.329 201.131L405.227 201.991C405.079 203.299 405.051 204.272 405.207 205.286C405.545 207.493 406.737 209.103 409.03 209.886C409.266 209.966 409.518 209.827 409.593 209.575C409.668 209.323 409.538 209.053 409.302 208.973C407.345 208.304 406.376 206.996 406.091 205.131C405.963 204.296 405.975 203.47 406.087 202.384L406.13 201.997C406.15 201.82 406.187 201.507 406.197 201.412C406.243 200.998 406.328 200.702 406.527 200.227L406.647 199.948C407.512 197.95 407.473 196.167 405.919 191.492C405.262 189.515 405.488 187.425 406.191 186.765C406.695 186.292 407.46 187.149 408.02 189.872L408.058 190.065L408.082 190.149L411.394 198.777C411.488 199.022 411.75 199.139 411.978 199.038C412.188 198.946 412.298 198.703 412.242 198.475L412.223 198.413L408.926 189.824L408.898 189.682Z" fill="#7C5B4D"/>
<path d="M399.289 190.03C399.062 190.136 398.959 190.419 399.058 190.661L399.169 190.923L399.387 191.423C399.414 191.482 399.441 191.542 399.469 191.604C399.788 192.308 400.132 193.013 400.489 193.672C400.923 194.475 401.346 195.155 401.752 195.679C402.442 196.569 403.078 197.017 403.72 196.838C405.227 196.418 405.71 195.233 405.364 193.693C405.243 193.155 405.028 192.592 404.745 192.022C404.591 191.711 404.426 191.417 404.262 191.149L404.129 190.938C404.091 190.88 404.06 190.833 404.036 190.799C403.888 190.587 403.608 190.543 403.409 190.701C403.211 190.859 403.17 191.159 403.318 191.371L403.416 191.52C403.444 191.565 403.477 191.616 403.513 191.674C403.663 191.92 403.814 192.188 403.954 192.471C404.204 192.976 404.392 193.467 404.493 193.916C404.735 194.994 404.473 195.638 403.494 195.911C403.311 195.962 402.925 195.69 402.442 195.067C402.073 194.591 401.676 193.952 401.264 193.192C400.92 192.555 400.586 191.871 400.275 191.186L400.05 190.678L399.879 190.277C399.78 190.034 399.515 189.924 399.289 190.03Z" fill="#7C5B4D"/>
<path d="M397.224 193.91C396.986 193.984 396.85 194.25 396.919 194.504L396.962 194.652L396.984 194.724C397.036 194.894 397.097 195.083 397.168 195.286C397.37 195.866 397.608 196.446 397.88 196.991C398.718 198.667 399.705 199.684 400.907 199.637C402.127 199.59 402.725 198.744 402.793 197.5C402.817 197.058 402.774 196.594 402.689 196.138C402.647 195.917 402.605 195.745 402.575 195.642C402.502 195.389 402.251 195.248 402.015 195.327C401.778 195.405 401.646 195.673 401.719 195.926L401.745 196.021C401.764 196.098 401.787 196.202 401.81 196.327C401.882 196.709 401.918 197.095 401.899 197.444C401.855 198.244 401.566 198.653 400.874 198.68C400.126 198.709 399.361 197.92 398.67 196.539C398.418 196.036 398.197 195.493 398.007 194.951C397.963 194.824 397.923 194.703 397.887 194.59L397.779 194.235C397.71 193.981 397.461 193.836 397.224 193.91Z" fill="#7C5B4D"/>
<path d="M395.171 196.763C394.929 196.815 394.771 197.068 394.82 197.327L394.862 197.528C394.896 197.683 394.937 197.854 394.986 198.038C395.125 198.565 395.298 199.093 395.506 199.589C396.273 201.418 397.341 202.414 398.751 201.909C399.798 201.533 400.215 200.727 400.057 199.729C399.989 199.295 399.818 198.851 399.577 198.406C399.393 198.066 399.209 197.796 399.081 197.632C398.922 197.429 398.64 197.402 398.45 197.572C398.26 197.741 398.235 198.043 398.394 198.247L398.455 198.329C398.473 198.355 398.493 198.384 398.516 198.418C398.614 198.561 398.711 198.719 398.802 198.886C398.993 199.24 399.126 199.584 399.174 199.888C399.26 200.434 399.082 200.779 398.466 201C397.639 201.296 396.924 200.63 396.323 199.196C396.135 198.747 395.976 198.263 395.848 197.777L395.789 197.545C395.745 197.367 395.715 197.227 395.698 197.139C395.654 196.901 395.452 196.74 395.232 196.755L395.171 196.763Z" fill="#7C5B4D"/>
<path fill-rule="evenodd" clip-rule="evenodd" d="M433.946 278.207C438.831 282.797 446.239 282.416 450.69 277.347L488.176 234.651C493.548 228.533 493.114 218.873 487.218 213.334C481.323 207.796 472.312 208.582 467.332 215.068L432.584 260.335C428.458 265.711 429.06 273.618 433.946 278.207Z" fill="#125E8A"/>
<path fill-rule="evenodd" clip-rule="evenodd" d="M416.869 207.178L402.488 216.268L431.418 275.525C434.811 281.975 442.592 284.018 448.392 279.981C454.054 276.041 455.552 267.876 451.703 261.939L416.869 207.178Z" fill="#125E8A"/>
<path d="M417.276 206.801C417.158 206.597 416.919 206.521 416.718 206.614L416.66 206.647L402.814 215.827C402.604 215.967 402.539 216.262 402.67 216.487C402.788 216.692 403.027 216.768 403.228 216.675L403.287 216.642L417.132 207.461C417.342 207.322 417.407 207.026 417.276 206.801Z" fill="#597EF7"/>
<path d="M420.723 214.087C420.599 213.886 420.358 213.818 420.16 213.916L420.102 213.951L406.723 223.386C406.516 223.531 406.459 223.829 406.595 224.05C406.719 224.25 406.96 224.319 407.158 224.221L407.216 224.186L420.595 214.751C420.802 214.605 420.859 214.308 420.723 214.087Z" fill="#597EF7"/>
<path fill-rule="evenodd" clip-rule="evenodd" d="M406.265 217.408C405.731 217.76 405.565 218.507 405.893 219.078C406.222 219.649 406.921 219.828 407.455 219.476C407.989 219.125 408.156 218.377 407.827 217.806C407.498 217.234 406.799 217.056 406.265 217.408Z" fill="white"/>
<path fill-rule="evenodd" clip-rule="evenodd" d="M545.343 540.021C545.343 540.021 551.453 556.389 566.21 560.494C575.871 563.181 565.538 572.304 548.579 567.641C538.911 564.983 541.328 559.768 535.892 559.419C532.742 559.216 526.5 557.082 526.33 554.513C526.032 550.023 525.955 548.765 525.925 543.537C525.751 512.561 537.097 512.189 545.343 540.021Z" fill="#FF9D00"/>
<path fill-rule="evenodd" clip-rule="evenodd" d="M530.659 305.884C530.659 305.884 487.038 306.38 481.045 306.126C477.923 305.994 473.705 326.612 473.528 340.642C475.515 344.94 492.783 353.574 501.62 357.929C504.96 359.576 508.027 358.68 508.027 358.68C512.421 359.924 538.185 339.625 538.185 339.625C538.185 339.625 537.768 317.234 530.659 305.884Z" fill="#BCC3D1"/>
<path fill-rule="evenodd" clip-rule="evenodd" d="M480.172 300.239L479.929 306.709C479.929 306.709 486.886 309.708 503.754 310.97C519.984 312.185 530.887 307.811 530.887 307.811L530.741 300.98C530.741 300.98 509.925 307.994 480.172 300.239Z" fill="black"/>
<path fill-rule="evenodd" clip-rule="evenodd" d="M495.261 309.417L495.305 304.713C495.318 303.387 496.332 302.351 497.514 302.465C500.347 302.734 505.355 303.12 509 302.891C510.192 302.816 511.172 303.914 511.122 305.247L510.942 310.05C510.9 311.173 510.133 312.09 509.133 312.221C506.758 312.534 502.186 312.838 496.908 311.671C495.947 311.458 495.251 310.514 495.261 309.417Z" fill="#E4EBF7"/>
<path fill-rule="evenodd" clip-rule="evenodd" d="M497.104 308.852L497.127 305.523C497.133 304.586 497.913 303.856 498.824 303.938C501.01 304.138 504.875 304.424 507.686 304.272C508.605 304.223 509.364 305.002 509.329 305.944L509.201 309.342C509.171 310.137 508.582 310.783 507.811 310.874C505.98 311.087 502.454 311.292 498.379 310.451C497.637 310.298 497.098 309.627 497.104 308.852Z" fill="black"/>
<path fill-rule="evenodd" clip-rule="evenodd" d="M495.818 196.82L497.889 181.901L518.872 176.545L520.064 198.279C520.133 203.435 516.332 208.255 511.781 209.957C511.309 210.134 510.821 210.289 510.319 210.418C502.745 212.352 495.048 205.109 495.818 196.82Z" fill="#997C79"/>
<path fill-rule="evenodd" clip-rule="evenodd" d="M526.855 166.871C523.412 183.281 512.136 189.91 501.792 189.651C489.461 189.343 487.489 177.827 489.301 161.504C491.141 144.931 498.205 139.785 509.783 140.306C521.853 140.85 530.343 150.249 526.855 166.871Z" fill="#997C79"/>
<path fill-rule="evenodd" clip-rule="evenodd" d="M518.198 168.645C518.646 167.377 519.138 165.235 521.14 164.519C523.894 163.534 526.037 166.952 525.425 170.397C524.683 174.574 521.036 176.859 519.067 176.725C518.99 180.866 519.143 183.08 519.143 183.08C519.143 183.08 523.783 178.836 526.665 171.899C531.16 161.074 528.8 145.688 517.365 141.243C497.43 135.887 492.76 148.624 492.76 148.624L515.381 149.989L514.273 158.025C514.273 158.025 518.285 158.567 516.837 168.067L518.198 168.645Z" fill="#604346"/>
<path d="M502.244 158.622C501.998 158.597 501.78 158.791 501.757 159.055C501.736 159.296 501.887 159.513 502.102 159.566L502.162 159.576L509.117 160.261L511.262 161.152C511.473 161.239 511.709 161.144 511.815 160.937L511.841 160.878C511.923 160.652 511.834 160.4 511.641 160.286L511.585 160.258L509.381 159.344L509.261 159.314L502.244 158.622Z" fill="#604346"/>
<path fill-rule="evenodd" clip-rule="evenodd" d="M511.316 180.976C508.985 176.863 509.445 173.379 498.737 172.788C493.528 172.5 491.576 174.195 489.424 178.509C490.402 185.47 495.357 190.184 502.341 190.129C517.015 190.015 518.696 174.447 518.696 174.447C518.696 174.447 516.603 174.856 515.862 175.977C513.815 179.077 512.566 179.799 511.316 180.976Z" fill="#7C5B4D"/>
<path fill-rule="evenodd" clip-rule="evenodd" d="M494.895 175.758C494.895 175.758 498.656 176.283 504.479 176.137C504.479 176.137 503.462 178.637 499.292 178.354C496.018 178.132 494.895 175.758 494.895 175.758Z" fill="white"/>
<path d="M494.939 175.401L495.257 175.441L495.84 175.504C496.174 175.537 496.545 175.57 496.951 175.602C499.142 175.771 501.674 175.848 504.471 175.778C504.701 175.772 504.863 176.007 504.802 176.234L504.78 176.295C504.596 176.715 504.209 177.238 503.554 177.711C502.524 178.455 501.112 178.838 499.271 178.712C497.829 178.615 496.665 178.116 495.761 177.345C495.145 176.82 494.77 176.289 494.596 175.92C494.474 175.662 494.671 175.364 494.939 175.401ZM495.607 176.202L495.632 176.232C495.789 176.42 495.971 176.605 496.179 176.783C496.979 177.464 498.012 177.907 499.313 177.995C501.01 178.11 502.275 177.768 503.178 177.116L503.3 177.024C503.496 176.871 503.659 176.716 503.79 176.566L503.838 176.51L503.442 176.516C501.206 176.544 499.153 176.479 497.321 176.349L496.902 176.318C496.574 176.293 496.268 176.266 495.984 176.239L495.607 176.202Z" fill="#604346"/>
<path d="M496.629 158.156C496.406 158.203 496.256 158.419 496.269 158.655L496.277 158.72L496.769 161.348L494.362 170.925C494.126 171.864 494.714 172.802 495.6 172.94L495.696 172.951L501.344 173.445C501.59 173.466 501.806 173.27 501.827 173.006C501.845 172.764 501.692 172.55 501.477 172.499L501.417 172.49L495.768 171.996C495.412 171.965 495.161 171.616 495.213 171.248L495.227 171.174L497.661 161.489C497.673 161.442 497.678 161.393 497.676 161.344L497.668 161.271L497.156 158.532C497.112 158.294 496.91 158.133 496.689 158.147L496.629 158.156Z" fill="#604346"/>
<path d="M497.998 180.931C497.813 180.914 497.65 181.06 497.634 181.258C497.62 181.436 497.73 181.595 497.886 181.637L497.94 181.647L500.642 181.896C500.827 181.913 500.99 181.766 501.006 181.569C501.02 181.391 500.911 181.232 500.754 181.189L500.7 181.18L497.998 180.931Z" fill="#604346"/>
<path d="M490.473 157.505C490.226 157.479 490.007 157.672 489.983 157.935C489.961 158.177 490.111 158.394 490.326 158.448L490.386 158.459L496.338 159.08C496.584 159.105 496.803 158.913 496.827 158.649C496.849 158.408 496.699 158.191 496.485 158.136L496.425 158.126L490.473 157.505Z" fill="#604346"/>
<path d="M510.936 188.074C510.856 187.895 510.655 187.819 510.488 187.905C506.413 190 502.388 190.242 498.866 189.401C498.55 189.326 498.263 189.246 498.007 189.166L497.82 189.105C497.642 189.046 497.522 189 497.463 188.976C497.29 188.903 497.096 188.995 497.028 189.179C496.96 189.364 497.045 189.573 497.218 189.645L497.374 189.705C497.441 189.73 497.523 189.759 497.62 189.791C497.938 189.898 498.306 190.004 498.72 190.103C502.378 190.977 506.553 190.725 510.779 188.553C510.946 188.467 511.016 188.253 510.936 188.074Z" fill="#604346"/>
<path d="M522.588 166.392C522.074 166.287 521.508 166.33 520.969 166.631C520.103 167.113 519.515 168.163 519.307 169.868C519.284 170.053 519.398 170.226 519.568 170.266C520.428 170.468 520.819 170.866 520.841 171.365C520.861 171.822 520.567 172.368 520.099 172.734C519.949 172.851 519.917 173.076 520.026 173.236C520.136 173.396 520.346 173.431 520.496 173.314C521.132 172.816 521.544 172.052 521.512 171.331C521.479 170.579 520.992 169.994 520.113 169.681L520.018 169.649L520.027 169.588C520.228 168.39 520.641 167.672 521.195 167.318L521.28 167.268C521.666 167.053 522.084 167.021 522.462 167.098L522.568 167.123C522.575 167.125 522.581 167.127 522.585 167.129C522.762 167.19 522.952 167.087 523.009 166.899C523.067 166.71 522.971 166.507 522.794 166.445L522.709 166.42C522.675 166.411 522.634 166.401 522.588 166.392Z" fill="#604346"/>
<path d="M503.762 163.368C503.515 163.351 503.302 163.552 503.286 163.816C503.205 165.188 504.142 166.377 505.39 166.463C506.637 166.547 507.707 165.494 507.789 164.121C507.804 163.857 507.617 163.629 507.37 163.613C507.123 163.596 506.91 163.796 506.894 164.06C506.844 164.914 506.191 165.556 505.446 165.506C504.701 165.455 504.13 164.73 504.181 163.877C504.196 163.613 504.009 163.385 503.762 163.368Z" fill="#604346"/>
<path d="M491.3 162.522C491.053 162.506 490.84 162.706 490.824 162.97C490.742 164.342 491.679 165.532 492.927 165.617C494.175 165.701 495.244 164.648 495.326 163.275C495.342 163.011 495.155 162.784 494.908 162.767C494.661 162.75 494.448 162.95 494.432 163.215C494.381 164.069 493.729 164.711 492.984 164.661C492.239 164.61 491.667 163.884 491.718 163.031C491.734 162.767 491.547 162.539 491.3 162.522Z" fill="#604346"/>
<path fill-rule="evenodd" clip-rule="evenodd" d="M528.571 442.044C536.28 441.38 542.129 434.329 541.827 426.062L538.713 340.557C538.322 329.848 529.674 321.641 519.688 322.502C509.721 323.36 502.419 332.905 503.604 343.525L513.088 428.492C514.006 436.725 520.844 442.71 528.571 442.044Z" fill="#BCC3D1"/>
<path fill-rule="evenodd" clip-rule="evenodd" d="M525.687 538.983L512.923 428.717C511.892 419.814 518.057 411.81 526.423 411.186C534.604 410.575 541.655 417.277 542.051 426.039L547.066 537.051C547.066 537.051 538.342 542.95 525.687 538.983Z" fill="#BCC3D1"/>
<path fill-rule="evenodd" clip-rule="evenodd" d="M477.126 538.969C477.126 538.969 470.596 555.15 455.74 558.819C446.013 561.221 456.107 570.643 473.18 566.482C482.912 564.111 480.631 558.826 486.073 558.637C489.228 558.527 495.523 556.578 495.759 554.015C496.172 549.536 496.281 548.281 496.445 543.056C497.417 512.096 486.085 511.39 477.126 538.969Z" fill="#FF9D00"/>
<path fill-rule="evenodd" clip-rule="evenodd" d="M489.056 443.886C481.319 443.708 475.092 437.035 474.941 428.759L473.379 343.2C473.183 332.489 481.363 323.758 491.376 323.987C501.376 324.216 509.194 333.29 508.59 343.969L503.765 429.389C503.297 437.662 496.803 444.063 489.056 443.886Z" fill="#BCC3D1"/>
<path fill-rule="evenodd" clip-rule="evenodd" d="M497.891 539.031L503.784 430.846C504.255 422.188 497.912 414.84 489.805 414.655C481.765 414.471 475.162 421.409 475.19 430.011L475.549 538.52C475.549 538.52 485.477 543.788 497.891 539.031Z" fill="#BCC3D1"/>
<path fill-rule="evenodd" clip-rule="evenodd" d="M478.117 288.484C478.117 288.484 466.765 238.132 472.356 211.844C478.97 207.622 483.991 207.469 495.504 203.485C497.812 202.687 502.665 208.592 505.533 208.488C509.773 208.333 518.473 202.013 522.422 202.975C539.692 207.183 545.709 210.148 545.709 210.148L542.459 246.556C538.569 266.395 533.007 286.6 533.007 286.6C533.007 286.6 542.141 300.24 523.374 302.781C510.301 304.551 488.461 305.067 480.244 299.849C476.663 297.576 476.293 293.453 478.117 288.484Z" fill="#125E8A"/>
<path fill-rule="evenodd" clip-rule="evenodd" d="M495.736 198.451L491.004 204.975L496.802 216.94L506.134 207.226L495.736 198.451Z" fill="#125E8A"/>
<path fill-rule="evenodd" clip-rule="evenodd" d="M506.053 207.236L519.45 198.615L523.59 203.712L515.108 216.25L506.053 207.236Z" fill="#125E8A"/>
<path fill-rule="evenodd" clip-rule="evenodd" d="M498.793 214.664L505.915 207.12L512.84 215.003L508.657 223.406L500.74 223.193L498.793 214.664Z" fill="#FF9D00"/>
<path fill-rule="evenodd" clip-rule="evenodd" d="M500.782 223.129L508.615 223.086L512.652 274.975L501.221 292.08L491.456 274.335L500.782 223.129Z" fill="#FF9D00"/>
<path d="M523.868 203.385C523.682 203.25 523.435 203.284 523.287 203.456L523.246 203.512L515.034 216.453L506.236 206.786C506.081 206.616 505.836 206.595 505.659 206.726L505.608 206.771L496.701 215.71L492.088 204.61C491.996 204.388 491.766 204.278 491.554 204.344L491.497 204.367C491.29 204.465 491.187 204.712 491.249 204.938L491.27 204.999L496.138 216.716C496.255 216.996 496.578 217.084 496.804 216.914L496.854 216.871L505.901 207.791L514.775 217.543C514.957 217.743 515.257 217.732 515.427 217.532L515.467 217.478L523.987 204.05C524.126 203.831 524.073 203.533 523.868 203.385Z" fill="#597EF7"/>
<path d="M501.074 222.909C500.826 222.909 500.626 223.123 500.626 223.388C500.626 223.63 500.794 223.831 501.013 223.863L501.074 223.867H508.105C508.353 223.867 508.553 223.652 508.553 223.388C508.553 223.145 508.385 222.945 508.166 222.913L508.105 222.909H501.074Z" fill="#597EF7"/>
<path d="M471.918 225.602C471.671 225.589 471.46 225.793 471.448 226.057C471.203 231.235 471.294 236.966 471.685 243.157C472.228 251.758 473.324 260.939 474.811 270.283C475.528 274.791 476.293 279.067 477.061 282.995L477.215 283.775C477.444 284.935 477.661 285.995 477.86 286.948L478.148 288.297L478.267 288.843L478.125 289.129C477.953 289.488 477.781 289.891 477.621 290.33C476.996 292.042 476.717 293.794 476.983 295.452C477.339 297.668 478.648 299.464 481.06 300.658C481.284 300.769 481.551 300.665 481.655 300.425C481.759 300.185 481.661 299.9 481.436 299.789C479.29 298.725 478.172 297.192 477.866 295.289C477.631 293.83 477.885 292.242 478.455 290.678C478.574 290.352 478.7 290.048 478.827 289.77L478.922 289.566C479.016 289.37 479.088 289.234 479.127 289.166C479.188 289.058 479.207 288.928 479.179 288.805L478.976 287.876L478.735 286.738C478.56 285.908 478.374 284.995 478.176 284.005L478.091 283.577C477.274 279.45 476.457 274.918 475.694 270.122C474.212 260.808 473.12 251.657 472.579 243.093C472.191 236.937 472.1 231.243 472.343 226.105C472.355 225.841 472.165 225.616 471.918 225.602Z" fill="#597EF7"/>
<path fill-rule="evenodd" clip-rule="evenodd" d="M490.841 297.889L477.877 254.513C477.663 253.798 477.047 253.309 476.344 253.299L439.993 252.773C438.864 252.757 438.06 253.942 438.427 255.085L451.96 297.308C452.178 297.987 452.762 298.454 453.432 298.486L489.215 300.165C490.349 300.217 491.187 299.045 490.841 297.889Z" fill="#A3B5D6"/>
<path fill-rule="evenodd" clip-rule="evenodd" d="M476.187 254.74C475.928 253.874 475.181 253.282 474.33 253.27L437.53 252.737C436.741 252.725 436.179 253.555 436.435 254.354L450.155 297.161C450.396 297.914 451.043 298.431 451.785 298.466L486.955 300.115C488.329 300.18 489.343 298.761 488.925 297.36L476.187 254.74Z" fill="#FF9D00"/>
<path fill-rule="evenodd" clip-rule="evenodd" d="M471.204 257.377C470.792 257.867 470.94 258.726 471.534 259.298C472.128 259.869 472.944 259.937 473.355 259.447C473.767 258.957 473.619 258.097 473.025 257.525C472.43 256.953 471.615 256.887 471.204 257.377Z" fill="#BCC3D1"/>
<path fill-rule="evenodd" clip-rule="evenodd" d="M471.692 257.889C471.479 258.143 471.556 258.589 471.864 258.886C472.172 259.183 472.595 259.217 472.809 258.963C473.023 258.709 472.946 258.263 472.637 257.965C472.329 257.669 471.906 257.635 471.692 257.889Z" fill="#E4EBF7"/>
<path fill-rule="evenodd" clip-rule="evenodd" d="M474.659 289.733C472.57 289.516 471.471 288.582 471.669 286.72C469.157 285.875 469.438 283.599 469.438 283.599C469.438 283.599 464.603 283.52 463.789 281.31C463.473 280.452 464.087 279.533 464.947 279.471C475.307 278.72 482.693 272.848 482.693 272.848C482.693 272.848 478.621 266.451 479.052 263.498C479.179 262.625 480.246 262.343 480.744 263.048C485.016 269.077 493.581 273.804 493.581 273.804C493.581 273.804 503.862 284.107 492.709 288.779C492.709 288.779 484.208 292.402 478.289 291.943C475.487 291.727 474.659 289.733 474.659 289.733Z" fill="#997C79"/>
<path d="M477.168 281.568C477.047 281.337 476.774 281.255 476.558 281.384C475.826 281.822 474.969 282.179 474.011 282.462C472.867 282.8 471.636 283.017 470.398 283.134L470.022 283.167C469.537 283.206 469.121 283.223 468.798 283.228L468.56 283.228C468.313 283.225 468.109 283.436 468.106 283.701C468.103 283.944 468.269 284.146 468.487 284.181L468.548 284.187L468.682 284.187C469.119 284.186 469.737 284.159 470.478 284.089C471.766 283.966 473.048 283.741 474.249 283.386C475.272 283.084 476.196 282.699 476.996 282.22C477.212 282.091 477.289 281.799 477.168 281.568Z" fill="#7C5B4D"/>
<path d="M478.147 284.981C478.039 284.743 477.771 284.643 477.548 284.758C477.454 284.807 477.359 284.855 477.262 284.901C476.044 285.489 474.734 285.867 473.418 286.074C472.731 286.182 472.16 286.228 471.756 286.238L471.554 286.24C471.302 286.237 471.099 286.448 471.095 286.713C471.092 286.955 471.258 287.158 471.476 287.193L471.547 287.198L471.77 287.196C472.211 287.186 472.82 287.137 473.549 287.022C474.941 286.803 476.33 286.403 477.631 285.775C477.734 285.725 477.837 285.674 477.938 285.621C478.161 285.506 478.254 285.219 478.147 284.981Z" fill="#7C5B4D"/>
<path d="M479.991 288.786C479.883 288.548 479.615 288.448 479.393 288.563C479.069 288.731 478.271 288.894 477.191 289.027C476.633 289.096 476.034 289.153 475.434 289.2L474.854 289.241L474.636 289.254C474.389 289.267 474.199 289.493 474.211 289.757C474.224 290.021 474.435 290.225 474.682 290.211L474.908 290.197C475.086 290.186 475.285 290.172 475.499 290.155C476.11 290.108 476.722 290.05 477.294 289.979L477.699 289.926C478.676 289.791 479.386 289.631 479.782 289.426C480.005 289.311 480.099 289.024 479.991 288.786Z" fill="#7C5B4D"/>
<path fill-rule="evenodd" clip-rule="evenodd" d="M559.193 292.549C565.433 290.594 569.1 283.699 567.481 276.963L553.845 220.236C551.892 212.108 544.032 207.327 536.502 209.686C528.973 212.045 524.766 220.606 527.221 228.578L544.354 284.208C546.388 290.814 552.953 294.504 559.193 292.549Z" fill="#125E8A"/>
<path d="M544.468 213.694C544.36 213.456 544.092 213.356 543.87 213.471C539.913 215.516 536.896 219.743 534.673 225.493C533.558 228.379 532.715 231.467 532.106 234.554C531.919 235.499 531.767 236.385 531.645 237.196L531.544 237.901C531.521 238.073 531.5 238.232 531.483 238.378L531.448 238.681C531.444 238.721 531.444 238.762 531.45 238.802L531.461 238.861L539.159 268.477C539.226 268.732 539.473 268.881 539.711 268.81C539.93 268.745 540.065 268.518 540.035 268.284L540.023 268.22L532.348 238.694L532.409 238.201C532.43 238.041 532.454 237.869 532.48 237.684C532.607 236.8 532.773 235.814 532.982 234.752C533.581 231.719 534.409 228.686 535.501 225.86C537.647 220.306 540.538 216.258 544.26 214.334C544.482 214.219 544.576 213.932 544.468 213.694Z" fill="#597EF7"/>
<path fill-rule="evenodd" clip-rule="evenodd" d="M493.476 270.739L493.233 289.985L555.721 293.396C562.631 293.785 568.412 287.85 568.33 280.45C568.251 273.225 562.607 267.5 555.858 267.797L493.476 270.739Z" fill="#125E8A"/>
<path d="M551.688 267.325L493.373 270.17C493.155 270.18 492.979 270.356 492.949 270.581L492.945 270.644L492.785 289.981C492.783 290.215 492.938 290.412 493.147 290.456L493.205 290.464L535.555 293.235C535.801 293.251 536.014 293.05 536.029 292.786C536.043 292.544 535.886 292.333 535.67 292.287L535.609 292.279L493.685 289.534L493.837 271.106L551.729 268.283C551.955 268.271 552.135 268.082 552.154 267.847L552.156 267.782C552.145 267.54 551.969 267.348 551.749 267.327L551.688 267.325Z" fill="#597EF7"/>
<path d="M500.847 271.626C500.62 271.632 500.438 271.818 500.414 272.053L500.412 272.118L500.841 288.588C500.848 288.852 501.054 289.061 501.301 289.054C501.528 289.047 501.71 288.861 501.734 288.626L501.736 288.561L501.307 272.091C501.3 271.827 501.094 271.618 500.847 271.626Z" fill="#597EF7"/>
<path fill-rule="evenodd" clip-rule="evenodd" d="M496.365 284.993C496.356 285.664 496.858 286.215 497.485 286.224C498.112 286.233 498.627 285.697 498.636 285.026C498.644 284.356 498.142 283.805 497.516 283.795C496.889 283.787 496.373 284.322 496.365 284.993Z" fill="white"/>
<path d="M495.965 353.865C495.739 353.757 495.474 353.866 495.373 354.108C495.281 354.329 495.359 354.586 495.547 354.71L495.601 354.74L504.732 359.083L525.242 539.041C525.269 539.282 525.459 539.459 525.68 539.462L525.741 539.458C525.966 539.429 526.131 539.226 526.134 538.99L526.131 538.925L505.59 358.698C505.574 358.555 505.498 358.428 505.386 358.352L505.328 358.318L495.965 353.865Z" fill="#FF9D00"/>
<g clip-path="url(#clip0)">
<path d="M292.476 439.51L267.709 459.049H391.349L366.445 439.51H292.476Z" fill="#E4EBF7"/>
<path d="M366.445 459.031L391.349 459.049L366.445 439.51V459.031Z" fill="#A3B5D6"/>
<path d="M288.864 404.783L309.974 533.325C310.457 536.267 313.095 538.239 315.861 537.723L325.26 535.977C328.025 535.46 329.88 532.657 329.394 529.715L308.287 401.174L288.864 404.783Z" fill="#FFA940"/>
<path d="M291.712 382.977L288.867 404.796L308.287 401.186L299.198 381.587L291.712 382.977Z" fill="#FFE7BA"/>
<path d="M293.941 373.409C293.771 373.44 293.635 373.585 293.603 373.766L291.951 382.946L299.05 381.626L294.381 373.615C294.302 373.482 294.166 373.4 294.021 373.4C293.992 373.4 293.967 373.403 293.941 373.409Z" fill="#253368"/>
<path d="M294.725 403.769L316.698 537.569L324.626 536.095L302.656 402.292L294.725 403.769Z" fill="#FE9921"/>
<path d="M321.752 527.44L321.417 537.677C321.312 540.843 323.641 543.498 326.617 543.607C329.593 543.719 332.089 541.242 332.194 538.079L332.526 527.838L321.755 527.44H321.752Z" fill="#253368"/>
<path d="M331.617 374.225L331.024 377.847C330.893 378.638 331.396 379.397 332.14 379.533C332.886 379.672 333.596 379.14 333.727 378.345L334.32 374.723C334.451 373.929 333.951 373.174 333.204 373.035C333.125 373.023 333.045 373.014 332.966 373.014C332.313 373.014 331.733 373.512 331.617 374.225Z" fill="#50548B"/>
<path d="M301.574 518.024C301.088 520.969 302.945 523.773 305.714 524.286L311.288 525.319C314.057 525.83 316.692 523.86 317.172 520.915L337.549 396.458L321.948 393.567L301.574 518.024Z" fill="#597EF7"/>
<path d="M330.234 377.817L321.948 393.567L337.557 396.461L334.513 378.596C334.448 378.221 334.169 377.925 333.815 377.865L331.123 377.367C331.074 377.358 331.026 377.354 330.978 377.354C330.674 377.354 330.387 377.527 330.234 377.817Z" fill="#E4EBF7"/>
<path d="M265.193 391.093L259.826 395.063C259.213 395.516 258.985 396.368 259.284 397.096L262.538 405.022C262.881 405.868 263.807 406.252 264.602 405.883L270.477 403.155C271.273 402.784 271.636 401.802 271.29 400.956L267.53 391.791C267.342 391.335 266.97 390.991 266.516 390.855C266.38 390.815 266.235 390.794 266.096 390.794C265.775 390.794 265.463 390.894 265.193 391.093Z" fill="#FF7946"/>
<path d="M264.287 427.509L304.973 526.67L326.983 516.45L286.297 417.29L264.287 427.509Z" fill="#FF7946"/>
<path d="M264.287 427.509L267.851 436.188L289.861 425.971L286.297 417.29L264.287 427.509Z" fill="#253368"/>
<path d="M261.552 403.605L262.097 422.165L264.287 427.509L286.297 417.29L284.122 411.988L271.003 399.216L261.552 403.605Z" fill="#E4EBF7"/>
<path d="M262.092 422.258L264.284 427.599L286.291 417.377L284.099 412.039L262.092 422.258Z" fill="#F5F5F5"/>
<path d="M291.277 445.676L279.6 446.534C279.311 446.555 279.047 446.727 278.896 446.993C278.743 447.256 278.723 447.585 278.839 447.872L278.916 448.056C279.069 448.428 279.424 448.657 279.805 448.627L283.738 448.319C284.118 448.289 284.476 448.521 284.629 448.893L285.629 451.331C286.864 454.342 288.897 455.711 291.649 455.442C294.401 455.176 295.167 453.566 293.972 450.651L292.163 446.25C292.018 445.899 291.692 445.676 291.334 445.676C291.317 445.676 291.297 445.676 291.277 445.676ZM288.809 452.965C288.298 452.584 287.841 451.947 287.475 451.053L286.779 449.358C286.663 449.074 286.682 448.748 286.833 448.482C286.983 448.216 287.248 448.044 287.537 448.023L290.195 447.815C290.576 447.787 290.931 448.014 291.084 448.385L292.015 450.66C292.373 451.527 292.453 452.198 292.279 452.636C292.103 453.074 291.632 453.349 290.817 453.424C290.684 453.436 290.547 453.442 290.419 453.442C289.781 453.442 289.232 453.285 288.809 452.965Z" fill="white"/>
<path d="M295.818 456.796L284.272 457.971C283.988 458.001 283.73 458.173 283.585 458.436C283.437 458.699 283.42 459.022 283.531 459.3L286.592 466.758C286.751 467.142 287.126 467.371 287.518 467.323C287.799 467.29 288.052 467.112 288.194 466.852C288.336 466.589 288.353 466.272 288.236 465.994L286.249 461.143C286.138 460.862 286.155 460.541 286.3 460.279C286.444 460.019 286.7 459.844 286.984 459.816L289.17 459.605C289.557 459.566 289.92 459.792 290.076 460.17L292.198 465.335C292.357 465.719 292.734 465.952 293.126 465.906C293.407 465.87 293.657 465.692 293.802 465.429C293.941 465.169 293.958 464.849 293.844 464.571L292.186 460.529C292.073 460.248 292.092 459.928 292.237 459.668C292.382 459.409 292.638 459.233 292.922 459.203L294.762 459.007C295.148 458.968 295.514 459.191 295.67 459.569L297.922 465.051C298.081 465.438 298.456 465.665 298.848 465.616C299.132 465.58 299.385 465.405 299.524 465.139C299.666 464.87 299.68 464.55 299.558 464.272L296.721 457.36C296.576 457.01 296.255 456.79 295.903 456.79C295.875 456.79 295.846 456.793 295.818 456.796Z" fill="white"/>
<path d="M268.036 482.898V545.84C268.036 548.555 270.106 550.757 272.659 550.757H386.667C389.219 550.757 391.289 548.555 391.289 545.84V482.898H268.036Z" fill="#597EF7"/>
<path d="M268.035 468.543V505.216L391.289 494.758V468.543H268.035Z" fill="#3D60E0"/>
<g clip-path="url(#clip1)">
<path d="M338.612 467.094C346.078 471.679 355.757 468.73 360.218 460.511L368.299 445.622L354.774 437.315C347.308 432.73 337.628 435.678 333.168 443.897C328.707 452.116 331.146 462.508 338.612 467.094Z" fill="#0ACF83"/>
<path d="M365.573 384.19C370.048 375.943 379.74 372.972 387.206 377.557L400.731 385.864L384.515 415.743L370.99 407.436C363.524 402.851 361.097 392.436 365.573 384.19Z" fill="#F24E1E"/>
<path d="M400.73 385.864L414.255 394.171C421.721 398.757 424.148 409.171 419.673 417.417C415.197 425.664 405.505 428.635 398.04 424.05L384.515 415.743L400.73 385.864Z" fill="#FF7262"/>
<path d="M403.511 447.196C399.035 455.443 389.344 458.414 381.878 453.829C374.412 449.243 371.985 438.829 376.461 430.582C380.936 422.336 390.628 419.364 398.094 423.95C405.56 428.535 407.987 438.949 403.511 447.196Z" fill="#1ABCFE"/>
<path d="M349.411 413.968C353.887 405.722 363.578 402.751 371.044 407.336L384.569 415.643L368.353 445.522L354.828 437.215C347.362 432.629 344.935 422.215 349.411 413.968Z" fill="#A259FF"/>
</g>
<path d="M267.717 459.049L255.691 487.194C255.234 488.212 255.297 489.405 255.859 490.359C256.424 491.311 257.409 491.891 258.466 491.894H400.404C401.486 491.894 402.491 491.29 403.048 490.302C403.604 489.314 403.636 488.088 403.13 487.076L391.349 459.049H267.717Z" fill="#E4EBF7"/>
</g>
<path fill-rule="evenodd" clip-rule="evenodd" d="M298.989 279.936L284.454 328.104H293.242L307.776 279.936H298.989Z" fill="#597EF7"/>
<path fill-rule="evenodd" clip-rule="evenodd" d="M278.263 285.412H268.935H263.055C262.596 285.412 262.224 285.804 262.224 286.288V292.492V315.548V321.751C262.224 322.235 262.596 322.628 263.055 322.628H268.935H278.263C278.722 322.628 279.094 322.235 279.094 321.751V316.424C279.094 315.94 278.722 315.548 278.263 315.548H268.935V292.492H278.263C278.722 292.492 279.094 292.099 279.094 291.616V286.288C279.094 285.804 278.722 285.412 278.263 285.412Z" fill="#CCD7EE"/>
<path fill-rule="evenodd" clip-rule="evenodd" d="M329.176 285.412H323.295H313.967C313.508 285.412 313.136 285.804 313.136 286.288V291.616C313.136 292.099 313.508 292.492 313.967 292.492H323.295V315.548H313.967C313.508 315.548 313.136 315.94 313.136 316.424V321.751C313.136 322.235 313.508 322.628 313.967 322.628H323.295H329.176C329.634 322.628 330.006 322.235 330.006 321.751V316.424V291.616V286.288C330.006 285.804 329.634 285.412 329.176 285.412Z" fill="#CCD7EE"/>
<path d="M584.741 422.534L584.741 420.475C584.741 412.306 591.363 405.684 599.531 405.684C607.7 405.684 614.322 412.306 614.322 420.475V422.534C614.322 430.703 607.7 437.325 599.531 437.325C591.363 437.325 584.741 430.703 584.741 422.534Z" fill="#597EF7"/>
<path d="M556.449 332.767L556.449 331.111C556.449 327.76 559.166 325.043 562.517 325.043C565.868 325.043 568.585 327.76 568.585 331.111V332.767C568.585 336.118 565.868 338.835 562.517 338.835C559.166 338.835 556.449 336.118 556.449 332.767Z" fill="#597EF7"/>
<path fill-rule="evenodd" clip-rule="evenodd" d="M176.303 231.777C172.818 231.777 169.993 229.078 169.993 225.749V82.2197H378.326V225.749C378.326 229.078 375.501 231.777 372.016 231.777H176.303Z" fill="#E4EBF7"/>
<path d="M362.364 95.2271H241.73C240.341 95.2271 239.215 96.4312 239.215 97.9165V218.291C239.215 219.777 240.341 220.981 241.73 220.981H362.364C363.753 220.981 364.879 219.777 364.879 218.291V97.9165C364.879 96.4312 363.753 95.2271 362.364 95.2271Z" fill="white"/>
<path d="M226.651 94.2266H185.604C184.215 94.2266 183.089 95.4307 183.089 96.9161V217.291C183.089 218.776 184.215 219.98 185.604 219.98H226.651C228.04 219.98 229.166 218.776 229.166 217.291V96.9161C229.166 95.4307 228.04 94.2266 226.651 94.2266Z" fill="white"/>
<path d="M217.842 144.254H194.807C194.018 144.254 193.379 144.938 193.379 145.782V149.56C193.379 150.404 194.018 151.088 194.807 151.088H217.842C218.631 151.088 219.27 150.404 219.27 149.56V145.782C219.27 144.938 218.631 144.254 217.842 144.254Z" fill="#597EF7"/>
<path d="M217.864 157.261H194.786C194.009 157.261 193.379 157.935 193.379 158.766V162.384C193.379 163.215 194.009 163.888 194.786 163.888H217.864C218.64 163.888 219.27 163.215 219.27 162.384V158.766C219.27 157.935 218.64 157.261 217.864 157.261Z" fill="#ADC6FF"/>
<path d="M217.864 170.269H194.786C194.009 170.269 193.379 170.942 193.379 171.773V175.391C193.379 176.222 194.009 176.896 194.786 176.896H217.864C218.64 176.896 219.27 176.222 219.27 175.391V171.773C219.27 170.942 218.64 170.269 217.864 170.269Z" fill="#FF7946"/>
<path d="M217.864 183.276H194.786C194.009 183.276 193.379 183.949 193.379 184.78V188.398C193.379 189.229 194.009 189.903 194.786 189.903H217.864C218.64 189.903 219.27 189.229 219.27 188.398V184.78C219.27 183.949 218.64 183.276 217.864 183.276Z" fill="#ADC6FF"/>
<path d="M325.098 187.278H253.052C252.126 187.278 251.376 188.081 251.376 189.071V189.078C251.376 190.068 252.126 190.871 253.052 190.871H325.098C326.024 190.871 326.774 190.068 326.774 189.078V189.071C326.774 188.081 326.024 187.278 325.098 187.278Z" fill="#597EF7"/>
<path d="M325.098 206.289H253.052C252.126 206.289 251.376 207.092 251.376 208.082V208.089C251.376 209.079 252.126 209.882 253.052 209.882H325.098C326.024 209.882 326.774 209.079 326.774 208.089V208.082C326.774 207.092 326.024 206.289 325.098 206.289Z" fill="#597EF7"/>
<path d="M350.23 196.283H253.052C252.126 196.283 251.376 197.086 251.376 198.076V198.083C251.376 199.073 252.126 199.876 253.052 199.876H350.23C351.156 199.876 351.907 199.073 351.907 198.083V198.076C351.907 197.086 351.156 196.283 350.23 196.283Z" fill="#597EF7"/>
<path d="M349.05 107.234H254.728C252.877 107.234 251.376 108.839 251.376 110.82V175.688C251.376 177.668 252.877 179.274 254.728 179.274H349.05C350.902 179.274 352.403 177.668 352.403 175.688V110.82C352.403 108.839 350.902 107.234 349.05 107.234Z" fill="#597EF7"/>
<path fill-rule="evenodd" clip-rule="evenodd" d="M378.525 84.6394H170.202V69.2723C170.202 65.9388 172.739 63.2361 175.868 63.2361H372.858C375.988 63.2361 378.525 65.9388 378.525 69.2723V84.6394Z" fill="#253368"/>
<path fill-rule="evenodd" clip-rule="evenodd" d="M184.81 73.285C184.81 75.3771 183.228 77.0732 181.276 77.0732C179.324 77.0732 177.742 75.3771 177.742 73.285C177.742 71.193 179.324 69.4968 181.276 69.4968C183.228 69.4968 184.81 71.193 184.81 73.285Z" fill="#FF7946"/>
<path fill-rule="evenodd" clip-rule="evenodd" d="M198.005 73.285C198.005 75.3771 196.422 77.0732 194.471 77.0732C192.519 77.0732 190.937 75.3771 190.937 73.285C190.937 71.193 192.519 69.4968 194.471 69.4968C196.422 69.4968 198.005 71.193 198.005 73.285Z" fill="#FAAD14"/>
<path fill-rule="evenodd" clip-rule="evenodd" d="M211.199 73.285C211.199 75.3771 209.617 77.0732 207.665 77.0732C205.714 77.0732 204.132 75.3771 204.132 73.285C204.132 71.193 205.714 69.4968 207.665 69.4968C209.617 69.4968 211.199 71.193 211.199 73.285Z" fill="#7CB305"/>
<path d="M206.938 130.3C213.325 130.3 218.503 124.699 218.503 117.789C218.503 110.879 213.325 105.278 206.938 105.278C200.55 105.278 195.372 110.879 195.372 117.789C195.372 124.699 200.55 130.3 206.938 130.3Z" fill="#FAAD14"/>
<path d="M206.938 130.3C210.271 130.302 213.435 128.709 215.579 125.948C213.889 122.478 210.562 120.306 206.936 120.306C203.31 120.306 199.982 122.478 198.292 125.948C200.438 128.71 203.603 130.303 206.938 130.3Z" fill="#253368"/>
<path d="M206.999 120.803C209.401 120.803 211.349 118.697 211.349 116.098C211.349 113.499 209.401 111.393 206.999 111.393C204.597 111.393 202.649 113.499 202.649 116.098C202.649 118.697 204.597 120.803 206.999 120.803Z" fill="#253368"/>
<path d="M352.724 132.248C352.982 132.248 353.191 132.472 353.191 132.748C353.191 133.012 353.001 133.228 352.759 133.247L352.724 133.248H252.311C252.053 133.248 251.844 133.024 251.844 132.748C251.844 132.484 252.034 132.268 252.276 132.249L252.311 132.248H352.724Z" fill="white"/>
<path d="M274.762 106.317C275.008 106.317 275.21 106.521 275.228 106.78L275.229 106.817V179.274C275.229 179.55 275.02 179.774 274.762 179.774C274.515 179.774 274.313 179.57 274.295 179.311L274.294 179.274V106.817C274.294 106.541 274.503 106.317 274.762 106.317Z" fill="white"/>
<path d="M301.889 106.317C302.136 106.317 302.338 106.521 302.356 106.78L302.357 106.817V179.274C302.357 179.55 302.148 179.774 301.889 179.774C301.643 179.774 301.441 179.57 301.423 179.311L301.422 179.274V106.817C301.422 106.541 301.631 106.317 301.889 106.317Z" fill="white"/>
<path d="M328.081 106.317C328.328 106.317 328.53 106.521 328.548 106.78L328.549 106.817V179.274C328.549 179.55 328.34 179.774 328.081 179.774C327.835 179.774 327.633 179.57 327.615 179.311L327.614 179.274V106.817C327.614 106.541 327.823 106.317 328.081 106.317Z" fill="white"/>
<path d="M352.724 156.261C352.982 156.261 353.191 156.485 353.191 156.761C353.191 157.025 353.001 157.241 352.759 157.26L352.724 157.262H252.311C252.053 157.262 251.844 157.038 251.844 156.761C251.844 156.498 252.034 156.281 252.276 156.262L252.311 156.261H352.724Z" fill="white"/>
<path fill-rule="evenodd" clip-rule="evenodd" d="M103.095 525.432H143.754V516.543H103.095V525.432Z" fill="#253368"/>
<path fill-rule="evenodd" clip-rule="evenodd" d="M133.637 425.775L144.525 569.279H153.874L142.986 425.775H133.637Z" fill="#597EF7"/>
<path fill-rule="evenodd" clip-rule="evenodd" d="M103.863 425.775L92.9746 569.279H102.324L113.212 425.775H103.863Z" fill="#597EF7"/>
<path fill-rule="evenodd" clip-rule="evenodd" d="M99.8933 435.115C95.0699 435.115 91.1602 430.933 91.1602 425.775C91.1602 420.617 95.0699 416.434 99.8933 416.434H147.81C152.632 416.434 156.543 420.617 156.543 425.775C156.543 430.933 152.632 435.115 147.81 435.115H99.8933Z" fill="#A3B5D6"/>
<path fill-rule="evenodd" clip-rule="evenodd" d="M199.154 472.419C199.12 472.176 205.359 532.905 205.464 537.288C205.747 549.25 204.503 550.925 210.533 553.942C212.078 554.715 214.36 553.736 216.845 556.586C223.644 564.386 233.419 568.645 234.534 564.031C235.224 559.718 219.31 546.453 217.549 537.625C215.719 528.454 225.053 456.769 219.035 451.704C213.016 446.638 200.048 422.074 199.154 472.419Z" fill="#FFC999"/>
<path fill-rule="evenodd" clip-rule="evenodd" d="M206.726 555.582C206.726 555.582 204.639 549.134 205.703 541.148C205.703 541.148 210.841 545.937 215.346 551.211C220.547 557.299 221.785 557.585 221.785 557.585C228.205 559.547 229.557 555.601 229.557 555.601C229.557 555.601 233.136 560.303 239.801 565.298C245.768 569.771 222.995 571.287 219.741 565.197C216.486 559.106 212.296 555.604 212.296 555.604L210.715 564.998L208.542 564.987L206.726 555.582Z" fill="#253368"/>
<path fill-rule="evenodd" clip-rule="evenodd" d="M228.352 418.168L220.436 522.63L185.957 519.724C185.957 519.724 188.404 463.089 193.487 415.52C193.487 415.52 194.561 390.53 212.918 392.322C231.274 394.113 228.352 418.168 228.352 418.168Z" fill="#A3B5D6"/>
<path fill-rule="evenodd" clip-rule="evenodd" d="M208.846 390.411C173.105 385.662 146.712 385.257 138.447 387.478C138.447 387.478 121.289 391.163 124.508 405.317C128.436 422.589 146.885 422.878 146.885 422.878L206.641 427.901C211.392 428.354 227.028 430.292 227.929 410.614C228.78 392.052 209.625 390.514 208.846 390.411Z" fill="#A3B5D6"/>
<path fill-rule="evenodd" clip-rule="evenodd" d="M188.979 303.527C188.979 303.527 160.615 341.826 157.12 347.48C147.51 363.029 165.758 369.884 171.376 361.438C174.901 356.138 179.462 344.076 184.369 334.123C191.287 320.094 195.938 309.619 195.938 309.619L188.979 303.527Z" fill="#FFC999"/>
<path fill-rule="evenodd" clip-rule="evenodd" d="M127.68 240.384C127.68 240.384 151.364 245.291 151.149 259.902C151.039 267.417 143.998 275.378 147.25 277.767C159.96 287.104 145.785 290.386 153.804 297.825C165.733 308.888 157.801 326.96 144.928 325.38C131.593 323.744 137.461 344.25 114.59 337.782C101.701 334.136 97.9955 330.962 88.9132 325.779C79.83 320.596 74.8292 294.658 86.4783 282.317C93.7232 274.5 100.435 275.48 104.686 262.251C108.937 249.021 112.912 240.953 119.05 242.227C121.384 238.843 127.68 240.384 127.68 240.384Z" fill="#253368"/>
<path fill-rule="evenodd" clip-rule="evenodd" d="M140.785 272.416C140.857 272.136 141.222 272.13 141.303 272.408C142.01 274.855 143.684 281.454 141.278 281.702C138.567 281.983 140.129 274.966 140.785 272.416Z" fill="white"/>
<path fill-rule="evenodd" clip-rule="evenodd" d="M117.116 291.711C118.196 281.67 119.222 273.466 119.222 273.466L133.658 282.197L132.806 294.433C132.148 298.937 128.141 301.963 123.961 301.114C119.541 300.215 116.601 296.501 117.116 291.711Z" fill="#F4B784"/>
<path fill-rule="evenodd" clip-rule="evenodd" d="M126.531 255.833C126.531 255.833 128.132 251.295 131.035 253.496C133.111 255.069 132.558 253.776 133.026 252.554C134.761 248.009 135.609 258.665 142.336 261.008C142.449 266.707 142.474 285.46 130.984 286.168C126.513 286.445 121.114 283.481 118.818 276.54C117.43 272.347 118.602 268.047 120.17 267.197C125.333 264.4 125.237 261.515 126.531 255.833Z" fill="#FFC999"/>
<path d="M136.021 260.884C135.85 260.83 135.672 260.919 135.597 261.086L135.576 261.144L134.775 264.063L134.76 264.18L134.769 264.452C134.772 264.543 134.777 264.651 134.783 264.776L134.805 265.21C134.826 265.588 134.853 266.007 134.888 266.466C135.005 268.015 135.185 269.744 135.438 271.629L135.539 272.356L135.522 272.363C135.036 272.536 134.546 272.658 134.061 272.736L133.771 272.777C133.38 272.826 133.039 272.842 132.765 272.837L132.566 272.829C132.369 272.813 132.196 272.971 132.181 273.182C132.165 273.394 132.313 273.579 132.51 273.596L132.603 273.601C132.932 273.616 133.358 273.602 133.854 273.54C134.584 273.449 135.329 273.267 136.064 272.973C136.223 272.909 136.318 272.734 136.292 272.554C135.964 270.28 135.74 268.217 135.603 266.404L135.565 265.879C135.542 265.542 135.524 265.231 135.509 264.946L135.483 264.341L135.48 264.222L136.264 261.361C136.315 261.178 136.232 260.987 136.076 260.907L136.021 260.884Z" fill="#DD936F"/>
<path d="M128.653 274.933C128.406 274.852 128.145 275 128.069 275.264C127.993 275.529 128.131 275.809 128.378 275.891C128.73 276.007 129.097 276.105 129.478 276.187C131.05 276.525 132.71 276.562 134.234 276.425L134.403 276.409L134.702 276.375C134.785 276.365 134.843 276.357 134.876 276.352C135.132 276.312 135.309 276.058 135.272 275.785C135.236 275.511 134.999 275.32 134.743 275.36L134.63 275.376C134.517 275.39 134.357 275.408 134.156 275.426C132.712 275.557 131.134 275.521 129.662 275.205C129.311 275.129 128.974 275.039 128.653 274.933Z" fill="#C44343"/>
<path d="M141.568 260.102C140.201 259.806 138.268 259.927 135.742 260.75C135.495 260.83 135.355 261.11 135.43 261.375C135.505 261.639 135.767 261.789 136.014 261.708C138.395 260.933 140.171 260.822 141.382 261.084L141.531 261.12C141.618 261.142 141.68 261.162 141.719 261.177L141.743 261.187C141.981 261.293 142.255 261.172 142.354 260.916C142.453 260.661 142.34 260.367 142.101 260.261C142 260.216 141.823 260.158 141.568 260.102Z" fill="#253368"/>
<path d="M127.719 259.683C126.721 259.52 125.846 259.5 125.125 259.655C124.871 259.71 124.708 259.974 124.759 260.246C124.81 260.517 125.056 260.692 125.309 260.638C125.907 260.509 126.679 260.527 127.578 260.674C128.273 260.788 129.018 260.974 129.782 261.211C130.133 261.321 130.471 261.436 130.791 261.553L131.104 261.67C131.349 261.763 131.525 261.835 131.618 261.875C131.858 261.978 132.13 261.854 132.226 261.597C132.322 261.34 132.206 261.049 131.967 260.945L131.709 260.839C131.653 260.817 131.592 260.793 131.524 260.767L131.418 260.726C130.993 260.563 130.53 260.401 130.043 260.249C129.243 260 128.459 259.804 127.719 259.683Z" fill="#253368"/>
<path d="M131.218 278.402C131.02 278.396 130.854 278.562 130.848 278.774C130.843 278.965 130.968 279.128 131.137 279.164L131.195 279.17L132.445 279.213C132.643 279.219 132.808 279.053 132.814 278.841C132.82 278.65 132.695 278.487 132.525 278.451L132.467 278.444L131.218 278.402Z" fill="#DD936F"/>
<path fill-rule="evenodd" clip-rule="evenodd" d="M112.236 269.947C111.357 265.119 115.665 265.491 115.665 265.491C115.665 265.491 115.673 270.287 116.776 274.596C112.456 274.376 112.236 269.947 112.236 269.947Z" fill="#FFC999"/>
<path fill-rule="evenodd" clip-rule="evenodd" d="M114.618 273.365C114.69 273.085 115.056 273.079 115.136 273.357C115.843 275.804 117.517 282.403 115.111 282.651C112.4 282.932 113.962 275.915 114.618 273.365Z" fill="white"/>
<path d="M137.119 265.925C136.862 265.903 136.637 266.109 136.617 266.385C136.516 267.772 137.227 269.014 138.296 269.104C139.365 269.193 140.247 268.085 140.349 266.698C140.369 266.422 140.176 266.181 139.919 266.159C139.662 266.138 139.437 266.344 139.416 266.62C139.351 267.511 138.847 268.145 138.369 268.105C137.891 268.065 137.484 267.355 137.549 266.463C137.569 266.187 137.377 265.946 137.119 265.925Z" fill="#253368"/>
<path d="M126.943 265.449C126.685 265.427 126.46 265.634 126.44 265.909C126.339 267.297 127.05 268.539 128.119 268.629C129.188 268.717 130.071 267.609 130.172 266.222C130.192 265.946 130 265.705 129.742 265.684C129.485 265.662 129.26 265.868 129.24 266.144C129.175 267.036 128.67 267.669 128.192 267.63C127.714 267.589 127.307 266.879 127.372 265.988C127.392 265.712 127.2 265.471 126.943 265.449Z" fill="#253368"/>
<path fill-rule="evenodd" clip-rule="evenodd" d="M170.914 353.659C170.914 353.659 160.93 319.385 158.321 313.206C152.02 298.283 141.998 298.869 137.986 307.166C133.151 317.167 156.846 361.076 156.846 361.076C156.846 361.076 159.582 367.22 166.346 365.067C174.341 362.521 170.914 353.659 170.914 353.659Z" fill="#FFC999"/>
<path fill-rule="evenodd" clip-rule="evenodd" d="M164.636 330.326C163.478 327.167 157.134 297.542 144.497 301.774C134.667 305.066 136.034 316.457 145.761 338.543L164.636 330.326Z" fill="#FF9D00"/>
<path fill-rule="evenodd" clip-rule="evenodd" d="M111.779 362.434C119.143 364.358 137.675 363.063 139.862 362.059C142.05 361.054 139.583 355.475 139.583 355.475C152.921 318.985 151.194 306.18 150.026 303.467C148.446 299.799 134.764 300.688 134.229 297.824C133.966 296.413 134.059 291.54 134.059 291.54L115.821 290.454C115.821 290.454 114.803 295.819 113.839 297.542C111.964 300.891 100.442 298.294 95.7028 305.066C87.232 317.169 103.754 340.19 110.119 355.319C110.119 355.319 107.885 358.997 111.779 362.434Z" fill="#FF9D00"/>
<path fill-rule="evenodd" clip-rule="evenodd" d="M135.476 414.598L151.032 397.167C151.032 397.167 147.677 377.729 139.057 369.262L108.311 368.106C108.311 368.106 95.1192 377.953 96.5536 401.808L120.139 414.736L135.476 414.598Z" fill="#E4EBF7"/>
<path fill-rule="evenodd" clip-rule="evenodd" d="M107.593 368.492L139.057 369.261L138.274 364.102L108.634 363.143L107.593 368.492Z" fill="#E4EBF7"/>
<path d="M128.093 369.273C127.901 369.297 127.763 369.484 127.785 369.69C128.141 372.983 128.41 376.563 128.6 380.385C129.025 388.962 129.032 398.089 128.778 406.777L128.73 408.305C128.704 409.094 128.677 409.84 128.649 410.539L128.562 412.572L128.516 413.509C128.504 413.716 128.652 413.894 128.845 413.906C129.039 413.918 129.204 413.76 129.216 413.553L129.273 412.392L129.35 410.571C129.372 410.011 129.394 409.42 129.415 408.801L129.431 408.332C129.733 399.171 129.752 389.452 129.3 380.345C129.11 376.508 128.84 372.913 128.482 369.603C128.462 369.418 128.319 369.28 128.15 369.271L128.093 369.273Z" fill="#A3B5D6"/>
<path d="M107.684 368.383C107.49 368.38 107.33 368.545 107.327 368.753C107.324 368.939 107.449 369.097 107.615 369.129L107.671 369.135L138.507 369.712C138.701 369.716 138.861 369.55 138.864 369.343C138.867 369.156 138.742 368.999 138.576 368.967L138.519 368.961L107.684 368.383Z" fill="#A3B5D6"/>
<path fill-rule="evenodd" clip-rule="evenodd" d="M162.227 474.558C162.19 474.313 169.353 535.408 169.521 539.822C169.981 551.871 168.751 553.581 174.871 556.521C176.439 557.273 178.724 556.249 181.27 559.08C188.234 566.828 198.146 570.957 199.202 566.289C199.836 561.933 183.607 548.829 181.705 539.962C179.729 530.751 188.1 458.357 181.962 453.352C175.825 448.348 162.401 423.808 162.227 474.558Z" fill="#FFC999"/>
<path fill-rule="evenodd" clip-rule="evenodd" d="M171.058 558.236C171.058 558.236 168.862 551.774 169.819 543.708C169.819 543.708 175.065 548.449 179.682 553.688C185.012 559.738 186.262 560.005 186.262 560.005C192.76 561.874 194.065 557.876 194.065 557.876C194.065 557.876 197.741 562.556 204.528 567.479C210.606 571.887 187.68 573.792 184.313 567.708C180.945 561.625 176.672 558.167 176.672 558.167L175.214 567.659L173.024 567.684L171.058 558.236Z" fill="#253368"/>
<path fill-rule="evenodd" clip-rule="evenodd" d="M190.919 411.348L200.996 516.421L166.331 520.336C166.331 520.336 159.04 463.732 155.917 415.594C155.917 415.594 152.694 390.618 171.191 388.777C189.688 386.937 190.919 411.348 190.919 411.348Z" fill="#E4EBF7"/>
<path fill-rule="evenodd" clip-rule="evenodd" d="M169.262 386.84C131.939 380.958 120.238 381.032 111.534 383.147C111.534 383.147 93.4843 386.571 96.542 401.474C100.273 419.661 119.586 420.432 119.586 420.432L166.122 426.043C171.087 426.639 188.799 427.891 188.799 408.481C188.799 389.015 170.075 386.968 169.262 386.84Z" fill="#E4EBF7"/>
<path fill-rule="evenodd" clip-rule="evenodd" d="M106.959 353.067C106.959 353.067 112.959 324.07 112.728 317.292C112.172 300.923 101.501 299.274 96.0538 306.571C91.8413 312.213 89.209 354.817 89.209 354.817C89.209 354.817 90.8136 362.104 97.8341 362.857C106.133 363.745 106.959 353.067 106.959 353.067Z" fill="#FFC999"/>
<path fill-rule="evenodd" clip-rule="evenodd" d="M102.197 300.928C94.8157 302.56 91.9843 310.368 91.3148 332.528L110.798 335.913C110.842 332.519 123.61 298.483 100.645 301.247" fill="#FF9D00"/>
<path fill-rule="evenodd" clip-rule="evenodd" d="M185.203 311.315C185.203 311.315 184.93 307.807 186.021 303.422C187.112 299.036 190.113 293.774 190.113 288.511C190.113 283.248 194.341 287.634 192.023 297.575C198.297 295.82 204.879 292.567 206.823 287.415C207.533 285.532 209.227 285.825 209.279 287.634C209.329 289.443 208.665 291.142 208.665 291.142C208.665 291.142 209.892 292.604 209.073 294.651C210.711 297.72 208.051 299.694 208.051 299.694C208.051 299.694 209.688 300.79 206.414 305.395C203.021 310.166 193.933 313.361 193.933 313.361L185.755 329.975L177.026 324.128L185.203 311.315Z" fill="#FFC999"/>
<path d="M192.354 297.426C192.277 297.23 192.067 297.138 191.884 297.22C191.702 297.302 191.616 297.527 191.692 297.723L191.79 297.995L191.817 298.077C191.914 298.366 192.01 298.69 192.1 299.04C192.384 300.146 192.541 301.256 192.506 302.282C192.461 303.561 192.119 304.602 191.428 305.342C191.288 305.492 191.288 305.735 191.428 305.885C191.568 306.035 191.795 306.035 191.935 305.885C192.769 304.992 193.172 303.768 193.222 302.311C193.261 301.196 193.094 300.011 192.792 298.836C192.72 298.559 192.645 298.297 192.569 298.055L192.493 297.818C192.431 297.633 192.383 297.499 192.354 297.426Z" fill="#DD936F"/>
<path d="M206.837 297.331C206.315 296.818 205.815 296.625 205.38 296.974C204.917 297.346 204.81 298.126 204.901 299.233C204.933 299.612 204.988 300.014 205.061 300.424C205.088 300.577 205.117 300.724 205.146 300.865L205.211 301.166L205.19 301.202C205.149 301.27 205.105 301.343 205.057 301.419L204.903 301.657C204.59 302.13 204.23 302.603 203.829 303.044C202.708 304.278 201.503 305.01 200.276 305.01C196.044 305.01 191.917 306.265 191.141 308.552C191.073 308.751 191.169 308.972 191.355 309.044C191.541 309.117 191.747 309.014 191.815 308.815C192.442 306.964 196.343 305.779 200.276 305.779C201.733 305.779 203.099 304.949 204.343 303.58C204.771 303.109 205.154 302.606 205.488 302.102C205.546 302.014 205.601 301.929 205.653 301.848L205.795 301.614C205.849 301.524 205.886 301.459 205.906 301.422C205.953 301.333 205.966 301.228 205.942 301.13L205.888 300.894C205.846 300.705 205.804 300.498 205.766 300.28C205.697 299.894 205.645 299.516 205.616 299.165C205.546 298.322 205.627 297.737 205.81 297.589C205.875 297.537 206.057 297.607 206.353 297.898C206.551 298.092 206.766 298.356 206.989 298.673C207.176 298.938 207.357 299.223 207.526 299.508L207.656 299.733C207.692 299.796 207.72 299.848 207.739 299.884C207.838 300.069 208.057 300.133 208.229 300.027C208.401 299.922 208.46 299.687 208.362 299.503L208.229 299.264C208.2 299.213 208.167 299.157 208.132 299.097C207.953 298.795 207.761 298.493 207.562 298.21C207.314 297.859 207.072 297.561 206.837 297.331Z" fill="#DD936F"/>
<path d="M207.704 292.277C207.011 291.665 206.343 291.55 205.911 292.245C205.573 292.789 205.547 293.539 205.745 294.444C205.841 294.886 205.988 295.351 206.173 295.826C206.262 296.054 206.355 296.274 206.449 296.483L206.544 296.687C206.621 296.848 206.681 296.967 206.716 297.033C206.814 297.218 207.033 297.282 207.205 297.176C207.377 297.071 207.437 296.836 207.339 296.652L207.26 296.497C207.238 296.452 207.212 296.399 207.184 296.339C207.065 296.088 206.946 295.816 206.835 295.53C206.664 295.092 206.529 294.665 206.443 294.269C206.286 293.551 206.305 292.997 206.508 292.671C206.632 292.471 206.836 292.507 207.247 292.87C207.467 293.064 207.706 293.331 207.954 293.652C208.157 293.914 208.354 294.197 208.537 294.48L208.715 294.762C208.737 294.799 208.755 294.83 208.769 294.854C208.874 295.034 209.096 295.089 209.264 294.976C209.431 294.864 209.483 294.627 209.378 294.447L209.233 294.209C209.201 294.158 209.166 294.103 209.127 294.043C208.933 293.743 208.723 293.443 208.506 293.161C208.231 292.806 207.963 292.506 207.704 292.277Z" fill="#DD936F"/>
<path d="M205.295 299.087C205.143 298.951 204.916 298.973 204.79 299.136C203.604 300.661 202.509 301.559 200.75 302.44C200.57 302.53 200.493 302.758 200.576 302.951C200.66 303.143 200.874 303.226 201.053 303.136C202.907 302.208 204.087 301.241 205.341 299.628C205.468 299.465 205.447 299.223 205.295 299.087Z" fill="#DD936F"/>
<path d="M206.322 296.077C206.192 295.917 205.966 295.9 205.816 296.039L205.634 296.202L205.388 296.412C205.3 296.486 205.207 296.563 205.108 296.643C204.542 297.101 203.917 297.558 203.25 297.985C202.239 298.633 201.227 299.149 200.244 299.486C200.055 299.551 199.951 299.767 200.011 299.97C200.072 300.172 200.274 300.283 200.462 300.218C201.503 299.862 202.564 299.321 203.618 298.645C204.308 298.203 204.955 297.73 205.54 297.256L205.831 297.017L206.188 296.708C206.232 296.669 206.265 296.639 206.286 296.619C206.436 296.48 206.452 296.237 206.322 296.077Z" fill="#DD936F"/>
<path d="M206.101 292.904C205.97 292.745 205.743 292.73 205.595 292.871L205.37 293.076L205.071 293.34C204.964 293.432 204.851 293.528 204.731 293.628C204.047 294.2 203.298 294.773 202.509 295.306C201.547 295.957 200.593 296.504 199.669 296.914C199.486 296.995 199.399 297.22 199.474 297.416C199.55 297.612 199.76 297.705 199.943 297.624C200.908 297.196 201.897 296.629 202.891 295.956C203.702 295.408 204.47 294.821 205.172 294.234C205.295 294.131 205.412 294.032 205.521 293.937L205.952 293.555C206.004 293.508 206.044 293.471 206.07 293.446C206.218 293.306 206.232 293.063 206.101 292.904Z" fill="#DD936F"/>
<path d="M198.828 295.769C198.642 295.842 198.546 296.062 198.613 296.262L198.766 296.734C198.796 296.829 198.828 296.93 198.86 297.036C199.047 297.642 199.233 298.293 199.407 298.964C199.604 299.721 199.771 300.455 199.902 301.148L199.983 301.601C200.269 303.303 200.277 304.578 199.959 305.213C199.866 305.4 199.931 305.633 200.106 305.733C200.28 305.833 200.498 305.763 200.591 305.576C201.043 304.672 201 303.099 200.605 300.996C200.471 300.284 200.299 299.532 200.098 298.758C199.957 298.211 199.807 297.678 199.655 297.17L199.542 296.795C199.475 296.579 199.413 296.384 199.358 296.213L199.287 295.999C199.22 295.8 199.014 295.697 198.828 295.769Z" fill="#DD936F"/>
<path d="M207.862 289.134C207.493 288.714 207.135 288.517 206.765 288.715C206.236 288.998 205.987 289.582 205.937 290.341C205.911 290.72 205.937 291.119 205.996 291.51C206.021 291.682 206.047 291.815 206.066 291.894C206.114 292.099 206.308 292.225 206.5 292.173C206.693 292.122 206.809 291.913 206.761 291.707L206.73 291.548C206.721 291.502 206.713 291.448 206.704 291.388C206.653 291.051 206.631 290.708 206.652 290.395C206.686 289.879 206.831 289.539 207.085 289.402C207.069 289.411 207.169 289.466 207.34 289.66C207.48 289.82 207.633 290.037 207.793 290.297C207.884 290.445 207.974 290.6 208.06 290.759L208.186 290.998C208.261 291.141 208.315 291.252 208.344 291.314C208.432 291.504 208.648 291.581 208.825 291.486C209.002 291.391 209.074 291.16 208.985 290.97L208.933 290.863C208.902 290.798 208.862 290.718 208.814 290.626C208.682 290.37 208.54 290.114 208.392 289.873C208.211 289.58 208.034 289.33 207.862 289.134Z" fill="#DD936F"/>
<path fill-rule="evenodd" clip-rule="evenodd" d="M139.003 368.115H177.672C178.757 368.115 179.717 367.363 180.047 366.256L193.222 321.937C193.733 320.216 192.534 318.458 190.848 318.458H152.178C151.094 318.458 150.134 319.21 149.805 320.317L136.629 364.635C136.117 366.357 137.316 368.115 139.003 368.115Z" fill="#C44343"/>
<path fill-rule="evenodd" clip-rule="evenodd" d="M141.499 368.115H180.169C181.253 368.115 182.214 367.363 182.543 366.256L195.718 321.937C196.23 320.216 195.032 318.458 193.345 318.458H154.675C153.59 318.458 152.63 319.21 152.301 320.317L139.126 364.635C138.614 366.357 139.813 368.115 141.499 368.115Z" fill="#FF7946"/>
<path fill-rule="evenodd" clip-rule="evenodd" d="M153.624 352.841C153.624 352.841 105.955 344.018 99.6268 344.065C86.7883 344.161 85.7859 361.024 96.9955 363.05C111.425 365.661 153.644 363.984 153.644 363.984L153.624 352.841Z" fill="#FFC999"/>
<path fill-rule="evenodd" clip-rule="evenodd" d="M161.075 364.374C161.075 364.374 149.381 365.102 146.69 359.929C144.252 355.247 149.383 351.155 149.383 351.155C149.383 351.155 153.738 348.45 159.177 346.909C162.741 345.899 169.239 342.896 170.228 344.717C171.516 347.09 164.394 348.994 164.139 350.963C163.625 354.953 175.135 353.223 177.15 354.017C181.089 355.569 175.109 363.617 161.075 364.374Z" fill="#FFC999"/>
<path d="M177.442 356.029C177.383 355.826 177.181 355.714 176.992 355.777C176.564 355.921 176.124 356.048 175.672 356.158C172.972 356.813 170.085 356.846 167.402 356.506C167.116 356.47 166.854 356.432 166.619 356.393L166.186 356.316C166.154 356.31 166.129 356.305 166.11 356.301C165.915 356.26 165.727 356.395 165.688 356.603C165.65 356.811 165.776 357.014 165.97 357.055L166.332 357.123C166.62 357.173 166.95 357.223 167.318 357.269C170.075 357.618 173.039 357.585 175.83 356.907C176.301 356.793 176.76 356.661 177.207 356.511C177.396 356.447 177.501 356.231 177.442 356.029Z" fill="#DD936F"/>
<path d="M176.22 358.834C176.152 358.635 175.946 358.532 175.76 358.604L175.534 358.684C175.457 358.71 175.364 358.739 175.256 358.772C174.831 358.902 174.331 359.031 173.759 359.153C171.218 359.692 168.21 359.887 164.823 359.535C164.626 359.514 164.45 359.669 164.431 359.88C164.412 360.092 164.556 360.279 164.754 360.3C168.214 360.66 171.291 360.46 173.899 359.907C174.406 359.799 174.859 359.685 175.258 359.569L175.662 359.446C175.82 359.395 175.935 359.354 176.005 359.327C176.191 359.254 176.287 359.034 176.22 358.834Z" fill="#DD936F"/>
<path d="M171.047 361.669C167.966 362.191 165.491 362.297 163.658 362.156L163.242 362.118C163.061 362.099 162.936 362.082 162.867 362.07C162.671 362.035 162.487 362.177 162.454 362.386C162.422 362.596 162.555 362.793 162.75 362.828L162.916 362.852L163.13 362.878C163.208 362.887 163.291 362.895 163.381 362.903C165.29 363.075 167.897 362.981 171.159 362.428C171.355 362.395 171.488 362.198 171.457 361.989C171.43 361.8 171.278 361.665 171.105 361.665L171.047 361.669Z" fill="#DD936F"/>
<path d="M170.565 344.586C170.497 344.387 170.292 344.284 170.106 344.356C169.919 344.428 169.823 344.649 169.891 344.848C170.011 345.204 170.014 345.397 169.909 345.586L169.845 345.691C169.782 345.803 169.853 345.773 169.537 346.021L167.914 347.254C167.717 347.404 167.525 347.537 167.257 347.711L166.014 348.496C165.097 349.088 164.643 349.464 164.293 349.968C163.713 350.805 163.772 351.735 164.542 352.735C165.368 353.808 167.409 354.327 170.346 354.475C171.855 354.552 173.468 354.521 175.026 354.423C175.273 354.408 175.504 354.392 175.715 354.375L176.252 354.329C176.449 354.309 176.594 354.122 176.576 353.91C176.557 353.699 176.383 353.544 176.185 353.564L175.864 353.592L175.449 353.625C175.302 353.635 175.147 353.646 174.985 353.656C173.449 353.752 171.861 353.782 170.38 353.707C167.652 353.569 165.741 353.084 165.095 352.246C164.527 351.509 164.493 350.969 164.869 350.427C165.179 349.979 165.653 349.612 166.702 348.951L167.528 348.433C167.827 348.241 168.039 348.097 168.249 347.941L169.611 346.916L169.658 346.879C170.054 346.566 170.294 346.335 170.457 346.091C170.749 345.653 170.772 345.198 170.565 344.586Z" fill="#DD936F"/>
<path d="M107.515 305.098C107.338 305.015 107.131 305.102 107.053 305.292C106.976 305.482 107.056 305.703 107.234 305.787C108.787 306.515 110.047 308.487 111.011 311.325C111.457 312.639 111.81 314.05 112.079 315.462C112.154 315.857 112.218 316.23 112.272 316.574L112.338 317.019L112.375 317.295L110.449 335.872C110.43 336.057 110.54 336.226 110.703 336.275L110.759 336.287C110.932 336.307 111.09 336.189 111.135 336.015L111.146 335.955L113.076 317.333L113.076 317.246L113.032 316.909L113.003 316.709C112.941 316.287 112.862 315.817 112.766 315.312C112.491 313.866 112.129 312.42 111.67 311.068C110.646 308.054 109.29 305.93 107.515 305.098Z" fill="#253368"/>
<path d="M121.504 299.047C121.311 299.047 121.154 299.215 121.154 299.423C121.154 299.61 121.281 299.765 121.447 299.794L121.504 299.799H131.508C131.702 299.799 131.859 299.63 131.859 299.423C131.859 299.236 131.732 299.081 131.565 299.052L131.508 299.047H121.504Z" fill="#253368"/>
<path d="M130.951 300.992L125.685 301.368C125.428 301.386 125.233 301.625 125.25 301.901C125.266 302.154 125.454 302.351 125.684 302.368L125.748 302.368L131.013 301.992C131.271 301.973 131.466 301.735 131.448 301.459C131.433 301.205 131.244 301.009 131.014 300.992L130.951 300.992Z" fill="#253368"/>
<path d="M146.451 310.728C146.285 310.669 146.108 310.75 146.03 310.91L146.007 310.966L144.954 314.351C144.938 314.405 144.933 314.461 144.939 314.517L144.95 314.572L147.845 325.576C147.898 325.775 148.092 325.892 148.278 325.835C148.446 325.784 148.551 325.611 148.531 325.432L148.52 325.372L145.654 314.479L146.673 311.204C146.728 311.027 146.653 310.836 146.503 310.752L146.451 310.728Z" fill="#253368"/>
<path d="M98.753 342.307C98.5584 342.268 98.3708 342.405 98.3339 342.613C98.3006 342.801 98.4009 342.983 98.5631 343.046L98.6194 343.062L113.89 346.166C114.085 346.205 114.272 346.068 114.309 345.86C114.342 345.672 114.242 345.491 114.08 345.427L114.024 345.411L98.753 342.307Z" fill="#DD936F"/>
<defs>
<clipPath id="clip0">
<rect width="223.298" height="237.545" fill="white" transform="translate(228.784 342.972)"/>
</clipPath>
<clipPath id="clip1">
<rect width="112.884" height="116.426" fill="white" transform="matrix(0.852114 0.523357 -0.477001 0.878903 356.11 349.932)"/>
</clipPath>
</defs>
</svg>
