<svg width="213" height="54" viewBox="0 0 213 54" fill="none" xmlns="http://www.w3.org/2000/svg">
<circle cx="27" cy="27" r="27" fill="#FF9D00"/>
<path d="M53.5956 22.2473C53.5956 22.2473 27.0215 22.2473 21.1866 22.2473C15.3517 22.2473 15.2883 36.8091 21.1866 36.8091C27.0849 36.8091 52.2003 36.8091 52.2003 36.8091" stroke="white" stroke-width="3"/>
<path d="M81.7954 36.432C80.2434 36.432 78.8354 36.12 77.5714 35.496C76.3234 34.856 75.3314 33.912 74.5954 32.664C73.8594 31.416 73.4914 29.888 73.4914 28.08C73.4914 26.704 73.7154 25.496 74.1634 24.456C74.6114 23.416 75.2194 22.544 75.9874 21.84C76.7714 21.136 77.6674 20.608 78.6754 20.256C79.6994 19.904 80.7794 19.728 81.9154 19.728C82.8274 19.728 83.6674 19.832 84.4354 20.04C85.2034 20.248 85.9234 20.536 86.5954 20.904L86.6914 23.856H86.4514L85.2514 21.936C85.0914 21.632 84.9154 21.36 84.7234 21.12C84.5314 20.864 84.2914 20.672 84.0034 20.544C83.7634 20.432 83.5234 20.352 83.2834 20.304C83.0594 20.24 82.7714 20.208 82.4194 20.208C81.4914 20.208 80.6434 20.456 79.8754 20.952C79.1234 21.448 78.5154 22.272 78.0514 23.424C77.6034 24.56 77.3794 26.12 77.3794 28.104C77.3794 30.072 77.5954 31.632 78.0274 32.784C78.4594 33.92 79.0434 34.736 79.7794 35.232C80.5314 35.712 81.3714 35.952 82.2994 35.952C82.8114 35.952 83.2194 35.92 83.5234 35.856C83.8274 35.776 84.1314 35.664 84.4354 35.52C84.7394 35.392 84.9714 35.208 85.1314 34.968C85.2914 34.712 85.4354 34.44 85.5634 34.152L86.6194 31.8H86.8594L86.7874 35.232C86.1154 35.584 85.3634 35.872 84.5314 36.096C83.6994 36.32 82.7874 36.432 81.7954 36.432ZM93.7843 36.36C92.5683 36.36 91.5123 36.112 90.6163 35.616C89.7203 35.104 89.0243 34.384 88.5283 33.456C88.0483 32.528 87.8083 31.44 87.8083 30.192C87.8083 28.944 88.0643 27.864 88.5763 26.952C89.1043 26.04 89.8163 25.336 90.7123 24.84C91.6243 24.344 92.6483 24.096 93.7843 24.096C94.9203 24.096 95.9363 24.344 96.8323 24.84C97.7283 25.32 98.4323 26.016 98.9443 26.928C99.4723 27.84 99.7363 28.928 99.7363 30.192C99.7363 31.456 99.4883 32.552 98.9923 33.48C98.5123 34.392 97.8243 35.104 96.9283 35.616C96.0483 36.112 95.0003 36.36 93.7843 36.36ZM93.7843 35.88C94.3443 35.88 94.7923 35.72 95.1283 35.4C95.4643 35.08 95.7043 34.512 95.8483 33.696C96.0083 32.88 96.0883 31.728 96.0883 30.24C96.0883 28.736 96.0083 27.576 95.8483 26.76C95.7043 25.944 95.4643 25.376 95.1283 25.056C94.7923 24.736 94.3443 24.576 93.7843 24.576C93.2243 24.576 92.7683 24.736 92.4163 25.056C92.0803 25.376 91.8323 25.944 91.6723 26.76C91.5283 27.576 91.4563 28.736 91.4563 30.24C91.4563 31.728 91.5283 32.88 91.6723 33.696C91.8323 34.512 92.0803 35.08 92.4163 35.4C92.7683 35.72 93.2243 35.88 93.7843 35.88ZM100.529 36V35.76L100.817 35.664C101.393 35.472 101.681 35.072 101.681 34.464V21.624C101.681 21.304 101.617 21.064 101.489 20.904C101.361 20.728 101.137 20.6 100.817 20.52L100.505 20.448V20.208L104.897 19.176L105.185 19.392L105.089 22.752V30.96C105.089 31.552 105.089 32.144 105.089 32.736C105.105 33.312 105.113 33.888 105.113 34.464C105.113 34.784 105.177 35.048 105.305 35.256C105.433 35.448 105.649 35.592 105.953 35.688L106.265 35.76V36H100.529ZM110.354 36.36C109.426 36.36 108.642 36.096 108.002 35.568C107.378 35.04 107.066 34.28 107.066 33.288C107.066 32.536 107.45 31.848 108.218 31.224C108.986 30.584 110.194 30.104 111.842 29.784C112.098 29.736 112.386 29.688 112.706 29.64C113.026 29.576 113.362 29.512 113.714 29.448V27.552C113.714 26.464 113.578 25.704 113.306 25.272C113.05 24.824 112.642 24.6 112.082 24.6C111.698 24.6 111.394 24.728 111.17 24.984C110.946 25.224 110.802 25.648 110.738 26.256L110.69 26.52C110.658 27.208 110.49 27.712 110.186 28.032C109.882 28.352 109.506 28.512 109.058 28.512C108.642 28.512 108.298 28.384 108.026 28.128C107.754 27.872 107.618 27.528 107.618 27.096C107.618 26.44 107.842 25.888 108.29 25.44C108.754 24.992 109.362 24.656 110.114 24.432C110.866 24.208 111.682 24.096 112.562 24.096C113.986 24.096 115.082 24.448 115.85 25.152C116.634 25.84 117.026 26.968 117.026 28.536V33.84C117.026 34.56 117.362 34.92 118.034 34.92H118.562L118.778 35.112C118.474 35.496 118.138 35.792 117.77 36C117.418 36.208 116.914 36.312 116.258 36.312C115.554 36.312 114.994 36.152 114.578 35.832C114.178 35.496 113.914 35.056 113.786 34.512C113.306 35.024 112.81 35.464 112.298 35.832C111.802 36.184 111.154 36.36 110.354 36.36ZM111.818 34.896C112.138 34.896 112.434 34.824 112.706 34.68C112.994 34.52 113.33 34.28 113.714 33.96V29.928C113.554 29.96 113.394 29.992 113.234 30.024C113.074 30.056 112.89 30.088 112.682 30.12C111.946 30.312 111.354 30.64 110.906 31.104C110.474 31.552 110.258 32.16 110.258 32.928C110.258 33.584 110.41 34.08 110.714 34.416C111.018 34.736 111.386 34.896 111.818 34.896ZM123.135 36.312L119.079 36V35.76L119.319 35.712C119.943 35.568 120.255 35.168 120.255 34.512V21.672C120.255 21.336 120.199 21.08 120.087 20.904C119.991 20.728 119.783 20.608 119.463 20.544L119.127 20.448V20.208L123.399 19.176L123.687 19.392L123.591 22.776V25.2C124.119 24.832 124.695 24.56 125.319 24.384C125.943 24.192 126.575 24.096 127.215 24.096C128.127 24.096 128.935 24.312 129.639 24.744C130.343 25.16 130.895 25.816 131.295 26.712C131.711 27.592 131.919 28.728 131.919 30.12C131.919 31.512 131.687 32.672 131.223 33.6C130.775 34.512 130.167 35.2 129.399 35.664C128.647 36.128 127.815 36.36 126.903 36.36C126.311 36.36 125.711 36.28 125.103 36.12C124.511 35.96 123.983 35.736 123.519 35.448L123.135 36.312ZM125.703 35.544C126.215 35.544 126.663 35.384 127.047 35.064C127.431 34.744 127.735 34.2 127.959 33.432C128.183 32.648 128.295 31.576 128.295 30.216C128.295 28.856 128.191 27.808 127.983 27.072C127.775 26.336 127.479 25.824 127.095 25.536C126.727 25.248 126.279 25.104 125.751 25.104C124.999 25.104 124.303 25.312 123.663 25.728V34.944C123.967 35.136 124.279 35.288 124.599 35.4C124.919 35.496 125.287 35.544 125.703 35.544Z" fill="#41D3BD"/>
<path d="M145.283 36.432C144.307 36.432 143.363 36.256 142.451 35.904C141.555 35.552 140.747 35.032 140.027 34.344C139.323 33.64 138.763 32.768 138.347 31.728C137.931 30.688 137.723 29.472 137.723 28.08C137.723 26.704 137.931 25.496 138.347 24.456C138.763 23.416 139.331 22.552 140.051 21.864C140.771 21.16 141.579 20.632 142.475 20.28C143.387 19.912 144.323 19.728 145.283 19.728C146.259 19.728 147.195 19.904 148.091 20.256C149.003 20.592 149.811 21.112 150.515 21.816C151.235 22.504 151.803 23.376 152.219 24.432C152.635 25.472 152.843 26.688 152.843 28.08C152.843 29.44 152.635 30.648 152.219 31.704C151.803 32.744 151.235 33.616 150.515 34.32C149.811 35.008 149.003 35.536 148.091 35.904C147.195 36.256 146.259 36.432 145.283 36.432ZM145.283 35.928C146.163 35.928 146.875 35.696 147.419 35.232C147.963 34.752 148.355 33.944 148.595 32.808C148.851 31.656 148.979 30.08 148.979 28.08C148.979 26.064 148.851 24.488 148.595 23.352C148.355 22.2 147.963 21.392 147.419 20.928C146.875 20.448 146.163 20.208 145.283 20.208C144.419 20.208 143.715 20.448 143.171 20.928C142.627 21.392 142.227 22.2 141.971 23.352C141.731 24.488 141.611 26.064 141.611 28.08C141.611 30.08 141.731 31.656 141.971 32.808C142.227 33.944 142.627 34.752 143.171 35.232C143.715 35.696 144.419 35.928 145.283 35.928ZM153.561 36V35.76L153.921 35.664C154.241 35.568 154.457 35.424 154.569 35.232C154.697 35.04 154.761 34.792 154.761 34.488V26.976C154.761 26.624 154.697 26.368 154.569 26.208C154.457 26.032 154.241 25.912 153.921 25.848L153.561 25.752V25.512L157.689 24.12L157.929 24.36L158.145 26.424V26.616C158.369 26.168 158.657 25.76 159.009 25.392C159.377 25.008 159.777 24.696 160.209 24.456C160.657 24.216 161.097 24.096 161.529 24.096C162.137 24.096 162.601 24.264 162.921 24.6C163.241 24.936 163.401 25.36 163.401 25.872C163.401 26.416 163.241 26.84 162.921 27.144C162.617 27.432 162.249 27.576 161.817 27.576C161.145 27.576 160.553 27.24 160.041 26.568L159.993 26.52C159.833 26.296 159.649 26.176 159.441 26.16C159.233 26.128 159.041 26.224 158.865 26.448C158.705 26.592 158.569 26.768 158.457 26.976C158.361 27.168 158.265 27.392 158.169 27.648V34.344C158.169 34.984 158.449 35.384 159.009 35.544L159.777 35.76V36H153.561ZM166.904 36.36C165.976 36.36 165.192 36.096 164.552 35.568C163.928 35.04 163.616 34.28 163.616 33.288C163.616 32.536 164 31.848 164.768 31.224C165.536 30.584 166.744 30.104 168.392 29.784C168.648 29.736 168.936 29.688 169.256 29.64C169.576 29.576 169.912 29.512 170.264 29.448V27.552C170.264 26.464 170.128 25.704 169.856 25.272C169.6 24.824 169.192 24.6 168.632 24.6C168.248 24.6 167.944 24.728 167.72 24.984C167.496 25.224 167.352 25.648 167.288 26.256L167.24 26.52C167.208 27.208 167.04 27.712 166.736 28.032C166.432 28.352 166.056 28.512 165.608 28.512C165.192 28.512 164.848 28.384 164.576 28.128C164.304 27.872 164.168 27.528 164.168 27.096C164.168 26.44 164.392 25.888 164.84 25.44C165.304 24.992 165.912 24.656 166.664 24.432C167.416 24.208 168.232 24.096 169.112 24.096C170.536 24.096 171.632 24.448 172.4 25.152C173.184 25.84 173.576 26.968 173.576 28.536V33.84C173.576 34.56 173.912 34.92 174.584 34.92H175.112L175.328 35.112C175.024 35.496 174.688 35.792 174.32 36C173.968 36.208 173.464 36.312 172.808 36.312C172.104 36.312 171.544 36.152 171.128 35.832C170.728 35.496 170.464 35.056 170.336 34.512C169.856 35.024 169.36 35.464 168.848 35.832C168.352 36.184 167.704 36.36 166.904 36.36ZM168.368 34.896C168.688 34.896 168.984 34.824 169.256 34.68C169.544 34.52 169.88 34.28 170.264 33.96V29.928C170.104 29.96 169.944 29.992 169.784 30.024C169.624 30.056 169.44 30.088 169.232 30.12C168.496 30.312 167.904 30.64 167.456 31.104C167.024 31.552 166.808 32.16 166.808 32.928C166.808 33.584 166.96 34.08 167.264 34.416C167.568 34.736 167.936 34.896 168.368 34.896ZM175.535 36V35.76L175.871 35.664C176.431 35.504 176.711 35.112 176.711 34.488V26.976C176.711 26.624 176.655 26.368 176.543 26.208C176.431 26.032 176.215 25.912 175.895 25.848L175.535 25.752V25.512L179.639 24.12L179.879 24.36L180.071 25.8C180.631 25.304 181.263 24.896 181.967 24.576C182.671 24.256 183.367 24.096 184.055 24.096C185.111 24.096 185.919 24.384 186.479 24.96C187.055 25.536 187.343 26.416 187.343 27.6V34.512C187.343 35.136 187.647 35.528 188.255 35.688L188.471 35.76V36H182.807V35.76L183.119 35.664C183.679 35.488 183.959 35.096 183.959 34.488V26.832C183.959 25.808 183.447 25.296 182.423 25.296C181.719 25.296 180.951 25.648 180.119 26.352V34.512C180.119 35.136 180.399 35.528 180.959 35.688L181.175 35.76V36H175.535ZM194.402 31.848C193.298 31.848 192.362 31.664 191.594 31.296V32.112C191.594 32.608 191.842 32.904 192.338 33L196.85 33.84C197.602 33.984 198.282 34.176 198.89 34.416C199.498 34.64 199.986 34.968 200.354 35.4C200.722 35.816 200.906 36.392 200.906 37.128C200.906 37.912 200.65 38.632 200.138 39.288C199.626 39.96 198.866 40.496 197.858 40.896C196.866 41.312 195.626 41.52 194.138 41.52C192.858 41.52 191.842 41.384 191.09 41.112C190.338 40.856 189.802 40.52 189.482 40.104C189.178 39.688 189.026 39.248 189.026 38.784C189.026 38.208 189.218 37.624 189.602 37.032C190.002 36.456 190.49 35.992 191.066 35.64C190.57 35.448 190.21 35.2 189.986 34.896C189.762 34.592 189.65 34.264 189.65 33.912C189.65 33.592 189.73 33.296 189.89 33.024C190.066 32.736 190.274 32.448 190.514 32.16L191.306 31.152C190.138 30.48 189.554 29.424 189.554 27.984C189.554 26.832 189.962 25.896 190.778 25.176C191.61 24.456 192.826 24.096 194.426 24.096C195.242 24.096 195.954 24.192 196.562 24.384C197.186 24.576 197.698 24.848 198.098 25.2C198.61 25.12 199.09 24.992 199.538 24.816C200.002 24.624 200.418 24.368 200.786 24.048L201.122 24.288V25.512H198.41C198.986 26.152 199.274 26.976 199.274 27.984C199.274 29.104 198.858 30.032 198.026 30.768C197.21 31.488 196.002 31.848 194.402 31.848ZM194.378 31.368C195.018 31.368 195.482 31.104 195.77 30.576C196.074 30.048 196.226 29.168 196.226 27.936C196.226 26.704 196.074 25.84 195.77 25.344C195.482 24.832 195.034 24.576 194.426 24.576C193.834 24.576 193.386 24.84 193.082 25.368C192.778 25.88 192.626 26.752 192.626 27.984C192.626 29.216 192.762 30.088 193.034 30.6C193.322 31.112 193.77 31.368 194.378 31.368ZM190.802 38.016C190.802 38.96 191.09 39.672 191.666 40.152C192.258 40.632 193.186 40.872 194.45 40.872C195.778 40.872 196.778 40.656 197.45 40.224C198.122 39.792 198.458 39.184 198.458 38.4C198.458 37.952 198.29 37.592 197.954 37.32C197.634 37.048 197.082 36.84 196.298 36.696L191.954 35.88C191.826 35.848 191.698 35.816 191.57 35.784C191.346 36.104 191.162 36.464 191.018 36.864C190.874 37.28 190.802 37.664 190.802 38.016ZM207.329 24.096C208.369 24.096 209.257 24.312 209.993 24.744C210.729 25.16 211.289 25.736 211.673 26.472C212.073 27.192 212.273 28.016 212.273 28.944C212.273 29.12 212.265 29.304 212.249 29.496C212.233 29.672 212.201 29.832 212.153 29.976H205.001C205.017 31.704 205.321 32.952 205.913 33.72C206.521 34.472 207.417 34.848 208.601 34.848C209.401 34.848 210.049 34.72 210.545 34.464C211.041 34.208 211.505 33.832 211.937 33.336L212.177 33.552C211.681 34.432 211.017 35.12 210.185 35.616C209.369 36.112 208.385 36.36 207.233 36.36C206.097 36.36 205.089 36.12 204.209 35.64C203.329 35.144 202.641 34.44 202.145 33.528C201.649 32.616 201.401 31.528 201.401 30.264C201.401 28.952 201.689 27.84 202.265 26.928C202.841 26 203.577 25.296 204.473 24.816C205.385 24.336 206.337 24.096 207.329 24.096ZM207.257 24.576C206.793 24.576 206.393 24.72 206.057 25.008C205.737 25.28 205.481 25.776 205.289 26.496C205.113 27.2 205.017 28.2 205.001 29.496H209.105C209.265 27.752 209.201 26.496 208.913 25.728C208.625 24.96 208.073 24.576 207.257 24.576Z" fill="#FF9D00"/>
</svg>
