<svg width="48" height="49" viewBox="0 0 48 49" fill="none" xmlns="http://www.w3.org/2000/svg">
<path d="M24 0.5C17.6348 0.5 11.5303 3.03754 7.02944 7.55438C2.52856 12.0712 0 18.1974 0 24.5852C0 30.9729 2.52856 37.0991 7.02944 41.6159C11.5303 46.1328 17.6348 48.6703 24 48.6703C30.3652 48.6703 36.4697 46.1328 40.9706 41.6159C45.4714 37.0991 48 30.9729 48 24.5852C48 18.1974 45.4714 12.0712 40.9706 7.55438C36.4697 3.03754 30.3652 0.5 24 0.5V0.5ZM34.5 23.0798C34.8978 23.0798 35.2794 23.2384 35.5607 23.5207C35.842 23.803 36 24.1859 36 24.5852C36 24.9844 35.842 25.3673 35.5607 25.6496C35.2794 25.9319 34.8978 26.0905 34.5 26.0905H17.121L23.562 32.5513C23.7015 32.6913 23.8121 32.8574 23.8876 33.0403C23.963 33.2232 24.0019 33.4192 24.0019 33.6171C24.0019 33.815 23.963 34.011 23.8876 34.1939C23.8121 34.3768 23.7015 34.5429 23.562 34.6829C23.4225 34.8228 23.257 34.9338 23.0748 35.0096C22.8925 35.0853 22.6972 35.1243 22.5 35.1243C22.3028 35.1243 22.1075 35.0853 21.9252 35.0096C21.743 34.9338 21.5775 34.8228 21.438 34.6829L12.438 25.6509C12.2983 25.5111 12.1875 25.345 12.1119 25.1621C12.0362 24.9792 11.9973 24.7832 11.9973 24.5852C11.9973 24.3872 12.0362 24.1911 12.1119 24.0082C12.1875 23.8253 12.2983 23.6592 12.438 23.5194L21.438 14.4875C21.7197 14.2048 22.1017 14.046 22.5 14.046C22.8983 14.046 23.2803 14.2048 23.562 14.4875C23.8437 14.7701 24.0019 15.1535 24.0019 15.5532C24.0019 15.953 23.8437 16.3363 23.562 16.619L17.121 23.0798H34.5Z" fill="#FF9D00"/>
</svg>
